<?xml version="1.0" encoding="utf-8"?>
<!-- Generator: Adobe Illustrator 25.0.1, SVG Export Plug-In . SVG Version: 6.00 Build 0)  -->
<svg version="1.1" id="Слой_1" xmlns="http://www.w3.org/2000/svg" xmlns:xlink="http://www.w3.org/1999/xlink" x="0px" y="0px"
	 viewBox="0 0 187.4 256" style="enable-background:new 0 0 187.4 256;" xml:space="preserve">
<style type="text/css">
	.st0{fill:#24C6FB;}
	.st1{enable-background:new    ;}
	.st2{fill:#FFFFFF;}
	.st3{fill:none;stroke:#24C6FB;stroke-width:8;stroke-miterlimit:10;}
</style>
<g id="Слой_3">
	<circle class="st0" cx="94.1" cy="160.1" r="93.3"/>
</g>
<g id="Слой_2_1_">
	<g class="st1">
		<path class="st2" d="M114,149.2c-0.7,7.2-2.8,12.5-6.3,15.8c-3.4,3.3-7.8,4.9-13,4.9c-5.6,0-10.2-2-13.7-5.9s-5.3-10.5-5.3-19.7
			v-21.5c30.3-11.6,48.5-20.5,54.7-26.7s9.3-12.6,9.3-19c0-9.1-3.6-16.9-10.9-23.5c-7.3-6.6-17.6-9.9-30.9-9.9
			c-14.1,0-27.6,3.2-40.7,9.7V59c0,9.1-1.8,15.6-5.3,19.5s-8.2,5.9-13.9,5.9c-5.6,0-10.2-1.9-13.7-5.8c-3.6-3.9-5.4-10.4-5.4-19.6
			V28.2C38.4,19,53.6,12.9,64.5,9.9c10.8-3,22-4.5,33.6-4.5c24.2,0,43.5,7,58.1,20.9c14.6,13.9,21.9,31.4,21.9,52.5
			c0,14.9-4.4,27.6-13.2,38.1C156.1,127.3,139.1,138.1,114,149.2z M122,223.1c0,5.9-2.1,10.6-6.3,14.3s-11.1,5.5-20.8,5.5
			s-16.7-1.8-20.8-5.5c-4.2-3.7-6.3-8.4-6.3-14.3c0-5.9,2.1-10.6,6.2-14.3s11.1-5.5,20.9-5.5c9.7,0,16.7,1.8,20.8,5.5
			C119.9,212.5,122,217.3,122,223.1z"/>
	</g>
	<g class="st1">
		<path class="st3" d="M114,149.2c-0.7,7.2-2.8,12.5-6.3,15.8c-3.4,3.3-7.8,4.9-13,4.9c-5.6,0-10.2-2-13.7-5.9s-5.3-10.5-5.3-19.7
			v-21.5c30.3-11.6,48.5-20.5,54.7-26.7s9.3-12.6,9.3-19c0-9.1-3.6-16.9-10.9-23.5c-7.3-6.6-17.6-9.9-30.9-9.9
			c-14.1,0-27.6,3.2-40.7,9.7V59c0,9.1-1.8,15.6-5.3,19.5s-8.2,5.9-13.9,5.9c-5.6,0-10.2-1.9-13.7-5.8c-3.6-3.9-5.4-10.4-5.4-19.6
			V28.2C38.4,19,53.6,12.9,64.5,9.9c10.8-3,22-4.5,33.6-4.5c24.2,0,43.5,7,58.1,20.9c14.6,13.9,21.9,31.4,21.9,52.5
			c0,14.9-4.4,27.6-13.2,38.1C156.1,127.3,139.1,138.1,114,149.2z M122,223.1c0,5.9-2.1,10.6-6.3,14.3s-11.1,5.5-20.8,5.5
			s-16.7-1.8-20.8-5.5c-4.2-3.7-6.3-8.4-6.3-14.3c0-5.9,2.1-10.6,6.2-14.3s11.1-5.5,20.9-5.5c9.7,0,16.7,1.8,20.8,5.5
			C119.9,212.5,122,217.3,122,223.1z"/>
	</g>
</g>
<g id="Слой_5">
	<rect x="66.6" y="208.8" class="st0" width="53" height="33.9"/>
</g>
<g id="Слой_4">
	<g>
		<path class="st2" d="M102.6,223.9c-6,0.3-12,0.3-18.1,0c-7.6-0.6-13.8-7.7-13.8-15.1l0,0c0-7.4,6.1-14.6,13.8-15.1
			c6-0.3,12-0.3,18.1,0c7.6,0.6,13.8,7.7,13.8,15.1l0,0C116.4,216.2,110.3,223.4,102.6,223.9z"/>
	</g>
</g>
</svg>
