<?xml version="1.0" encoding="utf-8"?>
<!-- Generator: Adobe Illustrator 25.0.1, SVG Export Plug-In . SVG Version: 6.00 Build 0)  -->
<svg version="1.1" id="Слой_1" xmlns="http://www.w3.org/2000/svg" xmlns:xlink="http://www.w3.org/1999/xlink" x="0px" y="0px"
	 viewBox="0 0 512 512" style="enable-background:new 0 0 512 512;" xml:space="preserve">
<style type="text/css">
	.st0{fill:#24C6FB;}
	.st1{display:none;}
	.st2{display:inline;fill:#24C6FB;}
	.st3{opacity:0.25;fill:#24C6FB;}
</style>
<g id="Слой_1_1_">
	<g>
		<path class="st0" d="M256,80c47,0,91.2,18.3,124.5,51.5S432,209,432,256s-18.3,91.2-51.5,124.5S303,432,256,432
			s-91.2-18.3-124.5-51.5S80,303,80,256s18.3-91.2,51.5-124.5S209,80,256,80 M256,56C145.5,56,56,145.5,56,256s89.5,200,200,200
			s200-89.5,200-200S366.5,56,256,56L256,56z"/>
	</g>
</g>
<g id="Слой_2_1_">
	<g>
		<g>
			<g>
				<polygon class="st0" points="256.5,10.5 228.8,58.5 284.2,58.5 				"/>
			</g>
			<g>
				<polygon class="st0" points="256.8,501.9 229.1,453.9 284.6,453.9 				"/>
			</g>
		</g>
		<g>
			<g>
				<polygon class="st0" points="502.4,256 454.4,228.3 454.4,283.8 				"/>
			</g>
			<g>
				<polygon class="st0" points="10.9,256.4 59,228.7 59,284.1 				"/>
			</g>
		</g>
	</g>
	<g>
		<g>
			<g>
				<polygon class="st0" points="420.8,91.9 370.1,105.4 407.2,142.6 				"/>
			</g>
			<g>
				<polygon class="st0" points="92,421.1 105.6,370.4 142.7,407.5 				"/>
			</g>
		</g>
		<g>
			<g>
				<polygon class="st0" points="421,420.9 407.4,370.2 370.3,407.3 				"/>
			</g>
			<g>
				<polygon class="st0" points="91.8,92.1 142.5,105.7 105.4,142.8 				"/>
			</g>
		</g>
	</g>
</g>
<g id="Слой_3">
	<circle class="st0" cx="256" cy="256" r="24"/>
</g>
<g id="Слой_5" class="st1">
	<path class="st2" d="M255.5,218.5c10.1,0,19.2,4.2,25.7,10.9L255.8,104l-25.3,124.6C236.9,222.4,245.8,218.5,255.5,218.5z"/>
</g>
<g id="Слой_2">
	<circle class="st3" cx="256" cy="256" r="176"/>
</g>
</svg>
