<svg version="1.1" xmlns="http://www.w3.org/2000/svg" xmlns:xlink="http://www.w3.org/1999/xlink">
  <symbol id="arrow-up" viewBox="0 0 128 128">
    <g fill="#f5f5f5">
      <polygon points="22.7,96.3 22.7,121 64,87.4 105.3,121 105.3,96.3 64,62.6" />
      <polygon points="0,53 0,91.4 64,39.2 128,91.4 128,53 64,0.9" />
    </g>
  </symbol>


  <symbol id="arrow-up-stairs-switcher" viewBox="0 0 128 128" xml:space="preserve">
    <g opacity="0.01" fill="#FFFFFF">
      <circle class="st0" cx="64" cy="64" r="64"/>
    </g>
    <g fill="#F5F5F5">
      <polygon class="st1" points="35.7,86.3 35.7,103.2 64,80.2 92.3,103.2 92.3,86.3 64,63.2 	"/>
      <polygon class="st1" points="20.1,56.6 20.1,82.9 64,47.2 107.9,82.9 107.9,56.6 64,20.9 	"/>
    </g>
  </symbol>

  <symbol id="arrow-down-stairs-switcher" viewBox="0 0 128 128" xml:space="preserve">
    <g opacity="0.01" fill="#FFFFFF">
      <circle class="st0" cx="64" cy="64" r="64"/>
    </g>
    <g fill="#F5F5F5" transform="scale(1, -1) translate(0, -128)">
      <polygon class="st1" points="35.7,86.3 35.7,103.2 64,80.2 92.3,103.2 92.3,86.3 64,63.2 	"/>
      <polygon class="st1" points="20.1,56.6 20.1,82.9 64,47.2 107.9,82.9 107.9,56.6 64,20.9 	"/>
    </g>
  </symbol>

  <symbol id="point" viewBox="0 0 24 24" enable-background="new 0 0 24 24">
    <g>
      <path d="m12 22c-5.5 0-10-4.5-10-10s4.5-10 10-10 10 4.5 10 10-4.5 10-10 10zm0-19c-5 0-9 4-9 9s4 9 9 9 9-4 9-9-4-9-9-9z"/></g>
    <g>
      <path d="m12 5c-.3 0-.5-.2-.5-.5v-4c0-.3.2-.5.5-.5s.5.2.5.5v4c0 .3-.2.5-.5.5z"/>
    </g>
    <g>
      <path d="m12 5c-.3 0-.5-.2-.5-.5v-4c0-.3.2-.5.5-.5s.5.2.5.5v4c0 .3-.2.5-.5.5z"/>
    </g>
    <g>
      <path d="m23.5 12.5h-4c-.3 0-.5-.2-.5-.5s.2-.5.5-.5h4c.3 0 .5.2.5.5s-.2.5-.5.5z"/>
    </g>
    <g>
      <path d="m12 24c-.3 0-.5-.2-.5-.5v-4c0-.3.2-.5.5-.5s.5.2.5.5v4c0 .3-.2.5-.5.5z"/>
    </g>
    <g>
      <path d="m4.5 12.5h-4c-.3 0-.5-.2-.5-.5s.2-.5.5-.5h4c.3 0 .5.2.5.5s-.2.5-.5.5z"/>
    </g>
  </symbol>

  <symbol id="whereabouts" viewBox="0 0 512 512" style="enable-background:new 0 0 512 512;" xml:space="preserve">
    <svg id="bold" height="512" fill="#505050" viewBox="0 0 24 24" width="512" xmlns="http://www.w3.org/2000/svg">
      <path
        d="m23 8c-.552 0-1-.447-1-1v-4c0-.552-.449-1-1-1h-4c-.552 0-1-.447-1-1s.448-1 1-1h4c1.654 0 3 1.346 3 3v4c0 .553-.448 1-1 1z" />
      <path
        d="m21 24h-4c-.552 0-1-.447-1-1s.448-1 1-1h4c.551 0 1-.448 1-1v-4c0-.553.448-1 1-1s1 .447 1 1v4c0 1.654-1.346 3-3 3z" />
      <path
        d="m7 24h-4c-1.654 0-3-1.346-3-3v-4c0-.553.448-1 1-1s1 .447 1 1v4c0 .552.449 1 1 1h4c.552 0 1 .447 1 1s-.448 1-1 1z" />
      <path
        d="m1 8c-.552 0-1-.447-1-1v-4c0-1.654 1.346-3 3-3h4c.552 0 1 .447 1 1s-.448 1-1 1h-4c-.551 0-1 .448-1 1v4c0 .553-.448 1-1 1z" />
      <path fill="#353535"
        d="m18 11c-.552 0-1-.447-1-1v-3h-10v3c0 .553-.448 1-1 1s-1-.447-1-1v-3c0-1.103.897-2 2-2h10c1.103 0 2 .897 2 2v3c0 .553-.448 1-1 1z" />
      <path fill="#353535"
        d="m21 14c0 .553-.448 1-1 1h-1v2c0 1.103-.897 2-2 2h-10c-1.103 0-2-.897-2-2v-2h-1c-.552 0-1-.447-1-1s.448-1 1-1h16c.552 0 1 .447 1 1z" />
    </svg>
  </symbol>
  <symbol id="settings" viewBox="0 0 512 512" style="enable-background:new 0 0 512 512;" xml:space="preserve">
    <circle fill="#358dff" cx="256" cy="256" r="256" />
    <path style="fill:#5A5A5A;" d="M448,287.724v-63.449l-52.051-10.35c-2.924-9.45-6.525-18.45-11.25-27.225l29.026-43.425l-45-45
      L325.3,127.301c-8.775-4.725-17.776-8.326-27.225-11.25L287.724,64h-63.449l-10.35,52.051c-9.45,2.924-18.45,6.525-27.225,11.25
      l-43.425-29.026l-45,45l29.026,43.425c-4.725,8.775-8.326,17.776-11.25,27.225L64,224.276v63.449l52.051,10.35
      c2.924,9.45,6.525,18.45,11.25,27.225l-29.026,43.425l45,45l43.425-29.026c8.775,4.725,17.776,8.326,27.225,11.25L224.276,448
      h63.449l10.35-52.051c9.45-2.924,18.45-6.525,27.225-11.25l43.425,29.026l45-45L384.699,325.3
      c4.725-8.775,8.326-17.776,11.25-27.225L448,287.724z M256,334.75c-43.425,0-78.75-35.325-78.75-78.75s35.325-78.75,78.75-78.75
      s78.75,35.325,78.75,78.75S299.425,334.75,256,334.75z" />
    <path fill="#444444" d="M395.949,298.075c-2.924,9.45-6.525,18.45-11.25,27.225l29.026,43.425l-45,45L325.3,384.699
      c-8.775,4.725-17.776,8.326-27.225,11.25L287.724,448H256V334.75c43.425,0,78.75-35.325,78.75-78.75s-35.325-78.75-78.75-78.75V64
      h31.724l10.35,52.051c9.45,2.924,18.45,6.525,27.225,11.25l43.425-29.026l45,45L384.699,186.7
      c4.725,8.775,8.326,17.776,11.25,27.225L448,224.276v63.449L395.949,298.075z" />
  </symbol>
  <symbol id="info" viewBox="0 0 512 512" style="enable-background:new 0 0 512 512;" xml:space="preserve">
    <svg version="1.1" fill="#e0e0e0" id="Capa_1" xmlns="http://www.w3.org/2000/svg" xmlns:xlink="http://www.w3.org/1999/xlink" x="0px"
      y="0px" viewBox="0 0 512 512" style="enable-background:new 0 0 512 512;" xml:space="preserve">
      <g>
        <g>
          <path d="M501.874,482.794c-6.312-3.676-44.743-27.475-65.305-70.505c48.023-44.904,75.337-107.371,75.337-171.301
			c0-132.31-115.369-240.956-255.953-240.956S0,108.678,0,240.988s115.369,240.956,255.953,240.956
			c18.872,0,39.143-1.769,67.111-7.645c73.508,39.06,139.486,37.962,164.589,37.566c11.175-0.139,19.288,1.879,23.463-9.666
			C513.942,494.455,509.762,485.51,501.874,482.794z M285.948,361.966c0,16.564-13.429,29.995-29.995,29.995
			c-16.566,0-29.995-13.431-29.995-29.995V240.988c0-16.566,13.429-29.995,29.995-29.995c16.566,0,29.995,13.429,29.995,29.995
			V361.966z M255.953,165.002c-16.566,0-29.995-13.431-29.995-29.995c0-16.566,13.429-29.995,29.995-29.995
			c16.566,0,29.995,13.429,29.995,29.995C285.948,151.572,272.519,165.002,255.953,165.002z" />
        </g>
      </g>
    </svg>
  </symbol>
  <symbol id="nav-arrow" viewBox="0 0 512 512" style="enable-background:new 0 0 512 512;" xml:space="preserve">
    <path fill="#C00000"
      d="M255.1,217.9c10.1,0,19.2,4.2,25.7,10.9l-25.5-125.4L230.1,228C236.5,221.8,245.4,217.9,255.1,217.9z" />
  </symbol>
  <symbol  id="search"
      viewBox="0 0 310.42 310.42"
      style="enable-background: new 0 0 310.42 310.42"
      xml:space="preserve">
    <svg
      xmlns="http://www.w3.org/2000/svg"
      xmlns:xlink="http://www.w3.org/1999/xlink"
      x="0px"
      y="0px"
      width="310.42px"
      height="310.42px"
      viewBox="0 0 310.42 310.42"
      style="enable-background: new 0 0 310.42 310.42"
      xml:space="preserve"
    >
      <g fill="white">
        <path
          d="M273.587,214.965c49.11-49.111,49.109-129.021,0-178.132c-49.111-49.111-129.02-49.111-178.13,0
			C53.793,78.497,47.483,140.462,76.51,188.85c0,0,2.085,3.498-0.731,6.312c-16.065,16.064-64.263,64.263-64.263,64.263
			c-12.791,12.79-15.836,30.675-4.493,42.02l1.953,1.951c11.343,11.345,29.229,8.301,42.019-4.49c0,0,48.096-48.097,64.128-64.128
			c2.951-2.951,6.448-0.866,6.448-0.866C169.958,262.938,231.923,256.629,273.587,214.965z M118.711,191.71
			c-36.288-36.288-36.287-95.332,0.001-131.62c36.288-36.287,95.332-36.288,131.619,0c36.288,36.287,36.288,95.332,0,131.62
			C214.043,227.996,155,227.996,118.711,191.71z"
        />
        <g>
          <path
            id="glare"
            d="M126.75,118.424c-1.689,0-3.406-0.332-5.061-1.031c-6.611-2.798-9.704-10.426-6.906-17.038
				c17.586-41.559,65.703-61.062,107.261-43.476c6.611,2.798,9.704,10.426,6.906,17.038c-2.799,6.612-10.425,9.703-17.039,6.906
				c-28.354-11.998-61.186,1.309-73.183,29.663C136.629,115.445,131.815,118.424,126.75,118.424z"
          />
        </g>
      </g>
    </svg>
  </symbol>
  <symbol id="zoom-in" viewBox="0 0 512 512" style="enable-background:new 0 0 512 512;" xml:space="preserve">
    <g>
      <g>
        <path fill="#444444" d="M386.348,336.165c23.574-34.148,37.408-75.546,37.408-120.19c0-117.015-94.843-211.878-211.878-211.878
			S0,98.959,0,215.974s94.843,211.878,211.878,211.878c48.849,0,93.8-16.572,129.637-44.338l124.388,124.388L512,461.812
			L386.348,336.165z M211.878,382.217c-91.667,0-166.243-74.574-166.243-166.243c0-91.667,74.574-166.243,166.243-166.243
			s166.243,74.574,166.243,166.243S303.545,382.217,211.878,382.217z" />
      </g>
    </g>
    <g>
      <g>
        <polygon fill="#444444" points="234.695,196.417 234.695,114.924 189.06,114.924 189.06,196.417 107.569,196.417 107.569,242.052 189.06,242.052
			189.06,323.543 234.695,323.543 234.695,242.052 316.187,242.052 316.187,196.417 		" />
      </g>
    </g>
  </symbol>
  <symbol id="zoom-out" viewBox="0 0 512 512" style="enable-background:new 0 0 512 512;" xml:space="preserve">
    <g>
      <g>
        <path fill="#444444" d="M386.348,336.165c23.574-34.148,37.408-75.546,37.408-120.19c0-117.015-94.843-211.878-211.878-211.878
			S0,98.959,0,215.974s94.843,211.878,211.878,211.878c48.849,0,93.8-16.572,129.637-44.338l124.388,124.388L512,461.812
			L386.348,336.165z M211.878,382.217c-91.667,0-166.243-74.574-166.243-166.243c0-91.667,74.574-166.243,166.243-166.243
			s166.243,74.574,166.243,166.243S303.545,382.217,211.878,382.217z" />
      </g>
    </g>
    <g>
      <g>
        <polygon fill="#444444" points="189.06,196.417 107.569,196.417 107.569,242.052 189.06,242.052
			   316.187,242.052 316.187,196.417" />
      </g>
    </g>
  </symbol>
  <symbol id="location-marker" x="0px" y="0px" viewBox="0 0 511.999 511.999"
    style="enable-background:new 0 0 511.999 511.999;" xml:space="preserve">
    <g fill="#FFFFFF">
      <path d="M255.999,0C152.786,0,68.817,85.478,68.817,190.545c0,58.77,29.724,130.103,88.349,212.017
			c42.902,59.948,85.178,102.702,86.957,104.494c3.27,3.292,7.572,4.943,11.879,4.943c4.182,0,8.367-1.558,11.611-4.683
			c1.783-1.717,44.166-42.74,87.149-101.86c58.672-80.701,88.421-153.007,88.421-214.912C443.181,85.478,359.21,0,255.999,0z
			 M255.999,272.806c-50.46,0-91.511-41.052-91.511-91.511s41.052-91.511,91.511-91.511s91.511,41.052,91.511,91.511
			S306.457,272.806,255.999,272.806z" />
    </g>
  </symbol>
  <symbol id="destination-marker" y="0px" viewBox="0 0 384 384" style="enable-background:new 0 0 384 384;"
    xml:space="preserve">
    <g fill="#FFFFFF">
      <path d="M350.046,280.336L306.222,200l43.824-80.336c2.704-4.96,2.592-10.976-0.288-15.832C346.87,98.976,341.646,96,335.998,96
			h-96V48c0-8.832-7.168-16-16-16h-160V16c0-8.832-7.168-16-16-16c-8.832,0-16,7.168-16,16v32v176v144c0,8.832,7.168,16,16,16
			c8.832,0,16-7.168,16-16V240h80v48c0,8.832,7.168,16,16,16h176c5.648,0,10.872-2.976,13.76-7.832
			C352.646,291.312,352.75,285.296,350.046,280.336z M63.998,208V64h144v48v96h-48H63.998z M175.998,272v-32h48
			c8.832,0,16-7.168,16-16v-96h69.048l-35.096,64.336c-2.6,4.776-2.6,10.544,0,15.32L309.046,272H175.998z" />
    </g>
  </symbol>
  <symbol id="center" x="0px" y="0px"
	 viewBox="0 0 25.941 25.941" style="enable-background:new 0 0 25.941 25.941;" xml:space="preserve">
    <g fill="#FFFFFF">
      <path d="M10.632,11.049l-6.527-0.617c0,0-0.869,0.023-0.385-0.461c0.488-0.486,1.664-1.664,1.664-1.664S5.097,8.021,4.66,7.58
        C3.404,6.324,1.119,4.039,0.189,3.109c0,0-0.322-0.188,0.064-0.57C0.638,2.15,2.32,0.467,2.595,0.195
        C2.866-0.08,3.074,0.142,3.074,0.142c0.904,0.9,3.27,3.264,4.482,4.479c0.395,0.394,0.652,0.652,0.652,0.652
        s0.943-0.945,1.539-1.539c0.592-0.592,0.588,0.301,0.588,0.301s0.826,5.848,0.826,6.547C11.162,11.092,10.632,11.049,10.632,11.049
        z"/>
      <path d="M15.371,14.904l6.525,0.617c0,0,0.871-0.025,0.387,0.459c-0.486,0.486-1.666,1.67-1.666,1.67s0.285,0.281,0.727,0.723
        c1.258,1.256,3.541,3.541,4.473,4.475c0,0,0.318,0.182-0.064,0.564c-0.385,0.387-2.07,2.074-2.348,2.348
        c-0.27,0.271-0.475,0.055-0.475,0.055c-0.904-0.906-3.27-3.268-4.484-4.482c-0.393-0.393-0.646-0.648-0.646-0.648
        s-0.945,0.941-1.543,1.535c-0.592,0.594-0.592-0.299-0.592-0.299s-0.82-5.852-0.82-6.547
        C14.843,14.863,15.371,14.904,15.371,14.904z"/>
      <path d="M10.994,15.338l-0.615,6.529c0,0,0.025,0.873-0.461,0.385c-0.488-0.49-1.668-1.666-1.668-1.666s-0.287,0.287-0.721,0.727
        c-1.258,1.258-3.547,3.541-4.477,4.475c0,0-0.186,0.314-0.57-0.068s-2.066-2.072-2.344-2.34c-0.275-0.273-0.055-0.482-0.055-0.482
        c0.904-0.9,3.266-3.268,4.482-4.482c0.395-0.393,0.652-0.65,0.652-0.65s-0.943-0.945-1.539-1.535
        c-0.596-0.596,0.297-0.592,0.297-0.592s5.852-0.822,6.553-0.822C11.037,14.814,10.994,15.338,10.994,15.338z"/>
      <path d="M14.849,10.601l0.615-6.531c0,0-0.023-0.867,0.461-0.383c0.488,0.488,1.666,1.668,1.666,1.668s0.287-0.287,0.729-0.727
        c1.256-1.258,3.539-3.541,4.471-4.471c0,0,0.186-0.32,0.57,0.066c0.385,0.381,2.068,2.066,2.342,2.338
        c0.277,0.275,0.057,0.482,0.057,0.482c-0.902,0.904-3.268,3.268-4.48,4.482c-0.396,0.391-0.656,0.648-0.656,0.648
        s0.947,0.943,1.541,1.537c0.592,0.598-0.297,0.592-0.297,0.592s-5.852,0.824-6.553,0.824
        C14.808,11.129,14.849,10.601,14.849,10.601z"/>
	  </g>
  </symbol>
</svg>
