<svg version="1.1" xmlns="http://www.w3.org/2000/svg" xmlns:xlink="http://www.w3.org/1999/xlink">
  <symbol id="arrow-up" viewBox="0 0 128 128">
    <g>
      <polygon fill="#f5f5f5" points="22.7,96.3 22.7,121 64,87.4 105.3,121 105.3,96.3 64,62.6" />
      <polygon fill="#f5f5f5" points="0,53 0,91.4 64,39.2 128,91.4 128,53 64,0.9" />
    </g>
  </symbol>
  <symbol id="whereabouts" viewBox="0 0 32 32" style="enable-background:new 0 0 32 32;" xml:space="preserve">
    <g id="layer">
      <circle fill="none" stroke="#444444" stroke-width="3" stroke-miterlimit="10" cx="16" cy="16" r="12.5" />
      <line fill="none" stroke="#444444" stroke-width="3" stroke-miterlimit="10" x1="16" y1="3.5" x2="16"
        y2="0" />
      <line fill="none" stroke="#444444" stroke-width="3" stroke-miterlimit="10" x1="3.5" y1="16" x2="0"
        y2="16" />
      <line fill="none" stroke="#444444" stroke-width="3" stroke-miterlimit="10" x1="28.5" y1="16" x2="32"
        y2="16" />
      <line fill="none" stroke="#444444" stroke-width="3" stroke-miterlimit="10" x1="16" y1="29.3" x2="16"
        y2="32" />
    </g>
    <g id="L3">
      <g>
        <path fill="none" d="M19.7,22.3v-1.4h-2.8v-1.4h-1.4v2.7h2.8v1.4h1.4v0.1c0.5-0.2,1-0.5,1.4-0.9v-0.5H19.7z" />
        <path fill="none" d="M16.8,23.6v0.9c0.5,0,0.9-0.1,1.4-0.3v-0.6H16.8z" />
        <path fill="none" d="M19,13V8.1c-0.7-0.3-1.4-0.4-2.2-0.5v0.9h-1.4v2.7h1.4V9.7h1.4v1.4h-1.4v2.8h1.4v2.8h1.4v-1.4H21v-1.4h2.6
			v1.4h0.9c-0.1-0.8-0.2-1.6-0.5-2.3H19z" />
        <rect x="21.1" y="15.3" fill="none" width="2.5" height="1.4" />
        <path fill="none" d="M21.1,16.7h-1.4v1.4h-1.4v-1.4h-1.4v-2.8H14v1.4h1.4v2.8h1.4v1.4h2.8v1.4h1.4v-1.4h1.4v1.4h-1.4v1.4h0.6
			c0.8-0.7,1.4-1.5,1.9-2.5v-0.3h0.2c0.2-0.4,0.4-0.9,0.5-1.4h-3.2V16.7z" />
        <path fill="none" d="M8.8,20.4c0.2,0.3,0.4,0.6,0.6,0.9h1.3v1.3c0.3,0.2,0.6,0.4,0.9,0.6v-2.8H8.8z" />
        <path fill="none" d="M8.4,13.9h1.4v1.4h1.4v-1.4H14v-1.4h1.4v-1.4H14V8.4h1.4V7.5c-0.9,0.1-1.7,0.2-2.5,0.5V13H8.1
			c-0.3,0.7-0.5,1.5-0.5,2.4h0.9V13.9z" />
        <path fill="none" d="M11.6,8.8c-0.3,0.2-0.6,0.4-0.9,0.6v1.3H9.4c-0.2,0.3-0.4,0.6-0.6,0.9h2.8V8.8z" />
        <path fill="none" d="M14,22.2v-2.7h1.4v-1.4H14v-2.8h-2.8v1.4h1.4v1.4h-1.4v-1.4H9.8v-1.4H8.4v2.8H7.8C7.9,18.4,8,18.7,8.1,19H13
			v4.9c0.8,0.3,1.6,0.5,2.5,0.5v-2.3H14z" />
        <path fill="none" d="M23.2,11.6c-0.2-0.3-0.4-0.6-0.6-0.9h-1.3V9.4c-0.3-0.2-0.6-0.4-0.9-0.6v2.8H23.2z" />
        <path fill="#262626"
          d="M13,8.1c-0.5,0.2-1,0.4-1.4,0.7v2.8H8.8C8.5,12,8.3,12.5,8.1,13H13V8.1z" />
        <path fill="#262626" d="M10.7,9.4c-0.5,0.4-0.9,0.8-1.3,1.3h1.3V9.4z" />
        <path fill="#262626"
          d="M23.9,13c-0.2-0.5-0.4-1-0.7-1.4h-2.8V8.8C20,8.5,19.5,8.3,19,8.1V13H23.9z" />
        <path fill="#262626" d="M22.6,10.7c-0.4-0.5-0.8-0.9-1.3-1.3v1.3H22.6z" />
        <path fill="#262626"
          d="M8.1,19c0.2,0.5,0.4,1,0.7,1.4h2.8v2.8c0.4,0.3,0.9,0.5,1.4,0.7V19H8.1z" />
        <path fill="#262626" d="M9.4,21.3c0.4,0.5,0.8,0.9,1.3,1.3v-1.3H9.4z" />
        <rect x="8.4" y="13.9" fill="#262626" width="1.4" height="1.4" />
        <polygon fill="#262626"
          points="9.8,16.7 11.2,16.7 11.2,18.1 12.6,18.1 12.6,16.7 11.2,16.7 11.2,15.3 9.8,15.3 		" />
        <rect x="16.8" y="9.7" fill="#262626" width="1.4" height="1.4" />
        <rect x="14" y="8.4" fill="#262626" width="1.4" height="2.7" />
        <path fill="#262626" d="M16.8,8.4V7.5c-0.3,0-0.6,0-0.8,0c-0.2,0-0.4,0-0.6,0v0.9H16.8z" />
        <polygon fill="#262626" points="14,12.5 14,13.9 16.8,13.9 16.8,11.1 15.4,11.1 15.4,12.5 		" />
        <polygon fill="#262626" points="15.4,18.1 15.4,19.5 16.8,19.5 16.8,20.9 19.7,20.9 19.7,19.5 16.8,19.5 16.8,18.1 15.4,18.1
			15.4,15.3 14,15.3 14,18.1 		" />
        <rect x="16.8" y="13.9" fill="#262626" width="1.4" height="2.8" />
        <path fill="#262626" d="M23.6,13.9H21v1.4h-1.4v1.4h1.4v1.4h3.2c0.2-0.7,0.3-1.4,0.3-2.1c0-0.2,0-0.5,0-0.7h-0.9V13.9z M23.6,16.7
			h-2.5v-1.4h2.5V16.7z" />
        <path fill="#262626" d="M23.6,19.8c0.1-0.1,0.1-0.2,0.2-0.3h-0.2V19.8z" />
        <rect x="18.3" y="16.7" fill="#262626" width="1.4" height="1.4" />
        <rect x="19.7" y="20.9" fill="#262626" width="1.4" height="1.4" />
        <rect x="21.1" y="19.5" fill="#262626" width="1.4" height="1.4" />
        <path fill="#262626" d="M21.1,22.8c0.2-0.2,0.4-0.3,0.6-0.5h-0.6V22.8z" />
        <rect x="14" y="19.5" fill="#262626" width="1.4" height="2.7" />
        <path fill="#262626" d="M18.3,23.6v-1.4h-2.8v2.3c0.2,0,0.4,0,0.6,0c0.3,0,0.6,0,0.8,0v-0.9H18.3l0,0.6c0.5-0.1,1-0.3,1.4-0.5v-0.1
			H18.3z" />
        <rect x="11.2" y="13.9" fill="#262626" width="2.8" height="1.4" />
        <path fill="#262626" d="M8.4,15.3H7.5c0,0.2,0,0.4,0,0.7c0,0.7,0.1,1.5,0.3,2.1h0.6V15.3z" />
      </g>
    </g>
  </symbol>
  <symbol id="settings" viewBox="0 0 512 512" style="enable-background:new 0 0 512 512;" xml:space="preserve">
    <circle fill="#358dff" cx="256" cy="256" r="256" />
    <path style="fill:#5A5A5A;" d="M448,287.724v-63.449l-52.051-10.35c-2.924-9.45-6.525-18.45-11.25-27.225l29.026-43.425l-45-45
      L325.3,127.301c-8.775-4.725-17.776-8.326-27.225-11.25L287.724,64h-63.449l-10.35,52.051c-9.45,2.924-18.45,6.525-27.225,11.25
      l-43.425-29.026l-45,45l29.026,43.425c-4.725,8.775-8.326,17.776-11.25,27.225L64,224.276v63.449l52.051,10.35
      c2.924,9.45,6.525,18.45,11.25,27.225l-29.026,43.425l45,45l43.425-29.026c8.775,4.725,17.776,8.326,27.225,11.25L224.276,448
      h63.449l10.35-52.051c9.45-2.924,18.45-6.525,27.225-11.25l43.425,29.026l45-45L384.699,325.3
      c4.725-8.775,8.326-17.776,11.25-27.225L448,287.724z M256,334.75c-43.425,0-78.75-35.325-78.75-78.75s35.325-78.75,78.75-78.75
      s78.75,35.325,78.75,78.75S299.425,334.75,256,334.75z" />
    <path fill="#444444" d="M395.949,298.075c-2.924,9.45-6.525,18.45-11.25,27.225l29.026,43.425l-45,45L325.3,384.699
      c-8.775,4.725-17.776,8.326-27.225,11.25L287.724,448H256V334.75c43.425,0,78.75-35.325,78.75-78.75s-35.325-78.75-78.75-78.75V64
      h31.724l10.35,52.051c9.45,2.924,18.45,6.525,27.225,11.25l43.425-29.026l45,45L384.699,186.7
      c4.725,8.775,8.326,17.776,11.25,27.225L448,224.276v63.449L395.949,298.075z" />
  </symbol>
  <symbol id="info" viewBox="0 0 187.4 256" style="enable-background:new 0 0 187.4 256;" xml:space="preserve">
    <g>
      <circle fill="#358dff" cx="94.1" cy="160.1" r="93.3" />
    </g>
    <g>
      <g enable-background="new">
        <path fill="#f5f5f5" d="M114,149.2c-0.7,7.2-2.8,12.5-6.3,15.8c-3.4,3.3-7.8,4.9-13,4.9c-5.6,0-10.2-2-13.7-5.9s-5.3-10.5-5.3-19.7
			v-21.5c30.3-11.6,48.5-20.5,54.7-26.7s9.3-12.6,9.3-19c0-9.1-3.6-16.9-10.9-23.5c-7.3-6.6-17.6-9.9-30.9-9.9
			c-14.1,0-27.6,3.2-40.7,9.7V59c0,9.1-1.8,15.6-5.3,19.5s-8.2,5.9-13.9,5.9c-5.6,0-10.2-1.9-13.7-5.8c-3.6-3.9-5.4-10.4-5.4-19.6
			V28.2C38.4,19,53.6,12.9,64.5,9.9c10.8-3,22-4.5,33.6-4.5c24.2,0,43.5,7,58.1,20.9c14.6,13.9,21.9,31.4,21.9,52.5
			c0,14.9-4.4,27.6-13.2,38.1C156.1,127.3,139.1,138.1,114,149.2z M122,223.1c0,5.9-2.1,10.6-6.3,14.3s-11.1,5.5-20.8,5.5
			s-16.7-1.8-20.8-5.5c-4.2-3.7-6.3-8.4-6.3-14.3c0-5.9,2.1-10.6,6.2-14.3s11.1-5.5,20.9-5.5c9.7,0,16.7,1.8,20.8,5.5
			C119.9,212.5,122,217.3,122,223.1z" />
      </g>
      <g enable-background="new">
        <path fill="none" stroke="#358dff" stroke-width="8" stroke-miterlimit="10" d="M114,149.2c-0.7,7.2-2.8,12.5-6.3,15.8c-3.4,3.3-7.8,4.9-13,4.9c-5.6,0-10.2-2-13.7-5.9s-5.3-10.5-5.3-19.7
			v-21.5c30.3-11.6,48.5-20.5,54.7-26.7s9.3-12.6,9.3-19c0-9.1-3.6-16.9-10.9-23.5c-7.3-6.6-17.6-9.9-30.9-9.9
			c-14.1,0-27.6,3.2-40.7,9.7V59c0,9.1-1.8,15.6-5.3,19.5s-8.2,5.9-13.9,5.9c-5.6,0-10.2-1.9-13.7-5.8c-3.6-3.9-5.4-10.4-5.4-19.6
			V28.2C38.4,19,53.6,12.9,64.5,9.9c10.8-3,22-4.5,33.6-4.5c24.2,0,43.5,7,58.1,20.9c14.6,13.9,21.9,31.4,21.9,52.5
			c0,14.9-4.4,27.6-13.2,38.1C156.1,127.3,139.1,138.1,114,149.2z M122,223.1c0,5.9-2.1,10.6-6.3,14.3s-11.1,5.5-20.8,5.5
			s-16.7-1.8-20.8-5.5c-4.2-3.7-6.3-8.4-6.3-14.3c0-5.9,2.1-10.6,6.2-14.3s11.1-5.5,20.9-5.5c9.7,0,16.7,1.8,20.8,5.5
			C119.9,212.5,122,217.3,122,223.1z" />
      </g>
    </g>
    <g>
      <rect x="66.6" y="208.8" fill="#358dff" width="53" height="33.9" />
    </g>
    <g>
      <g>
        <path fill="#f5f5f5" d="M102.6,223.9c-6,0.3-12,0.3-18.1,0c-7.6-0.6-13.8-7.7-13.8-15.1l0,0c0-7.4,6.1-14.6,13.8-15.1
			c6-0.3,12-0.3,18.1,0c7.6,0.6,13.8,7.7,13.8,15.1l0,0C116.4,216.2,110.3,223.4,102.6,223.9z" />
      </g>
    </g>
  </symbol>
  <symbol id="nav-compass" viewBox="0 0 512 512" style="enable-background:new 0 0 512 512;" xml:space="preserve">
    <g>
      <g>
        <path fill="#358dff" d="M256,80c47,0,91.2,18.3,124.5,51.5S432,209,432,256s-18.3,91.2-51.5,124.5S303,432,256,432
			s-91.2-18.3-124.5-51.5S80,303,80,256s18.3-91.2,51.5-124.5S209,80,256,80 M256,56C145.5,56,56,145.5,56,256s89.5,200,200,200
			s200-89.5,200-200S366.5,56,256,56L256,56z" />
      </g>
    </g>
    <g>
      <g>
        <g>
          <g>
            <polygon fill="#358dff" points="256.5,10.5 228.8,58.5 284.2,58.5 				" />
          </g>
          <g>
            <polygon fill="#358dff" points="256.8,501.9 229.1,453.9 284.6,453.9 				" />
          </g>
        </g>
        <g>
          <g>
            <polygon fill="#358dff" points="502.4,256 454.4,228.3 454.4,283.8 				" />
          </g>
          <g>
            <polygon fill="#358dff" points="10.9,256.4 59,228.7 59,284.1 				" />
          </g>
        </g>
      </g>
      <g>
        <g>
          <g>
            <polygon fill="#358dff" points="420.8,91.9 370.1,105.4 407.2,142.6 				" />
          </g>
          <g>
            <polygon fill="#358dff" points="92,421.1 105.6,370.4 142.7,407.5 				" />
          </g>
        </g>
        <g>
          <g>
            <polygon fill="#358dff" points="421,420.9 407.4,370.2 370.3,407.3 				" />
          </g>
          <g>
            <polygon fill="#358dff" points="91.8,92.1 142.5,105.7 105.4,142.8 				" />
          </g>
        </g>
      </g>
    </g>
    <g>
      <circle fill="#358dff" cx="256" cy="256" r="24" />
    </g>
    <g display="none">
      <path display="inline" fill="#358dff"
        d="M255.5,218.5c10.1,0,19.2,4.2,25.7,10.9L255.8,104l-25.3,124.6C236.9,222.4,245.8,218.5,255.5,218.5z" />
    </g>
    <g>
      <circle opacity="0.25" fill="#358dff" cx="256" cy="256" r="176" />
    </g>
  </symbol>
  <symbol id="nav-arrow" viewBox="0 0 512 512" style="enable-background:new 0 0 512 512;" xml:space="preserve">
    <path fill="#C00000"
      d="M255.1,217.9c10.1,0,19.2,4.2,25.7,10.9l-25.5-125.4L230.1,228C236.5,221.8,245.4,217.9,255.1,217.9z" />
  </symbol>
</svg>
