<svg version="1.1" xmlns="http://www.w3.org/2000/svg" xmlns:xlink="http://www.w3.org/1999/xlink">
  <symbol id="arrow-up" viewBox="0 0 128 128">
    <g>
      <polygon fill="#f5f5f5" points="22.7,96.3 22.7,121 64,87.4 105.3,121 105.3,96.3 64,62.6" />
      <polygon fill="#f5f5f5" points="0,53 0,91.4 64,39.2 128,91.4 128,53 64,0.9" />
    </g>
  </symbol>
  <symbol id="whereabouts" viewBox="0 0 512 512" style="enable-background:new 0 0 512 512;" xml:space="preserve">
    <svg id="bold" height="512" fill="#505050" viewBox="0 0 24 24" width="512" xmlns="http://www.w3.org/2000/svg">
      <path
        d="m23 8c-.552 0-1-.447-1-1v-4c0-.552-.449-1-1-1h-4c-.552 0-1-.447-1-1s.448-1 1-1h4c1.654 0 3 1.346 3 3v4c0 .553-.448 1-1 1z" />
      <path
        d="m21 24h-4c-.552 0-1-.447-1-1s.448-1 1-1h4c.551 0 1-.448 1-1v-4c0-.553.448-1 1-1s1 .447 1 1v4c0 1.654-1.346 3-3 3z" />
      <path
        d="m7 24h-4c-1.654 0-3-1.346-3-3v-4c0-.553.448-1 1-1s1 .447 1 1v4c0 .552.449 1 1 1h4c.552 0 1 .447 1 1s-.448 1-1 1z" />
      <path
        d="m1 8c-.552 0-1-.447-1-1v-4c0-1.654 1.346-3 3-3h4c.552 0 1 .447 1 1s-.448 1-1 1h-4c-.551 0-1 .448-1 1v4c0 .553-.448 1-1 1z" />
      <path fill="#353535"
        d="m18 11c-.552 0-1-.447-1-1v-3h-10v3c0 .553-.448 1-1 1s-1-.447-1-1v-3c0-1.103.897-2 2-2h10c1.103 0 2 .897 2 2v3c0 .553-.448 1-1 1z" />
      <path fill="#353535"
        d="m21 14c0 .553-.448 1-1 1h-1v2c0 1.103-.897 2-2 2h-10c-1.103 0-2-.897-2-2v-2h-1c-.552 0-1-.447-1-1s.448-1 1-1h16c.552 0 1 .447 1 1z" />
    </svg>
  </symbol>
  <symbol id="settings" viewBox="0 0 512 512" style="enable-background:new 0 0 512 512;" xml:space="preserve">
    <circle fill="#358dff" cx="256" cy="256" r="256" />
    <path style="fill:#5A5A5A;" d="M448,287.724v-63.449l-52.051-10.35c-2.924-9.45-6.525-18.45-11.25-27.225l29.026-43.425l-45-45
      L325.3,127.301c-8.775-4.725-17.776-8.326-27.225-11.25L287.724,64h-63.449l-10.35,52.051c-9.45,2.924-18.45,6.525-27.225,11.25
      l-43.425-29.026l-45,45l29.026,43.425c-4.725,8.775-8.326,17.776-11.25,27.225L64,224.276v63.449l52.051,10.35
      c2.924,9.45,6.525,18.45,11.25,27.225l-29.026,43.425l45,45l43.425-29.026c8.775,4.725,17.776,8.326,27.225,11.25L224.276,448
      h63.449l10.35-52.051c9.45-2.924,18.45-6.525,27.225-11.25l43.425,29.026l45-45L384.699,325.3
      c4.725-8.775,8.326-17.776,11.25-27.225L448,287.724z M256,334.75c-43.425,0-78.75-35.325-78.75-78.75s35.325-78.75,78.75-78.75
      s78.75,35.325,78.75,78.75S299.425,334.75,256,334.75z" />
    <path fill="#444444" d="M395.949,298.075c-2.924,9.45-6.525,18.45-11.25,27.225l29.026,43.425l-45,45L325.3,384.699
      c-8.775,4.725-17.776,8.326-27.225,11.25L287.724,448H256V334.75c43.425,0,78.75-35.325,78.75-78.75s-35.325-78.75-78.75-78.75V64
      h31.724l10.35,52.051c9.45,2.924,18.45,6.525,27.225,11.25l43.425-29.026l45,45L384.699,186.7
      c4.725,8.775,8.326,17.776,11.25,27.225L448,224.276v63.449L395.949,298.075z" />
  </symbol>
  <symbol id="info" viewBox="0 0 512 512" style="enable-background:new 0 0 512 512;" xml:space="preserve">
    <svg version="1.1" fill="#e0e0e0" id="Capa_1" xmlns="http://www.w3.org/2000/svg" xmlns:xlink="http://www.w3.org/1999/xlink" x="0px"
      y="0px" viewBox="0 0 512 512" style="enable-background:new 0 0 512 512;" xml:space="preserve">
      <g>
        <g>
          <path d="M501.874,482.794c-6.312-3.676-44.743-27.475-65.305-70.505c48.023-44.904,75.337-107.371,75.337-171.301
			c0-132.31-115.369-240.956-255.953-240.956S0,108.678,0,240.988s115.369,240.956,255.953,240.956
			c18.872,0,39.143-1.769,67.111-7.645c73.508,39.06,139.486,37.962,164.589,37.566c11.175-0.139,19.288,1.879,23.463-9.666
			C513.942,494.455,509.762,485.51,501.874,482.794z M285.948,361.966c0,16.564-13.429,29.995-29.995,29.995
			c-16.566,0-29.995-13.431-29.995-29.995V240.988c0-16.566,13.429-29.995,29.995-29.995c16.566,0,29.995,13.429,29.995,29.995
			V361.966z M255.953,165.002c-16.566,0-29.995-13.431-29.995-29.995c0-16.566,13.429-29.995,29.995-29.995
			c16.566,0,29.995,13.429,29.995,29.995C285.948,151.572,272.519,165.002,255.953,165.002z" />
        </g>
      </g>
    </svg>
  </symbol>
  <symbol id="nav-arrow" viewBox="0 0 512 512" style="enable-background:new 0 0 512 512;" xml:space="preserve">
    <path fill="#C00000"
      d="M255.1,217.9c10.1,0,19.2,4.2,25.7,10.9l-25.5-125.4L230.1,228C236.5,221.8,245.4,217.9,255.1,217.9z" />
  </symbol>
  <symbol id="zoom-in" viewBox="0 0 512 512" style="enable-background:new 0 0 512 512;" xml:space="preserve">
    <g>
      <g>
        <path fill="#444444" d="M386.348,336.165c23.574-34.148,37.408-75.546,37.408-120.19c0-117.015-94.843-211.878-211.878-211.878
			S0,98.959,0,215.974s94.843,211.878,211.878,211.878c48.849,0,93.8-16.572,129.637-44.338l124.388,124.388L512,461.812
			L386.348,336.165z M211.878,382.217c-91.667,0-166.243-74.574-166.243-166.243c0-91.667,74.574-166.243,166.243-166.243
			s166.243,74.574,166.243,166.243S303.545,382.217,211.878,382.217z" />
      </g>
    </g>
    <g>
      <g>
        <polygon fill="#444444" points="234.695,196.417 234.695,114.924 189.06,114.924 189.06,196.417 107.569,196.417 107.569,242.052 189.06,242.052
			189.06,323.543 234.695,323.543 234.695,242.052 316.187,242.052 316.187,196.417 		" />
      </g>
    </g>
  </symbol>
  <symbol id="zoom-out" viewBox="0 0 512 512" style="enable-background:new 0 0 512 512;" xml:space="preserve">
    <g>
      <g>
        <path fill="#444444" d="M386.348,336.165c23.574-34.148,37.408-75.546,37.408-120.19c0-117.015-94.843-211.878-211.878-211.878
			S0,98.959,0,215.974s94.843,211.878,211.878,211.878c48.849,0,93.8-16.572,129.637-44.338l124.388,124.388L512,461.812
			L386.348,336.165z M211.878,382.217c-91.667,0-166.243-74.574-166.243-166.243c0-91.667,74.574-166.243,166.243-166.243
			s166.243,74.574,166.243,166.243S303.545,382.217,211.878,382.217z" />
      </g>
    </g>
    <g>
      <g>
        <polygon fill="#444444" points="189.06,196.417 107.569,196.417 107.569,242.052 189.06,242.052
			   316.187,242.052 316.187,196.417" />
      </g>
    </g>
  </symbol>
  <symbol id="location-marker" x="0px" y="0px" viewBox="0 0 511.999 511.999"
    style="enable-background:new 0 0 511.999 511.999;" xml:space="preserve">
    <g fill="#FFFFFF">
      <path d="M255.999,0C152.786,0,68.817,85.478,68.817,190.545c0,58.77,29.724,130.103,88.349,212.017
			c42.902,59.948,85.178,102.702,86.957,104.494c3.27,3.292,7.572,4.943,11.879,4.943c4.182,0,8.367-1.558,11.611-4.683
			c1.783-1.717,44.166-42.74,87.149-101.86c58.672-80.701,88.421-153.007,88.421-214.912C443.181,85.478,359.21,0,255.999,0z
			 M255.999,272.806c-50.46,0-91.511-41.052-91.511-91.511s41.052-91.511,91.511-91.511s91.511,41.052,91.511,91.511
			S306.457,272.806,255.999,272.806z" />
    </g>
  </symbol>
  <symbol id="destination-marker" y="0px" viewBox="0 0 384 384" style="enable-background:new 0 0 384 384;"
    xml:space="preserve">
    <g fill="#FFFFFF">
      <path d="M350.046,280.336L306.222,200l43.824-80.336c2.704-4.96,2.592-10.976-0.288-15.832C346.87,98.976,341.646,96,335.998,96
			h-96V48c0-8.832-7.168-16-16-16h-160V16c0-8.832-7.168-16-16-16c-8.832,0-16,7.168-16,16v32v176v144c0,8.832,7.168,16,16,16
			c8.832,0,16-7.168,16-16V240h80v48c0,8.832,7.168,16,16,16h176c5.648,0,10.872-2.976,13.76-7.832
			C352.646,291.312,352.75,285.296,350.046,280.336z M63.998,208V64h144v48v96h-48H63.998z M175.998,272v-32h48
			c8.832,0,16-7.168,16-16v-96h69.048l-35.096,64.336c-2.6,4.776-2.6,10.544,0,15.32L309.046,272H175.998z" />
    </g>
  </symbol>
</svg>
