<svg version="1.1" xmlns="http://www.w3.org/2000/svg" xmlns:xlink="http://www.w3.org/1999/xlink">
  <symbol id="arrow-up" viewBox="0 0 128 128">
    <g>
      <polygon fill="#f5f5f5" points="22.7,96.3 22.7,121 64,87.4 105.3,121 105.3,96.3 64,62.6" />
      <polygon fill="#f5f5f5" points="0,53 0,91.4 64,39.2 128,91.4 128,53 64,0.9" />
    </g>
  </symbol>
  
  <symbol id="arrow-down-d" viewBox="0 0 128 128">
    <g transform="scale(1, -1) translate(0, -100)">
      <polygon fill="#f5f5f5" points="22.7,96.3 22.7,121 64,87.4 105.3,121 105.3,96.3 64,62.6" />
      <polygon fill="#f5f5f5" points="0,53 0,91.4 64,39.2 128,91.4 128,53 64,0.9" />
    </g>
  </symbol>

  <symbol id="whereabouts" viewBox="0 0 512 512" style="enable-background:new 0 0 512 512;" xml:space="preserve">
    <svg id="bold" height="512" fill="#505050" viewBox="0 0 24 24" width="512" xmlns="http://www.w3.org/2000/svg">
      <path
        d="m23 8c-.552 0-1-.447-1-1v-4c0-.552-.449-1-1-1h-4c-.552 0-1-.447-1-1s.448-1 1-1h4c1.654 0 3 1.346 3 3v4c0 .553-.448 1-1 1z" />
      <path
        d="m21 24h-4c-.552 0-1-.447-1-1s.448-1 1-1h4c.551 0 1-.448 1-1v-4c0-.553.448-1 1-1s1 .447 1 1v4c0 1.654-1.346 3-3 3z" />
      <path
        d="m7 24h-4c-1.654 0-3-1.346-3-3v-4c0-.553.448-1 1-1s1 .447 1 1v4c0 .552.449 1 1 1h4c.552 0 1 .447 1 1s-.448 1-1 1z" />
      <path
        d="m1 8c-.552 0-1-.447-1-1v-4c0-1.654 1.346-3 3-3h4c.552 0 1 .447 1 1s-.448 1-1 1h-4c-.551 0-1 .448-1 1v4c0 .553-.448 1-1 1z" />
      <path fill="#353535"
        d="m18 11c-.552 0-1-.447-1-1v-3h-10v3c0 .553-.448 1-1 1s-1-.447-1-1v-3c0-1.103.897-2 2-2h10c1.103 0 2 .897 2 2v3c0 .553-.448 1-1 1z" />
      <path fill="#353535"
        d="m21 14c0 .553-.448 1-1 1h-1v2c0 1.103-.897 2-2 2h-10c-1.103 0-2-.897-2-2v-2h-1c-.552 0-1-.447-1-1s.448-1 1-1h16c.552 0 1 .447 1 1z" />
    </svg>
  </symbol>
  <symbol id="settings" viewBox="0 0 512 512" style="enable-background:new 0 0 512 512;" xml:space="preserve">
    <circle fill="#358dff" cx="256" cy="256" r="256" />
    <path style="fill:#5A5A5A;" d="M448,287.724v-63.449l-52.051-10.35c-2.924-9.45-6.525-18.45-11.25-27.225l29.026-43.425l-45-45
      L325.3,127.301c-8.775-4.725-17.776-8.326-27.225-11.25L287.724,64h-63.449l-10.35,52.051c-9.45,2.924-18.45,6.525-27.225,11.25
      l-43.425-29.026l-45,45l29.026,43.425c-4.725,8.775-8.326,17.776-11.25,27.225L64,224.276v63.449l52.051,10.35
      c2.924,9.45,6.525,18.45,11.25,27.225l-29.026,43.425l45,45l43.425-29.026c8.775,4.725,17.776,8.326,27.225,11.25L224.276,448
      h63.449l10.35-52.051c9.45-2.924,18.45-6.525,27.225-11.25l43.425,29.026l45-45L384.699,325.3
      c4.725-8.775,8.326-17.776,11.25-27.225L448,287.724z M256,334.75c-43.425,0-78.75-35.325-78.75-78.75s35.325-78.75,78.75-78.75
      s78.75,35.325,78.75,78.75S299.425,334.75,256,334.75z" />
    <path fill="#444444" d="M395.949,298.075c-2.924,9.45-6.525,18.45-11.25,27.225l29.026,43.425l-45,45L325.3,384.699
      c-8.775,4.725-17.776,8.326-27.225,11.25L287.724,448H256V334.75c43.425,0,78.75-35.325,78.75-78.75s-35.325-78.75-78.75-78.75V64
      h31.724l10.35,52.051c9.45,2.924,18.45,6.525,27.225,11.25l43.425-29.026l45,45L384.699,186.7
      c4.725,8.775,8.326,17.776,11.25,27.225L448,224.276v63.449L395.949,298.075z" />
  </symbol>
  <symbol id="info" viewBox="0 0 512 512" style="enable-background:new 0 0 512 512;" xml:space="preserve">
    <svg version="1.1" fill="#e0e0e0" id="Capa_1" xmlns="http://www.w3.org/2000/svg" xmlns:xlink="http://www.w3.org/1999/xlink" x="0px"
      y="0px" viewBox="0 0 512 512" style="enable-background:new 0 0 512 512;" xml:space="preserve">
      <g>
        <g>
          <path d="M501.874,482.794c-6.312-3.676-44.743-27.475-65.305-70.505c48.023-44.904,75.337-107.371,75.337-171.301
			c0-132.31-115.369-240.956-255.953-240.956S0,108.678,0,240.988s115.369,240.956,255.953,240.956
			c18.872,0,39.143-1.769,67.111-7.645c73.508,39.06,139.486,37.962,164.589,37.566c11.175-0.139,19.288,1.879,23.463-9.666
			C513.942,494.455,509.762,485.51,501.874,482.794z M285.948,361.966c0,16.564-13.429,29.995-29.995,29.995
			c-16.566,0-29.995-13.431-29.995-29.995V240.988c0-16.566,13.429-29.995,29.995-29.995c16.566,0,29.995,13.429,29.995,29.995
			V361.966z M255.953,165.002c-16.566,0-29.995-13.431-29.995-29.995c0-16.566,13.429-29.995,29.995-29.995
			c16.566,0,29.995,13.429,29.995,29.995C285.948,151.572,272.519,165.002,255.953,165.002z" />
        </g>
      </g>
    </svg>
  </symbol>
  <symbol id="nav-compass" viewBox="0 0 512 512" style="enable-background:new 0 0 512 512;" xml:space="preserve">
    <g>
      <g>
        <path fill="#358dff" d="M256,80c47,0,91.2,18.3,124.5,51.5S432,209,432,256s-18.3,91.2-51.5,124.5S303,432,256,432
			s-91.2-18.3-124.5-51.5S80,303,80,256s18.3-91.2,51.5-124.5S209,80,256,80 M256,56C145.5,56,56,145.5,56,256s89.5,200,200,200
			s200-89.5,200-200S366.5,56,256,56L256,56z" />
      </g>
    </g>
    <g>
      <g>
        <g>
          <g>
            <polygon fill="#358dff" points="256.5,10.5 228.8,58.5 284.2,58.5 				" />
          </g>
          <g>
            <polygon fill="#358dff" points="256.8,501.9 229.1,453.9 284.6,453.9 				" />
          </g>
        </g>
        <g>
          <g>
            <polygon fill="#358dff" points="502.4,256 454.4,228.3 454.4,283.8 				" />
          </g>
          <g>
            <polygon fill="#358dff" points="10.9,256.4 59,228.7 59,284.1 				" />
          </g>
        </g>
      </g>
      <g>
        <g>
          <g>
            <polygon fill="#358dff" points="420.8,91.9 370.1,105.4 407.2,142.6 				" />
          </g>
          <g>
            <polygon fill="#358dff" points="92,421.1 105.6,370.4 142.7,407.5 				" />
          </g>
        </g>
        <g>
          <g>
            <polygon fill="#358dff" points="421,420.9 407.4,370.2 370.3,407.3 				" />
          </g>
          <g>
            <polygon fill="#358dff" points="91.8,92.1 142.5,105.7 105.4,142.8 				" />
          </g>
        </g>
      </g>
    </g>
    <g>
      <circle fill="#358dff" cx="256" cy="256" r="24" />
    </g>
    <g display="none">
      <path display="inline" fill="#358dff"
        d="M255.5,218.5c10.1,0,19.2,4.2,25.7,10.9L255.8,104l-25.3,124.6C236.9,222.4,245.8,218.5,255.5,218.5z" />
    </g>
    <g>
      <circle opacity="0.25" fill="#358dff" cx="256" cy="256" r="176" />
    </g>
  </symbol>
  <symbol id="nav-arrow" viewBox="0 0 512 512" style="enable-background:new 0 0 512 512;" xml:space="preserve">
    <path fill="#C00000"
      d="M255.1,217.9c10.1,0,19.2,4.2,25.7,10.9l-25.5-125.4L230.1,228C236.5,221.8,245.4,217.9,255.1,217.9z" />
  </symbol>
  <symbol id="zoom-in" viewBox="0 0 512 512" style="enable-background:new 0 0 512 512;" xml:space="preserve">
    <g>
      <g>
        <path fill="#444444" d="M386.348,336.165c23.574-34.148,37.408-75.546,37.408-120.19c0-117.015-94.843-211.878-211.878-211.878
			S0,98.959,0,215.974s94.843,211.878,211.878,211.878c48.849,0,93.8-16.572,129.637-44.338l124.388,124.388L512,461.812
			L386.348,336.165z M211.878,382.217c-91.667,0-166.243-74.574-166.243-166.243c0-91.667,74.574-166.243,166.243-166.243
			s166.243,74.574,166.243,166.243S303.545,382.217,211.878,382.217z" />
      </g>
    </g>
    <g>
      <g>
        <polygon fill="#444444" points="234.695,196.417 234.695,114.924 189.06,114.924 189.06,196.417 107.569,196.417 107.569,242.052 189.06,242.052
			189.06,323.543 234.695,323.543 234.695,242.052 316.187,242.052 316.187,196.417 		" />
      </g>
    </g>
  </symbol>
  <symbol id="zoom-out" viewBox="0 0 512 512" style="enable-background:new 0 0 512 512;" xml:space="preserve">
    <g>
      <g>
        <path fill="#444444" d="M386.348,336.165c23.574-34.148,37.408-75.546,37.408-120.19c0-117.015-94.843-211.878-211.878-211.878
			S0,98.959,0,215.974s94.843,211.878,211.878,211.878c48.849,0,93.8-16.572,129.637-44.338l124.388,124.388L512,461.812
			L386.348,336.165z M211.878,382.217c-91.667,0-166.243-74.574-166.243-166.243c0-91.667,74.574-166.243,166.243-166.243
			s166.243,74.574,166.243,166.243S303.545,382.217,211.878,382.217z" />
      </g>
    </g>
    <g>
      <g>
        <polygon fill="#444444" points="189.06,196.417 107.569,196.417 107.569,242.052 189.06,242.052
			   316.187,242.052 316.187,196.417" />
      </g>
    </g>
  </symbol>
</svg>
