<svg id="Layer_1" enable-background="new 0 0 512 512" height="512" viewBox="0 0 512 512" width="512" xmlns="http://www.w3.org/2000/svg"><g><g><path d="m497 58.667h-197.333l-10 197.333 10 197.333h197.333z" fill="#4980fa"/><path d="m102.333 58.667h197.333v394.667h-197.333z" fill="#5393fb"/></g><path d="m10.667 198.333h100.333v115.333h-100.333z" fill="#aaa"/><g><path d="m0 85.181h30v341.637h-30z" fill="#cdcdcd"/></g><g><g><path d="m398.073 327.996c-39.699 0-71.996-32.297-71.996-71.996s32.297-71.997 71.996-71.997c14.426 0 28.349 4.255 40.265 12.305l12.429 8.397-16.794 24.858-12.43-8.397c-6.937-4.686-15.052-7.163-23.47-7.163-23.157 0-41.996 18.839-41.996 41.997 0 23.157 18.839 41.996 41.996 41.996 8.536 0 15.703-2.529 21.305-7.518 1.094-.975 2.14-2.054 3.108-3.209l9.637-11.495 22.989 19.275-9.638 11.494c-1.9 2.267-3.967 4.399-6.144 6.337-11.102 9.889-25.368 15.116-41.257 15.116z" fill="#f7f0eb"/></g></g><g><g><path d="m184.256 327.225-27.529-139.17 29.429-5.821 15.114 76.408 21.059-72.816 27.563.038 20.998 72.823 15.177-76.258 29.423 5.856-27.613 138.739-28.449.194-23.345-80.964-23.361 80.777z" fill="#fffbf5"/></g></g><g><path d="m512 43.667h-212.333l-10 20.333 10 9.667h182.333v364.666h-182.333l-10 15 10 15h212.333z" fill="#efe2dd"/><path d="m117.333 438.333v-364.666h182.334v-30h-212.334v424.666h212.334v-30z" fill="#f7f0eb"/></g></g></svg>