<?xml version="1.0" encoding="utf-8"?>
<svg version="1.1" xmlns="http://www.w3.org/2000/svg" xmlns:xlink="http://www.w3.org/1999/xlink" x="0px" y="0px"
	 viewBox="0 0 32 32" style="enable-background:new 0 0 32 32;" xml:space="preserve">
<style type="text/css">
	.st0{fill:none;stroke:#444444;stroke-width:3;stroke-miterlimit:10;}
	.st1{fill:none;}
	.st2{fill:#262626;}
</style>
<g id="layer">
	<title>whereabouts</title>
	<circle class="st0" cx="16" cy="16" r="12.5"/>
	<line class="st0" x1="16" y1="3.5" x2="16" y2="0"/>
	<line class="st0" x1="3.5" y1="16" x2="0" y2="16"/>
	<line class="st0" x1="28.5" y1="16" x2="32" y2="16"/>
	<line class="st0" x1="16" y1="29.3" x2="16" y2="32"/>
</g>
<g id="L3">
	<g>
		<path class="st1" d="M19.7,22.3v-1.4h-2.8v-1.4h-1.4v2.7h2.8v1.4h1.4v0.1c0.5-0.2,1-0.5,1.4-0.9v-0.5H19.7z"/>
		<path class="st1" d="M16.8,23.6v0.9c0.5,0,0.9-0.1,1.4-0.3v-0.6H16.8z"/>
		<path class="st1" d="M19,13V8.1c-0.7-0.3-1.4-0.4-2.2-0.5v0.9h-1.4v2.7h1.4V9.7h1.4v1.4h-1.4v2.8h1.4v2.8h1.4v-1.4H21v-1.4h2.6
			v1.4h0.9c-0.1-0.8-0.2-1.6-0.5-2.3H19z"/>
		<rect x="21.1" y="15.3" class="st1" width="2.5" height="1.4"/>
		<path class="st1" d="M21.1,16.7h-1.4v1.4h-1.4v-1.4h-1.4v-2.8H14v1.4h1.4v2.8h1.4v1.4h2.8v1.4h1.4v-1.4h1.4v1.4h-1.4v1.4h0.6
			c0.8-0.7,1.4-1.5,1.9-2.5v-0.3h0.2c0.2-0.4,0.4-0.9,0.5-1.4h-3.2V16.7z"/>
		<path class="st1" d="M8.8,20.4c0.2,0.3,0.4,0.6,0.6,0.9h1.3v1.3c0.3,0.2,0.6,0.4,0.9,0.6v-2.8H8.8z"/>
		<path class="st1" d="M8.4,13.9h1.4v1.4h1.4v-1.4H14v-1.4h1.4v-1.4H14V8.4h1.4V7.5c-0.9,0.1-1.7,0.2-2.5,0.5V13H8.1
			c-0.3,0.7-0.5,1.5-0.5,2.4h0.9V13.9z"/>
		<path class="st1" d="M11.6,8.8c-0.3,0.2-0.6,0.4-0.9,0.6v1.3H9.4c-0.2,0.3-0.4,0.6-0.6,0.9h2.8V8.8z"/>
		<path class="st1" d="M14,22.2v-2.7h1.4v-1.4H14v-2.8h-2.8v1.4h1.4v1.4h-1.4v-1.4H9.8v-1.4H8.4v2.8H7.8C7.9,18.4,8,18.7,8.1,19H13
			v4.9c0.8,0.3,1.6,0.5,2.5,0.5v-2.3H14z"/>
		<path class="st1" d="M23.2,11.6c-0.2-0.3-0.4-0.6-0.6-0.9h-1.3V9.4c-0.3-0.2-0.6-0.4-0.9-0.6v2.8H23.2z"/>
		<path class="st2" d="M13,8.1c-0.5,0.2-1,0.4-1.4,0.7v2.8H8.8C8.5,12,8.3,12.5,8.1,13H13V8.1z"/>
		<path class="st2" d="M10.7,9.4c-0.5,0.4-0.9,0.8-1.3,1.3h1.3V9.4z"/>
		<path class="st2" d="M23.9,13c-0.2-0.5-0.4-1-0.7-1.4h-2.8V8.8C20,8.5,19.5,8.3,19,8.1V13H23.9z"/>
		<path class="st2" d="M22.6,10.7c-0.4-0.5-0.8-0.9-1.3-1.3v1.3H22.6z"/>
		<path class="st2" d="M8.1,19c0.2,0.5,0.4,1,0.7,1.4h2.8v2.8c0.4,0.3,0.9,0.5,1.4,0.7V19H8.1z"/>
		<path class="st2" d="M9.4,21.3c0.4,0.5,0.8,0.9,1.3,1.3v-1.3H9.4z"/>
		<rect x="8.4" y="13.9" class="st2" width="1.4" height="1.4"/>
		<polygon class="st2" points="9.8,16.7 11.2,16.7 11.2,18.1 12.6,18.1 12.6,16.7 11.2,16.7 11.2,15.3 9.8,15.3 		"/>
		<rect x="16.8" y="9.7" class="st2" width="1.4" height="1.4"/>
		<rect x="14" y="8.4" class="st2" width="1.4" height="2.7"/>
		<path class="st2" d="M16.8,8.4V7.5c-0.3,0-0.6,0-0.8,0c-0.2,0-0.4,0-0.6,0v0.9H16.8z"/>
		<polygon class="st2" points="14,12.5 14,13.9 16.8,13.9 16.8,11.1 15.4,11.1 15.4,12.5 		"/>
		<polygon class="st2" points="15.4,18.1 15.4,19.5 16.8,19.5 16.8,20.9 19.7,20.9 19.7,19.5 16.8,19.5 16.8,18.1 15.4,18.1
			15.4,15.3 14,15.3 14,18.1 		"/>
		<rect x="16.8" y="13.9" class="st2" width="1.4" height="2.8"/>
		<path class="st2" d="M23.6,13.9H21v1.4h-1.4v1.4h1.4v1.4h3.2c0.2-0.7,0.3-1.4,0.3-2.1c0-0.2,0-0.5,0-0.7h-0.9V13.9z M23.6,16.7
			h-2.5v-1.4h2.5V16.7z"/>
		<path class="st2" d="M23.6,19.8c0.1-0.1,0.1-0.2,0.2-0.3h-0.2V19.8z"/>
		<rect x="18.3" y="16.7" class="st2" width="1.4" height="1.4"/>
		<rect x="19.7" y="20.9" class="st2" width="1.4" height="1.4"/>
		<rect x="21.1" y="19.5" class="st2" width="1.4" height="1.4"/>
		<path class="st2" d="M21.1,22.8c0.2-0.2,0.4-0.3,0.6-0.5h-0.6V22.8z"/>
		<rect x="14" y="19.5" class="st2" width="1.4" height="2.7"/>
		<path class="st2" d="M18.3,23.6v-1.4h-2.8v2.3c0.2,0,0.4,0,0.6,0c0.3,0,0.6,0,0.8,0v-0.9H18.3l0,0.6c0.5-0.1,1-0.3,1.4-0.5v-0.1
			H18.3z"/>
		<rect x="11.2" y="13.9" class="st2" width="2.8" height="1.4"/>
		<path class="st2" d="M8.4,15.3H7.5c0,0.2,0,0.4,0,0.7c0,0.7,0.1,1.5,0.3,2.1h0.6V15.3z"/>
	</g>
</g>
</svg>
