<?xml version="1.0" encoding="iso-8859-1"?>
<svg version="1.1" id="Capa_1" xmlns="http://www.w3.org/2000/svg" xmlns:xlink="http://www.w3.org/1999/xlink" x="0px" y="0px"
	 viewBox="0 0 512 512" style="enable-background:new 0 0 512 512;" xml:space="preserve">
<circle style="fill:#24C6FB;" cx="256" cy="256" r="256"/>
<path style="fill:#5A5A5A;" d="M448,287.724v-63.449l-52.051-10.35c-2.924-9.45-6.525-18.45-11.25-27.225l29.026-43.425l-45-45
	L325.3,127.301c-8.775-4.725-17.776-8.326-27.225-11.25L287.724,64h-63.449l-10.35,52.051c-9.45,2.924-18.45,6.525-27.225,11.25
	l-43.425-29.026l-45,45l29.026,43.425c-4.725,8.775-8.326,17.776-11.25,27.225L64,224.276v63.449l52.051,10.35
	c2.924,9.45,6.525,18.45,11.25,27.225l-29.026,43.425l45,45l43.425-29.026c8.775,4.725,17.776,8.326,27.225,11.25L224.276,448
	h63.449l10.35-52.051c9.45-2.924,18.45-6.525,27.225-11.25l43.425,29.026l45-45L384.699,325.3
	c4.725-8.775,8.326-17.776,11.25-27.225L448,287.724z M256,334.75c-43.425,0-78.75-35.325-78.75-78.75s35.325-78.75,78.75-78.75
	s78.75,35.325,78.75,78.75S299.425,334.75,256,334.75z"/>
<path style="fill:#444444;" d="M395.949,298.075c-2.924,9.45-6.525,18.45-11.25,27.225l29.026,43.425l-45,45L325.3,384.699
	c-8.775,4.725-17.776,8.326-27.225,11.25L287.724,448H256V334.75c43.425,0,78.75-35.325,78.75-78.75s-35.325-78.75-78.75-78.75V64
	h31.724l10.35,52.051c9.45,2.924,18.45,6.525,27.225,11.25l43.425-29.026l45,45L384.699,186.7
	c4.725,8.775,8.326,17.776,11.25,27.225L448,224.276v63.449L395.949,298.075z"/>
</svg>
