<svg enable-background="new 0 0 24 24" height="512" viewBox="0 0 24 24" width="512" xmlns="http://www.w3.org/2000/svg"><path d="m3 21h14.685c-.435-.911-.685-1.926-.685-3s.251-2.089.685-3h-14.685c-.804 0-1.559.311-2.124.876s-.876 1.319-.876 2.124c0 1.654 1.346 3 3 3z" fill="#607d8b"/><path d="m17 18h-17c0 1.654 1.346 3 3 3h14.685c-.435-.911-.685-1.926-.685-3z" fill="#546d79"/><path d="m19 23c2.757 0 5-2.243 5-5s-2.243-5-5-5-5 2.243-5 5 2.243 5 5 5z" fill="#00bcd4"/><path d="m19 13c-2.757 0-5 2.243-5 5s2.243 5 5 5z" fill="#00a4b9"/><path d="m21 3h-14.685c.435.911.685 1.926.685 3s-.25 2.089-.685 3h14.685c.804 0 1.559-.311 2.124-.877.565-.564.876-1.318.876-2.123 0-1.654-1.346-3-3-3z" fill="#607d8b"/><path d="m24 6h-17c0 1.074-.25 2.089-.685 3h14.685c.804 0 1.559-.311 2.124-.877.565-.564.876-1.318.876-2.123z" fill="#546d79"/><path d="m5 1c-2.757 0-5 2.243-5 5s2.243 5 5 5 5-2.243 5-5-2.243-5-5-5z" fill="#00bcd4"/><path d="m5 1c-2.757 0-5 2.243-5 5s2.243 5 5 5z" fill="#00a4b9"/></svg>