<?xml version="1.0" encoding="utf-8"?>
<!-- Generator: Adobe Illustrator 25.0.1, SVG Export Plug-In . SVG Version: 6.00 Build 0)  -->
<svg version="1.1" id="floor_1" xmlns="http://www.w3.org/2000/svg" xmlns:xlink="http://www.w3.org/1999/xlink" x="0px" y="0px"
	 viewBox="0 0 2975 2350" style="enable-background:new 0 0 2975 2350;" xml:space="preserve">
<style type="text/css">
	.st0{fill:none;stroke:#0071BC;stroke-width:3;stroke-miterlimit:10;}
	.st1{fill:#1A1A1A;}
	.st2{opacity:0.5;fill:#C1272D;enable-background:new    ;}
	.st3{fill:#C1272D;}
	.st4{fill:none;stroke:#4D4D4D;stroke-width:9;stroke-miterlimit:10;}
	.st5{fill:#4D4D4D;stroke:#4D4D4D;stroke-width:9;stroke-miterlimit:10;}
	.st6{fill:none;stroke:#4D4D4D;stroke-width:4;stroke-miterlimit:10;}
	.st7{fill:none;stroke:#4D4D4D;stroke-width:6;stroke-miterlimit:10;}
</style>
<g id="stairs_1_">
	<g>
		<g>
			<line class="st0" x1="297.5" y1="2080.6" x2="297.5" y2="2111.1"/>
			<line class="st0" x1="305.1" y1="2080.6" x2="305.1" y2="2111.1"/>
			<line class="st0" x1="312.7" y1="2080.6" x2="312.7" y2="2111.1"/>
			<line class="st0" x1="320.4" y1="2080.6" x2="320.4" y2="2111.1"/>
			<line class="st0" x1="328" y1="2080.6" x2="328" y2="2111.1"/>
			<line class="st0" x1="335.6" y1="2080.6" x2="335.6" y2="2111.1"/>
			<line class="st0" x1="343.2" y1="2080.6" x2="343.2" y2="2111.1"/>
			<line class="st0" x1="350.8" y1="2080.6" x2="350.8" y2="2111.1"/>
			<line class="st0" x1="358.4" y1="2080.6" x2="358.4" y2="2111.1"/>
			<line class="st0" x1="366.1" y1="2080.6" x2="366.1" y2="2111.1"/>
			<line class="st0" x1="373.7" y1="2080.6" x2="373.7" y2="2111.1"/>
			<line class="st0" x1="381.3" y1="2080.6" x2="381.3" y2="2111.1"/>
			<line class="st0" x1="388.9" y1="2080.6" x2="388.9" y2="2111.1"/>
			<line class="st0" x1="396.5" y1="2080.6" x2="396.5" y2="2111.1"/>
		</g>
		<g>
			<line class="st0" x1="297.5" y1="2115.4" x2="297.5" y2="2145.9"/>
			<line class="st0" x1="305.1" y1="2115.4" x2="305.1" y2="2145.9"/>
			<line class="st0" x1="312.7" y1="2115.4" x2="312.7" y2="2145.9"/>
			<line class="st0" x1="320.4" y1="2115.4" x2="320.4" y2="2145.9"/>
			<line class="st0" x1="328" y1="2115.4" x2="328" y2="2145.9"/>
			<line class="st0" x1="335.6" y1="2115.4" x2="335.6" y2="2145.9"/>
			<line class="st0" x1="343.2" y1="2115.4" x2="343.2" y2="2145.9"/>
			<line class="st0" x1="350.8" y1="2115.4" x2="350.8" y2="2145.9"/>
			<line class="st0" x1="358.4" y1="2115.4" x2="358.4" y2="2145.9"/>
			<line class="st0" x1="366.1" y1="2115.4" x2="366.1" y2="2145.9"/>
			<line class="st0" x1="373.7" y1="2115.4" x2="373.7" y2="2145.9"/>
			<line class="st0" x1="381.3" y1="2115.4" x2="381.3" y2="2145.9"/>
			<line class="st0" x1="388.9" y1="2115.4" x2="388.9" y2="2145.9"/>
			<line class="st0" x1="396.5" y1="2115.4" x2="396.5" y2="2145.9"/>
		</g>
	</g>
	<g>
		<g>
			<line class="st0" x1="88.5" y1="506.8" x2="88.5" y2="537.3"/>
			<line class="st0" x1="96.1" y1="506.8" x2="96.1" y2="537.3"/>
			<line class="st0" x1="103.7" y1="506.8" x2="103.7" y2="537.3"/>
			<line class="st0" x1="111.4" y1="506.8" x2="111.4" y2="537.3"/>
			<line class="st0" x1="119" y1="506.8" x2="119" y2="537.3"/>
			<line class="st0" x1="126.6" y1="506.8" x2="126.6" y2="537.3"/>
			<line class="st0" x1="134.2" y1="506.8" x2="134.2" y2="537.3"/>
			<line class="st0" x1="141.8" y1="506.8" x2="141.8" y2="537.3"/>
			<line class="st0" x1="149.4" y1="506.8" x2="149.4" y2="537.3"/>
			<line class="st0" x1="157.1" y1="506.8" x2="157.1" y2="537.3"/>
			<line class="st0" x1="164.7" y1="506.8" x2="164.7" y2="537.3"/>
			<line class="st0" x1="172.3" y1="506.8" x2="172.3" y2="537.3"/>
			<line class="st0" x1="179.9" y1="506.8" x2="179.9" y2="537.3"/>
			<line class="st0" x1="187.5" y1="506.8" x2="187.5" y2="537.3"/>
		</g>
		<g>
			<line class="st0" x1="88.5" y1="541.6" x2="88.5" y2="572.1"/>
			<line class="st0" x1="96.1" y1="541.6" x2="96.1" y2="572.1"/>
			<line class="st0" x1="103.7" y1="541.6" x2="103.7" y2="572.1"/>
			<line class="st0" x1="111.4" y1="541.6" x2="111.4" y2="572.1"/>
			<line class="st0" x1="119" y1="541.6" x2="119" y2="572.1"/>
			<line class="st0" x1="126.6" y1="541.6" x2="126.6" y2="572.1"/>
			<line class="st0" x1="134.2" y1="541.6" x2="134.2" y2="572.1"/>
			<line class="st0" x1="141.8" y1="541.6" x2="141.8" y2="572.1"/>
			<line class="st0" x1="149.4" y1="541.6" x2="149.4" y2="572.1"/>
			<line class="st0" x1="157.1" y1="541.6" x2="157.1" y2="572.1"/>
			<line class="st0" x1="164.7" y1="541.6" x2="164.7" y2="572.1"/>
			<line class="st0" x1="172.3" y1="541.6" x2="172.3" y2="572.1"/>
			<line class="st0" x1="179.9" y1="541.6" x2="179.9" y2="572.1"/>
			<line class="st0" x1="187.5" y1="541.6" x2="187.5" y2="572.1"/>
		</g>
	</g>
	<g>
		<g>
			<line class="st0" x1="545" y1="1095.8" x2="545" y2="1126.3"/>
			<line class="st0" x1="552.6" y1="1095.8" x2="552.6" y2="1126.3"/>
			<line class="st0" x1="560.2" y1="1095.8" x2="560.2" y2="1126.3"/>
			<line class="st0" x1="567.8" y1="1095.8" x2="567.8" y2="1126.3"/>
			<line class="st0" x1="575.4" y1="1095.8" x2="575.4" y2="1126.3"/>
			<line class="st0" x1="583.1" y1="1095.8" x2="583.1" y2="1126.3"/>
			<line class="st0" x1="590.7" y1="1095.8" x2="590.7" y2="1126.3"/>
			<line class="st0" x1="598.3" y1="1095.8" x2="598.3" y2="1126.3"/>
			<line class="st0" x1="605.9" y1="1095.8" x2="605.9" y2="1126.3"/>
			<line class="st0" x1="613.5" y1="1095.8" x2="613.5" y2="1126.3"/>
			<line class="st0" x1="621.1" y1="1095.8" x2="621.1" y2="1126.3"/>
			<line class="st0" x1="628.7" y1="1095.8" x2="628.7" y2="1126.3"/>
			<line class="st0" x1="636.4" y1="1095.8" x2="636.4" y2="1126.3"/>
			<line class="st0" x1="644" y1="1095.8" x2="644" y2="1126.3"/>
		</g>
		<g>
			<line class="st0" x1="545" y1="1130.6" x2="545" y2="1161.1"/>
			<line class="st0" x1="552.6" y1="1130.6" x2="552.6" y2="1161.1"/>
			<line class="st0" x1="560.2" y1="1130.6" x2="560.2" y2="1161.1"/>
			<line class="st0" x1="567.8" y1="1130.6" x2="567.8" y2="1161.1"/>
			<line class="st0" x1="575.4" y1="1130.6" x2="575.4" y2="1161.1"/>
			<line class="st0" x1="583.1" y1="1130.6" x2="583.1" y2="1161.1"/>
			<line class="st0" x1="590.7" y1="1130.6" x2="590.7" y2="1161.1"/>
			<line class="st0" x1="598.3" y1="1130.6" x2="598.3" y2="1161.1"/>
			<line class="st0" x1="605.9" y1="1130.6" x2="605.9" y2="1161.1"/>
			<line class="st0" x1="613.5" y1="1130.6" x2="613.5" y2="1161.1"/>
			<line class="st0" x1="621.1" y1="1130.6" x2="621.1" y2="1161.1"/>
			<line class="st0" x1="628.7" y1="1130.6" x2="628.7" y2="1161.1"/>
			<line class="st0" x1="636.4" y1="1130.6" x2="636.4" y2="1161.1"/>
			<line class="st0" x1="644" y1="1130.6" x2="644" y2="1161.1"/>
		</g>
	</g>
	<g>
		<g>
			<line class="st0" x1="1936.2" y1="1972.5" x2="1892.8" y2="1972.5"/>
			<line class="st0" x1="1936.2" y1="1980.1" x2="1892.8" y2="1980.1"/>
			<line class="st0" x1="1936.2" y1="1987.7" x2="1892.8" y2="1987.7"/>
			<line class="st0" x1="1936.2" y1="1995.3" x2="1892.8" y2="1995.3"/>
			<line class="st0" x1="1936.2" y1="2003" x2="1892.8" y2="2003"/>
			<line class="st0" x1="1936.2" y1="2010.6" x2="1892.8" y2="2010.6"/>
			<line class="st0" x1="1936.2" y1="2018.2" x2="1892.8" y2="2018.2"/>
			<line class="st0" x1="1936.2" y1="2025.8" x2="1892.8" y2="2025.8"/>
			<line class="st0" x1="1936.2" y1="2033.4" x2="1892.8" y2="2033.4"/>
			<line class="st0" x1="1936.2" y1="2041" x2="1892.8" y2="2041"/>
			<line class="st0" x1="1936.2" y1="2048.7" x2="1892.8" y2="2048.7"/>
			<line class="st0" x1="1936.2" y1="2056.3" x2="1892.8" y2="2056.3"/>
			<line class="st0" x1="1936.2" y1="2063.9" x2="1892.8" y2="2063.9"/>
			<line class="st0" x1="1936.2" y1="2071.5" x2="1892.8" y2="2071.5"/>
		</g>
		<g>
			<line class="st0" x1="1856.4" y1="1972.5" x2="1810.3" y2="1972.5"/>
			<line class="st0" x1="1856.4" y1="1980.1" x2="1810.3" y2="1980.1"/>
			<line class="st0" x1="1856.4" y1="1987.7" x2="1810.3" y2="1987.7"/>
			<line class="st0" x1="1856.4" y1="1995.3" x2="1810.3" y2="1995.3"/>
			<line class="st0" x1="1856.4" y1="2003" x2="1810.3" y2="2003"/>
			<line class="st0" x1="1856.4" y1="2010.6" x2="1810.3" y2="2010.6"/>
			<line class="st0" x1="1856.4" y1="2018.2" x2="1810.3" y2="2018.2"/>
			<line class="st0" x1="1856.4" y1="2025.8" x2="1810.3" y2="2025.8"/>
			<line class="st0" x1="1856.4" y1="2033.4" x2="1810.3" y2="2033.4"/>
			<line class="st0" x1="1856.4" y1="2041" x2="1810.3" y2="2041"/>
			<line class="st0" x1="1856.4" y1="2048.7" x2="1810.3" y2="2048.7"/>
			<line class="st0" x1="1856.4" y1="2056.3" x2="1810.3" y2="2056.3"/>
			<line class="st0" x1="1856.4" y1="2063.9" x2="1810.3" y2="2063.9"/>
			<line class="st0" x1="1856.4" y1="2071.5" x2="1810.3" y2="2071.5"/>
		</g>
	</g>
	<g>
		<g>
			<line class="st0" x1="545.3" y1="679.7" x2="545.3" y2="723.8"/>
			<line class="st0" x1="552.9" y1="679.7" x2="552.9" y2="723.8"/>
			<line class="st0" x1="560.5" y1="679.7" x2="560.5" y2="723.8"/>
			<line class="st0" x1="568.1" y1="679.7" x2="568.1" y2="723.8"/>
			<line class="st0" x1="575.7" y1="679.7" x2="575.7" y2="723.8"/>
			<line class="st0" x1="583.4" y1="679.7" x2="583.4" y2="723.8"/>
			<line class="st0" x1="591" y1="679.7" x2="591" y2="723.8"/>
			<line class="st0" x1="598.6" y1="679.7" x2="598.6" y2="723.8"/>
			<line class="st0" x1="606.2" y1="679.7" x2="606.2" y2="723.8"/>
			<line class="st0" x1="613.8" y1="679.7" x2="613.8" y2="723.8"/>
			<line class="st0" x1="621.4" y1="679.7" x2="621.4" y2="723.8"/>
			<line class="st0" x1="629.1" y1="679.7" x2="629.1" y2="723.8"/>
			<line class="st0" x1="636.7" y1="679.7" x2="636.7" y2="723.8"/>
			<line class="st0" x1="644.3" y1="679.7" x2="644.3" y2="723.8"/>
		</g>
		<g>
			<line class="st0" x1="545.3" y1="814.1" x2="545.3" y2="858.2"/>
			<line class="st0" x1="552.9" y1="814.1" x2="552.9" y2="858.2"/>
			<line class="st0" x1="560.5" y1="814.1" x2="560.5" y2="858.2"/>
			<line class="st0" x1="568.1" y1="814.1" x2="568.1" y2="858.2"/>
			<line class="st0" x1="575.7" y1="814.1" x2="575.7" y2="858.2"/>
			<line class="st0" x1="583.4" y1="814.1" x2="583.4" y2="858.2"/>
			<line class="st0" x1="591" y1="814.1" x2="591" y2="858.2"/>
			<line class="st0" x1="598.6" y1="814.1" x2="598.6" y2="858.2"/>
			<line class="st0" x1="606.2" y1="814.1" x2="606.2" y2="858.2"/>
			<line class="st0" x1="613.8" y1="814.1" x2="613.8" y2="858.2"/>
			<line class="st0" x1="621.4" y1="814.1" x2="621.4" y2="858.2"/>
			<line class="st0" x1="629.1" y1="814.1" x2="629.1" y2="858.2"/>
			<line class="st0" x1="636.7" y1="814.1" x2="636.7" y2="858.2"/>
			<line class="st0" x1="644.3" y1="814.1" x2="644.3" y2="858.2"/>
		</g>
		<g>
			<line class="st0" x1="545.3" y1="736.9" x2="545.3" y2="801.1"/>
			<line class="st0" x1="552.9" y1="736.9" x2="552.9" y2="801.1"/>
			<line class="st0" x1="560.5" y1="736.9" x2="560.5" y2="801.1"/>
			<line class="st0" x1="568.1" y1="736.9" x2="568.1" y2="801.1"/>
			<line class="st0" x1="575.7" y1="736.9" x2="575.7" y2="801.1"/>
			<line class="st0" x1="583.4" y1="736.9" x2="583.4" y2="801.1"/>
			<line class="st0" x1="591" y1="736.9" x2="591" y2="801.1"/>
			<line class="st0" x1="598.6" y1="736.9" x2="598.6" y2="801.1"/>
			<line class="st0" x1="606.2" y1="736.9" x2="606.2" y2="801.1"/>
			<line class="st0" x1="613.8" y1="736.9" x2="613.8" y2="801.1"/>
			<line class="st0" x1="621.4" y1="736.9" x2="621.4" y2="801.1"/>
			<line class="st0" x1="629.1" y1="736.9" x2="629.1" y2="801.1"/>
			<line class="st0" x1="636.7" y1="736.9" x2="636.7" y2="801.1"/>
			<line class="st0" x1="644.3" y1="736.9" x2="644.3" y2="801.1"/>
		</g>
	</g>
</g>
<g id="marks_1_">
	<circle class="st1" cx="1733.7" cy="1971.1" r="10.4"/>
	<path class="st1" d="M1730.3,1987l-13.7,23.7c-1.5,2.6,0.4,6,3.4,6h27.3c3.1,0,5-3.3,3.4-6L1737,1987
		C1735.6,1984.3,1731.8,1984.3,1730.3,1987z"/>
	<circle class="st1" cx="1620.6" cy="1971.1" r="10.4"/>
	<path class="st1" d="M1624,2022.6l13.8-23.9c1.5-2.6-0.4-5.9-3.4-5.9h-27.5c-3,0-4.9,3.3-3.4,5.9l13.8,23.9
		C1618.7,2025.2,1622.5,2025.2,1624,2022.6z"/>
</g>
<g id="rooms_1_">
	<g>
		<path d="M602.8,614.5v23.8h-2.4v-21.6h-5.6v-2.2H602.8L602.8,614.5z"/>
		<path d="M615.1,614.5v23.8h-2.4v-21.6h-5.6v-2.2H615.1L615.1,614.5z"/>
		<path d="M637.6,614.5v1.7l-10,22.1H625l9.8-21.6h-12.2v4.5h-2.4v-6.6h17.4V614.5z"/>
	</g>
	<g>
		<path d="M602.8,922.4v23.8h-2.4v-21.6h-5.6v-2.2H602.8z"/>
		<path d="M615.1,922.4v23.8h-2.4v-21.6h-5.6v-2.2H615.1z"/>
		<path d="M637.9,936c0.8,1,1.2,2.2,1.2,3.6c0,1.4-0.4,2.6-1.1,3.6s-1.8,1.8-3.2,2.4c-1.4,0.6-3,0.8-4.9,0.8c-2.9,0-5.1-0.6-6.7-1.8
			c-1.6-1.2-2.4-2.9-2.4-5c0-1.4,0.4-2.6,1.2-3.6s1.9-1.7,3.4-2.2c-1.2-0.5-2.2-1.2-2.8-2.1c-0.6-0.9-1-2-1-3.2
			c0-1.9,0.8-3.5,2.3-4.6s3.5-1.7,6.1-1.7c1.7,0,3.1,0.3,4.4,0.8c1.3,0.5,2.2,1.2,2.9,2.2s1.1,2.1,1.1,3.3s-0.3,2.3-1,3.2
			s-1.6,1.6-2.8,2.1C635.9,934.2,637.1,935,637.9,936z M634.8,943.1c1.2-0.9,1.8-2,1.8-3.5s-0.6-2.6-1.8-3.5s-2.8-1.3-4.9-1.3
			c-2.1,0-3.7,0.4-4.9,1.3s-1.8,2-1.8,3.5s0.6,2.7,1.8,3.5s2.8,1.3,4.9,1.3S633.6,943.9,634.8,943.1z M625.5,931.7
			c1,0.8,2.5,1.2,4.3,1.2s3.3-0.4,4.3-1.2c1.1-0.8,1.6-1.8,1.6-3.1s-0.5-2.4-1.6-3.2s-2.5-1.2-4.3-1.2s-3.2,0.4-4.3,1.2
			s-1.6,1.8-1.6,3.1C624,929.9,624.5,930.9,625.5,931.7z"/>
	</g>
	<g>
		<path d="M2453.6,2271.1c0.9,1,1.3,2.3,1.3,3.9c0,2.1-0.7,3.6-2.2,4.8c-1.5,1.1-3.6,1.7-6.4,1.7h-10.5v-23.8h9.9
			c2.5,0,4.5,0.5,6,1.6c1.4,1,2.1,2.6,2.1,4.5c0,1.3-0.3,2.5-1,3.4c-0.7,0.9-1.6,1.6-2.9,2.1
			C2451.5,2269.5,2452.7,2270.1,2453.6,2271.1z M2438.2,2268.4h7.3c1.8,0,3.2-0.4,4.2-1.1s1.5-1.8,1.5-3.3s-0.5-2.5-1.5-3.3
			s-2.4-1.1-4.2-1.1h-7.3V2268.4z M2452.4,2274.8c0-3-2.1-4.5-6.2-4.5h-8.1v9.1h8.1C2450.4,2279.4,2452.4,2277.8,2452.4,2274.8z"/>
		<path d="M2484.3,2279.2v7.8h-2.3v-5.6h-20.8v-23.8h2.5v21.6h14.4v-21.6h2.5v21.6H2484.3z"/>
		<path d="M2493.6,2257.6v23.8h-2.4v-21.6h-5.6v-2.2H2493.6L2493.6,2257.6z"/>
		<path d="M2525.7,2275h-13.3l-2.9,6.4h-2.6l10.9-23.8h2.5l10.9,23.8h-2.7L2525.7,2275z M2524.8,2273l-5.7-12.8l-5.7,12.8H2524.8z"
			/>
	</g>
	<g>
		<path d="M2462.1,2039.1c0.9,1,1.3,2.3,1.3,3.9c0,2.1-0.7,3.6-2.2,4.8c-1.5,1.1-3.6,1.7-6.4,1.7h-10.5v-23.8h9.9
			c2.5,0,4.5,0.5,6,1.6c1.4,1,2.1,2.6,2.1,4.5c0,1.3-0.3,2.5-1,3.4s-1.6,1.6-2.9,2.1C2459.9,2037.4,2461.2,2038.1,2462.1,2039.1z
			 M2446.7,2036.3h7.3c1.8,0,3.2-0.4,4.2-1.1s1.5-1.8,1.5-3.3s-0.5-2.5-1.5-3.3s-2.4-1.1-4.2-1.1h-7.3V2036.3z M2460.9,2042.8
			c0-3-2.1-4.5-6.2-4.5h-8.1v9.1h8.1C2458.8,2047.4,2460.9,2045.8,2460.9,2042.8z"/>
		<path d="M2492.8,2047.2v7.8h-2.3v-5.6h-20.8v-23.8h2.5v21.6h14.4v-21.6h2.5v21.6H2492.8z"/>
		<path d="M2502.1,2025.6v23.8h-2.4v-21.6h-5.6v-2.2L2502.1,2025.6L2502.1,2025.6z"/>
		<path d="M2536.8,2039.1c0.9,1,1.3,2.3,1.3,3.9c0,2.1-0.7,3.6-2.2,4.8c-1.5,1.1-3.6,1.7-6.4,1.7H2519v-23.8h9.9
			c2.5,0,4.5,0.5,6,1.6c1.4,1,2.1,2.6,2.1,4.5c0,1.3-0.3,2.5-1,3.4s-1.6,1.6-2.9,2.1C2534.7,2037.4,2536,2038.1,2536.8,2039.1z
			 M2521.4,2036.3h7.3c1.8,0,3.2-0.4,4.2-1.1s1.5-1.8,1.5-3.3s-0.5-2.5-1.5-3.3s-2.4-1.1-4.2-1.1h-7.3V2036.3z M2535.6,2042.8
			c0-3-2.1-4.5-6.2-4.5h-8.1v9.1h8.1C2533.6,2047.4,2535.6,2045.8,2535.6,2042.8z"/>
	</g>
	<g>
		<path d="M2234.6,2271.1c0.9,1,1.3,2.3,1.3,3.9c0,2.1-0.7,3.6-2.2,4.8c-1.5,1.1-3.6,1.7-6.4,1.7h-10.5v-23.8h9.9
			c2.5,0,4.5,0.5,6,1.6c1.4,1,2.1,2.6,2.1,4.5c0,1.3-0.3,2.5-1,3.4c-0.7,0.9-1.6,1.6-2.9,2.1
			C2232.5,2269.5,2233.8,2270.1,2234.6,2271.1z M2219.2,2268.4h7.3c1.8,0,3.2-0.4,4.2-1.1s1.5-1.8,1.5-3.3s-0.5-2.5-1.5-3.3
			s-2.4-1.1-4.2-1.1h-7.3V2268.4z M2233.4,2274.8c0-3-2.1-4.5-6.2-4.5h-8.1v9.1h8.1C2231.4,2279.4,2233.4,2277.8,2233.4,2274.8z"/>
		<path d="M2265.3,2279.2v7.8h-2.3v-5.6h-20.8v-23.8h2.5v21.6h14.4v-21.6h2.5v21.6H2265.3z"/>
		<path d="M2274.7,2257.6v23.8h-2.4v-21.6h-5.6v-2.2H2274.7L2274.7,2257.6z"/>
		<path d="M2295.5,2280c-1.9-1-3.4-2.5-4.5-4.3s-1.6-3.9-1.6-6.2s0.5-4.4,1.6-6.2s2.6-3.3,4.5-4.3s4-1.6,6.4-1.6
			c1.8,0,3.4,0.3,4.9,0.9c1.5,0.6,2.8,1.5,3.8,2.6l-1.6,1.6c-1.9-1.9-4.2-2.8-7-2.8c-1.9,0-3.6,0.4-5.1,1.3c-1.5,0.9-2.7,2-3.6,3.5
			c-0.9,1.5-1.3,3.2-1.3,5c0,1.9,0.4,3.5,1.3,5c0.9,1.5,2.1,2.7,3.6,3.5s3.3,1.3,5.1,1.3c2.9,0,5.2-1,7-2.9l1.6,1.6
			c-1,1.1-2.3,2-3.8,2.6c-1.5,0.6-3.1,0.9-4.9,0.9C2299.5,2281.6,2297.4,2281.1,2295.5,2280z"/>
	</g>
	<g>
		<path d="M2201.7,2029.2c0.9,1,1.3,2.3,1.3,3.9c0,2.1-0.7,3.6-2.2,4.8c-1.5,1.1-3.6,1.7-6.4,1.7h-10.5v-23.8h9.9
			c2.5,0,4.5,0.5,6,1.6c1.4,1,2.1,2.6,2.1,4.5c0,1.3-0.3,2.5-1,3.4s-1.6,1.6-2.9,2.1C2199.6,2027.5,2200.8,2028.2,2201.7,2029.2z
			 M2186.3,2026.4h7.3c1.8,0,3.2-0.4,4.2-1.1s1.5-1.8,1.5-3.3s-0.5-2.5-1.5-3.3s-2.4-1.1-4.2-1.1h-7.3V2026.4z M2200.5,2032.8
			c0-3-2.1-4.5-6.2-4.5h-8.1v9.1h8.1C2198.5,2037.4,2200.5,2035.9,2200.5,2032.8z"/>
		<path d="M2232.4,2037.3v7.8h-2.3v-5.6h-20.8v-23.8h2.5v21.6h14.4v-21.6h2.5v21.6H2232.4z"/>
		<path d="M2241.7,2015.6v23.8h-2.4v-21.6h-5.6v-2.2L2241.7,2015.6L2241.7,2015.6z"/>
		<path d="M2258.4,2015.6h9.7c2.5,0,4.7,0.5,6.7,1.5c1.9,1,3.4,2.4,4.5,4.2c1.1,1.8,1.6,3.9,1.6,6.2c0,2.3-0.5,4.4-1.6,6.2
			c-1.1,1.8-2.6,3.2-4.5,4.2s-4.1,1.5-6.7,1.5h-9.7V2015.6z M2268,2037.3c2.1,0,3.9-0.4,5.5-1.2c1.6-0.8,2.8-2,3.6-3.4
			c0.9-1.5,1.3-3.1,1.3-5s-0.4-3.6-1.3-5s-2.1-2.6-3.6-3.4c-1.6-0.8-3.4-1.2-5.5-1.2h-7v19.4h7V2037.3z"/>
	</g>
	<g>
		<path d="M2002.2,2029.2c0.9,1,1.3,2.3,1.3,3.9c0,2.1-0.7,3.6-2.2,4.8c-1.5,1.1-3.6,1.7-6.4,1.7h-10.5v-23.8h9.9
			c2.5,0,4.5,0.5,6,1.6c1.4,1,2.1,2.6,2.1,4.5c0,1.3-0.3,2.5-1,3.4s-1.6,1.6-2.9,2.1C2000.1,2027.5,2001.4,2028.2,2002.2,2029.2z
			 M1986.8,2026.4h7.3c1.8,0,3.2-0.4,4.2-1.1s1.5-1.8,1.5-3.3s-0.5-2.5-1.5-3.3s-2.4-1.1-4.2-1.1h-7.3V2026.4z M2001,2032.8
			c0-3-2.1-4.5-6.2-4.5h-8.1v9.1h8.1C1999,2037.4,2001,2035.9,2001,2032.8z"/>
		<path d="M2032.9,2037.3v7.8h-2.3v-5.6h-20.8v-23.8h2.5v21.6h14.4v-21.6h2.5v21.6H2032.9z"/>
		<path d="M2042.3,2015.6v23.8h-2.4v-21.6h-5.6v-2.2L2042.3,2015.6L2042.3,2015.6z"/>
		<path d="M2075.9,2037.3v2.2h-16.8v-23.8h16.3v2.2h-13.8v8.5h12.3v2.1h-12.3v8.8L2075.9,2037.3L2075.9,2037.3z"/>
	</g>
	<g>
		<path d="M1672.8,2248.8c0.9,1,1.3,2.3,1.3,3.9c0,2.1-0.7,3.6-2.2,4.8c-1.5,1.1-3.6,1.7-6.4,1.7H1655v-23.8h9.9
			c2.5,0,4.5,0.5,6,1.6c1.4,1,2.1,2.6,2.1,4.5c0,1.3-0.3,2.5-1,3.4c-0.7,0.9-1.6,1.6-2.9,2.1
			C1670.7,2247.1,1671.9,2247.8,1672.8,2248.8z M1657.4,2246h7.3c1.8,0,3.2-0.4,4.2-1.1s1.5-1.8,1.5-3.3s-0.5-2.5-1.5-3.3
			s-2.4-1.1-4.2-1.1h-7.3V2246z M1671.6,2252.4c0-3-2.1-4.5-6.2-4.5h-8.1v9.1h8.1C1669.5,2257,1671.6,2255.5,1671.6,2252.4z"/>
		<path d="M1703.5,2256.9v7.8h-2.3v-5.6h-20.8v-23.8h2.5v21.6h14.4v-21.6h2.5v21.6H1703.5z"/>
		<path d="M1722.5,2256.9v2.2h-16.7v-1.7l9.9-9.7c1.2-1.2,2.1-2.3,2.5-3.2s0.7-1.8,0.7-2.7c0-1.4-0.5-2.5-1.4-3.3
			c-1-0.8-2.3-1.2-4.1-1.2c-2.8,0-5,0.9-6.5,2.7l-1.7-1.5c0.9-1.1,2.1-1.9,3.6-2.5c1.4-0.6,3.1-0.9,4.9-0.9c2.4,0,4.3,0.6,5.8,1.7
			c1.4,1.1,2.1,2.7,2.1,4.7c0,1.2-0.3,2.4-0.8,3.5c-0.5,1.1-1.6,2.4-3.1,3.9l-8.1,8H1722.5z"/>
	</g>
	<g>
		<path d="M1405.3,1991.4c0.9,1,1.3,2.3,1.3,3.9c0,2.1-0.7,3.6-2.2,4.8c-1.5,1.1-3.6,1.7-6.4,1.7h-10.5V1978h9.9
			c2.5,0,4.5,0.5,6,1.6c1.4,1,2.1,2.6,2.1,4.5c0,1.3-0.3,2.5-1,3.4s-1.6,1.6-2.9,2.1C1403.2,1989.7,1404.5,1990.4,1405.3,1991.4z
			 M1389.9,1988.6h7.3c1.8,0,3.2-0.4,4.2-1.1s1.5-1.8,1.5-3.3s-0.5-2.5-1.5-3.3s-2.4-1.1-4.2-1.1h-7.3V1988.6z M1404.2,1995
			c0-3-2.1-4.5-6.2-4.5h-8.1v9.1h8.1C1402.1,1999.6,1404.2,1998.1,1404.2,1995z"/>
		<path d="M1436,1999.5v7.8h-2.3v-5.6h-20.8v-23.8h2.5v21.6h14.4v-21.6h2.5v21.6H1436z"/>
		<path d="M1452.6,1990.1c1.3,1.2,2,2.8,2,4.7c0,1.4-0.3,2.6-1,3.6c-0.7,1.1-1.6,1.9-2.9,2.5s-2.9,0.9-4.7,0.9
			c-1.7,0-3.3-0.3-4.9-0.8c-1.5-0.6-2.8-1.3-3.7-2.2l1.2-1.9c0.8,0.8,1.8,1.5,3.2,2c1.3,0.5,2.7,0.8,4.2,0.8c1.9,0,3.5-0.4,4.5-1.3
			c1.1-0.8,1.6-2,1.6-3.5s-0.5-2.6-1.6-3.5c-1.1-0.8-2.7-1.3-4.8-1.3h-1.7v-1.8l6.6-8.3h-12.2v-2.2h15.3v1.7l-6.7,8.5
			C1449.4,1988.2,1451.3,1988.9,1452.6,1990.1z"/>
	</g>
	<g>
		<path d="M1434.8,2248.8c0.9,1,1.3,2.3,1.3,3.9c0,2.1-0.7,3.6-2.2,4.8c-1.5,1.1-3.6,1.7-6.4,1.7H1417v-23.8h9.9
			c2.5,0,4.5,0.5,6,1.6c1.4,1,2.1,2.6,2.1,4.5c0,1.3-0.3,2.5-1,3.4c-0.7,0.9-1.6,1.6-2.9,2.1
			C1432.7,2247.1,1433.9,2247.8,1434.8,2248.8z M1419.4,2246h7.3c1.8,0,3.2-0.4,4.2-1.1s1.5-1.8,1.5-3.3s-0.5-2.5-1.5-3.3
			s-2.4-1.1-4.2-1.1h-7.3V2246z M1433.6,2252.4c0-3-2.1-4.5-6.2-4.5h-8.1v9.1h8.1C1431.6,2257,1433.6,2255.5,1433.6,2252.4z"/>
		<path d="M1465.5,2256.9v7.8h-2.3v-5.6h-20.8v-23.8h2.5v21.6h14.4v-21.6h2.5v21.6H1465.5z"/>
		<path d="M1488.5,2252.8h-4.8v6.3h-2.4v-6.3h-13.4v-1.8l12.6-15.8h2.7l-12.2,15.4h10.3v-5.5h2.4v5.5h4.8V2252.8z"/>
	</g>
	<g>
		<path d="M1204.6,2248.8c0.9,1,1.3,2.3,1.3,3.9c0,2.1-0.7,3.6-2.2,4.8c-1.5,1.1-3.6,1.7-6.4,1.7h-10.5v-23.8h9.9
			c2.5,0,4.5,0.5,6,1.6c1.4,1,2.1,2.6,2.1,4.5c0,1.3-0.3,2.5-1,3.4c-0.7,0.9-1.6,1.6-2.9,2.1
			C1202.5,2247.1,1203.8,2247.8,1204.6,2248.8z M1189.2,2246h7.3c1.8,0,3.2-0.4,4.2-1.1s1.5-1.8,1.5-3.3s-0.5-2.5-1.5-3.3
			s-2.4-1.1-4.2-1.1h-7.3V2246z M1203.4,2252.4c0-3-2.1-4.5-6.2-4.5h-8.1v9.1h8.1C1201.4,2257,1203.4,2255.5,1203.4,2252.4z"/>
		<path d="M1235.3,2256.9v7.8h-2.3v-5.6h-20.8v-23.8h2.5v21.6h14.4v-21.6h2.5v21.6H1235.3z"/>
		<path d="M1251.9,2246.9c1.6,1.2,2.4,3,2.4,5.2c0,1.4-0.3,2.6-1,3.7c-0.7,1.1-1.6,1.9-2.9,2.6c-1.3,0.6-2.9,0.9-4.8,0.9
			c-1.7,0-3.3-0.3-4.8-0.8s-2.8-1.3-3.7-2.2l1.2-1.9c0.8,0.8,1.8,1.5,3.1,2c1.3,0.5,2.7,0.8,4.2,0.8c2,0,3.5-0.4,4.6-1.3
			c1.1-0.9,1.6-2.1,1.6-3.5c0-1.6-0.6-2.9-1.8-3.7c-1.2-0.8-3.3-1.3-6.1-1.3h-5.1l1.2-11.9h13v2.2h-10.9l-0.8,7.6h3.1
			C1247.8,2245,1250.3,2245.6,1251.9,2246.9z"/>
	</g>
	<g>
		<path d="M1178.8,2022c0.9,1,1.3,2.3,1.3,3.9c0,2.1-0.7,3.6-2.2,4.8c-1.5,1.1-3.6,1.7-6.4,1.7H1161v-23.8h9.9c2.5,0,4.5,0.5,6,1.6
			c1.4,1,2.1,2.6,2.1,4.5c0,1.3-0.3,2.5-1,3.4s-1.6,1.6-2.9,2.1C1176.7,2020.3,1177.9,2021,1178.8,2022z M1163.4,2019.2h7.3
			c1.8,0,3.2-0.4,4.2-1.1s1.5-1.8,1.5-3.3s-0.5-2.5-1.5-3.3s-2.4-1.1-4.2-1.1h-7.3V2019.2z M1177.6,2025.6c0-3-2.1-4.5-6.2-4.5h-8.1
			v9.1h8.1C1175.5,2030.2,1177.6,2028.7,1177.6,2025.6z"/>
		<path d="M1209.5,2030.1v7.8h-2.3v-5.6h-20.8v-23.8h2.5v21.6h14.4v-21.6h2.5v21.6H1209.5z"/>
	</g>
	<g>
		<path d="M979.6,2001.8c0.9,1,1.3,2.3,1.3,3.9c0,2.1-0.7,3.6-2.2,4.8c-1.5,1.1-3.6,1.7-6.4,1.7h-10.5v-23.8h9.9
			c2.5,0,4.5,0.5,6,1.6c1.4,1,2.1,2.6,2.1,4.5c0,1.3-0.3,2.5-1,3.4s-1.6,1.6-2.9,2.1C977.5,2000.1,978.8,2000.8,979.6,2001.8z
			 M964.2,1999.1h7.3c1.8,0,3.2-0.4,4.2-1.1s1.5-1.8,1.5-3.3s-0.5-2.5-1.5-3.3s-2.4-1.1-4.2-1.1h-7.3V1999.1z M978.4,2005.5
			c0-3-2.1-4.5-6.2-4.5h-8.1v9.1h8.1C976.4,2010.1,978.4,2008.5,978.4,2005.5z"/>
		<path d="M1010.3,2009.9v7.8h-2.3v-5.6h-20.8v-23.8h2.5v21.6h14.4v-21.6h2.5v21.6H1010.3z"/>
		<path d="M1027.1,1998.7c1.2,0.6,2.2,1.4,2.8,2.5c0.7,1.1,1,2.3,1,3.8s-0.4,2.7-1.1,3.8c-0.7,1.1-1.7,2-2.9,2.6
			c-1.2,0.6-2.6,0.9-4.2,0.9c-3.2,0-5.6-1-7.2-3.1c-1.7-2.1-2.5-5-2.5-8.8c0-2.7,0.5-4.9,1.4-6.7c0.9-1.8,2.2-3.2,3.8-4.2
			s3.5-1.4,5.7-1.4c2.4,0,4.2,0.4,5.6,1.3l-1,2c-1.1-0.7-2.7-1.1-4.6-1.1c-2.6,0-4.7,0.8-6.2,2.5s-2.2,4.1-2.2,7.3
			c0,0.6,0,1.2,0.1,1.9c0.6-1.3,1.5-2.3,2.8-3s2.8-1.1,4.5-1.1C1024.5,1997.8,1025.9,1998.1,1027.1,1998.7z M1026.9,2008.8
			c1.1-0.9,1.6-2.2,1.6-3.8c0-1.6-0.5-2.8-1.6-3.7c-1.1-0.9-2.5-1.4-4.4-1.4c-1.2,0-2.3,0.2-3.2,0.7s-1.6,1.1-2.2,1.9
			c-0.5,0.8-0.8,1.7-0.8,2.7c0,0.9,0.2,1.7,0.7,2.5s1.2,1.4,2.2,1.9s2.1,0.7,3.4,0.7C1024.5,2010.2,1025.9,2009.7,1026.9,2008.8z"/>
	</g>
	<g>
		<path d="M902.7,2248.8c0.9,1,1.3,2.3,1.3,3.9c0,2.1-0.7,3.6-2.2,4.8c-1.5,1.1-3.6,1.7-6.4,1.7h-10.5v-23.8h9.9
			c2.5,0,4.5,0.5,6,1.6c1.4,1,2.1,2.6,2.1,4.5c0,1.3-0.3,2.5-1,3.4c-0.7,0.9-1.6,1.6-2.9,2.1
			C900.6,2247.1,901.8,2247.8,902.7,2248.8z M887.3,2246h7.3c1.8,0,3.2-0.4,4.2-1.1s1.5-1.8,1.5-3.3s-0.5-2.5-1.5-3.3
			s-2.4-1.1-4.2-1.1h-7.3V2246z M901.5,2252.4c0-3-2.1-4.5-6.2-4.5h-8.1v9.1h8.1C899.4,2257,901.5,2255.5,901.5,2252.4z"/>
		<path d="M933.4,2256.9v7.8H931v-5.6h-20.8v-23.8h2.5v21.6h14.4v-21.6h2.5v21.6H933.4z"/>
		<path d="M952.9,2235.2v1.7l-10,22.1h-2.7l9.8-21.6h-12.2v4.5h-2.4v-6.6L952.9,2235.2L952.9,2235.2z"/>
	</g>
	<g>
		<path d="M762.8,2011.9c0.9,1,1.3,2.3,1.3,3.9c0,2.1-0.7,3.6-2.2,4.8c-1.5,1.1-3.6,1.7-6.4,1.7H745v-23.8h9.9c2.5,0,4.5,0.5,6,1.6
			c1.4,1,2.1,2.6,2.1,4.5c0,1.3-0.3,2.5-1,3.4s-1.6,1.6-2.9,2.1C760.7,2010.2,762,2010.9,762.8,2011.9z M747.4,2009.1h7.3
			c1.8,0,3.2-0.4,4.2-1.1s1.5-1.8,1.5-3.3s-0.5-2.5-1.5-3.3s-2.4-1.1-4.2-1.1h-7.3V2009.1z M761.6,2015.6c0-3-2.1-4.5-6.2-4.5h-8.1
			v9.1h8.1C759.6,2020.2,761.6,2018.6,761.6,2015.6z"/>
		<path d="M793.5,2020v7.8h-2.3v-5.6h-20.8v-23.8h2.5v21.6h14.4v-21.6h2.5v21.6H793.5z"/>
		<path d="M813.4,2011.9c0.8,1,1.2,2.2,1.2,3.6s-0.4,2.6-1.1,3.6s-1.8,1.8-3.2,2.4s-3,0.8-4.9,0.8c-2.9,0-5.1-0.6-6.7-1.8
			c-1.6-1.2-2.4-2.9-2.4-5c0-1.4,0.4-2.6,1.2-3.6s1.9-1.7,3.4-2.2c-1.2-0.5-2.2-1.2-2.8-2.1s-1-2-1-3.2c0-1.9,0.8-3.5,2.3-4.6
			s3.5-1.7,6.1-1.7c1.7,0,3.1,0.3,4.4,0.8c1.3,0.5,2.2,1.2,2.9,2.2s1.1,2.1,1.1,3.3c0,1.2-0.3,2.3-1,3.2c-0.7,0.9-1.6,1.6-2.8,2.1
			C811.4,2010.2,812.6,2010.9,813.4,2011.9z M810.3,2019c1.2-0.9,1.8-2,1.8-3.5s-0.6-2.6-1.8-3.5c-1.2-0.8-2.8-1.3-4.9-1.3
			c-2.1,0-3.7,0.4-4.9,1.3s-1.8,2-1.8,3.5s0.6,2.7,1.8,3.5s2.8,1.3,4.9,1.3S809.1,2019.9,810.3,2019z M801,2007.6
			c1,0.8,2.5,1.2,4.3,1.2s3.3-0.4,4.3-1.2s1.6-1.8,1.6-3.1c0-1.3-0.5-2.4-1.6-3.2c-1.1-0.8-2.5-1.2-4.3-1.2s-3.2,0.4-4.3,1.2
			c-1.1,0.8-1.6,1.8-1.6,3.1C799.4,2005.8,800,2006.9,801,2007.6z"/>
	</g>
	<g>
		<path d="M356.9,2248.8c0.9,1,1.3,2.3,1.3,3.9c0,2.1-0.7,3.6-2.2,4.8c-1.5,1.1-3.6,1.7-6.4,1.7H339v-23.8h9.9c2.5,0,4.5,0.5,6,1.6
			c1.4,1,2.1,2.6,2.1,4.5c0,1.3-0.3,2.5-1,3.4c-0.7,0.9-1.6,1.6-2.9,2.1C354.8,2247.1,356,2247.8,356.9,2248.8z M341.5,2246h7.3
			c1.8,0,3.2-0.4,4.2-1.1s1.5-1.8,1.5-3.3s-0.5-2.5-1.5-3.3s-2.4-1.1-4.2-1.1h-7.3V2246z M355.7,2252.4c0-3-2.1-4.5-6.2-4.5h-8.1
			v9.1h8.1C353.7,2257,355.7,2255.5,355.7,2252.4z"/>
		<path d="M387.6,2256.9v7.8h-2.3v-5.6h-20.8v-23.8h2.5v21.6h14.4v-21.6h2.5v21.6H387.6z"/>
		<path d="M405,2238.1c1.7,2.1,2.5,5,2.5,8.8c0,2.7-0.5,4.9-1.4,6.7s-2.2,3.2-3.8,4.2s-3.5,1.4-5.7,1.4c-2.4,0-4.2-0.4-5.6-1.3l1-2
			c1.1,0.7,2.7,1.1,4.6,1.1c2.6,0,4.7-0.8,6.2-2.5s2.2-4.1,2.2-7.3c0-0.6,0-1.2-0.1-1.9c-0.6,1.3-1.5,2.3-2.8,3s-2.8,1.1-4.5,1.1
			c-1.6,0-3-0.3-4.2-0.9c-1.2-0.6-2.2-1.4-2.8-2.5c-0.7-1.1-1-2.3-1-3.8s0.4-2.7,1.1-3.8c0.7-1.1,1.7-2,2.9-2.6
			c1.2-0.6,2.6-0.9,4.2-0.9C400.9,2235,403.3,2236.1,405,2238.1z M401.2,2246.7c0.9-0.5,1.6-1.1,2.2-1.9c0.5-0.8,0.8-1.7,0.8-2.7
			c0-0.9-0.2-1.7-0.7-2.5s-1.2-1.4-2.2-1.9s-2.1-0.7-3.4-0.7c-1.7,0-3.1,0.5-4.2,1.4c-1.1,0.9-1.6,2.2-1.6,3.8
			c0,1.6,0.5,2.8,1.6,3.7s2.5,1.4,4.4,1.4C399.2,2247.4,400.3,2247.2,401.2,2246.7z"/>
	</g>
	<g>
		<path d="M549.5,2248.8c0.9,1,1.3,2.3,1.3,3.9c0,2.1-0.7,3.6-2.2,4.8c-1.5,1.1-3.6,1.7-6.4,1.7h-10.5v-23.8h9.9
			c2.5,0,4.5,0.5,6,1.6c1.4,1,2.1,2.6,2.1,4.5c0,1.3-0.3,2.5-1,3.4c-0.7,0.9-1.6,1.6-2.9,2.1
			C547.3,2247.1,548.6,2247.8,549.5,2248.8z M534.1,2246h7.3c1.8,0,3.2-0.4,4.2-1.1s1.5-1.8,1.5-3.3s-0.5-2.5-1.5-3.3
			s-2.4-1.1-4.2-1.1h-7.3V2246z M548.3,2252.4c0-3-2.1-4.5-6.2-4.5H534v9.1h8.1C546.2,2257,548.3,2255.5,548.3,2252.4z"/>
		<path d="M580.2,2256.9v7.8h-2.3v-5.6H557v-23.8h2.5v21.6h14.4v-21.6h2.5v21.6H580.2z"/>
		<path d="M589.5,2235.2v23.8h-2.4v-21.6h-5.6v-2.2L589.5,2235.2L589.5,2235.2z"/>
		<path d="M599.8,2257.8c-1.4-1-2.6-2.4-3.4-4.2c-0.8-1.8-1.2-4-1.2-6.4c0-2.5,0.4-4.6,1.2-6.4s1.9-3.2,3.4-4.2s3.1-1.5,4.9-1.5
			s3.5,0.5,4.9,1.5s2.6,2.4,3.4,4.2c0.8,1.8,1.2,4,1.2,6.4c0,2.5-0.4,4.6-1.2,6.4s-1.9,3.2-3.4,4.2c-1.4,1-3.1,1.5-4.9,1.5
			S601.2,2258.8,599.8,2257.8z M608.3,2255.8c1.1-0.8,1.9-1.9,2.5-3.4s0.9-3.3,0.9-5.3c0-2.1-0.3-3.9-0.9-5.3
			c-0.6-1.5-1.4-2.6-2.5-3.4s-2.3-1.2-3.7-1.2s-2.6,0.4-3.7,1.2c-1.1,0.8-1.9,1.9-2.5,3.4s-0.9,3.3-0.9,5.3c0,2.1,0.3,3.9,0.9,5.3
			c0.6,1.4,1.4,2.6,2.5,3.4s2.3,1.2,3.7,1.2C606.1,2257,607.3,2256.6,608.3,2255.8z"/>
	</g>
	<g>
		<path d="M336.1,1721.6c-0.3-0.3-0.4-0.6-0.4-1.1c0-0.4,0.1-0.8,0.4-1c0.3-0.3,0.6-0.4,1-0.4s0.7,0.1,1,0.4s0.4,0.6,0.4,1
			s-0.1,0.8-0.4,1c-0.3,0.3-0.6,0.4-1,0.4C336.7,1722,336.4,1721.9,336.1,1721.6z M338.9,1724.8h2.5v23.8h-2.5V1724.8z
			 M342.1,1721.6c-0.3-0.3-0.4-0.6-0.4-1s0.1-0.8,0.4-1c0.3-0.3,0.6-0.4,1-0.4s0.8,0.1,1,0.4c0.3,0.3,0.4,0.6,0.4,1
			s-0.1,0.8-0.4,1.1c-0.3,0.3-0.6,0.4-1,0.4C342.8,1722,342.4,1721.9,342.1,1721.6z"/>
		<path d="M366.1,1746.5v6.4h-2.3v-4.3h-16v4.3h-2.3v-6.4h1c1.2-0.1,2-1,2.4-2.7s0.7-4.1,0.9-7.1l0.2-6h13.2v15.8L366.1,1746.5
			L366.1,1746.5z M351.5,1743.1c-0.3,1.6-0.9,2.8-1.7,3.4H361v-13.6h-8.6l-0.2,4C352,1739.3,351.8,1741.4,351.5,1743.1z"/>
		<path d="M382.4,1732.3c1.2,1.2,1.9,2.9,1.9,5.2v11.1H382v-2.8c-0.5,0.9-1.3,1.7-2.4,2.2s-2.3,0.8-3.8,0.8c-2,0-3.6-0.5-4.8-1.4
			c-1.2-1-1.8-2.2-1.8-3.8c0-1.5,0.5-2.7,1.6-3.7c1.1-0.9,2.9-1.4,5.3-1.4h5.7v-1.1c0-1.5-0.4-2.7-1.3-3.5s-2.1-1.2-3.8-1.2
			c-1.1,0-2.2,0.2-3.3,0.6c-1,0.4-1.9,0.9-2.7,1.5l-1.1-1.8c0.9-0.8,2-1.4,3.3-1.8s2.6-0.6,4-0.6
			C379.3,1730.5,381.1,1731.1,382.4,1732.3z M379.6,1745.9c1-0.6,1.7-1.5,2.2-2.7v-2.9h-5.6c-3.1,0-4.6,1.1-4.6,3.2
			c0,1,0.4,1.9,1.2,2.5s1.9,0.9,3.3,0.9C377.5,1746.8,378.7,1746.5,379.6,1745.9z"/>
		<path d="M405.3,1730.7v17.9h-2.4v-15.7h-8.6l-0.2,4.4c-0.2,3.7-0.6,6.6-1.3,8.6c-0.7,2-1.9,3-3.6,3c-0.5,0-1.1-0.1-1.7-0.3
			l0.2-2.1c0.4,0.1,0.7,0.1,0.9,0.1c0.9,0,1.6-0.4,2.1-1.3s0.8-1.9,1-3.2c0.2-1.3,0.3-2.9,0.4-5l0.3-6.4H405.3z"/>
		<path d="M424.9,1738.5c1.2,1,1.8,2.4,1.8,4.2c0,1.9-0.6,3.4-1.9,4.4s-3.1,1.5-5.5,1.5h-7.2v-17.9h2.4v6.3l5.3,0.1
			C422.1,1737,423.8,1737.5,424.9,1738.5z M423,1745.8c0.8-0.7,1.3-1.7,1.3-3s-0.4-2.3-1.3-2.9c-0.8-0.6-2.1-1-3.8-1l-4.7-0.1v8
			l4.7,0.1C420.9,1746.8,422.1,1746.4,423,1745.8z"/>
		<path d="M431.3,1730.7h2.4v7.9H445v-7.9h2.4v17.9H445v-7.9h-11.3v7.9h-2.4L431.3,1730.7L431.3,1730.7z"/>
		<path d="M468,1730.7v17.9h-2.2v-5.9h-5.6h-0.7l-4.1,5.9h-2.6l4.5-6.3c-1.4-0.4-2.4-1-3.2-2s-1.1-2.1-1.1-3.5c0-2,0.7-3.5,2-4.6
			c1.4-1,3.2-1.6,5.6-1.6L468,1730.7L468,1730.7z M460.4,1740.8h5.4v-8h-5.2c-3.5,0-5.2,1.3-5.2,4
			C455.3,1739.5,457,1740.8,460.4,1740.8z"/>
	</g>
	<g>
		<path d="M336.1,1552.5c-0.3-0.3-0.4-0.6-0.4-1.1c0-0.4,0.1-0.8,0.4-1c0.3-0.3,0.6-0.4,1-0.4s0.7,0.1,1,0.4s0.4,0.6,0.4,1
			s-0.1,0.8-0.4,1c-0.3,0.3-0.6,0.4-1,0.4C336.7,1552.9,336.4,1552.7,336.1,1552.5z M338.9,1555.6h2.5v23.8h-2.5V1555.6z
			 M342.1,1552.5c-0.3-0.3-0.4-0.6-0.4-1s0.1-0.8,0.4-1c0.3-0.3,0.6-0.4,1-0.4s0.8,0.1,1,0.4c0.3,0.3,0.4,0.6,0.4,1
			s-0.1,0.8-0.4,1.1c-0.3,0.3-0.6,0.4-1,0.4C342.8,1552.9,342.4,1552.7,342.1,1552.5z"/>
		<path d="M366.1,1577.3v6.4h-2.3v-4.3h-16v4.3h-2.3v-6.4h1c1.2-0.1,2-1,2.4-2.7s0.7-4.1,0.9-7.1l0.2-6h13.2v15.8L366.1,1577.3
			L366.1,1577.3z M351.5,1573.9c-0.3,1.6-0.9,2.8-1.7,3.4H361v-13.6h-8.6l-0.2,4C352,1570.2,351.8,1572.3,351.5,1573.9z"/>
		<path d="M382.4,1563.1c1.2,1.2,1.9,2.9,1.9,5.2v11.1H382v-2.8c-0.5,0.9-1.3,1.7-2.4,2.2s-2.3,0.8-3.8,0.8c-2,0-3.6-0.5-4.8-1.4
			c-1.2-1-1.8-2.2-1.8-3.8c0-1.5,0.5-2.7,1.6-3.7c1.1-0.9,2.9-1.4,5.3-1.4h5.7v-1.1c0-1.5-0.4-2.7-1.3-3.5s-2.1-1.2-3.8-1.2
			c-1.1,0-2.2,0.2-3.3,0.6c-1,0.4-1.9,0.9-2.7,1.5l-1.1-1.8c0.9-0.8,2-1.4,3.3-1.8s2.6-0.6,4-0.6
			C379.3,1561.4,381.1,1562,382.4,1563.1z M379.6,1576.7c1-0.6,1.7-1.5,2.2-2.7v-2.9h-5.6c-3.1,0-4.6,1.1-4.6,3.2
			c0,1,0.4,1.9,1.2,2.5s1.9,0.9,3.3,0.9S378.7,1577.4,379.6,1576.7z"/>
		<path d="M405.3,1561.5v17.9h-2.4v-15.7h-8.6l-0.2,4.4c-0.2,3.7-0.6,6.6-1.3,8.6c-0.7,2-1.9,3-3.6,3c-0.5,0-1.1-0.1-1.7-0.3
			l0.2-2.1c0.4,0.1,0.7,0.1,0.9,0.1c0.9,0,1.6-0.4,2.1-1.3s0.8-1.9,1-3.2c0.2-1.3,0.3-2.9,0.4-5l0.3-6.4H405.3z"/>
		<path d="M424.9,1569.3c1.2,1,1.8,2.4,1.8,4.2c0,1.9-0.6,3.4-1.9,4.4s-3.1,1.5-5.5,1.5h-7.2v-17.9h2.4v6.3l5.3,0.1
			C422.1,1567.9,423.8,1568.4,424.9,1569.3z M423,1576.6c0.8-0.7,1.3-1.7,1.3-3s-0.4-2.3-1.3-2.9c-0.8-0.6-2.1-1-3.8-1l-4.7-0.1v8
			l4.7,0.1C420.9,1577.6,422.1,1577.3,423,1576.6z"/>
		<path d="M431.3,1561.5h2.4v7.9H445v-7.9h2.4v17.9H445v-7.9h-11.3v7.9h-2.4L431.3,1561.5L431.3,1561.5z"/>
		<path d="M468,1561.5v17.9h-2.2v-5.9h-5.6h-0.7l-4.1,5.9h-2.6l4.5-6.3c-1.4-0.4-2.4-1-3.2-2s-1.1-2.1-1.1-3.5c0-2,0.7-3.5,2-4.6
			c1.4-1,3.2-1.6,5.6-1.6L468,1561.5L468,1561.5z M460.4,1571.7h5.4v-8h-5.2c-3.5,0-5.2,1.3-5.2,4
			C455.3,1570.4,457,1571.7,460.4,1571.7z"/>
	</g>
</g>
<g id="doors_1_">
	<g>
		<path class="st2" d="M2732.3,2107.8c-9.5,6.3-29.9,14.9-29.9,14.9s-4.9-5.9-4.5-14.9"/>
		<path class="st3" d="M2700.8,2121.2l31.7-15.7c0.8-0.4,1.8-0.1,2.2,0.7l0,0c0.4,0.8,0.1,1.8-0.7,2.2l-31.7,15.7
			c-0.8,0.4-1.8,0.1-2.2-0.7l0,0C2699.7,2122.6,2700,2121.6,2700.8,2121.2z"/>
	</g>
	<g>
		<path class="st2" d="M2487.5,2107.8c-9.5,6.3-29.9,14.9-29.9,14.9s-4.9-5.9-4.5-14.9"/>
		<path class="st3" d="M2456,2121.2l31.7-15.7c0.8-0.4,1.8-0.1,2.2,0.7l0,0c0.4,0.8,0.1,1.8-0.7,2.2l-31.7,15.7
			c-0.8,0.4-1.8,0.1-2.2-0.7l0,0C2454.9,2122.6,2455.2,2121.6,2456,2121.2z"/>
	</g>
	<g>
		<path class="st2" d="M2155.6,2107.8c-9.5,6.3-29.9,14.9-29.9,14.9s-4.9-5.9-4.5-14.9"/>
		<path class="st3" d="M2124.1,2121.2l31.7-15.7c0.8-0.4,1.8-0.1,2.2,0.7l0,0c0.4,0.8,0.1,1.8-0.7,2.2l-31.7,15.7
			c-0.8,0.4-1.8,0.1-2.2-0.7l0,0C2123,2122.6,2123.3,2121.6,2124.1,2121.2z"/>
	</g>
	<g>
		<path class="st2" d="M1990.7,2107.8c-9.5,6.3-29.9,14.9-29.9,14.9s-4.9-5.9-4.5-14.9"/>
		<path class="st3" d="M1959.2,2121.2l31.7-15.7c0.8-0.4,1.8-0.1,2.2,0.7l0,0c0.4,0.8,0.1,1.8-0.7,2.2l-31.7,15.7
			c-0.8,0.4-1.8,0.1-2.2-0.7l0,0C1958.1,2122.6,1958.4,2121.6,1959.2,2121.2z"/>
	</g>
	<g>
		<path class="st2" d="M1784.7,2079.9c-9.5,6.3-29.9,14.9-29.9,14.9s-4.9-5.9-4.5-14.9"/>
		<path class="st3" d="M1753.2,2093.4l31.7-15.7c0.8-0.4,1.8-0.1,2.2,0.7l0,0c0.4,0.8,0.1,1.8-0.7,2.2l-31.7,15.7
			c-0.8,0.4-1.8,0.1-2.2-0.7l0,0C1752.1,2094.7,1752.4,2093.8,1753.2,2093.4z"/>
	</g>
	<g>
		<path class="st2" d="M1628.2,2079.9c-9.5,6.3-29.9,14.9-29.9,14.9s-4.9-5.9-4.5-14.9"/>
		<path class="st3" d="M1596.8,2093.4l31.7-15.7c0.8-0.4,1.8-0.1,2.2,0.7l0,0c0.4,0.8,0.1,1.8-0.7,2.2l-31.7,15.7
			c-0.8,0.4-1.8,0.1-2.2-0.7l0,0C1595.6,2094.7,1596,2093.8,1596.8,2093.4z"/>
	</g>
	<g>
		<path class="st2" d="M1383.4,2079.9c-9.5,6.3-29.9,14.9-29.9,14.9s-4.9-5.9-4.5-14.9"/>
		<path class="st3" d="M1352,2093.4l31.7-15.7c0.8-0.4,1.8-0.1,2.2,0.7l0,0c0.4,0.8,0.1,1.8-0.7,2.2l-31.7,15.7
			c-0.8,0.4-1.8,0.1-2.2-0.7l0,0C1350.8,2094.7,1351.2,2093.8,1352,2093.4z"/>
	</g>
	<g>
		<path class="st2" d="M1174.5,2079.9c9.5,6.3,29.9,14.9,29.9,14.9s4.9-5.9,4.5-14.9"/>
		<path class="st3" d="M1206,2093.4l-31.7-15.7c-0.8-0.4-1.8-0.1-2.2,0.7l0,0c-0.4,0.8-0.1,1.8,0.7,2.2l31.7,15.7
			c0.8,0.4,1.8,0.1,2.2-0.7l0,0C1207.1,2094.7,1206.8,2093.8,1206,2093.4z"/>
	</g>
	<g>
		<path class="st2" d="M1083.4,2079.9c-9.5,6.3-29.9,14.9-29.9,14.9s-4.9-5.9-4.5-14.9"/>
		<path class="st3" d="M1052,2093.4l31.7-15.7c0.8-0.4,1.8-0.1,2.2,0.7l0,0c0.4,0.8,0.1,1.8-0.7,2.2l-31.7,15.7
			c-0.8,0.4-1.8,0.1-2.2-0.7l0,0C1050.8,2094.7,1051.2,2093.8,1052,2093.4z"/>
	</g>
	<g>
		<path class="st2" d="M707.6,2079.9c-9.5,6.3-29.9,14.9-29.9,14.9s-4.9-5.9-4.5-14.9"/>
		<path class="st3" d="M676.1,2093.4l31.7-15.7c0.8-0.4,1.8-0.1,2.2,0.7l0,0c0.4,0.8,0.1,1.8-0.7,2.2l-31.7,15.7
			c-0.8,0.4-1.8,0.1-2.2-0.7l0,0C675,2094.7,675.3,2093.8,676.1,2093.4z"/>
	</g>
	<g>
		<path class="st2" d="M571.9,2079.9c-9.5,6.3-29.9,14.9-29.9,14.9s-4.9-5.9-4.5-14.9"/>
		<path class="st3" d="M540.5,2093.4l31.7-15.7c0.8-0.4,1.8-0.1,2.2,0.7l0,0c0.4,0.8,0.1,1.8-0.7,2.2l-31.7,15.7
			c-0.8,0.4-1.8,0.1-2.2-0.7l0,0C539.3,2094.7,539.7,2093.8,540.5,2093.4z"/>
	</g>
	<g>
		<path class="st2" d="M473.3,2079.9c-9.5,6.3-29.9,14.9-29.9,14.9s-4.9-5.9-4.5-14.9"/>
		<path class="st3" d="M441.8,2093.4l31.7-15.7c0.8-0.4,1.8-0.1,2.2,0.7l0,0c0.4,0.8,0.1,1.8-0.7,2.2l-31.7,15.7
			c-0.8,0.4-1.8,0.1-2.2-0.7l0,0C440.7,2094.7,441,2093.8,441.8,2093.4z"/>
	</g>
	<g>
		<path class="st2" d="M532.3,911.8c-6.3,9.5-14.9,29.9-14.9,29.9s5.9,4.9,14.9,4.5"/>
		<path class="st3" d="M518.8,943.3l15.7-31.7c0.4-0.8,0.1-1.8-0.7-2.2l0,0c-0.8-0.4-1.8-0.1-2.2,0.7l-15.7,31.7
			c-0.4,0.8-0.1,1.8,0.7,2.2l0,0C517.4,944.4,518.4,944.1,518.8,943.3z"/>
	</g>
	<g>
		<path class="st2" d="M528.1,636.8c-6.3-9.5-14.9-29.9-14.9-29.9s5.9-4.9,14.9-4.5"/>
		<path class="st3" d="M514.6,605.3l15.7,31.7c0.4,0.8,0.1,1.8-0.7,2.2l0,0c-0.8,0.4-1.8,0.1-2.2-0.7l-15.7-31.7
			c-0.4-0.8-0.1-1.8,0.7-2.2l0,0C513.3,604.1,514.2,604.5,514.6,605.3z"/>
	</g>
	<g>
		<path class="st2" d="M436.7,2146.5c9.5-6.3,29.9-14.9,29.9-14.9s4.9,5.9,4.5,14.9"/>
		<path class="st3" d="M468.2,2133.1l-31.7,15.7c-0.8,0.4-1.8,0.1-2.2-0.7l0,0c-0.4-0.8-0.1-1.8,0.7-2.2l31.7-15.7
			c0.8-0.4,1.8-0.1,2.2,0.7l0,0C469.3,2131.7,469,2132.7,468.2,2133.1z"/>
	</g>
	<g>
		<path class="st2" d="M570.7,2146.5c-9.5-6.3-29.9-14.9-29.9-14.9s-4.9,5.9-4.5,14.9"/>
		<path class="st3" d="M539.2,2133.1l31.7,15.7c0.8,0.4,1.8,0.1,2.2-0.7l0,0c0.4-0.8,0.1-1.8-0.7-2.2l-31.7-15.7
			c-0.8-0.4-1.8-0.1-2.2,0.7l0,0C538.1,2131.7,538.4,2132.7,539.2,2133.1z"/>
	</g>
	<g>
		<path class="st2" d="M708.6,2146.5c-9.5-6.3-29.9-14.9-29.9-14.9s-4.9,5.9-4.5,14.9"/>
		<path class="st3" d="M677.1,2133.1l31.7,15.7c0.8,0.4,1.8,0.1,2.2-0.7l0,0c0.4-0.8,0.1-1.8-0.7-2.2l-31.7-15.7
			c-0.8-0.4-1.8-0.1-2.2,0.7l0,0C676,2131.7,676.3,2132.7,677.1,2133.1z"/>
	</g>
	<g>
		<path class="st2" d="M775.3,2146.5c-9.5-6.3-29.9-14.9-29.9-14.9s-4.9,5.9-4.5,14.9"/>
		<path class="st3" d="M743.8,2133.1l31.7,15.7c0.8,0.4,1.8,0.1,2.2-0.7l0,0c0.4-0.8,0.1-1.8-0.7-2.2l-31.7-15.7
			c-0.8-0.4-1.8-0.1-2.2,0.7l0,0C742.7,2131.7,743,2132.7,743.8,2133.1z"/>
	</g>
	<g>
		<path class="st2" d="M834.2,2146.5c9.5-6.3,29.9-14.9,29.9-14.9s4.9,5.9,4.5,14.9"/>
		<path class="st3" d="M865.7,2133.1l-31.7,15.7c-0.8,0.4-1.8,0.1-2.2-0.7l0,0c-0.4-0.8-0.1-1.8,0.7-2.2l31.7-15.7
			c0.8-0.4,1.8-0.1,2.2,0.7l0,0C866.8,2131.7,866.5,2132.7,865.7,2133.1z"/>
	</g>
	<g>
		<path class="st2" d="M1049.1,2146.5c9.5-6.3,29.9-14.9,29.9-14.9s4.9,5.9,4.5,14.9"/>
		<path class="st3" d="M1080.5,2133.1l-31.7,15.7c-0.8,0.4-1.8,0.1-2.2-0.7l0,0c-0.4-0.8-0.1-1.8,0.7-2.2l31.7-15.7
			c0.8-0.4,1.8-0.1,2.2,0.7l0,0C1081.7,2131.7,1081.3,2132.7,1080.5,2133.1z"/>
	</g>
	<g>
		<path class="st2" d="M1122.5,2146.5c9.5-6.3,29.9-14.9,29.9-14.9s4.9,5.9,4.5,14.9"/>
		<path class="st3" d="M1154,2133.1l-31.7,15.7c-0.8,0.4-1.8,0.1-2.2-0.7l0,0c-0.4-0.8-0.1-1.8,0.7-2.2l31.7-15.7
			c0.8-0.4,1.8-0.1,2.2,0.7l0,0C1155.1,2131.7,1154.8,2132.7,1154,2133.1z"/>
	</g>
	<g>
		<path class="st2" d="M1360.1,2146.5c9.5-6.3,29.9-14.9,29.9-14.9s4.9,5.9,4.5,14.9"/>
		<path class="st3" d="M1391.6,2133.1l-31.7,15.7c-0.8,0.4-1.8,0.1-2.2-0.7l0,0c-0.4-0.8-0.1-1.8,0.7-2.2l31.7-15.7
			c0.8-0.4,1.8-0.1,2.2,0.7l0,0C1392.7,2131.7,1392.4,2132.7,1391.6,2133.1z"/>
	</g>
	<g>
		<path class="st2" d="M1570.8,2146.5c9.5-6.3,29.9-14.9,29.9-14.9s4.9,5.9,4.5,14.9"/>
		<path class="st3" d="M1602.3,2133.1l-31.7,15.7c-0.8,0.4-1.8,0.1-2.2-0.7l0,0c-0.4-0.8-0.1-1.8,0.7-2.2l31.7-15.7
			c0.8-0.4,1.8-0.1,2.2,0.7l0,0C1603.4,2131.7,1603.1,2132.7,1602.3,2133.1z"/>
	</g>
	<g>
		<path class="st2" d="M1854.3,2146.5c9.5-6.3,29.9-14.9,29.9-14.9s4.9,5.9,4.5,14.9"/>
		<path class="st3" d="M1885.8,2133.1l-31.7,15.7c-0.8,0.4-1.8,0.1-2.2-0.7l0,0c-0.4-0.8-0.1-1.8,0.7-2.2l31.7-15.7
			c0.8-0.4,1.8-0.1,2.2,0.7l0,0C1886.9,2131.7,1886.6,2132.7,1885.8,2133.1z"/>
	</g>
	<g>
		<path class="st2" d="M1961.4,2202.8c9.5-6.3,29.9-14.9,29.9-14.9s4.9,5.9,4.5,14.9"/>
		<path class="st3" d="M1992.9,2189.3l-31.7,15.7c-0.8,0.4-1.8,0.1-2.2-0.7l0,0c-0.4-0.8-0.1-1.8,0.7-2.2l31.7-15.7
			c0.8-0.4,1.8-0.1,2.2,0.7l0,0C1994,2188,1993.7,2188.9,1992.9,2189.3z"/>
	</g>
	<g>
		<path class="st2" d="M2136.1,2202.8c9.5-6.3,29.9-14.9,29.9-14.9s4.9,5.9,4.5,14.9"/>
		<path class="st3" d="M2167.6,2189.3l-31.7,15.7c-0.8,0.4-1.8,0.1-2.2-0.7l0,0c-0.4-0.8-0.1-1.8,0.7-2.2l31.7-15.7
			c0.8-0.4,1.8-0.1,2.2,0.7l0,0C2168.7,2188,2168.4,2188.9,2167.6,2189.3z"/>
	</g>
	<g>
		<path class="st2" d="M2335.2,2202.4c-9.7-6.1-30.2-14.2-30.2-14.2s-4.7,6.1-4.1,15"/>
		<path class="st3" d="M2303.4,2189.7l32.1,14.9c0.8,0.4,1.8,0,2.2-0.8l0,0c0.4-0.8,0-1.8-0.8-2.2l-32.1-14.9
			c-0.8-0.4-1.8,0-2.2,0.8l0,0C2302.2,2188.4,2302.6,2189.3,2303.4,2189.7z"/>
	</g>
	<g>
		<path class="st2" d="M2561.7,2202.4c-9.7-6.1-30.2-14.2-30.2-14.2s-4.7,6.1-4.1,15"/>
		<path class="st3" d="M2529.9,2189.7l32.1,14.9c0.8,0.4,1.8,0,2.2-0.8l0,0c0.4-0.8,0-1.8-0.8-2.2l-32.1-14.9
			c-0.8-0.4-1.8,0-2.2,0.8l0,0C2528.8,2188.4,2529.1,2189.3,2529.9,2189.7z"/>
	</g>
	<g>
		<path class="st2" d="M2699.2,2202.8c9.5-6.3,29.9-14.9,29.9-14.9s4.9,5.9,4.5,14.9"/>
		<path class="st3" d="M2730.7,2189.3L2699,2205c-0.8,0.4-1.8,0.1-2.2-0.7l0,0c-0.4-0.8-0.1-1.8,0.7-2.2l31.7-15.7
			c0.8-0.4,1.8-0.1,2.2,0.7l0,0C2731.8,2188,2731.5,2188.9,2730.7,2189.3z"/>
	</g>
	<g>
		<path class="st2" d="M211.2,89.5c6.3,9.5,14.9,29.9,14.9,29.9s-5.9,4.9-14.9,4.5"/>
		<path class="st3" d="M224.7,121L209,89.3c-0.4-0.8-0.1-1.8,0.7-2.2l0,0c0.8-0.4,1.8-0.1,2.2,0.7l15.7,31.7
			c0.4,0.8,0.1,1.8-0.7,2.2l0,0C226,122.2,225.1,121.8,224.7,121z"/>
	</g>
</g>
<g id="schema_1_">
	<polyline class="st4" points="444,589.7 253,589.7 253,991.5 712.6,991.5 712.6,660.3 712.6,589.7 532.9,589.7 495.5,589.7 	"/>
	<polyline class="st4" points="1844.5,1852.5 1797.5,1852.5 1797.5,1899.3 1266.5,1899.3 1266.5,1953.3 1105.7,1953.3 1105.7,1899 
		653.5,1899 653.5,1177.5 692.4,1177.5 692.4,1150.5 	"/>
	<polyline class="st4" points="691.5,1107.5 691.5,1082.9 253,1081.5 253,2325.7 2799.8,2325.7 2799.5,1965.5 1948.3,1965.7 
		1948.3,1852.5 1900.5,1852.5 	"/>
	<polyline class="st4" points="1948.3,1965.7 1948.3,2103.3 2634.2,2103.3 2799.8,2103.3 	"/>
	<line class="st4" x1="2633.9" y1="1965.7" x2="2633.9" y2="2103.3"/>
	<line class="st4" x1="2348.8" y1="1965.7" x2="2348.8" y2="2103.3"/>
	<line class="st4" x1="2109.2" y1="1965.7" x2="2109.2" y2="2103.3"/>
	<polyline class="st4" points="1797.5,1899.3 1797.5,2075.4 253,2075.4 	"/>
	<line class="st4" x1="1669.8" y1="1899.3" x2="1669.8" y2="2075.4"/>
	<line class="st4" x1="1568.3" y1="1899.3" x2="1568.3" y2="2075.4"/>
	<line class="st4" x1="1266.5" y1="1953.3" x2="1266.5" y2="2075.4"/>
	<line class="st4" x1="1105.7" y1="1953.3" x2="1105.7" y2="2075.4"/>
	<line class="st4" x1="888.6" y1="1899" x2="888.6" y2="2075.4"/>
	<polyline class="st4" points="653.5,2075.4 653.5,1899 495.5,1899 495.5,2075.4 	"/>
	<polyline class="st4" points="253,1899.3 417,1899.3 417,2075.4 	"/>
	<polyline class="st4" points="253,2151 1948.3,2151 1948.3,2228.1 	"/>
	<line class="st4" x1="1948.3" y1="2269.8" x2="1948.3" y2="2325.7"/>
	<line class="st4" x1="1948.3" y1="2207.2" x2="2799.8" y2="2207.2"/>
	<line class="st4" x1="2633.9" y1="2212.2" x2="2633.9" y2="2325.7"/>
	<line class="st4" x1="2348.8" y1="2207.2" x2="2348.8" y2="2325.7"/>
	<line class="st4" x1="2179.8" y1="2207.2" x2="2179.8" y2="2325.7"/>
	<line class="st4" x1="2104" y1="2207.2" x2="2104" y2="2325.7"/>
	<line class="st4" x1="2036.3" y1="2259" x2="2036.3" y2="2325.7"/>
	<polyline class="st4" points="1792.2,2151 1792.2,2214.4 1792.2,2325.7 	"/>
	<line class="st4" x1="1948.3" y1="2214.4" x2="1792.2" y2="2214.4"/>
	<line class="st4" x1="1559.6" y1="2151" x2="1559.6" y2="2325.7"/>
	<line class="st4" x1="1337.9" y1="2151" x2="1337.9" y2="2325.7"/>
	<line class="st4" x1="1105.7" y1="2151" x2="1105.7" y2="2325.7"/>
	<line class="st4" x1="1028.3" y1="2151" x2="1028.3" y2="2325.7"/>
	<line class="st4" x1="807.2" y1="2151" x2="807.2" y2="2325.7"/>
	<line class="st4" x1="728" y1="2151" x2="728" y2="2179.1"/>
	<line class="st4" x1="728" y1="2210.8" x2="728" y2="2325.7"/>
	<line class="st4" x1="648.8" y1="2151" x2="648.8" y2="2325.7"/>
	<polyline class="st4" points="489.4,2325.7 489.4,2151 489.4,2137.8 	"/>
	<line class="st4" x1="495.5" y1="1899" x2="495.5" y2="1857.3"/>
	<line class="st4" x1="417" y1="1899.3" x2="417" y2="1857.3"/>
	<polyline class="st4" points="495.5,1797.5 495.5,1748.6 653.5,1748.6 	"/>
	<polyline class="st4" points="253,1434.2 490.2,1434.2 490.2,1337.4 	"/>
	<polyline class="st4" points="490.2,1304.3 490.2,1265.4 653.5,1265.4 	"/>
	<line class="st4" x1="653.5" y1="1177.5" x2="492.6" y2="1177.5"/>
	<line class="st4" x1="492.6" y1="1082.3" x2="492.6" y2="1135.1"/>
	<polyline class="st4" points="376,1082.3 376,1145.2 420.6,1145.2 	"/>
	<polyline class="st4" points="253,1177.5 376,1177.5 376,1193.4 420.6,1193.4 420.6,1269 	"/>
	<polyline class="st4" points="376,1223.3 376,1265.4 253,1265.4 	"/>
	<polyline class="st4" points="253,1343.2 376,1343.2 376,1308.6 	"/>
	<polyline class="st4" points="426.4,1308.6 426.4,1393.6 486.8,1393.6 	"/>
	<line class="st4" x1="456.6" y1="1082.3" x2="456.6" y2="1118.6"/>
	<rect x="414.1" y="1520.3" class="st5" width="11.2" height="16.6"/>
	<rect x="490.1" y="1520.3" class="st5" width="11.2" height="16.6"/>
	<rect x="414.1" y="1604.6" class="st5" width="11.2" height="16.6"/>
	<rect x="490.1" y="1604.6" class="st5" width="11.2" height="16.6"/>
	<rect x="414.1" y="1687" class="st5" width="11.2" height="16.6"/>
	<rect x="490.1" y="1687" class="st5" width="11.2" height="16.6"/>
	<rect x="414.1" y="1781" class="st5" width="11.2" height="16.6"/>
	<rect x="490.1" y="1781" class="st5" width="11.2" height="16.6"/>
	<rect x="414.1" y="1434.2" class="st5" width="11.2" height="16.6"/>
	<rect x="490.1" y="1434.2" class="st5" width="11.2" height="16.6"/>
	<polyline class="st4" points="712.6,660.6 532.6,660.6 532.6,589.7 	"/>
	<polyline class="st4" points="712.6,881.7 536.8,881.7 536.8,991.5 	"/>
	<rect x="440.5" y="729" class="st4" width="7" height="7"/>
	<rect x="440.5" y="819.7" class="st4" width="7" height="7"/>
	<polyline class="st4" points="489.4,2075.4 489.4,2078.3 489.4,2092.7 	"/>
	<polyline class="st4" points="677.1,589.7 712.7,589.7 712.7,21.1 26.6,21.1 26.6,489.8 26.6,589.7 294.8,589.7 350.6,589.7 	"/>
	<polyline class="st4" points="30.9,132.9 206.7,132.9 206.7,23.2 	"/>
	<line class="st4" x1="253.4" y1="570.4" x2="253.4" y2="589.2"/>
	<polyline class="st4" points="31.1,490.4 253.4,490.4 253.4,504.2 	"/>
</g>
<g id="turnstile">
	<rect x="166.7" y="360.3" class="st5" width="38" height="38"/>
	<g>
		<rect x="118.5" y="195.8" class="st5" width="39.6" height="2.9"/>
		<rect x="118.5" y="345.6" class="st5" width="39.6" height="2.9"/>
		<line class="st6" x1="138.3" y1="197.2" x2="119.2" y2="220.8"/>
		<line class="st6" x1="137.4" y1="197.6" x2="156.5" y2="221.1"/>
	</g>
	<g>
		<rect x="118.5" y="232.6" class="st5" width="39.6" height="2.9"/>
		<line class="st6" x1="138.3" y1="234.1" x2="119.2" y2="257.6"/>
		<line class="st6" x1="137.4" y1="234.4" x2="156.5" y2="258"/>
	</g>
	<g>
		<rect x="118.5" y="270" class="st5" width="39.6" height="2.9"/>
		<line class="st6" x1="138.3" y1="271.4" x2="119.2" y2="294.9"/>
		<line class="st6" x1="137.4" y1="271.8" x2="156.5" y2="295.3"/>
	</g>
	<g>
		<rect x="118.5" y="309.2" class="st5" width="39.6" height="2.9"/>
		<line class="st6" x1="138.3" y1="310.6" x2="119.2" y2="334.2"/>
		<line class="st6" x1="137.4" y1="311" x2="156.5" y2="334.5"/>
	</g>
	<line class="st7" x1="170.1" y1="401.2" x2="170.1" y2="488.6"/>
	<line class="st7" x1="151.1" y1="134.8" x2="151.1" y2="194.6"/>
</g>
</svg>
