<?xml version="1.0" encoding="utf-8"?>
<!-- Generator: Adobe Illustrator 25.0.1, SVG Export Plug-In . SVG Version: 6.00 Build 0)  -->
<svg version="1.1" id="floor_1" xmlns="http://www.w3.org/2000/svg" xmlns:xlink="http://www.w3.org/1999/xlink" x="0px" y="0px"
	 viewBox="0 0 3500 2550" style="enable-background:new 0 0 3500 2550;" xml:space="preserve">
<style type="text/css">
	.st0{fill:none;stroke:#0071BC;stroke-width:3;stroke-miterlimit:10;}
	.st1{fill:#1A1A1A;}
	.st2{opacity:0.5;fill:#C1272D;enable-background:new    ;}
	.st3{fill:#C1272D;}
	.st4{fill:none;stroke:#4D4D4D;stroke-width:9;stroke-miterlimit:10;}
	.st5{fill:#4D4D4D;stroke:#4D4D4D;stroke-width:9;stroke-miterlimit:10;}
</style>
<g id="stairs_1_">
	<g>
		<g>
			<line class="st0" x1="297.5" y1="1730.6" x2="297.5" y2="1761.1"/>
			<line class="st0" x1="305.1" y1="1730.6" x2="305.1" y2="1761.1"/>
			<line class="st0" x1="312.7" y1="1730.6" x2="312.7" y2="1761.1"/>
			<line class="st0" x1="320.4" y1="1730.6" x2="320.4" y2="1761.1"/>
			<line class="st0" x1="328" y1="1730.6" x2="328" y2="1761.1"/>
			<line class="st0" x1="335.6" y1="1730.6" x2="335.6" y2="1761.1"/>
			<line class="st0" x1="343.2" y1="1730.6" x2="343.2" y2="1761.1"/>
			<line class="st0" x1="350.8" y1="1730.6" x2="350.8" y2="1761.1"/>
			<line class="st0" x1="358.4" y1="1730.6" x2="358.4" y2="1761.1"/>
			<line class="st0" x1="366.1" y1="1730.6" x2="366.1" y2="1761.1"/>
			<line class="st0" x1="373.7" y1="1730.6" x2="373.7" y2="1761.1"/>
			<line class="st0" x1="381.3" y1="1730.6" x2="381.3" y2="1761.1"/>
			<line class="st0" x1="388.9" y1="1730.6" x2="388.9" y2="1761.1"/>
			<line class="st0" x1="396.5" y1="1730.6" x2="396.5" y2="1761.1"/>
		</g>
		<g>
			<line class="st0" x1="297.5" y1="1765.4" x2="297.5" y2="1795.9"/>
			<line class="st0" x1="305.1" y1="1765.4" x2="305.1" y2="1795.9"/>
			<line class="st0" x1="312.7" y1="1765.4" x2="312.7" y2="1795.9"/>
			<line class="st0" x1="320.4" y1="1765.4" x2="320.4" y2="1795.9"/>
			<line class="st0" x1="328" y1="1765.4" x2="328" y2="1795.9"/>
			<line class="st0" x1="335.6" y1="1765.4" x2="335.6" y2="1795.9"/>
			<line class="st0" x1="343.2" y1="1765.4" x2="343.2" y2="1795.9"/>
			<line class="st0" x1="350.8" y1="1765.4" x2="350.8" y2="1795.9"/>
			<line class="st0" x1="358.4" y1="1765.4" x2="358.4" y2="1795.9"/>
			<line class="st0" x1="366.1" y1="1765.4" x2="366.1" y2="1795.9"/>
			<line class="st0" x1="373.7" y1="1765.4" x2="373.7" y2="1795.9"/>
			<line class="st0" x1="381.3" y1="1765.4" x2="381.3" y2="1795.9"/>
			<line class="st0" x1="388.9" y1="1765.4" x2="388.9" y2="1795.9"/>
			<line class="st0" x1="396.5" y1="1765.4" x2="396.5" y2="1795.9"/>
		</g>
	</g>
	<g>
		<g>
			<line class="st0" x1="545" y1="745.8" x2="545" y2="776.3"/>
			<line class="st0" x1="552.6" y1="745.8" x2="552.6" y2="776.3"/>
			<line class="st0" x1="560.2" y1="745.8" x2="560.2" y2="776.3"/>
			<line class="st0" x1="567.8" y1="745.8" x2="567.8" y2="776.3"/>
			<line class="st0" x1="575.4" y1="745.8" x2="575.4" y2="776.3"/>
			<line class="st0" x1="583.1" y1="745.8" x2="583.1" y2="776.3"/>
			<line class="st0" x1="590.7" y1="745.8" x2="590.7" y2="776.3"/>
			<line class="st0" x1="598.3" y1="745.8" x2="598.3" y2="776.3"/>
			<line class="st0" x1="605.9" y1="745.8" x2="605.9" y2="776.3"/>
			<line class="st0" x1="613.5" y1="745.8" x2="613.5" y2="776.3"/>
			<line class="st0" x1="621.1" y1="745.8" x2="621.1" y2="776.3"/>
			<line class="st0" x1="628.7" y1="745.8" x2="628.7" y2="776.3"/>
			<line class="st0" x1="636.4" y1="745.8" x2="636.4" y2="776.3"/>
			<line class="st0" x1="644" y1="745.8" x2="644" y2="776.3"/>
		</g>
		<g>
			<line class="st0" x1="545" y1="780.6" x2="545" y2="811.1"/>
			<line class="st0" x1="552.6" y1="780.6" x2="552.6" y2="811.1"/>
			<line class="st0" x1="560.2" y1="780.6" x2="560.2" y2="811.1"/>
			<line class="st0" x1="567.8" y1="780.6" x2="567.8" y2="811.1"/>
			<line class="st0" x1="575.4" y1="780.6" x2="575.4" y2="811.1"/>
			<line class="st0" x1="583.1" y1="780.6" x2="583.1" y2="811.1"/>
			<line class="st0" x1="590.7" y1="780.6" x2="590.7" y2="811.1"/>
			<line class="st0" x1="598.3" y1="780.6" x2="598.3" y2="811.1"/>
			<line class="st0" x1="605.9" y1="780.6" x2="605.9" y2="811.1"/>
			<line class="st0" x1="613.5" y1="780.6" x2="613.5" y2="811.1"/>
			<line class="st0" x1="621.1" y1="780.6" x2="621.1" y2="811.1"/>
			<line class="st0" x1="628.7" y1="780.6" x2="628.7" y2="811.1"/>
			<line class="st0" x1="636.4" y1="780.6" x2="636.4" y2="811.1"/>
			<line class="st0" x1="644" y1="780.6" x2="644" y2="811.1"/>
		</g>
	</g>
	<g>
		<g>
			<line class="st0" x1="1936.2" y1="1622.5" x2="1892.8" y2="1622.5"/>
			<line class="st0" x1="1936.2" y1="1630.1" x2="1892.8" y2="1630.1"/>
			<line class="st0" x1="1936.2" y1="1637.7" x2="1892.8" y2="1637.7"/>
			<line class="st0" x1="1936.2" y1="1645.3" x2="1892.8" y2="1645.3"/>
			<line class="st0" x1="1936.2" y1="1653" x2="1892.8" y2="1653"/>
			<line class="st0" x1="1936.2" y1="1660.6" x2="1892.8" y2="1660.6"/>
			<line class="st0" x1="1936.2" y1="1668.2" x2="1892.8" y2="1668.2"/>
			<line class="st0" x1="1936.2" y1="1675.8" x2="1892.8" y2="1675.8"/>
			<line class="st0" x1="1936.2" y1="1683.4" x2="1892.8" y2="1683.4"/>
			<line class="st0" x1="1936.2" y1="1691" x2="1892.8" y2="1691"/>
			<line class="st0" x1="1936.2" y1="1698.7" x2="1892.8" y2="1698.7"/>
			<line class="st0" x1="1936.2" y1="1706.3" x2="1892.8" y2="1706.3"/>
			<line class="st0" x1="1936.2" y1="1713.9" x2="1892.8" y2="1713.9"/>
			<line class="st0" x1="1936.2" y1="1721.5" x2="1892.8" y2="1721.5"/>
		</g>
		<g>
			<line class="st0" x1="1856.4" y1="1622.5" x2="1810.3" y2="1622.5"/>
			<line class="st0" x1="1856.4" y1="1630.1" x2="1810.3" y2="1630.1"/>
			<line class="st0" x1="1856.4" y1="1637.7" x2="1810.3" y2="1637.7"/>
			<line class="st0" x1="1856.4" y1="1645.3" x2="1810.3" y2="1645.3"/>
			<line class="st0" x1="1856.4" y1="1653" x2="1810.3" y2="1653"/>
			<line class="st0" x1="1856.4" y1="1660.6" x2="1810.3" y2="1660.6"/>
			<line class="st0" x1="1856.4" y1="1668.2" x2="1810.3" y2="1668.2"/>
			<line class="st0" x1="1856.4" y1="1675.8" x2="1810.3" y2="1675.8"/>
			<line class="st0" x1="1856.4" y1="1683.4" x2="1810.3" y2="1683.4"/>
			<line class="st0" x1="1856.4" y1="1691" x2="1810.3" y2="1691"/>
			<line class="st0" x1="1856.4" y1="1698.7" x2="1810.3" y2="1698.7"/>
			<line class="st0" x1="1856.4" y1="1706.3" x2="1810.3" y2="1706.3"/>
			<line class="st0" x1="1856.4" y1="1713.9" x2="1810.3" y2="1713.9"/>
			<line class="st0" x1="1856.4" y1="1721.5" x2="1810.3" y2="1721.5"/>
		</g>
	</g>
	<g>
		<g>
			<line class="st0" x1="545.3" y1="329.7" x2="545.3" y2="373.8"/>
			<line class="st0" x1="552.9" y1="329.7" x2="552.9" y2="373.8"/>
			<line class="st0" x1="560.5" y1="329.7" x2="560.5" y2="373.8"/>
			<line class="st0" x1="568.1" y1="329.7" x2="568.1" y2="373.8"/>
			<line class="st0" x1="575.7" y1="329.7" x2="575.7" y2="373.8"/>
			<line class="st0" x1="583.4" y1="329.7" x2="583.4" y2="373.8"/>
			<line class="st0" x1="591" y1="329.7" x2="591" y2="373.8"/>
			<line class="st0" x1="598.6" y1="329.7" x2="598.6" y2="373.8"/>
			<line class="st0" x1="606.2" y1="329.7" x2="606.2" y2="373.8"/>
			<line class="st0" x1="613.8" y1="329.7" x2="613.8" y2="373.8"/>
			<line class="st0" x1="621.4" y1="329.7" x2="621.4" y2="373.8"/>
			<line class="st0" x1="629.1" y1="329.7" x2="629.1" y2="373.8"/>
			<line class="st0" x1="636.7" y1="329.7" x2="636.7" y2="373.8"/>
			<line class="st0" x1="644.3" y1="329.7" x2="644.3" y2="373.8"/>
		</g>
		<g>
			<line class="st0" x1="545.3" y1="464.1" x2="545.3" y2="508.2"/>
			<line class="st0" x1="552.9" y1="464.1" x2="552.9" y2="508.2"/>
			<line class="st0" x1="560.5" y1="464.1" x2="560.5" y2="508.2"/>
			<line class="st0" x1="568.1" y1="464.1" x2="568.1" y2="508.2"/>
			<line class="st0" x1="575.7" y1="464.1" x2="575.7" y2="508.2"/>
			<line class="st0" x1="583.4" y1="464.1" x2="583.4" y2="508.2"/>
			<line class="st0" x1="591" y1="464.1" x2="591" y2="508.2"/>
			<line class="st0" x1="598.6" y1="464.1" x2="598.6" y2="508.2"/>
			<line class="st0" x1="606.2" y1="464.1" x2="606.2" y2="508.2"/>
			<line class="st0" x1="613.8" y1="464.1" x2="613.8" y2="508.2"/>
			<line class="st0" x1="621.4" y1="464.1" x2="621.4" y2="508.2"/>
			<line class="st0" x1="629.1" y1="464.1" x2="629.1" y2="508.2"/>
			<line class="st0" x1="636.7" y1="464.1" x2="636.7" y2="508.2"/>
			<line class="st0" x1="644.3" y1="464.1" x2="644.3" y2="508.2"/>
		</g>
		<g>
			<line class="st0" x1="545.3" y1="386.9" x2="545.3" y2="451.1"/>
			<line class="st0" x1="552.9" y1="386.9" x2="552.9" y2="451.1"/>
			<line class="st0" x1="560.5" y1="386.9" x2="560.5" y2="451.1"/>
			<line class="st0" x1="568.1" y1="386.9" x2="568.1" y2="451.1"/>
			<line class="st0" x1="575.7" y1="386.9" x2="575.7" y2="451.1"/>
			<line class="st0" x1="583.4" y1="386.9" x2="583.4" y2="451.1"/>
			<line class="st0" x1="591" y1="386.9" x2="591" y2="451.1"/>
			<line class="st0" x1="598.6" y1="386.9" x2="598.6" y2="451.1"/>
			<line class="st0" x1="606.2" y1="386.9" x2="606.2" y2="451.1"/>
			<line class="st0" x1="613.8" y1="386.9" x2="613.8" y2="451.1"/>
			<line class="st0" x1="621.4" y1="386.9" x2="621.4" y2="451.1"/>
			<line class="st0" x1="629.1" y1="386.9" x2="629.1" y2="451.1"/>
			<line class="st0" x1="636.7" y1="386.9" x2="636.7" y2="451.1"/>
			<line class="st0" x1="644.3" y1="386.9" x2="644.3" y2="451.1"/>
		</g>
	</g>
</g>
<g id="marks_1_">
	<circle class="st1" cx="1733.7" cy="1621.1" r="10.4"/>
	<path class="st1" d="M1730.3,1637l-13.7,23.7c-1.5,2.6,0.4,6,3.4,6h27.3c3.1,0,5-3.3,3.4-6L1737,1637
		C1735.6,1634.3,1731.8,1634.3,1730.3,1637z"/>
	<circle class="st1" cx="1620.6" cy="1621.1" r="10.4"/>
	<path class="st1" d="M1624,1672.6l13.8-23.9c1.5-2.6-0.4-5.9-3.4-5.9h-27.5c-3,0-4.9,3.3-3.4,5.9l13.8,23.9
		C1618.7,1675.2,1622.5,1675.2,1624,1672.6z"/>
</g>
<g id="rooms_1_">
	<g>
		<path d="M602.8,264.5v23.8h-2.4v-21.6h-5.6v-2.2L602.8,264.5L602.8,264.5z"/>
		<path d="M615.1,264.5v23.8h-2.4v-21.6h-5.6v-2.2L615.1,264.5L615.1,264.5z"/>
		<path d="M637.6,264.5v1.7l-10,22.1H625l9.8-21.6h-12.2v4.5h-2.4v-6.6h17.4V264.5z"/>
	</g>
	<g>
		<path d="M602.8,572.4v23.8h-2.4v-21.6h-5.6v-2.2H602.8z"/>
		<path d="M615.1,572.4v23.8h-2.4v-21.6h-5.6v-2.2H615.1z"/>
		<path d="M637.9,586c0.8,1,1.2,2.2,1.2,3.6c0,1.4-0.4,2.6-1.1,3.6s-1.8,1.8-3.2,2.4c-1.4,0.6-3,0.8-4.9,0.8c-2.9,0-5.1-0.6-6.7-1.8
			c-1.6-1.2-2.4-2.9-2.4-5c0-1.4,0.4-2.6,1.2-3.6s1.9-1.7,3.4-2.2c-1.2-0.5-2.2-1.2-2.8-2.1c-0.6-0.9-1-2-1-3.2
			c0-1.9,0.8-3.5,2.3-4.6s3.5-1.7,6.1-1.7c1.7,0,3.1,0.3,4.4,0.8c1.3,0.5,2.2,1.2,2.9,2.2s1.1,2.1,1.1,3.3s-0.3,2.3-1,3.2
			s-1.6,1.6-2.8,2.1C635.9,584.2,637.1,585,637.9,586z M634.8,593.1c1.2-0.9,1.8-2,1.8-3.5s-0.6-2.6-1.8-3.5s-2.8-1.3-4.9-1.3
			c-2.1,0-3.7,0.4-4.9,1.3s-1.8,2-1.8,3.5s0.6,2.7,1.8,3.5s2.8,1.3,4.9,1.3S633.6,593.9,634.8,593.1z M625.5,581.7
			c1,0.8,2.5,1.2,4.3,1.2s3.3-0.4,4.3-1.2c1.1-0.8,1.6-1.8,1.6-3.1s-0.5-2.4-1.6-3.2s-2.5-1.2-4.3-1.2s-3.2,0.4-4.3,1.2
			s-1.6,1.8-1.6,3.1C624,579.9,624.5,580.9,625.5,581.7z"/>
	</g>
	<g>
		<path d="M2453.6,1921.1c0.9,1,1.3,2.3,1.3,3.9c0,2.1-0.7,3.6-2.2,4.8c-1.5,1.1-3.6,1.7-6.4,1.7h-10.5v-23.8h9.9
			c2.5,0,4.5,0.5,6,1.6c1.4,1,2.1,2.6,2.1,4.5c0,1.3-0.3,2.5-1,3.4s-1.6,1.6-2.9,2.1C2451.5,1919.5,2452.7,1920.1,2453.6,1921.1z
			 M2438.2,1918.4h7.3c1.8,0,3.2-0.4,4.2-1.1s1.5-1.8,1.5-3.3s-0.5-2.5-1.5-3.3s-2.4-1.1-4.2-1.1h-7.3V1918.4z M2452.4,1924.8
			c0-3-2.1-4.5-6.2-4.5h-8.1v9.1h8.1C2450.4,1929.4,2452.4,1927.8,2452.4,1924.8z"/>
		<path d="M2484.3,1929.2v7.8h-2.3v-5.6h-20.8v-23.8h2.5v21.6h14.4v-21.6h2.5v21.6H2484.3z"/>
		<path d="M2493.6,1907.6v23.8h-2.4v-21.6h-5.6v-2.2L2493.6,1907.6L2493.6,1907.6z"/>
		<path d="M2525.7,1925h-13.3l-2.9,6.4h-2.6l10.9-23.8h2.5l10.9,23.8h-2.7L2525.7,1925z M2524.8,1923l-5.7-12.8l-5.7,12.8H2524.8z"
			/>
	</g>
	<g>
		<path d="M2462.1,1689.1c0.9,1,1.3,2.3,1.3,3.9c0,2.1-0.7,3.6-2.2,4.8c-1.5,1.1-3.6,1.7-6.4,1.7h-10.5v-23.8h9.9
			c2.5,0,4.5,0.5,6,1.6c1.4,1,2.1,2.6,2.1,4.5c0,1.3-0.3,2.5-1,3.4s-1.6,1.6-2.9,2.1C2459.9,1687.4,2461.2,1688.1,2462.1,1689.1z
			 M2446.7,1686.3h7.3c1.8,0,3.2-0.4,4.2-1.1s1.5-1.8,1.5-3.3s-0.5-2.5-1.5-3.3s-2.4-1.1-4.2-1.1h-7.3V1686.3z M2460.9,1692.8
			c0-3-2.1-4.5-6.2-4.5h-8.1v9.1h8.1C2458.8,1697.4,2460.9,1695.8,2460.9,1692.8z"/>
		<path d="M2492.8,1697.2v7.8h-2.3v-5.6h-20.8v-23.8h2.5v21.6h14.4v-21.6h2.5v21.6H2492.8z"/>
		<path d="M2502.1,1675.6v23.8h-2.4v-21.6h-5.6v-2.2L2502.1,1675.6L2502.1,1675.6z"/>
		<path d="M2536.8,1689.1c0.9,1,1.3,2.3,1.3,3.9c0,2.1-0.7,3.6-2.2,4.8c-1.5,1.1-3.6,1.7-6.4,1.7H2519v-23.8h9.9
			c2.5,0,4.5,0.5,6,1.6c1.4,1,2.1,2.6,2.1,4.5c0,1.3-0.3,2.5-1,3.4s-1.6,1.6-2.9,2.1C2534.7,1687.4,2536,1688.1,2536.8,1689.1z
			 M2521.4,1686.3h7.3c1.8,0,3.2-0.4,4.2-1.1s1.5-1.8,1.5-3.3s-0.5-2.5-1.5-3.3s-2.4-1.1-4.2-1.1h-7.3V1686.3z M2535.6,1692.8
			c0-3-2.1-4.5-6.2-4.5h-8.1v9.1h8.1C2533.6,1697.4,2535.6,1695.8,2535.6,1692.8z"/>
	</g>
	<g>
		<path d="M2234.6,1921.1c0.9,1,1.3,2.3,1.3,3.9c0,2.1-0.7,3.6-2.2,4.8c-1.5,1.1-3.6,1.7-6.4,1.7h-10.5v-23.8h9.9
			c2.5,0,4.5,0.5,6,1.6c1.4,1,2.1,2.6,2.1,4.5c0,1.3-0.3,2.5-1,3.4s-1.6,1.6-2.9,2.1C2232.5,1919.5,2233.8,1920.1,2234.6,1921.1z
			 M2219.2,1918.4h7.3c1.8,0,3.2-0.4,4.2-1.1s1.5-1.8,1.5-3.3s-0.5-2.5-1.5-3.3s-2.4-1.1-4.2-1.1h-7.3V1918.4z M2233.4,1924.8
			c0-3-2.1-4.5-6.2-4.5h-8.1v9.1h8.1C2231.4,1929.4,2233.4,1927.8,2233.4,1924.8z"/>
		<path d="M2265.3,1929.2v7.8h-2.3v-5.6h-20.8v-23.8h2.5v21.6h14.4v-21.6h2.5v21.6H2265.3z"/>
		<path d="M2274.7,1907.6v23.8h-2.4v-21.6h-5.6v-2.2L2274.7,1907.6L2274.7,1907.6z"/>
		<path d="M2295.5,1930c-1.9-1-3.4-2.5-4.5-4.3s-1.6-3.9-1.6-6.2c0-2.3,0.5-4.4,1.6-6.2c1.1-1.8,2.6-3.3,4.5-4.3s4-1.6,6.4-1.6
			c1.8,0,3.4,0.3,4.9,0.9s2.8,1.5,3.8,2.6l-1.6,1.6c-1.9-1.9-4.2-2.8-7-2.8c-1.9,0-3.6,0.4-5.1,1.3s-2.7,2-3.6,3.5
			c-0.9,1.5-1.3,3.2-1.3,5c0,1.9,0.4,3.5,1.3,5c0.9,1.5,2.1,2.7,3.6,3.5s3.3,1.3,5.1,1.3c2.9,0,5.2-1,7-2.9l1.6,1.6
			c-1,1.1-2.3,2-3.8,2.6s-3.1,0.9-4.9,0.9C2299.5,1931.6,2297.4,1931.1,2295.5,1930z"/>
	</g>
	<g>
		<path d="M2201.7,1679.2c0.9,1,1.3,2.3,1.3,3.9c0,2.1-0.7,3.6-2.2,4.8c-1.5,1.1-3.6,1.7-6.4,1.7h-10.5v-23.8h9.9
			c2.5,0,4.5,0.5,6,1.6c1.4,1,2.1,2.6,2.1,4.5c0,1.3-0.3,2.5-1,3.4s-1.6,1.6-2.9,2.1C2199.6,1677.5,2200.8,1678.2,2201.7,1679.2z
			 M2186.3,1676.4h7.3c1.8,0,3.2-0.4,4.2-1.1s1.5-1.8,1.5-3.3s-0.5-2.5-1.5-3.3s-2.4-1.1-4.2-1.1h-7.3V1676.4z M2200.5,1682.8
			c0-3-2.1-4.5-6.2-4.5h-8.1v9.1h8.1C2198.5,1687.4,2200.5,1685.9,2200.5,1682.8z"/>
		<path d="M2232.4,1687.3v7.8h-2.3v-5.6h-20.8v-23.8h2.5v21.6h14.4v-21.6h2.5v21.6H2232.4z"/>
		<path d="M2241.7,1665.6v23.8h-2.4v-21.6h-5.6v-2.2L2241.7,1665.6L2241.7,1665.6z"/>
		<path d="M2258.4,1665.6h9.7c2.5,0,4.7,0.5,6.7,1.5c1.9,1,3.4,2.4,4.5,4.2c1.1,1.8,1.6,3.9,1.6,6.2c0,2.3-0.5,4.4-1.6,6.2
			c-1.1,1.8-2.6,3.2-4.5,4.2s-4.1,1.5-6.7,1.5h-9.7V1665.6z M2268,1687.3c2.1,0,3.9-0.4,5.5-1.2c1.6-0.8,2.8-2,3.6-3.4
			c0.9-1.5,1.3-3.1,1.3-5s-0.4-3.6-1.3-5s-2.1-2.6-3.6-3.4c-1.6-0.8-3.4-1.2-5.5-1.2h-7v19.4h7V1687.3z"/>
	</g>
	<g>
		<path d="M2002.2,1679.2c0.9,1,1.3,2.3,1.3,3.9c0,2.1-0.7,3.6-2.2,4.8c-1.5,1.1-3.6,1.7-6.4,1.7h-10.5v-23.8h9.9
			c2.5,0,4.5,0.5,6,1.6c1.4,1,2.1,2.6,2.1,4.5c0,1.3-0.3,2.5-1,3.4s-1.6,1.6-2.9,2.1C2000.1,1677.5,2001.4,1678.2,2002.2,1679.2z
			 M1986.8,1676.4h7.3c1.8,0,3.2-0.4,4.2-1.1s1.5-1.8,1.5-3.3s-0.5-2.5-1.5-3.3s-2.4-1.1-4.2-1.1h-7.3V1676.4z M2001,1682.8
			c0-3-2.1-4.5-6.2-4.5h-8.1v9.1h8.1C1999,1687.4,2001,1685.9,2001,1682.8z"/>
		<path d="M2032.9,1687.3v7.8h-2.3v-5.6h-20.8v-23.8h2.5v21.6h14.4v-21.6h2.5v21.6H2032.9z"/>
		<path d="M2042.3,1665.6v23.8h-2.4v-21.6h-5.6v-2.2L2042.3,1665.6L2042.3,1665.6z"/>
		<path d="M2075.9,1687.3v2.2h-16.8v-23.8h16.3v2.2h-13.8v8.5h12.3v2.1h-12.3v8.8L2075.9,1687.3L2075.9,1687.3z"/>
	</g>
	<g>
		<path d="M1672.8,1898.8c0.9,1,1.3,2.3,1.3,3.9c0,2.1-0.7,3.6-2.2,4.8c-1.5,1.1-3.6,1.7-6.4,1.7H1655v-23.8h9.9
			c2.5,0,4.5,0.5,6,1.6c1.4,1,2.1,2.6,2.1,4.5c0,1.3-0.3,2.5-1,3.4s-1.6,1.6-2.9,2.1C1670.7,1897.1,1671.9,1897.8,1672.8,1898.8z
			 M1657.4,1896h7.3c1.8,0,3.2-0.4,4.2-1.1s1.5-1.8,1.5-3.3s-0.5-2.5-1.5-3.3s-2.4-1.1-4.2-1.1h-7.3V1896z M1671.6,1902.4
			c0-3-2.1-4.5-6.2-4.5h-8.1v9.1h8.1C1669.5,1907,1671.6,1905.5,1671.6,1902.4z"/>
		<path d="M1703.5,1906.9v7.8h-2.3v-5.6h-20.8v-23.8h2.5v21.6h14.4v-21.6h2.5v21.6H1703.5z"/>
		<path d="M1722.5,1906.9v2.2h-16.7v-1.7l9.9-9.7c1.2-1.2,2.1-2.3,2.5-3.2s0.7-1.8,0.7-2.7c0-1.4-0.5-2.5-1.4-3.3
			c-1-0.8-2.3-1.2-4.1-1.2c-2.8,0-5,0.9-6.5,2.7l-1.7-1.5c0.9-1.1,2.1-1.9,3.6-2.5c1.4-0.6,3.1-0.9,4.9-0.9c2.4,0,4.3,0.6,5.8,1.7
			c1.4,1.1,2.1,2.7,2.1,4.7c0,1.2-0.3,2.4-0.8,3.5s-1.6,2.4-3.1,3.9l-8.1,8H1722.5z"/>
	</g>
	<g>
		<path d="M1405.3,1641.4c0.9,1,1.3,2.3,1.3,3.9c0,2.1-0.7,3.6-2.2,4.8c-1.5,1.1-3.6,1.7-6.4,1.7h-10.5V1628h9.9
			c2.5,0,4.5,0.5,6,1.6c1.4,1,2.1,2.6,2.1,4.5c0,1.3-0.3,2.5-1,3.4s-1.6,1.6-2.9,2.1C1403.2,1639.7,1404.5,1640.4,1405.3,1641.4z
			 M1389.9,1638.6h7.3c1.8,0,3.2-0.4,4.2-1.1s1.5-1.8,1.5-3.3s-0.5-2.5-1.5-3.3s-2.4-1.1-4.2-1.1h-7.3V1638.6z M1404.2,1645
			c0-3-2.1-4.5-6.2-4.5h-8.1v9.1h8.1C1402.1,1649.6,1404.2,1648.1,1404.2,1645z"/>
		<path d="M1436,1649.5v7.8h-2.3v-5.6h-20.8v-23.8h2.5v21.6h14.4v-21.6h2.5v21.6H1436z"/>
		<path d="M1452.6,1640.1c1.3,1.2,2,2.8,2,4.7c0,1.4-0.3,2.6-1,3.6c-0.7,1.1-1.6,1.9-2.9,2.5s-2.9,0.9-4.7,0.9
			c-1.7,0-3.3-0.3-4.9-0.8c-1.5-0.6-2.8-1.3-3.7-2.2l1.2-1.9c0.8,0.8,1.8,1.5,3.2,2c1.3,0.5,2.7,0.8,4.2,0.8c1.9,0,3.5-0.4,4.5-1.3
			c1.1-0.8,1.6-2,1.6-3.5s-0.5-2.6-1.6-3.5c-1.1-0.8-2.7-1.3-4.8-1.3h-1.7v-1.8l6.6-8.3h-12.2v-2.2h15.3v1.7l-6.7,8.5
			C1449.4,1638.2,1451.3,1638.9,1452.6,1640.1z"/>
	</g>
	<g>
		<path d="M1434.8,1898.8c0.9,1,1.3,2.3,1.3,3.9c0,2.1-0.7,3.6-2.2,4.8c-1.5,1.1-3.6,1.7-6.4,1.7H1417v-23.8h9.9
			c2.5,0,4.5,0.5,6,1.6c1.4,1,2.1,2.6,2.1,4.5c0,1.3-0.3,2.5-1,3.4s-1.6,1.6-2.9,2.1C1432.7,1897.1,1433.9,1897.8,1434.8,1898.8z
			 M1419.4,1896h7.3c1.8,0,3.2-0.4,4.2-1.1s1.5-1.8,1.5-3.3s-0.5-2.5-1.5-3.3s-2.4-1.1-4.2-1.1h-7.3V1896z M1433.6,1902.4
			c0-3-2.1-4.5-6.2-4.5h-8.1v9.1h8.1C1431.6,1907,1433.6,1905.5,1433.6,1902.4z"/>
		<path d="M1465.5,1906.9v7.8h-2.3v-5.6h-20.8v-23.8h2.5v21.6h14.4v-21.6h2.5v21.6H1465.5z"/>
		<path d="M1488.5,1902.8h-4.8v6.3h-2.4v-6.3h-13.4v-1.8l12.6-15.8h2.7l-12.2,15.4h10.3v-5.5h2.4v5.5h4.8V1902.8z"/>
	</g>
	<g>
		<path d="M1204.6,1898.8c0.9,1,1.3,2.3,1.3,3.9c0,2.1-0.7,3.6-2.2,4.8c-1.5,1.1-3.6,1.7-6.4,1.7h-10.5v-23.8h9.9
			c2.5,0,4.5,0.5,6,1.6c1.4,1,2.1,2.6,2.1,4.5c0,1.3-0.3,2.5-1,3.4s-1.6,1.6-2.9,2.1C1202.5,1897.1,1203.8,1897.8,1204.6,1898.8z
			 M1189.2,1896h7.3c1.8,0,3.2-0.4,4.2-1.1s1.5-1.8,1.5-3.3s-0.5-2.5-1.5-3.3s-2.4-1.1-4.2-1.1h-7.3V1896z M1203.4,1902.4
			c0-3-2.1-4.5-6.2-4.5h-8.1v9.1h8.1C1201.4,1907,1203.4,1905.5,1203.4,1902.4z"/>
		<path d="M1235.3,1906.9v7.8h-2.3v-5.6h-20.8v-23.8h2.5v21.6h14.4v-21.6h2.5v21.6H1235.3z"/>
		<path d="M1251.9,1896.9c1.6,1.2,2.4,3,2.4,5.2c0,1.4-0.3,2.6-1,3.7s-1.6,1.9-2.9,2.6c-1.3,0.6-2.9,0.9-4.8,0.9
			c-1.7,0-3.3-0.3-4.8-0.8s-2.8-1.3-3.7-2.2l1.2-1.9c0.8,0.8,1.8,1.5,3.1,2c1.3,0.5,2.7,0.8,4.2,0.8c2,0,3.5-0.4,4.6-1.3
			s1.6-2.1,1.6-3.5c0-1.6-0.6-2.9-1.8-3.7c-1.2-0.8-3.3-1.3-6.1-1.3h-5.1l1.2-11.9h13v2.2h-10.9l-0.8,7.6h3.1
			C1247.8,1895,1250.3,1895.6,1251.9,1896.9z"/>
	</g>
	<g>
		<path d="M1178.8,1672c0.9,1,1.3,2.3,1.3,3.9c0,2.1-0.7,3.6-2.2,4.8c-1.5,1.1-3.6,1.7-6.4,1.7H1161v-23.8h9.9c2.5,0,4.5,0.5,6,1.6
			c1.4,1,2.1,2.6,2.1,4.5c0,1.3-0.3,2.5-1,3.4s-1.6,1.6-2.9,2.1C1176.7,1670.3,1177.9,1671,1178.8,1672z M1163.4,1669.2h7.3
			c1.8,0,3.2-0.4,4.2-1.1s1.5-1.8,1.5-3.3s-0.5-2.5-1.5-3.3s-2.4-1.1-4.2-1.1h-7.3V1669.2z M1177.6,1675.6c0-3-2.1-4.5-6.2-4.5h-8.1
			v9.1h8.1C1175.5,1680.2,1177.6,1678.7,1177.6,1675.6z"/>
		<path d="M1209.5,1680.1v7.8h-2.3v-5.6h-20.8v-23.8h2.5v21.6h14.4v-21.6h2.5v21.6H1209.5z"/>
	</g>
	<g>
		<path d="M979.6,1651.8c0.9,1,1.3,2.3,1.3,3.9c0,2.1-0.7,3.6-2.2,4.8c-1.5,1.1-3.6,1.7-6.4,1.7h-10.5v-23.8h9.9
			c2.5,0,4.5,0.5,6,1.6c1.4,1,2.1,2.6,2.1,4.5c0,1.3-0.3,2.5-1,3.4s-1.6,1.6-2.9,2.1C977.5,1650.1,978.8,1650.8,979.6,1651.8z
			 M964.2,1649.1h7.3c1.8,0,3.2-0.4,4.2-1.1s1.5-1.8,1.5-3.3s-0.5-2.5-1.5-3.3s-2.4-1.1-4.2-1.1h-7.3V1649.1z M978.4,1655.5
			c0-3-2.1-4.5-6.2-4.5h-8.1v9.1h8.1C976.4,1660.1,978.4,1658.5,978.4,1655.5z"/>
		<path d="M1010.3,1659.9v7.8h-2.3v-5.6h-20.8v-23.8h2.5v21.6h14.4v-21.6h2.5v21.6H1010.3z"/>
		<path d="M1027.1,1648.7c1.2,0.6,2.2,1.4,2.8,2.5c0.7,1.1,1,2.3,1,3.8s-0.4,2.7-1.1,3.8c-0.7,1.1-1.7,2-2.9,2.6
			c-1.2,0.6-2.6,0.9-4.2,0.9c-3.2,0-5.6-1-7.2-3.1c-1.7-2.1-2.5-5-2.5-8.8c0-2.7,0.5-4.9,1.4-6.7c0.9-1.8,2.2-3.2,3.8-4.2
			s3.5-1.4,5.7-1.4c2.4,0,4.2,0.4,5.6,1.3l-1,2c-1.1-0.7-2.7-1.1-4.6-1.1c-2.6,0-4.7,0.8-6.2,2.5s-2.2,4.1-2.2,7.3
			c0,0.6,0,1.2,0.1,1.9c0.6-1.3,1.5-2.3,2.8-3s2.8-1.1,4.5-1.1C1024.5,1647.8,1025.9,1648.1,1027.1,1648.7z M1026.9,1658.8
			c1.1-0.9,1.6-2.2,1.6-3.8c0-1.6-0.5-2.8-1.6-3.7c-1.1-0.9-2.5-1.4-4.4-1.4c-1.2,0-2.3,0.2-3.2,0.7s-1.6,1.1-2.2,1.9
			c-0.5,0.8-0.8,1.7-0.8,2.7c0,0.9,0.2,1.7,0.7,2.5s1.2,1.4,2.2,1.9s2.1,0.7,3.4,0.7C1024.5,1660.2,1025.9,1659.7,1026.9,1658.8z"/>
	</g>
	<g>
		<path d="M902.7,1898.8c0.9,1,1.3,2.3,1.3,3.9c0,2.1-0.7,3.6-2.2,4.8c-1.5,1.1-3.6,1.7-6.4,1.7h-10.5v-23.8h9.9
			c2.5,0,4.5,0.5,6,1.6c1.4,1,2.1,2.6,2.1,4.5c0,1.3-0.3,2.5-1,3.4s-1.6,1.6-2.9,2.1C900.6,1897.1,901.8,1897.8,902.7,1898.8z
			 M887.3,1896h7.3c1.8,0,3.2-0.4,4.2-1.1s1.5-1.8,1.5-3.3s-0.5-2.5-1.5-3.3s-2.4-1.1-4.2-1.1h-7.3V1896z M901.5,1902.4
			c0-3-2.1-4.5-6.2-4.5h-8.1v9.1h8.1C899.4,1907,901.5,1905.5,901.5,1902.4z"/>
		<path d="M933.4,1906.9v7.8H931v-5.6h-20.8v-23.8h2.5v21.6h14.4v-21.6h2.5v21.6H933.4z"/>
		<path d="M952.9,1885.2v1.7l-10,22.1h-2.7l9.8-21.6h-12.2v4.5h-2.4v-6.6L952.9,1885.2L952.9,1885.2z"/>
	</g>
	<g>
		<path d="M762.8,1661.9c0.9,1,1.3,2.3,1.3,3.9c0,2.1-0.7,3.6-2.2,4.8c-1.5,1.1-3.6,1.7-6.4,1.7H745v-23.8h9.9c2.5,0,4.5,0.5,6,1.6
			c1.4,1,2.1,2.6,2.1,4.5c0,1.3-0.3,2.5-1,3.4s-1.6,1.6-2.9,2.1C760.7,1660.2,762,1660.9,762.8,1661.9z M747.4,1659.1h7.3
			c1.8,0,3.2-0.4,4.2-1.1s1.5-1.8,1.5-3.3s-0.5-2.5-1.5-3.3s-2.4-1.1-4.2-1.1h-7.3V1659.1z M761.6,1665.6c0-3-2.1-4.5-6.2-4.5h-8.1
			v9.1h8.1C759.6,1670.2,761.6,1668.6,761.6,1665.6z"/>
		<path d="M793.5,1670v7.8h-2.3v-5.6h-20.8v-23.8h2.5v21.6h14.4v-21.6h2.5v21.6H793.5z"/>
		<path d="M813.4,1661.9c0.8,1,1.2,2.2,1.2,3.6s-0.4,2.6-1.1,3.6s-1.8,1.8-3.2,2.4s-3,0.8-4.9,0.8c-2.9,0-5.1-0.6-6.7-1.8
			c-1.6-1.2-2.4-2.9-2.4-5c0-1.4,0.4-2.6,1.2-3.6s1.9-1.7,3.4-2.2c-1.2-0.5-2.2-1.2-2.8-2.1s-1-2-1-3.2c0-1.9,0.8-3.5,2.3-4.6
			s3.5-1.7,6.1-1.7c1.7,0,3.1,0.3,4.4,0.8c1.3,0.5,2.2,1.2,2.9,2.2s1.1,2.1,1.1,3.3c0,1.2-0.3,2.3-1,3.2c-0.7,0.9-1.6,1.6-2.8,2.1
			C811.4,1660.2,812.6,1660.9,813.4,1661.9z M810.3,1669c1.2-0.9,1.8-2,1.8-3.5s-0.6-2.6-1.8-3.5c-1.2-0.8-2.8-1.3-4.9-1.3
			c-2.1,0-3.7,0.4-4.9,1.3s-1.8,2-1.8,3.5s0.6,2.7,1.8,3.5s2.8,1.3,4.9,1.3S809.1,1669.9,810.3,1669z M801,1657.6
			c1,0.8,2.5,1.2,4.3,1.2s3.3-0.4,4.3-1.2s1.6-1.8,1.6-3.1c0-1.3-0.5-2.4-1.6-3.2c-1.1-0.8-2.5-1.2-4.3-1.2s-3.2,0.4-4.3,1.2
			c-1.1,0.8-1.6,1.8-1.6,3.1C799.4,1655.8,800,1656.9,801,1657.6z"/>
	</g>
	<g>
		<path d="M356.9,1898.8c0.9,1,1.3,2.3,1.3,3.9c0,2.1-0.7,3.6-2.2,4.8c-1.5,1.1-3.6,1.7-6.4,1.7H339v-23.8h9.9c2.5,0,4.5,0.5,6,1.6
			c1.4,1,2.1,2.6,2.1,4.5c0,1.3-0.3,2.5-1,3.4s-1.6,1.6-2.9,2.1C354.8,1897.1,356,1897.8,356.9,1898.8z M341.5,1896h7.3
			c1.8,0,3.2-0.4,4.2-1.1s1.5-1.8,1.5-3.3s-0.5-2.5-1.5-3.3s-2.4-1.1-4.2-1.1h-7.3V1896z M355.7,1902.4c0-3-2.1-4.5-6.2-4.5h-8.1
			v9.1h8.1C353.7,1907,355.7,1905.5,355.7,1902.4z"/>
		<path d="M387.6,1906.9v7.8h-2.3v-5.6h-20.8v-23.8h2.5v21.6h14.4v-21.6h2.5v21.6H387.6z"/>
		<path d="M405,1888.1c1.7,2.1,2.5,5,2.5,8.8c0,2.7-0.5,4.9-1.4,6.7c-0.9,1.8-2.2,3.2-3.8,4.2s-3.5,1.4-5.7,1.4
			c-2.4,0-4.2-0.4-5.6-1.3l1-2c1.1,0.7,2.7,1.1,4.6,1.1c2.6,0,4.7-0.8,6.2-2.5s2.2-4.1,2.2-7.3c0-0.6,0-1.2-0.1-1.9
			c-0.6,1.3-1.5,2.3-2.8,3s-2.8,1.1-4.5,1.1c-1.6,0-3-0.3-4.2-0.9s-2.2-1.4-2.8-2.5c-0.7-1.1-1-2.3-1-3.8s0.4-2.7,1.1-3.8
			c0.7-1.1,1.7-2,2.9-2.6c1.2-0.6,2.6-0.9,4.2-0.9C400.9,1885,403.3,1886.1,405,1888.1z M401.2,1896.7c0.9-0.5,1.6-1.1,2.2-1.9
			c0.5-0.8,0.8-1.7,0.8-2.7c0-0.9-0.2-1.7-0.7-2.5s-1.2-1.4-2.2-1.9s-2.1-0.7-3.4-0.7c-1.7,0-3.1,0.5-4.2,1.4s-1.6,2.2-1.6,3.8
			c0,1.6,0.5,2.8,1.6,3.7c1.1,0.9,2.5,1.4,4.4,1.4C399.2,1897.4,400.3,1897.2,401.2,1896.7z"/>
	</g>
	<g>
		<path d="M549.5,1898.8c0.9,1,1.3,2.3,1.3,3.9c0,2.1-0.7,3.6-2.2,4.8c-1.5,1.1-3.6,1.7-6.4,1.7h-10.5v-23.8h9.9
			c2.5,0,4.5,0.5,6,1.6c1.4,1,2.1,2.6,2.1,4.5c0,1.3-0.3,2.5-1,3.4s-1.6,1.6-2.9,2.1C547.3,1897.1,548.6,1897.8,549.5,1898.8z
			 M534.1,1896h7.3c1.8,0,3.2-0.4,4.2-1.1s1.5-1.8,1.5-3.3s-0.5-2.5-1.5-3.3s-2.4-1.1-4.2-1.1h-7.3V1896z M548.3,1902.4
			c0-3-2.1-4.5-6.2-4.5H534v9.1h8.1C546.2,1907,548.3,1905.5,548.3,1902.4z"/>
		<path d="M580.2,1906.9v7.8h-2.3v-5.6H557v-23.8h2.5v21.6h14.4v-21.6h2.5v21.6H580.2z"/>
		<path d="M589.5,1885.2v23.8h-2.4v-21.6h-5.6v-2.2L589.5,1885.2L589.5,1885.2z"/>
		<path d="M599.8,1907.8c-1.4-1-2.6-2.4-3.4-4.2c-0.8-1.8-1.2-4-1.2-6.4c0-2.5,0.4-4.6,1.2-6.4s1.9-3.2,3.4-4.2s3.1-1.5,4.9-1.5
			s3.5,0.5,4.9,1.5s2.6,2.4,3.4,4.2c0.8,1.8,1.2,4,1.2,6.4c0,2.5-0.4,4.6-1.2,6.4s-1.9,3.2-3.4,4.2c-1.4,1-3.1,1.5-4.9,1.5
			S601.2,1908.8,599.8,1907.8z M608.3,1905.8c1.1-0.8,1.9-1.9,2.5-3.4s0.9-3.3,0.9-5.3c0-2.1-0.3-3.9-0.9-5.3
			c-0.6-1.5-1.4-2.6-2.5-3.4s-2.3-1.2-3.7-1.2s-2.6,0.4-3.7,1.2c-1.1,0.8-1.9,1.9-2.5,3.4s-0.9,3.3-0.9,5.3c0,2.1,0.3,3.9,0.9,5.3
			s1.4,2.6,2.5,3.4s2.3,1.2,3.7,1.2C606.1,1907,607.3,1906.6,608.3,1905.8z"/>
	</g>
	<g>
		<path d="M336.1,1371.6c-0.3-0.3-0.4-0.6-0.4-1.1c0-0.4,0.1-0.8,0.4-1c0.3-0.3,0.6-0.4,1-0.4s0.7,0.1,1,0.4s0.4,0.6,0.4,1
			s-0.1,0.8-0.4,1c-0.3,0.3-0.6,0.4-1,0.4C336.7,1372,336.4,1371.9,336.1,1371.6z M338.9,1374.8h2.5v23.8h-2.5V1374.8z
			 M342.1,1371.6c-0.3-0.3-0.4-0.6-0.4-1s0.1-0.8,0.4-1c0.3-0.3,0.6-0.4,1-0.4s0.8,0.1,1,0.4c0.3,0.3,0.4,0.6,0.4,1
			s-0.1,0.8-0.4,1.1c-0.3,0.3-0.6,0.4-1,0.4C342.8,1372,342.4,1371.9,342.1,1371.6z"/>
		<path d="M366.1,1396.5v6.4h-2.3v-4.3h-16v4.3h-2.3v-6.4h1c1.2-0.1,2-1,2.4-2.7s0.7-4.1,0.9-7.1l0.2-6h13.2v15.8L366.1,1396.5
			L366.1,1396.5z M351.5,1393.1c-0.3,1.6-0.9,2.8-1.7,3.4H361v-13.6h-8.6l-0.2,4C352,1389.3,351.8,1391.4,351.5,1393.1z"/>
		<path d="M382.4,1382.3c1.2,1.2,1.9,2.9,1.9,5.2v11.1H382v-2.8c-0.5,0.9-1.3,1.7-2.4,2.2s-2.3,0.8-3.8,0.8c-2,0-3.6-0.5-4.8-1.4
			c-1.2-1-1.8-2.2-1.8-3.8c0-1.5,0.5-2.7,1.6-3.7c1.1-0.9,2.9-1.4,5.3-1.4h5.7v-1.1c0-1.5-0.4-2.7-1.3-3.5s-2.1-1.2-3.8-1.2
			c-1.1,0-2.2,0.2-3.3,0.6c-1,0.4-1.9,0.9-2.7,1.5l-1.1-1.8c0.9-0.8,2-1.4,3.3-1.8s2.6-0.6,4-0.6
			C379.3,1380.5,381.1,1381.1,382.4,1382.3z M379.6,1395.9c1-0.6,1.7-1.5,2.2-2.7v-2.9h-5.6c-3.1,0-4.6,1.1-4.6,3.2
			c0,1,0.4,1.9,1.2,2.5s1.9,0.9,3.3,0.9C377.5,1396.8,378.7,1396.5,379.6,1395.9z"/>
		<path d="M405.3,1380.7v17.9h-2.4v-15.7h-8.6l-0.2,4.4c-0.2,3.7-0.6,6.6-1.3,8.6c-0.7,2-1.9,3-3.6,3c-0.5,0-1.1-0.1-1.7-0.3
			l0.2-2.1c0.4,0.1,0.7,0.1,0.9,0.1c0.9,0,1.6-0.4,2.1-1.3s0.8-1.9,1-3.2c0.2-1.3,0.3-2.9,0.4-5l0.3-6.4H405.3z"/>
		<path d="M424.9,1388.5c1.2,1,1.8,2.4,1.8,4.2c0,1.9-0.6,3.4-1.9,4.4s-3.1,1.5-5.5,1.5h-7.2v-17.9h2.4v6.3l5.3,0.1
			C422.1,1387,423.8,1387.5,424.9,1388.5z M423,1395.8c0.8-0.7,1.3-1.7,1.3-3s-0.4-2.3-1.3-2.9c-0.8-0.6-2.1-1-3.8-1l-4.7-0.1v8
			l4.7,0.1C420.9,1396.8,422.1,1396.4,423,1395.8z"/>
		<path d="M431.3,1380.7h2.4v7.9H445v-7.9h2.4v17.9H445v-7.9h-11.3v7.9h-2.4L431.3,1380.7L431.3,1380.7z"/>
		<path d="M468,1380.7v17.9h-2.2v-5.9h-5.6h-0.7l-4.1,5.9h-2.6l4.5-6.3c-1.4-0.4-2.4-1-3.2-2s-1.1-2.1-1.1-3.5c0-2,0.7-3.5,2-4.6
			c1.4-1,3.2-1.6,5.6-1.6L468,1380.7L468,1380.7z M460.4,1390.8h5.4v-8h-5.2c-3.5,0-5.2,1.3-5.2,4
			C455.3,1389.5,457,1390.8,460.4,1390.8z"/>
	</g>
	<g>
		<path d="M336.1,1202.5c-0.3-0.3-0.4-0.6-0.4-1.1c0-0.4,0.1-0.8,0.4-1c0.3-0.3,0.6-0.4,1-0.4s0.7,0.1,1,0.4s0.4,0.6,0.4,1
			s-0.1,0.8-0.4,1c-0.3,0.3-0.6,0.4-1,0.4C336.7,1202.9,336.4,1202.7,336.1,1202.5z M338.9,1205.6h2.5v23.8h-2.5V1205.6z
			 M342.1,1202.5c-0.3-0.3-0.4-0.6-0.4-1s0.1-0.8,0.4-1c0.3-0.3,0.6-0.4,1-0.4s0.8,0.1,1,0.4c0.3,0.3,0.4,0.6,0.4,1
			s-0.1,0.8-0.4,1.1c-0.3,0.3-0.6,0.4-1,0.4C342.8,1202.9,342.4,1202.7,342.1,1202.5z"/>
		<path d="M366.1,1227.3v6.4h-2.3v-4.3h-16v4.3h-2.3v-6.4h1c1.2-0.1,2-1,2.4-2.7s0.7-4.1,0.9-7.1l0.2-6h13.2v15.8L366.1,1227.3
			L366.1,1227.3z M351.5,1223.9c-0.3,1.6-0.9,2.8-1.7,3.4H361v-13.6h-8.6l-0.2,4C352,1220.2,351.8,1222.3,351.5,1223.9z"/>
		<path d="M382.4,1213.1c1.2,1.2,1.9,2.9,1.9,5.2v11.1H382v-2.8c-0.5,0.9-1.3,1.7-2.4,2.2s-2.3,0.8-3.8,0.8c-2,0-3.6-0.5-4.8-1.4
			c-1.2-1-1.8-2.2-1.8-3.8c0-1.5,0.5-2.7,1.6-3.7c1.1-0.9,2.9-1.4,5.3-1.4h5.7v-1.1c0-1.5-0.4-2.7-1.3-3.5s-2.1-1.2-3.8-1.2
			c-1.1,0-2.2,0.2-3.3,0.6c-1,0.4-1.9,0.9-2.7,1.5l-1.1-1.8c0.9-0.8,2-1.4,3.3-1.8s2.6-0.6,4-0.6
			C379.3,1211.4,381.1,1212,382.4,1213.1z M379.6,1226.7c1-0.6,1.7-1.5,2.2-2.7v-2.9h-5.6c-3.1,0-4.6,1.1-4.6,3.2
			c0,1,0.4,1.9,1.2,2.5s1.9,0.9,3.3,0.9S378.7,1227.4,379.6,1226.7z"/>
		<path d="M405.3,1211.5v17.9h-2.4v-15.7h-8.6l-0.2,4.4c-0.2,3.7-0.6,6.6-1.3,8.6c-0.7,2-1.9,3-3.6,3c-0.5,0-1.1-0.1-1.7-0.3
			l0.2-2.1c0.4,0.1,0.7,0.1,0.9,0.1c0.9,0,1.6-0.4,2.1-1.3s0.8-1.9,1-3.2c0.2-1.3,0.3-2.9,0.4-5l0.3-6.4H405.3z"/>
		<path d="M424.9,1219.3c1.2,1,1.8,2.4,1.8,4.2c0,1.9-0.6,3.4-1.9,4.4s-3.1,1.5-5.5,1.5h-7.2v-17.9h2.4v6.3l5.3,0.1
			C422.1,1217.9,423.8,1218.4,424.9,1219.3z M423,1226.6c0.8-0.7,1.3-1.7,1.3-3s-0.4-2.3-1.3-2.9c-0.8-0.6-2.1-1-3.8-1l-4.7-0.1v8
			l4.7,0.1C420.9,1227.6,422.1,1227.3,423,1226.6z"/>
		<path d="M431.3,1211.5h2.4v7.9H445v-7.9h2.4v17.9H445v-7.9h-11.3v7.9h-2.4L431.3,1211.5L431.3,1211.5z"/>
		<path d="M468,1211.5v17.9h-2.2v-5.9h-5.6h-0.7l-4.1,5.9h-2.6l4.5-6.3c-1.4-0.4-2.4-1-3.2-2s-1.1-2.1-1.1-3.5c0-2,0.7-3.5,2-4.6
			c1.4-1,3.2-1.6,5.6-1.6L468,1211.5L468,1211.5z M460.4,1221.7h5.4v-8h-5.2c-3.5,0-5.2,1.3-5.2,4
			C455.3,1220.4,457,1221.7,460.4,1221.7z"/>
	</g>
</g>
<g id="doors_1_">
	<g>
		<path class="st2" d="M2732.3,1757.8c-9.5,6.3-29.9,14.9-29.9,14.9s-4.9-5.9-4.5-14.9"/>
		<path class="st3" d="M2700.8,1771.2l31.7-15.7c0.8-0.4,1.8-0.1,2.2,0.7l0,0c0.4,0.8,0.1,1.8-0.7,2.2l-31.7,15.7
			c-0.8,0.4-1.8,0.1-2.2-0.7l0,0C2699.7,1772.6,2700,1771.6,2700.8,1771.2z"/>
	</g>
	<g>
		<path class="st2" d="M2487.5,1757.8c-9.5,6.3-29.9,14.9-29.9,14.9s-4.9-5.9-4.5-14.9"/>
		<path class="st3" d="M2456,1771.2l31.7-15.7c0.8-0.4,1.8-0.1,2.2,0.7l0,0c0.4,0.8,0.1,1.8-0.7,2.2l-31.7,15.7
			c-0.8,0.4-1.8,0.1-2.2-0.7l0,0C2454.9,1772.6,2455.2,1771.6,2456,1771.2z"/>
	</g>
	<g>
		<path class="st2" d="M2155.6,1757.8c-9.5,6.3-29.9,14.9-29.9,14.9s-4.9-5.9-4.5-14.9"/>
		<path class="st3" d="M2124.1,1771.2l31.7-15.7c0.8-0.4,1.8-0.1,2.2,0.7l0,0c0.4,0.8,0.1,1.8-0.7,2.2l-31.7,15.7
			c-0.8,0.4-1.8,0.1-2.2-0.7l0,0C2123,1772.6,2123.3,1771.6,2124.1,1771.2z"/>
	</g>
	<g>
		<path class="st2" d="M1990.7,1757.8c-9.5,6.3-29.9,14.9-29.9,14.9s-4.9-5.9-4.5-14.9"/>
		<path class="st3" d="M1959.2,1771.2l31.7-15.7c0.8-0.4,1.8-0.1,2.2,0.7l0,0c0.4,0.8,0.1,1.8-0.7,2.2l-31.7,15.7
			c-0.8,0.4-1.8,0.1-2.2-0.7l0,0C1958.1,1772.6,1958.4,1771.6,1959.2,1771.2z"/>
	</g>
	<g>
		<path class="st2" d="M1784.7,1729.9c-9.5,6.3-29.9,14.9-29.9,14.9s-4.9-5.9-4.5-14.9"/>
		<path class="st3" d="M1753.2,1743.4l31.7-15.7c0.8-0.4,1.8-0.1,2.2,0.7l0,0c0.4,0.8,0.1,1.8-0.7,2.2l-31.7,15.7
			c-0.8,0.4-1.8,0.1-2.2-0.7l0,0C1752.1,1744.7,1752.4,1743.8,1753.2,1743.4z"/>
	</g>
	<g>
		<path class="st2" d="M1628.2,1729.9c-9.5,6.3-29.9,14.9-29.9,14.9s-4.9-5.9-4.5-14.9"/>
		<path class="st3" d="M1596.8,1743.4l31.7-15.7c0.8-0.4,1.8-0.1,2.2,0.7l0,0c0.4,0.8,0.1,1.8-0.7,2.2l-31.7,15.7
			c-0.8,0.4-1.8,0.1-2.2-0.7l0,0C1595.6,1744.7,1596,1743.8,1596.8,1743.4z"/>
	</g>
	<g>
		<path class="st2" d="M1383.4,1729.9c-9.5,6.3-29.9,14.9-29.9,14.9s-4.9-5.9-4.5-14.9"/>
		<path class="st3" d="M1352,1743.4l31.7-15.7c0.8-0.4,1.8-0.1,2.2,0.7l0,0c0.4,0.8,0.1,1.8-0.7,2.2l-31.7,15.7
			c-0.8,0.4-1.8,0.1-2.2-0.7l0,0C1350.8,1744.7,1351.2,1743.8,1352,1743.4z"/>
	</g>
	<g>
		<path class="st2" d="M1174.5,1729.9c9.5,6.3,29.9,14.9,29.9,14.9s4.9-5.9,4.5-14.9"/>
		<path class="st3" d="M1206,1743.4l-31.7-15.7c-0.8-0.4-1.8-0.1-2.2,0.7l0,0c-0.4,0.8-0.1,1.8,0.7,2.2l31.7,15.7
			c0.8,0.4,1.8,0.1,2.2-0.7l0,0C1207.1,1744.7,1206.8,1743.8,1206,1743.4z"/>
	</g>
	<g>
		<path class="st2" d="M1083.4,1729.9c-9.5,6.3-29.9,14.9-29.9,14.9s-4.9-5.9-4.5-14.9"/>
		<path class="st3" d="M1052,1743.4l31.7-15.7c0.8-0.4,1.8-0.1,2.2,0.7l0,0c0.4,0.8,0.1,1.8-0.7,2.2l-31.7,15.7
			c-0.8,0.4-1.8,0.1-2.2-0.7l0,0C1050.8,1744.7,1051.2,1743.8,1052,1743.4z"/>
	</g>
	<g>
		<path class="st2" d="M707.6,1729.9c-9.5,6.3-29.9,14.9-29.9,14.9s-4.9-5.9-4.5-14.9"/>
		<path class="st3" d="M676.1,1743.4l31.7-15.7c0.8-0.4,1.8-0.1,2.2,0.7l0,0c0.4,0.8,0.1,1.8-0.7,2.2l-31.7,15.7
			c-0.8,0.4-1.8,0.1-2.2-0.7l0,0C675,1744.7,675.3,1743.8,676.1,1743.4z"/>
	</g>
	<g>
		<path class="st2" d="M571.9,1729.9c-9.5,6.3-29.9,14.9-29.9,14.9s-4.9-5.9-4.5-14.9"/>
		<path class="st3" d="M540.5,1743.4l31.7-15.7c0.8-0.4,1.8-0.1,2.2,0.7l0,0c0.4,0.8,0.1,1.8-0.7,2.2l-31.7,15.7
			c-0.8,0.4-1.8,0.1-2.2-0.7l0,0C539.3,1744.7,539.7,1743.8,540.5,1743.4z"/>
	</g>
	<g>
		<path class="st2" d="M473.3,1729.9c-9.5,6.3-29.9,14.9-29.9,14.9s-4.9-5.9-4.5-14.9"/>
		<path class="st3" d="M441.8,1743.4l31.7-15.7c0.8-0.4,1.8-0.1,2.2,0.7l0,0c0.4,0.8,0.1,1.8-0.7,2.2l-31.7,15.7
			c-0.8,0.4-1.8,0.1-2.2-0.7l0,0C440.7,1744.7,441,1743.8,441.8,1743.4z"/>
	</g>
	<g>
		<path class="st2" d="M532.3,561.8c-6.3,9.5-14.9,29.9-14.9,29.9s5.9,4.9,14.9,4.5"/>
		<path class="st3" d="M518.8,593.3l15.7-31.7c0.4-0.8,0.1-1.8-0.7-2.2l0,0c-0.8-0.4-1.8-0.1-2.2,0.7l-15.7,31.7
			c-0.4,0.8-0.1,1.8,0.7,2.2l0,0C517.4,594.4,518.4,594.1,518.8,593.3z"/>
	</g>
	<g>
		<path class="st2" d="M528.1,286.8c-6.3-9.5-14.9-29.9-14.9-29.9s5.9-4.9,14.9-4.5"/>
		<path class="st3" d="M514.6,255.3l15.7,31.7c0.4,0.8,0.1,1.8-0.7,2.2l0,0c-0.8,0.4-1.8,0.1-2.2-0.7l-15.7-31.7
			c-0.4-0.8-0.1-1.8,0.7-2.2l0,0C513.3,254.1,514.2,254.5,514.6,255.3z"/>
	</g>
	<g>
		<path class="st2" d="M436.7,1796.5c9.5-6.3,29.9-14.9,29.9-14.9s4.9,5.9,4.5,14.9"/>
		<path class="st3" d="M468.2,1783.1l-31.7,15.7c-0.8,0.4-1.8,0.1-2.2-0.7l0,0c-0.4-0.8-0.1-1.8,0.7-2.2l31.7-15.7
			c0.8-0.4,1.8-0.1,2.2,0.7l0,0C469.3,1781.7,469,1782.7,468.2,1783.1z"/>
	</g>
	<g>
		<path class="st2" d="M570.7,1796.5c-9.5-6.3-29.9-14.9-29.9-14.9s-4.9,5.9-4.5,14.9"/>
		<path class="st3" d="M539.2,1783.1l31.7,15.7c0.8,0.4,1.8,0.1,2.2-0.7l0,0c0.4-0.8,0.1-1.8-0.7-2.2l-31.7-15.7
			c-0.8-0.4-1.8-0.1-2.2,0.7l0,0C538.1,1781.7,538.4,1782.7,539.2,1783.1z"/>
	</g>
	<g>
		<path class="st2" d="M708.6,1796.5c-9.5-6.3-29.9-14.9-29.9-14.9s-4.9,5.9-4.5,14.9"/>
		<path class="st3" d="M677.1,1783.1l31.7,15.7c0.8,0.4,1.8,0.1,2.2-0.7l0,0c0.4-0.8,0.1-1.8-0.7-2.2l-31.7-15.7
			c-0.8-0.4-1.8-0.1-2.2,0.7l0,0C676,1781.7,676.3,1782.7,677.1,1783.1z"/>
	</g>
	<g>
		<path class="st2" d="M775.3,1796.5c-9.5-6.3-29.9-14.9-29.9-14.9s-4.9,5.9-4.5,14.9"/>
		<path class="st3" d="M743.8,1783.1l31.7,15.7c0.8,0.4,1.8,0.1,2.2-0.7l0,0c0.4-0.8,0.1-1.8-0.7-2.2l-31.7-15.7
			c-0.8-0.4-1.8-0.1-2.2,0.7l0,0C742.7,1781.7,743,1782.7,743.8,1783.1z"/>
	</g>
	<g>
		<path class="st2" d="M834.2,1796.5c9.5-6.3,29.9-14.9,29.9-14.9s4.9,5.9,4.5,14.9"/>
		<path class="st3" d="M865.7,1783.1l-31.7,15.7c-0.8,0.4-1.8,0.1-2.2-0.7l0,0c-0.4-0.8-0.1-1.8,0.7-2.2l31.7-15.7
			c0.8-0.4,1.8-0.1,2.2,0.7l0,0C866.8,1781.7,866.5,1782.7,865.7,1783.1z"/>
	</g>
	<g>
		<path class="st2" d="M1049.1,1796.5c9.5-6.3,29.9-14.9,29.9-14.9s4.9,5.9,4.5,14.9"/>
		<path class="st3" d="M1080.5,1783.1l-31.7,15.7c-0.8,0.4-1.8,0.1-2.2-0.7l0,0c-0.4-0.8-0.1-1.8,0.7-2.2l31.7-15.7
			c0.8-0.4,1.8-0.1,2.2,0.7l0,0C1081.7,1781.7,1081.3,1782.7,1080.5,1783.1z"/>
	</g>
	<g>
		<path class="st2" d="M1122.5,1796.5c9.5-6.3,29.9-14.9,29.9-14.9s4.9,5.9,4.5,14.9"/>
		<path class="st3" d="M1154,1783.1l-31.7,15.7c-0.8,0.4-1.8,0.1-2.2-0.7l0,0c-0.4-0.8-0.1-1.8,0.7-2.2l31.7-15.7
			c0.8-0.4,1.8-0.1,2.2,0.7l0,0C1155.1,1781.7,1154.8,1782.7,1154,1783.1z"/>
	</g>
	<g>
		<path class="st2" d="M1360.1,1796.5c9.5-6.3,29.9-14.9,29.9-14.9s4.9,5.9,4.5,14.9"/>
		<path class="st3" d="M1391.6,1783.1l-31.7,15.7c-0.8,0.4-1.8,0.1-2.2-0.7l0,0c-0.4-0.8-0.1-1.8,0.7-2.2l31.7-15.7
			c0.8-0.4,1.8-0.1,2.2,0.7l0,0C1392.7,1781.7,1392.4,1782.7,1391.6,1783.1z"/>
	</g>
	<g>
		<path class="st2" d="M1570.8,1796.5c9.5-6.3,29.9-14.9,29.9-14.9s4.9,5.9,4.5,14.9"/>
		<path class="st3" d="M1602.3,1783.1l-31.7,15.7c-0.8,0.4-1.8,0.1-2.2-0.7l0,0c-0.4-0.8-0.1-1.8,0.7-2.2l31.7-15.7
			c0.8-0.4,1.8-0.1,2.2,0.7l0,0C1603.4,1781.7,1603.1,1782.7,1602.3,1783.1z"/>
	</g>
	<g>
		<path class="st2" d="M1854.3,1796.5c9.5-6.3,29.9-14.9,29.9-14.9s4.9,5.9,4.5,14.9"/>
		<path class="st3" d="M1885.8,1783.1l-31.7,15.7c-0.8,0.4-1.8,0.1-2.2-0.7l0,0c-0.4-0.8-0.1-1.8,0.7-2.2l31.7-15.7
			c0.8-0.4,1.8-0.1,2.2,0.7l0,0C1886.9,1781.7,1886.6,1782.7,1885.8,1783.1z"/>
	</g>
	<g>
		<path class="st2" d="M1961.4,1852.8c9.5-6.3,29.9-14.9,29.9-14.9s4.9,5.9,4.5,14.9"/>
		<path class="st3" d="M1992.9,1839.3l-31.7,15.7c-0.8,0.4-1.8,0.1-2.2-0.7l0,0c-0.4-0.8-0.1-1.8,0.7-2.2l31.7-15.7
			c0.8-0.4,1.8-0.1,2.2,0.7l0,0C1994,1838,1993.7,1838.9,1992.9,1839.3z"/>
	</g>
	<g>
		<path class="st2" d="M2136.1,1852.8c9.5-6.3,29.9-14.9,29.9-14.9s4.9,5.9,4.5,14.9"/>
		<path class="st3" d="M2167.6,1839.3l-31.7,15.7c-0.8,0.4-1.8,0.1-2.2-0.7l0,0c-0.4-0.8-0.1-1.8,0.7-2.2l31.7-15.7
			c0.8-0.4,1.8-0.1,2.2,0.7l0,0C2168.7,1838,2168.4,1838.9,2167.6,1839.3z"/>
	</g>
	<g>
		<path class="st2" d="M2335.2,1852.4c-9.7-6.1-30.2-14.2-30.2-14.2s-4.7,6.1-4.1,15"/>
		<path class="st3" d="M2303.4,1839.7l32.1,14.9c0.8,0.4,1.8,0,2.2-0.8l0,0c0.4-0.8,0-1.8-0.8-2.2l-32.1-14.9
			c-0.8-0.4-1.8,0-2.2,0.8l0,0C2302.2,1838.4,2302.6,1839.3,2303.4,1839.7z"/>
	</g>
	<g>
		<path class="st2" d="M2561.7,1852.4c-9.7-6.1-30.2-14.2-30.2-14.2s-4.7,6.1-4.1,15"/>
		<path class="st3" d="M2529.9,1839.7l32.1,14.9c0.8,0.4,1.8,0,2.2-0.8l0,0c0.4-0.8,0-1.8-0.8-2.2l-32.1-14.9
			c-0.8-0.4-1.8,0-2.2,0.8l0,0C2528.8,1838.4,2529.1,1839.3,2529.9,1839.7z"/>
	</g>
	<g>
		<path class="st2" d="M2699.2,1852.8c9.5-6.3,29.9-14.9,29.9-14.9s4.9,5.9,4.5,14.9"/>
		<path class="st3" d="M2730.7,1839.3L2699,1855c-0.8,0.4-1.8,0.1-2.2-0.7l0,0c-0.4-0.8-0.1-1.8,0.7-2.2l31.7-15.7
			c0.8-0.4,1.8-0.1,2.2,0.7l0,0C2731.8,1838,2731.5,1838.9,2730.7,1839.3z"/>
	</g>
</g>
<g id="schema_1_">
	<polygon class="st4" points="712.6,239.7 532.9,239.7 253,239.7 253,641.5 712.6,641.5 712.6,310.3 	"/>
	<polyline class="st4" points="1844.5,1502.5 1797.5,1502.5 1797.5,1549.3 1266.5,1549.3 1266.5,1603.3 1105.7,1603.3 1105.7,1549 
		653.5,1549 653.5,827.5 692.4,827.5 692.4,800.5 	"/>
	<polyline class="st4" points="691.5,757.5 691.5,732.9 253,731.5 253,1975.7 2799.8,1975.7 2799.5,1615.5 1948.3,1615.7 
		1948.3,1502.5 1900.5,1502.5 	"/>
	<polyline class="st4" points="1948.3,1615.7 1948.3,1753.3 2634.2,1753.3 2799.8,1753.3 	"/>
	<line class="st4" x1="2633.9" y1="1615.7" x2="2633.9" y2="1753.3"/>
	<line class="st4" x1="2348.8" y1="1615.7" x2="2348.8" y2="1753.3"/>
	<line class="st4" x1="2109.2" y1="1615.7" x2="2109.2" y2="1753.3"/>
	<polyline class="st4" points="1797.5,1549.3 1797.5,1725.4 253,1725.4 	"/>
	<line class="st4" x1="1669.8" y1="1549.3" x2="1669.8" y2="1725.4"/>
	<line class="st4" x1="1568.3" y1="1549.3" x2="1568.3" y2="1725.4"/>
	<line class="st4" x1="1266.5" y1="1603.3" x2="1266.5" y2="1725.4"/>
	<line class="st4" x1="1105.7" y1="1603.3" x2="1105.7" y2="1725.4"/>
	<line class="st4" x1="888.6" y1="1549" x2="888.6" y2="1725.4"/>
	<polyline class="st4" points="653.5,1725.4 653.5,1549 495.5,1549 495.5,1725.4 	"/>
	<polyline class="st4" points="253,1549.3 417,1549.3 417,1725.4 	"/>
	<polyline class="st4" points="253,1801 1948.3,1801 1948.3,1878.1 	"/>
	<line class="st4" x1="1948.3" y1="1919.8" x2="1948.3" y2="1975.7"/>
	<line class="st4" x1="1948.3" y1="1857.2" x2="2799.8" y2="1857.2"/>
	<line class="st4" x1="2633.9" y1="1862.2" x2="2633.9" y2="1975.7"/>
	<line class="st4" x1="2348.8" y1="1857.2" x2="2348.8" y2="1975.7"/>
	<line class="st4" x1="2179.8" y1="1857.2" x2="2179.8" y2="1975.7"/>
	<line class="st4" x1="2104" y1="1857.2" x2="2104" y2="1975.7"/>
	<line class="st4" x1="2036.3" y1="1909" x2="2036.3" y2="1975.7"/>
	<polyline class="st4" points="1792.2,1801 1792.2,1864.4 1792.2,1975.7 	"/>
	<line class="st4" x1="1948.3" y1="1864.4" x2="1792.2" y2="1864.4"/>
	<line class="st4" x1="1559.6" y1="1801" x2="1559.6" y2="1975.7"/>
	<line class="st4" x1="1337.9" y1="1801" x2="1337.9" y2="1975.7"/>
	<line class="st4" x1="1105.7" y1="1801" x2="1105.7" y2="1975.7"/>
	<line class="st4" x1="1028.3" y1="1801" x2="1028.3" y2="1975.7"/>
	<line class="st4" x1="807.2" y1="1801" x2="807.2" y2="1975.7"/>
	<line class="st4" x1="728" y1="1801" x2="728" y2="1829.1"/>
	<line class="st4" x1="728" y1="1860.8" x2="728" y2="1975.7"/>
	<line class="st4" x1="648.8" y1="1801" x2="648.8" y2="1975.7"/>
	<polyline class="st4" points="489.4,1975.7 489.4,1801 489.4,1787.8 	"/>
	<line class="st4" x1="495.5" y1="1549" x2="495.5" y2="1507.3"/>
	<line class="st4" x1="417" y1="1549.3" x2="417" y2="1507.3"/>
	<polyline class="st4" points="495.5,1447.5 495.5,1398.6 653.5,1398.6 	"/>
	<polyline class="st4" points="253,1084.2 490.2,1084.2 490.2,987.4 	"/>
	<polyline class="st4" points="490.2,954.3 490.2,915.4 653.5,915.4 	"/>
	<line class="st4" x1="653.5" y1="827.5" x2="492.6" y2="827.5"/>
	<line class="st4" x1="492.6" y1="732.3" x2="492.6" y2="785.1"/>
	<polyline class="st4" points="376,732.3 376,795.2 420.6,795.2 	"/>
	<polyline class="st4" points="253,827.5 376,827.5 376,843.4 420.6,843.4 420.6,919 	"/>
	<polyline class="st4" points="376,873.3 376,915.4 253,915.4 	"/>
	<polyline class="st4" points="253,993.2 376,993.2 376,958.6 	"/>
	<polyline class="st4" points="426.4,958.6 426.4,1043.6 486.8,1043.6 	"/>
	<line class="st4" x1="456.6" y1="732.3" x2="456.6" y2="768.6"/>
	<rect x="414.1" y="1170.3" class="st5" width="11.2" height="16.6"/>
	<rect x="490.1" y="1170.3" class="st5" width="11.2" height="16.6"/>
	<rect x="414.1" y="1254.6" class="st5" width="11.2" height="16.6"/>
	<rect x="490.1" y="1254.6" class="st5" width="11.2" height="16.6"/>
	<rect x="414.1" y="1337" class="st5" width="11.2" height="16.6"/>
	<rect x="490.1" y="1337" class="st5" width="11.2" height="16.6"/>
	<rect x="414.1" y="1431" class="st5" width="11.2" height="16.6"/>
	<rect x="490.1" y="1431" class="st5" width="11.2" height="16.6"/>
	<rect x="414.1" y="1084.2" class="st5" width="11.2" height="16.6"/>
	<rect x="490.1" y="1084.2" class="st5" width="11.2" height="16.6"/>
	<polyline class="st4" points="712.6,310.6 532.6,310.6 532.6,239.7 	"/>
	<polyline class="st4" points="712.6,531.7 536.8,531.7 536.8,641.5 	"/>
	<rect x="440.5" y="379" class="st4" width="7" height="7"/>
	<rect x="440.5" y="469.7" class="st4" width="7" height="7"/>
	<polyline class="st4" points="489.4,1725.4 489.4,1728.3 489.4,1742.7 	"/>
</g>
</svg>
