<?xml version="1.0" encoding="utf-8"?>
<!-- Generator: Adobe Illustrator 25.0.1, SVG Export Plug-In . SVG Version: 6.00 Build 0)  -->
<svg version="1.1" xmlns="http://www.w3.org/2000/svg" xmlns:xlink="http://www.w3.org/1999/xlink" x="0px" y="0px"
	 viewBox="0 0 3500 2550" style="enable-background:new 0 0 3500 2550;" xml:space="preserve">
<style type="text/css">
	.st0{fill:none;stroke:#4D4D4D;stroke-width:8;stroke-miterlimit:10;}
	.st1{fill:none;stroke:#4D4D4D;stroke-width:9;stroke-miterlimit:10;}
	.st2{fill:#9C8675;}
	.st3{fill:#A81A1E;}
	.st4{fill:none;stroke:#0071BC;stroke-width:3;stroke-miterlimit:10;}
	.st5{fill:#1A1A1A;}
	.st6{opacity:0.5;fill:#C1272D;}
	.st7{fill:#C1272D;}
</style>
<g id="schema">
	<path class="st0" d="M534.7,335.4"/>
	<polyline class="st1" points="721.6,335.4 534.7,335.4 534.7,2071.4 3028.7,2071.4 3028.7,1711.4 2229.7,1711.4 2229.7,1600.4 
		2179.7,1600.4 	"/>
	<path class="st0" d="M715.7,335.4"/>
	<polyline class="st1" points="2124.7,1601.4 2078.3,1601.4 2078.3,1651.3 1546.7,1651.3 1546.7,1705.4 1385.7,1705.4 
		1385.7,1653.4 772.7,1653.4 772.7,1498.4 933.7,1498.4 933.7,937.4 975,937.4 975,842.4 935.4,842.4 935.4,335.4 758.5,335.4 	"/>
	<path class="st0" d="M749.7,332.4"/>
	<line class="st1" x1="2391.2" y1="1711.4" x2="2391.2" y2="2071.4"/>
	<polyline class="st1" points="2229.7,1711.4 2229.7,1833.9 2391.2,1833.9 	"/>
	<polyline class="st1" points="2391.2,1935.8 2230.2,1935.8 2230.2,2071.4 	"/>
	<polyline class="st1" points="2078.3,1651.3 2078.3,1818.9 773.2,1819.9 772.7,1653.4 	"/>
	<polyline class="st1" points="2230.2,1935.8 2230.2,1910.7 534.7,1910.7 	"/>
	<polyline class="st1" points="534.7,1651.3 695.2,1651.3 695.2,335.4 	"/>
	<path class="st1" d="M933.7,937.4"/>
	<line class="st1" x1="772.7" y1="1498.4" x2="772.7" y2="335.4"/>
	<line class="st1" x1="2078.3" y1="2071.4" x2="2078.3" y2="1910.7"/>
	<line class="st1" x1="1954.2" y1="1651.3" x2="1954.2" y2="1819"/>
	<line class="st1" x1="1854.8" y1="1651.3" x2="1854.8" y2="1819"/>
	<line class="st1" x1="1854.8" y1="1910.7" x2="1854.8" y2="2071.4"/>
	<line class="st1" x1="1546.7" y1="1705.4" x2="1546.7" y2="1819"/>
	<line class="st1" x1="1546.7" y1="1910.7" x2="1546.7" y2="2071.4"/>
	<line class="st1" x1="1385.7" y1="1705.4" x2="1385.7" y2="1819.4"/>
	<line class="st1" x1="1385.7" y1="1910.7" x2="1385.7" y2="2071.4"/>
	<line class="st1" x1="1314.4" y1="1910.7" x2="1314.4" y2="2071.4"/>
	<line class="st1" x1="1231.3" y1="1653.4" x2="1231.3" y2="1819.5"/>
	<line class="st1" x1="1153.6" y1="1653.4" x2="1153.6" y2="1819.9"/>
	<line class="st1" x1="1173.7" y1="1910.7" x2="1173.7" y2="2071.4"/>
	<line class="st1" x1="939" y1="1910.7" x2="939" y2="2071.4"/>
	<line class="st1" x1="924.1" y1="1653.4" x2="924.1" y2="1819.9"/>
	<line class="st1" x1="772.7" y1="1910.7" x2="772.7" y2="2071.4"/>
	<line class="st1" x1="773.2" y1="1819.9" x2="755.4" y2="1819.9"/>
	<polyline class="st1" points="728.4,1819.9 696.4,1819.9 534.7,1819.9 	"/>
	<line class="st1" x1="695.2" y1="1651.3" x2="695.2" y2="1819.9"/>
	<line class="st1" x1="534.7" y1="1351.5" x2="695.2" y2="1351.5"/>
	<line class="st1" x1="534.7" y1="1267.5" x2="695.2" y2="1267.5"/>
	<line class="st1" x1="772.7" y1="1267.5" x2="933.7" y2="1267.5"/>
	<line class="st1" x1="772.7" y1="1017.9" x2="933.7" y2="1017.9"/>
	<line class="st1" x1="933.7" y1="937.4" x2="772.7" y2="937.4"/>
	<line class="st1" x1="935.4" y1="842.4" x2="772.7" y2="842.4"/>
	<line class="st1" x1="695.2" y1="842.4" x2="534.7" y2="842.4"/>
	<polyline class="st1" points="935.4,706.4 772.7,706.4 752.3,706.4 	"/>
	<line class="st1" x1="717.2" y1="706.4" x2="534.7" y2="706.4"/>
	<line class="st1" x1="772.7" y1="616.2" x2="935.4" y2="616.2"/>
	<line class="st1" x1="695.2" y1="556.2" x2="534.7" y2="556.2"/>
	<line class="st1" x1="935.4" y1="422.2" x2="749.7" y2="422.2"/>
	<line class="st1" x1="717.7" y1="422.2" x2="534.7" y2="422.2"/>
</g>
<g id="actovy">
	<rect x="2854.7" y="1716.4" class="st2" width="169" height="350"/>
	<g id="seats_4_">
		<g id="row_7_">
			<path class="st3" d="M2450.9,1761.7h-10c-2,0-3.5-1.6-3.5-3.5v-10c0-2,1.6-3.5,3.5-3.5h10c2,0,3.5,1.6,3.5,3.5v10
				C2454.4,1760.2,2452.8,1761.7,2450.9,1761.7z"/>
			<path class="st3" d="M2450.9,1781.8h-10c-2,0-3.5-1.6-3.5-3.5v-10c0-2,1.6-3.5,3.5-3.5h10c2,0,3.5,1.6,3.5,3.5v10
				C2454.4,1780.2,2452.8,1781.8,2450.9,1781.8z"/>
			<path class="st3" d="M2450.9,1801.9h-10c-2,0-3.5-1.6-3.5-3.5v-10c0-2,1.6-3.5,3.5-3.5h10c2,0,3.5,1.6,3.5,3.5v10
				C2454.4,1800.3,2452.8,1801.9,2450.9,1801.9z"/>
			<path class="st3" d="M2450.9,1824h-10c-2,0-3.5-1.6-3.5-3.5v-10c0-2,1.6-3.5,3.5-3.5h10c2,0,3.5,1.6,3.5,3.5v10
				C2454.4,1822.4,2452.8,1824,2450.9,1824z"/>
			<path class="st3" d="M2450.9,1846.1h-10c-2,0-3.5-1.6-3.5-3.5v-10c0-2,1.6-3.5,3.5-3.5h10c2,0,3.5,1.6,3.5,3.5v10
				C2454.4,1844.5,2452.8,1846.1,2450.9,1846.1z"/>
		</g>
		<g>
			<path class="st3" d="M2472.5,1761.7h-10c-2,0-3.5-1.6-3.5-3.5v-10c0-2,1.6-3.5,3.5-3.5h10c2,0,3.5,1.6,3.5,3.5v10
				C2476,1760.2,2474.4,1761.7,2472.5,1761.7z"/>
			<path class="st3" d="M2472.5,1781.8h-10c-2,0-3.5-1.6-3.5-3.5v-10c0-2,1.6-3.5,3.5-3.5h10c2,0,3.5,1.6,3.5,3.5v10
				C2476,1780.2,2474.4,1781.8,2472.5,1781.8z"/>
			<path class="st3" d="M2472.5,1801.9h-10c-2,0-3.5-1.6-3.5-3.5v-10c0-2,1.6-3.5,3.5-3.5h10c2,0,3.5,1.6,3.5,3.5v10
				C2476,1800.3,2474.4,1801.9,2472.5,1801.9z"/>
			<path class="st3" d="M2472.5,1824h-10c-2,0-3.5-1.6-3.5-3.5v-10c0-2,1.6-3.5,3.5-3.5h10c2,0,3.5,1.6,3.5,3.5v10
				C2476,1822.4,2474.4,1824,2472.5,1824z"/>
			<path class="st3" d="M2472.5,1846.1h-10c-2,0-3.5-1.6-3.5-3.5v-10c0-2,1.6-3.5,3.5-3.5h10c2,0,3.5,1.6,3.5,3.5v10
				C2476,1844.5,2474.4,1846.1,2472.5,1846.1z"/>
		</g>
		<g>
			<path class="st3" d="M2494.1,1761.7h-10c-2,0-3.5-1.6-3.5-3.5v-10c0-2,1.6-3.5,3.5-3.5h10c2,0,3.5,1.6,3.5,3.5v10
				C2497.6,1760.2,2496,1761.7,2494.1,1761.7z"/>
			<path class="st3" d="M2494.1,1781.8h-10c-2,0-3.5-1.6-3.5-3.5v-10c0-2,1.6-3.5,3.5-3.5h10c2,0,3.5,1.6,3.5,3.5v10
				C2497.6,1780.2,2496,1781.8,2494.1,1781.8z"/>
			<path class="st3" d="M2494.1,1801.9h-10c-2,0-3.5-1.6-3.5-3.5v-10c0-2,1.6-3.5,3.5-3.5h10c2,0,3.5,1.6,3.5,3.5v10
				C2497.6,1800.3,2496,1801.9,2494.1,1801.9z"/>
			<path class="st3" d="M2494.1,1824h-10c-2,0-3.5-1.6-3.5-3.5v-10c0-2,1.6-3.5,3.5-3.5h10c2,0,3.5,1.6,3.5,3.5v10
				C2497.6,1822.4,2496,1824,2494.1,1824z"/>
			<path class="st3" d="M2494.1,1846.1h-10c-2,0-3.5-1.6-3.5-3.5v-10c0-2,1.6-3.5,3.5-3.5h10c2,0,3.5,1.6,3.5,3.5v10
				C2497.6,1844.5,2496,1846.1,2494.1,1846.1z"/>
		</g>
		<g>
			<path class="st3" d="M2515.7,1761.7h-10c-2,0-3.5-1.6-3.5-3.5v-10c0-2,1.6-3.5,3.5-3.5h10c2,0,3.5,1.6,3.5,3.5v10
				C2519.2,1760.2,2517.6,1761.7,2515.7,1761.7z"/>
			<path class="st3" d="M2515.7,1781.8h-10c-2,0-3.5-1.6-3.5-3.5v-10c0-2,1.6-3.5,3.5-3.5h10c2,0,3.5,1.6,3.5,3.5v10
				C2519.2,1780.2,2517.6,1781.8,2515.7,1781.8z"/>
			<path class="st3" d="M2515.7,1801.9h-10c-2,0-3.5-1.6-3.5-3.5v-10c0-2,1.6-3.5,3.5-3.5h10c2,0,3.5,1.6,3.5,3.5v10
				C2519.2,1800.3,2517.6,1801.9,2515.7,1801.9z"/>
			<path class="st3" d="M2515.7,1824h-10c-2,0-3.5-1.6-3.5-3.5v-10c0-2,1.6-3.5,3.5-3.5h10c2,0,3.5,1.6,3.5,3.5v10
				C2519.2,1822.4,2517.6,1824,2515.7,1824z"/>
			<path class="st3" d="M2515.7,1846.1h-10c-2,0-3.5-1.6-3.5-3.5v-10c0-2,1.6-3.5,3.5-3.5h10c2,0,3.5,1.6,3.5,3.5v10
				C2519.2,1844.5,2517.6,1846.1,2515.7,1846.1z"/>
		</g>
		<g>
			<path class="st3" d="M2537.3,1761.7h-10c-2,0-3.5-1.6-3.5-3.5v-10c0-2,1.6-3.5,3.5-3.5h10c2,0,3.5,1.6,3.5,3.5v10
				C2540.8,1760.2,2539.2,1761.7,2537.3,1761.7z"/>
			<path class="st3" d="M2537.3,1781.8h-10c-2,0-3.5-1.6-3.5-3.5v-10c0-2,1.6-3.5,3.5-3.5h10c2,0,3.5,1.6,3.5,3.5v10
				C2540.8,1780.2,2539.2,1781.8,2537.3,1781.8z"/>
			<path class="st3" d="M2537.3,1801.9h-10c-2,0-3.5-1.6-3.5-3.5v-10c0-2,1.6-3.5,3.5-3.5h10c2,0,3.5,1.6,3.5,3.5v10
				C2540.8,1800.3,2539.2,1801.9,2537.3,1801.9z"/>
			<path class="st3" d="M2537.3,1824h-10c-2,0-3.5-1.6-3.5-3.5v-10c0-2,1.6-3.5,3.5-3.5h10c2,0,3.5,1.6,3.5,3.5v10
				C2540.8,1822.4,2539.2,1824,2537.3,1824z"/>
			<path class="st3" d="M2537.3,1846.1h-10c-2,0-3.5-1.6-3.5-3.5v-10c0-2,1.6-3.5,3.5-3.5h10c2,0,3.5,1.6,3.5,3.5v10
				C2540.8,1844.5,2539.2,1846.1,2537.3,1846.1z"/>
		</g>
		<g>
			<path class="st3" d="M2558.9,1761.7h-10c-2,0-3.5-1.6-3.5-3.5v-10c0-2,1.6-3.5,3.5-3.5h10c2,0,3.5,1.6,3.5,3.5v10
				C2562.4,1760.2,2560.8,1761.7,2558.9,1761.7z"/>
			<path class="st3" d="M2558.9,1781.8h-10c-2,0-3.5-1.6-3.5-3.5v-10c0-2,1.6-3.5,3.5-3.5h10c2,0,3.5,1.6,3.5,3.5v10
				C2562.4,1780.2,2560.8,1781.8,2558.9,1781.8z"/>
			<path class="st3" d="M2558.9,1801.9h-10c-2,0-3.5-1.6-3.5-3.5v-10c0-2,1.6-3.5,3.5-3.5h10c2,0,3.5,1.6,3.5,3.5v10
				C2562.4,1800.3,2560.8,1801.9,2558.9,1801.9z"/>
			<path class="st3" d="M2558.9,1824h-10c-2,0-3.5-1.6-3.5-3.5v-10c0-2,1.6-3.5,3.5-3.5h10c2,0,3.5,1.6,3.5,3.5v10
				C2562.4,1822.4,2560.8,1824,2558.9,1824z"/>
			<path class="st3" d="M2558.9,1846.1h-10c-2,0-3.5-1.6-3.5-3.5v-10c0-2,1.6-3.5,3.5-3.5h10c2,0,3.5,1.6,3.5,3.5v10
				C2562.4,1844.5,2560.8,1846.1,2558.9,1846.1z"/>
		</g>
		<g>
			<path class="st3" d="M2580.5,1761.7h-10c-2,0-3.5-1.6-3.5-3.5v-10c0-2,1.6-3.5,3.5-3.5h10c2,0,3.5,1.6,3.5,3.5v10
				C2584,1760.2,2582.4,1761.7,2580.5,1761.7z"/>
			<path class="st3" d="M2580.5,1781.8h-10c-2,0-3.5-1.6-3.5-3.5v-10c0-2,1.6-3.5,3.5-3.5h10c2,0,3.5,1.6,3.5,3.5v10
				C2584,1780.2,2582.4,1781.8,2580.5,1781.8z"/>
			<path class="st3" d="M2580.5,1801.9h-10c-2,0-3.5-1.6-3.5-3.5v-10c0-2,1.6-3.5,3.5-3.5h10c2,0,3.5,1.6,3.5,3.5v10
				C2584,1800.3,2582.4,1801.9,2580.5,1801.9z"/>
			<path class="st3" d="M2580.5,1824h-10c-2,0-3.5-1.6-3.5-3.5v-10c0-2,1.6-3.5,3.5-3.5h10c2,0,3.5,1.6,3.5,3.5v10
				C2584,1822.4,2582.4,1824,2580.5,1824z"/>
			<path class="st3" d="M2580.5,1846.1h-10c-2,0-3.5-1.6-3.5-3.5v-10c0-2,1.6-3.5,3.5-3.5h10c2,0,3.5,1.6,3.5,3.5v10
				C2584,1844.5,2582.4,1846.1,2580.5,1846.1z"/>
		</g>
		<g>
			<path class="st3" d="M2602.1,1761.7h-10c-2,0-3.5-1.6-3.5-3.5v-10c0-2,1.6-3.5,3.5-3.5h10c2,0,3.5,1.6,3.5,3.5v10
				C2605.6,1760.2,2604,1761.7,2602.1,1761.7z"/>
			<path class="st3" d="M2602.1,1781.8h-10c-2,0-3.5-1.6-3.5-3.5v-10c0-2,1.6-3.5,3.5-3.5h10c2,0,3.5,1.6,3.5,3.5v10
				C2605.6,1780.2,2604,1781.8,2602.1,1781.8z"/>
			<path class="st3" d="M2602.1,1801.9h-10c-2,0-3.5-1.6-3.5-3.5v-10c0-2,1.6-3.5,3.5-3.5h10c2,0,3.5,1.6,3.5,3.5v10
				C2605.6,1800.3,2604,1801.9,2602.1,1801.9z"/>
			<path class="st3" d="M2602.1,1824h-10c-2,0-3.5-1.6-3.5-3.5v-10c0-2,1.6-3.5,3.5-3.5h10c2,0,3.5,1.6,3.5,3.5v10
				C2605.6,1822.4,2604,1824,2602.1,1824z"/>
			<path class="st3" d="M2602.1,1846.1h-10c-2,0-3.5-1.6-3.5-3.5v-10c0-2,1.6-3.5,3.5-3.5h10c2,0,3.5,1.6,3.5,3.5v10
				C2605.6,1844.5,2604,1846.1,2602.1,1846.1z"/>
		</g>
		<g>
			<path class="st3" d="M2623.7,1761.7h-10c-2,0-3.5-1.6-3.5-3.5v-10c0-2,1.6-3.5,3.5-3.5h10c2,0,3.5,1.6,3.5,3.5v10
				C2627.2,1760.2,2625.6,1761.7,2623.7,1761.7z"/>
			<path class="st3" d="M2623.7,1781.8h-10c-2,0-3.5-1.6-3.5-3.5v-10c0-2,1.6-3.5,3.5-3.5h10c2,0,3.5,1.6,3.5,3.5v10
				C2627.2,1780.2,2625.6,1781.8,2623.7,1781.8z"/>
			<path class="st3" d="M2623.7,1801.9h-10c-2,0-3.5-1.6-3.5-3.5v-10c0-2,1.6-3.5,3.5-3.5h10c2,0,3.5,1.6,3.5,3.5v10
				C2627.2,1800.3,2625.6,1801.9,2623.7,1801.9z"/>
			<path class="st3" d="M2623.7,1824h-10c-2,0-3.5-1.6-3.5-3.5v-10c0-2,1.6-3.5,3.5-3.5h10c2,0,3.5,1.6,3.5,3.5v10
				C2627.2,1822.4,2625.6,1824,2623.7,1824z"/>
			<path class="st3" d="M2623.7,1846.1h-10c-2,0-3.5-1.6-3.5-3.5v-10c0-2,1.6-3.5,3.5-3.5h10c2,0,3.5,1.6,3.5,3.5v10
				C2627.2,1844.5,2625.6,1846.1,2623.7,1846.1z"/>
		</g>
		<g>
			<path class="st3" d="M2645.3,1761.7h-10c-2,0-3.5-1.6-3.5-3.5v-10c0-2,1.6-3.5,3.5-3.5h10c2,0,3.5,1.6,3.5,3.5v10
				C2648.8,1760.2,2647.2,1761.7,2645.3,1761.7z"/>
			<path class="st3" d="M2645.3,1781.8h-10c-2,0-3.5-1.6-3.5-3.5v-10c0-2,1.6-3.5,3.5-3.5h10c2,0,3.5,1.6,3.5,3.5v10
				C2648.8,1780.2,2647.2,1781.8,2645.3,1781.8z"/>
			<path class="st3" d="M2645.3,1801.9h-10c-2,0-3.5-1.6-3.5-3.5v-10c0-2,1.6-3.5,3.5-3.5h10c2,0,3.5,1.6,3.5,3.5v10
				C2648.8,1800.3,2647.2,1801.9,2645.3,1801.9z"/>
			<path class="st3" d="M2645.3,1824h-10c-2,0-3.5-1.6-3.5-3.5v-10c0-2,1.6-3.5,3.5-3.5h10c2,0,3.5,1.6,3.5,3.5v10
				C2648.8,1822.4,2647.2,1824,2645.3,1824z"/>
			<path class="st3" d="M2645.3,1846.1h-10c-2,0-3.5-1.6-3.5-3.5v-10c0-2,1.6-3.5,3.5-3.5h10c2,0,3.5,1.6,3.5,3.5v10
				C2648.8,1844.5,2647.2,1846.1,2645.3,1846.1z"/>
		</g>
		<g>
			<path class="st3" d="M2666.9,1761.7h-10c-2,0-3.5-1.6-3.5-3.5v-10c0-2,1.6-3.5,3.5-3.5h10c2,0,3.5,1.6,3.5,3.5v10
				C2670.4,1760.2,2668.8,1761.7,2666.9,1761.7z"/>
			<path class="st3" d="M2666.9,1781.8h-10c-2,0-3.5-1.6-3.5-3.5v-10c0-2,1.6-3.5,3.5-3.5h10c2,0,3.5,1.6,3.5,3.5v10
				C2670.4,1780.2,2668.8,1781.8,2666.9,1781.8z"/>
			<path class="st3" d="M2666.9,1801.9h-10c-2,0-3.5-1.6-3.5-3.5v-10c0-2,1.6-3.5,3.5-3.5h10c2,0,3.5,1.6,3.5,3.5v10
				C2670.4,1800.3,2668.8,1801.9,2666.9,1801.9z"/>
			<path class="st3" d="M2666.9,1824h-10c-2,0-3.5-1.6-3.5-3.5v-10c0-2,1.6-3.5,3.5-3.5h10c2,0,3.5,1.6,3.5,3.5v10
				C2670.4,1822.4,2668.8,1824,2666.9,1824z"/>
			<path class="st3" d="M2666.9,1846.1h-10c-2,0-3.5-1.6-3.5-3.5v-10c0-2,1.6-3.5,3.5-3.5h10c2,0,3.5,1.6,3.5,3.5v10
				C2670.4,1844.5,2668.8,1846.1,2666.9,1846.1z"/>
		</g>
		<g>
			<path class="st3" d="M2688.5,1761.7h-10c-2,0-3.5-1.6-3.5-3.5v-10c0-2,1.6-3.5,3.5-3.5h10c2,0,3.5,1.6,3.5,3.5v10
				C2692,1760.2,2690.4,1761.7,2688.5,1761.7z"/>
			<path class="st3" d="M2688.5,1781.8h-10c-2,0-3.5-1.6-3.5-3.5v-10c0-2,1.6-3.5,3.5-3.5h10c2,0,3.5,1.6,3.5,3.5v10
				C2692,1780.2,2690.4,1781.8,2688.5,1781.8z"/>
			<path class="st3" d="M2688.5,1801.9h-10c-2,0-3.5-1.6-3.5-3.5v-10c0-2,1.6-3.5,3.5-3.5h10c2,0,3.5,1.6,3.5,3.5v10
				C2692,1800.3,2690.4,1801.9,2688.5,1801.9z"/>
			<path class="st3" d="M2688.5,1824h-10c-2,0-3.5-1.6-3.5-3.5v-10c0-2,1.6-3.5,3.5-3.5h10c2,0,3.5,1.6,3.5,3.5v10
				C2692,1822.4,2690.4,1824,2688.5,1824z"/>
			<path class="st3" d="M2688.5,1846.1h-10c-2,0-3.5-1.6-3.5-3.5v-10c0-2,1.6-3.5,3.5-3.5h10c2,0,3.5,1.6,3.5,3.5v10
				C2692,1844.5,2690.4,1846.1,2688.5,1846.1z"/>
		</g>
		<g>
			<path class="st3" d="M2710.1,1761.7h-10c-2,0-3.5-1.6-3.5-3.5v-10c0-2,1.6-3.5,3.5-3.5h10c2,0,3.5,1.6,3.5,3.5v10
				C2713.6,1760.2,2712,1761.7,2710.1,1761.7z"/>
			<path class="st3" d="M2710.1,1781.8h-10c-2,0-3.5-1.6-3.5-3.5v-10c0-2,1.6-3.5,3.5-3.5h10c2,0,3.5,1.6,3.5,3.5v10
				C2713.6,1780.2,2712,1781.8,2710.1,1781.8z"/>
			<path class="st3" d="M2710.1,1801.9h-10c-2,0-3.5-1.6-3.5-3.5v-10c0-2,1.6-3.5,3.5-3.5h10c2,0,3.5,1.6,3.5,3.5v10
				C2713.6,1800.3,2712,1801.9,2710.1,1801.9z"/>
			<path class="st3" d="M2710.1,1824h-10c-2,0-3.5-1.6-3.5-3.5v-10c0-2,1.6-3.5,3.5-3.5h10c2,0,3.5,1.6,3.5,3.5v10
				C2713.6,1822.4,2712,1824,2710.1,1824z"/>
			<path class="st3" d="M2710.1,1846.1h-10c-2,0-3.5-1.6-3.5-3.5v-10c0-2,1.6-3.5,3.5-3.5h10c2,0,3.5,1.6,3.5,3.5v10
				C2713.6,1844.5,2712,1846.1,2710.1,1846.1z"/>
		</g>
		<g>
			<path class="st3" d="M2731.7,1761.7h-10c-2,0-3.5-1.6-3.5-3.5v-10c0-2,1.6-3.5,3.5-3.5h10c2,0,3.5,1.6,3.5,3.5v10
				C2735.2,1760.2,2733.6,1761.7,2731.7,1761.7z"/>
			<path class="st3" d="M2731.7,1781.8h-10c-2,0-3.5-1.6-3.5-3.5v-10c0-2,1.6-3.5,3.5-3.5h10c2,0,3.5,1.6,3.5,3.5v10
				C2735.2,1780.2,2733.6,1781.8,2731.7,1781.8z"/>
			<path class="st3" d="M2731.7,1801.9h-10c-2,0-3.5-1.6-3.5-3.5v-10c0-2,1.6-3.5,3.5-3.5h10c2,0,3.5,1.6,3.5,3.5v10
				C2735.2,1800.3,2733.6,1801.9,2731.7,1801.9z"/>
			<path class="st3" d="M2731.7,1824h-10c-2,0-3.5-1.6-3.5-3.5v-10c0-2,1.6-3.5,3.5-3.5h10c2,0,3.5,1.6,3.5,3.5v10
				C2735.2,1822.4,2733.6,1824,2731.7,1824z"/>
			<path class="st3" d="M2731.7,1846.1h-10c-2,0-3.5-1.6-3.5-3.5v-10c0-2,1.6-3.5,3.5-3.5h10c2,0,3.5,1.6,3.5,3.5v10
				C2735.2,1844.5,2733.6,1846.1,2731.7,1846.1z"/>
		</g>
		<g>
			<path class="st3" d="M2753.3,1761.7h-10c-2,0-3.5-1.6-3.5-3.5v-10c0-2,1.6-3.5,3.5-3.5h10c2,0,3.5,1.6,3.5,3.5v10
				C2756.8,1760.2,2755.2,1761.7,2753.3,1761.7z"/>
			<path class="st3" d="M2753.3,1781.8h-10c-2,0-3.5-1.6-3.5-3.5v-10c0-2,1.6-3.5,3.5-3.5h10c2,0,3.5,1.6,3.5,3.5v10
				C2756.8,1780.2,2755.2,1781.8,2753.3,1781.8z"/>
			<path class="st3" d="M2753.3,1801.9h-10c-2,0-3.5-1.6-3.5-3.5v-10c0-2,1.6-3.5,3.5-3.5h10c2,0,3.5,1.6,3.5,3.5v10
				C2756.8,1800.3,2755.2,1801.9,2753.3,1801.9z"/>
			<path class="st3" d="M2753.3,1824h-10c-2,0-3.5-1.6-3.5-3.5v-10c0-2,1.6-3.5,3.5-3.5h10c2,0,3.5,1.6,3.5,3.5v10
				C2756.8,1822.4,2755.2,1824,2753.3,1824z"/>
			<path class="st3" d="M2753.3,1846.1h-10c-2,0-3.5-1.6-3.5-3.5v-10c0-2,1.6-3.5,3.5-3.5h10c2,0,3.5,1.6,3.5,3.5v10
				C2756.8,1844.5,2755.2,1846.1,2753.3,1846.1z"/>
		</g>
		<g id="row_6_">
			<path class="st3" d="M2774.9,1761.7h-10c-2,0-3.5-1.6-3.5-3.5v-10c0-2,1.6-3.5,3.5-3.5h10c2,0,3.5,1.6,3.5,3.5v10
				C2778.4,1760.2,2776.8,1761.7,2774.9,1761.7z"/>
			<path class="st3" d="M2774.9,1781.8h-10c-2,0-3.5-1.6-3.5-3.5v-10c0-2,1.6-3.5,3.5-3.5h10c2,0,3.5,1.6,3.5,3.5v10
				C2778.4,1780.2,2776.8,1781.8,2774.9,1781.8z"/>
			<path class="st3" d="M2774.9,1801.9h-10c-2,0-3.5-1.6-3.5-3.5v-10c0-2,1.6-3.5,3.5-3.5h10c2,0,3.5,1.6,3.5,3.5v10
				C2778.4,1800.3,2776.8,1801.9,2774.9,1801.9z"/>
			<path class="st3" d="M2774.9,1824h-10c-2,0-3.5-1.6-3.5-3.5v-10c0-2,1.6-3.5,3.5-3.5h10c2,0,3.5,1.6,3.5,3.5v10
				C2778.4,1822.4,2776.8,1824,2774.9,1824z"/>
			<path class="st3" d="M2774.9,1846.1h-10c-2,0-3.5-1.6-3.5-3.5v-10c0-2,1.6-3.5,3.5-3.5h10c2,0,3.5,1.6,3.5,3.5v10
				C2778.4,1844.5,2776.8,1846.1,2774.9,1846.1z"/>
		</g>
	</g>
	<g id="seats_1_">
		<g id="row_3_">
			<path class="st3" d="M2450.9,1936.7h-10c-2,0-3.5-1.6-3.5-3.5v-10c0-2,1.6-3.5,3.5-3.5h10c2,0,3.5,1.6,3.5,3.5v10
				C2454.4,1935.1,2452.8,1936.7,2450.9,1936.7z"/>
			<path class="st3" d="M2450.9,1956.8h-10c-2,0-3.5-1.6-3.5-3.5v-10c0-2,1.6-3.5,3.5-3.5h10c2,0,3.5,1.6,3.5,3.5v10
				C2454.4,1955.2,2452.8,1956.8,2450.9,1956.8z"/>
			<path class="st3" d="M2450.9,1976.8h-10c-2,0-3.5-1.6-3.5-3.5v-10c0-2,1.6-3.5,3.5-3.5h10c2,0,3.5,1.6,3.5,3.5v10
				C2454.4,1975.3,2452.8,1976.8,2450.9,1976.8z"/>
			<path class="st3" d="M2450.9,1998.9h-10c-2,0-3.5-1.6-3.5-3.5v-10c0-2,1.6-3.5,3.5-3.5h10c2,0,3.5,1.6,3.5,3.5v10
				C2454.4,1997.4,2452.8,1998.9,2450.9,1998.9z"/>
			<path class="st3" d="M2450.9,2021.1h-10c-2,0-3.5-1.6-3.5-3.5v-10c0-2,1.6-3.5,3.5-3.5h10c2,0,3.5,1.6,3.5,3.5v10
				C2454.4,2019.5,2452.8,2021.1,2450.9,2021.1z"/>
		</g>
		<g>
			<path class="st3" d="M2472.5,1936.7h-10c-2,0-3.5-1.6-3.5-3.5v-10c0-2,1.6-3.5,3.5-3.5h10c2,0,3.5,1.6,3.5,3.5v10
				C2476,1935.1,2474.4,1936.7,2472.5,1936.7z"/>
			<path class="st3" d="M2472.5,1956.8h-10c-2,0-3.5-1.6-3.5-3.5v-10c0-2,1.6-3.5,3.5-3.5h10c2,0,3.5,1.6,3.5,3.5v10
				C2476,1955.2,2474.4,1956.8,2472.5,1956.8z"/>
			<path class="st3" d="M2472.5,1976.8h-10c-2,0-3.5-1.6-3.5-3.5v-10c0-2,1.6-3.5,3.5-3.5h10c2,0,3.5,1.6,3.5,3.5v10
				C2476,1975.3,2474.4,1976.8,2472.5,1976.8z"/>
			<path class="st3" d="M2472.5,1998.9h-10c-2,0-3.5-1.6-3.5-3.5v-10c0-2,1.6-3.5,3.5-3.5h10c2,0,3.5,1.6,3.5,3.5v10
				C2476,1997.4,2474.4,1998.9,2472.5,1998.9z"/>
			<path class="st3" d="M2472.5,2021.1h-10c-2,0-3.5-1.6-3.5-3.5v-10c0-2,1.6-3.5,3.5-3.5h10c2,0,3.5,1.6,3.5,3.5v10
				C2476,2019.5,2474.4,2021.1,2472.5,2021.1z"/>
		</g>
		<g>
			<path class="st3" d="M2494.1,1936.7h-10c-2,0-3.5-1.6-3.5-3.5v-10c0-2,1.6-3.5,3.5-3.5h10c2,0,3.5,1.6,3.5,3.5v10
				C2497.6,1935.1,2496,1936.7,2494.1,1936.7z"/>
			<path class="st3" d="M2494.1,1956.8h-10c-2,0-3.5-1.6-3.5-3.5v-10c0-2,1.6-3.5,3.5-3.5h10c2,0,3.5,1.6,3.5,3.5v10
				C2497.6,1955.2,2496,1956.8,2494.1,1956.8z"/>
			<path class="st3" d="M2494.1,1976.8h-10c-2,0-3.5-1.6-3.5-3.5v-10c0-2,1.6-3.5,3.5-3.5h10c2,0,3.5,1.6,3.5,3.5v10
				C2497.6,1975.3,2496,1976.8,2494.1,1976.8z"/>
			<path class="st3" d="M2494.1,1998.9h-10c-2,0-3.5-1.6-3.5-3.5v-10c0-2,1.6-3.5,3.5-3.5h10c2,0,3.5,1.6,3.5,3.5v10
				C2497.6,1997.4,2496,1998.9,2494.1,1998.9z"/>
			<path class="st3" d="M2494.1,2021.1h-10c-2,0-3.5-1.6-3.5-3.5v-10c0-2,1.6-3.5,3.5-3.5h10c2,0,3.5,1.6,3.5,3.5v10
				C2497.6,2019.5,2496,2021.1,2494.1,2021.1z"/>
		</g>
		<g>
			<path class="st3" d="M2515.7,1936.7h-10c-2,0-3.5-1.6-3.5-3.5v-10c0-2,1.6-3.5,3.5-3.5h10c2,0,3.5,1.6,3.5,3.5v10
				C2519.2,1935.1,2517.6,1936.7,2515.7,1936.7z"/>
			<path class="st3" d="M2515.7,1956.8h-10c-2,0-3.5-1.6-3.5-3.5v-10c0-2,1.6-3.5,3.5-3.5h10c2,0,3.5,1.6,3.5,3.5v10
				C2519.2,1955.2,2517.6,1956.8,2515.7,1956.8z"/>
			<path class="st3" d="M2515.7,1976.8h-10c-2,0-3.5-1.6-3.5-3.5v-10c0-2,1.6-3.5,3.5-3.5h10c2,0,3.5,1.6,3.5,3.5v10
				C2519.2,1975.3,2517.6,1976.8,2515.7,1976.8z"/>
			<path class="st3" d="M2515.7,1998.9h-10c-2,0-3.5-1.6-3.5-3.5v-10c0-2,1.6-3.5,3.5-3.5h10c2,0,3.5,1.6,3.5,3.5v10
				C2519.2,1997.4,2517.6,1998.9,2515.7,1998.9z"/>
			<path class="st3" d="M2515.7,2021.1h-10c-2,0-3.5-1.6-3.5-3.5v-10c0-2,1.6-3.5,3.5-3.5h10c2,0,3.5,1.6,3.5,3.5v10
				C2519.2,2019.5,2517.6,2021.1,2515.7,2021.1z"/>
		</g>
		<g>
			<path class="st3" d="M2537.3,1936.7h-10c-2,0-3.5-1.6-3.5-3.5v-10c0-2,1.6-3.5,3.5-3.5h10c2,0,3.5,1.6,3.5,3.5v10
				C2540.8,1935.1,2539.2,1936.7,2537.3,1936.7z"/>
			<path class="st3" d="M2537.3,1956.8h-10c-2,0-3.5-1.6-3.5-3.5v-10c0-2,1.6-3.5,3.5-3.5h10c2,0,3.5,1.6,3.5,3.5v10
				C2540.8,1955.2,2539.2,1956.8,2537.3,1956.8z"/>
			<path class="st3" d="M2537.3,1976.8h-10c-2,0-3.5-1.6-3.5-3.5v-10c0-2,1.6-3.5,3.5-3.5h10c2,0,3.5,1.6,3.5,3.5v10
				C2540.8,1975.3,2539.2,1976.8,2537.3,1976.8z"/>
			<path class="st3" d="M2537.3,1998.9h-10c-2,0-3.5-1.6-3.5-3.5v-10c0-2,1.6-3.5,3.5-3.5h10c2,0,3.5,1.6,3.5,3.5v10
				C2540.8,1997.4,2539.2,1998.9,2537.3,1998.9z"/>
			<path class="st3" d="M2537.3,2021.1h-10c-2,0-3.5-1.6-3.5-3.5v-10c0-2,1.6-3.5,3.5-3.5h10c2,0,3.5,1.6,3.5,3.5v10
				C2540.8,2019.5,2539.2,2021.1,2537.3,2021.1z"/>
		</g>
		<g>
			<path class="st3" d="M2558.9,1936.7h-10c-2,0-3.5-1.6-3.5-3.5v-10c0-2,1.6-3.5,3.5-3.5h10c2,0,3.5,1.6,3.5,3.5v10
				C2562.4,1935.1,2560.8,1936.7,2558.9,1936.7z"/>
			<path class="st3" d="M2558.9,1956.8h-10c-2,0-3.5-1.6-3.5-3.5v-10c0-2,1.6-3.5,3.5-3.5h10c2,0,3.5,1.6,3.5,3.5v10
				C2562.4,1955.2,2560.8,1956.8,2558.9,1956.8z"/>
			<path class="st3" d="M2558.9,1976.8h-10c-2,0-3.5-1.6-3.5-3.5v-10c0-2,1.6-3.5,3.5-3.5h10c2,0,3.5,1.6,3.5,3.5v10
				C2562.4,1975.3,2560.8,1976.8,2558.9,1976.8z"/>
			<path class="st3" d="M2558.9,1998.9h-10c-2,0-3.5-1.6-3.5-3.5v-10c0-2,1.6-3.5,3.5-3.5h10c2,0,3.5,1.6,3.5,3.5v10
				C2562.4,1997.4,2560.8,1998.9,2558.9,1998.9z"/>
			<path class="st3" d="M2558.9,2021.1h-10c-2,0-3.5-1.6-3.5-3.5v-10c0-2,1.6-3.5,3.5-3.5h10c2,0,3.5,1.6,3.5,3.5v10
				C2562.4,2019.5,2560.8,2021.1,2558.9,2021.1z"/>
		</g>
		<g>
			<path class="st3" d="M2580.5,1936.7h-10c-2,0-3.5-1.6-3.5-3.5v-10c0-2,1.6-3.5,3.5-3.5h10c2,0,3.5,1.6,3.5,3.5v10
				C2584,1935.1,2582.4,1936.7,2580.5,1936.7z"/>
			<path class="st3" d="M2580.5,1956.8h-10c-2,0-3.5-1.6-3.5-3.5v-10c0-2,1.6-3.5,3.5-3.5h10c2,0,3.5,1.6,3.5,3.5v10
				C2584,1955.2,2582.4,1956.8,2580.5,1956.8z"/>
			<path class="st3" d="M2580.5,1976.8h-10c-2,0-3.5-1.6-3.5-3.5v-10c0-2,1.6-3.5,3.5-3.5h10c2,0,3.5,1.6,3.5,3.5v10
				C2584,1975.3,2582.4,1976.8,2580.5,1976.8z"/>
			<path class="st3" d="M2580.5,1998.9h-10c-2,0-3.5-1.6-3.5-3.5v-10c0-2,1.6-3.5,3.5-3.5h10c2,0,3.5,1.6,3.5,3.5v10
				C2584,1997.4,2582.4,1998.9,2580.5,1998.9z"/>
			<path class="st3" d="M2580.5,2021.1h-10c-2,0-3.5-1.6-3.5-3.5v-10c0-2,1.6-3.5,3.5-3.5h10c2,0,3.5,1.6,3.5,3.5v10
				C2584,2019.5,2582.4,2021.1,2580.5,2021.1z"/>
		</g>
		<g>
			<path class="st3" d="M2602.1,1936.7h-10c-2,0-3.5-1.6-3.5-3.5v-10c0-2,1.6-3.5,3.5-3.5h10c2,0,3.5,1.6,3.5,3.5v10
				C2605.6,1935.1,2604,1936.7,2602.1,1936.7z"/>
			<path class="st3" d="M2602.1,1956.8h-10c-2,0-3.5-1.6-3.5-3.5v-10c0-2,1.6-3.5,3.5-3.5h10c2,0,3.5,1.6,3.5,3.5v10
				C2605.6,1955.2,2604,1956.8,2602.1,1956.8z"/>
			<path class="st3" d="M2602.1,1976.8h-10c-2,0-3.5-1.6-3.5-3.5v-10c0-2,1.6-3.5,3.5-3.5h10c2,0,3.5,1.6,3.5,3.5v10
				C2605.6,1975.3,2604,1976.8,2602.1,1976.8z"/>
			<path class="st3" d="M2602.1,1998.9h-10c-2,0-3.5-1.6-3.5-3.5v-10c0-2,1.6-3.5,3.5-3.5h10c2,0,3.5,1.6,3.5,3.5v10
				C2605.6,1997.4,2604,1998.9,2602.1,1998.9z"/>
			<path class="st3" d="M2602.1,2021.1h-10c-2,0-3.5-1.6-3.5-3.5v-10c0-2,1.6-3.5,3.5-3.5h10c2,0,3.5,1.6,3.5,3.5v10
				C2605.6,2019.5,2604,2021.1,2602.1,2021.1z"/>
		</g>
		<g>
			<path class="st3" d="M2623.7,1936.7h-10c-2,0-3.5-1.6-3.5-3.5v-10c0-2,1.6-3.5,3.5-3.5h10c2,0,3.5,1.6,3.5,3.5v10
				C2627.2,1935.1,2625.6,1936.7,2623.7,1936.7z"/>
			<path class="st3" d="M2623.7,1956.8h-10c-2,0-3.5-1.6-3.5-3.5v-10c0-2,1.6-3.5,3.5-3.5h10c2,0,3.5,1.6,3.5,3.5v10
				C2627.2,1955.2,2625.6,1956.8,2623.7,1956.8z"/>
			<path class="st3" d="M2623.7,1976.8h-10c-2,0-3.5-1.6-3.5-3.5v-10c0-2,1.6-3.5,3.5-3.5h10c2,0,3.5,1.6,3.5,3.5v10
				C2627.2,1975.3,2625.6,1976.8,2623.7,1976.8z"/>
			<path class="st3" d="M2623.7,1998.9h-10c-2,0-3.5-1.6-3.5-3.5v-10c0-2,1.6-3.5,3.5-3.5h10c2,0,3.5,1.6,3.5,3.5v10
				C2627.2,1997.4,2625.6,1998.9,2623.7,1998.9z"/>
			<path class="st3" d="M2623.7,2021.1h-10c-2,0-3.5-1.6-3.5-3.5v-10c0-2,1.6-3.5,3.5-3.5h10c2,0,3.5,1.6,3.5,3.5v10
				C2627.2,2019.5,2625.6,2021.1,2623.7,2021.1z"/>
		</g>
		<g>
			<path class="st3" d="M2645.3,1936.7h-10c-2,0-3.5-1.6-3.5-3.5v-10c0-2,1.6-3.5,3.5-3.5h10c2,0,3.5,1.6,3.5,3.5v10
				C2648.8,1935.1,2647.2,1936.7,2645.3,1936.7z"/>
			<path class="st3" d="M2645.3,1956.8h-10c-2,0-3.5-1.6-3.5-3.5v-10c0-2,1.6-3.5,3.5-3.5h10c2,0,3.5,1.6,3.5,3.5v10
				C2648.8,1955.2,2647.2,1956.8,2645.3,1956.8z"/>
			<path class="st3" d="M2645.3,1976.8h-10c-2,0-3.5-1.6-3.5-3.5v-10c0-2,1.6-3.5,3.5-3.5h10c2,0,3.5,1.6,3.5,3.5v10
				C2648.8,1975.3,2647.2,1976.8,2645.3,1976.8z"/>
			<path class="st3" d="M2645.3,1998.9h-10c-2,0-3.5-1.6-3.5-3.5v-10c0-2,1.6-3.5,3.5-3.5h10c2,0,3.5,1.6,3.5,3.5v10
				C2648.8,1997.4,2647.2,1998.9,2645.3,1998.9z"/>
			<path class="st3" d="M2645.3,2021.1h-10c-2,0-3.5-1.6-3.5-3.5v-10c0-2,1.6-3.5,3.5-3.5h10c2,0,3.5,1.6,3.5,3.5v10
				C2648.8,2019.5,2647.2,2021.1,2645.3,2021.1z"/>
		</g>
		<g>
			<path class="st3" d="M2666.9,1936.7h-10c-2,0-3.5-1.6-3.5-3.5v-10c0-2,1.6-3.5,3.5-3.5h10c2,0,3.5,1.6,3.5,3.5v10
				C2670.4,1935.1,2668.8,1936.7,2666.9,1936.7z"/>
			<path class="st3" d="M2666.9,1956.8h-10c-2,0-3.5-1.6-3.5-3.5v-10c0-2,1.6-3.5,3.5-3.5h10c2,0,3.5,1.6,3.5,3.5v10
				C2670.4,1955.2,2668.8,1956.8,2666.9,1956.8z"/>
			<path class="st3" d="M2666.9,1976.8h-10c-2,0-3.5-1.6-3.5-3.5v-10c0-2,1.6-3.5,3.5-3.5h10c2,0,3.5,1.6,3.5,3.5v10
				C2670.4,1975.3,2668.8,1976.8,2666.9,1976.8z"/>
			<path class="st3" d="M2666.9,1998.9h-10c-2,0-3.5-1.6-3.5-3.5v-10c0-2,1.6-3.5,3.5-3.5h10c2,0,3.5,1.6,3.5,3.5v10
				C2670.4,1997.4,2668.8,1998.9,2666.9,1998.9z"/>
			<path class="st3" d="M2666.9,2021.1h-10c-2,0-3.5-1.6-3.5-3.5v-10c0-2,1.6-3.5,3.5-3.5h10c2,0,3.5,1.6,3.5,3.5v10
				C2670.4,2019.5,2668.8,2021.1,2666.9,2021.1z"/>
		</g>
		<g>
			<path class="st3" d="M2688.5,1936.7h-10c-2,0-3.5-1.6-3.5-3.5v-10c0-2,1.6-3.5,3.5-3.5h10c2,0,3.5,1.6,3.5,3.5v10
				C2692,1935.1,2690.4,1936.7,2688.5,1936.7z"/>
			<path class="st3" d="M2688.5,1956.8h-10c-2,0-3.5-1.6-3.5-3.5v-10c0-2,1.6-3.5,3.5-3.5h10c2,0,3.5,1.6,3.5,3.5v10
				C2692,1955.2,2690.4,1956.8,2688.5,1956.8z"/>
			<path class="st3" d="M2688.5,1976.8h-10c-2,0-3.5-1.6-3.5-3.5v-10c0-2,1.6-3.5,3.5-3.5h10c2,0,3.5,1.6,3.5,3.5v10
				C2692,1975.3,2690.4,1976.8,2688.5,1976.8z"/>
			<path class="st3" d="M2688.5,1998.9h-10c-2,0-3.5-1.6-3.5-3.5v-10c0-2,1.6-3.5,3.5-3.5h10c2,0,3.5,1.6,3.5,3.5v10
				C2692,1997.4,2690.4,1998.9,2688.5,1998.9z"/>
			<path class="st3" d="M2688.5,2021.1h-10c-2,0-3.5-1.6-3.5-3.5v-10c0-2,1.6-3.5,3.5-3.5h10c2,0,3.5,1.6,3.5,3.5v10
				C2692,2019.5,2690.4,2021.1,2688.5,2021.1z"/>
		</g>
		<g>
			<path class="st3" d="M2710.1,1936.7h-10c-2,0-3.5-1.6-3.5-3.5v-10c0-2,1.6-3.5,3.5-3.5h10c2,0,3.5,1.6,3.5,3.5v10
				C2713.6,1935.1,2712,1936.7,2710.1,1936.7z"/>
			<path class="st3" d="M2710.1,1956.8h-10c-2,0-3.5-1.6-3.5-3.5v-10c0-2,1.6-3.5,3.5-3.5h10c2,0,3.5,1.6,3.5,3.5v10
				C2713.6,1955.2,2712,1956.8,2710.1,1956.8z"/>
			<path class="st3" d="M2710.1,1976.8h-10c-2,0-3.5-1.6-3.5-3.5v-10c0-2,1.6-3.5,3.5-3.5h10c2,0,3.5,1.6,3.5,3.5v10
				C2713.6,1975.3,2712,1976.8,2710.1,1976.8z"/>
			<path class="st3" d="M2710.1,1998.9h-10c-2,0-3.5-1.6-3.5-3.5v-10c0-2,1.6-3.5,3.5-3.5h10c2,0,3.5,1.6,3.5,3.5v10
				C2713.6,1997.4,2712,1998.9,2710.1,1998.9z"/>
			<path class="st3" d="M2710.1,2021.1h-10c-2,0-3.5-1.6-3.5-3.5v-10c0-2,1.6-3.5,3.5-3.5h10c2,0,3.5,1.6,3.5,3.5v10
				C2713.6,2019.5,2712,2021.1,2710.1,2021.1z"/>
		</g>
		<g>
			<path class="st3" d="M2731.7,1936.7h-10c-2,0-3.5-1.6-3.5-3.5v-10c0-2,1.6-3.5,3.5-3.5h10c2,0,3.5,1.6,3.5,3.5v10
				C2735.2,1935.1,2733.6,1936.7,2731.7,1936.7z"/>
			<path class="st3" d="M2731.7,1956.8h-10c-2,0-3.5-1.6-3.5-3.5v-10c0-2,1.6-3.5,3.5-3.5h10c2,0,3.5,1.6,3.5,3.5v10
				C2735.2,1955.2,2733.6,1956.8,2731.7,1956.8z"/>
			<path class="st3" d="M2731.7,1976.8h-10c-2,0-3.5-1.6-3.5-3.5v-10c0-2,1.6-3.5,3.5-3.5h10c2,0,3.5,1.6,3.5,3.5v10
				C2735.2,1975.3,2733.6,1976.8,2731.7,1976.8z"/>
			<path class="st3" d="M2731.7,1998.9h-10c-2,0-3.5-1.6-3.5-3.5v-10c0-2,1.6-3.5,3.5-3.5h10c2,0,3.5,1.6,3.5,3.5v10
				C2735.2,1997.4,2733.6,1998.9,2731.7,1998.9z"/>
			<path class="st3" d="M2731.7,2021.1h-10c-2,0-3.5-1.6-3.5-3.5v-10c0-2,1.6-3.5,3.5-3.5h10c2,0,3.5,1.6,3.5,3.5v10
				C2735.2,2019.5,2733.6,2021.1,2731.7,2021.1z"/>
		</g>
		<g>
			<path class="st3" d="M2753.3,1936.7h-10c-2,0-3.5-1.6-3.5-3.5v-10c0-2,1.6-3.5,3.5-3.5h10c2,0,3.5,1.6,3.5,3.5v10
				C2756.8,1935.1,2755.2,1936.7,2753.3,1936.7z"/>
			<path class="st3" d="M2753.3,1956.8h-10c-2,0-3.5-1.6-3.5-3.5v-10c0-2,1.6-3.5,3.5-3.5h10c2,0,3.5,1.6,3.5,3.5v10
				C2756.8,1955.2,2755.2,1956.8,2753.3,1956.8z"/>
			<path class="st3" d="M2753.3,1976.8h-10c-2,0-3.5-1.6-3.5-3.5v-10c0-2,1.6-3.5,3.5-3.5h10c2,0,3.5,1.6,3.5,3.5v10
				C2756.8,1975.3,2755.2,1976.8,2753.3,1976.8z"/>
			<path class="st3" d="M2753.3,1998.9h-10c-2,0-3.5-1.6-3.5-3.5v-10c0-2,1.6-3.5,3.5-3.5h10c2,0,3.5,1.6,3.5,3.5v10
				C2756.8,1997.4,2755.2,1998.9,2753.3,1998.9z"/>
			<path class="st3" d="M2753.3,2021.1h-10c-2,0-3.5-1.6-3.5-3.5v-10c0-2,1.6-3.5,3.5-3.5h10c2,0,3.5,1.6,3.5,3.5v10
				C2756.8,2019.5,2755.2,2021.1,2753.3,2021.1z"/>
		</g>
		<g id="row_2_">
			<path class="st3" d="M2774.9,1936.7h-10c-2,0-3.5-1.6-3.5-3.5v-10c0-2,1.6-3.5,3.5-3.5h10c2,0,3.5,1.6,3.5,3.5v10
				C2778.4,1935.1,2776.8,1936.7,2774.9,1936.7z"/>
			<path class="st3" d="M2774.9,1956.8h-10c-2,0-3.5-1.6-3.5-3.5v-10c0-2,1.6-3.5,3.5-3.5h10c2,0,3.5,1.6,3.5,3.5v10
				C2778.4,1955.2,2776.8,1956.8,2774.9,1956.8z"/>
			<path class="st3" d="M2774.9,1976.8h-10c-2,0-3.5-1.6-3.5-3.5v-10c0-2,1.6-3.5,3.5-3.5h10c2,0,3.5,1.6,3.5,3.5v10
				C2778.4,1975.3,2776.8,1976.8,2774.9,1976.8z"/>
			<path class="st3" d="M2774.9,1998.9h-10c-2,0-3.5-1.6-3.5-3.5v-10c0-2,1.6-3.5,3.5-3.5h10c2,0,3.5,1.6,3.5,3.5v10
				C2778.4,1997.4,2776.8,1998.9,2774.9,1998.9z"/>
			<path class="st3" d="M2774.9,2021.1h-10c-2,0-3.5-1.6-3.5-3.5v-10c0-2,1.6-3.5,3.5-3.5h10c2,0,3.5,1.6,3.5,3.5v10
				C2778.4,2019.5,2776.8,2021.1,2774.9,2021.1z"/>
		</g>
	</g>
</g>
<g id="stairs">
	<g>
		<g>
			<line class="st4" x1="574.7" y1="1831.5" x2="574.7" y2="1862"/>
			<line class="st4" x1="582.3" y1="1831.5" x2="582.3" y2="1862"/>
			<line class="st4" x1="589.9" y1="1831.5" x2="589.9" y2="1862"/>
			<line class="st4" x1="597.5" y1="1831.5" x2="597.5" y2="1862"/>
			<line class="st4" x1="605.1" y1="1831.5" x2="605.1" y2="1862"/>
			<line class="st4" x1="612.8" y1="1831.5" x2="612.8" y2="1862"/>
			<line class="st4" x1="620.4" y1="1831.5" x2="620.4" y2="1862"/>
			<line class="st4" x1="628" y1="1831.5" x2="628" y2="1862"/>
			<line class="st4" x1="635.6" y1="1831.5" x2="635.6" y2="1862"/>
			<line class="st4" x1="643.2" y1="1831.5" x2="643.2" y2="1862"/>
			<line class="st4" x1="650.8" y1="1831.5" x2="650.8" y2="1862"/>
			<line class="st4" x1="658.4" y1="1831.5" x2="658.4" y2="1862"/>
			<line class="st4" x1="666.1" y1="1831.5" x2="666.1" y2="1862"/>
			<line class="st4" x1="673.7" y1="1831.5" x2="673.7" y2="1862"/>
		</g>
		<g>
			<line class="st4" x1="574.7" y1="1866.3" x2="574.7" y2="1896.8"/>
			<line class="st4" x1="582.3" y1="1866.3" x2="582.3" y2="1896.8"/>
			<line class="st4" x1="589.9" y1="1866.3" x2="589.9" y2="1896.8"/>
			<line class="st4" x1="597.5" y1="1866.3" x2="597.5" y2="1896.8"/>
			<line class="st4" x1="605.1" y1="1866.3" x2="605.1" y2="1896.8"/>
			<line class="st4" x1="612.8" y1="1866.3" x2="612.8" y2="1896.8"/>
			<line class="st4" x1="620.4" y1="1866.3" x2="620.4" y2="1896.8"/>
			<line class="st4" x1="628" y1="1866.3" x2="628" y2="1896.8"/>
			<line class="st4" x1="635.6" y1="1866.3" x2="635.6" y2="1896.8"/>
			<line class="st4" x1="643.2" y1="1866.3" x2="643.2" y2="1896.8"/>
			<line class="st4" x1="650.8" y1="1866.3" x2="650.8" y2="1896.8"/>
			<line class="st4" x1="658.4" y1="1866.3" x2="658.4" y2="1896.8"/>
			<line class="st4" x1="666.1" y1="1866.3" x2="666.1" y2="1896.8"/>
			<line class="st4" x1="673.7" y1="1866.3" x2="673.7" y2="1896.8"/>
		</g>
	</g>
	<g>
		<g>
			<line class="st4" x1="835.8" y1="857.3" x2="835.8" y2="887.8"/>
			<line class="st4" x1="843.4" y1="857.3" x2="843.4" y2="887.8"/>
			<line class="st4" x1="851" y1="857.3" x2="851" y2="887.8"/>
			<line class="st4" x1="858.6" y1="857.3" x2="858.6" y2="887.8"/>
			<line class="st4" x1="866.3" y1="857.3" x2="866.3" y2="887.8"/>
			<line class="st4" x1="873.9" y1="857.3" x2="873.9" y2="887.8"/>
			<line class="st4" x1="881.5" y1="857.3" x2="881.5" y2="887.8"/>
			<line class="st4" x1="889.1" y1="857.3" x2="889.1" y2="887.8"/>
			<line class="st4" x1="896.7" y1="857.3" x2="896.7" y2="887.8"/>
			<line class="st4" x1="904.3" y1="857.3" x2="904.3" y2="887.8"/>
			<line class="st4" x1="912" y1="857.3" x2="912" y2="887.8"/>
			<line class="st4" x1="919.6" y1="857.3" x2="919.6" y2="887.8"/>
			<line class="st4" x1="927.2" y1="857.3" x2="927.2" y2="887.8"/>
			<line class="st4" x1="934.8" y1="857.3" x2="934.8" y2="887.8"/>
		</g>
		<g>
			<line class="st4" x1="835.8" y1="892" x2="835.8" y2="922.5"/>
			<line class="st4" x1="843.4" y1="892" x2="843.4" y2="922.5"/>
			<line class="st4" x1="851" y1="892" x2="851" y2="922.5"/>
			<line class="st4" x1="858.6" y1="892" x2="858.6" y2="922.5"/>
			<line class="st4" x1="866.3" y1="892" x2="866.3" y2="922.5"/>
			<line class="st4" x1="873.9" y1="892" x2="873.9" y2="922.5"/>
			<line class="st4" x1="881.5" y1="892" x2="881.5" y2="922.5"/>
			<line class="st4" x1="889.1" y1="892" x2="889.1" y2="922.5"/>
			<line class="st4" x1="896.7" y1="892" x2="896.7" y2="922.5"/>
			<line class="st4" x1="904.3" y1="892" x2="904.3" y2="922.5"/>
			<line class="st4" x1="912" y1="892" x2="912" y2="922.5"/>
			<line class="st4" x1="919.6" y1="892" x2="919.6" y2="922.5"/>
			<line class="st4" x1="927.2" y1="892" x2="927.2" y2="922.5"/>
			<line class="st4" x1="934.8" y1="892" x2="934.8" y2="922.5"/>
		</g>
	</g>
	<g>
		<g>
			<line class="st4" x1="2217.8" y1="1664.6" x2="2174.5" y2="1664.6"/>
			<line class="st4" x1="2217.8" y1="1672.2" x2="2174.5" y2="1672.2"/>
			<line class="st4" x1="2217.8" y1="1679.9" x2="2174.5" y2="1679.9"/>
			<line class="st4" x1="2217.8" y1="1687.5" x2="2174.5" y2="1687.5"/>
			<line class="st4" x1="2217.8" y1="1695.1" x2="2174.5" y2="1695.1"/>
			<line class="st4" x1="2217.8" y1="1702.7" x2="2174.5" y2="1702.7"/>
			<line class="st4" x1="2217.8" y1="1710.3" x2="2174.5" y2="1710.3"/>
			<line class="st4" x1="2217.8" y1="1717.9" x2="2174.5" y2="1717.9"/>
			<line class="st4" x1="2217.8" y1="1725.6" x2="2174.5" y2="1725.6"/>
			<line class="st4" x1="2217.8" y1="1733.2" x2="2174.5" y2="1733.2"/>
			<line class="st4" x1="2217.8" y1="1740.8" x2="2174.5" y2="1740.8"/>
			<line class="st4" x1="2217.8" y1="1748.4" x2="2174.5" y2="1748.4"/>
			<line class="st4" x1="2217.8" y1="1756" x2="2174.5" y2="1756"/>
			<line class="st4" x1="2217.8" y1="1763.6" x2="2174.5" y2="1763.6"/>
		</g>
		<g>
			<line class="st4" x1="2138.2" y1="1664.6" x2="2092.1" y2="1664.6"/>
			<line class="st4" x1="2138.2" y1="1672.2" x2="2092.1" y2="1672.2"/>
			<line class="st4" x1="2138.2" y1="1679.9" x2="2092.1" y2="1679.9"/>
			<line class="st4" x1="2138.2" y1="1687.5" x2="2092.1" y2="1687.5"/>
			<line class="st4" x1="2138.2" y1="1695.1" x2="2092.1" y2="1695.1"/>
			<line class="st4" x1="2138.2" y1="1702.7" x2="2092.1" y2="1702.7"/>
			<line class="st4" x1="2138.2" y1="1710.3" x2="2092.1" y2="1710.3"/>
			<line class="st4" x1="2138.2" y1="1717.9" x2="2092.1" y2="1717.9"/>
			<line class="st4" x1="2138.2" y1="1725.6" x2="2092.1" y2="1725.6"/>
			<line class="st4" x1="2138.2" y1="1733.2" x2="2092.1" y2="1733.2"/>
			<line class="st4" x1="2138.2" y1="1740.8" x2="2092.1" y2="1740.8"/>
			<line class="st4" x1="2138.2" y1="1748.4" x2="2092.1" y2="1748.4"/>
			<line class="st4" x1="2138.2" y1="1756" x2="2092.1" y2="1756"/>
			<line class="st4" x1="2138.2" y1="1763.6" x2="2092.1" y2="1763.6"/>
		</g>
	</g>
	<g>
		<g>
			<line class="st4" x1="780.2" y1="430.9" x2="780.2" y2="474.9"/>
			<line class="st4" x1="787.8" y1="430.9" x2="787.8" y2="474.9"/>
			<line class="st4" x1="795.4" y1="430.9" x2="795.4" y2="474.9"/>
			<line class="st4" x1="803" y1="430.9" x2="803" y2="474.9"/>
			<line class="st4" x1="810.6" y1="430.9" x2="810.6" y2="474.9"/>
			<line class="st4" x1="818.3" y1="430.9" x2="818.3" y2="474.9"/>
			<line class="st4" x1="825.9" y1="430.9" x2="825.9" y2="474.9"/>
			<line class="st4" x1="833.5" y1="430.9" x2="833.5" y2="474.9"/>
			<line class="st4" x1="841.1" y1="430.9" x2="841.1" y2="474.9"/>
			<line class="st4" x1="848.7" y1="430.9" x2="848.7" y2="474.9"/>
			<line class="st4" x1="856.3" y1="430.9" x2="856.3" y2="474.9"/>
			<line class="st4" x1="863.9" y1="430.9" x2="863.9" y2="474.9"/>
			<line class="st4" x1="871.6" y1="430.9" x2="871.6" y2="474.9"/>
			<line class="st4" x1="879.2" y1="430.9" x2="879.2" y2="474.9"/>
		</g>
		<g>
			<line class="st4" x1="780.2" y1="565.3" x2="780.2" y2="609.3"/>
			<line class="st4" x1="787.8" y1="565.3" x2="787.8" y2="609.3"/>
			<line class="st4" x1="795.4" y1="565.3" x2="795.4" y2="609.3"/>
			<line class="st4" x1="803" y1="565.3" x2="803" y2="609.3"/>
			<line class="st4" x1="810.6" y1="565.3" x2="810.6" y2="609.3"/>
			<line class="st4" x1="818.3" y1="565.3" x2="818.3" y2="609.3"/>
			<line class="st4" x1="825.9" y1="565.3" x2="825.9" y2="609.3"/>
			<line class="st4" x1="833.5" y1="565.3" x2="833.5" y2="609.3"/>
			<line class="st4" x1="841.1" y1="565.3" x2="841.1" y2="609.3"/>
			<line class="st4" x1="848.7" y1="565.3" x2="848.7" y2="609.3"/>
			<line class="st4" x1="856.3" y1="565.3" x2="856.3" y2="609.3"/>
			<line class="st4" x1="863.9" y1="565.3" x2="863.9" y2="609.3"/>
			<line class="st4" x1="871.6" y1="565.3" x2="871.6" y2="609.3"/>
			<line class="st4" x1="879.2" y1="565.3" x2="879.2" y2="609.3"/>
		</g>
		<g>
			<line class="st4" x1="780.2" y1="488" x2="780.2" y2="552.2"/>
			<line class="st4" x1="787.8" y1="488" x2="787.8" y2="552.2"/>
			<line class="st4" x1="795.4" y1="488" x2="795.4" y2="552.2"/>
			<line class="st4" x1="803" y1="488" x2="803" y2="552.2"/>
			<line class="st4" x1="810.6" y1="488" x2="810.6" y2="552.2"/>
			<line class="st4" x1="818.3" y1="488" x2="818.3" y2="552.2"/>
			<line class="st4" x1="825.9" y1="488" x2="825.9" y2="552.2"/>
			<line class="st4" x1="833.5" y1="488" x2="833.5" y2="552.2"/>
			<line class="st4" x1="841.1" y1="488" x2="841.1" y2="552.2"/>
			<line class="st4" x1="848.7" y1="488" x2="848.7" y2="552.2"/>
			<line class="st4" x1="856.3" y1="488" x2="856.3" y2="552.2"/>
			<line class="st4" x1="863.9" y1="488" x2="863.9" y2="552.2"/>
			<line class="st4" x1="871.6" y1="488" x2="871.6" y2="552.2"/>
			<line class="st4" x1="879.2" y1="488" x2="879.2" y2="552.2"/>
		</g>
	</g>
</g>
<g id="rooms">
	<g>
		<path d="M595.6,383.5v2.2h-16.7v-1.7l9.9-9.7c1.2-1.2,2.1-2.3,2.5-3.2c0.4-0.9,0.7-1.8,0.7-2.7c0-1.4-0.5-2.5-1.4-3.3
			c-1-0.8-2.3-1.2-4.1-1.2c-2.8,0-5,0.9-6.5,2.7l-1.7-1.5c0.9-1.1,2.1-1.9,3.6-2.5c1.4-0.6,3.1-0.9,4.9-0.9c2.4,0,4.3,0.6,5.8,1.7
			c1.4,1.1,2.1,2.7,2.1,4.7c0,1.2-0.3,2.4-0.8,3.5c-0.5,1.1-1.6,2.4-3.1,3.9l-8.1,8H595.6z"/>
		<path d="M605.2,361.8v23.8h-2.4V364h-5.6v-2.2H605.2z"/>
		<path d="M627.7,361.8v1.7l-10,22.1h-2.7l9.8-21.6h-12.2v4.5h-2.4v-6.6H627.7z"/>
		<path d="M645.7,379.3h-13.3l-2.9,6.4H627l10.9-23.8h2.5l10.9,23.8h-2.7L645.7,379.3z M644.8,377.2l-5.7-12.8l-5.7,12.8H644.8z"/>
	</g>
	<g>
		<path d="M609.6,496.9v2.2h-16.7v-1.7l9.9-9.7c1.2-1.2,2.1-2.3,2.5-3.2c0.4-0.9,0.7-1.8,0.7-2.7c0-1.4-0.5-2.5-1.4-3.3
			c-1-0.8-2.3-1.2-4.1-1.2c-2.8,0-5,0.9-6.5,2.7l-1.7-1.5c0.9-1.1,2.1-1.9,3.6-2.5c1.4-0.6,3.1-0.9,4.9-0.9c2.4,0,4.3,0.6,5.8,1.7
			c1.4,1.1,2.1,2.7,2.1,4.7c0,1.2-0.3,2.4-0.8,3.5c-0.5,1.1-1.6,2.4-3.1,3.9l-8.1,8H609.6z"/>
		<path d="M619.3,475.2V499h-2.4v-21.6h-5.6v-2.2H619.3z"/>
		<path d="M641.7,475.2v1.7l-10,22.1h-2.7l9.8-21.6h-12.2v4.5h-2.4v-6.6H641.7z"/>
	</g>
	<g>
		<path d="M850.5,383.5v2.2h-16.7v-1.7l9.9-9.7c1.2-1.2,2.1-2.3,2.5-3.2c0.4-0.9,0.7-1.8,0.7-2.7c0-1.4-0.5-2.5-1.4-3.3
			c-1-0.8-2.3-1.2-4.1-1.2c-2.8,0-5,0.9-6.5,2.7l-1.7-1.5c0.9-1.1,2.1-1.9,3.6-2.5c1.4-0.6,3.1-0.9,4.9-0.9c2.4,0,4.3,0.6,5.8,1.7
			c1.4,1.1,2.1,2.7,2.1,4.7c0,1.2-0.3,2.4-0.8,3.5c-0.5,1.1-1.6,2.4-3.1,3.9l-8.1,8H850.5z"/>
		<path d="M860.1,361.8v23.8h-2.4V364h-5.6v-2.2H860.1z"/>
		<path d="M879.8,372.3c1.2,0.6,2.2,1.4,2.8,2.5c0.7,1.1,1,2.3,1,3.8c0,1.5-0.4,2.7-1.1,3.8c-0.7,1.1-1.7,2-2.9,2.6
			c-1.2,0.6-2.6,0.9-4.2,0.9c-3.2,0-5.6-1-7.2-3.1c-1.7-2.1-2.5-5-2.5-8.8c0-2.7,0.5-4.9,1.4-6.7c0.9-1.8,2.2-3.2,3.8-4.2
			s3.5-1.4,5.7-1.4c2.4,0,4.2,0.4,5.6,1.3l-1,2c-1.1-0.7-2.7-1.1-4.6-1.1c-2.6,0-4.7,0.8-6.2,2.5s-2.2,4.1-2.2,7.3
			c0,0.6,0,1.2,0.1,1.9c0.6-1.3,1.5-2.3,2.8-3c1.3-0.7,2.8-1.1,4.5-1.1C877.2,371.4,878.6,371.7,879.8,372.3z M879.6,382.4
			c1.1-0.9,1.6-2.2,1.6-3.8s-0.5-2.8-1.6-3.7c-1.1-0.9-2.5-1.4-4.4-1.4c-1.2,0-2.3,0.2-3.2,0.7c-0.9,0.5-1.6,1.1-2.2,1.9
			c-0.5,0.8-0.8,1.7-0.8,2.7c0,0.9,0.2,1.7,0.7,2.5c0.5,0.8,1.2,1.4,2.2,1.9s2.1,0.7,3.4,0.7C877.2,383.8,878.6,383.3,879.6,382.4z"
			/>
	</g>
	<g>
		<path d="M609.6,638.7v2.2h-16.7v-1.7l9.9-9.7c1.2-1.2,2.1-2.3,2.5-3.2c0.4-0.9,0.7-1.8,0.7-2.7c0-1.4-0.5-2.5-1.4-3.3
			c-1-0.8-2.3-1.2-4.1-1.2c-2.8,0-5,0.9-6.5,2.7l-1.7-1.5c0.9-1.1,2.1-1.9,3.6-2.5c1.4-0.6,3.1-0.9,4.9-0.9c2.4,0,4.3,0.6,5.8,1.7
			c1.4,1.1,2.1,2.7,2.1,4.7c0,1.2-0.3,2.4-0.8,3.5c-0.5,1.1-1.6,2.4-3.1,3.9l-8.1,8H609.6z"/>
		<path d="M619.3,617.1v23.8h-2.4v-21.6h-5.6v-2.2H619.3z"/>
		<path d="M642,630.6c0.8,1,1.2,2.2,1.2,3.6c0,1.4-0.4,2.6-1.1,3.6s-1.8,1.8-3.2,2.4c-1.4,0.6-3,0.8-4.9,0.8c-2.9,0-5.1-0.6-6.7-1.8
			c-1.6-1.2-2.4-2.9-2.4-5c0-1.4,0.4-2.6,1.2-3.6c0.8-1,1.9-1.7,3.4-2.2c-1.2-0.5-2.2-1.2-2.8-2.1c-0.6-0.9-1-2-1-3.2
			c0-1.9,0.8-3.5,2.3-4.6c1.5-1.1,3.5-1.7,6.1-1.7c1.7,0,3.1,0.3,4.4,0.8c1.3,0.5,2.2,1.2,2.9,2.2c0.7,1,1.1,2.1,1.1,3.3
			c0,1.2-0.3,2.3-1,3.2c-0.7,0.9-1.6,1.6-2.8,2.1C640.1,628.9,641.2,629.6,642,630.6z M638.9,637.7c1.2-0.9,1.8-2,1.8-3.5
			c0-1.5-0.6-2.6-1.8-3.5c-1.2-0.9-2.8-1.3-4.9-1.3c-2.1,0-3.7,0.4-4.9,1.3s-1.8,2-1.8,3.5c0,1.5,0.6,2.7,1.8,3.5s2.8,1.3,4.9,1.3
			S637.8,638.6,638.9,637.7z M629.7,626.4c1,0.8,2.5,1.2,4.3,1.2s3.3-0.4,4.3-1.2c1.1-0.8,1.6-1.8,1.6-3.1c0-1.3-0.5-2.4-1.6-3.2
			c-1.1-0.8-2.5-1.2-4.3-1.2c-1.8,0-3.2,0.4-4.3,1.2c-1.1,0.8-1.6,1.8-1.6,3.1C628.1,624.5,628.6,625.6,629.7,626.4z"/>
	</g>
	<g>
		<path d="M847.8,666.8v2.2h-16.7v-1.7l9.9-9.7c1.2-1.2,2.1-2.3,2.5-3.2c0.4-0.9,0.7-1.8,0.7-2.7c0-1.4-0.5-2.5-1.4-3.3
			c-1-0.8-2.3-1.2-4.1-1.2c-2.8,0-5,0.9-6.5,2.7l-1.7-1.5c0.9-1.1,2.1-1.9,3.6-2.5c1.4-0.6,3.1-0.9,4.9-0.9c2.4,0,4.3,0.6,5.8,1.7
			c1.4,1.1,2.1,2.7,2.1,4.7c0,1.2-0.3,2.4-0.8,3.5c-0.5,1.1-1.6,2.4-3.1,3.9l-8.1,8H847.8z"/>
		<path d="M857.5,645.2V669H855v-21.6h-5.6v-2.2H857.5z"/>
		<path d="M877,656.8c1.6,1.2,2.4,3,2.4,5.2c0,1.4-0.3,2.6-1,3.7c-0.6,1.1-1.6,1.9-2.9,2.6c-1.3,0.6-2.9,0.9-4.8,0.9
			c-1.7,0-3.3-0.3-4.8-0.8c-1.5-0.6-2.8-1.3-3.7-2.2l1.2-1.9c0.8,0.8,1.8,1.5,3.1,2c1.3,0.5,2.7,0.8,4.2,0.8c2,0,3.5-0.4,4.6-1.3
			c1.1-0.9,1.6-2.1,1.6-3.5c0-1.6-0.6-2.9-1.8-3.7c-1.2-0.8-3.3-1.3-6.1-1.3h-5.1l1.2-11.9h13v2.2h-10.9l-0.8,7.6h3.1
			C872.9,654.9,875.4,655.5,877,656.8z"/>
	</g>
	<g>
		<path d="M610.2,784.1v2.2h-16.7v-1.7l9.9-9.7c1.2-1.2,2.1-2.3,2.5-3.2c0.4-0.9,0.7-1.8,0.7-2.7c0-1.4-0.5-2.5-1.4-3.3
			c-1-0.8-2.3-1.2-4.1-1.2c-2.8,0-5,0.9-6.5,2.7l-1.7-1.5c0.9-1.1,2.1-1.9,3.6-2.5c1.4-0.6,3.1-0.9,4.9-0.9c2.4,0,4.3,0.6,5.8,1.7
			c1.4,1.1,2.1,2.7,2.1,4.7c0,1.2-0.3,2.4-0.8,3.5c-0.5,1.1-1.6,2.4-3.1,3.9l-8.1,8H610.2z"/>
		<path d="M619.9,762.5v23.8h-2.4v-21.6h-5.6v-2.2H619.9z"/>
		<path d="M640.2,765.4c1.7,2.1,2.5,5,2.5,8.8c0,2.7-0.5,4.9-1.4,6.7c-0.9,1.8-2.2,3.2-3.8,4.2c-1.6,0.9-3.5,1.4-5.7,1.4
			c-2.4,0-4.2-0.4-5.6-1.3l1-2c1.1,0.7,2.7,1.1,4.6,1.1c2.6,0,4.7-0.8,6.2-2.5s2.2-4.1,2.2-7.3c0-0.6,0-1.2-0.1-1.9
			c-0.6,1.3-1.5,2.3-2.8,3s-2.8,1.1-4.5,1.1c-1.6,0-3-0.3-4.2-0.9c-1.2-0.6-2.2-1.4-2.8-2.5c-0.7-1.1-1-2.3-1-3.8
			c0-1.5,0.4-2.7,1.1-3.8c0.7-1.1,1.7-2,2.9-2.6c1.2-0.6,2.6-0.9,4.2-0.9C636.1,762.3,638.5,763.4,640.2,765.4z M636.4,774
			c0.9-0.5,1.6-1.1,2.2-1.9c0.5-0.8,0.8-1.7,0.8-2.7c0-0.9-0.2-1.7-0.7-2.5c-0.5-0.8-1.2-1.4-2.2-1.9c-1-0.5-2.1-0.7-3.4-0.7
			c-1.7,0-3.1,0.5-4.2,1.4c-1.1,0.9-1.6,2.2-1.6,3.8s0.5,2.8,1.6,3.7c1.1,0.9,2.5,1.4,4.4,1.4C634.5,774.7,635.5,774.5,636.4,774z"
			/>
	</g>
	<g>
		<path d="M847.8,784.1v2.2h-16.7v-1.7l9.9-9.7c1.2-1.2,2.1-2.3,2.5-3.2c0.4-0.9,0.7-1.8,0.7-2.7c0-1.4-0.5-2.5-1.4-3.3
			c-1-0.8-2.3-1.2-4.1-1.2c-2.8,0-5,0.9-6.5,2.7l-1.7-1.5c0.9-1.1,2.1-1.9,3.6-2.5c1.4-0.6,3.1-0.9,4.9-0.9c2.4,0,4.3,0.6,5.8,1.7
			c1.4,1.1,2.1,2.7,2.1,4.7c0,1.2-0.3,2.4-0.8,3.5c-0.5,1.1-1.6,2.4-3.1,3.9l-8.1,8H847.8z"/>
		<path d="M857.5,762.5v23.8H855v-21.6h-5.6v-2.2H857.5z"/>
		<path d="M883.4,780.1h-4.8v6.3h-2.4v-6.3h-13.4v-1.8l12.6-15.8h2.7l-12.2,15.4h10.3v-5.5h2.4v5.5h4.8V780.1z"/>
	</g>
	<g>
		<path d="M848.4,1153.2v2.2h-16.7v-1.7l9.9-9.7c1.2-1.2,2.1-2.3,2.5-3.2c0.4-0.9,0.7-1.8,0.7-2.7c0-1.4-0.5-2.5-1.4-3.3
			c-1-0.8-2.3-1.2-4.1-1.2c-2.8,0-5,0.9-6.5,2.7l-1.7-1.5c0.9-1.1,2.1-1.9,3.6-2.5c1.4-0.6,3.1-0.9,4.9-0.9c2.4,0,4.3,0.6,5.8,1.7
			c1.4,1.1,2.1,2.7,2.1,4.7c0,1.2-0.3,2.4-0.8,3.5c-0.5,1.1-1.6,2.4-3.1,3.9l-8.1,8H848.4z"/>
		<path d="M858.1,1131.6v23.8h-2.4v-21.6H850v-2.2H858.1z"/>
		<path d="M877.6,1143.8c1.3,1.2,2,2.8,2,4.7c0,1.4-0.3,2.6-1,3.6c-0.7,1.1-1.6,1.9-2.9,2.5c-1.3,0.6-2.9,0.9-4.7,0.9
			c-1.7,0-3.3-0.3-4.9-0.8c-1.5-0.6-2.8-1.3-3.7-2.2l1.2-1.9c0.8,0.8,1.8,1.5,3.2,2c1.3,0.5,2.7,0.8,4.2,0.8c1.9,0,3.5-0.4,4.5-1.3
			c1.1-0.9,1.6-2,1.6-3.5c0-1.5-0.5-2.6-1.6-3.5c-1.1-0.8-2.7-1.3-4.8-1.3h-1.7v-1.8l6.6-8.3h-12.2v-2.2h15.3v1.7l-6.7,8.5
			C874.4,1141.9,876.3,1142.6,877.6,1143.8z"/>
	</g>
	<g>
		<path d="M610.8,1074.5v2.2h-16.7v-1.7l9.9-9.7c1.2-1.2,2.1-2.3,2.5-3.2c0.4-0.9,0.7-1.8,0.7-2.7c0-1.4-0.5-2.5-1.4-3.3
			c-1-0.8-2.3-1.2-4.1-1.2c-2.8,0-5,0.9-6.5,2.7l-1.7-1.5c0.9-1.1,2.1-1.9,3.6-2.5c1.4-0.6,3.1-0.9,4.9-0.9c2.4,0,4.3,0.6,5.8,1.7
			c1.4,1.1,2.1,2.7,2.1,4.7c0,1.2-0.3,2.4-0.8,3.5c-0.5,1.1-1.6,2.4-3.1,3.9l-8.1,8H610.8z"/>
		<path d="M630.2,1074.5v2.2h-16.7v-1.7l9.9-9.7c1.2-1.2,2.1-2.3,2.5-3.2c0.4-0.9,0.7-1.8,0.7-2.7c0-1.4-0.5-2.5-1.4-3.3
			c-1-0.8-2.3-1.2-4.1-1.2c-2.8,0-5,0.9-6.5,2.7l-1.7-1.5c0.9-1.1,2.1-1.9,3.6-2.5c1.4-0.6,3.1-0.9,4.9-0.9c2.4,0,4.3,0.6,5.8,1.7
			c1.4,1.1,2.1,2.7,2.1,4.7c0,1.2-0.3,2.4-0.8,3.5c-0.5,1.1-1.6,2.4-3.1,3.9l-8.1,8H630.2z"/>
		<path d="M637.7,1075.4c-1.4-1-2.6-2.4-3.4-4.2c-0.8-1.8-1.2-4-1.2-6.4c0-2.5,0.4-4.6,1.2-6.4c0.8-1.8,1.9-3.2,3.4-4.2
			c1.4-1,3.1-1.5,4.9-1.5s3.5,0.5,4.9,1.5c1.4,1,2.6,2.4,3.4,4.2c0.8,1.8,1.2,4,1.2,6.4c0,2.5-0.4,4.6-1.2,6.4
			c-0.8,1.8-1.9,3.2-3.4,4.2c-1.4,1-3.1,1.5-4.9,1.5S639.1,1076.4,637.7,1075.4z M646.2,1073.5c1.1-0.8,1.9-1.9,2.5-3.4
			c0.6-1.5,0.9-3.3,0.9-5.3s-0.3-3.9-0.9-5.3c-0.6-1.5-1.4-2.6-2.5-3.4c-1.1-0.8-2.3-1.2-3.7-1.2c-1.4,0-2.6,0.4-3.7,1.2
			c-1.1,0.8-1.9,1.9-2.5,3.4c-0.6,1.5-0.9,3.3-0.9,5.3s0.3,3.9,0.9,5.3c0.6,1.5,1.4,2.6,2.5,3.4c1.1,0.8,2.3,1.2,3.7,1.2
			C643.9,1074.6,645.2,1074.3,646.2,1073.5z"/>
	</g>
	<g>
		<path d="M611.5,1315.4v2.2h-16.7v-1.7l9.9-9.7c1.2-1.2,2.1-2.3,2.5-3.2s0.7-1.8,0.7-2.7c0-1.4-0.5-2.5-1.4-3.3
			c-1-0.8-2.3-1.2-4.1-1.2c-2.8,0-5,0.9-6.5,2.7l-1.7-1.5c0.9-1.1,2.1-1.9,3.6-2.5c1.4-0.6,3.1-0.9,4.9-0.9c2.4,0,4.3,0.6,5.8,1.7
			c1.4,1.1,2.1,2.7,2.1,4.7c0,1.2-0.3,2.4-0.8,3.5c-0.5,1.1-1.6,2.4-3.1,3.9l-8.1,8H611.5z"/>
		<path d="M630.8,1315.4v2.2h-16.7v-1.7l9.9-9.7c1.2-1.2,2.1-2.3,2.5-3.2s0.7-1.8,0.7-2.7c0-1.4-0.5-2.5-1.4-3.3
			c-1-0.8-2.3-1.2-4.1-1.2c-2.8,0-5,0.9-6.5,2.7l-1.7-1.5c0.9-1.1,2.1-1.9,3.6-2.5c1.4-0.6,3.1-0.9,4.9-0.9c2.4,0,4.3,0.6,5.8,1.7
			c1.4,1.1,2.1,2.7,2.1,4.7c0,1.2-0.3,2.4-0.8,3.5c-0.5,1.1-1.6,2.4-3.1,3.9l-8.1,8H630.8z"/>
		<path d="M640.4,1293.8v23.8H638V1296h-5.6v-2.2H640.4z"/>
	</g>
	<g>
		<path d="M848.4,1390.4v2.2h-16.7v-1.7l9.9-9.7c1.2-1.2,2.1-2.3,2.5-3.2s0.7-1.8,0.7-2.7c0-1.4-0.5-2.5-1.4-3.3
			c-1-0.8-2.3-1.2-4.1-1.2c-2.8,0-5,0.9-6.5,2.7l-1.7-1.5c0.9-1.1,2.1-1.9,3.6-2.5c1.4-0.6,3.1-0.9,4.9-0.9c2.4,0,4.3,0.6,5.8,1.7
			c1.4,1.1,2.1,2.7,2.1,4.7c0,1.2-0.3,2.4-0.8,3.5c-0.5,1.1-1.6,2.4-3.1,3.9l-8.1,8H848.4z"/>
		<path d="M858.1,1368.8v23.8h-2.4v-21.6H850v-2.2H858.1z"/>
		<path d="M880,1390.4v2.2h-16.7v-1.7l9.9-9.7c1.2-1.2,2.1-2.3,2.5-3.2s0.7-1.8,0.7-2.7c0-1.4-0.5-2.5-1.4-3.3
			c-1-0.8-2.3-1.2-4.1-1.2c-2.8,0-5,0.9-6.5,2.7l-1.7-1.5c0.9-1.1,2.1-1.9,3.6-2.5c1.4-0.6,3.1-0.9,4.9-0.9c2.4,0,4.3,0.6,5.8,1.7
			c1.4,1.1,2.1,2.7,2.1,4.7c0,1.2-0.3,2.4-0.8,3.5c-0.5,1.1-1.6,2.4-3.1,3.9l-8.1,8H880z"/>
	</g>
	<g>
		<path d="M612.1,1514.1v2.2h-16.7v-1.7l9.9-9.7c1.2-1.2,2.1-2.3,2.5-3.2s0.7-1.8,0.7-2.7c0-1.4-0.5-2.5-1.4-3.3
			c-1-0.8-2.3-1.2-4.1-1.2c-2.8,0-5,0.9-6.5,2.7l-1.7-1.5c0.9-1.1,2.1-1.9,3.6-2.5c1.4-0.6,3.1-0.9,4.9-0.9c2.4,0,4.3,0.6,5.8,1.7
			c1.4,1.1,2.1,2.7,2.1,4.7c0,1.2-0.3,2.4-0.8,3.5c-0.5,1.1-1.6,2.4-3.1,3.9l-8.1,8H612.1z"/>
		<path d="M631.4,1514.1v2.2h-16.7v-1.7l9.9-9.7c1.2-1.2,2.1-2.3,2.5-3.2s0.7-1.8,0.7-2.7c0-1.4-0.5-2.5-1.4-3.3
			c-1-0.8-2.3-1.2-4.1-1.2c-2.8,0-5,0.9-6.5,2.7l-1.7-1.5c0.9-1.1,2.1-1.9,3.6-2.5c1.4-0.6,3.1-0.9,4.9-0.9c2.4,0,4.3,0.6,5.8,1.7
			c1.4,1.1,2.1,2.7,2.1,4.7c0,1.2-0.3,2.4-0.8,3.5c-0.5,1.1-1.6,2.4-3.1,3.9l-8.1,8H631.4z"/>
		<path d="M650.7,1514.1v2.2H634v-1.7l9.9-9.7c1.2-1.2,2.1-2.3,2.5-3.2s0.7-1.8,0.7-2.7c0-1.4-0.5-2.5-1.4-3.3
			c-1-0.8-2.3-1.2-4.1-1.2c-2.8,0-5,0.9-6.5,2.7l-1.7-1.5c0.9-1.1,2.1-1.9,3.6-2.5c1.4-0.6,3.1-0.9,4.9-0.9c2.4,0,4.3,0.6,5.8,1.7
			c1.4,1.1,2.1,2.7,2.1,4.7c0,1.2-0.3,2.4-0.8,3.5c-0.5,1.1-1.6,2.4-3.1,3.9l-8.1,8H650.7z"/>
	</g>
	<g>
		<path d="M612.1,1738.3v2.2h-16.7v-1.7l9.9-9.7c1.2-1.2,2.1-2.3,2.5-3.2s0.7-1.8,0.7-2.7c0-1.4-0.5-2.5-1.4-3.3
			c-1-0.8-2.3-1.2-4.1-1.2c-2.8,0-5,0.9-6.5,2.7l-1.7-1.5c0.9-1.1,2.1-1.9,3.6-2.5c1.4-0.6,3.1-0.9,4.9-0.9c2.4,0,4.3,0.6,5.8,1.7
			c1.4,1.1,2.1,2.7,2.1,4.7c0,1.2-0.3,2.4-0.8,3.5c-0.5,1.1-1.6,2.4-3.1,3.9l-8.1,8H612.1z"/>
		<path d="M631.4,1738.3v2.2h-16.7v-1.7l9.9-9.7c1.2-1.2,2.1-2.3,2.5-3.2s0.7-1.8,0.7-2.7c0-1.4-0.5-2.5-1.4-3.3
			c-1-0.8-2.3-1.2-4.1-1.2c-2.8,0-5,0.9-6.5,2.7l-1.7-1.5c0.9-1.1,2.1-1.9,3.6-2.5c1.4-0.6,3.1-0.9,4.9-0.9c2.4,0,4.3,0.6,5.8,1.7
			c1.4,1.1,2.1,2.7,2.1,4.7c0,1.2-0.3,2.4-0.8,3.5c-0.5,1.1-1.6,2.4-3.1,3.9l-8.1,8H631.4z"/>
		<path d="M648.2,1728.9c1.3,1.2,2,2.8,2,4.7c0,1.4-0.3,2.6-1,3.6c-0.7,1.1-1.6,1.9-2.9,2.5s-2.9,0.9-4.7,0.9
			c-1.7,0-3.3-0.3-4.9-0.8c-1.5-0.6-2.8-1.3-3.7-2.2l1.2-1.9c0.8,0.8,1.8,1.5,3.2,2c1.3,0.5,2.7,0.8,4.2,0.8c1.9,0,3.5-0.4,4.5-1.3
			c1.1-0.8,1.6-2,1.6-3.5c0-1.5-0.5-2.6-1.6-3.5c-1.1-0.8-2.7-1.3-4.8-1.3h-1.7v-1.8l6.6-8.3H634v-2.2h15.3v1.7l-6.7,8.5
			C645,1727.1,646.9,1727.7,648.2,1728.9z"/>
	</g>
	<g>
		<path d="M642.4,1999v2.2h-16.7v-1.7l9.9-9.7c1.2-1.2,2.1-2.3,2.5-3.2s0.7-1.8,0.7-2.7c0-1.4-0.5-2.5-1.4-3.3
			c-1-0.8-2.3-1.2-4.1-1.2c-2.8,0-5,0.9-6.5,2.7l-1.7-1.5c0.9-1.1,2.1-1.9,3.6-2.5c1.4-0.6,3.1-0.9,4.9-0.9c2.4,0,4.3,0.6,5.8,1.7
			c1.4,1.1,2.1,2.7,2.1,4.7c0,1.2-0.3,2.4-0.8,3.5c-0.5,1.1-1.6,2.4-3.1,3.9l-8.1,8H642.4z"/>
		<path d="M661.7,1999v2.2h-16.7v-1.7l9.9-9.7c1.2-1.2,2.1-2.3,2.5-3.2s0.7-1.8,0.7-2.7c0-1.4-0.5-2.5-1.4-3.3
			c-1-0.8-2.3-1.2-4.1-1.2c-2.8,0-5,0.9-6.5,2.7l-1.7-1.5c0.9-1.1,2.1-1.9,3.6-2.5c1.4-0.6,3.1-0.9,4.9-0.9c2.4,0,4.3,0.6,5.8,1.7
			c1.4,1.1,2.1,2.7,2.1,4.7c0,1.2-0.3,2.4-0.8,3.5c-0.5,1.1-1.6,2.4-3.1,3.9l-8.1,8H661.7z"/>
		<path d="M684.3,1994.9h-4.8v6.3H677v-6.3h-13.4v-1.8l12.6-15.8h2.7l-12.2,15.4h10.3v-5.5h2.4v5.5h4.8V1994.9z"/>
	</g>
	<g>
		<path d="M847.8,1999v2.2h-16.7v-1.7l9.9-9.7c1.2-1.2,2.1-2.3,2.5-3.2s0.7-1.8,0.7-2.7c0-1.4-0.5-2.5-1.4-3.3
			c-1-0.8-2.3-1.2-4.1-1.2c-2.8,0-5,0.9-6.5,2.7l-1.7-1.5c0.9-1.1,2.1-1.9,3.6-2.5c1.4-0.6,3.1-0.9,4.9-0.9c2.4,0,4.3,0.6,5.8,1.7
			c1.4,1.1,2.1,2.7,2.1,4.7c0,1.2-0.3,2.4-0.8,3.5c-0.5,1.1-1.6,2.4-3.1,3.9l-8.1,8H847.8z"/>
		<path d="M867.1,1999v2.2h-16.7v-1.7l9.9-9.7c1.2-1.2,2.1-2.3,2.5-3.2s0.7-1.8,0.7-2.7c0-1.4-0.5-2.5-1.4-3.3
			c-1-0.8-2.3-1.2-4.1-1.2c-2.8,0-5,0.9-6.5,2.7l-1.7-1.5c0.9-1.1,2.1-1.9,3.6-2.5c1.4-0.6,3.1-0.9,4.9-0.9c2.4,0,4.3,0.6,5.8,1.7
			c1.4,1.1,2.1,2.7,2.1,4.7c0,1.2-0.3,2.4-0.8,3.5c-0.5,1.1-1.6,2.4-3.1,3.9l-8.1,8H867.1z"/>
		<path d="M884,1989c1.6,1.2,2.4,3,2.4,5.2c0,1.4-0.3,2.6-1,3.7s-1.6,1.9-2.9,2.6c-1.3,0.6-2.9,0.9-4.8,0.9c-1.7,0-3.3-0.3-4.8-0.8
			s-2.8-1.3-3.7-2.2l1.2-1.9c0.8,0.8,1.8,1.5,3.1,2c1.3,0.5,2.7,0.8,4.2,0.8c2,0,3.5-0.4,4.6-1.3s1.6-2.1,1.6-3.5
			c0-1.6-0.6-2.9-1.8-3.7c-1.2-0.8-3.3-1.3-6.1-1.3h-5.1l1.2-11.9h13v2.2h-10.9l-0.8,7.6h3.1C879.9,1987.1,882.4,1987.7,884,1989z"
			/>
	</g>
	<g>
		<path d="M1051.4,1999v2.2h-16.7v-1.7l9.9-9.7c1.2-1.2,2.1-2.3,2.5-3.2s0.7-1.8,0.7-2.7c0-1.4-0.5-2.5-1.4-3.3
			c-1-0.8-2.3-1.2-4.1-1.2c-2.8,0-5,0.9-6.5,2.7l-1.7-1.5c0.9-1.1,2.1-1.9,3.6-2.5c1.4-0.6,3.1-0.9,4.9-0.9c2.4,0,4.3,0.6,5.8,1.7
			c1.4,1.1,2.1,2.7,2.1,4.7c0,1.2-0.3,2.4-0.8,3.5c-0.5,1.1-1.6,2.4-3.1,3.9l-8.1,8H1051.4z"/>
		<path d="M1070.7,1999v2.2H1054v-1.7l9.9-9.7c1.2-1.2,2.1-2.3,2.5-3.2s0.7-1.8,0.7-2.7c0-1.4-0.5-2.5-1.4-3.3
			c-1-0.8-2.3-1.2-4.1-1.2c-2.8,0-5,0.9-6.5,2.7l-1.7-1.5c0.9-1.1,2.1-1.9,3.6-2.5c1.4-0.6,3.1-0.9,4.9-0.9c2.4,0,4.3,0.6,5.8,1.7
			c1.4,1.1,2.1,2.7,2.1,4.7c0,1.2-0.3,2.4-0.8,3.5c-0.5,1.1-1.6,2.4-3.1,3.9l-8.1,8H1070.7z"/>
		<path d="M1087.7,1987.8c1.2,0.6,2.2,1.4,2.8,2.5c0.7,1.1,1,2.3,1,3.8c0,1.5-0.4,2.7-1.1,3.8c-0.7,1.1-1.7,2-2.9,2.6
			c-1.2,0.6-2.6,0.9-4.2,0.9c-3.2,0-5.6-1-7.2-3.1c-1.7-2.1-2.5-5-2.5-8.8c0-2.7,0.5-4.9,1.4-6.7c0.9-1.8,2.2-3.2,3.8-4.2
			s3.5-1.4,5.7-1.4c2.4,0,4.2,0.4,5.6,1.3l-1,2c-1.1-0.7-2.7-1.1-4.6-1.1c-2.6,0-4.7,0.8-6.2,2.5s-2.2,4.1-2.2,7.3
			c0,0.6,0,1.2,0.1,1.9c0.6-1.3,1.5-2.3,2.8-3s2.8-1.1,4.5-1.1C1085.1,1986.9,1086.5,1987.2,1087.7,1987.8z M1087.5,1997.9
			c1.1-0.9,1.6-2.2,1.6-3.8c0-1.6-0.5-2.8-1.6-3.7c-1.1-0.9-2.5-1.4-4.4-1.4c-1.2,0-2.3,0.2-3.2,0.7c-0.9,0.5-1.6,1.1-2.2,1.9
			c-0.5,0.8-0.8,1.7-0.8,2.7c0,0.9,0.2,1.7,0.7,2.5c0.5,0.8,1.2,1.4,2.2,1.9s2.1,0.7,3.4,0.7
			C1085,1999.3,1086.4,1998.8,1087.5,1997.9z"/>
	</g>
	<g>
		<path d="M1239,1999v2.2h-16.7v-1.7l9.9-9.7c1.2-1.2,2.1-2.3,2.5-3.2s0.7-1.8,0.7-2.7c0-1.4-0.5-2.5-1.4-3.3
			c-1-0.8-2.3-1.2-4.1-1.2c-2.8,0-5,0.9-6.5,2.7l-1.7-1.5c0.9-1.1,2.1-1.9,3.6-2.5c1.4-0.6,3.1-0.9,4.9-0.9c2.4,0,4.3,0.6,5.8,1.7
			c1.4,1.1,2.1,2.7,2.1,4.7c0,1.2-0.3,2.4-0.8,3.5c-0.5,1.1-1.6,2.4-3.1,3.9l-8.1,8H1239z"/>
		<path d="M1258.3,1999v2.2h-16.7v-1.7l9.9-9.7c1.2-1.2,2.1-2.3,2.5-3.2s0.7-1.8,0.7-2.7c0-1.4-0.5-2.5-1.4-3.3
			c-1-0.8-2.3-1.2-4.1-1.2c-2.8,0-5,0.9-6.5,2.7l-1.7-1.5c0.9-1.1,2.1-1.9,3.6-2.5c1.4-0.6,3.1-0.9,4.9-0.9c2.4,0,4.3,0.6,5.8,1.7
			c1.4,1.1,2.1,2.7,2.1,4.7c0,1.2-0.3,2.4-0.8,3.5c-0.5,1.1-1.6,2.4-3.1,3.9l-8.1,8H1258.3z"/>
		<path d="M1278,1977.4v1.7l-10,22.1h-2.7l9.8-21.6h-12.2v4.5h-2.4v-6.6H1278z"/>
	</g>
	<g>
		<path d="M1358,2003.8h2.2v16.7h-1.7l-9.7-9.9c-1.2-1.2-2.3-2.1-3.2-2.5s-1.8-0.7-2.7-0.7c-1.4,0-2.5,0.5-3.3,1.4s-1.2,2.3-1.2,4.1
			c0,2.8,0.9,5,2.7,6.5l-1.5,1.7c-1.1-0.9-1.9-2.1-2.5-3.6c-0.6-1.4-0.9-3.1-0.9-4.9c0-2.4,0.6-4.3,1.7-5.8s2.7-2.1,4.7-2.1
			c1.2,0,2.4,0.3,3.5,0.8c1.1,0.5,2.4,1.6,3.9,3.1l8,8.1V2003.8z"/>
		<path d="M1358,1984.5h2.2v16.7h-1.7l-9.7-9.9c-1.2-1.2-2.3-2.1-3.2-2.5s-1.8-0.7-2.7-0.7c-1.4,0-2.5,0.5-3.3,1.4
			c-0.8,1-1.2,2.3-1.2,4.1c0,2.8,0.9,5,2.7,6.5l-1.5,1.7c-1.1-0.9-1.9-2.1-2.5-3.6c-0.6-1.4-0.9-3.1-0.9-4.9c0-2.4,0.6-4.3,1.7-5.8
			c1.1-1.4,2.7-2.1,4.7-2.1c1.2,0,2.4,0.3,3.5,0.8c1.1,0.5,2.4,1.6,3.9,3.1l8,8.1V1984.5z"/>
		<path d="M1350,1964.4c1-0.8,2.2-1.2,3.6-1.2c1.4,0,2.6,0.4,3.6,1.1s1.8,1.8,2.4,3.2s0.8,3,0.8,4.9c0,2.9-0.6,5.1-1.8,6.7
			c-1.2,1.6-2.9,2.4-5,2.4c-1.4,0-2.6-0.4-3.6-1.2s-1.7-1.9-2.2-3.4c-0.5,1.2-1.2,2.2-2.1,2.8c-0.9,0.6-2,1-3.2,1
			c-1.9,0-3.5-0.8-4.6-2.3c-1.1-1.5-1.7-3.5-1.7-6.1c0-1.7,0.3-3.1,0.8-4.4c0.5-1.3,1.2-2.2,2.2-2.9s2.1-1.1,3.3-1.1
			c1.2,0,2.3,0.3,3.2,1c0.9,0.7,1.6,1.6,2.1,2.8C1348.2,1966.3,1349,1965.2,1350,1964.4z M1345.7,1976.7c0.8-1,1.2-2.5,1.2-4.3
			s-0.4-3.3-1.2-4.3s-1.8-1.6-3.1-1.6c-1.3,0-2.4,0.5-3.2,1.6c-0.8,1.1-1.2,2.5-1.2,4.3c0,1.8,0.4,3.2,1.2,4.3
			c0.8,1.1,1.8,1.6,3.1,1.6C1343.9,1978.3,1344.9,1977.8,1345.7,1976.7z M1357.1,1967.5c-0.9-1.2-2-1.8-3.5-1.8
			c-1.5,0-2.6,0.6-3.5,1.8c-0.8,1.2-1.3,2.8-1.3,4.9c0,2.1,0.4,3.7,1.3,4.9c0.9,1.2,2,1.8,3.5,1.8c1.5,0,2.7-0.6,3.5-1.8
			c0.8-1.2,1.3-2.8,1.3-4.9S1357.9,1968.6,1357.1,1967.5z"/>
	</g>
	<g>
		<path d="M1452.3,1999v2.2h-16.7v-1.7l9.9-9.7c1.2-1.2,2.1-2.3,2.5-3.2s0.7-1.8,0.7-2.7c0-1.4-0.5-2.5-1.4-3.3
			c-1-0.8-2.3-1.2-4.1-1.2c-2.8,0-5,0.9-6.5,2.7l-1.7-1.5c0.9-1.1,2.1-1.9,3.6-2.5c1.4-0.6,3.1-0.9,4.9-0.9c2.4,0,4.3,0.6,5.8,1.7
			c1.4,1.1,2.1,2.7,2.1,4.7c0,1.2-0.3,2.4-0.8,3.5c-0.5,1.1-1.6,2.4-3.1,3.9l-8.1,8H1452.3z"/>
		<path d="M1471.6,1999v2.2h-16.7v-1.7l9.9-9.7c1.2-1.2,2.1-2.3,2.5-3.2s0.7-1.8,0.7-2.7c0-1.4-0.5-2.5-1.4-3.3
			c-1-0.8-2.3-1.2-4.1-1.2c-2.8,0-5,0.9-6.5,2.7l-1.7-1.5c0.9-1.1,2.1-1.9,3.6-2.5c1.4-0.6,3.1-0.9,4.9-0.9c2.4,0,4.3,0.6,5.8,1.7
			c1.4,1.1,2.1,2.7,2.1,4.7c0,1.2-0.3,2.4-0.8,3.5c-0.5,1.1-1.6,2.4-3.1,3.9l-8.1,8H1471.6z"/>
		<path d="M1489.3,1980.3c1.7,2.1,2.5,5,2.5,8.8c0,2.7-0.5,4.9-1.4,6.7c-0.9,1.8-2.2,3.2-3.8,4.2s-3.5,1.4-5.7,1.4
			c-2.4,0-4.2-0.4-5.6-1.3l1-2c1.1,0.7,2.7,1.1,4.6,1.1c2.6,0,4.7-0.8,6.2-2.5c1.5-1.7,2.2-4.1,2.2-7.3c0-0.6,0-1.2-0.1-1.9
			c-0.6,1.3-1.5,2.3-2.8,3s-2.8,1.1-4.5,1.1c-1.6,0-3-0.3-4.2-0.9c-1.2-0.6-2.2-1.4-2.8-2.5c-0.7-1.1-1-2.3-1-3.8
			c0-1.5,0.4-2.7,1.1-3.8c0.7-1.1,1.7-2,2.9-2.6c1.2-0.6,2.6-0.9,4.2-0.9C1485.2,1977.2,1487.6,1978.2,1489.3,1980.3z
			 M1485.5,1988.9c0.9-0.5,1.6-1.1,2.2-1.9c0.5-0.8,0.8-1.7,0.8-2.7c0-0.9-0.2-1.7-0.7-2.5s-1.2-1.4-2.2-1.9c-1-0.5-2.1-0.7-3.4-0.7
			c-1.7,0-3.1,0.5-4.2,1.4c-1.1,0.9-1.6,2.2-1.6,3.8c0,1.6,0.5,2.8,1.6,3.7c1.1,0.9,2.5,1.4,4.4,1.4
			C1483.5,1989.5,1484.6,1989.3,1485.5,1988.9z"/>
	</g>
	<g>
		<path d="M1684.8,1996.8v2.2h-16.7v-1.7l9.9-9.7c1.2-1.2,2.1-2.3,2.5-3.2s0.7-1.8,0.7-2.7c0-1.4-0.5-2.5-1.4-3.3
			c-1-0.8-2.3-1.2-4.1-1.2c-2.8,0-5,0.9-6.5,2.7l-1.7-1.5c0.9-1.1,2.1-1.9,3.6-2.5c1.4-0.6,3.1-0.9,4.9-0.9c2.4,0,4.3,0.6,5.8,1.7
			c1.4,1.1,2.1,2.7,2.1,4.7c0,1.2-0.3,2.4-0.8,3.5c-0.5,1.1-1.6,2.4-3.1,3.9l-8.1,8H1684.8z"/>
		<path d="M1701.7,1987.4c1.3,1.2,2,2.8,2,4.7c0,1.4-0.3,2.6-1,3.6c-0.7,1.1-1.6,1.9-2.9,2.5s-2.9,0.9-4.7,0.9
			c-1.7,0-3.3-0.3-4.9-0.8c-1.5-0.6-2.8-1.3-3.7-2.2l1.2-1.9c0.8,0.8,1.8,1.5,3.2,2c1.3,0.5,2.7,0.8,4.2,0.8c1.9,0,3.5-0.4,4.5-1.3
			c1.1-0.8,1.6-2,1.6-3.5c0-1.5-0.5-2.6-1.6-3.5c-1.1-0.8-2.7-1.3-4.8-1.3h-1.7v-1.8l6.6-8.3h-12.2v-2.2h15.3v1.7l-6.7,8.5
			C1698.5,1985.5,1700.4,1986.2,1701.7,1987.4z"/>
		<path d="M1711.6,1997.7c-1.4-1-2.6-2.4-3.4-4.2c-0.8-1.8-1.2-4-1.2-6.4c0-2.5,0.4-4.6,1.2-6.4c0.8-1.8,1.9-3.2,3.4-4.2
			s3.1-1.5,4.9-1.5s3.5,0.5,4.9,1.5c1.4,1,2.6,2.4,3.4,4.2c0.8,1.8,1.2,4,1.2,6.4c0,2.5-0.4,4.6-1.2,6.4c-0.8,1.8-1.9,3.2-3.4,4.2
			c-1.4,1-3.1,1.5-4.9,1.5S1713.1,1998.7,1711.6,1997.7z M1720.2,1995.8c1.1-0.8,1.9-1.9,2.5-3.4c0.6-1.5,0.9-3.3,0.9-5.3
			c0-2.1-0.3-3.9-0.9-5.3c-0.6-1.5-1.4-2.6-2.5-3.4c-1.1-0.8-2.3-1.2-3.7-1.2c-1.4,0-2.6,0.4-3.7,1.2c-1.1,0.8-1.9,1.9-2.5,3.4
			c-0.6,1.5-0.9,3.3-0.9,5.3c0,2.1,0.3,3.9,0.9,5.3s1.4,2.6,2.5,3.4c1.1,0.8,2.3,1.2,3.7,1.2
			C1717.9,1996.9,1719.2,1996.5,1720.2,1995.8z"/>
	</g>
	<g>
		<path d="M1962.6,1996.8v2.2h-16.7v-1.7l9.9-9.7c1.2-1.2,2.1-2.3,2.5-3.2s0.7-1.8,0.7-2.7c0-1.4-0.5-2.5-1.4-3.3s-2.3-1.2-4.1-1.2
			c-2.8,0-5,0.9-6.5,2.7l-1.7-1.5c0.9-1.1,2.1-1.9,3.6-2.5c1.4-0.6,3.1-0.9,4.9-0.9c2.4,0,4.3,0.6,5.8,1.7c1.4,1.1,2.1,2.7,2.1,4.7
			c0,1.2-0.3,2.4-0.8,3.5c-0.5,1.1-1.6,2.4-3.1,3.9l-8.1,8H1962.6z"/>
		<path d="M1979.4,1987.4c1.3,1.2,2,2.8,2,4.7c0,1.4-0.3,2.6-1,3.6c-0.7,1.1-1.6,1.9-2.9,2.5s-2.9,0.9-4.7,0.9
			c-1.7,0-3.3-0.3-4.9-0.8s-2.8-1.3-3.7-2.2l1.2-1.9c0.8,0.8,1.8,1.5,3.2,2c1.3,0.5,2.7,0.8,4.2,0.8c1.9,0,3.5-0.4,4.5-1.3
			c1.1-0.8,1.6-2,1.6-3.5c0-1.5-0.5-2.6-1.6-3.5c-1.1-0.8-2.7-1.3-4.8-1.3h-1.7v-1.8l6.6-8.3h-12.2v-2.2h15.3v1.7l-6.7,8.5
			C1976.2,1985.5,1978.1,1986.2,1979.4,1987.4z"/>
		<path d="M2000.9,1996.8v2.2h-16.7v-1.7l9.9-9.7c1.2-1.2,2.1-2.3,2.5-3.2s0.7-1.8,0.7-2.7c0-1.4-0.5-2.5-1.4-3.3s-2.3-1.2-4.1-1.2
			c-2.8,0-5,0.9-6.5,2.7l-1.7-1.5c0.9-1.1,2.1-1.9,3.6-2.5c1.4-0.6,3.1-0.9,4.9-0.9c2.4,0,4.3,0.6,5.8,1.7c1.4,1.1,2.1,2.7,2.1,4.7
			c0,1.2-0.3,2.4-0.8,3.5c-0.5,1.1-1.6,2.4-3.1,3.9l-8.1,8H2000.9z"/>
	</g>
	<g>
		<path d="M2142.7,1997v2.2H2126v-1.7l9.9-9.7c1.2-1.2,2.1-2.3,2.5-3.2s0.7-1.8,0.7-2.7c0-1.4-0.5-2.5-1.4-3.3s-2.3-1.2-4.1-1.2
			c-2.8,0-5,0.9-6.5,2.7l-1.7-1.5c0.9-1.1,2.1-1.9,3.6-2.5c1.4-0.6,3.1-0.9,4.9-0.9c2.4,0,4.3,0.6,5.8,1.7c1.4,1.1,2.1,2.7,2.1,4.7
			c0,1.2-0.3,2.4-0.8,3.5c-0.5,1.1-1.6,2.4-3.1,3.9l-8.1,8H2142.7z"/>
		<path d="M2159.6,1987.6c1.3,1.2,2,2.8,2,4.7c0,1.4-0.3,2.6-1,3.6c-0.7,1.1-1.6,1.9-2.9,2.5s-2.9,0.9-4.7,0.9
			c-1.7,0-3.3-0.3-4.9-0.8s-2.8-1.3-3.7-2.2l1.2-1.9c0.8,0.8,1.8,1.5,3.2,2c1.3,0.5,2.7,0.8,4.2,0.8c1.9,0,3.5-0.4,4.5-1.3
			c1.1-0.8,1.6-2,1.6-3.5c0-1.5-0.5-2.6-1.6-3.5c-1.1-0.8-2.7-1.3-4.8-1.3h-1.7v-1.8l6.6-8.3h-12.2v-2.2h15.3v1.7l-6.7,8.5
			C2156.4,1985.7,2158.3,1986.4,2159.6,1987.6z"/>
		<path d="M2178.6,1987.6c1.3,1.2,2,2.8,2,4.7c0,1.4-0.3,2.6-1,3.6c-0.7,1.1-1.6,1.9-2.9,2.5s-2.9,0.9-4.7,0.9
			c-1.7,0-3.3-0.3-4.9-0.8s-2.8-1.3-3.7-2.2l1.2-1.9c0.8,0.8,1.8,1.5,3.2,2c1.3,0.5,2.7,0.8,4.2,0.8c1.9,0,3.5-0.4,4.5-1.3
			c1.1-0.8,1.6-2,1.6-3.5c0-1.5-0.5-2.6-1.6-3.5c-1.1-0.8-2.7-1.3-4.8-1.3h-1.7v-1.8l6.6-8.3h-12.2v-2.2h15.3v1.7l-6.7,8.5
			C2175.4,1985.7,2177.3,1986.4,2178.6,1987.6z"/>
	</g>
	<g>
		<path d="M2299.6,2010.5v2.2h-16.7v-1.7l9.9-9.7c1.2-1.2,2.1-2.3,2.5-3.2s0.7-1.8,0.7-2.7c0-1.4-0.5-2.5-1.4-3.3s-2.3-1.2-4.1-1.2
			c-2.8,0-5,0.9-6.5,2.7l-1.7-1.5c0.9-1.1,2.1-1.9,3.6-2.5c1.4-0.6,3.1-0.9,4.9-0.9c2.4,0,4.3,0.6,5.8,1.7c1.4,1.1,2.1,2.7,2.1,4.7
			c0,1.2-0.3,2.4-0.8,3.5c-0.5,1.1-1.6,2.4-3.1,3.9l-8.1,8H2299.6z"/>
		<path d="M2307.1,2011.5c-1.4-1-2.6-2.4-3.4-4.2c-0.8-1.8-1.2-4-1.2-6.4c0-2.5,0.4-4.6,1.2-6.4s1.9-3.2,3.4-4.2s3.1-1.5,4.9-1.5
			s3.5,0.5,4.9,1.5s2.6,2.4,3.4,4.2c0.8,1.8,1.2,4,1.2,6.4c0,2.5-0.4,4.6-1.2,6.4c-0.8,1.8-1.9,3.2-3.4,4.2s-3.1,1.5-4.9,1.5
			S2308.5,2012.4,2307.1,2011.5z M2315.6,2009.5c1.1-0.8,1.9-1.9,2.5-3.4c0.6-1.5,0.9-3.3,0.9-5.3c0-2.1-0.3-3.9-0.9-5.3
			c-0.6-1.5-1.4-2.6-2.5-3.4s-2.3-1.2-3.7-1.2s-2.6,0.4-3.7,1.2c-1.1,0.8-1.9,1.9-2.5,3.4c-0.6,1.5-0.9,3.3-0.9,5.3
			c0,2.1,0.3,3.9,0.9,5.3s1.4,2.6,2.5,3.4c1.1,0.8,2.3,1.2,3.7,1.2S2314.6,2010.3,2315.6,2009.5z"/>
		<path d="M2331.5,1988.9v23.8h-2.4v-21.6h-5.6v-2.2H2331.5z"/>
	</g>
	<g>
		<path d="M2581,1889.2v2.2h-16.7v-1.7l9.9-9.7c1.2-1.2,2.1-2.3,2.5-3.2s0.7-1.8,0.7-2.7c0-1.4-0.5-2.5-1.4-3.3s-2.3-1.2-4.1-1.2
			c-2.8,0-5,0.9-6.5,2.7l-1.7-1.5c0.9-1.1,2.1-1.9,3.6-2.5c1.4-0.6,3.1-0.9,4.9-0.9c2.4,0,4.3,0.6,5.8,1.7c1.4,1.1,2.1,2.7,2.1,4.7
			c0,1.2-0.3,2.4-0.8,3.5c-0.5,1.1-1.6,2.4-3.1,3.9l-8.1,8H2581z"/>
		<path d="M2588.5,1890.1c-1.4-1-2.6-2.4-3.4-4.2c-0.8-1.8-1.2-4-1.2-6.4c0-2.5,0.4-4.6,1.2-6.4s1.9-3.2,3.4-4.2s3.1-1.5,4.9-1.5
			s3.5,0.5,4.9,1.5s2.6,2.4,3.4,4.2c0.8,1.8,1.2,4,1.2,6.4c0,2.5-0.4,4.6-1.2,6.4c-0.8,1.8-1.9,3.2-3.4,4.2s-3.1,1.5-4.9,1.5
			S2589.9,1891.1,2588.5,1890.1z M2597.1,1888.2c1.1-0.8,1.9-1.9,2.5-3.4c0.6-1.5,0.9-3.3,0.9-5.3c0-2.1-0.3-3.9-0.9-5.3
			c-0.6-1.5-1.4-2.6-2.5-3.4s-2.3-1.2-3.7-1.2s-2.6,0.4-3.7,1.2c-1.1,0.8-1.9,1.9-2.5,3.4c-0.6,1.5-0.9,3.3-0.9,5.3
			c0,2.1,0.3,3.9,0.9,5.3s1.4,2.6,2.5,3.4c1.1,0.8,2.3,1.2,3.7,1.2S2596,1889,2597.1,1888.2z"/>
		<path d="M2622.6,1889.2v2.2h-16.7v-1.7l9.9-9.7c1.2-1.2,2.1-2.3,2.5-3.2s0.7-1.8,0.7-2.7c0-1.4-0.5-2.5-1.4-3.3s-2.3-1.2-4.1-1.2
			c-2.8,0-5,0.9-6.5,2.7l-1.7-1.5c0.9-1.1,2.1-1.9,3.6-2.5c1.4-0.6,3.1-0.9,4.9-0.9c2.4,0,4.3,0.6,5.8,1.7c1.4,1.1,2.1,2.7,2.1,4.7
			c0,1.2-0.3,2.4-0.8,3.5c-0.5,1.1-1.6,2.4-3.1,3.9l-8.1,8H2622.6z"/>
	</g>
	<g>
		<path d="M2299,1783v2.2h-16.7v-1.7l9.9-9.7c1.2-1.2,2.1-2.3,2.5-3.2s0.7-1.8,0.7-2.7c0-1.4-0.5-2.5-1.4-3.3s-2.3-1.2-4.1-1.2
			c-2.8,0-5,0.9-6.5,2.7l-1.7-1.5c0.9-1.1,2.1-1.9,3.6-2.5c1.4-0.6,3.1-0.9,4.9-0.9c2.4,0,4.3,0.6,5.8,1.7c1.4,1.1,2.1,2.7,2.1,4.7
			c0,1.2-0.3,2.4-0.8,3.5c-0.5,1.1-1.6,2.4-3.1,3.9l-8.1,8H2299z"/>
		<path d="M2306.5,1783.9c-1.4-1-2.6-2.4-3.4-4.2c-0.8-1.8-1.2-4-1.2-6.4c0-2.5,0.4-4.6,1.2-6.4s1.9-3.2,3.4-4.2s3.1-1.5,4.9-1.5
			s3.5,0.5,4.9,1.5s2.6,2.4,3.4,4.2c0.8,1.8,1.2,4,1.2,6.4c0,2.5-0.4,4.6-1.2,6.4c-0.8,1.8-1.9,3.2-3.4,4.2s-3.1,1.5-4.9,1.5
			S2307.9,1784.9,2306.5,1783.9z M2315,1782c1.1-0.8,1.9-1.9,2.5-3.4c0.6-1.5,0.9-3.3,0.9-5.3c0-2.1-0.3-3.9-0.9-5.3
			c-0.6-1.5-1.4-2.6-2.5-3.4s-2.3-1.2-3.7-1.2s-2.6,0.4-3.7,1.2c-1.1,0.8-1.9,1.9-2.5,3.4c-0.6,1.5-0.9,3.3-0.9,5.3
			c0,2.1,0.3,3.9,0.9,5.3s1.4,2.6,2.5,3.4c1.1,0.8,2.3,1.2,3.7,1.2S2314,1782.7,2315,1782z"/>
		<path d="M2337.8,1773.6c1.3,1.2,2,2.8,2,4.7c0,1.4-0.3,2.6-1,3.6c-0.7,1.1-1.6,1.9-2.9,2.5s-2.9,0.9-4.7,0.9
			c-1.7,0-3.3-0.3-4.9-0.8s-2.8-1.3-3.7-2.2l1.2-1.9c0.8,0.8,1.8,1.5,3.2,2c1.3,0.5,2.7,0.8,4.2,0.8c1.9,0,3.5-0.4,4.5-1.3
			c1.1-0.8,1.6-2,1.6-3.5c0-1.5-0.5-2.6-1.6-3.5c-1.1-0.8-2.7-1.3-4.8-1.3h-1.7v-1.8l6.6-8.3h-12.2v-2.2h15.3v1.7l-6.7,8.5
			C2334.6,1771.7,2336.5,1772.4,2337.8,1773.6z"/>
	</g>
	<g>
		<path d="M1684.8,1742.5v2.2h-16.7v-1.7l9.9-9.7c1.2-1.2,2.1-2.3,2.5-3.2s0.7-1.8,0.7-2.7c0-1.4-0.5-2.5-1.4-3.3
			c-1-0.8-2.3-1.2-4.1-1.2c-2.8,0-5,0.9-6.5,2.7l-1.7-1.5c0.9-1.1,2.1-1.9,3.6-2.5c1.4-0.6,3.1-0.9,4.9-0.9c2.4,0,4.3,0.6,5.8,1.7
			c1.4,1.1,2.1,2.7,2.1,4.7c0,1.2-0.3,2.4-0.8,3.5c-0.5,1.1-1.6,2.4-3.1,3.9l-8.1,8H1684.8z"/>
		<path d="M1692.3,1743.4c-1.4-1-2.6-2.4-3.4-4.2c-0.8-1.8-1.2-4-1.2-6.4c0-2.5,0.4-4.6,1.2-6.4c0.8-1.8,1.9-3.2,3.4-4.2
			s3.1-1.5,4.9-1.5s3.5,0.5,4.9,1.5c1.4,1,2.6,2.4,3.4,4.2c0.8,1.8,1.2,4,1.2,6.4c0,2.5-0.4,4.6-1.2,6.4c-0.8,1.8-1.9,3.2-3.4,4.2
			c-1.4,1-3.1,1.5-4.9,1.5S1693.8,1744.4,1692.3,1743.4z M1700.9,1741.4c1.1-0.8,1.9-1.9,2.5-3.4c0.6-1.5,0.9-3.3,0.9-5.3
			c0-2.1-0.3-3.9-0.9-5.3c-0.6-1.5-1.4-2.6-2.5-3.4c-1.1-0.8-2.3-1.2-3.7-1.2c-1.4,0-2.6,0.4-3.7,1.2c-1.1,0.8-1.9,1.9-2.5,3.4
			c-0.6,1.5-0.9,3.3-0.9,5.3c0,2.1,0.3,3.9,0.9,5.3s1.4,2.6,2.5,3.4c1.1,0.8,2.3,1.2,3.7,1.2
			C1698.6,1742.6,1699.8,1742.2,1700.9,1741.4z"/>
		<path d="M1724.3,1731.3c1.2,0.6,2.2,1.4,2.8,2.5c0.7,1.1,1,2.3,1,3.8c0,1.5-0.4,2.7-1.1,3.8c-0.7,1.1-1.7,2-2.9,2.6
			c-1.2,0.6-2.6,0.9-4.2,0.9c-3.2,0-5.6-1-7.2-3.1c-1.7-2.1-2.5-5-2.5-8.8c0-2.7,0.5-4.9,1.4-6.7c0.9-1.8,2.2-3.2,3.8-4.2
			s3.5-1.4,5.7-1.4c2.4,0,4.2,0.4,5.6,1.3l-1,2c-1.1-0.7-2.7-1.1-4.6-1.1c-2.6,0-4.7,0.8-6.2,2.5s-2.2,4.1-2.2,7.3
			c0,0.6,0,1.2,0.1,1.9c0.6-1.3,1.5-2.3,2.8-3s2.8-1.1,4.5-1.1C1721.7,1730.4,1723.1,1730.7,1724.3,1731.3z M1724.1,1741.4
			c1.1-0.9,1.6-2.2,1.6-3.8c0-1.6-0.5-2.8-1.6-3.7c-1.1-0.9-2.5-1.4-4.4-1.4c-1.2,0-2.3,0.2-3.2,0.7c-0.9,0.5-1.6,1.1-2.2,1.9
			c-0.5,0.8-0.8,1.7-0.8,2.7c0,0.9,0.2,1.7,0.7,2.5c0.5,0.8,1.2,1.4,2.2,1.9s2.1,0.7,3.4,0.7
			C1721.6,1742.8,1723,1742.3,1724.1,1741.4z"/>
	</g>
	<g>
		<path d="M1459.6,1773.1v2.2h-16.7v-1.7l9.9-9.7c1.2-1.2,2.1-2.3,2.5-3.2s0.7-1.8,0.7-2.7c0-1.4-0.5-2.5-1.4-3.3
			c-1-0.8-2.3-1.2-4.1-1.2c-2.8,0-5,0.9-6.5,2.7l-1.7-1.5c0.9-1.1,2.1-1.9,3.6-2.5c1.4-0.6,3.1-0.9,4.9-0.9c2.4,0,4.3,0.6,5.8,1.7
			c1.4,1.1,2.1,2.7,2.1,4.7c0,1.2-0.3,2.4-0.8,3.5c-0.5,1.1-1.6,2.4-3.1,3.9l-8.1,8H1459.6z"/>
		<path d="M1467.1,1774c-1.4-1-2.6-2.4-3.4-4.2c-0.8-1.8-1.2-4-1.2-6.4c0-2.5,0.4-4.6,1.2-6.4c0.8-1.8,1.9-3.2,3.4-4.2
			s3.1-1.5,4.9-1.5s3.5,0.5,4.9,1.5c1.4,1,2.6,2.4,3.4,4.2c0.8,1.8,1.2,4,1.2,6.4c0,2.5-0.4,4.6-1.2,6.4c-0.8,1.8-1.9,3.2-3.4,4.2
			c-1.4,1-3.1,1.5-4.9,1.5S1468.6,1775,1467.1,1774z M1475.7,1772c1.1-0.8,1.9-1.9,2.5-3.4c0.6-1.5,0.9-3.3,0.9-5.3
			c0-2.1-0.3-3.9-0.9-5.3c-0.6-1.5-1.4-2.6-2.5-3.4c-1.1-0.8-2.3-1.2-3.7-1.2c-1.4,0-2.6,0.4-3.7,1.2c-1.1,0.8-1.9,1.9-2.5,3.4
			c-0.6,1.5-0.9,3.3-0.9,5.3c0,2.1,0.3,3.9,0.9,5.3s1.4,2.6,2.5,3.4c1.1,0.8,2.3,1.2,3.7,1.2
			C1473.4,1773.2,1474.7,1772.8,1475.7,1772z"/>
		<path d="M1501.6,1751.4v1.7l-10,22.1h-2.7l9.8-21.6h-12.2v4.5h-2.4v-6.6H1501.6z"/>
	</g>
	<g>
		<path d="M1296,1738.3v2.2h-16.7v-1.7l9.9-9.7c1.2-1.2,2.1-2.3,2.5-3.2s0.7-1.8,0.7-2.7c0-1.4-0.5-2.5-1.4-3.3
			c-1-0.8-2.3-1.2-4.1-1.2c-2.8,0-5,0.9-6.5,2.7l-1.7-1.5c0.9-1.1,2.1-1.9,3.6-2.5c1.4-0.6,3.1-0.9,4.9-0.9c2.4,0,4.3,0.6,5.8,1.7
			c1.4,1.1,2.1,2.7,2.1,4.7c0,1.2-0.3,2.4-0.8,3.5c-0.5,1.1-1.6,2.4-3.1,3.9l-8.1,8H1296z"/>
		<path d="M1303.5,1739.3c-1.4-1-2.6-2.4-3.4-4.2c-0.8-1.8-1.2-4-1.2-6.4c0-2.5,0.4-4.6,1.2-6.4c0.8-1.8,1.9-3.2,3.4-4.2
			s3.1-1.5,4.9-1.5s3.5,0.5,4.9,1.5c1.4,1,2.6,2.4,3.4,4.2c0.8,1.8,1.2,4,1.2,6.4c0,2.5-0.4,4.6-1.2,6.4c-0.8,1.8-1.9,3.2-3.4,4.2
			c-1.4,1-3.1,1.5-4.9,1.5S1305,1740.2,1303.5,1739.3z M1312.1,1737.3c1.1-0.8,1.9-1.9,2.5-3.4c0.6-1.5,0.9-3.3,0.9-5.3
			c0-2.1-0.3-3.9-0.9-5.3c-0.6-1.5-1.4-2.6-2.5-3.4c-1.1-0.8-2.3-1.2-3.7-1.2c-1.4,0-2.6,0.4-3.7,1.2c-1.1,0.8-1.9,1.9-2.5,3.4
			c-0.6,1.5-0.9,3.3-0.9,5.3c0,2.1,0.3,3.9,0.9,5.3s1.4,2.6,2.5,3.4c1.1,0.8,2.3,1.2,3.7,1.2
			C1309.8,1738.5,1311,1738.1,1312.1,1737.3z"/>
		<path d="M1338.5,1730.3c0.8,1,1.2,2.2,1.2,3.6c0,1.4-0.4,2.6-1.1,3.6s-1.8,1.8-3.2,2.4s-3,0.8-4.9,0.8c-2.9,0-5.1-0.6-6.7-1.8
			c-1.6-1.2-2.4-2.9-2.4-5c0-1.4,0.4-2.6,1.2-3.6c0.8-1,1.9-1.7,3.4-2.2c-1.2-0.5-2.2-1.2-2.8-2.1c-0.6-0.9-1-2-1-3.2
			c0-1.9,0.8-3.5,2.3-4.6c1.5-1.1,3.5-1.7,6.1-1.7c1.7,0,3.1,0.3,4.4,0.8c1.3,0.5,2.2,1.2,2.9,2.2s1.1,2.1,1.1,3.3
			c0,1.2-0.3,2.3-1,3.2c-0.7,0.9-1.6,1.6-2.8,2.1C1336.6,1728.5,1337.7,1729.3,1338.5,1730.3z M1335.5,1737.4c1.2-0.9,1.8-2,1.8-3.5
			c0-1.5-0.6-2.6-1.8-3.5c-1.2-0.8-2.8-1.3-4.9-1.3c-2.1,0-3.7,0.4-4.9,1.3c-1.2,0.9-1.8,2-1.8,3.5c0,1.5,0.6,2.7,1.8,3.5
			c1.2,0.8,2.8,1.3,4.9,1.3S1334.3,1738.2,1335.5,1737.4z M1326.2,1726c1,0.8,2.5,1.2,4.3,1.2s3.3-0.4,4.3-1.2s1.6-1.8,1.6-3.1
			c0-1.3-0.5-2.4-1.6-3.2c-1.1-0.8-2.5-1.2-4.3-1.2c-1.8,0-3.2,0.4-4.3,1.2c-1.1,0.8-1.6,1.8-1.6,3.1
			C1324.6,1724.2,1325.1,1725.2,1326.2,1726z"/>
	</g>
	<g>
		<path d="M1201.9,1744.4h2.2v16.7h-1.7l-9.7-9.9c-1.2-1.2-2.3-2.1-3.2-2.5c-0.9-0.4-1.8-0.7-2.7-0.7c-1.4,0-2.5,0.5-3.3,1.4
			c-0.8,1-1.2,2.3-1.2,4.1c0,2.8,0.9,5,2.7,6.5l-1.5,1.7c-1.1-0.9-1.9-2.1-2.5-3.6c-0.6-1.4-0.9-3.1-0.9-4.9c0-2.4,0.6-4.3,1.7-5.8
			c1.1-1.4,2.7-2.1,4.7-2.1c1.2,0,2.4,0.3,3.5,0.8c1.1,0.5,2.4,1.6,3.9,3.1l8,8.1V1744.4z"/>
		<path d="M1202.8,1736.9c-1,1.4-2.4,2.6-4.2,3.4c-1.8,0.8-4,1.2-6.4,1.2c-2.5,0-4.6-0.4-6.4-1.2s-3.2-1.9-4.2-3.4s-1.5-3.1-1.5-4.9
			s0.5-3.5,1.5-4.9s2.4-2.6,4.2-3.4c1.8-0.8,4-1.2,6.4-1.2c2.5,0,4.6,0.4,6.4,1.2c1.8,0.8,3.2,1.9,4.2,3.4s1.5,3.1,1.5,4.9
			S1203.8,1735.5,1202.8,1736.9z M1200.8,1728.3c-0.8-1.1-1.9-1.9-3.4-2.5s-3.3-0.9-5.3-0.9c-2.1,0-3.9,0.3-5.3,0.9
			c-1.5,0.6-2.6,1.4-3.4,2.5c-0.8,1.1-1.2,2.3-1.2,3.7c0,1.4,0.4,2.6,1.2,3.7s1.9,1.9,3.4,2.5c1.5,0.6,3.3,0.9,5.3,0.9
			c2.1,0,3.9-0.3,5.3-0.9c1.5-0.6,2.6-1.4,3.4-2.5c0.8-1.1,1.2-2.3,1.2-3.7C1202,1730.6,1201.6,1729.4,1200.8,1728.3z"/>
		<path d="M1183.1,1704.3c2.1-1.7,5-2.5,8.8-2.5c2.7,0,4.9,0.5,6.7,1.4c1.8,0.9,3.2,2.2,4.2,3.8s1.4,3.5,1.4,5.7
			c0,2.4-0.4,4.2-1.3,5.6l-2-1c0.7-1.1,1.1-2.7,1.1-4.6c0-2.6-0.8-4.7-2.5-6.2c-1.7-1.5-4.1-2.2-7.3-2.2c-0.6,0-1.2,0-1.9,0.1
			c1.3,0.6,2.3,1.5,3,2.8c0.7,1.3,1.1,2.8,1.1,4.5c0,1.6-0.3,3-0.9,4.2c-0.6,1.2-1.4,2.2-2.5,2.8c-1.1,0.7-2.3,1-3.8,1
			c-1.5,0-2.7-0.4-3.8-1.1c-1.1-0.7-2-1.7-2.6-2.9s-0.9-2.6-0.9-4.2C1180,1708.4,1181.1,1706,1183.1,1704.3z M1191.7,1708.1
			c-0.5-0.9-1.1-1.6-1.9-2.2s-1.7-0.8-2.7-0.8c-0.9,0-1.7,0.2-2.5,0.7c-0.8,0.5-1.4,1.2-1.9,2.2c-0.5,1-0.7,2.1-0.7,3.4
			c0,1.7,0.5,3.1,1.4,4.2s2.2,1.6,3.8,1.6c1.6,0,2.8-0.5,3.7-1.6c0.9-1.1,1.4-2.5,1.4-4.4C1192.4,1710.1,1192.2,1709,1191.7,1708.1z
			"/>
	</g>
	<g>
		<path d="M1028.3,1738.8v2.2h-16.7v-1.7l9.9-9.7c1.2-1.2,2.1-2.3,2.5-3.2s0.7-1.8,0.7-2.7c0-1.4-0.5-2.5-1.4-3.3
			c-1-0.8-2.3-1.2-4.1-1.2c-2.8,0-5,0.9-6.5,2.7l-1.7-1.5c0.9-1.1,2.1-1.9,3.6-2.5c1.4-0.6,3.1-0.9,4.9-0.9c2.4,0,4.3,0.6,5.8,1.7
			c1.4,1.1,2.1,2.7,2.1,4.7c0,1.2-0.3,2.4-0.8,3.5c-0.5,1.1-1.6,2.4-3.1,3.9l-8.1,8H1028.3z"/>
		<path d="M1037.9,1717.1v23.8h-2.4v-21.6h-5.6v-2.2H1037.9z"/>
		<path d="M1048.2,1739.7c-1.4-1-2.6-2.4-3.4-4.2c-0.8-1.8-1.2-4-1.2-6.4c0-2.5,0.4-4.6,1.2-6.4c0.8-1.8,1.9-3.2,3.4-4.2
			s3.1-1.5,4.9-1.5s3.5,0.5,4.9,1.5c1.4,1,2.6,2.4,3.4,4.2c0.8,1.8,1.2,4,1.2,6.4c0,2.5-0.4,4.6-1.2,6.4c-0.8,1.8-1.9,3.2-3.4,4.2
			c-1.4,1-3.1,1.5-4.9,1.5S1049.6,1740.6,1048.2,1739.7z M1056.7,1737.7c1.1-0.8,1.9-1.9,2.5-3.4c0.6-1.5,0.9-3.3,0.9-5.3
			c0-2.1-0.3-3.9-0.9-5.3c-0.6-1.5-1.4-2.6-2.5-3.4c-1.1-0.8-2.3-1.2-3.7-1.2c-1.4,0-2.6,0.4-3.7,1.2c-1.1,0.8-1.9,1.9-2.5,3.4
			c-0.6,1.5-0.9,3.3-0.9,5.3c0,2.1,0.3,3.9,0.9,5.3s1.4,2.6,2.5,3.4c1.1,0.8,2.3,1.2,3.7,1.2
			C1054.5,1738.9,1055.7,1738.5,1056.7,1737.7z"/>
	</g>
	<g>
		<path d="M847.8,1738.3v2.2h-16.7v-1.7l9.9-9.7c1.2-1.2,2.1-2.3,2.5-3.2s0.7-1.8,0.7-2.7c0-1.4-0.5-2.5-1.4-3.3
			c-1-0.8-2.3-1.2-4.1-1.2c-2.8,0-5,0.9-6.5,2.7l-1.7-1.5c0.9-1.1,2.1-1.9,3.6-2.5c1.4-0.6,3.1-0.9,4.9-0.9c2.4,0,4.3,0.6,5.8,1.7
			c1.4,1.1,2.1,2.7,2.1,4.7c0,1.2-0.3,2.4-0.8,3.5c-0.5,1.1-1.6,2.4-3.1,3.9l-8.1,8H847.8z"/>
		<path d="M857.5,1716.7v23.8H855v-21.6h-5.6v-2.2H857.5z"/>
		<path d="M869.8,1716.7v23.8h-2.4v-21.6h-5.6v-2.2H869.8z"/>
	</g>
</g>
<g id="marks">
	<circle class="st5" cx="2017.6" cy="1723" r="10.4"/>
	<path class="st5" d="M2014.2,1738.8l-13.7,23.7c-1.5,2.6,0.4,6,3.4,6h27.3c3.1,0,5-3.3,3.4-6l-13.7-23.7
		C2019.5,1736.2,2015.7,1736.2,2014.2,1738.8z"/>
	<circle class="st5" cx="1904.5" cy="1723" r="10.4"/>
	<path class="st5" d="M1907.9,1774.4l13.8-23.9c1.5-2.6-0.4-5.9-3.4-5.9h-27.5c-3,0-4.9,3.3-3.4,5.9l13.8,23.9
		C1902.6,1777,1906.4,1777,1907.9,1774.4z"/>
</g>
<g id="_8">
	<g>
		<path class="st6" d="M699.7,1364.6c6.3,9.5,14.9,29.9,14.9,29.9s-5.9,4.9-14.9,4.5"/>
		<path class="st7" d="M713.1,1396l-15.7-31.7c-0.4-0.8-0.1-1.8,0.7-2.2l0,0c0.8-0.4,1.8-0.1,2.2,0.7l15.7,31.7
			c0.4,0.8,0.1,1.8-0.7,2.2l0,0C714.5,1397.2,713.5,1396.8,713.1,1396z"/>
	</g>
	<g>
		<path class="st6" d="M699.7,1676.3c6.3,9.5,14.9,29.9,14.9,29.9s-5.9,4.9-14.9,4.5"/>
		<path class="st7" d="M713.1,1707.8l-15.7-31.7c-0.4-0.8-0.1-1.8,0.7-2.2l0,0c0.8-0.4,1.8-0.1,2.2,0.7l15.7,31.7
			c0.4,0.8,0.1,1.8-0.7,2.2l0,0C714.5,1708.9,713.5,1708.6,713.1,1707.8z"/>
	</g>
	<g>
		<path class="st6" d="M712.5,1906.3c9.5-6.3,29.9-14.9,29.9-14.9s4.9,5.9,4.5,14.9"/>
		<path class="st7" d="M744,1892.9l-31.7,15.7c-0.8,0.4-1.8,0.1-2.2-0.7l0,0c-0.4-0.8-0.1-1.8,0.7-2.2l31.7-15.7
			c0.8-0.4,1.8-0.1,2.2,0.7l0,0C745.1,1891.5,744.8,1892.5,744,1892.9z"/>
	</g>
	<g>
		<path class="st6" d="M884.4,1906.3c9.5-6.3,29.9-14.9,29.9-14.9s4.9,5.9,4.5,14.9"/>
		<path class="st7" d="M915.9,1892.9l-31.7,15.7c-0.8,0.4-1.8,0.1-2.2-0.7l0,0c-0.4-0.8-0.1-1.8,0.7-2.2l31.7-15.7
			c0.8-0.4,1.8-0.1,2.2,0.7l0,0C917,1891.5,916.7,1892.5,915.9,1892.9z"/>
	</g>
	<g>
		<path class="st6" d="M1013.4,1906.3c9.5-6.3,29.9-14.9,29.9-14.9s4.9,5.9,4.5,14.9"/>
		<path class="st7" d="M1044.9,1892.9l-31.7,15.7c-0.8,0.4-1.8,0.1-2.2-0.7l0,0c-0.4-0.8-0.1-1.8,0.7-2.2l31.7-15.7
			c0.8-0.4,1.8-0.1,2.2,0.7l0,0C1046,1891.5,1045.7,1892.5,1044.9,1892.9z"/>
	</g>
	<g>
		<path class="st6" d="M1228,1906.3c9.5-6.3,29.9-14.9,29.9-14.9s4.9,5.9,4.5,14.9"/>
		<path class="st7" d="M1259.4,1892.9l-31.7,15.7c-0.8,0.4-1.8,0.1-2.2-0.7l0,0c-0.4-0.8-0.1-1.8,0.7-2.2l31.7-15.7
			c0.8-0.4,1.8-0.1,2.2,0.7l0,0C1260.6,1891.5,1260.2,1892.5,1259.4,1892.9z"/>
	</g>
	<g>
		<path class="st6" d="M1326,1906.3c9.5-6.3,29.9-14.9,29.9-14.9s4.9,5.9,4.5,14.9"/>
		<path class="st7" d="M1357.5,1892.9l-31.7,15.7c-0.8,0.4-1.8,0.1-2.2-0.7l0,0c-0.4-0.8-0.1-1.8,0.7-2.2l31.7-15.7
			c0.8-0.4,1.8-0.1,2.2,0.7l0,0C1358.6,1891.5,1358.3,1892.5,1357.5,1892.9z"/>
	</g>
	<g>
		<path class="st6" d="M1480.8,1906.3c9.5-6.3,29.9-14.9,29.9-14.9s4.9,5.9,4.5,14.9"/>
		<path class="st7" d="M1512.3,1892.9l-31.7,15.7c-0.8,0.4-1.8,0.1-2.2-0.7h0c-0.4-0.8-0.1-1.8,0.7-2.2l31.7-15.7
			c0.8-0.4,1.8-0.1,2.2,0.7l0,0C1513.4,1891.5,1513.1,1892.5,1512.3,1892.9z"/>
	</g>
	<g>
		<path class="st6" d="M1646.4,1906.3c9.5-6.3,29.9-14.9,29.9-14.9s4.9,5.9,4.5,14.9"/>
		<path class="st7" d="M1677.9,1892.9l-31.7,15.7c-0.8,0.4-1.8,0.1-2.2-0.7l0,0c-0.4-0.8-0.1-1.8,0.7-2.2l31.7-15.7
			c0.8-0.4,1.8-0.1,2.2,0.7l0,0C1679,1891.5,1678.7,1892.5,1677.9,1892.9z"/>
	</g>
	<g>
		<path class="st6" d="M1870.1,1906.3c9.5-6.3,29.9-14.9,29.9-14.9s4.9,5.9,4.5,14.9"/>
		<path class="st7" d="M1901.6,1892.9l-31.7,15.7c-0.8,0.4-1.8,0.1-2.2-0.7h0c-0.4-0.8-0.1-1.8,0.7-2.2l31.7-15.7
			c0.8-0.4,1.8-0.1,2.2,0.7l0,0C1902.7,1891.5,1902.4,1892.5,1901.6,1892.9z"/>
	</g>
	<g>
		<path class="st6" d="M2332.5,1931.2c9.5-6.3,29.9-14.9,29.9-14.9s4.9,5.9,4.5,14.9"/>
		<path class="st7" d="M2364,1917.8l-31.7,15.7c-0.8,0.4-1.8,0.1-2.2-0.7l0,0c-0.4-0.8-0.1-1.8,0.7-2.2l31.7-15.7
			c0.8-0.4,1.8-0.1,2.2,0.7l0,0C2365.1,1916.4,2364.8,1917.4,2364,1917.8z"/>
	</g>
	<g>
		<path class="st6" d="M2138.1,1906.3c9.5-6.3,29.9-14.9,29.9-14.9s4.9,5.9,4.5,14.9"/>
		<path class="st7" d="M2169.6,1892.8l-31.7,15.7c-0.8,0.4-1.8,0.1-2.2-0.7l0,0c-0.4-0.8-0.1-1.8,0.7-2.2l31.7-15.7
			c0.8-0.4,1.8-0.1,2.2,0.7l0,0C2170.7,1891.5,2170.4,1892.4,2169.6,1892.8z"/>
	</g>
	<g>
		<path class="st6" d="M2361.3,1838.4c-9.5,6.3-29.9,14.9-29.9,14.9s-4.9-5.9-4.5-14.9"/>
		<path class="st7" d="M2329.8,1851.9l31.7-15.7c0.8-0.4,1.8-0.1,2.2,0.7l0,0c0.4,0.8,0.1,1.8-0.7,2.2l-31.7,15.7
			c-0.8,0.4-1.8,0.1-2.2-0.7l0,0C2328.7,1853.2,2329,1852.3,2329.8,1851.9z"/>
	</g>
	<g>
		<path class="st6" d="M2067.6,1823.3c-9.5,6.3-29.9,14.9-29.9,14.9s-4.9-5.9-4.5-14.9"/>
		<path class="st7" d="M2036.1,1836.7l31.7-15.7c0.8-0.4,1.8-0.1,2.2,0.7l0,0c0.4,0.8,0.1,1.8-0.7,2.2l-31.7,15.7
			c-0.8,0.4-1.8,0.1-2.2-0.7l0,0C2035,1838.1,2035.3,1837.1,2036.1,1836.7z"/>
	</g>
	<g>
		<path class="st6" d="M1907.8,1823.3c-9.5,6.3-29.9,14.9-29.9,14.9s-4.9-5.9-4.5-14.9"/>
		<path class="st7" d="M1876.3,1836.7l31.7-15.7c0.8-0.4,1.8-0.1,2.2,0.7l0,0c0.4,0.8,0.1,1.8-0.7,2.2l-31.7,15.7
			c-0.8,0.4-1.8,0.1-2.2-0.7l0,0C1875.2,1838.1,1875.5,1837.1,1876.3,1836.7z"/>
	</g>
	<g>
		<path class="st6" d="M1672.3,1823.3c-9.5,6.3-29.9,14.9-29.9,14.9s-4.9-5.9-4.5-14.9"/>
		<path class="st7" d="M1640.9,1836.7l31.7-15.7c0.8-0.4,1.8-0.1,2.2,0.7l0,0c0.4,0.8,0.1,1.8-0.7,2.2l-31.7,15.7
			c-0.8,0.4-1.8,0.1-2.2-0.7l0,0C1639.7,1838.1,1640.1,1837.1,1640.9,1836.7z"/>
	</g>
	<g>
		<path class="st6" d="M1483,1823.3c-9.5,6.3-29.9,14.9-29.9,14.9s-4.9-5.9-4.5-14.9"/>
		<path class="st7" d="M1451.5,1836.7l31.7-15.7c0.8-0.4,1.8-0.1,2.2,0.7l0,0c0.4,0.8,0.1,1.8-0.7,2.2l-31.7,15.7
			c-0.8,0.4-1.8,0.1-2.2-0.7l0,0C1450.4,1838.1,1450.7,1837.1,1451.5,1836.7z"/>
	</g>
	<g>
		<path class="st6" d="M1278.3,1823.3c-9.5,6.3-29.9,14.9-29.9,14.9s-4.9-5.9-4.5-14.9"/>
		<path class="st7" d="M1246.8,1836.7l31.7-15.7c0.8-0.4,1.8-0.1,2.2,0.7l0,0c0.4,0.8,0.1,1.8-0.7,2.2l-31.7,15.7
			c-0.8,0.4-1.8,0.1-2.2-0.7l0,0C1245.7,1838.1,1246,1837.1,1246.8,1836.7z"/>
	</g>
	<g>
		<path class="st6" d="M1214.4,1823.3c-9.5,6.3-29.9,14.9-29.9,14.9s-4.9-5.9-4.5-14.9"/>
		<path class="st7" d="M1183,1836.7l31.7-15.7c0.8-0.4,1.8-0.1,2.2,0.7l0,0c0.4,0.8,0.1,1.8-0.7,2.2l-31.7,15.7
			c-0.8,0.4-1.8,0.1-2.2-0.7l0,0C1181.8,1838.1,1182.1,1837.1,1183,1836.7z"/>
	</g>
	<g>
		<path class="st6" d="M1049.9,1823.3c-9.5,6.3-29.9,14.9-29.9,14.9s-4.9-5.9-4.5-14.9"/>
		<path class="st7" d="M1018.4,1836.7l31.7-15.7c0.8-0.4,1.8-0.1,2.2,0.7l0,0c0.4,0.8,0.1,1.8-0.7,2.2l-31.7,15.7
			c-0.8,0.4-1.8,0.1-2.2-0.7l0,0C1017.3,1838.1,1017.6,1837.1,1018.4,1836.7z"/>
	</g>
	<g>
		<path class="st6" d="M900.3,1823.3c-9.5,6.3-29.9,14.9-29.9,14.9s-4.9-5.9-4.5-14.9"/>
		<path class="st7" d="M868.8,1836.7l31.7-15.7c0.8-0.4,1.8-0.1,2.2,0.7l0,0c0.4,0.8,0.1,1.8-0.7,2.2l-31.7,15.7
			c-0.8,0.4-1.8,0.1-2.2-0.7l0,0C867.7,1838.1,868,1837.1,868.8,1836.7z"/>
	</g>
	<g>
		<path class="st6" d="M699.8,1290.2c6.3,9.5,14.9,29.9,14.9,29.9s-5.9,4.9-14.9,4.5"/>
		<path class="st7" d="M713.2,1321.7l-15.7-31.7c-0.4-0.8-0.1-1.8,0.7-2.2l0,0c0.8-0.4,1.8-0.1,2.2,0.7l15.7,31.7
			c0.4,0.8,0.1,1.8-0.7,2.2l0,0C714.6,1322.8,713.6,1322.5,713.2,1321.7z"/>
	</g>
	<g>
		<path class="st6" d="M699.8,1130.9c6.3,9.5,14.9,29.9,14.9,29.9s-5.9,4.9-14.9,4.5"/>
		<path class="st7" d="M713.2,1162.4l-15.7-31.7c-0.4-0.8-0.1-1.8,0.7-2.2l0,0c0.8-0.4,1.8-0.1,2.2,0.7l15.7,31.7
			c0.4,0.8,0.1,1.8-0.7,2.2l0,0C714.6,1163.5,713.6,1163.2,713.2,1162.4z"/>
	</g>
	<g>
		<path class="st6" d="M699.8,871.8c6.3,9.5,14.9,29.9,14.9,29.9s-5.9,4.9-14.9,4.5"/>
		<path class="st7" d="M713.2,903.3l-15.7-31.7c-0.4-0.8-0.1-1.8,0.7-2.2l0,0c0.8-0.4,1.8-0.1,2.2,0.7l15.7,31.7
			c0.4,0.8,0.1,1.8-0.7,2.2l0,0C714.6,904.4,713.6,904.1,713.2,903.3z"/>
	</g>
	<g>
		<path class="st6" d="M699.8,797.2c6.3,9.5,14.9,29.9,14.9,29.9s-5.9,4.9-14.9,4.5"/>
		<path class="st7" d="M713.2,828.7L697.5,797c-0.4-0.8-0.1-1.8,0.7-2.2l0,0c0.8-0.4,1.8-0.1,2.2,0.7l15.7,31.7
			c0.4,0.8,0.1,1.8-0.7,2.2l0,0C714.6,829.8,713.6,829.5,713.2,828.7z"/>
	</g>
	<g>
		<path class="st6" d="M699.8,629c6.3,9.5,14.9,29.9,14.9,29.9s-5.9,4.9-14.9,4.5"/>
		<path class="st7" d="M713.2,660.5l-15.7-31.7c-0.4-0.8-0.1-1.8,0.7-2.2l0,0c0.8-0.4,1.8-0.1,2.2,0.7l15.7,31.7
			c0.4,0.8,0.1,1.8-0.7,2.2l0,0C714.6,661.6,713.6,661.3,713.2,660.5z"/>
	</g>
	<g>
		<path class="st6" d="M699.8,440.5c6.3,9.5,14.9,29.9,14.9,29.9s-5.9,4.9-14.9,4.5"/>
		<path class="st7" d="M713.2,472l-15.7-31.7c-0.4-0.8-0.1-1.8,0.7-2.2l0,0c0.8-0.4,1.8-0.1,2.2,0.7l15.7,31.7
			c0.4,0.8,0.1,1.8-0.7,2.2l0,0C714.6,473.1,713.6,472.8,713.2,472z"/>
	</g>
	<g>
		<path class="st6" d="M768.4,381.4c-6.3,9.5-14.9,29.9-14.9,29.9s5.9,4.9,14.9,4.5"/>
		<path class="st7" d="M754.9,412.9l15.7-31.7c0.4-0.8,0.1-1.8-0.7-2.2l0,0c-0.8-0.4-1.8-0.1-2.2,0.7L752,411.5
			c-0.4,0.8-0.1,1.8,0.7,2.2l0,0C753.6,414,754.5,413.7,754.9,412.9z"/>
	</g>
	<g>
		<path class="st6" d="M768.4,634.8c-6.3,9.5-14.9,29.9-14.9,29.9s5.9,4.9,14.9,4.5"/>
		<path class="st7" d="M754.9,666.3l15.7-31.7c0.4-0.8,0.1-1.8-0.7-2.2l0,0c-0.8-0.4-1.8-0.1-2.2,0.7L752,664.8
			c-0.4,0.8-0.1,1.8,0.7,2.2l0,0C753.6,667.4,754.5,667.1,754.9,666.3z"/>
	</g>
	<g>
		<path class="st6" d="M768.4,830.3c-6.3-9.5-14.9-29.9-14.9-29.9s5.9-4.9,14.9-4.5"/>
		<path class="st7" d="M754.9,798.8l15.7,31.7c0.4,0.8,0.1,1.8-0.7,2.2l0,0c-0.8,0.4-1.8,0.1-2.2-0.7L752,800.3
			c-0.4-0.8-0.1-1.8,0.7-2.2l0,0C753.6,797.7,754.5,798,754.9,798.8z"/>
	</g>
	<g>
		<path class="st6" d="M768.4,1009.3c-6.3-9.5-14.9-29.9-14.9-29.9s5.9-4.9,14.9-4.5"/>
		<path class="st7" d="M754.9,977.8l15.7,31.7c0.4,0.8,0.1,1.8-0.7,2.2l0,0c-0.8,0.4-1.8,0.1-2.2-0.7L752,979.2
			c-0.4-0.8-0.1-1.8,0.7-2.2l0,0C753.6,976.7,754.5,977,754.9,977.8z"/>
	</g>
	<g>
		<path class="st6" d="M768.4,1241.1c-6.3-9.5-14.9-29.9-14.9-29.9s5.9-4.9,14.9-4.5"/>
		<path class="st7" d="M754.9,1209.6l15.7,31.7c0.4,0.8,0.1,1.8-0.7,2.2l0,0c-0.8,0.4-1.8,0.1-2.2-0.7l-15.7-31.7
			c-0.4-0.8-0.1-1.8,0.7-2.2v0C753.6,1208.5,754.5,1208.8,754.9,1209.6z"/>
	</g>
	<g>
		<path class="st6" d="M768.4,1483.5c-6.3-9.5-14.9-29.9-14.9-29.9s5.9-4.9,14.9-4.5"/>
		<path class="st7" d="M754.9,1452l15.7,31.7c0.4,0.8,0.1,1.8-0.7,2.2l0,0c-0.8,0.4-1.8,0.1-2.2-0.7l-15.7-31.7
			c-0.4-0.8-0.1-1.8,0.7-2.2l0,0C753.6,1450.9,754.5,1451.2,754.9,1452z"/>
	</g>
	<g>
		<path class="st6" d="M2386.7,1899.5c-6.3-9.5-14.9-29.9-14.9-29.9s5.9-4.9,14.9-4.5"/>
		<path class="st7" d="M2373.3,1868l15.7,31.7c0.4,0.8,0.1,1.8-0.7,2.2l0,0c-0.8,0.4-1.8,0.1-2.2-0.7l-15.7-31.7
			c-0.4-0.8-0.1-1.8,0.7-2.2l0,0C2371.9,1866.9,2372.9,1867.2,2373.3,1868z"/>
	</g>
	<g>
		<path class="st6" d="M699.8,394.7c6.3-9.5,14.9-29.9,14.9-29.9s-5.9-4.9-14.9-4.5"/>
		<path class="st7" d="M713.2,363.3L697.5,395c-0.4,0.8-0.1,1.8,0.7,2.2l0,0c0.8,0.4,1.8,0.1,2.2-0.7l15.7-31.7
			c0.4-0.8,0.1-1.8-0.7-2.2l0,0C714.6,362.1,713.6,362.5,713.2,363.3z"/>
	</g>
	<g>
	</g>
	<g>
	</g>
	<g>
	</g>
	<g>
	</g>
	<g>
	</g>
	<g>
	</g>
	<g>
	</g>
	<g>
	</g>
	<g>
	</g>
	<g>
	</g>
	<g>
	</g>
	<g>
	</g>
	<g>
	</g>
	<g>
	</g>
	<g>
	</g>
</g>
</svg>
