<?xml version="1.0" encoding="UTF-8"?>
<svg enable-background="new 0 0 3500 2550" version="1.1" viewBox="0 0 3500 2550" xml:space="preserve" xmlns="http://www.w3.org/2000/svg">
<style type="text/css">
	.st0{opacity:0.75;}
	.st1{fill:#95E2D8;}
	.st2{fill:#292C82;}
	.st3{fill:#FC0050;}
	.st4{opacity:0.75;fill:#F7931E;stroke:#F15A24;stroke-width:4;stroke-miterlimit:10;enable-background:new    ;}
	.st5{fill:none;stroke:#ED1C24;stroke-width:2;stroke-miterlimit:10;}
	.st6{fill:#ED1C24;}
	.st7{opacity:0.75;fill:#F7931E;stroke:#F15A24;stroke-width:3;stroke-miterlimit:10;enable-background:new    ;}
	.st8{fill:none;stroke:#333333;stroke-width:8;stroke-miterlimit:10;}
</style>

	<g class="st0">
		<rect class="st1" x="2395" y="1706" width="639" height="363"/>
		<path class="st2" d="m3032 1708v359h-635v-359h635m4-4h-643v367h643v-367z"/>
	</g>
	<g class="st0">
		<rect class="st1" x="2231" y="1706" width="164" height="123"/>
		<path class="st2" d="m2393 1708v119h-160v-119h160m4-4h-168v127h168v-127z"/>
	</g>
	<g class="st0">
		<rect class="st1" x="2232" y="1933" width="163" height="136"/>
		<path class="st2" d="m2393 1935v132h-159v-132h159m4-4h-167v140h167v-140z"/>
	</g>
	<g class="st0">
		<rect class="st1" x="2081" y="1902" width="151" height="167"/>
		<path class="st2" d="m2230 1904v163h-147v-163h147m4-4h-155v171h155v-171z"/>
	</g>
	<g class="st0">
		<rect class="st1" x="1854" y="1902" width="227" height="167"/>
		<path class="st2" d="m2079 1904v163h-223v-163h223m4-4h-231v171h231v-171z"/>
	</g>
	<g class="st0">
		<rect class="st1" x="1548" y="1902" width="306" height="167"/>
		<path class="st2" d="m1852 1904v163h-302v-163h302m4-4h-310v171h310v-171z"/>
	</g>
	<g class="st0">
		<rect class="st1" x="1399" y="1902" width="149" height="167"/>
		<path class="st2" d="m1546 1904v163h-145v-163h145m4-4h-153v171h153v-171z"/>
	</g>
	<g class="st0">
		<rect class="st1" x="1317" y="1902" width="82" height="167"/>
		<path class="st2" d="m1397 1904v163h-78v-163h78m4-4h-86v171h86v-171z"/>
	</g>
	<g class="st0">
		<rect class="st1" x="1179" y="1902" width="138" height="167"/>
		<path class="st2" d="m1315 1904v163h-134v-163h134m4-4h-142v171h142v-171z"/>
	</g>
	<g class="st0">
		<rect class="st1" x="942" y="1902" width="237" height="167"/>
		<path class="st2" d="m1177 1904v163h-233v-163h233m4-4h-241v171h241v-171z"/>
	</g>
	<g class="st0">
		<rect class="st1" x="774" y="1902" width="168" height="167"/>
		<path class="st2" d="m940 1904v163h-164v-163h164m4-4h-172v171h172v-171z"/>
	</g>
	<g class="st0">
		<rect class="st1" x="531" y="1902" width="243" height="167"/>
		<path class="st2" d="m772 1904v163h-239v-163h239m4-4h-247v171h247v-171z"/>
	</g>
	<g class="st0">
		<rect class="st1" x="1957" y="1647" width="129" height="170"/>
		<path class="st2" d="m2084 1649v166h-125v-166h125m4-4h-133v174h133v-174z"/>
	</g>
	<g class="st0">
		<rect class="st1" x="1858" y="1647" width="98" height="170"/>
		<path class="st2" d="m1954 1649v166h-94v-166h94m4-4h-102v174h102v-174z"/>
	</g>
	<g class="st0">
		<rect class="st1" x="1548" y="1647" width="310" height="170"/>
		<path class="st2" d="m1856 1649v166h-306v-166h306m4-4h-314v174h314v-174z"/>
	</g>
	<g class="st0">
		<rect class="st1" x="1386" y="1698" width="162" height="119"/>
		<path class="st2" d="m1546 1700v115h-158v-115h158m4-4h-166v123h166v-123z"/>
	</g>
	<g class="st0">
		<rect class="st1" x="1235" y="1647" width="151" height="170"/>
		<path class="st2" d="m1384 1649v166h-147v-166h147m4-4h-155v174h155v-174z"/>
	</g>
	<g class="st0">
		<rect class="st1" x="1156" y="1647" width="79" height="169"/>
		<path class="st2" d="m1233 1649v165h-75v-165h75m4-4h-83v173h83v-173z"/>
	</g>
	<g class="st0">
		<rect class="st1" x="926" y="1647" width="230" height="169"/>
		<path class="st2" d="m1154 1649v165h-226v-165h226m4-4h-234v173h234v-173z"/>
	</g>
	<g class="st0">
		<rect class="st1" x="773" y="1647" width="153" height="169"/>
		<path class="st2" d="m924 1649v165h-149v-165h149m4-4h-157v173h157v-173z"/>
	</g>
	<g class="st0">
		<rect class="st1" x="531" y="1645" width="167" height="171"/>
		<path class="st2" d="m696 1647v167h-163v-167h163m4-4h-171v175h171v-175z"/>
	</g>
	<g class="st0">
		<rect class="st1" x="531" y="1346" width="167" height="298"/>
		<path class="st2" d="m696 1348v294h-163v-294h163m4-4h-171v302h171v-302z"/>
	</g>
	<g class="st0">
		<rect class="st1" x="773" y="1263" width="165" height="232"/>
		<path class="st2" d="m936 1265v228h-161v-228h161m4-4h-169v236h169v-236z"/>
	</g>
	<g class="st0">
		<rect class="st1" x="773" y="1016" width="165" height="247"/>
		<path class="st2" d="m936 1018v243h-161v-243h161m4-4h-169v251h169v-251z"/>
	</g>
	<g class="st0">
		<rect class="st1" x="531" y="1265" width="167" height="80"/>
		<path class="st2" d="m696 1267v76h-163v-76h163m4-4h-171v84h171v-84z"/>
	</g>
	<g class="st0">
		<rect class="st1" x="531" y="840" width="167" height="425"/>
		<path class="st2" d="m696 842v421h-163v-421h163m4-4h-171v429h171v-429z"/>
	</g>
	<g class="st0">
		<rect class="st1" x="531" y="702" width="167" height="138"/>
		<path class="st2" d="m696 704v134h-163v-134h163m4-4h-171v142h171v-142z"/>
	</g>
	<g class="st0">
		<rect class="st1" x="531" y="551" width="167" height="151"/>
		<path class="st2" d="m696 553v147h-163v-147h163m4-4h-171v155h171v-155z"/>
	</g>
	<g class="st0">
		<rect class="st1" x="531" y="413" width="167" height="138"/>
		<path class="st2" d="m696 415v134h-163v-134h163m4-4h-171v142h171v-142z"/>
	</g>
	<g class="st0">
		<rect class="st1" x="531" y="329" width="167" height="84"/>
		<path class="st2" d="m696 331v80h-163v-80h163m4-4h-171v88h171v-88z"/>
	</g>
	<g class="st0">
		<rect class="st1" x="773" y="930" width="165" height="86"/>
		<path class="st2" d="m936 932v82h-161v-82h161m4-4h-169v90h169v-90z"/>
	</g>
	<g class="st0">
		<rect class="st1" x="773" y="702" width="165" height="138"/>
		<path class="st2" d="m936 704v134h-161v-134h161m4-4h-169v142h169v-142z"/>
	</g>
	<g class="st0">
		<rect class="st1" x="781" y="613" width="157" height="88"/>
		<path class="st2" d="m936 615v84h-153v-84h153m4-4h-161v92h161v-92z"/>
	</g>
	<g class="st0">
		<rect class="st1" x="781" y="329" width="157" height="91"/>
		<path class="st2" d="m936 331v87h-153v-87h153m4-4h-161v95h161v-95z"/>
	</g>


	<rect class="st3" x="2045" y="1813" width="34" height="8"/>
	<rect class="st3" x="1877" y="1813" width="34" height="8"/>
	<rect class="st3" x="1871" y="1898" width="34" height="8"/>
	<rect class="st3" x="2142" y="1898" width="34" height="8"/>
	<rect class="st3" x="2334" y="1929" width="34" height="8"/>
	<rect class="st3" x="2334" y="1825" width="34" height="8"/>
	<rect class="st3" x="1644" y="1813" width="34" height="8"/>
	<rect class="st3" x="1647" y="1898" width="34" height="8"/>
	<rect class="st3" x="1483" y="1898" width="34" height="8"/>
	<rect class="st3" x="1450" y="1813" width="34" height="8"/>
	<rect class="st3" x="1332" y="1898" width="34" height="8"/>
	<rect class="st3" x="1246" y="1813" width="34" height="8"/>
	<rect class="st3" x="1238" y="1898" width="34" height="8"/>
	<rect class="st3" x="1187" y="1812" width="34" height="8"/>
	<rect class="st3" x="1018" y="1898" width="34" height="8"/>
	<rect class="st3" x="1019" y="1812" width="34" height="8"/>
	<rect class="st3" x="887" y="1898" width="34" height="8"/>
	<rect class="st3" x="868" y="1812" width="34" height="8"/>
	<rect class="st3" x="717" y="1898" width="34" height="8"/>
	<rect class="st3" x="694" y="1678" width="8" height="34"/>
	<rect class="st3" x="769" y="1448" width="8" height="34"/>
	<rect class="st3" x="694" y="1360" width="8" height="34"/>
	<rect class="st3" x="694" y="1286" width="8" height="34"/>
	<rect class="st3" x="769" y="1203" width="8" height="34"/>
	<rect class="st3" x="694" y="1127" width="8" height="34"/>
	<rect class="st3" x="769" y="969" width="8" height="34"/>
	<rect class="st3" x="694" y="865" width="8" height="34"/>
	<rect class="st3" x="769" y="792" width="8" height="34"/>
	<rect class="st3" x="694" y="794" width="8" height="34"/>
	<rect class="st3" x="777" y="628" width="8" height="34"/>
	<rect class="st3" x="694" y="628" width="8" height="34"/>
	<rect class="st3" x="694" y="436" width="8" height="34"/>
	<rect class="st3" x="777" y="381" width="8" height="34"/>
	<rect class="st3" x="694" y="364" width="8" height="34"/>
	<rect class="st3" x="2391" y="1865" width="8" height="34"/>


	<rect class="st4" x="2091" y="1660" width="68" height="101"/>
	<rect class="st4" x="2158" y="1660" width="68" height="101"/>


			<line class="st5" x1="2123" x2="2123" y1="1729" y2="1708.1"/>

				<polygon class="st6" points="2123 1694 2131.1 1713.9 2123 1709.2 2114.9 1713.9"/>





			<line class="st5" x1="2192" x2="2192" y1="1695" y2="1715.9"/>

				<polygon class="st6" points="2192 1730 2183.9 1710.1 2192 1714.8 2200.1 1710.1"/>



	<rect class="st7" x="575" y="1858.5" width="105.5" height="40"/>


			<line class="st5" x1="655" x2="634.1" y1="1879" y2="1879"/>

				<polygon class="st6" points="620 1879 639.9 1870.9 635.2 1879 639.9 1887.1"/>



	<rect class="st4" x="575.5" y="1820" width="104.5" height="39"/>


			<line class="st5" x1="619" x2="639.9" y1="1842" y2="1842"/>

				<polygon class="st6" points="654 1842 634.1 1850.1 638.8 1842 634.1 1833.9"/>



	<rect class="st7" x="838.6" y="885.5" width="105.5" height="41"/>


			<line class="st5" x1="882" x2="902.9" y1="908" y2="908"/>

				<polygon class="st6" points="917 908 897.1 916.1 901.8 908 897.1 899.9"/>



	<rect class="st7" x="781.8" y="567.8" width="93.7" height="40"/>


			<line class="st5" x1="854" x2="833.1" y1="588" y2="588"/>

				<polygon class="st6" points="819 588 838.9 579.9 834.2 588 838.9 596.1"/>



	<rect class="st4" x="781.4" y="486" width="93.6" height="66"/>


			<line class="st5" x1="825" x2="845.9" y1="520" y2="520"/>

				<polygon class="st6" points="860 520 840.1 528.1 844.8 520 840.1 511.9"/>



	<rect class="st7" x="838.5" y="843.5" width="104.8" height="42"/>


			<line class="st5" x1="917" x2="896.1" y1="867" y2="867"/>

				<polygon class="st6" points="882 867 901.9 858.9 897.2 867 901.9 875.1"/>



	<rect class="st7" x="781.4" y="424" width="93.6" height="49"/>


			<line class="st5" x1="853.5" x2="832.7" y1="448.7" y2="448.7"/>

				<polygon class="st6" points="818.5 448.7 838.4 440.6 833.7 448.7 838.4 456.9"/>





	<line class="st8" x1="525" x2="525" y1="2071" y2="327"/>
	<line class="st8" x1="521" x2="725" y1="323" y2="323"/>
	<line class="st8" x1="757" x2="948" y1="323" y2="323"/>
	<line class="st8" x1="944" x2="944" y1="327" y2="842"/>
	<line class="st8" x1="948" x2="984" y1="838" y2="838"/>
	<line class="st8" x1="980" x2="980" y1="842" y2="936"/>
	<line class="st8" x1="940" x2="976" y1="932" y2="932"/>
	<line class="st8" x1="944" x2="944" y1="936" y2="1497"/>
	<line class="st8" x1="948" x2="771" y1="1501" y2="1501"/>
	<line class="st8" x1="775" x2="775" y1="1505" y2="1645"/>
	<line class="st8" x1="779" x2="1396" y1="1641" y2="1641"/>
	<line class="st8" x1="1392" x2="1392" y1="1645" y2="1696"/>
	<line class="st8" x1="1396" x2="1546" y1="1692" y2="1692"/>
	<line class="st8" x1="1542" x2="1542" y1="1688" y2="1645"/>
	<line class="st8" x1="1538" x2="2088" y1="1641" y2="1641"/>
	<line class="st8" x1="2084" x2="2084" y1="1637" y2="1594"/>
	<line class="st8" x1="2088" x2="2129" y1="1598" y2="1598"/>
	<line class="st8" x1="2182" x2="2237" y1="1598" y2="1598"/>
	<line class="st8" x1="2233" x2="2233" y1="1704" y2="1602"/>
	<line class="st8" x1="2237" x2="3044" y1="1700" y2="1700"/>
	<line class="st8" x1="3040" x2="3040" y1="1704" y2="2071"/>
	<line class="st8" x1="3044" x2="521" y1="2075" y2="2075"/>

</svg>
