<?xml version="1.0" encoding="utf-8"?>
<!-- Generator: Adobe Illustrator 25.0.1, SVG Export Plug-In . SVG Version: 6.00 Build 0)  -->
<svg version="1.1" xmlns="http://www.w3.org/2000/svg" xmlns:xlink="http://www.w3.org/1999/xlink" x="0px" y="0px"
	 viewBox="0 0 3500 2550" style="enable-background:new 0 0 3500 2550;" xml:space="preserve">
<style type="text/css">
	.st1{opacity:0.5;fill:#C1272D;}
	.st2{fill:#C1272D;}
	.st3{fill:#1A1A1A;}
	.st4{fill:none;stroke:#0071BC;stroke-width:3;stroke-miterlimit:10;}
	.st5{fill:#9C8675;}
	.st6{fill:#A81A1E;}
	.st7{fill:none;stroke:#4D4D4D;stroke-width:8;stroke-miterlimit:10;}
	.st8{fill:none;stroke:#4D4D4D;stroke-width:9;stroke-miterlimit:10;}
</style>
<g id="reference">

		<image style="display:none;overflow:visible;" width="3501" height="2550" id="_x31_" xlink:href="1.png"  transform="matrix(0.75 0 0 0.75 474.285 319)">
	</image>

		<image style="display:none;overflow:visible;" width="3501" height="2550" id="_x32_" xlink:href="2.png"  transform="matrix(0.75 0 0 0.75 485.6 319)">
	</image>

		<image style="display:none;overflow:visible;" width="3501" height="2550" id="_x33_" xlink:href="3.png"  transform="matrix(0.75 0 0 0.75 485.6 318.25)">
	</image>

		<image style="display:none;overflow:visible;" width="3501" height="2550" id="_x34_" xlink:href="4.png"  transform="matrix(0.75 0 0 0.75 485.6 318.25)">
	</image>
</g>
<g id="Слой_9">
	<g id="doors">
		<g>
			<path class="st1" d="M417.9,1268.9c6.3,9.5,14.9,29.9,14.9,29.9s-5.9,4.9-14.9,4.5"/>
			<path class="st2" d="M431.4,1300.4l-15.7-31.7c-0.4-0.8-0.1-1.8,0.7-2.2l0,0c0.8-0.4,1.8-0.1,2.2,0.7l15.7,31.7
				c0.4,0.8,0.1,1.8-0.7,2.2l0,0C432.8,1301.5,431.8,1301.2,431.4,1300.4z"/>
		</g>
		<g>
			<path class="st1" d="M417.9,1580.6c6.3,9.5,14.9,29.9,14.9,29.9s-5.9,4.9-14.9,4.5"/>
			<path class="st2" d="M431.4,1612.1l-15.7-31.7c-0.4-0.8-0.1-1.8,0.7-2.2l0,0c0.8-0.4,1.8-0.1,2.2,0.7l15.7,31.7
				c0.4,0.8,0.1,1.8-0.7,2.2l0,0C432.8,1613.3,431.8,1612.9,431.4,1612.1z"/>
		</g>
		<g>
			<path class="st1" d="M430.8,1810.7c9.5-6.3,29.9-14.9,29.9-14.9s4.9,5.9,4.5,14.9"/>
			<path class="st2" d="M462.2,1797.2l-31.7,15.7c-0.8,0.4-1.8,0.1-2.2-0.7l0,0c-0.4-0.8-0.1-1.8,0.7-2.2l31.7-15.7
				c0.8-0.4,1.8-0.1,2.2,0.7l0,0C463.4,1795.8,463,1796.8,462.2,1797.2z"/>
		</g>
		<g>
			<path class="st1" d="M602.7,1810.7c9.5-6.3,29.9-14.9,29.9-14.9s4.9,5.9,4.5,14.9"/>
			<path class="st2" d="M634.2,1797.2l-31.7,15.7c-0.8,0.4-1.8,0.1-2.2-0.7l0,0c-0.4-0.8-0.1-1.8,0.7-2.2l31.7-15.7
				c0.8-0.4,1.8-0.1,2.2,0.7l0,0C635.3,1795.8,635,1796.8,634.2,1797.2z"/>
		</g>
		<g>
			<path class="st1" d="M731.7,1810.7c9.5-6.3,29.9-14.9,29.9-14.9s4.9,5.9,4.5,14.9"/>
			<path class="st2" d="M763.2,1797.2l-31.7,15.7c-0.8,0.4-1.8,0.1-2.2-0.7l0,0c-0.4-0.8-0.1-1.8,0.7-2.2l31.7-15.7
				c0.8-0.4,1.8-0.1,2.2,0.7l0,0C764.3,1795.8,764,1796.8,763.2,1797.2z"/>
		</g>
		<g>
			<path class="st1" d="M946.2,1810.7c9.5-6.3,29.9-14.9,29.9-14.9s4.9,5.9,4.5,14.9"/>
			<path class="st2" d="M977.7,1797.2l-31.7,15.7c-0.8,0.4-1.8,0.1-2.2-0.7l0,0c-0.4-0.8-0.1-1.8,0.7-2.2l31.7-15.7
				c0.8-0.4,1.8-0.1,2.2,0.7l0,0C978.9,1795.8,978.5,1796.8,977.7,1797.2z"/>
		</g>
		<g>
			<path class="st1" d="M1044.3,1810.7c9.5-6.3,29.9-14.9,29.9-14.9s4.9,5.9,4.5,14.9"/>
			<path class="st2" d="M1075.8,1797.2l-31.7,15.7c-0.8,0.4-1.8,0.1-2.2-0.7l0,0c-0.4-0.8-0.1-1.8,0.7-2.2l31.7-15.7
				c0.8-0.4,1.8-0.1,2.2,0.7l0,0C1076.9,1795.8,1076.6,1796.8,1075.8,1797.2z"/>
		</g>
		<g>
			<path class="st1" d="M1199.1,1810.7c9.5-6.3,29.9-14.9,29.9-14.9s4.9,5.9,4.5,14.9"/>
			<path class="st2" d="M1230.6,1797.2l-31.7,15.7c-0.8,0.4-1.8,0.1-2.2-0.7l0,0c-0.4-0.8-0.1-1.8,0.7-2.2l31.7-15.7
				c0.8-0.4,1.8-0.1,2.2,0.7l0,0C1231.7,1795.8,1231.4,1796.8,1230.6,1797.2z"/>
		</g>
		<g>
			<path class="st1" d="M1364.7,1810.7c9.5-6.3,29.9-14.9,29.9-14.9s4.9,5.9,4.5,14.9"/>
			<path class="st2" d="M1396.2,1797.2l-31.7,15.7c-0.8,0.4-1.8,0.1-2.2-0.7l0,0c-0.4-0.8-0.1-1.8,0.7-2.2l31.7-15.7
				c0.8-0.4,1.8-0.1,2.2,0.7l0,0C1397.3,1795.8,1397,1796.8,1396.2,1797.2z"/>
		</g>
		<g>
			<path class="st1" d="M1588.4,1810.7c9.5-6.3,29.9-14.9,29.9-14.9s4.9,5.9,4.5,14.9"/>
			<path class="st2" d="M1619.9,1797.2l-31.7,15.7c-0.8,0.4-1.8,0.1-2.2-0.7l0,0c-0.4-0.8-0.1-1.8,0.7-2.2l31.7-15.7
				c0.8-0.4,1.8-0.1,2.2,0.7l0,0C1621,1795.8,1620.7,1796.8,1619.9,1797.2z"/>
		</g>
		<g>
			<path class="st1" d="M2050.8,1835.6c9.5-6.3,29.9-14.9,29.9-14.9s4.9,5.9,4.5,14.9"/>
			<path class="st2" d="M2082.3,1822.1l-31.7,15.7c-0.8,0.4-1.8,0.1-2.2-0.7l0,0c-0.4-0.8-0.1-1.8,0.7-2.2l31.7-15.7
				c0.8-0.4,1.8-0.1,2.2,0.7l0,0C2083.4,1820.7,2083.1,1821.7,2082.3,1822.1z"/>
		</g>
		<g>
			<path class="st1" d="M1856.4,1810.6c9.5-6.3,29.9-14.9,29.9-14.9s4.9,5.9,4.5,14.9"/>
			<path class="st2" d="M1887.9,1797.2l-31.7,15.7c-0.8,0.4-1.8,0.1-2.2-0.7l0,0c-0.4-0.8-0.1-1.8,0.7-2.2l31.7-15.7
				c0.8-0.4,1.8-0.1,2.2,0.7l0,0C1889,1795.8,1888.7,1796.8,1887.9,1797.2z"/>
		</g>
		<g>
			<path class="st1" d="M2079.6,1742.7c-9.5,6.3-29.9,14.9-29.9,14.9s-4.9-5.9-4.5-14.9"/>
			<path class="st2" d="M2048.1,1756.2l31.7-15.7c0.8-0.4,1.8-0.1,2.2,0.7l0,0c0.4,0.8,0.1,1.8-0.7,2.2l-31.7,15.7
				c-0.8,0.4-1.8,0.1-2.2-0.7l0,0C2046.9,1757.5,2047.3,1756.6,2048.1,1756.2z"/>
		</g>
		<g>
			<path class="st1" d="M1785.9,1727.6c-9.5,6.3-29.9,14.9-29.9,14.9s-4.9-5.9-4.5-14.9"/>
			<path class="st2" d="M1754.4,1741.1l31.7-15.7c0.8-0.4,1.8-0.1,2.2,0.7l0,0c0.4,0.8,0.1,1.8-0.7,2.2l-31.7,15.7
				c-0.8,0.4-1.8,0.1-2.2-0.7l0,0C1753.3,1742.4,1753.6,1741.5,1754.4,1741.1z"/>
		</g>
		<g>
			<path class="st1" d="M1626.1,1727.6c-9.5,6.3-29.9,14.9-29.9,14.9s-4.9-5.9-4.5-14.9"/>
			<path class="st2" d="M1594.6,1741.1l31.7-15.7c0.8-0.4,1.8-0.1,2.2,0.7l0,0c0.4,0.8,0.1,1.8-0.7,2.2L1596,1744
				c-0.8,0.4-1.8,0.1-2.2-0.7l0,0C1593.4,1742.4,1593.8,1741.5,1594.6,1741.1z"/>
		</g>
		<g>
			<path class="st1" d="M1390.6,1727.6c-9.5,6.3-29.9,14.9-29.9,14.9s-4.9-5.9-4.5-14.9"/>
			<path class="st2" d="M1359.1,1741.1l31.7-15.7c0.8-0.4,1.8-0.1,2.2,0.7l0,0c0.4,0.8,0.1,1.8-0.7,2.2l-31.7,15.7
				c-0.8,0.4-1.8,0.1-2.2-0.7l0,0C1358,1742.4,1358.3,1741.5,1359.1,1741.1z"/>
		</g>
		<g>
			<path class="st1" d="M1201.3,1727.6c-9.5,6.3-29.9,14.9-29.9,14.9s-4.9-5.9-4.5-14.9"/>
			<path class="st2" d="M1169.8,1741.1l31.7-15.7c0.8-0.4,1.8-0.1,2.2,0.7l0,0c0.4,0.8,0.1,1.8-0.7,2.2l-31.7,15.7
				c-0.8,0.4-1.8,0.1-2.2-0.7l0,0C1168.6,1742.4,1169,1741.5,1169.8,1741.1z"/>
		</g>
		<g>
			<path class="st1" d="M996.6,1727.6c-9.5,6.3-29.9,14.9-29.9,14.9s-4.9-5.9-4.5-14.9"/>
			<path class="st2" d="M965.1,1741.1l31.7-15.7c0.8-0.4,1.8-0.1,2.2,0.7l0,0c0.4,0.8,0.1,1.8-0.7,2.2l-31.7,15.7
				c-0.8,0.4-1.8,0.1-2.2-0.7h0C963.9,1742.4,964.3,1741.5,965.1,1741.1z"/>
		</g>
		<g>
			<path class="st1" d="M932.7,1727.6c-9.5,6.3-29.9,14.9-29.9,14.9s-4.9-5.9-4.5-14.9"/>
			<path class="st2" d="M901.2,1741.1l31.7-15.7c0.8-0.4,1.8-0.1,2.2,0.7l0,0c0.4,0.8,0.1,1.8-0.7,2.2l-31.7,15.7
				c-0.8,0.4-1.8,0.1-2.2-0.7l0,0C900.1,1742.4,900.4,1741.5,901.2,1741.1z"/>
		</g>
		<g>
			<path class="st1" d="M768.2,1727.6c-9.5,6.3-29.9,14.9-29.9,14.9s-4.9-5.9-4.5-14.9"/>
			<path class="st2" d="M736.7,1741.1l31.7-15.7c0.8-0.4,1.8-0.1,2.2,0.7l0,0c0.4,0.8,0.1,1.8-0.7,2.2l-31.7,15.7
				c-0.8,0.4-1.8,0.1-2.2-0.7l0,0C735.6,1742.4,735.9,1741.5,736.7,1741.1z"/>
		</g>
		<g>
			<path class="st1" d="M618.6,1727.6c-9.5,6.3-29.9,14.9-29.9,14.9s-4.9-5.9-4.5-14.9"/>
			<path class="st2" d="M587.1,1741.1l31.7-15.7c0.8-0.4,1.8-0.1,2.2,0.7l0,0c0.4,0.8,0.1,1.8-0.7,2.2l-31.7,15.7
				c-0.8,0.4-1.8,0.1-2.2-0.7l0,0C586,1742.4,586.3,1741.5,587.1,1741.1z"/>
		</g>
		<g>
			<path class="st1" d="M418,1194.5c6.3,9.5,14.9,29.9,14.9,29.9s-5.9,4.9-14.9,4.5"/>
			<path class="st2" d="M431.5,1226l-15.7-31.7c-0.4-0.8-0.1-1.8,0.7-2.2l0,0c0.8-0.4,1.8-0.1,2.2,0.7l15.7,31.7
				c0.4,0.8,0.1,1.8-0.7,2.2l0,0C432.8,1227.1,431.9,1226.8,431.5,1226z"/>
		</g>
		<g>
			<path class="st1" d="M418,1035.3c6.3,9.5,14.9,29.9,14.9,29.9s-5.9,4.9-14.9,4.5"/>
			<path class="st2" d="M431.5,1066.7l-15.7-31.7c-0.4-0.8-0.1-1.8,0.7-2.2l0,0c0.8-0.4,1.8-0.1,2.2,0.7l15.7,31.7
				c0.4,0.8,0.1,1.8-0.7,2.2l0,0C432.8,1067.9,431.9,1067.5,431.5,1066.7z"/>
		</g>
		<g>
			<path class="st1" d="M418,776.1c6.3,9.5,14.9,29.9,14.9,29.9s-5.9,4.9-14.9,4.5"/>
			<path class="st2" d="M431.5,807.6l-15.7-31.7c-0.4-0.8-0.1-1.8,0.7-2.2l0,0c0.8-0.4,1.8-0.1,2.2,0.7l15.7,31.7
				c0.4,0.8,0.1,1.8-0.7,2.2l0,0C432.8,808.8,431.9,808.4,431.5,807.6z"/>
		</g>
		<g>
			<path class="st1" d="M418,701.5c6.3,9.5,14.9,29.9,14.9,29.9s-5.9,4.9-14.9,4.5"/>
			<path class="st2" d="M431.5,733l-15.7-31.7c-0.4-0.8-0.1-1.8,0.7-2.2l0,0c0.8-0.4,1.8-0.1,2.2,0.7l15.7,31.7
				c0.4,0.8,0.1,1.8-0.7,2.2l0,0C432.8,734.1,431.9,733.8,431.5,733z"/>
		</g>
		<g>
			<path class="st1" d="M418,533.3c6.3,9.5,14.9,29.9,14.9,29.9s-5.9,4.9-14.9,4.5"/>
			<path class="st2" d="M431.5,564.8l-15.7-31.7c-0.4-0.8-0.1-1.8,0.7-2.2l0,0c0.8-0.4,1.8-0.1,2.2,0.7l15.7,31.7
				c0.4,0.8,0.1,1.8-0.7,2.2l0,0C432.8,566,431.9,565.6,431.5,564.8z"/>
		</g>
		<g>
			<path class="st1" d="M418,344.8c6.3,9.5,14.9,29.9,14.9,29.9s-5.9,4.9-14.9,4.5"/>
			<path class="st2" d="M431.5,376.3l-15.7-31.7c-0.4-0.8-0.1-1.8,0.7-2.2v0c0.8-0.4,1.8-0.1,2.2,0.7l15.7,31.7
				c0.4,0.8,0.1,1.8-0.7,2.2l0,0C432.8,377.5,431.9,377.1,431.5,376.3z"/>
		</g>
		<g>
			<path class="st1" d="M486.7,285.7c-6.3,9.5-14.9,29.9-14.9,29.9s5.9,4.9,14.9,4.5"/>
			<path class="st2" d="M473.2,317.2l15.7-31.7c0.4-0.8,0.1-1.8-0.7-2.2l0,0c-0.8-0.4-1.8-0.1-2.2,0.7l-15.7,31.7
				c-0.4,0.8-0.1,1.8,0.7,2.2l0,0C471.8,318.4,472.8,318,473.2,317.2z"/>
		</g>
		<g>
			<path class="st1" d="M486.7,539.1c-6.3,9.5-14.9,29.9-14.9,29.9s5.9,4.9,14.9,4.5"/>
			<path class="st2" d="M473.2,570.6l15.7-31.7c0.4-0.8,0.1-1.8-0.7-2.2l0,0c-0.8-0.4-1.8-0.1-2.2,0.7l-15.7,31.7
				c-0.4,0.8-0.1,1.8,0.7,2.2l0,0C471.8,571.7,472.8,571.4,473.2,570.6z"/>
		</g>
		<g>
			<path class="st1" d="M486.7,734.6c-6.3-9.5-14.9-29.9-14.9-29.9s5.9-4.9,14.9-4.5"/>
			<path class="st2" d="M473.2,703.1l15.7,31.7c0.4,0.8,0.1,1.8-0.7,2.2l0,0c-0.8,0.4-1.8,0.1-2.2-0.7l-15.7-31.7
				c-0.4-0.8-0.1-1.8,0.7-2.2l0,0C471.8,702,472.8,702.3,473.2,703.1z"/>
		</g>
		<g>
			<path class="st1" d="M486.7,913.6c-6.3-9.5-14.9-29.9-14.9-29.9s5.9-4.9,14.9-4.5"/>
			<path class="st2" d="M473.2,882.1l15.7,31.7c0.4,0.8,0.1,1.8-0.7,2.2l0,0c-0.8,0.4-1.8,0.1-2.2-0.7l-15.7-31.7
				c-0.4-0.8-0.1-1.8,0.7-2.2l0,0C471.8,881,472.8,881.3,473.2,882.1z"/>
		</g>
		<g>
			<path class="st1" d="M486.7,1145.4c-6.3-9.5-14.9-29.9-14.9-29.9s5.9-4.9,14.9-4.5"/>
			<path class="st2" d="M473.2,1113.9l15.7,31.7c0.4,0.8,0.1,1.8-0.7,2.2v0c-0.8,0.4-1.8,0.1-2.2-0.7l-15.7-31.7
				c-0.4-0.8-0.1-1.8,0.7-2.2l0,0C471.8,1112.8,472.8,1113.1,473.2,1113.9z"/>
		</g>
		<g>
			<path class="st1" d="M486.7,1387.8c-6.3-9.5-14.9-29.9-14.9-29.9s5.9-4.9,14.9-4.5"/>
			<path class="st2" d="M473.2,1356.3l15.7,31.7c0.4,0.8,0.1,1.8-0.7,2.2l0,0c-0.8,0.4-1.8,0.1-2.2-0.7l-15.7-31.7
				c-0.4-0.8-0.1-1.8,0.7-2.2l0,0C471.8,1355.2,472.8,1355.5,473.2,1356.3z"/>
		</g>
		<g>
			<path class="st1" d="M2105,1803.8c-6.3-9.5-14.9-29.9-14.9-29.9s5.9-4.9,14.9-4.5"/>
			<path class="st2" d="M2091.6,1772.3l15.7,31.7c0.4,0.8,0.1,1.8-0.7,2.2l0,0c-0.8,0.4-1.8,0.1-2.2-0.7l-15.7-31.7
				c-0.4-0.8-0.1-1.8,0.7-2.2l0,0C2090.2,1771.2,2091.2,1771.5,2091.6,1772.3z"/>
		</g>
		<g>
			<path class="st1" d="M418,299.1c6.3-9.5,14.9-29.9,14.9-29.9s-5.9-4.9-14.9-4.5"/>
			<path class="st2" d="M431.5,267.6l-15.7,31.7c-0.4,0.8-0.1,1.8,0.7,2.2v0c0.8,0.4,1.8,0.1,2.2-0.7l15.7-31.7
				c0.4-0.8,0.1-1.8-0.7-2.2l0,0C432.8,266.5,431.9,266.8,431.5,267.6z"/>
		</g>
	</g>
	<g id="marks">
		<circle class="st3" cx="1735.9" cy="1627.3" r="10.4"/>
		<path class="st3" d="M1732.4,1643.1l-13.7,23.7c-1.5,2.6,0.4,6,3.4,6h27.3c3.1,0,5-3.3,3.4-6l-13.7-23.7
			C1737.8,1640.5,1734,1640.5,1732.4,1643.1z"/>
		<circle class="st3" cx="1622.8" cy="1627.3" r="10.4"/>
		<path class="st3" d="M1626.2,1678.8l13.8-23.9c1.5-2.6-0.4-5.9-3.4-5.9H1609c-3,0-4.9,3.3-3.4,5.9l13.8,23.9
			C1620.9,1681.4,1624.7,1681.4,1626.2,1678.8z"/>
	</g>
	<g id="rooms">
		<g>
			<path d="M313.9,287.8v2.2h-16.7v-1.7l9.9-9.7c1.2-1.2,2.1-2.3,2.5-3.2c0.4-0.9,0.7-1.8,0.7-2.7c0-1.4-0.5-2.5-1.4-3.3
				c-1-0.8-2.3-1.2-4.1-1.2c-2.8,0-5,0.9-6.5,2.7l-1.7-1.5c0.9-1.1,2.1-1.9,3.6-2.5c1.4-0.6,3.1-0.9,4.9-0.9c2.4,0,4.3,0.6,5.8,1.7
				c1.4,1.1,2.1,2.7,2.1,4.7c0,1.2-0.3,2.4-0.8,3.5c-0.5,1.1-1.6,2.4-3.1,3.9l-8.1,8H313.9z"/>
			<path d="M323.5,266.2V290h-2.4v-21.6h-5.6v-2.2H323.5z"/>
			<path d="M346,266.2v1.7L336,290h-2.7l9.8-21.6h-12.2v4.5h-2.4v-6.6H346z"/>
			<path d="M364,283.6h-13.3l-2.9,6.4h-2.6l10.9-23.8h2.5l10.9,23.8h-2.7L364,283.6z M363.1,281.6l-5.7-12.8l-5.7,12.8H363.1z"/>
		</g>
		<g>
			<path d="M327.9,401.2v2.2h-16.7v-1.7l9.9-9.7c1.2-1.2,2.1-2.3,2.5-3.2c0.4-0.9,0.7-1.8,0.7-2.7c0-1.4-0.5-2.5-1.4-3.3
				c-1-0.8-2.3-1.2-4.1-1.2c-2.8,0-5,0.9-6.5,2.7l-1.7-1.5c0.9-1.1,2.1-1.9,3.6-2.5c1.4-0.6,3.1-0.9,4.9-0.9c2.4,0,4.3,0.6,5.8,1.7
				c1.4,1.1,2.1,2.7,2.1,4.7c0,1.2-0.3,2.4-0.8,3.5c-0.5,1.1-1.6,2.4-3.1,3.9l-8.1,8H327.9z"/>
			<path d="M337.6,379.6v23.8h-2.4v-21.6h-5.6v-2.2H337.6z"/>
			<path d="M360,379.6v1.7l-10,22.1h-2.7l9.8-21.6H345v4.5h-2.4v-6.6H360z"/>
		</g>
		<g>
			<path d="M568.7,287.8v2.2H552v-1.7l9.9-9.7c1.2-1.2,2.1-2.3,2.5-3.2c0.4-0.9,0.7-1.8,0.7-2.7c0-1.4-0.5-2.5-1.4-3.3
				c-1-0.8-2.3-1.2-4.1-1.2c-2.8,0-5,0.9-6.5,2.7l-1.7-1.5c0.9-1.1,2.1-1.9,3.6-2.5c1.4-0.6,3.1-0.9,4.9-0.9c2.4,0,4.3,0.6,5.8,1.7
				c1.4,1.1,2.1,2.7,2.1,4.7c0,1.2-0.3,2.4-0.8,3.5c-0.5,1.1-1.6,2.4-3.1,3.9l-8.1,8H568.7z"/>
			<path d="M578.4,266.2V290h-2.4v-21.6h-5.6v-2.2H578.4z"/>
			<path d="M598.1,276.6c1.2,0.6,2.2,1.4,2.8,2.5c0.7,1.1,1,2.3,1,3.8c0,1.5-0.4,2.7-1.1,3.8c-0.7,1.1-1.7,2-2.9,2.6
				c-1.2,0.6-2.6,0.9-4.2,0.9c-3.2,0-5.6-1-7.2-3.1c-1.7-2.1-2.5-5-2.5-8.8c0-2.7,0.5-4.9,1.4-6.7c0.9-1.8,2.2-3.2,3.8-4.2
				s3.5-1.4,5.7-1.4c2.4,0,4.2,0.4,5.6,1.3l-1,2c-1.1-0.7-2.7-1.1-4.6-1.1c-2.6,0-4.7,0.8-6.2,2.5s-2.2,4.1-2.2,7.3
				c0,0.6,0,1.2,0.1,1.9c0.6-1.3,1.5-2.3,2.8-3c1.3-0.7,2.8-1.1,4.5-1.1C595.5,275.7,596.9,276,598.1,276.6z M597.9,286.7
				c1.1-0.9,1.6-2.2,1.6-3.8s-0.5-2.8-1.6-3.7c-1.1-0.9-2.5-1.4-4.4-1.4c-1.2,0-2.3,0.2-3.2,0.7c-0.9,0.5-1.6,1.1-2.2,1.9
				c-0.5,0.8-0.8,1.7-0.8,2.7c0,0.9,0.2,1.7,0.7,2.5c0.5,0.8,1.2,1.4,2.2,1.9s2.1,0.7,3.4,0.7C595.5,288.1,596.9,287.6,597.9,286.7z
				"/>
		</g>
		<g>
			<path d="M327.9,543v2.2h-16.7v-1.7l9.9-9.7c1.2-1.2,2.1-2.3,2.5-3.2c0.4-0.9,0.7-1.8,0.7-2.7c0-1.4-0.5-2.5-1.4-3.3
				c-1-0.8-2.3-1.2-4.1-1.2c-2.8,0-5,0.9-6.5,2.7l-1.7-1.5c0.9-1.1,2.1-1.9,3.6-2.5c1.4-0.6,3.1-0.9,4.9-0.9c2.4,0,4.3,0.6,5.8,1.7
				c1.4,1.1,2.1,2.7,2.1,4.7c0,1.2-0.3,2.4-0.8,3.5c-0.5,1.1-1.6,2.4-3.1,3.9l-8.1,8H327.9z"/>
			<path d="M337.6,521.4v23.8h-2.4v-21.6h-5.6v-2.2H337.6z"/>
			<path d="M360.3,535c0.8,1,1.2,2.2,1.2,3.6c0,1.4-0.4,2.6-1.1,3.6s-1.8,1.8-3.2,2.4c-1.4,0.6-3,0.8-4.9,0.8
				c-2.9,0-5.1-0.6-6.7-1.8c-1.6-1.2-2.4-2.9-2.4-5c0-1.4,0.4-2.6,1.2-3.6c0.8-1,1.9-1.7,3.4-2.2c-1.2-0.5-2.2-1.2-2.8-2.1
				c-0.6-0.9-1-2-1-3.2c0-1.9,0.8-3.5,2.3-4.6c1.5-1.1,3.5-1.7,6.1-1.7c1.7,0,3.1,0.3,4.4,0.8c1.3,0.5,2.2,1.2,2.9,2.2
				c0.7,1,1.1,2.1,1.1,3.3c0,1.2-0.3,2.3-1,3.2c-0.7,0.9-1.6,1.6-2.8,2.1C358.4,533.2,359.5,534,360.3,535z M357.2,542
				c1.2-0.9,1.8-2,1.8-3.5c0-1.5-0.6-2.6-1.8-3.5c-1.2-0.9-2.8-1.3-4.9-1.3c-2.1,0-3.7,0.4-4.9,1.3s-1.8,2-1.8,3.5
				c0,1.5,0.6,2.7,1.8,3.5s2.8,1.3,4.9,1.3S356,542.9,357.2,542z M348,530.7c1,0.8,2.5,1.2,4.3,1.2s3.3-0.4,4.3-1.2
				c1.1-0.8,1.6-1.8,1.6-3.1c0-1.3-0.5-2.4-1.6-3.2c-1.1-0.8-2.5-1.2-4.3-1.2c-1.8,0-3.2,0.4-4.3,1.2c-1.1,0.8-1.6,1.8-1.6,3.1
				C346.4,528.9,346.9,529.9,348,530.7z"/>
		</g>
		<g>
			<path d="M566.1,571.1v2.2h-16.7v-1.7l9.9-9.7c1.2-1.2,2.1-2.3,2.5-3.2c0.4-0.9,0.7-1.8,0.7-2.7c0-1.4-0.5-2.5-1.4-3.3
				c-1-0.8-2.3-1.2-4.1-1.2c-2.8,0-5,0.9-6.5,2.7l-1.7-1.5c0.9-1.1,2.1-1.9,3.6-2.5c1.4-0.6,3.1-0.9,4.9-0.9c2.4,0,4.3,0.6,5.8,1.7
				c1.4,1.1,2.1,2.7,2.1,4.7c0,1.2-0.3,2.4-0.8,3.5c-0.5,1.1-1.6,2.4-3.1,3.9l-8.1,8H566.1z"/>
			<path d="M575.8,549.5v23.8h-2.4v-21.6h-5.6v-2.2H575.8z"/>
			<path d="M595.2,561.1c1.6,1.2,2.4,3,2.4,5.2c0,1.4-0.3,2.6-1,3.7c-0.6,1.1-1.6,1.9-2.9,2.6c-1.3,0.6-2.9,0.9-4.8,0.9
				c-1.7,0-3.3-0.3-4.8-0.8c-1.5-0.6-2.8-1.3-3.7-2.2l1.2-1.9c0.8,0.8,1.8,1.5,3.1,2c1.3,0.5,2.7,0.8,4.2,0.8c2,0,3.5-0.4,4.6-1.3
				c1.1-0.9,1.6-2.1,1.6-3.5c0-1.6-0.6-2.9-1.8-3.7c-1.2-0.8-3.3-1.3-6.1-1.3h-5.1l1.2-11.9h13v2.2h-10.9l-0.8,7.6h3.1
				C591.1,559.2,593.7,559.9,595.2,561.1z"/>
		</g>
		<g>
			<path d="M328.5,688.5v2.2h-16.7v-1.7l9.9-9.7c1.2-1.2,2.1-2.3,2.5-3.2c0.4-0.9,0.7-1.8,0.7-2.7c0-1.4-0.5-2.5-1.4-3.3
				c-1-0.8-2.3-1.2-4.1-1.2c-2.8,0-5,0.9-6.5,2.7l-1.7-1.5c0.9-1.1,2.1-1.9,3.6-2.5c1.4-0.6,3.1-0.9,4.9-0.9c2.4,0,4.3,0.6,5.8,1.7
				c1.4,1.1,2.1,2.7,2.1,4.7c0,1.2-0.3,2.4-0.8,3.5c-0.5,1.1-1.6,2.4-3.1,3.9l-8.1,8H328.5z"/>
			<path d="M338.2,666.8v23.8h-2.4V669h-5.6v-2.2H338.2z"/>
			<path d="M358.5,669.7c1.7,2.1,2.5,5,2.5,8.8c0,2.7-0.5,4.9-1.4,6.7c-0.9,1.8-2.2,3.2-3.8,4.2c-1.6,0.9-3.5,1.4-5.7,1.4
				c-2.4,0-4.2-0.4-5.6-1.3l1-2c1.1,0.7,2.7,1.1,4.6,1.1c2.6,0,4.7-0.8,6.2-2.5s2.2-4.1,2.2-7.3c0-0.6,0-1.2-0.1-1.9
				c-0.6,1.3-1.5,2.3-2.8,3s-2.8,1.1-4.5,1.1c-1.6,0-3-0.3-4.2-0.9c-1.2-0.6-2.2-1.4-2.8-2.5c-0.7-1.1-1-2.3-1-3.8
				c0-1.5,0.4-2.7,1.1-3.8c0.7-1.1,1.7-2,2.9-2.6c1.2-0.6,2.6-0.9,4.2-0.9C354.4,666.6,356.8,667.7,358.5,669.7z M354.7,678.3
				c0.9-0.5,1.6-1.1,2.2-1.9c0.5-0.8,0.8-1.7,0.8-2.7c0-0.9-0.2-1.7-0.7-2.5c-0.5-0.8-1.2-1.4-2.2-1.9c-1-0.5-2.1-0.7-3.4-0.7
				c-1.7,0-3.1,0.5-4.2,1.4c-1.1,0.9-1.6,2.2-1.6,3.8s0.5,2.8,1.6,3.7c1.1,0.9,2.5,1.4,4.4,1.4C352.7,679,353.8,678.8,354.7,678.3z"
				/>
		</g>
		<g>
			<path d="M566.1,688.5v2.2h-16.7v-1.7l9.9-9.7c1.2-1.2,2.1-2.3,2.5-3.2c0.4-0.9,0.7-1.8,0.7-2.7c0-1.4-0.5-2.5-1.4-3.3
				c-1-0.8-2.3-1.2-4.1-1.2c-2.8,0-5,0.9-6.5,2.7l-1.7-1.5c0.9-1.1,2.1-1.9,3.6-2.5c1.4-0.6,3.1-0.9,4.9-0.9c2.4,0,4.3,0.6,5.8,1.7
				c1.4,1.1,2.1,2.7,2.1,4.7c0,1.2-0.3,2.4-0.8,3.5c-0.5,1.1-1.6,2.4-3.1,3.9l-8.1,8H566.1z"/>
			<path d="M575.8,666.8v23.8h-2.4V669h-5.6v-2.2H575.8z"/>
			<path d="M601.7,684.4h-4.8v6.3h-2.4v-6.3H581v-1.8l12.6-15.8h2.7l-12.2,15.4h10.3v-5.5h2.4v5.5h4.8V684.4z"/>
		</g>
		<g>
			<path d="M566.7,1057.5v2.2H550v-1.7l9.9-9.7c1.2-1.2,2.1-2.3,2.5-3.2c0.4-0.9,0.7-1.8,0.7-2.7c0-1.4-0.5-2.5-1.4-3.3
				c-1-0.8-2.3-1.2-4.1-1.2c-2.8,0-5,0.9-6.5,2.7l-1.7-1.5c0.9-1.1,2.1-1.9,3.6-2.5c1.4-0.6,3.1-0.9,4.9-0.9c2.4,0,4.3,0.6,5.8,1.7
				c1.4,1.1,2.1,2.7,2.1,4.7c0,1.2-0.3,2.4-0.8,3.5c-0.5,1.1-1.6,2.4-3.1,3.9l-8.1,8H566.7z"/>
			<path d="M576.4,1035.9v23.8h-2.4v-21.6h-5.6v-2.2H576.4z"/>
			<path d="M595.8,1048.1c1.3,1.2,2,2.8,2,4.7c0,1.4-0.3,2.6-1,3.6c-0.7,1.1-1.6,1.9-2.9,2.5c-1.3,0.6-2.9,0.9-4.7,0.9
				c-1.7,0-3.3-0.3-4.9-0.8c-1.5-0.6-2.8-1.3-3.7-2.2l1.2-1.9c0.8,0.8,1.8,1.5,3.2,2c1.3,0.5,2.7,0.8,4.2,0.8c1.9,0,3.5-0.4,4.5-1.3
				c1.1-0.9,1.6-2,1.6-3.5c0-1.5-0.5-2.6-1.6-3.5c-1.1-0.8-2.7-1.3-4.8-1.3h-1.7v-1.8l6.6-8.3h-12.2v-2.2h15.3v1.7l-6.7,8.5
				C592.6,1046.2,594.5,1046.9,595.8,1048.1z"/>
		</g>
		<g>
			<path d="M329.1,978.8v2.2h-16.7v-1.7l9.9-9.7c1.2-1.2,2.1-2.3,2.5-3.2c0.4-0.9,0.7-1.8,0.7-2.7c0-1.4-0.5-2.5-1.4-3.3
				c-1-0.8-2.3-1.2-4.1-1.2c-2.8,0-5,0.9-6.5,2.7l-1.7-1.5c0.9-1.1,2.1-1.9,3.6-2.5c1.4-0.6,3.1-0.9,4.9-0.9c2.4,0,4.3,0.6,5.8,1.7
				c1.4,1.1,2.1,2.7,2.1,4.7c0,1.2-0.3,2.4-0.8,3.5c-0.5,1.1-1.6,2.4-3.1,3.9l-8.1,8H329.1z"/>
			<path d="M348.4,978.8v2.2h-16.7v-1.7l9.9-9.7c1.2-1.2,2.1-2.3,2.5-3.2c0.4-0.9,0.7-1.8,0.7-2.7c0-1.4-0.5-2.5-1.4-3.3
				c-1-0.8-2.3-1.2-4.1-1.2c-2.8,0-5,0.9-6.5,2.7l-1.7-1.5c0.9-1.1,2.1-1.9,3.6-2.5c1.4-0.6,3.1-0.9,4.9-0.9c2.4,0,4.3,0.6,5.8,1.7
				c1.4,1.1,2.1,2.7,2.1,4.7c0,1.2-0.3,2.4-0.8,3.5c-0.5,1.1-1.6,2.4-3.1,3.9l-8.1,8H348.4z"/>
			<path d="M355.9,979.7c-1.4-1-2.6-2.4-3.4-4.2c-0.8-1.8-1.2-4-1.2-6.4c0-2.5,0.4-4.6,1.2-6.4c0.8-1.8,1.9-3.2,3.4-4.2
				c1.4-1,3.1-1.5,4.9-1.5s3.5,0.5,4.9,1.5c1.4,1,2.6,2.4,3.4,4.2c0.8,1.8,1.2,4,1.2,6.4c0,2.5-0.4,4.6-1.2,6.4
				c-0.8,1.8-1.9,3.2-3.4,4.2c-1.4,1-3.1,1.5-4.9,1.5S357.4,980.7,355.9,979.7z M364.5,977.8c1.1-0.8,1.9-1.9,2.5-3.4
				c0.6-1.5,0.9-3.3,0.9-5.3s-0.3-3.9-0.9-5.3c-0.6-1.5-1.4-2.6-2.5-3.4c-1.1-0.8-2.3-1.2-3.7-1.2c-1.4,0-2.6,0.4-3.7,1.2
				c-1.1,0.8-1.9,1.9-2.5,3.4c-0.6,1.5-0.9,3.3-0.9,5.3s0.3,3.9,0.9,5.3c0.6,1.5,1.4,2.6,2.5,3.4c1.1,0.8,2.3,1.2,3.7,1.2
				C362.2,979,363.4,978.6,364.5,977.8z"/>
		</g>
		<g>
			<path d="M329.7,1219.7v2.2H313v-1.7l9.9-9.7c1.2-1.2,2.1-2.3,2.5-3.2s0.7-1.8,0.7-2.7c0-1.4-0.5-2.5-1.4-3.3
				c-1-0.8-2.3-1.2-4.1-1.2c-2.8,0-5,0.9-6.5,2.7l-1.7-1.5c0.9-1.1,2.1-1.9,3.6-2.5c1.4-0.6,3.1-0.9,4.9-0.9c2.4,0,4.3,0.6,5.8,1.7
				c1.4,1.1,2.1,2.7,2.1,4.7c0,1.2-0.3,2.4-0.8,3.5c-0.5,1.1-1.6,2.4-3.1,3.9l-8.1,8H329.7z"/>
			<path d="M349,1219.7v2.2h-16.7v-1.7l9.9-9.7c1.2-1.2,2.1-2.3,2.5-3.2s0.7-1.8,0.7-2.7c0-1.4-0.5-2.5-1.4-3.3
				c-1-0.8-2.3-1.2-4.1-1.2c-2.8,0-5,0.9-6.5,2.7l-1.7-1.5c0.9-1.1,2.1-1.9,3.6-2.5c1.4-0.6,3.1-0.9,4.9-0.9c2.4,0,4.3,0.6,5.8,1.7
				c1.4,1.1,2.1,2.7,2.1,4.7c0,1.2-0.3,2.4-0.8,3.5c-0.5,1.1-1.6,2.4-3.1,3.9l-8.1,8H349z"/>
			<path d="M358.7,1198.1v23.8h-2.4v-21.6h-5.6v-2.2H358.7z"/>
		</g>
		<g>
			<path d="M566.7,1294.7v2.2H550v-1.7l9.9-9.7c1.2-1.2,2.1-2.3,2.5-3.2s0.7-1.8,0.7-2.7c0-1.4-0.5-2.5-1.4-3.3
				c-1-0.8-2.3-1.2-4.1-1.2c-2.8,0-5,0.9-6.5,2.7l-1.7-1.5c0.9-1.1,2.1-1.9,3.6-2.5c1.4-0.6,3.1-0.9,4.9-0.9c2.4,0,4.3,0.6,5.8,1.7
				c1.4,1.1,2.1,2.7,2.1,4.7c0,1.2-0.3,2.4-0.8,3.5c-0.5,1.1-1.6,2.4-3.1,3.9l-8.1,8H566.7z"/>
			<path d="M576.4,1273.1v23.8h-2.4v-21.6h-5.6v-2.2H576.4z"/>
			<path d="M598.3,1294.7v2.2h-16.7v-1.7l9.9-9.7c1.2-1.2,2.1-2.3,2.5-3.2s0.7-1.8,0.7-2.7c0-1.4-0.5-2.5-1.4-3.3
				c-1-0.8-2.3-1.2-4.1-1.2c-2.8,0-5,0.9-6.5,2.7l-1.7-1.5c0.9-1.1,2.1-1.9,3.6-2.5c1.4-0.6,3.1-0.9,4.9-0.9c2.4,0,4.3,0.6,5.8,1.7
				c1.4,1.1,2.1,2.7,2.1,4.7c0,1.2-0.3,2.4-0.8,3.5c-0.5,1.1-1.6,2.4-3.1,3.9l-8.1,8H598.3z"/>
		</g>
		<g>
			<path d="M330.3,1418.4v2.2h-16.7v-1.7l9.9-9.7c1.2-1.2,2.1-2.3,2.5-3.2s0.7-1.8,0.7-2.7c0-1.4-0.5-2.5-1.4-3.3
				c-1-0.8-2.3-1.2-4.1-1.2c-2.8,0-5,0.9-6.5,2.7l-1.7-1.5c0.9-1.1,2.1-1.9,3.6-2.5c1.4-0.6,3.1-0.9,4.9-0.9c2.4,0,4.3,0.6,5.8,1.7
				c1.4,1.1,2.1,2.7,2.1,4.7c0,1.2-0.3,2.4-0.8,3.5c-0.5,1.1-1.6,2.4-3.1,3.9l-8.1,8H330.3z"/>
			<path d="M349.7,1418.4v2.2H333v-1.7l9.9-9.7c1.2-1.2,2.1-2.3,2.5-3.2s0.7-1.8,0.7-2.7c0-1.4-0.5-2.5-1.4-3.3
				c-1-0.8-2.3-1.2-4.1-1.2c-2.8,0-5,0.9-6.5,2.7l-1.7-1.5c0.9-1.1,2.1-1.9,3.6-2.5c1.4-0.6,3.1-0.9,4.9-0.9c2.4,0,4.3,0.6,5.8,1.7
				c1.4,1.1,2.1,2.7,2.1,4.7c0,1.2-0.3,2.4-0.8,3.5c-0.5,1.1-1.6,2.4-3.1,3.9l-8.1,8H349.7z"/>
			<path d="M369,1418.4v2.2h-16.7v-1.7l9.9-9.7c1.2-1.2,2.1-2.3,2.5-3.2s0.7-1.8,0.7-2.7c0-1.4-0.5-2.5-1.4-3.3
				c-1-0.8-2.3-1.2-4.1-1.2c-2.8,0-5,0.9-6.5,2.7l-1.7-1.5c0.9-1.1,2.1-1.9,3.6-2.5c1.4-0.6,3.1-0.9,4.9-0.9c2.4,0,4.3,0.6,5.8,1.7
				c1.4,1.1,2.1,2.7,2.1,4.7c0,1.2-0.3,2.4-0.8,3.5c-0.5,1.1-1.6,2.4-3.1,3.9l-8.1,8H369z"/>
		</g>
		<g>
			<path d="M330.3,1642.7v2.2h-16.7v-1.7l9.9-9.7c1.2-1.2,2.1-2.3,2.5-3.2s0.7-1.8,0.7-2.7c0-1.4-0.5-2.5-1.4-3.3
				c-1-0.8-2.3-1.2-4.1-1.2c-2.8,0-5,0.9-6.5,2.7l-1.7-1.5c0.9-1.1,2.1-1.9,3.6-2.5c1.4-0.6,3.1-0.9,4.9-0.9c2.4,0,4.3,0.6,5.8,1.7
				c1.4,1.1,2.1,2.7,2.1,4.7c0,1.2-0.3,2.4-0.8,3.5c-0.5,1.1-1.6,2.4-3.1,3.9l-8.1,8H330.3z"/>
			<path d="M349.7,1642.7v2.2H333v-1.7l9.9-9.7c1.2-1.2,2.1-2.3,2.5-3.2s0.7-1.8,0.7-2.7c0-1.4-0.5-2.5-1.4-3.3
				c-1-0.8-2.3-1.2-4.1-1.2c-2.8,0-5,0.9-6.5,2.7l-1.7-1.5c0.9-1.1,2.1-1.9,3.6-2.5c1.4-0.6,3.1-0.9,4.9-0.9c2.4,0,4.3,0.6,5.8,1.7
				c1.4,1.1,2.1,2.7,2.1,4.7c0,1.2-0.3,2.4-0.8,3.5c-0.5,1.1-1.6,2.4-3.1,3.9l-8.1,8H349.7z"/>
			<path d="M366.5,1633.3c1.3,1.2,2,2.8,2,4.7c0,1.4-0.3,2.6-1,3.6c-0.7,1.1-1.6,1.9-2.9,2.5s-2.9,0.9-4.7,0.9
				c-1.7,0-3.3-0.3-4.9-0.8c-1.5-0.6-2.8-1.3-3.7-2.2l1.2-1.9c0.8,0.8,1.8,1.5,3.2,2c1.3,0.5,2.7,0.8,4.2,0.8c1.9,0,3.5-0.4,4.5-1.3
				c1.1-0.8,1.6-2,1.6-3.5c0-1.5-0.5-2.6-1.6-3.5c-1.1-0.8-2.7-1.3-4.8-1.3h-1.7v-1.8l6.6-8.3h-12.2v-2.2h15.3v1.7l-6.7,8.5
				C363.3,1631.4,365.2,1632.1,366.5,1633.3z"/>
		</g>
		<g>
			<path d="M360.7,1903.3v2.2H344v-1.7l9.9-9.7c1.2-1.2,2.1-2.3,2.5-3.2s0.7-1.8,0.7-2.7c0-1.4-0.5-2.5-1.4-3.3
				c-1-0.8-2.3-1.2-4.1-1.2c-2.8,0-5,0.9-6.5,2.7l-1.7-1.5c0.9-1.1,2.1-1.9,3.6-2.5c1.4-0.6,3.1-0.9,4.9-0.9c2.4,0,4.3,0.6,5.8,1.7
				c1.4,1.1,2.1,2.7,2.1,4.7c0,1.2-0.3,2.4-0.8,3.5c-0.5,1.1-1.6,2.4-3.1,3.9l-8.1,8H360.7z"/>
			<path d="M380,1903.3v2.2h-16.7v-1.7l9.9-9.7c1.2-1.2,2.1-2.3,2.5-3.2s0.7-1.8,0.7-2.7c0-1.4-0.5-2.5-1.4-3.3
				c-1-0.8-2.3-1.2-4.1-1.2c-2.8,0-5,0.9-6.5,2.7l-1.7-1.5c0.9-1.1,2.1-1.9,3.6-2.5c1.4-0.6,3.1-0.9,4.9-0.9c2.4,0,4.3,0.6,5.8,1.7
				c1.4,1.1,2.1,2.7,2.1,4.7c0,1.2-0.3,2.4-0.8,3.5c-0.5,1.1-1.6,2.4-3.1,3.9l-8.1,8H380z"/>
			<path d="M402.5,1899.2h-4.8v6.3h-2.4v-6.3h-13.4v-1.8l12.6-15.8h2.7l-12.2,15.4h10.3v-5.5h2.4v5.5h4.8V1899.2z"/>
		</g>
		<g>
			<path d="M566.1,1903.3v2.2h-16.7v-1.7l9.9-9.7c1.2-1.2,2.1-2.3,2.5-3.2s0.7-1.8,0.7-2.7c0-1.4-0.5-2.5-1.4-3.3
				c-1-0.8-2.3-1.2-4.1-1.2c-2.8,0-5,0.9-6.5,2.7l-1.7-1.5c0.9-1.1,2.1-1.9,3.6-2.5c1.4-0.6,3.1-0.9,4.9-0.9c2.4,0,4.3,0.6,5.8,1.7
				c1.4,1.1,2.1,2.7,2.1,4.7c0,1.2-0.3,2.4-0.8,3.5c-0.5,1.1-1.6,2.4-3.1,3.9l-8.1,8H566.1z"/>
			<path d="M585.4,1903.3v2.2h-16.7v-1.7l9.9-9.7c1.2-1.2,2.1-2.3,2.5-3.2s0.7-1.8,0.7-2.7c0-1.4-0.5-2.5-1.4-3.3
				c-1-0.8-2.3-1.2-4.1-1.2c-2.8,0-5,0.9-6.5,2.7l-1.7-1.5c0.9-1.1,2.1-1.9,3.6-2.5c1.4-0.6,3.1-0.9,4.9-0.9c2.4,0,4.3,0.6,5.8,1.7
				c1.4,1.1,2.1,2.7,2.1,4.7c0,1.2-0.3,2.4-0.8,3.5c-0.5,1.1-1.6,2.4-3.1,3.9l-8.1,8H585.4z"/>
			<path d="M602.3,1893.3c1.6,1.2,2.4,3,2.4,5.2c0,1.4-0.3,2.6-1,3.7s-1.6,1.9-2.9,2.6c-1.3,0.6-2.9,0.9-4.8,0.9
				c-1.7,0-3.3-0.3-4.8-0.8s-2.8-1.3-3.7-2.2l1.2-1.9c0.8,0.8,1.8,1.5,3.1,2c1.3,0.5,2.7,0.8,4.2,0.8c2,0,3.5-0.4,4.6-1.3
				s1.6-2.1,1.6-3.5c0-1.6-0.6-2.9-1.8-3.7c-1.2-0.8-3.3-1.3-6.1-1.3h-5.1l1.2-11.9h13v2.2h-10.9l-0.8,7.6h3.1
				C598.2,1891.4,600.7,1892.1,602.3,1893.3z"/>
		</g>
		<g>
			<path d="M769.7,1903.3v2.2H753v-1.7l9.9-9.7c1.2-1.2,2.1-2.3,2.5-3.2s0.7-1.8,0.7-2.7c0-1.4-0.5-2.5-1.4-3.3
				c-1-0.8-2.3-1.2-4.1-1.2c-2.8,0-5,0.9-6.5,2.7l-1.7-1.5c0.9-1.1,2.1-1.9,3.6-2.5c1.4-0.6,3.1-0.9,4.9-0.9c2.4,0,4.3,0.6,5.8,1.7
				c1.4,1.1,2.1,2.7,2.1,4.7c0,1.2-0.3,2.4-0.8,3.5c-0.5,1.1-1.6,2.4-3.1,3.9l-8.1,8H769.7z"/>
			<path d="M789,1903.3v2.2h-16.7v-1.7l9.9-9.7c1.2-1.2,2.1-2.3,2.5-3.2s0.7-1.8,0.7-2.7c0-1.4-0.5-2.5-1.4-3.3
				c-1-0.8-2.3-1.2-4.1-1.2c-2.8,0-5,0.9-6.5,2.7l-1.7-1.5c0.9-1.1,2.1-1.9,3.6-2.5c1.4-0.6,3.1-0.9,4.9-0.9c2.4,0,4.3,0.6,5.8,1.7
				c1.4,1.1,2.1,2.7,2.1,4.7c0,1.2-0.3,2.4-0.8,3.5c-0.5,1.1-1.6,2.4-3.1,3.9l-8.1,8H789z"/>
			<path d="M805.9,1892.1c1.2,0.6,2.2,1.4,2.8,2.5c0.7,1.1,1,2.3,1,3.8c0,1.5-0.4,2.7-1.1,3.8c-0.7,1.1-1.7,2-2.9,2.6
				c-1.2,0.6-2.6,0.9-4.2,0.9c-3.2,0-5.6-1-7.2-3.1c-1.7-2.1-2.5-5-2.5-8.8c0-2.7,0.5-4.9,1.4-6.7c0.9-1.8,2.2-3.2,3.8-4.2
				s3.5-1.4,5.7-1.4c2.4,0,4.2,0.4,5.6,1.3l-1,2c-1.1-0.7-2.7-1.1-4.6-1.1c-2.6,0-4.7,0.8-6.2,2.5s-2.2,4.1-2.2,7.3
				c0,0.6,0,1.2,0.1,1.9c0.6-1.3,1.5-2.3,2.8-3s2.8-1.1,4.5-1.1C803.3,1891.2,804.7,1891.5,805.9,1892.1z M805.8,1902.2
				c1.1-0.9,1.6-2.2,1.6-3.8c0-1.6-0.5-2.8-1.6-3.7c-1.1-0.9-2.5-1.4-4.4-1.4c-1.2,0-2.3,0.2-3.2,0.7c-0.9,0.5-1.6,1.1-2.2,1.9
				c-0.5,0.8-0.8,1.7-0.8,2.7c0,0.9,0.2,1.7,0.7,2.5c0.5,0.8,1.2,1.4,2.2,1.9s2.1,0.7,3.4,0.7
				C803.3,1903.6,804.7,1903.1,805.8,1902.2z"/>
		</g>
		<g>
			<path d="M957.2,1903.3v2.2h-16.7v-1.7l9.9-9.7c1.2-1.2,2.1-2.3,2.5-3.2s0.7-1.8,0.7-2.7c0-1.4-0.5-2.5-1.4-3.3
				c-1-0.8-2.3-1.2-4.1-1.2c-2.8,0-5,0.9-6.5,2.7l-1.7-1.5c0.9-1.1,2.1-1.9,3.6-2.5c1.4-0.6,3.1-0.9,4.9-0.9c2.4,0,4.3,0.6,5.8,1.7
				c1.4,1.1,2.1,2.7,2.1,4.7c0,1.2-0.3,2.4-0.8,3.5c-0.5,1.1-1.6,2.4-3.1,3.9l-8.1,8H957.2z"/>
			<path d="M976.6,1903.3v2.2h-16.7v-1.7l9.9-9.7c1.2-1.2,2.1-2.3,2.5-3.2s0.7-1.8,0.7-2.7c0-1.4-0.5-2.5-1.4-3.3
				c-1-0.8-2.3-1.2-4.1-1.2c-2.8,0-5,0.9-6.5,2.7l-1.7-1.5c0.9-1.1,2.1-1.9,3.6-2.5c1.4-0.6,3.1-0.9,4.9-0.9c2.4,0,4.3,0.6,5.8,1.7
				c1.4,1.1,2.1,2.7,2.1,4.7c0,1.2-0.3,2.4-0.8,3.5c-0.5,1.1-1.6,2.4-3.1,3.9l-8.1,8H976.6z"/>
			<path d="M996.3,1881.7v1.7l-10,22.1h-2.7l9.8-21.6h-12.2v4.5h-2.4v-6.6H996.3z"/>
		</g>
		<g>
			<path d="M1076.3,1908.1h2.2v16.7h-1.7l-9.7-9.9c-1.2-1.2-2.3-2.1-3.2-2.5s-1.8-0.7-2.7-0.7c-1.4,0-2.5,0.5-3.3,1.4
				s-1.2,2.3-1.2,4.1c0,2.8,0.9,5,2.7,6.5l-1.5,1.7c-1.1-0.9-1.9-2.1-2.5-3.6c-0.6-1.4-0.9-3.1-0.9-4.9c0-2.4,0.6-4.3,1.7-5.8
				s2.7-2.1,4.7-2.1c1.2,0,2.4,0.3,3.5,0.8c1.1,0.5,2.4,1.6,3.9,3.1l8,8.1V1908.1z"/>
			<path d="M1076.3,1888.8h2.2v16.7h-1.7l-9.7-9.9c-1.2-1.2-2.3-2.1-3.2-2.5s-1.8-0.7-2.7-0.7c-1.4,0-2.5,0.5-3.3,1.4
				c-0.8,1-1.2,2.3-1.2,4.1c0,2.8,0.9,5,2.7,6.5l-1.5,1.7c-1.1-0.9-1.9-2.1-2.5-3.6c-0.6-1.4-0.9-3.1-0.9-4.9c0-2.4,0.6-4.3,1.7-5.8
				c1.1-1.4,2.7-2.1,4.7-2.1c1.2,0,2.4,0.3,3.5,0.8c1.1,0.5,2.4,1.6,3.9,3.1l8,8.1V1888.8z"/>
			<path d="M1068.3,1868.7c1-0.8,2.2-1.2,3.6-1.2c1.4,0,2.6,0.4,3.6,1.1s1.8,1.8,2.4,3.2s0.8,3,0.8,4.9c0,2.9-0.6,5.1-1.8,6.7
				c-1.2,1.6-2.9,2.4-5,2.4c-1.4,0-2.6-0.4-3.6-1.2s-1.7-1.9-2.2-3.4c-0.5,1.2-1.2,2.2-2.1,2.8c-0.9,0.6-2,1-3.2,1
				c-1.9,0-3.5-0.8-4.6-2.3c-1.1-1.5-1.7-3.5-1.7-6.1c0-1.7,0.3-3.1,0.8-4.4c0.5-1.3,1.2-2.2,2.2-2.9s2.1-1.1,3.3-1.1
				c1.2,0,2.3,0.3,3.2,1c0.9,0.7,1.6,1.6,2.1,2.8C1066.5,1870.6,1067.3,1869.5,1068.3,1868.7z M1064,1881c0.8-1,1.2-2.5,1.2-4.3
				s-0.4-3.3-1.2-4.3s-1.8-1.6-3.1-1.6c-1.3,0-2.4,0.5-3.2,1.6c-0.8,1.1-1.2,2.5-1.2,4.3c0,1.8,0.4,3.2,1.2,4.3
				c0.8,1.1,1.8,1.6,3.1,1.6C1062.2,1882.6,1063.2,1882.1,1064,1881z M1075.3,1871.8c-0.9-1.2-2-1.8-3.5-1.8c-1.5,0-2.6,0.6-3.5,1.8
				c-0.8,1.2-1.3,2.8-1.3,4.9c0,2.1,0.4,3.7,1.3,4.9c0.9,1.2,2,1.8,3.5,1.8c1.5,0,2.7-0.6,3.5-1.8c0.8-1.2,1.3-2.8,1.3-4.9
				S1076.2,1873,1075.3,1871.8z"/>
		</g>
		<g>
			<path d="M1170.6,1903.3v2.2h-16.7v-1.7l9.9-9.7c1.2-1.2,2.1-2.3,2.5-3.2s0.7-1.8,0.7-2.7c0-1.4-0.5-2.5-1.4-3.3
				c-1-0.8-2.3-1.2-4.1-1.2c-2.8,0-5,0.9-6.5,2.7l-1.7-1.5c0.9-1.1,2.1-1.9,3.6-2.5c1.4-0.6,3.1-0.9,4.9-0.9c2.4,0,4.3,0.6,5.8,1.7
				c1.4,1.1,2.1,2.7,2.1,4.7c0,1.2-0.3,2.4-0.8,3.5c-0.5,1.1-1.6,2.4-3.1,3.9l-8.1,8H1170.6z"/>
			<path d="M1189.9,1903.3v2.2h-16.7v-1.7l9.9-9.7c1.2-1.2,2.1-2.3,2.5-3.2s0.7-1.8,0.7-2.7c0-1.4-0.5-2.5-1.4-3.3
				c-1-0.8-2.3-1.2-4.1-1.2c-2.8,0-5,0.9-6.5,2.7l-1.7-1.5c0.9-1.1,2.1-1.9,3.6-2.5c1.4-0.6,3.1-0.9,4.9-0.9c2.4,0,4.3,0.6,5.8,1.7
				c1.4,1.1,2.1,2.7,2.1,4.7c0,1.2-0.3,2.4-0.8,3.5c-0.5,1.1-1.6,2.4-3.1,3.9l-8.1,8H1189.9z"/>
			<path d="M1207.6,1884.6c1.7,2.1,2.5,5,2.5,8.8c0,2.7-0.5,4.9-1.4,6.7c-0.9,1.8-2.2,3.2-3.8,4.2s-3.5,1.4-5.7,1.4
				c-2.4,0-4.2-0.4-5.6-1.3l1-2c1.1,0.7,2.7,1.1,4.6,1.1c2.6,0,4.7-0.8,6.2-2.5c1.5-1.7,2.2-4.1,2.2-7.3c0-0.6,0-1.2-0.1-1.9
				c-0.6,1.3-1.5,2.3-2.8,3s-2.8,1.1-4.5,1.1c-1.6,0-3-0.3-4.2-0.9c-1.2-0.6-2.2-1.4-2.8-2.5c-0.7-1.1-1-2.3-1-3.8
				c0-1.5,0.4-2.7,1.1-3.8c0.7-1.1,1.7-2,2.9-2.6c1.2-0.6,2.6-0.9,4.2-0.9C1203.5,1881.5,1205.9,1882.5,1207.6,1884.6z
				 M1203.8,1893.2c0.9-0.5,1.6-1.1,2.2-1.9c0.5-0.8,0.8-1.7,0.8-2.7c0-0.9-0.2-1.7-0.7-2.5s-1.2-1.4-2.2-1.9
				c-1-0.5-2.1-0.7-3.4-0.7c-1.7,0-3.1,0.5-4.2,1.4c-1.1,0.9-1.6,2.2-1.6,3.8c0,1.6,0.5,2.8,1.6,3.7c1.1,0.9,2.5,1.4,4.4,1.4
				C1201.8,1893.9,1202.9,1893.6,1203.8,1893.2z"/>
		</g>
		<g>
			<path d="M1403.1,1901.1v2.2h-16.7v-1.7l9.9-9.7c1.2-1.2,2.1-2.3,2.5-3.2s0.7-1.8,0.7-2.7c0-1.4-0.5-2.5-1.4-3.3
				c-1-0.8-2.3-1.2-4.1-1.2c-2.8,0-5,0.9-6.5,2.7l-1.7-1.5c0.9-1.1,2.1-1.9,3.6-2.5c1.4-0.6,3.1-0.9,4.9-0.9c2.4,0,4.3,0.6,5.8,1.7
				c1.4,1.1,2.1,2.7,2.1,4.7c0,1.2-0.3,2.4-0.8,3.5c-0.5,1.1-1.6,2.4-3.1,3.9l-8.1,8H1403.1z"/>
			<path d="M1420,1891.7c1.3,1.2,2,2.8,2,4.7c0,1.4-0.3,2.6-1,3.6c-0.7,1.1-1.6,1.9-2.9,2.5s-2.9,0.9-4.7,0.9
				c-1.7,0-3.3-0.3-4.9-0.8c-1.5-0.6-2.8-1.3-3.7-2.2l1.2-1.9c0.8,0.8,1.8,1.5,3.2,2c1.3,0.5,2.7,0.8,4.2,0.8c1.9,0,3.5-0.4,4.5-1.3
				c1.1-0.8,1.6-2,1.6-3.5c0-1.5-0.5-2.6-1.6-3.5c-1.1-0.8-2.7-1.3-4.8-1.3h-1.7v-1.8l6.6-8.3h-12.2v-2.2h15.3v1.7l-6.7,8.5
				C1416.8,1889.8,1418.7,1890.5,1420,1891.7z"/>
			<path d="M1429.9,1902c-1.4-1-2.6-2.4-3.4-4.2c-0.8-1.8-1.2-4-1.2-6.4c0-2.5,0.4-4.6,1.2-6.4c0.8-1.8,1.9-3.2,3.4-4.2
				s3.1-1.5,4.9-1.5s3.5,0.5,4.9,1.5c1.4,1,2.6,2.4,3.4,4.2c0.8,1.8,1.2,4,1.2,6.4c0,2.5-0.4,4.6-1.2,6.4c-0.8,1.8-1.9,3.2-3.4,4.2
				c-1.4,1-3.1,1.5-4.9,1.5S1431.4,1903,1429.9,1902z M1438.5,1900.1c1.1-0.8,1.9-1.9,2.5-3.4c0.6-1.5,0.9-3.3,0.9-5.3
				c0-2.1-0.3-3.9-0.9-5.3c-0.6-1.5-1.4-2.6-2.5-3.4c-1.1-0.8-2.3-1.2-3.7-1.2c-1.4,0-2.6,0.4-3.7,1.2c-1.1,0.8-1.9,1.9-2.5,3.4
				c-0.6,1.5-0.9,3.3-0.9,5.3c0,2.1,0.3,3.9,0.9,5.3s1.4,2.6,2.5,3.4c1.1,0.8,2.3,1.2,3.7,1.2
				C1436.2,1901.2,1437.4,1900.8,1438.5,1900.1z"/>
		</g>
		<g>
			<path d="M1680.8,1901.1v2.2h-16.7v-1.7l9.9-9.7c1.2-1.2,2.1-2.3,2.5-3.2s0.7-1.8,0.7-2.7c0-1.4-0.5-2.5-1.4-3.3s-2.3-1.2-4.1-1.2
				c-2.8,0-5,0.9-6.5,2.7l-1.7-1.5c0.9-1.1,2.1-1.9,3.6-2.5c1.4-0.6,3.1-0.9,4.9-0.9c2.4,0,4.3,0.6,5.8,1.7c1.4,1.1,2.1,2.7,2.1,4.7
				c0,1.2-0.3,2.4-0.8,3.5c-0.5,1.1-1.6,2.4-3.1,3.9l-8.1,8H1680.8z"/>
			<path d="M1697.7,1891.7c1.3,1.2,2,2.8,2,4.7c0,1.4-0.3,2.6-1,3.6c-0.7,1.1-1.6,1.9-2.9,2.5s-2.9,0.9-4.7,0.9
				c-1.7,0-3.3-0.3-4.9-0.8s-2.8-1.3-3.7-2.2l1.2-1.9c0.8,0.8,1.8,1.5,3.2,2c1.3,0.5,2.7,0.8,4.2,0.8c1.9,0,3.5-0.4,4.5-1.3
				c1.1-0.8,1.6-2,1.6-3.5c0-1.5-0.5-2.6-1.6-3.5c-1.1-0.8-2.7-1.3-4.8-1.3h-1.7v-1.8l6.6-8.3h-12.2v-2.2h15.3v1.7l-6.7,8.5
				C1694.5,1889.8,1696.4,1890.5,1697.7,1891.7z"/>
			<path d="M1719.2,1901.1v2.2h-16.7v-1.7l9.9-9.7c1.2-1.2,2.1-2.3,2.5-3.2s0.7-1.8,0.7-2.7c0-1.4-0.5-2.5-1.4-3.3s-2.3-1.2-4.1-1.2
				c-2.8,0-5,0.9-6.5,2.7l-1.7-1.5c0.9-1.1,2.1-1.9,3.6-2.5c1.4-0.6,3.1-0.9,4.9-0.9c2.4,0,4.3,0.6,5.8,1.7c1.4,1.1,2.1,2.7,2.1,4.7
				c0,1.2-0.3,2.4-0.8,3.5c-0.5,1.1-1.6,2.4-3.1,3.9l-8.1,8H1719.2z"/>
		</g>
		<g>
			<path d="M1861,1901.3v2.2h-16.7v-1.7l9.9-9.7c1.2-1.2,2.1-2.3,2.5-3.2s0.7-1.8,0.7-2.7c0-1.4-0.5-2.5-1.4-3.3s-2.3-1.2-4.1-1.2
				c-2.8,0-5,0.9-6.5,2.7l-1.7-1.5c0.9-1.1,2.1-1.9,3.6-2.5c1.4-0.6,3.1-0.9,4.9-0.9c2.4,0,4.3,0.6,5.8,1.7c1.4,1.1,2.1,2.7,2.1,4.7
				c0,1.2-0.3,2.4-0.8,3.5c-0.5,1.1-1.6,2.4-3.1,3.9l-8.1,8H1861z"/>
			<path d="M1877.9,1891.9c1.3,1.2,2,2.8,2,4.7c0,1.4-0.3,2.6-1,3.6c-0.7,1.1-1.6,1.9-2.9,2.5s-2.9,0.9-4.7,0.9
				c-1.7,0-3.3-0.3-4.9-0.8s-2.8-1.3-3.7-2.2l1.2-1.9c0.8,0.8,1.8,1.5,3.2,2c1.3,0.5,2.7,0.8,4.2,0.8c1.9,0,3.5-0.4,4.5-1.3
				c1.1-0.8,1.6-2,1.6-3.5c0-1.5-0.5-2.6-1.6-3.5c-1.1-0.8-2.7-1.3-4.8-1.3h-1.7v-1.8l6.6-8.3h-12.2v-2.2h15.3v1.7l-6.7,8.5
				C1874.7,1890,1876.6,1890.7,1877.9,1891.9z"/>
			<path d="M1896.9,1891.9c1.3,1.2,2,2.8,2,4.7c0,1.4-0.3,2.6-1,3.6c-0.7,1.1-1.6,1.9-2.9,2.5s-2.9,0.9-4.7,0.9
				c-1.7,0-3.3-0.3-4.9-0.8s-2.8-1.3-3.7-2.2l1.2-1.9c0.8,0.8,1.8,1.5,3.2,2c1.3,0.5,2.7,0.8,4.2,0.8c1.9,0,3.5-0.4,4.5-1.3
				c1.1-0.8,1.6-2,1.6-3.5c0-1.5-0.5-2.6-1.6-3.5c-1.1-0.8-2.7-1.3-4.8-1.3h-1.7v-1.8l6.6-8.3h-12.2v-2.2h15.3v1.7l-6.7,8.5
				C1893.7,1890,1895.6,1890.7,1896.9,1891.9z"/>
		</g>
		<g>
			<path d="M2017.9,1914.9v2.2h-16.7v-1.7l9.9-9.7c1.2-1.2,2.1-2.3,2.5-3.2s0.7-1.8,0.7-2.7c0-1.4-0.5-2.5-1.4-3.3s-2.3-1.2-4.1-1.2
				c-2.8,0-5,0.9-6.5,2.7l-1.7-1.5c0.9-1.1,2.1-1.9,3.6-2.5c1.4-0.6,3.1-0.9,4.9-0.9c2.4,0,4.3,0.6,5.8,1.7c1.4,1.1,2.1,2.7,2.1,4.7
				c0,1.2-0.3,2.4-0.8,3.5c-0.5,1.1-1.6,2.4-3.1,3.9l-8.1,8H2017.9z"/>
			<path d="M2025.4,1915.8c-1.4-1-2.6-2.4-3.4-4.2c-0.8-1.8-1.2-4-1.2-6.4c0-2.5,0.4-4.6,1.2-6.4s1.9-3.2,3.4-4.2s3.1-1.5,4.9-1.5
				s3.5,0.5,4.9,1.5s2.6,2.4,3.4,4.2c0.8,1.8,1.2,4,1.2,6.4c0,2.5-0.4,4.6-1.2,6.4c-0.8,1.8-1.9,3.2-3.4,4.2s-3.1,1.5-4.9,1.5
				S2026.8,1916.8,2025.4,1915.8z M2033.9,1913.8c1.1-0.8,1.9-1.9,2.5-3.4c0.6-1.5,0.9-3.3,0.9-5.3c0-2.1-0.3-3.9-0.9-5.3
				c-0.6-1.5-1.4-2.6-2.5-3.4s-2.3-1.2-3.7-1.2s-2.6,0.4-3.7,1.2c-1.1,0.8-1.9,1.9-2.5,3.4c-0.6,1.5-0.9,3.3-0.9,5.3
				c0,2.1,0.3,3.9,0.9,5.3s1.4,2.6,2.5,3.4c1.1,0.8,2.3,1.2,3.7,1.2S2032.9,1914.6,2033.9,1913.8z"/>
			<path d="M2049.8,1893.2v23.8h-2.4v-21.6h-5.6v-2.2H2049.8z"/>
		</g>
		<g>
			<path d="M2299.3,1793.5v2.2h-16.7v-1.7l9.9-9.7c1.2-1.2,2.1-2.3,2.5-3.2s0.7-1.8,0.7-2.7c0-1.4-0.5-2.5-1.4-3.3s-2.3-1.2-4.1-1.2
				c-2.8,0-5,0.9-6.5,2.7l-1.7-1.5c0.9-1.1,2.1-1.9,3.6-2.5c1.4-0.6,3.1-0.9,4.9-0.9c2.4,0,4.3,0.6,5.8,1.7c1.4,1.1,2.1,2.7,2.1,4.7
				c0,1.2-0.3,2.4-0.8,3.5c-0.5,1.1-1.6,2.4-3.1,3.9l-8.1,8H2299.3z"/>
			<path d="M2306.8,1794.5c-1.4-1-2.6-2.4-3.4-4.2c-0.8-1.8-1.2-4-1.2-6.4c0-2.5,0.4-4.6,1.2-6.4s1.9-3.2,3.4-4.2s3.1-1.5,4.9-1.5
				s3.5,0.5,4.9,1.5s2.6,2.4,3.4,4.2c0.8,1.8,1.2,4,1.2,6.4c0,2.5-0.4,4.6-1.2,6.4c-0.8,1.8-1.9,3.2-3.4,4.2s-3.1,1.5-4.9,1.5
				S2308.2,1795.4,2306.8,1794.5z M2315.3,1792.5c1.1-0.8,1.9-1.9,2.5-3.4c0.6-1.5,0.9-3.3,0.9-5.3c0-2.1-0.3-3.9-0.9-5.3
				c-0.6-1.5-1.4-2.6-2.5-3.4s-2.3-1.2-3.7-1.2s-2.6,0.4-3.7,1.2c-1.1,0.8-1.9,1.9-2.5,3.4c-0.6,1.5-0.9,3.3-0.9,5.3
				c0,2.1,0.3,3.9,0.9,5.3s1.4,2.6,2.5,3.4c1.1,0.8,2.3,1.2,3.7,1.2S2314.3,1793.3,2315.3,1792.5z"/>
			<path d="M2340.9,1793.5v2.2h-16.7v-1.7l9.9-9.7c1.2-1.2,2.1-2.3,2.5-3.2s0.7-1.8,0.7-2.7c0-1.4-0.5-2.5-1.4-3.3s-2.3-1.2-4.1-1.2
				c-2.8,0-5,0.9-6.5,2.7l-1.7-1.5c0.9-1.1,2.1-1.9,3.6-2.5c1.4-0.6,3.1-0.9,4.9-0.9c2.4,0,4.3,0.6,5.8,1.7c1.4,1.1,2.1,2.7,2.1,4.7
				c0,1.2-0.3,2.4-0.8,3.5c-0.5,1.1-1.6,2.4-3.1,3.9l-8.1,8H2340.9z"/>
		</g>
		<g>
			<path d="M2017.2,1687.3v2.2h-16.7v-1.7l9.9-9.7c1.2-1.2,2.1-2.3,2.5-3.2s0.7-1.8,0.7-2.7c0-1.4-0.5-2.5-1.4-3.3s-2.3-1.2-4.1-1.2
				c-2.8,0-5,0.9-6.5,2.7l-1.7-1.5c0.9-1.1,2.1-1.9,3.6-2.5c1.4-0.6,3.1-0.9,4.9-0.9c2.4,0,4.3,0.6,5.8,1.7c1.4,1.1,2.1,2.7,2.1,4.7
				c0,1.2-0.3,2.4-0.8,3.5c-0.5,1.1-1.6,2.4-3.1,3.9l-8.1,8H2017.2z"/>
			<path d="M2024.7,1688.2c-1.4-1-2.6-2.4-3.4-4.2c-0.8-1.8-1.2-4-1.2-6.4c0-2.5,0.4-4.6,1.2-6.4s1.9-3.2,3.4-4.2s3.1-1.5,4.9-1.5
				s3.5,0.5,4.9,1.5s2.6,2.4,3.4,4.2c0.8,1.8,1.2,4,1.2,6.4c0,2.5-0.4,4.6-1.2,6.4c-0.8,1.8-1.9,3.2-3.4,4.2s-3.1,1.5-4.9,1.5
				S2026.2,1689.2,2024.7,1688.2z M2033.3,1686.3c1.1-0.8,1.9-1.9,2.5-3.4c0.6-1.5,0.9-3.3,0.9-5.3c0-2.1-0.3-3.9-0.9-5.3
				c-0.6-1.5-1.4-2.6-2.5-3.4s-2.3-1.2-3.7-1.2s-2.6,0.4-3.7,1.2c-1.1,0.8-1.9,1.9-2.5,3.4c-0.6,1.5-0.9,3.3-0.9,5.3
				c0,2.1,0.3,3.9,0.9,5.3s1.4,2.6,2.5,3.4c1.1,0.8,2.3,1.2,3.7,1.2S2032.3,1687.1,2033.3,1686.3z"/>
			<path d="M2056.1,1677.9c1.3,1.2,2,2.8,2,4.7c0,1.4-0.3,2.6-1,3.6c-0.7,1.1-1.6,1.9-2.9,2.5s-2.9,0.9-4.7,0.9
				c-1.7,0-3.3-0.3-4.9-0.8s-2.8-1.3-3.7-2.2l1.2-1.9c0.8,0.8,1.8,1.5,3.2,2c1.3,0.5,2.7,0.8,4.2,0.8c1.9,0,3.5-0.4,4.5-1.3
				c1.1-0.8,1.6-2,1.6-3.5c0-1.5-0.5-2.6-1.6-3.5c-1.1-0.8-2.7-1.3-4.8-1.3h-1.7v-1.8l6.6-8.3h-12.2v-2.2h15.3v1.7l-6.7,8.5
				C2052.9,1676,2054.8,1676.7,2056.1,1677.9z"/>
		</g>
		<g>
			<path d="M1403.1,1646.8v2.2h-16.7v-1.7l9.9-9.7c1.2-1.2,2.1-2.3,2.5-3.2s0.7-1.8,0.7-2.7c0-1.4-0.5-2.5-1.4-3.3
				c-1-0.8-2.3-1.2-4.1-1.2c-2.8,0-5,0.9-6.5,2.7l-1.7-1.5c0.9-1.1,2.1-1.9,3.6-2.5c1.4-0.6,3.1-0.9,4.9-0.9c2.4,0,4.3,0.6,5.8,1.7
				c1.4,1.1,2.1,2.7,2.1,4.7c0,1.2-0.3,2.4-0.8,3.5c-0.5,1.1-1.6,2.4-3.1,3.9l-8.1,8H1403.1z"/>
			<path d="M1410.6,1647.7c-1.4-1-2.6-2.4-3.4-4.2c-0.8-1.8-1.2-4-1.2-6.4c0-2.5,0.4-4.6,1.2-6.4c0.8-1.8,1.9-3.2,3.4-4.2
				s3.1-1.5,4.9-1.5s3.5,0.5,4.9,1.5c1.4,1,2.6,2.4,3.4,4.2c0.8,1.8,1.2,4,1.2,6.4c0,2.5-0.4,4.6-1.2,6.4c-0.8,1.8-1.9,3.2-3.4,4.2
				c-1.4,1-3.1,1.5-4.9,1.5S1412,1648.7,1410.6,1647.7z M1419.2,1645.8c1.1-0.8,1.9-1.9,2.5-3.4c0.6-1.5,0.9-3.3,0.9-5.3
				c0-2.1-0.3-3.9-0.9-5.3c-0.6-1.5-1.4-2.6-2.5-3.4c-1.1-0.8-2.3-1.2-3.7-1.2c-1.4,0-2.6,0.4-3.7,1.2c-1.1,0.8-1.9,1.9-2.5,3.4
				c-0.6,1.5-0.9,3.3-0.9,5.3c0,2.1,0.3,3.9,0.9,5.3s1.4,2.6,2.5,3.4c1.1,0.8,2.3,1.2,3.7,1.2
				C1416.9,1646.9,1418.1,1646.5,1419.2,1645.8z"/>
			<path d="M1442.6,1635.6c1.2,0.6,2.2,1.4,2.8,2.5c0.7,1.1,1,2.3,1,3.8c0,1.5-0.4,2.7-1.1,3.8c-0.7,1.1-1.7,2-2.9,2.6
				c-1.2,0.6-2.6,0.9-4.2,0.9c-3.2,0-5.6-1-7.2-3.1c-1.7-2.1-2.5-5-2.5-8.8c0-2.7,0.5-4.9,1.4-6.7c0.9-1.8,2.2-3.2,3.8-4.2
				s3.5-1.4,5.7-1.4c2.4,0,4.2,0.4,5.6,1.3l-1,2c-1.1-0.7-2.7-1.1-4.6-1.1c-2.6,0-4.7,0.8-6.2,2.5s-2.2,4.1-2.2,7.3
				c0,0.6,0,1.2,0.1,1.9c0.6-1.3,1.5-2.3,2.8-3s2.8-1.1,4.5-1.1C1440,1634.7,1441.4,1635,1442.6,1635.6z M1442.4,1645.7
				c1.1-0.9,1.6-2.2,1.6-3.8c0-1.6-0.5-2.8-1.6-3.7c-1.1-0.9-2.5-1.4-4.4-1.4c-1.2,0-2.3,0.2-3.2,0.7c-0.9,0.5-1.6,1.1-2.2,1.9
				c-0.5,0.8-0.8,1.7-0.8,2.7c0,0.9,0.2,1.7,0.7,2.5c0.5,0.8,1.2,1.4,2.2,1.9s2.1,0.7,3.4,0.7
				C1439.9,1647.1,1441.3,1646.6,1442.4,1645.7z"/>
		</g>
		<g>
			<path d="M1177.9,1677.4v2.2h-16.7v-1.7l9.9-9.7c1.2-1.2,2.1-2.3,2.5-3.2s0.7-1.8,0.7-2.7c0-1.4-0.5-2.5-1.4-3.3
				c-1-0.8-2.3-1.2-4.1-1.2c-2.8,0-5,0.9-6.5,2.7l-1.7-1.5c0.9-1.1,2.1-1.9,3.6-2.5c1.4-0.6,3.1-0.9,4.9-0.9c2.4,0,4.3,0.6,5.8,1.7
				c1.4,1.1,2.1,2.7,2.1,4.7c0,1.2-0.3,2.4-0.8,3.5c-0.5,1.1-1.6,2.4-3.1,3.9l-8.1,8H1177.9z"/>
			<path d="M1185.4,1678.3c-1.4-1-2.6-2.4-3.4-4.2c-0.8-1.8-1.2-4-1.2-6.4c0-2.5,0.4-4.6,1.2-6.4c0.8-1.8,1.9-3.2,3.4-4.2
				s3.1-1.5,4.9-1.5s3.5,0.5,4.9,1.5c1.4,1,2.6,2.4,3.4,4.2c0.8,1.8,1.2,4,1.2,6.4c0,2.5-0.4,4.6-1.2,6.4c-0.8,1.8-1.9,3.2-3.4,4.2
				c-1.4,1-3.1,1.5-4.9,1.5S1186.9,1679.3,1185.4,1678.3z M1194,1676.4c1.1-0.8,1.9-1.9,2.5-3.4c0.6-1.5,0.9-3.3,0.9-5.3
				c0-2.1-0.3-3.9-0.9-5.3c-0.6-1.5-1.4-2.6-2.5-3.4c-1.1-0.8-2.3-1.2-3.7-1.2c-1.4,0-2.6,0.4-3.7,1.2c-1.1,0.8-1.9,1.9-2.5,3.4
				c-0.6,1.5-0.9,3.3-0.9,5.3c0,2.1,0.3,3.9,0.9,5.3s1.4,2.6,2.5,3.4c1.1,0.8,2.3,1.2,3.7,1.2
				C1191.7,1677.5,1192.9,1677.1,1194,1676.4z"/>
			<path d="M1219.9,1655.8v1.7l-10,22.1h-2.7l9.8-21.6h-12.2v4.5h-2.4v-6.6H1219.9z"/>
		</g>
		<g>
			<path d="M1014.3,1642.7v2.2h-16.7v-1.7l9.9-9.7c1.2-1.2,2.1-2.3,2.5-3.2s0.7-1.8,0.7-2.7c0-1.4-0.5-2.5-1.4-3.3
				c-1-0.8-2.3-1.2-4.1-1.2c-2.8,0-5,0.9-6.5,2.7l-1.7-1.5c0.9-1.1,2.1-1.9,3.6-2.5c1.4-0.6,3.1-0.9,4.9-0.9c2.4,0,4.3,0.6,5.8,1.7
				c1.4,1.1,2.1,2.7,2.1,4.7c0,1.2-0.3,2.4-0.8,3.5c-0.5,1.1-1.6,2.4-3.1,3.9l-8.1,8H1014.3z"/>
			<path d="M1021.8,1643.6c-1.4-1-2.6-2.4-3.4-4.2c-0.8-1.8-1.2-4-1.2-6.4c0-2.5,0.4-4.6,1.2-6.4c0.8-1.8,1.9-3.2,3.4-4.2
				s3.1-1.5,4.9-1.5s3.5,0.5,4.9,1.5c1.4,1,2.6,2.4,3.4,4.2c0.8,1.8,1.2,4,1.2,6.4c0,2.5-0.4,4.6-1.2,6.4c-0.8,1.8-1.9,3.2-3.4,4.2
				c-1.4,1-3.1,1.5-4.9,1.5S1023.2,1644.6,1021.8,1643.6z M1030.4,1641.6c1.1-0.8,1.9-1.9,2.5-3.4c0.6-1.5,0.9-3.3,0.9-5.3
				c0-2.1-0.3-3.9-0.9-5.3c-0.6-1.5-1.4-2.6-2.5-3.4c-1.1-0.8-2.3-1.2-3.7-1.2c-1.4,0-2.6,0.4-3.7,1.2c-1.1,0.8-1.9,1.9-2.5,3.4
				c-0.6,1.5-0.9,3.3-0.9,5.3c0,2.1,0.3,3.9,0.9,5.3s1.4,2.6,2.5,3.4c1.1,0.8,2.3,1.2,3.7,1.2
				C1028.1,1642.8,1029.3,1642.4,1030.4,1641.6z"/>
			<path d="M1056.8,1634.6c0.8,1,1.2,2.2,1.2,3.6c0,1.4-0.4,2.6-1.1,3.6s-1.8,1.8-3.2,2.4s-3,0.8-4.9,0.8c-2.9,0-5.1-0.6-6.7-1.8
				c-1.6-1.2-2.4-2.9-2.4-5c0-1.4,0.4-2.6,1.2-3.6c0.8-1,1.9-1.7,3.4-2.2c-1.2-0.5-2.2-1.2-2.8-2.1c-0.6-0.9-1-2-1-3.2
				c0-1.9,0.8-3.5,2.3-4.6c1.5-1.1,3.5-1.7,6.1-1.7c1.7,0,3.1,0.3,4.4,0.8c1.3,0.5,2.2,1.2,2.9,2.2s1.1,2.1,1.1,3.3
				c0,1.2-0.3,2.3-1,3.2c-0.7,0.9-1.6,1.6-2.8,2.1C1054.9,1632.9,1056,1633.6,1056.8,1634.6z M1053.7,1641.7c1.2-0.9,1.8-2,1.8-3.5
				c0-1.5-0.6-2.6-1.8-3.5c-1.2-0.8-2.8-1.3-4.9-1.3c-2.1,0-3.7,0.4-4.9,1.3c-1.2,0.9-1.8,2-1.8,3.5c0,1.5,0.6,2.7,1.8,3.5
				c1.2,0.8,2.8,1.3,4.9,1.3S1052.5,1642.5,1053.7,1641.7z M1044.5,1630.3c1,0.8,2.5,1.2,4.3,1.2s3.3-0.4,4.3-1.2s1.6-1.8,1.6-3.1
				c0-1.3-0.5-2.4-1.6-3.2c-1.1-0.8-2.5-1.2-4.3-1.2c-1.8,0-3.2,0.4-4.3,1.2c-1.1,0.8-1.6,1.8-1.6,3.1
				C1042.9,1628.5,1043.4,1629.6,1044.5,1630.3z"/>
		</g>
		<g>
			<path d="M920.1,1648.7h2.2v16.7h-1.7l-9.7-9.9c-1.2-1.2-2.3-2.1-3.2-2.5c-0.9-0.4-1.8-0.7-2.7-0.7c-1.4,0-2.5,0.5-3.3,1.4
				c-0.8,1-1.2,2.3-1.2,4.1c0,2.8,0.9,5,2.7,6.5l-1.5,1.7c-1.1-0.9-1.9-2.1-2.5-3.6c-0.6-1.4-0.9-3.1-0.9-4.9c0-2.4,0.6-4.3,1.7-5.8
				c1.1-1.4,2.7-2.1,4.7-2.1c1.2,0,2.4,0.3,3.5,0.8c1.1,0.5,2.4,1.6,3.9,3.1l8,8.1V1648.7z"/>
			<path d="M921.1,1641.2c-1,1.4-2.4,2.6-4.2,3.4c-1.8,0.8-4,1.2-6.4,1.2c-2.5,0-4.6-0.4-6.4-1.2c-1.8-0.8-3.2-1.9-4.2-3.4
				s-1.5-3.1-1.5-4.9s0.5-3.5,1.5-4.9c1-1.4,2.4-2.6,4.2-3.4s4-1.2,6.4-1.2c2.5,0,4.6,0.4,6.4,1.2c1.8,0.8,3.2,1.9,4.2,3.4
				c1,1.4,1.5,3.1,1.5,4.9S922,1639.8,921.1,1641.2z M919.1,1632.7c-0.8-1.1-1.9-1.9-3.4-2.5c-1.5-0.6-3.3-0.9-5.3-0.9
				c-2.1,0-3.9,0.3-5.3,0.9c-1.5,0.6-2.6,1.4-3.4,2.5c-0.8,1.1-1.2,2.3-1.2,3.7s0.4,2.6,1.2,3.7c0.8,1.1,1.9,1.9,3.4,2.5
				c1.5,0.6,3.3,0.9,5.3,0.9c2.1,0,3.9-0.3,5.3-0.9c1.5-0.6,2.6-1.4,3.4-2.5c0.8-1.1,1.2-2.3,1.2-3.7S919.9,1633.7,919.1,1632.7z"/>
			<path d="M901.4,1608.6c2.1-1.7,5-2.5,8.8-2.5c2.7,0,4.9,0.5,6.7,1.4s3.2,2.2,4.2,3.8s1.4,3.5,1.4,5.7c0,2.4-0.4,4.2-1.3,5.6l-2-1
				c0.7-1.1,1.1-2.7,1.1-4.6c0-2.6-0.8-4.7-2.5-6.2c-1.7-1.5-4.1-2.2-7.3-2.2c-0.6,0-1.2,0-1.9,0.1c1.3,0.6,2.3,1.5,3,2.8
				c0.7,1.3,1.1,2.8,1.1,4.5c0,1.6-0.3,3-0.9,4.2c-0.6,1.2-1.4,2.2-2.5,2.8c-1.1,0.7-2.3,1-3.8,1c-1.5,0-2.7-0.4-3.8-1.1
				c-1.1-0.7-2-1.7-2.6-2.9c-0.6-1.2-0.9-2.6-0.9-4.2C898.3,1612.7,899.4,1610.3,901.4,1608.6z M910,1612.4
				c-0.5-0.9-1.1-1.6-1.9-2.2c-0.8-0.5-1.7-0.8-2.7-0.8c-0.9,0-1.7,0.2-2.5,0.7c-0.8,0.5-1.4,1.2-1.9,2.2c-0.5,1-0.7,2.1-0.7,3.4
				c0,1.7,0.5,3.1,1.4,4.2c0.9,1.1,2.2,1.6,3.8,1.6c1.6,0,2.8-0.5,3.7-1.6c0.9-1.1,1.4-2.5,1.4-4.4
				C910.7,1614.4,910.5,1613.3,910,1612.4z"/>
		</g>
		<g>
			<path d="M746.5,1643.1v2.2h-16.7v-1.7l9.9-9.7c1.2-1.2,2.1-2.3,2.5-3.2s0.7-1.8,0.7-2.7c0-1.4-0.5-2.5-1.4-3.3
				c-1-0.8-2.3-1.2-4.1-1.2c-2.8,0-5,0.9-6.5,2.7l-1.7-1.5c0.9-1.1,2.1-1.9,3.6-2.5c1.4-0.6,3.1-0.9,4.9-0.9c2.4,0,4.3,0.6,5.8,1.7
				c1.4,1.1,2.1,2.7,2.1,4.7c0,1.2-0.3,2.4-0.8,3.5c-0.5,1.1-1.6,2.4-3.1,3.9l-8.1,8H746.5z"/>
			<path d="M756.2,1621.5v23.8h-2.4v-21.6h-5.6v-2.2H756.2z"/>
			<path d="M766.4,1644c-1.4-1-2.6-2.4-3.4-4.2c-0.8-1.8-1.2-4-1.2-6.4c0-2.5,0.4-4.6,1.2-6.4c0.8-1.8,1.9-3.2,3.4-4.2
				s3.1-1.5,4.9-1.5s3.5,0.5,4.9,1.5c1.4,1,2.6,2.4,3.4,4.2c0.8,1.8,1.2,4,1.2,6.4c0,2.5-0.4,4.6-1.2,6.4c-0.8,1.8-1.9,3.2-3.4,4.2
				c-1.4,1-3.1,1.5-4.9,1.5S767.9,1645,766.4,1644z M775,1642.1c1.1-0.8,1.9-1.9,2.5-3.4c0.6-1.5,0.9-3.3,0.9-5.3
				c0-2.1-0.3-3.9-0.9-5.3c-0.6-1.5-1.4-2.6-2.5-3.4c-1.1-0.8-2.3-1.2-3.7-1.2c-1.4,0-2.6,0.4-3.7,1.2c-1.1,0.8-1.9,1.9-2.5,3.4
				c-0.6,1.5-0.9,3.3-0.9,5.3c0,2.1,0.3,3.9,0.9,5.3s1.4,2.6,2.5,3.4c1.1,0.8,2.3,1.2,3.7,1.2C772.7,1643.2,774,1642.8,775,1642.1z"
				/>
		</g>
		<g>
			<path d="M566.1,1642.7v2.2h-16.7v-1.7l9.9-9.7c1.2-1.2,2.1-2.3,2.5-3.2s0.7-1.8,0.7-2.7c0-1.4-0.5-2.5-1.4-3.3
				c-1-0.8-2.3-1.2-4.1-1.2c-2.8,0-5,0.9-6.5,2.7l-1.7-1.5c0.9-1.1,2.1-1.9,3.6-2.5c1.4-0.6,3.1-0.9,4.9-0.9c2.4,0,4.3,0.6,5.8,1.7
				c1.4,1.1,2.1,2.7,2.1,4.7c0,1.2-0.3,2.4-0.8,3.5c-0.5,1.1-1.6,2.4-3.1,3.9l-8.1,8H566.1z"/>
			<path d="M575.8,1621v23.8h-2.4v-21.6h-5.6v-2.2H575.8z"/>
			<path d="M588,1621v23.8h-2.4v-21.6H580v-2.2H588z"/>
		</g>
	</g>
	<g id="stairs">
		<g>
			<g>
				<line class="st4" x1="293" y1="1735.8" x2="293" y2="1766.3"/>
				<line class="st4" x1="300.6" y1="1735.8" x2="300.6" y2="1766.3"/>
				<line class="st4" x1="308.2" y1="1735.8" x2="308.2" y2="1766.3"/>
				<line class="st4" x1="315.8" y1="1735.8" x2="315.8" y2="1766.3"/>
				<line class="st4" x1="323.4" y1="1735.8" x2="323.4" y2="1766.3"/>
				<line class="st4" x1="331" y1="1735.8" x2="331" y2="1766.3"/>
				<line class="st4" x1="338.7" y1="1735.8" x2="338.7" y2="1766.3"/>
				<line class="st4" x1="346.3" y1="1735.8" x2="346.3" y2="1766.3"/>
				<line class="st4" x1="353.9" y1="1735.8" x2="353.9" y2="1766.3"/>
				<line class="st4" x1="361.5" y1="1735.8" x2="361.5" y2="1766.3"/>
				<line class="st4" x1="369.1" y1="1735.8" x2="369.1" y2="1766.3"/>
				<line class="st4" x1="376.7" y1="1735.8" x2="376.7" y2="1766.3"/>
				<line class="st4" x1="384.3" y1="1735.8" x2="384.3" y2="1766.3"/>
				<line class="st4" x1="392" y1="1735.8" x2="392" y2="1766.3"/>
			</g>
			<g>
				<line class="st4" x1="293" y1="1770.6" x2="293" y2="1801.1"/>
				<line class="st4" x1="300.6" y1="1770.6" x2="300.6" y2="1801.1"/>
				<line class="st4" x1="308.2" y1="1770.6" x2="308.2" y2="1801.1"/>
				<line class="st4" x1="315.8" y1="1770.6" x2="315.8" y2="1801.1"/>
				<line class="st4" x1="323.4" y1="1770.6" x2="323.4" y2="1801.1"/>
				<line class="st4" x1="331" y1="1770.6" x2="331" y2="1801.1"/>
				<line class="st4" x1="338.7" y1="1770.6" x2="338.7" y2="1801.1"/>
				<line class="st4" x1="346.3" y1="1770.6" x2="346.3" y2="1801.1"/>
				<line class="st4" x1="353.9" y1="1770.6" x2="353.9" y2="1801.1"/>
				<line class="st4" x1="361.5" y1="1770.6" x2="361.5" y2="1801.1"/>
				<line class="st4" x1="369.1" y1="1770.6" x2="369.1" y2="1801.1"/>
				<line class="st4" x1="376.7" y1="1770.6" x2="376.7" y2="1801.1"/>
				<line class="st4" x1="384.3" y1="1770.6" x2="384.3" y2="1801.1"/>
				<line class="st4" x1="392" y1="1770.6" x2="392" y2="1801.1"/>
			</g>
		</g>
		<g>
			<g>
				<line class="st4" x1="554.1" y1="761.6" x2="554.1" y2="792.1"/>
				<line class="st4" x1="561.7" y1="761.6" x2="561.7" y2="792.1"/>
				<line class="st4" x1="569.3" y1="761.6" x2="569.3" y2="792.1"/>
				<line class="st4" x1="576.9" y1="761.6" x2="576.9" y2="792.1"/>
				<line class="st4" x1="584.5" y1="761.6" x2="584.5" y2="792.1"/>
				<line class="st4" x1="592.2" y1="761.6" x2="592.2" y2="792.1"/>
				<line class="st4" x1="599.8" y1="761.6" x2="599.8" y2="792.1"/>
				<line class="st4" x1="607.4" y1="761.6" x2="607.4" y2="792.1"/>
				<line class="st4" x1="615" y1="761.6" x2="615" y2="792.1"/>
				<line class="st4" x1="622.6" y1="761.6" x2="622.6" y2="792.1"/>
				<line class="st4" x1="630.2" y1="761.6" x2="630.2" y2="792.1"/>
				<line class="st4" x1="637.8" y1="761.6" x2="637.8" y2="792.1"/>
				<line class="st4" x1="645.5" y1="761.6" x2="645.5" y2="792.1"/>
				<line class="st4" x1="653.1" y1="761.6" x2="653.1" y2="792.1"/>
			</g>
			<g>
				<line class="st4" x1="554.1" y1="796.4" x2="554.1" y2="826.8"/>
				<line class="st4" x1="561.7" y1="796.4" x2="561.7" y2="826.8"/>
				<line class="st4" x1="569.3" y1="796.4" x2="569.3" y2="826.8"/>
				<line class="st4" x1="576.9" y1="796.4" x2="576.9" y2="826.8"/>
				<line class="st4" x1="584.5" y1="796.4" x2="584.5" y2="826.8"/>
				<line class="st4" x1="592.2" y1="796.4" x2="592.2" y2="826.8"/>
				<line class="st4" x1="599.8" y1="796.4" x2="599.8" y2="826.8"/>
				<line class="st4" x1="607.4" y1="796.4" x2="607.4" y2="826.8"/>
				<line class="st4" x1="615" y1="796.4" x2="615" y2="826.8"/>
				<line class="st4" x1="622.6" y1="796.4" x2="622.6" y2="826.8"/>
				<line class="st4" x1="630.2" y1="796.4" x2="630.2" y2="826.8"/>
				<line class="st4" x1="637.8" y1="796.4" x2="637.8" y2="826.8"/>
				<line class="st4" x1="645.5" y1="796.4" x2="645.5" y2="826.8"/>
				<line class="st4" x1="653.1" y1="796.4" x2="653.1" y2="826.8"/>
			</g>
		</g>
		<g>
			<g>
				<line class="st4" x1="1936.1" y1="1568.9" x2="1892.8" y2="1568.9"/>
				<line class="st4" x1="1936.1" y1="1576.6" x2="1892.8" y2="1576.6"/>
				<line class="st4" x1="1936.1" y1="1584.2" x2="1892.8" y2="1584.2"/>
				<line class="st4" x1="1936.1" y1="1591.8" x2="1892.8" y2="1591.8"/>
				<line class="st4" x1="1936.1" y1="1599.4" x2="1892.8" y2="1599.4"/>
				<line class="st4" x1="1936.1" y1="1607" x2="1892.8" y2="1607"/>
				<line class="st4" x1="1936.1" y1="1614.6" x2="1892.8" y2="1614.6"/>
				<line class="st4" x1="1936.1" y1="1622.3" x2="1892.8" y2="1622.3"/>
				<line class="st4" x1="1936.1" y1="1629.9" x2="1892.8" y2="1629.9"/>
				<line class="st4" x1="1936.1" y1="1637.5" x2="1892.8" y2="1637.5"/>
				<line class="st4" x1="1936.1" y1="1645.1" x2="1892.8" y2="1645.1"/>
				<line class="st4" x1="1936.1" y1="1652.7" x2="1892.8" y2="1652.7"/>
				<line class="st4" x1="1936.1" y1="1660.3" x2="1892.8" y2="1660.3"/>
				<line class="st4" x1="1936.1" y1="1667.9" x2="1892.8" y2="1667.9"/>
			</g>
			<g>
				<line class="st4" x1="1856.4" y1="1568.9" x2="1810.4" y2="1568.9"/>
				<line class="st4" x1="1856.4" y1="1576.6" x2="1810.4" y2="1576.6"/>
				<line class="st4" x1="1856.4" y1="1584.2" x2="1810.4" y2="1584.2"/>
				<line class="st4" x1="1856.4" y1="1591.8" x2="1810.4" y2="1591.8"/>
				<line class="st4" x1="1856.4" y1="1599.4" x2="1810.4" y2="1599.4"/>
				<line class="st4" x1="1856.4" y1="1607" x2="1810.4" y2="1607"/>
				<line class="st4" x1="1856.4" y1="1614.6" x2="1810.4" y2="1614.6"/>
				<line class="st4" x1="1856.4" y1="1622.3" x2="1810.4" y2="1622.3"/>
				<line class="st4" x1="1856.4" y1="1629.9" x2="1810.4" y2="1629.9"/>
				<line class="st4" x1="1856.4" y1="1637.5" x2="1810.4" y2="1637.5"/>
				<line class="st4" x1="1856.4" y1="1645.1" x2="1810.4" y2="1645.1"/>
				<line class="st4" x1="1856.4" y1="1652.7" x2="1810.4" y2="1652.7"/>
				<line class="st4" x1="1856.4" y1="1660.3" x2="1810.4" y2="1660.3"/>
				<line class="st4" x1="1856.4" y1="1667.9" x2="1810.4" y2="1667.9"/>
			</g>
		</g>
		<g>
			<g>
				<line class="st4" x1="498.5" y1="335.2" x2="498.5" y2="379.2"/>
				<line class="st4" x1="506.1" y1="335.2" x2="506.1" y2="379.2"/>
				<line class="st4" x1="513.7" y1="335.2" x2="513.7" y2="379.2"/>
				<line class="st4" x1="521.3" y1="335.2" x2="521.3" y2="379.2"/>
				<line class="st4" x1="528.9" y1="335.2" x2="528.9" y2="379.2"/>
				<line class="st4" x1="536.5" y1="335.2" x2="536.5" y2="379.2"/>
				<line class="st4" x1="544.2" y1="335.2" x2="544.2" y2="379.2"/>
				<line class="st4" x1="551.8" y1="335.2" x2="551.8" y2="379.2"/>
				<line class="st4" x1="559.4" y1="335.2" x2="559.4" y2="379.2"/>
				<line class="st4" x1="567" y1="335.2" x2="567" y2="379.2"/>
				<line class="st4" x1="574.6" y1="335.2" x2="574.6" y2="379.2"/>
				<line class="st4" x1="582.2" y1="335.2" x2="582.2" y2="379.2"/>
				<line class="st4" x1="589.8" y1="335.2" x2="589.8" y2="379.2"/>
				<line class="st4" x1="597.5" y1="335.2" x2="597.5" y2="379.2"/>
			</g>
			<g>
				<line class="st4" x1="498.5" y1="469.6" x2="498.5" y2="513.6"/>
				<line class="st4" x1="506.1" y1="469.6" x2="506.1" y2="513.6"/>
				<line class="st4" x1="513.7" y1="469.6" x2="513.7" y2="513.6"/>
				<line class="st4" x1="521.3" y1="469.6" x2="521.3" y2="513.6"/>
				<line class="st4" x1="528.9" y1="469.6" x2="528.9" y2="513.6"/>
				<line class="st4" x1="536.5" y1="469.6" x2="536.5" y2="513.6"/>
				<line class="st4" x1="544.2" y1="469.6" x2="544.2" y2="513.6"/>
				<line class="st4" x1="551.8" y1="469.6" x2="551.8" y2="513.6"/>
				<line class="st4" x1="559.4" y1="469.6" x2="559.4" y2="513.6"/>
				<line class="st4" x1="567" y1="469.6" x2="567" y2="513.6"/>
				<line class="st4" x1="574.6" y1="469.6" x2="574.6" y2="513.6"/>
				<line class="st4" x1="582.2" y1="469.6" x2="582.2" y2="513.6"/>
				<line class="st4" x1="589.8" y1="469.6" x2="589.8" y2="513.6"/>
				<line class="st4" x1="597.5" y1="469.6" x2="597.5" y2="513.6"/>
			</g>
			<g>
				<line class="st4" x1="498.5" y1="392.3" x2="498.5" y2="456.5"/>
				<line class="st4" x1="506.1" y1="392.3" x2="506.1" y2="456.5"/>
				<line class="st4" x1="513.7" y1="392.3" x2="513.7" y2="456.5"/>
				<line class="st4" x1="521.3" y1="392.3" x2="521.3" y2="456.5"/>
				<line class="st4" x1="528.9" y1="392.3" x2="528.9" y2="456.5"/>
				<line class="st4" x1="536.5" y1="392.3" x2="536.5" y2="456.5"/>
				<line class="st4" x1="544.2" y1="392.3" x2="544.2" y2="456.5"/>
				<line class="st4" x1="551.8" y1="392.3" x2="551.8" y2="456.5"/>
				<line class="st4" x1="559.4" y1="392.3" x2="559.4" y2="456.5"/>
				<line class="st4" x1="567" y1="392.3" x2="567" y2="456.5"/>
				<line class="st4" x1="574.6" y1="392.3" x2="574.6" y2="456.5"/>
				<line class="st4" x1="582.2" y1="392.3" x2="582.2" y2="456.5"/>
				<line class="st4" x1="589.8" y1="392.3" x2="589.8" y2="456.5"/>
				<line class="st4" x1="597.5" y1="392.3" x2="597.5" y2="456.5"/>
			</g>
		</g>
	</g>
	<g id="actovy">
		<rect x="2573" y="1620.7" class="st5" width="169" height="350"/>
		<g id="seats_4_">
			<g id="row_7_">
				<path class="st6" d="M2169.2,1666.1h-10c-2,0-3.5-1.6-3.5-3.5v-10c0-2,1.6-3.5,3.5-3.5h10c2,0,3.5,1.6,3.5,3.5v10
					C2172.7,1664.5,2171.1,1666.1,2169.2,1666.1z"/>
				<path class="st6" d="M2169.2,1686.1h-10c-2,0-3.5-1.6-3.5-3.5v-10c0-2,1.6-3.5,3.5-3.5h10c2,0,3.5,1.6,3.5,3.5v10
					C2172.7,1684.5,2171.1,1686.1,2169.2,1686.1z"/>
				<path class="st6" d="M2169.2,1706.2h-10c-2,0-3.5-1.6-3.5-3.5v-10c0-2,1.6-3.5,3.5-3.5h10c2,0,3.5,1.6,3.5,3.5v10
					C2172.7,1704.6,2171.1,1706.2,2169.2,1706.2z"/>
				<path class="st6" d="M2169.2,1728.3h-10c-2,0-3.5-1.6-3.5-3.5v-10c0-2,1.6-3.5,3.5-3.5h10c2,0,3.5,1.6,3.5,3.5v10
					C2172.7,1726.7,2171.1,1728.3,2169.2,1728.3z"/>
				<path class="st6" d="M2169.2,1750.4h-10c-2,0-3.5-1.6-3.5-3.5v-10c0-2,1.6-3.5,3.5-3.5h10c2,0,3.5,1.6,3.5,3.5v10
					C2172.7,1748.8,2171.1,1750.4,2169.2,1750.4z"/>
			</g>
			<g>
				<path class="st6" d="M2190.8,1666.1h-10c-2,0-3.5-1.6-3.5-3.5v-10c0-2,1.6-3.5,3.5-3.5h10c2,0,3.5,1.6,3.5,3.5v10
					C2194.3,1664.5,2192.7,1666.1,2190.8,1666.1z"/>
				<path class="st6" d="M2190.8,1686.1h-10c-2,0-3.5-1.6-3.5-3.5v-10c0-2,1.6-3.5,3.5-3.5h10c2,0,3.5,1.6,3.5,3.5v10
					C2194.3,1684.5,2192.7,1686.1,2190.8,1686.1z"/>
				<path class="st6" d="M2190.8,1706.2h-10c-2,0-3.5-1.6-3.5-3.5v-10c0-2,1.6-3.5,3.5-3.5h10c2,0,3.5,1.6,3.5,3.5v10
					C2194.3,1704.6,2192.7,1706.2,2190.8,1706.2z"/>
				<path class="st6" d="M2190.8,1728.3h-10c-2,0-3.5-1.6-3.5-3.5v-10c0-2,1.6-3.5,3.5-3.5h10c2,0,3.5,1.6,3.5,3.5v10
					C2194.3,1726.7,2192.7,1728.3,2190.8,1728.3z"/>
				<path class="st6" d="M2190.8,1750.4h-10c-2,0-3.5-1.6-3.5-3.5v-10c0-2,1.6-3.5,3.5-3.5h10c2,0,3.5,1.6,3.5,3.5v10
					C2194.3,1748.8,2192.7,1750.4,2190.8,1750.4z"/>
			</g>
			<g>
				<path class="st6" d="M2212.4,1666.1h-10c-2,0-3.5-1.6-3.5-3.5v-10c0-2,1.6-3.5,3.5-3.5h10c2,0,3.5,1.6,3.5,3.5v10
					C2215.9,1664.5,2214.3,1666.1,2212.4,1666.1z"/>
				<path class="st6" d="M2212.4,1686.1h-10c-2,0-3.5-1.6-3.5-3.5v-10c0-2,1.6-3.5,3.5-3.5h10c2,0,3.5,1.6,3.5,3.5v10
					C2215.9,1684.5,2214.3,1686.1,2212.4,1686.1z"/>
				<path class="st6" d="M2212.4,1706.2h-10c-2,0-3.5-1.6-3.5-3.5v-10c0-2,1.6-3.5,3.5-3.5h10c2,0,3.5,1.6,3.5,3.5v10
					C2215.9,1704.6,2214.3,1706.2,2212.4,1706.2z"/>
				<path class="st6" d="M2212.4,1728.3h-10c-2,0-3.5-1.6-3.5-3.5v-10c0-2,1.6-3.5,3.5-3.5h10c2,0,3.5,1.6,3.5,3.5v10
					C2215.9,1726.7,2214.3,1728.3,2212.4,1728.3z"/>
				<path class="st6" d="M2212.4,1750.4h-10c-2,0-3.5-1.6-3.5-3.5v-10c0-2,1.6-3.5,3.5-3.5h10c2,0,3.5,1.6,3.5,3.5v10
					C2215.9,1748.8,2214.3,1750.4,2212.4,1750.4z"/>
			</g>
			<g>
				<path class="st6" d="M2234,1666.1h-10c-2,0-3.5-1.6-3.5-3.5v-10c0-2,1.6-3.5,3.5-3.5h10c2,0,3.5,1.6,3.5,3.5v10
					C2237.5,1664.5,2235.9,1666.1,2234,1666.1z"/>
				<path class="st6" d="M2234,1686.1h-10c-2,0-3.5-1.6-3.5-3.5v-10c0-2,1.6-3.5,3.5-3.5h10c2,0,3.5,1.6,3.5,3.5v10
					C2237.5,1684.5,2235.9,1686.1,2234,1686.1z"/>
				<path class="st6" d="M2234,1706.2h-10c-2,0-3.5-1.6-3.5-3.5v-10c0-2,1.6-3.5,3.5-3.5h10c2,0,3.5,1.6,3.5,3.5v10
					C2237.5,1704.6,2235.9,1706.2,2234,1706.2z"/>
				<path class="st6" d="M2234,1728.3h-10c-2,0-3.5-1.6-3.5-3.5v-10c0-2,1.6-3.5,3.5-3.5h10c2,0,3.5,1.6,3.5,3.5v10
					C2237.5,1726.7,2235.9,1728.3,2234,1728.3z"/>
				<path class="st6" d="M2234,1750.4h-10c-2,0-3.5-1.6-3.5-3.5v-10c0-2,1.6-3.5,3.5-3.5h10c2,0,3.5,1.6,3.5,3.5v10
					C2237.5,1748.8,2235.9,1750.4,2234,1750.4z"/>
			</g>
			<g>
				<path class="st6" d="M2255.6,1666.1h-10c-2,0-3.5-1.6-3.5-3.5v-10c0-2,1.6-3.5,3.5-3.5h10c2,0,3.5,1.6,3.5,3.5v10
					C2259.1,1664.5,2257.5,1666.1,2255.6,1666.1z"/>
				<path class="st6" d="M2255.6,1686.1h-10c-2,0-3.5-1.6-3.5-3.5v-10c0-2,1.6-3.5,3.5-3.5h10c2,0,3.5,1.6,3.5,3.5v10
					C2259.1,1684.5,2257.5,1686.1,2255.6,1686.1z"/>
				<path class="st6" d="M2255.6,1706.2h-10c-2,0-3.5-1.6-3.5-3.5v-10c0-2,1.6-3.5,3.5-3.5h10c2,0,3.5,1.6,3.5,3.5v10
					C2259.1,1704.6,2257.5,1706.2,2255.6,1706.2z"/>
				<path class="st6" d="M2255.6,1728.3h-10c-2,0-3.5-1.6-3.5-3.5v-10c0-2,1.6-3.5,3.5-3.5h10c2,0,3.5,1.6,3.5,3.5v10
					C2259.1,1726.7,2257.5,1728.3,2255.6,1728.3z"/>
				<path class="st6" d="M2255.6,1750.4h-10c-2,0-3.5-1.6-3.5-3.5v-10c0-2,1.6-3.5,3.5-3.5h10c2,0,3.5,1.6,3.5,3.5v10
					C2259.1,1748.8,2257.5,1750.4,2255.6,1750.4z"/>
			</g>
			<g>
				<path class="st6" d="M2277.2,1666.1h-10c-2,0-3.5-1.6-3.5-3.5v-10c0-2,1.6-3.5,3.5-3.5h10c2,0,3.5,1.6,3.5,3.5v10
					C2280.7,1664.5,2279.1,1666.1,2277.2,1666.1z"/>
				<path class="st6" d="M2277.2,1686.1h-10c-2,0-3.5-1.6-3.5-3.5v-10c0-2,1.6-3.5,3.5-3.5h10c2,0,3.5,1.6,3.5,3.5v10
					C2280.7,1684.5,2279.1,1686.1,2277.2,1686.1z"/>
				<path class="st6" d="M2277.2,1706.2h-10c-2,0-3.5-1.6-3.5-3.5v-10c0-2,1.6-3.5,3.5-3.5h10c2,0,3.5,1.6,3.5,3.5v10
					C2280.7,1704.6,2279.1,1706.2,2277.2,1706.2z"/>
				<path class="st6" d="M2277.2,1728.3h-10c-2,0-3.5-1.6-3.5-3.5v-10c0-2,1.6-3.5,3.5-3.5h10c2,0,3.5,1.6,3.5,3.5v10
					C2280.7,1726.7,2279.1,1728.3,2277.2,1728.3z"/>
				<path class="st6" d="M2277.2,1750.4h-10c-2,0-3.5-1.6-3.5-3.5v-10c0-2,1.6-3.5,3.5-3.5h10c2,0,3.5,1.6,3.5,3.5v10
					C2280.7,1748.8,2279.1,1750.4,2277.2,1750.4z"/>
			</g>
			<g>
				<path class="st6" d="M2298.8,1666.1h-10c-2,0-3.5-1.6-3.5-3.5v-10c0-2,1.6-3.5,3.5-3.5h10c2,0,3.5,1.6,3.5,3.5v10
					C2302.3,1664.5,2300.7,1666.1,2298.8,1666.1z"/>
				<path class="st6" d="M2298.8,1686.1h-10c-2,0-3.5-1.6-3.5-3.5v-10c0-2,1.6-3.5,3.5-3.5h10c2,0,3.5,1.6,3.5,3.5v10
					C2302.3,1684.5,2300.7,1686.1,2298.8,1686.1z"/>
				<path class="st6" d="M2298.8,1706.2h-10c-2,0-3.5-1.6-3.5-3.5v-10c0-2,1.6-3.5,3.5-3.5h10c2,0,3.5,1.6,3.5,3.5v10
					C2302.3,1704.6,2300.7,1706.2,2298.8,1706.2z"/>
				<path class="st6" d="M2298.8,1728.3h-10c-2,0-3.5-1.6-3.5-3.5v-10c0-2,1.6-3.5,3.5-3.5h10c2,0,3.5,1.6,3.5,3.5v10
					C2302.3,1726.7,2300.7,1728.3,2298.8,1728.3z"/>
				<path class="st6" d="M2298.8,1750.4h-10c-2,0-3.5-1.6-3.5-3.5v-10c0-2,1.6-3.5,3.5-3.5h10c2,0,3.5,1.6,3.5,3.5v10
					C2302.3,1748.8,2300.7,1750.4,2298.8,1750.4z"/>
			</g>
			<g>
				<path class="st6" d="M2320.4,1666.1h-10c-2,0-3.5-1.6-3.5-3.5v-10c0-2,1.6-3.5,3.5-3.5h10c2,0,3.5,1.6,3.5,3.5v10
					C2323.9,1664.5,2322.3,1666.1,2320.4,1666.1z"/>
				<path class="st6" d="M2320.4,1686.1h-10c-2,0-3.5-1.6-3.5-3.5v-10c0-2,1.6-3.5,3.5-3.5h10c2,0,3.5,1.6,3.5,3.5v10
					C2323.9,1684.5,2322.3,1686.1,2320.4,1686.1z"/>
				<path class="st6" d="M2320.4,1706.2h-10c-2,0-3.5-1.6-3.5-3.5v-10c0-2,1.6-3.5,3.5-3.5h10c2,0,3.5,1.6,3.5,3.5v10
					C2323.9,1704.6,2322.3,1706.2,2320.4,1706.2z"/>
				<path class="st6" d="M2320.4,1728.3h-10c-2,0-3.5-1.6-3.5-3.5v-10c0-2,1.6-3.5,3.5-3.5h10c2,0,3.5,1.6,3.5,3.5v10
					C2323.9,1726.7,2322.3,1728.3,2320.4,1728.3z"/>
				<path class="st6" d="M2320.4,1750.4h-10c-2,0-3.5-1.6-3.5-3.5v-10c0-2,1.6-3.5,3.5-3.5h10c2,0,3.5,1.6,3.5,3.5v10
					C2323.9,1748.8,2322.3,1750.4,2320.4,1750.4z"/>
			</g>
			<g>
				<path class="st6" d="M2342,1666.1h-10c-2,0-3.5-1.6-3.5-3.5v-10c0-2,1.6-3.5,3.5-3.5h10c2,0,3.5,1.6,3.5,3.5v10
					C2345.5,1664.5,2343.9,1666.1,2342,1666.1z"/>
				<path class="st6" d="M2342,1686.1h-10c-2,0-3.5-1.6-3.5-3.5v-10c0-2,1.6-3.5,3.5-3.5h10c2,0,3.5,1.6,3.5,3.5v10
					C2345.5,1684.5,2343.9,1686.1,2342,1686.1z"/>
				<path class="st6" d="M2342,1706.2h-10c-2,0-3.5-1.6-3.5-3.5v-10c0-2,1.6-3.5,3.5-3.5h10c2,0,3.5,1.6,3.5,3.5v10
					C2345.5,1704.6,2343.9,1706.2,2342,1706.2z"/>
				<path class="st6" d="M2342,1728.3h-10c-2,0-3.5-1.6-3.5-3.5v-10c0-2,1.6-3.5,3.5-3.5h10c2,0,3.5,1.6,3.5,3.5v10
					C2345.5,1726.7,2343.9,1728.3,2342,1728.3z"/>
				<path class="st6" d="M2342,1750.4h-10c-2,0-3.5-1.6-3.5-3.5v-10c0-2,1.6-3.5,3.5-3.5h10c2,0,3.5,1.6,3.5,3.5v10
					C2345.5,1748.8,2343.9,1750.4,2342,1750.4z"/>
			</g>
			<g>
				<path class="st6" d="M2363.6,1666.1h-10c-2,0-3.5-1.6-3.5-3.5v-10c0-2,1.6-3.5,3.5-3.5h10c2,0,3.5,1.6,3.5,3.5v10
					C2367.1,1664.5,2365.5,1666.1,2363.6,1666.1z"/>
				<path class="st6" d="M2363.6,1686.1h-10c-2,0-3.5-1.6-3.5-3.5v-10c0-2,1.6-3.5,3.5-3.5h10c2,0,3.5,1.6,3.5,3.5v10
					C2367.1,1684.5,2365.5,1686.1,2363.6,1686.1z"/>
				<path class="st6" d="M2363.6,1706.2h-10c-2,0-3.5-1.6-3.5-3.5v-10c0-2,1.6-3.5,3.5-3.5h10c2,0,3.5,1.6,3.5,3.5v10
					C2367.1,1704.6,2365.5,1706.2,2363.6,1706.2z"/>
				<path class="st6" d="M2363.6,1728.3h-10c-2,0-3.5-1.6-3.5-3.5v-10c0-2,1.6-3.5,3.5-3.5h10c2,0,3.5,1.6,3.5,3.5v10
					C2367.1,1726.7,2365.5,1728.3,2363.6,1728.3z"/>
				<path class="st6" d="M2363.6,1750.4h-10c-2,0-3.5-1.6-3.5-3.5v-10c0-2,1.6-3.5,3.5-3.5h10c2,0,3.5,1.6,3.5,3.5v10
					C2367.1,1748.8,2365.5,1750.4,2363.6,1750.4z"/>
			</g>
			<g>
				<path class="st6" d="M2385.2,1666.1h-10c-2,0-3.5-1.6-3.5-3.5v-10c0-2,1.6-3.5,3.5-3.5h10c2,0,3.5,1.6,3.5,3.5v10
					C2388.7,1664.5,2387.1,1666.1,2385.2,1666.1z"/>
				<path class="st6" d="M2385.2,1686.1h-10c-2,0-3.5-1.6-3.5-3.5v-10c0-2,1.6-3.5,3.5-3.5h10c2,0,3.5,1.6,3.5,3.5v10
					C2388.7,1684.5,2387.1,1686.1,2385.2,1686.1z"/>
				<path class="st6" d="M2385.2,1706.2h-10c-2,0-3.5-1.6-3.5-3.5v-10c0-2,1.6-3.5,3.5-3.5h10c2,0,3.5,1.6,3.5,3.5v10
					C2388.7,1704.6,2387.1,1706.2,2385.2,1706.2z"/>
				<path class="st6" d="M2385.2,1728.3h-10c-2,0-3.5-1.6-3.5-3.5v-10c0-2,1.6-3.5,3.5-3.5h10c2,0,3.5,1.6,3.5,3.5v10
					C2388.7,1726.7,2387.1,1728.3,2385.2,1728.3z"/>
				<path class="st6" d="M2385.2,1750.4h-10c-2,0-3.5-1.6-3.5-3.5v-10c0-2,1.6-3.5,3.5-3.5h10c2,0,3.5,1.6,3.5,3.5v10
					C2388.7,1748.8,2387.1,1750.4,2385.2,1750.4z"/>
			</g>
			<g>
				<path class="st6" d="M2406.8,1666.1h-10c-2,0-3.5-1.6-3.5-3.5v-10c0-2,1.6-3.5,3.5-3.5h10c2,0,3.5,1.6,3.5,3.5v10
					C2410.3,1664.5,2408.7,1666.1,2406.8,1666.1z"/>
				<path class="st6" d="M2406.8,1686.1h-10c-2,0-3.5-1.6-3.5-3.5v-10c0-2,1.6-3.5,3.5-3.5h10c2,0,3.5,1.6,3.5,3.5v10
					C2410.3,1684.5,2408.7,1686.1,2406.8,1686.1z"/>
				<path class="st6" d="M2406.8,1706.2h-10c-2,0-3.5-1.6-3.5-3.5v-10c0-2,1.6-3.5,3.5-3.5h10c2,0,3.5,1.6,3.5,3.5v10
					C2410.3,1704.6,2408.7,1706.2,2406.8,1706.2z"/>
				<path class="st6" d="M2406.8,1728.3h-10c-2,0-3.5-1.6-3.5-3.5v-10c0-2,1.6-3.5,3.5-3.5h10c2,0,3.5,1.6,3.5,3.5v10
					C2410.3,1726.7,2408.7,1728.3,2406.8,1728.3z"/>
				<path class="st6" d="M2406.8,1750.4h-10c-2,0-3.5-1.6-3.5-3.5v-10c0-2,1.6-3.5,3.5-3.5h10c2,0,3.5,1.6,3.5,3.5v10
					C2410.3,1748.8,2408.7,1750.4,2406.8,1750.4z"/>
			</g>
			<g>
				<path class="st6" d="M2428.4,1666.1h-10c-2,0-3.5-1.6-3.5-3.5v-10c0-2,1.6-3.5,3.5-3.5h10c2,0,3.5,1.6,3.5,3.5v10
					C2431.9,1664.5,2430.3,1666.1,2428.4,1666.1z"/>
				<path class="st6" d="M2428.4,1686.1h-10c-2,0-3.5-1.6-3.5-3.5v-10c0-2,1.6-3.5,3.5-3.5h10c2,0,3.5,1.6,3.5,3.5v10
					C2431.9,1684.5,2430.3,1686.1,2428.4,1686.1z"/>
				<path class="st6" d="M2428.4,1706.2h-10c-2,0-3.5-1.6-3.5-3.5v-10c0-2,1.6-3.5,3.5-3.5h10c2,0,3.5,1.6,3.5,3.5v10
					C2431.9,1704.6,2430.3,1706.2,2428.4,1706.2z"/>
				<path class="st6" d="M2428.4,1728.3h-10c-2,0-3.5-1.6-3.5-3.5v-10c0-2,1.6-3.5,3.5-3.5h10c2,0,3.5,1.6,3.5,3.5v10
					C2431.9,1726.7,2430.3,1728.3,2428.4,1728.3z"/>
				<path class="st6" d="M2428.4,1750.4h-10c-2,0-3.5-1.6-3.5-3.5v-10c0-2,1.6-3.5,3.5-3.5h10c2,0,3.5,1.6,3.5,3.5v10
					C2431.9,1748.8,2430.3,1750.4,2428.4,1750.4z"/>
			</g>
			<g>
				<path class="st6" d="M2450,1666.1h-10c-2,0-3.5-1.6-3.5-3.5v-10c0-2,1.6-3.5,3.5-3.5h10c2,0,3.5,1.6,3.5,3.5v10
					C2453.5,1664.5,2451.9,1666.1,2450,1666.1z"/>
				<path class="st6" d="M2450,1686.1h-10c-2,0-3.5-1.6-3.5-3.5v-10c0-2,1.6-3.5,3.5-3.5h10c2,0,3.5,1.6,3.5,3.5v10
					C2453.5,1684.5,2451.9,1686.1,2450,1686.1z"/>
				<path class="st6" d="M2450,1706.2h-10c-2,0-3.5-1.6-3.5-3.5v-10c0-2,1.6-3.5,3.5-3.5h10c2,0,3.5,1.6,3.5,3.5v10
					C2453.5,1704.6,2451.9,1706.2,2450,1706.2z"/>
				<path class="st6" d="M2450,1728.3h-10c-2,0-3.5-1.6-3.5-3.5v-10c0-2,1.6-3.5,3.5-3.5h10c2,0,3.5,1.6,3.5,3.5v10
					C2453.5,1726.7,2451.9,1728.3,2450,1728.3z"/>
				<path class="st6" d="M2450,1750.4h-10c-2,0-3.5-1.6-3.5-3.5v-10c0-2,1.6-3.5,3.5-3.5h10c2,0,3.5,1.6,3.5,3.5v10
					C2453.5,1748.8,2451.9,1750.4,2450,1750.4z"/>
			</g>
			<g>
				<path class="st6" d="M2471.6,1666.1h-10c-2,0-3.5-1.6-3.5-3.5v-10c0-2,1.6-3.5,3.5-3.5h10c2,0,3.5,1.6,3.5,3.5v10
					C2475.1,1664.5,2473.5,1666.1,2471.6,1666.1z"/>
				<path class="st6" d="M2471.6,1686.1h-10c-2,0-3.5-1.6-3.5-3.5v-10c0-2,1.6-3.5,3.5-3.5h10c2,0,3.5,1.6,3.5,3.5v10
					C2475.1,1684.5,2473.5,1686.1,2471.6,1686.1z"/>
				<path class="st6" d="M2471.6,1706.2h-10c-2,0-3.5-1.6-3.5-3.5v-10c0-2,1.6-3.5,3.5-3.5h10c2,0,3.5,1.6,3.5,3.5v10
					C2475.1,1704.6,2473.5,1706.2,2471.6,1706.2z"/>
				<path class="st6" d="M2471.6,1728.3h-10c-2,0-3.5-1.6-3.5-3.5v-10c0-2,1.6-3.5,3.5-3.5h10c2,0,3.5,1.6,3.5,3.5v10
					C2475.1,1726.7,2473.5,1728.3,2471.6,1728.3z"/>
				<path class="st6" d="M2471.6,1750.4h-10c-2,0-3.5-1.6-3.5-3.5v-10c0-2,1.6-3.5,3.5-3.5h10c2,0,3.5,1.6,3.5,3.5v10
					C2475.1,1748.8,2473.5,1750.4,2471.6,1750.4z"/>
			</g>
			<g id="row_6_">
				<path class="st6" d="M2493.2,1666.1h-10c-2,0-3.5-1.6-3.5-3.5v-10c0-2,1.6-3.5,3.5-3.5h10c2,0,3.5,1.6,3.5,3.5v10
					C2496.7,1664.5,2495.1,1666.1,2493.2,1666.1z"/>
				<path class="st6" d="M2493.2,1686.1h-10c-2,0-3.5-1.6-3.5-3.5v-10c0-2,1.6-3.5,3.5-3.5h10c2,0,3.5,1.6,3.5,3.5v10
					C2496.7,1684.5,2495.1,1686.1,2493.2,1686.1z"/>
				<path class="st6" d="M2493.2,1706.2h-10c-2,0-3.5-1.6-3.5-3.5v-10c0-2,1.6-3.5,3.5-3.5h10c2,0,3.5,1.6,3.5,3.5v10
					C2496.7,1704.6,2495.1,1706.2,2493.2,1706.2z"/>
				<path class="st6" d="M2493.2,1728.3h-10c-2,0-3.5-1.6-3.5-3.5v-10c0-2,1.6-3.5,3.5-3.5h10c2,0,3.5,1.6,3.5,3.5v10
					C2496.7,1726.7,2495.1,1728.3,2493.2,1728.3z"/>
				<path class="st6" d="M2493.2,1750.4h-10c-2,0-3.5-1.6-3.5-3.5v-10c0-2,1.6-3.5,3.5-3.5h10c2,0,3.5,1.6,3.5,3.5v10
					C2496.7,1748.8,2495.1,1750.4,2493.2,1750.4z"/>
			</g>
		</g>
		<g id="seats_1_">
			<g id="row_3_">
				<path class="st6" d="M2169.2,1841h-10c-2,0-3.5-1.6-3.5-3.5v-10c0-2,1.6-3.5,3.5-3.5h10c2,0,3.5,1.6,3.5,3.5v10
					C2172.7,1839.4,2171.1,1841,2169.2,1841z"/>
				<path class="st6" d="M2169.2,1861.1h-10c-2,0-3.5-1.6-3.5-3.5v-10c0-2,1.6-3.5,3.5-3.5h10c2,0,3.5,1.6,3.5,3.5v10
					C2172.7,1859.5,2171.1,1861.1,2169.2,1861.1z"/>
				<path class="st6" d="M2169.2,1881.2h-10c-2,0-3.5-1.6-3.5-3.5v-10c0-2,1.6-3.5,3.5-3.5h10c2,0,3.5,1.6,3.5,3.5v10
					C2172.7,1879.6,2171.1,1881.2,2169.2,1881.2z"/>
				<path class="st6" d="M2169.2,1903.3h-10c-2,0-3.5-1.6-3.5-3.5v-10c0-2,1.6-3.5,3.5-3.5h10c2,0,3.5,1.6,3.5,3.5v10
					C2172.7,1901.7,2171.1,1903.3,2169.2,1903.3z"/>
				<path class="st6" d="M2169.2,1925.4h-10c-2,0-3.5-1.6-3.5-3.5v-10c0-2,1.6-3.5,3.5-3.5h10c2,0,3.5,1.6,3.5,3.5v10
					C2172.7,1923.8,2171.1,1925.4,2169.2,1925.4z"/>
			</g>
			<g>
				<path class="st6" d="M2190.8,1841h-10c-2,0-3.5-1.6-3.5-3.5v-10c0-2,1.6-3.5,3.5-3.5h10c2,0,3.5,1.6,3.5,3.5v10
					C2194.3,1839.4,2192.7,1841,2190.8,1841z"/>
				<path class="st6" d="M2190.8,1861.1h-10c-2,0-3.5-1.6-3.5-3.5v-10c0-2,1.6-3.5,3.5-3.5h10c2,0,3.5,1.6,3.5,3.5v10
					C2194.3,1859.5,2192.7,1861.1,2190.8,1861.1z"/>
				<path class="st6" d="M2190.8,1881.2h-10c-2,0-3.5-1.6-3.5-3.5v-10c0-2,1.6-3.5,3.5-3.5h10c2,0,3.5,1.6,3.5,3.5v10
					C2194.3,1879.6,2192.7,1881.2,2190.8,1881.2z"/>
				<path class="st6" d="M2190.8,1903.3h-10c-2,0-3.5-1.6-3.5-3.5v-10c0-2,1.6-3.5,3.5-3.5h10c2,0,3.5,1.6,3.5,3.5v10
					C2194.3,1901.7,2192.7,1903.3,2190.8,1903.3z"/>
				<path class="st6" d="M2190.8,1925.4h-10c-2,0-3.5-1.6-3.5-3.5v-10c0-2,1.6-3.5,3.5-3.5h10c2,0,3.5,1.6,3.5,3.5v10
					C2194.3,1923.8,2192.7,1925.4,2190.8,1925.4z"/>
			</g>
			<g>
				<path class="st6" d="M2212.4,1841h-10c-2,0-3.5-1.6-3.5-3.5v-10c0-2,1.6-3.5,3.5-3.5h10c2,0,3.5,1.6,3.5,3.5v10
					C2215.9,1839.4,2214.3,1841,2212.4,1841z"/>
				<path class="st6" d="M2212.4,1861.1h-10c-2,0-3.5-1.6-3.5-3.5v-10c0-2,1.6-3.5,3.5-3.5h10c2,0,3.5,1.6,3.5,3.5v10
					C2215.9,1859.5,2214.3,1861.1,2212.4,1861.1z"/>
				<path class="st6" d="M2212.4,1881.2h-10c-2,0-3.5-1.6-3.5-3.5v-10c0-2,1.6-3.5,3.5-3.5h10c2,0,3.5,1.6,3.5,3.5v10
					C2215.9,1879.6,2214.3,1881.2,2212.4,1881.2z"/>
				<path class="st6" d="M2212.4,1903.3h-10c-2,0-3.5-1.6-3.5-3.5v-10c0-2,1.6-3.5,3.5-3.5h10c2,0,3.5,1.6,3.5,3.5v10
					C2215.9,1901.7,2214.3,1903.3,2212.4,1903.3z"/>
				<path class="st6" d="M2212.4,1925.4h-10c-2,0-3.5-1.6-3.5-3.5v-10c0-2,1.6-3.5,3.5-3.5h10c2,0,3.5,1.6,3.5,3.5v10
					C2215.9,1923.8,2214.3,1925.4,2212.4,1925.4z"/>
			</g>
			<g>
				<path class="st6" d="M2234,1841h-10c-2,0-3.5-1.6-3.5-3.5v-10c0-2,1.6-3.5,3.5-3.5h10c2,0,3.5,1.6,3.5,3.5v10
					C2237.5,1839.4,2235.9,1841,2234,1841z"/>
				<path class="st6" d="M2234,1861.1h-10c-2,0-3.5-1.6-3.5-3.5v-10c0-2,1.6-3.5,3.5-3.5h10c2,0,3.5,1.6,3.5,3.5v10
					C2237.5,1859.5,2235.9,1861.1,2234,1861.1z"/>
				<path class="st6" d="M2234,1881.2h-10c-2,0-3.5-1.6-3.5-3.5v-10c0-2,1.6-3.5,3.5-3.5h10c2,0,3.5,1.6,3.5,3.5v10
					C2237.5,1879.6,2235.9,1881.2,2234,1881.2z"/>
				<path class="st6" d="M2234,1903.3h-10c-2,0-3.5-1.6-3.5-3.5v-10c0-2,1.6-3.5,3.5-3.5h10c2,0,3.5,1.6,3.5,3.5v10
					C2237.5,1901.7,2235.9,1903.3,2234,1903.3z"/>
				<path class="st6" d="M2234,1925.4h-10c-2,0-3.5-1.6-3.5-3.5v-10c0-2,1.6-3.5,3.5-3.5h10c2,0,3.5,1.6,3.5,3.5v10
					C2237.5,1923.8,2235.9,1925.4,2234,1925.4z"/>
			</g>
			<g>
				<path class="st6" d="M2255.6,1841h-10c-2,0-3.5-1.6-3.5-3.5v-10c0-2,1.6-3.5,3.5-3.5h10c2,0,3.5,1.6,3.5,3.5v10
					C2259.1,1839.4,2257.5,1841,2255.6,1841z"/>
				<path class="st6" d="M2255.6,1861.1h-10c-2,0-3.5-1.6-3.5-3.5v-10c0-2,1.6-3.5,3.5-3.5h10c2,0,3.5,1.6,3.5,3.5v10
					C2259.1,1859.5,2257.5,1861.1,2255.6,1861.1z"/>
				<path class="st6" d="M2255.6,1881.2h-10c-2,0-3.5-1.6-3.5-3.5v-10c0-2,1.6-3.5,3.5-3.5h10c2,0,3.5,1.6,3.5,3.5v10
					C2259.1,1879.6,2257.5,1881.2,2255.6,1881.2z"/>
				<path class="st6" d="M2255.6,1903.3h-10c-2,0-3.5-1.6-3.5-3.5v-10c0-2,1.6-3.5,3.5-3.5h10c2,0,3.5,1.6,3.5,3.5v10
					C2259.1,1901.7,2257.5,1903.3,2255.6,1903.3z"/>
				<path class="st6" d="M2255.6,1925.4h-10c-2,0-3.5-1.6-3.5-3.5v-10c0-2,1.6-3.5,3.5-3.5h10c2,0,3.5,1.6,3.5,3.5v10
					C2259.1,1923.8,2257.5,1925.4,2255.6,1925.4z"/>
			</g>
			<g>
				<path class="st6" d="M2277.2,1841h-10c-2,0-3.5-1.6-3.5-3.5v-10c0-2,1.6-3.5,3.5-3.5h10c2,0,3.5,1.6,3.5,3.5v10
					C2280.7,1839.4,2279.1,1841,2277.2,1841z"/>
				<path class="st6" d="M2277.2,1861.1h-10c-2,0-3.5-1.6-3.5-3.5v-10c0-2,1.6-3.5,3.5-3.5h10c2,0,3.5,1.6,3.5,3.5v10
					C2280.7,1859.5,2279.1,1861.1,2277.2,1861.1z"/>
				<path class="st6" d="M2277.2,1881.2h-10c-2,0-3.5-1.6-3.5-3.5v-10c0-2,1.6-3.5,3.5-3.5h10c2,0,3.5,1.6,3.5,3.5v10
					C2280.7,1879.6,2279.1,1881.2,2277.2,1881.2z"/>
				<path class="st6" d="M2277.2,1903.3h-10c-2,0-3.5-1.6-3.5-3.5v-10c0-2,1.6-3.5,3.5-3.5h10c2,0,3.5,1.6,3.5,3.5v10
					C2280.7,1901.7,2279.1,1903.3,2277.2,1903.3z"/>
				<path class="st6" d="M2277.2,1925.4h-10c-2,0-3.5-1.6-3.5-3.5v-10c0-2,1.6-3.5,3.5-3.5h10c2,0,3.5,1.6,3.5,3.5v10
					C2280.7,1923.8,2279.1,1925.4,2277.2,1925.4z"/>
			</g>
			<g>
				<path class="st6" d="M2298.8,1841h-10c-2,0-3.5-1.6-3.5-3.5v-10c0-2,1.6-3.5,3.5-3.5h10c2,0,3.5,1.6,3.5,3.5v10
					C2302.3,1839.4,2300.7,1841,2298.8,1841z"/>
				<path class="st6" d="M2298.8,1861.1h-10c-2,0-3.5-1.6-3.5-3.5v-10c0-2,1.6-3.5,3.5-3.5h10c2,0,3.5,1.6,3.5,3.5v10
					C2302.3,1859.5,2300.7,1861.1,2298.8,1861.1z"/>
				<path class="st6" d="M2298.8,1881.2h-10c-2,0-3.5-1.6-3.5-3.5v-10c0-2,1.6-3.5,3.5-3.5h10c2,0,3.5,1.6,3.5,3.5v10
					C2302.3,1879.6,2300.7,1881.2,2298.8,1881.2z"/>
				<path class="st6" d="M2298.8,1903.3h-10c-2,0-3.5-1.6-3.5-3.5v-10c0-2,1.6-3.5,3.5-3.5h10c2,0,3.5,1.6,3.5,3.5v10
					C2302.3,1901.7,2300.7,1903.3,2298.8,1903.3z"/>
				<path class="st6" d="M2298.8,1925.4h-10c-2,0-3.5-1.6-3.5-3.5v-10c0-2,1.6-3.5,3.5-3.5h10c2,0,3.5,1.6,3.5,3.5v10
					C2302.3,1923.8,2300.7,1925.4,2298.8,1925.4z"/>
			</g>
			<g>
				<path class="st6" d="M2320.4,1841h-10c-2,0-3.5-1.6-3.5-3.5v-10c0-2,1.6-3.5,3.5-3.5h10c2,0,3.5,1.6,3.5,3.5v10
					C2323.9,1839.4,2322.3,1841,2320.4,1841z"/>
				<path class="st6" d="M2320.4,1861.1h-10c-2,0-3.5-1.6-3.5-3.5v-10c0-2,1.6-3.5,3.5-3.5h10c2,0,3.5,1.6,3.5,3.5v10
					C2323.9,1859.5,2322.3,1861.1,2320.4,1861.1z"/>
				<path class="st6" d="M2320.4,1881.2h-10c-2,0-3.5-1.6-3.5-3.5v-10c0-2,1.6-3.5,3.5-3.5h10c2,0,3.5,1.6,3.5,3.5v10
					C2323.9,1879.6,2322.3,1881.2,2320.4,1881.2z"/>
				<path class="st6" d="M2320.4,1903.3h-10c-2,0-3.5-1.6-3.5-3.5v-10c0-2,1.6-3.5,3.5-3.5h10c2,0,3.5,1.6,3.5,3.5v10
					C2323.9,1901.7,2322.3,1903.3,2320.4,1903.3z"/>
				<path class="st6" d="M2320.4,1925.4h-10c-2,0-3.5-1.6-3.5-3.5v-10c0-2,1.6-3.5,3.5-3.5h10c2,0,3.5,1.6,3.5,3.5v10
					C2323.9,1923.8,2322.3,1925.4,2320.4,1925.4z"/>
			</g>
			<g>
				<path class="st6" d="M2342,1841h-10c-2,0-3.5-1.6-3.5-3.5v-10c0-2,1.6-3.5,3.5-3.5h10c2,0,3.5,1.6,3.5,3.5v10
					C2345.5,1839.4,2343.9,1841,2342,1841z"/>
				<path class="st6" d="M2342,1861.1h-10c-2,0-3.5-1.6-3.5-3.5v-10c0-2,1.6-3.5,3.5-3.5h10c2,0,3.5,1.6,3.5,3.5v10
					C2345.5,1859.5,2343.9,1861.1,2342,1861.1z"/>
				<path class="st6" d="M2342,1881.2h-10c-2,0-3.5-1.6-3.5-3.5v-10c0-2,1.6-3.5,3.5-3.5h10c2,0,3.5,1.6,3.5,3.5v10
					C2345.5,1879.6,2343.9,1881.2,2342,1881.2z"/>
				<path class="st6" d="M2342,1903.3h-10c-2,0-3.5-1.6-3.5-3.5v-10c0-2,1.6-3.5,3.5-3.5h10c2,0,3.5,1.6,3.5,3.5v10
					C2345.5,1901.7,2343.9,1903.3,2342,1903.3z"/>
				<path class="st6" d="M2342,1925.4h-10c-2,0-3.5-1.6-3.5-3.5v-10c0-2,1.6-3.5,3.5-3.5h10c2,0,3.5,1.6,3.5,3.5v10
					C2345.5,1923.8,2343.9,1925.4,2342,1925.4z"/>
			</g>
			<g>
				<path class="st6" d="M2363.6,1841h-10c-2,0-3.5-1.6-3.5-3.5v-10c0-2,1.6-3.5,3.5-3.5h10c2,0,3.5,1.6,3.5,3.5v10
					C2367.1,1839.4,2365.5,1841,2363.6,1841z"/>
				<path class="st6" d="M2363.6,1861.1h-10c-2,0-3.5-1.6-3.5-3.5v-10c0-2,1.6-3.5,3.5-3.5h10c2,0,3.5,1.6,3.5,3.5v10
					C2367.1,1859.5,2365.5,1861.1,2363.6,1861.1z"/>
				<path class="st6" d="M2363.6,1881.2h-10c-2,0-3.5-1.6-3.5-3.5v-10c0-2,1.6-3.5,3.5-3.5h10c2,0,3.5,1.6,3.5,3.5v10
					C2367.1,1879.6,2365.5,1881.2,2363.6,1881.2z"/>
				<path class="st6" d="M2363.6,1903.3h-10c-2,0-3.5-1.6-3.5-3.5v-10c0-2,1.6-3.5,3.5-3.5h10c2,0,3.5,1.6,3.5,3.5v10
					C2367.1,1901.7,2365.5,1903.3,2363.6,1903.3z"/>
				<path class="st6" d="M2363.6,1925.4h-10c-2,0-3.5-1.6-3.5-3.5v-10c0-2,1.6-3.5,3.5-3.5h10c2,0,3.5,1.6,3.5,3.5v10
					C2367.1,1923.8,2365.5,1925.4,2363.6,1925.4z"/>
			</g>
			<g>
				<path class="st6" d="M2385.2,1841h-10c-2,0-3.5-1.6-3.5-3.5v-10c0-2,1.6-3.5,3.5-3.5h10c2,0,3.5,1.6,3.5,3.5v10
					C2388.7,1839.4,2387.1,1841,2385.2,1841z"/>
				<path class="st6" d="M2385.2,1861.1h-10c-2,0-3.5-1.6-3.5-3.5v-10c0-2,1.6-3.5,3.5-3.5h10c2,0,3.5,1.6,3.5,3.5v10
					C2388.7,1859.5,2387.1,1861.1,2385.2,1861.1z"/>
				<path class="st6" d="M2385.2,1881.2h-10c-2,0-3.5-1.6-3.5-3.5v-10c0-2,1.6-3.5,3.5-3.5h10c2,0,3.5,1.6,3.5,3.5v10
					C2388.7,1879.6,2387.1,1881.2,2385.2,1881.2z"/>
				<path class="st6" d="M2385.2,1903.3h-10c-2,0-3.5-1.6-3.5-3.5v-10c0-2,1.6-3.5,3.5-3.5h10c2,0,3.5,1.6,3.5,3.5v10
					C2388.7,1901.7,2387.1,1903.3,2385.2,1903.3z"/>
				<path class="st6" d="M2385.2,1925.4h-10c-2,0-3.5-1.6-3.5-3.5v-10c0-2,1.6-3.5,3.5-3.5h10c2,0,3.5,1.6,3.5,3.5v10
					C2388.7,1923.8,2387.1,1925.4,2385.2,1925.4z"/>
			</g>
			<g>
				<path class="st6" d="M2406.8,1841h-10c-2,0-3.5-1.6-3.5-3.5v-10c0-2,1.6-3.5,3.5-3.5h10c2,0,3.5,1.6,3.5,3.5v10
					C2410.3,1839.4,2408.7,1841,2406.8,1841z"/>
				<path class="st6" d="M2406.8,1861.1h-10c-2,0-3.5-1.6-3.5-3.5v-10c0-2,1.6-3.5,3.5-3.5h10c2,0,3.5,1.6,3.5,3.5v10
					C2410.3,1859.5,2408.7,1861.1,2406.8,1861.1z"/>
				<path class="st6" d="M2406.8,1881.2h-10c-2,0-3.5-1.6-3.5-3.5v-10c0-2,1.6-3.5,3.5-3.5h10c2,0,3.5,1.6,3.5,3.5v10
					C2410.3,1879.6,2408.7,1881.2,2406.8,1881.2z"/>
				<path class="st6" d="M2406.8,1903.3h-10c-2,0-3.5-1.6-3.5-3.5v-10c0-2,1.6-3.5,3.5-3.5h10c2,0,3.5,1.6,3.5,3.5v10
					C2410.3,1901.7,2408.7,1903.3,2406.8,1903.3z"/>
				<path class="st6" d="M2406.8,1925.4h-10c-2,0-3.5-1.6-3.5-3.5v-10c0-2,1.6-3.5,3.5-3.5h10c2,0,3.5,1.6,3.5,3.5v10
					C2410.3,1923.8,2408.7,1925.4,2406.8,1925.4z"/>
			</g>
			<g>
				<path class="st6" d="M2428.4,1841h-10c-2,0-3.5-1.6-3.5-3.5v-10c0-2,1.6-3.5,3.5-3.5h10c2,0,3.5,1.6,3.5,3.5v10
					C2431.9,1839.4,2430.3,1841,2428.4,1841z"/>
				<path class="st6" d="M2428.4,1861.1h-10c-2,0-3.5-1.6-3.5-3.5v-10c0-2,1.6-3.5,3.5-3.5h10c2,0,3.5,1.6,3.5,3.5v10
					C2431.9,1859.5,2430.3,1861.1,2428.4,1861.1z"/>
				<path class="st6" d="M2428.4,1881.2h-10c-2,0-3.5-1.6-3.5-3.5v-10c0-2,1.6-3.5,3.5-3.5h10c2,0,3.5,1.6,3.5,3.5v10
					C2431.9,1879.6,2430.3,1881.2,2428.4,1881.2z"/>
				<path class="st6" d="M2428.4,1903.3h-10c-2,0-3.5-1.6-3.5-3.5v-10c0-2,1.6-3.5,3.5-3.5h10c2,0,3.5,1.6,3.5,3.5v10
					C2431.9,1901.7,2430.3,1903.3,2428.4,1903.3z"/>
				<path class="st6" d="M2428.4,1925.4h-10c-2,0-3.5-1.6-3.5-3.5v-10c0-2,1.6-3.5,3.5-3.5h10c2,0,3.5,1.6,3.5,3.5v10
					C2431.9,1923.8,2430.3,1925.4,2428.4,1925.4z"/>
			</g>
			<g>
				<path class="st6" d="M2450,1841h-10c-2,0-3.5-1.6-3.5-3.5v-10c0-2,1.6-3.5,3.5-3.5h10c2,0,3.5,1.6,3.5,3.5v10
					C2453.5,1839.4,2451.9,1841,2450,1841z"/>
				<path class="st6" d="M2450,1861.1h-10c-2,0-3.5-1.6-3.5-3.5v-10c0-2,1.6-3.5,3.5-3.5h10c2,0,3.5,1.6,3.5,3.5v10
					C2453.5,1859.5,2451.9,1861.1,2450,1861.1z"/>
				<path class="st6" d="M2450,1881.2h-10c-2,0-3.5-1.6-3.5-3.5v-10c0-2,1.6-3.5,3.5-3.5h10c2,0,3.5,1.6,3.5,3.5v10
					C2453.5,1879.6,2451.9,1881.2,2450,1881.2z"/>
				<path class="st6" d="M2450,1903.3h-10c-2,0-3.5-1.6-3.5-3.5v-10c0-2,1.6-3.5,3.5-3.5h10c2,0,3.5,1.6,3.5,3.5v10
					C2453.5,1901.7,2451.9,1903.3,2450,1903.3z"/>
				<path class="st6" d="M2450,1925.4h-10c-2,0-3.5-1.6-3.5-3.5v-10c0-2,1.6-3.5,3.5-3.5h10c2,0,3.5,1.6,3.5,3.5v10
					C2453.5,1923.8,2451.9,1925.4,2450,1925.4z"/>
			</g>
			<g>
				<path class="st6" d="M2471.6,1841h-10c-2,0-3.5-1.6-3.5-3.5v-10c0-2,1.6-3.5,3.5-3.5h10c2,0,3.5,1.6,3.5,3.5v10
					C2475.1,1839.4,2473.5,1841,2471.6,1841z"/>
				<path class="st6" d="M2471.6,1861.1h-10c-2,0-3.5-1.6-3.5-3.5v-10c0-2,1.6-3.5,3.5-3.5h10c2,0,3.5,1.6,3.5,3.5v10
					C2475.1,1859.5,2473.5,1861.1,2471.6,1861.1z"/>
				<path class="st6" d="M2471.6,1881.2h-10c-2,0-3.5-1.6-3.5-3.5v-10c0-2,1.6-3.5,3.5-3.5h10c2,0,3.5,1.6,3.5,3.5v10
					C2475.1,1879.6,2473.5,1881.2,2471.6,1881.2z"/>
				<path class="st6" d="M2471.6,1903.3h-10c-2,0-3.5-1.6-3.5-3.5v-10c0-2,1.6-3.5,3.5-3.5h10c2,0,3.5,1.6,3.5,3.5v10
					C2475.1,1901.7,2473.5,1903.3,2471.6,1903.3z"/>
				<path class="st6" d="M2471.6,1925.4h-10c-2,0-3.5-1.6-3.5-3.5v-10c0-2,1.6-3.5,3.5-3.5h10c2,0,3.5,1.6,3.5,3.5v10
					C2475.1,1923.8,2473.5,1925.4,2471.6,1925.4z"/>
			</g>
			<g id="row_2_">
				<path class="st6" d="M2493.2,1841h-10c-2,0-3.5-1.6-3.5-3.5v-10c0-2,1.6-3.5,3.5-3.5h10c2,0,3.5,1.6,3.5,3.5v10
					C2496.7,1839.4,2495.1,1841,2493.2,1841z"/>
				<path class="st6" d="M2493.2,1861.1h-10c-2,0-3.5-1.6-3.5-3.5v-10c0-2,1.6-3.5,3.5-3.5h10c2,0,3.5,1.6,3.5,3.5v10
					C2496.7,1859.5,2495.1,1861.1,2493.2,1861.1z"/>
				<path class="st6" d="M2493.2,1881.2h-10c-2,0-3.5-1.6-3.5-3.5v-10c0-2,1.6-3.5,3.5-3.5h10c2,0,3.5,1.6,3.5,3.5v10
					C2496.7,1879.6,2495.1,1881.2,2493.2,1881.2z"/>
				<path class="st6" d="M2493.2,1903.3h-10c-2,0-3.5-1.6-3.5-3.5v-10c0-2,1.6-3.5,3.5-3.5h10c2,0,3.5,1.6,3.5,3.5v10
					C2496.7,1901.7,2495.1,1903.3,2493.2,1903.3z"/>
				<path class="st6" d="M2493.2,1925.4h-10c-2,0-3.5-1.6-3.5-3.5v-10c0-2,1.6-3.5,3.5-3.5h10c2,0,3.5,1.6,3.5,3.5v10
					C2496.7,1923.8,2495.1,1925.4,2493.2,1925.4z"/>
			</g>
		</g>
	</g>
	<g id="schema">
		<path class="st7" d="M253,239.7"/>
		<polyline class="st8" points="439.8,239.7 253,239.7 253,1975.7 2747,1975.7 2747,1615.7 1948,1615.7 1948,1504.7 1898,1504.7
			"/>
		<path class="st7" d="M434,239.7"/>
		<polyline class="st8" points="1843,1505.7 1796.6,1505.7 1796.6,1555.6 1265,1555.6 1265,1609.7 1104,1609.7 1104,1557.7
			491,1557.7 491,1402.7 652,1402.7 652,841.7 693.3,841.7 693.3,746.7 653.7,746.7 653.7,239.7 476.8,239.7 		"/>
		<path class="st7" d="M468,236.7"/>
		<line class="st8" x1="2109.5" y1="1615.7" x2="2109.5" y2="1975.7"/>
		<polyline class="st8" points="1948,1615.7 1948,1738.2 2109.5,1738.2 		"/>
		<polyline class="st8" points="2109.5,1840.1 1948.5,1840.1 1948.5,1975.7 		"/>
		<polyline class="st8" points="1796.6,1555.6 1796.6,1723.2 491.5,1724.2 491,1557.7 		"/>
		<polyline class="st8" points="1948.5,1840.1 1948.5,1815 253,1815 		"/>
		<polyline class="st8" points="253,1555.6 413.5,1555.6 413.5,239.7 		"/>
		<path class="st8" d="M652,841.7"/>
		<line class="st8" x1="491" y1="1402.7" x2="491" y2="239.7"/>
		<line class="st8" x1="1796.6" y1="1975.7" x2="1796.6" y2="1815"/>
		<line class="st8" x1="1672.5" y1="1555.6" x2="1672.5" y2="1723.3"/>
		<line class="st8" x1="1573.1" y1="1555.6" x2="1573.1" y2="1723.3"/>
		<line class="st8" x1="1573.1" y1="1815" x2="1573.1" y2="1975.7"/>
		<line class="st8" x1="1265" y1="1609.7" x2="1265" y2="1723.3"/>
		<line class="st8" x1="1265" y1="1815" x2="1265" y2="1975.7"/>
		<line class="st8" x1="1104" y1="1609.7" x2="1104" y2="1723.8"/>
		<line class="st8" x1="1104" y1="1815" x2="1104" y2="1975.7"/>
		<line class="st8" x1="1032.6" y1="1815" x2="1032.6" y2="1975.7"/>
		<line class="st8" x1="949.6" y1="1557.7" x2="949.6" y2="1723.9"/>
		<line class="st8" x1="871.8" y1="1557.7" x2="871.8" y2="1724.2"/>
		<line class="st8" x1="892" y1="1815" x2="892" y2="1975.7"/>
		<line class="st8" x1="657.3" y1="1815" x2="657.3" y2="1975.7"/>
		<line class="st8" x1="642.4" y1="1557.7" x2="642.4" y2="1724.2"/>
		<line class="st8" x1="491" y1="1815" x2="491" y2="1975.7"/>
		<line class="st8" x1="491.5" y1="1724.2" x2="473.7" y2="1724.2"/>
		<polyline class="st8" points="446.7,1724.2 414.6,1724.2 253,1724.2 		"/>
		<line class="st8" x1="413.5" y1="1555.6" x2="413.5" y2="1724.2"/>
		<line class="st8" x1="253" y1="1255.8" x2="413.5" y2="1255.8"/>
		<line class="st8" x1="253" y1="1171.8" x2="413.5" y2="1171.8"/>
		<line class="st8" x1="491" y1="1171.8" x2="652" y2="1171.8"/>
		<line class="st8" x1="491" y1="922.2" x2="652" y2="922.2"/>
		<line class="st8" x1="652" y1="841.7" x2="491" y2="841.7"/>
		<line class="st8" x1="653.7" y1="746.7" x2="491" y2="746.7"/>
		<line class="st8" x1="413.5" y1="746.7" x2="253" y2="746.7"/>
		<polyline class="st8" points="653.7,610.7 491,610.7 470.6,610.7 		"/>
		<line class="st8" x1="435.5" y1="610.7" x2="253" y2="610.7"/>
		<line class="st8" x1="491" y1="520.5" x2="653.7" y2="520.5"/>
		<line class="st8" x1="413.5" y1="460.5" x2="253" y2="460.5"/>
		<line class="st8" x1="653.7" y1="326.6" x2="468" y2="326.6"/>
		<line class="st8" x1="436" y1="326.6" x2="253" y2="326.6"/>
	</g>
	<g>
	</g>
	<g>
	</g>
	<g>
	</g>
	<g>
	</g>
	<g>
	</g>
	<g>
	</g>
	<g>
	</g>
	<g>
	</g>
	<g>
	</g>
	<g>
	</g>
	<g>
	</g>
	<g>
	</g>
	<g>
	</g>
	<g>
	</g>
	<g>
	</g>
</g>
</svg>
