<?xml version="1.0" encoding="utf-8"?>
<!-- Generator: Adobe Illustrator 25.0.1, SVG Export Plug-In . SVG Version: 6.00 Build 0)  -->
<svg version="1.1" id="Слой_1" xmlns="http://www.w3.org/2000/svg" xmlns:xlink="http://www.w3.org/1999/xlink" x="0px" y="0px"
	 viewBox="0 0 2975 2350" style="enable-background:new 0 0 2975 2350;" xml:space="preserve">
<style type="text/css">
	.st0{opacity:0.5;fill:#C1272D;enable-background:new    ;}
	.st1{fill:#C1272D;}
	.st2{fill:#1A1A1A;}
	.st3{fill:none;stroke:#0071BC;stroke-width:3;stroke-miterlimit:10;}
	.st4{fill:#9C8675;}
	.st5{fill:#A81A1E;}
	.st6{fill:none;stroke:#4D4D4D;stroke-width:8;stroke-miterlimit:10;}
	.st7{fill:none;stroke:#4D4D4D;stroke-width:9;stroke-miterlimit:10;}
	.st8{opacity:0.9;fill:none;stroke:#464646;stroke-width:3;stroke-miterlimit:10;}
	.st9{fill:none;stroke:#F5FF15;stroke-width:3;stroke-linecap:round;stroke-miterlimit:10;stroke-dasharray:0,4.0143;}
	.st10{fill:none;stroke:#F5FF15;stroke-width:3;stroke-linecap:round;stroke-miterlimit:10;stroke-dasharray:0,3.9905;}
	.st11{fill:none;stroke:#F5FF15;stroke-width:3;stroke-linecap:round;stroke-miterlimit:10;stroke-dasharray:0,4.0337;}
	.st12{fill:none;stroke:#F5FF15;stroke-width:3;stroke-linecap:round;stroke-miterlimit:10;stroke-dasharray:0,4.0377;}
	.st13{fill:none;stroke:#F5FF15;stroke-width:3;stroke-linecap:round;stroke-miterlimit:10;stroke-dasharray:0,4.0378;}
	.st14{fill:#4D4D4D;}
	.st15{fill:none;stroke:#F4EA00;stroke-width:3;stroke-linecap:round;stroke-miterlimit:10;stroke-dasharray:0,3.8859;}
</style>
<g id="Слой_9">
	<g id="doors">
		<g>
			<path class="st0" d="M417.9,1618.9c6.3,9.5,14.9,29.9,14.9,29.9s-5.9,4.9-14.9,4.5"/>
			<path class="st1" d="M431.4,1650.4l-15.7-31.7c-0.4-0.8-0.1-1.8,0.7-2.2l0,0c0.8-0.4,1.8-0.1,2.2,0.7l15.7,31.7
				c0.4,0.8,0.1,1.8-0.7,2.2l0,0C432.8,1651.5,431.8,1651.2,431.4,1650.4z"/>
		</g>
		<g>
			<path class="st0" d="M417.9,1930.6c6.3,9.5,14.9,29.9,14.9,29.9s-5.9,4.9-14.9,4.5"/>
			<path class="st1" d="M431.4,1962.1l-15.7-31.7c-0.4-0.8-0.1-1.8,0.7-2.2l0,0c0.8-0.4,1.8-0.1,2.2,0.7l15.7,31.7
				c0.4,0.8,0.1,1.8-0.7,2.2l0,0C432.8,1963.3,431.8,1962.9,431.4,1962.1z"/>
		</g>
		<g>
			<path class="st0" d="M430.8,2160.7c9.5-6.3,29.9-14.9,29.9-14.9s4.9,5.9,4.5,14.9"/>
			<path class="st1" d="M462.2,2147.2l-31.7,15.7c-0.8,0.4-1.8,0.1-2.2-0.7l0,0c-0.4-0.8-0.1-1.8,0.7-2.2l31.7-15.7
				c0.8-0.4,1.8-0.1,2.2,0.7l0,0C463.4,2145.8,463,2146.8,462.2,2147.2z"/>
		</g>
		<g>
			<path class="st0" d="M602.7,2160.7c9.5-6.3,29.9-14.9,29.9-14.9s4.9,5.9,4.5,14.9"/>
			<path class="st1" d="M634.2,2147.2l-31.7,15.7c-0.8,0.4-1.8,0.1-2.2-0.7l0,0c-0.4-0.8-0.1-1.8,0.7-2.2l31.7-15.7
				c0.8-0.4,1.8-0.1,2.2,0.7l0,0C635.3,2145.8,635,2146.8,634.2,2147.2z"/>
		</g>
		<g>
			<path class="st0" d="M731.7,2160.7c9.5-6.3,29.9-14.9,29.9-14.9s4.9,5.9,4.5,14.9"/>
			<path class="st1" d="M763.2,2147.2l-31.7,15.7c-0.8,0.4-1.8,0.1-2.2-0.7l0,0c-0.4-0.8-0.1-1.8,0.7-2.2l31.7-15.7
				c0.8-0.4,1.8-0.1,2.2,0.7l0,0C764.3,2145.8,764,2146.8,763.2,2147.2z"/>
		</g>
		<g>
			<path class="st0" d="M946.2,2160.7c9.5-6.3,29.9-14.9,29.9-14.9s4.9,5.9,4.5,14.9"/>
			<path class="st1" d="M977.7,2147.2l-31.7,15.7c-0.8,0.4-1.8,0.1-2.2-0.7l0,0c-0.4-0.8-0.1-1.8,0.7-2.2l31.7-15.7
				c0.8-0.4,1.8-0.1,2.2,0.7l0,0C978.9,2145.8,978.5,2146.8,977.7,2147.2z"/>
		</g>
		<g>
			<path class="st0" d="M1044.3,2160.7c9.5-6.3,29.9-14.9,29.9-14.9s4.9,5.9,4.5,14.9"/>
			<path class="st1" d="M1075.8,2147.2l-31.7,15.7c-0.8,0.4-1.8,0.1-2.2-0.7l0,0c-0.4-0.8-0.1-1.8,0.7-2.2l31.7-15.7
				c0.8-0.4,1.8-0.1,2.2,0.7l0,0C1076.9,2145.8,1076.6,2146.8,1075.8,2147.2z"/>
		</g>
		<g>
			<path class="st0" d="M1199.1,2160.7c9.5-6.3,29.9-14.9,29.9-14.9s4.9,5.9,4.5,14.9"/>
			<path class="st1" d="M1230.6,2147.2l-31.7,15.7c-0.8,0.4-1.8,0.1-2.2-0.7l0,0c-0.4-0.8-0.1-1.8,0.7-2.2l31.7-15.7
				c0.8-0.4,1.8-0.1,2.2,0.7l0,0C1231.7,2145.8,1231.4,2146.8,1230.6,2147.2z"/>
		</g>
		<g>
			<path class="st0" d="M1364.7,2160.7c9.5-6.3,29.9-14.9,29.9-14.9s4.9,5.9,4.5,14.9"/>
			<path class="st1" d="M1396.2,2147.2l-31.7,15.7c-0.8,0.4-1.8,0.1-2.2-0.7l0,0c-0.4-0.8-0.1-1.8,0.7-2.2l31.7-15.7
				c0.8-0.4,1.8-0.1,2.2,0.7l0,0C1397.3,2145.8,1397,2146.8,1396.2,2147.2z"/>
		</g>
		<g>
			<path class="st0" d="M1588.4,2160.7c9.5-6.3,29.9-14.9,29.9-14.9s4.9,5.9,4.5,14.9"/>
			<path class="st1" d="M1619.9,2147.2l-31.7,15.7c-0.8,0.4-1.8,0.1-2.2-0.7l0,0c-0.4-0.8-0.1-1.8,0.7-2.2l31.7-15.7
				c0.8-0.4,1.8-0.1,2.2,0.7l0,0C1621,2145.8,1620.7,2146.8,1619.9,2147.2z"/>
		</g>
		<g>
			<path class="st0" d="M2050.8,2185.6c9.5-6.3,29.9-14.9,29.9-14.9s4.9,5.9,4.5,14.9"/>
			<path class="st1" d="M2082.3,2172.1l-31.7,15.7c-0.8,0.4-1.8,0.1-2.2-0.7l0,0c-0.4-0.8-0.1-1.8,0.7-2.2l31.7-15.7
				c0.8-0.4,1.8-0.1,2.2,0.7l0,0C2083.4,2170.7,2083.1,2171.7,2082.3,2172.1z"/>
		</g>
		<g>
			<path class="st0" d="M1856.4,2160.6c9.5-6.3,29.9-14.9,29.9-14.9s4.9,5.9,4.5,14.9"/>
			<path class="st1" d="M1887.9,2147.2l-31.7,15.7c-0.8,0.4-1.8,0.1-2.2-0.7l0,0c-0.4-0.8-0.1-1.8,0.7-2.2l31.7-15.7
				c0.8-0.4,1.8-0.1,2.2,0.7l0,0C1889,2145.8,1888.7,2146.8,1887.9,2147.2z"/>
		</g>
		<g>
			<path class="st0" d="M2079.6,2092.7c-9.5,6.3-29.9,14.9-29.9,14.9s-4.9-5.9-4.5-14.9"/>
			<path class="st1" d="M2048.1,2106.2l31.7-15.7c0.8-0.4,1.8-0.1,2.2,0.7l0,0c0.4,0.8,0.1,1.8-0.7,2.2l-31.7,15.7
				c-0.8,0.4-1.8,0.1-2.2-0.7l0,0C2046.9,2107.5,2047.3,2106.6,2048.1,2106.2z"/>
		</g>
		<g>
			<path class="st0" d="M1785.9,2077.6c-9.5,6.3-29.9,14.9-29.9,14.9s-4.9-5.9-4.5-14.9"/>
			<path class="st1" d="M1754.4,2091.1l31.7-15.7c0.8-0.4,1.8-0.1,2.2,0.7l0,0c0.4,0.8,0.1,1.8-0.7,2.2l-31.7,15.7
				c-0.8,0.4-1.8,0.1-2.2-0.7l0,0C1753.3,2092.4,1753.6,2091.5,1754.4,2091.1z"/>
		</g>
		<g>
			<path class="st0" d="M1626.1,2077.6c-9.5,6.3-29.9,14.9-29.9,14.9s-4.9-5.9-4.5-14.9"/>
			<path class="st1" d="M1594.6,2091.1l31.7-15.7c0.8-0.4,1.8-0.1,2.2,0.7l0,0c0.4,0.8,0.1,1.8-0.7,2.2L1596,2094
				c-0.8,0.4-1.8,0.1-2.2-0.7l0,0C1593.4,2092.4,1593.8,2091.5,1594.6,2091.1z"/>
		</g>
		<g>
			<path class="st0" d="M1390.6,2077.6c-9.5,6.3-29.9,14.9-29.9,14.9s-4.9-5.9-4.5-14.9"/>
			<path class="st1" d="M1359.1,2091.1l31.7-15.7c0.8-0.4,1.8-0.1,2.2,0.7l0,0c0.4,0.8,0.1,1.8-0.7,2.2l-31.7,15.7
				c-0.8,0.4-1.8,0.1-2.2-0.7l0,0C1358,2092.4,1358.3,2091.5,1359.1,2091.1z"/>
		</g>
		<g>
			<path class="st0" d="M1201.3,2077.6c-9.5,6.3-29.9,14.9-29.9,14.9s-4.9-5.9-4.5-14.9"/>
			<path class="st1" d="M1169.8,2091.1l31.7-15.7c0.8-0.4,1.8-0.1,2.2,0.7l0,0c0.4,0.8,0.1,1.8-0.7,2.2l-31.7,15.7
				c-0.8,0.4-1.8,0.1-2.2-0.7l0,0C1168.6,2092.4,1169,2091.5,1169.8,2091.1z"/>
		</g>
		<g>
			<path class="st0" d="M996.6,2077.6c-9.5,6.3-29.9,14.9-29.9,14.9s-4.9-5.9-4.5-14.9"/>
			<path class="st1" d="M965.1,2091.1l31.7-15.7c0.8-0.4,1.8-0.1,2.2,0.7l0,0c0.4,0.8,0.1,1.8-0.7,2.2l-31.7,15.7
				c-0.8,0.4-1.8,0.1-2.2-0.7l0,0C963.9,2092.4,964.3,2091.5,965.1,2091.1z"/>
		</g>
		<g>
			<path class="st0" d="M932.7,2077.6c-9.5,6.3-29.9,14.9-29.9,14.9s-4.9-5.9-4.5-14.9"/>
			<path class="st1" d="M901.2,2091.1l31.7-15.7c0.8-0.4,1.8-0.1,2.2,0.7l0,0c0.4,0.8,0.1,1.8-0.7,2.2l-31.7,15.7
				c-0.8,0.4-1.8,0.1-2.2-0.7l0,0C900.1,2092.4,900.4,2091.5,901.2,2091.1z"/>
		</g>
		<g>
			<path class="st0" d="M768.2,2077.6c-9.5,6.3-29.9,14.9-29.9,14.9s-4.9-5.9-4.5-14.9"/>
			<path class="st1" d="M736.7,2091.1l31.7-15.7c0.8-0.4,1.8-0.1,2.2,0.7l0,0c0.4,0.8,0.1,1.8-0.7,2.2l-31.7,15.7
				c-0.8,0.4-1.8,0.1-2.2-0.7l0,0C735.6,2092.4,735.9,2091.5,736.7,2091.1z"/>
		</g>
		<g>
			<path class="st0" d="M618.6,2077.6c-9.5,6.3-29.9,14.9-29.9,14.9s-4.9-5.9-4.5-14.9"/>
			<path class="st1" d="M587.1,2091.1l31.7-15.7c0.8-0.4,1.8-0.1,2.2,0.7l0,0c0.4,0.8,0.1,1.8-0.7,2.2l-31.7,15.7
				c-0.8,0.4-1.8,0.1-2.2-0.7l0,0C586,2092.4,586.3,2091.5,587.1,2091.1z"/>
		</g>
		<g>
			<path class="st0" d="M418,1544.5c6.3,9.5,14.9,29.9,14.9,29.9s-5.9,4.9-14.9,4.5"/>
			<path class="st1" d="M431.5,1576l-15.7-31.7c-0.4-0.8-0.1-1.8,0.7-2.2l0,0c0.8-0.4,1.8-0.1,2.2,0.7l15.7,31.7
				c0.4,0.8,0.1,1.8-0.7,2.2l0,0C432.8,1577.1,431.9,1576.8,431.5,1576z"/>
		</g>
		<g>
			<path class="st0" d="M418,1385.3c6.3,9.5,14.9,29.9,14.9,29.9s-5.9,4.9-14.9,4.5"/>
			<path class="st1" d="M431.5,1416.7l-15.7-31.7c-0.4-0.8-0.1-1.8,0.7-2.2l0,0c0.8-0.4,1.8-0.1,2.2,0.7l15.7,31.7
				c0.4,0.8,0.1,1.8-0.7,2.2l0,0C432.8,1417.9,431.9,1417.5,431.5,1416.7z"/>
		</g>
		<g>
			<path class="st0" d="M418,1126.1c6.3,9.5,14.9,29.9,14.9,29.9s-5.9,4.9-14.9,4.5"/>
			<path class="st1" d="M431.5,1157.6l-15.7-31.7c-0.4-0.8-0.1-1.8,0.7-2.2l0,0c0.8-0.4,1.8-0.1,2.2,0.7l15.7,31.7
				c0.4,0.8,0.1,1.8-0.7,2.2l0,0C432.8,1158.8,431.9,1158.4,431.5,1157.6z"/>
		</g>
		<g>
			<path class="st0" d="M418,1051.5c6.3,9.5,14.9,29.9,14.9,29.9s-5.9,4.9-14.9,4.5"/>
			<path class="st1" d="M431.5,1083l-15.7-31.7c-0.4-0.8-0.1-1.8,0.7-2.2l0,0c0.8-0.4,1.8-0.1,2.2,0.7l15.7,31.7
				c0.4,0.8,0.1,1.8-0.7,2.2l0,0C432.8,1084.1,431.9,1083.8,431.5,1083z"/>
		</g>
		<g>
			<path class="st0" d="M418,883.3c6.3,9.5,14.9,29.9,14.9,29.9s-5.9,4.9-14.9,4.5"/>
			<path class="st1" d="M431.5,914.8l-15.7-31.7c-0.4-0.8-0.1-1.8,0.7-2.2l0,0c0.8-0.4,1.8-0.1,2.2,0.7l15.7,31.7
				c0.4,0.8,0.1,1.8-0.7,2.2l0,0C432.8,916,431.9,915.6,431.5,914.8z"/>
		</g>
		<g>
			<path class="st0" d="M418,694.8c6.3,9.5,14.9,29.9,14.9,29.9s-5.9,4.9-14.9,4.5"/>
			<path class="st1" d="M431.5,726.3l-15.7-31.7c-0.4-0.8-0.1-1.8,0.7-2.2l0,0c0.8-0.4,1.8-0.1,2.2,0.7l15.7,31.7
				c0.4,0.8,0.1,1.8-0.7,2.2l0,0C432.8,727.5,431.9,727.1,431.5,726.3z"/>
		</g>
		<g>
			<path class="st0" d="M486.7,635.7c-6.3,9.5-14.9,29.9-14.9,29.9s5.9,4.9,14.9,4.5"/>
			<path class="st1" d="M473.2,667.2l15.7-31.7c0.4-0.8,0.1-1.8-0.7-2.2l0,0c-0.8-0.4-1.8-0.1-2.2,0.7l-15.7,31.7
				c-0.4,0.8-0.1,1.8,0.7,2.2l0,0C471.8,668.4,472.8,668,473.2,667.2z"/>
		</g>
		<g>
			<path class="st0" d="M486.7,889.1c-6.3,9.5-14.9,29.9-14.9,29.9s5.9,4.9,14.9,4.5"/>
			<path class="st1" d="M473.2,920.6l15.7-31.7c0.4-0.8,0.1-1.8-0.7-2.2l0,0c-0.8-0.4-1.8-0.1-2.2,0.7l-15.7,31.7
				c-0.4,0.8-0.1,1.8,0.7,2.2l0,0C471.8,921.7,472.8,921.4,473.2,920.6z"/>
		</g>
		<g>
			<path class="st0" d="M486.7,1084.6c-6.3-9.5-14.9-29.9-14.9-29.9s5.9-4.9,14.9-4.5"/>
			<path class="st1" d="M473.2,1053.1l15.7,31.7c0.4,0.8,0.1,1.8-0.7,2.2l0,0c-0.8,0.4-1.8,0.1-2.2-0.7l-15.7-31.7
				c-0.4-0.8-0.1-1.8,0.7-2.2l0,0C471.8,1052,472.8,1052.3,473.2,1053.1z"/>
		</g>
		<g>
			<path class="st0" d="M486.7,1263.6c-6.3-9.5-14.9-29.9-14.9-29.9s5.9-4.9,14.9-4.5"/>
			<path class="st1" d="M473.2,1232.1l15.7,31.7c0.4,0.8,0.1,1.8-0.7,2.2l0,0c-0.8,0.4-1.8,0.1-2.2-0.7l-15.7-31.7
				c-0.4-0.8-0.1-1.8,0.7-2.2l0,0C471.8,1231,472.8,1231.3,473.2,1232.1z"/>
		</g>
		<g>
			<path class="st0" d="M486.7,1495.4c-6.3-9.5-14.9-29.9-14.9-29.9s5.9-4.9,14.9-4.5"/>
			<path class="st1" d="M473.2,1463.9l15.7,31.7c0.4,0.8,0.1,1.8-0.7,2.2l0,0c-0.8,0.4-1.8,0.1-2.2-0.7l-15.7-31.7
				c-0.4-0.8-0.1-1.8,0.7-2.2l0,0C471.8,1462.8,472.8,1463.1,473.2,1463.9z"/>
		</g>
		<g>
			<path class="st0" d="M486.7,1737.8c-6.3-9.5-14.9-29.9-14.9-29.9s5.9-4.9,14.9-4.5"/>
			<path class="st1" d="M473.2,1706.3l15.7,31.7c0.4,0.8,0.1,1.8-0.7,2.2l0,0c-0.8,0.4-1.8,0.1-2.2-0.7l-15.7-31.7
				c-0.4-0.8-0.1-1.8,0.7-2.2l0,0C471.8,1705.2,472.8,1705.5,473.2,1706.3z"/>
		</g>
		<g>
			<path class="st0" d="M2105,2153.8c-6.3-9.5-14.9-29.9-14.9-29.9s5.9-4.9,14.9-4.5"/>
			<path class="st1" d="M2091.6,2122.3l15.7,31.7c0.4,0.8,0.1,1.8-0.7,2.2l0,0c-0.8,0.4-1.8,0.1-2.2-0.7l-15.7-31.7
				c-0.4-0.8-0.1-1.8,0.7-2.2l0,0C2090.2,2121.2,2091.2,2121.5,2091.6,2122.3z"/>
		</g>
		<g>
			<path class="st0" d="M418,649.1c6.3-9.5,14.9-29.9,14.9-29.9s-5.9-4.9-14.9-4.5"/>
			<path class="st1" d="M431.5,617.6l-15.7,31.7c-0.4,0.8-0.1,1.8,0.7,2.2l0,0c0.8,0.4,1.8,0.1,2.2-0.7l15.7-31.7
				c0.4-0.8,0.1-1.8-0.7-2.2l0,0C432.8,616.5,431.9,616.8,431.5,617.6z"/>
		</g>
	</g>
	<g id="marks">
		<circle class="st2" cx="1735.9" cy="1977.3" r="10.4"/>
		<path class="st2" d="M1732.4,1993.1l-13.7,23.7c-1.5,2.6,0.4,6,3.4,6h27.3c3.1,0,5-3.3,3.4-6l-13.7-23.7
			C1737.8,1990.5,1734,1990.5,1732.4,1993.1z"/>
		<circle class="st2" cx="1622.8" cy="1977.3" r="10.4"/>
		<path class="st2" d="M1626.2,2028.8l13.8-23.9c1.5-2.6-0.4-5.9-3.4-5.9H1609c-3,0-4.9,3.3-3.4,5.9l13.8,23.9
			C1620.9,2031.4,1624.7,2031.4,1626.2,2028.8z"/>
	</g>
	<g id="rooms">
		<g>
			<path d="M313.9,637.8v2.2h-16.7v-1.7l9.9-9.7c1.2-1.2,2.1-2.3,2.5-3.2s0.7-1.8,0.7-2.7c0-1.4-0.5-2.5-1.4-3.3
				c-1-0.8-2.3-1.2-4.1-1.2c-2.8,0-5,0.9-6.5,2.7l-1.7-1.5c0.9-1.1,2.1-1.9,3.6-2.5c1.4-0.6,3.1-0.9,4.9-0.9c2.4,0,4.3,0.6,5.8,1.7
				c1.4,1.1,2.1,2.7,2.1,4.7c0,1.2-0.3,2.4-0.8,3.5s-1.6,2.4-3.1,3.9l-8.1,8H313.9z"/>
			<path d="M323.5,616.2V640h-2.4v-21.6h-5.6v-2.2H323.5L323.5,616.2z"/>
			<path d="M346,616.2v1.7L336,640h-2.7l9.8-21.6h-12.2v4.5h-2.4v-6.6L346,616.2L346,616.2z"/>
			<path d="M364,633.6h-13.3l-2.9,6.4h-2.6l10.9-23.8h2.5l10.9,23.8h-2.7L364,633.6z M363.1,631.6l-5.7-12.8l-5.7,12.8H363.1z"/>
		</g>
		<g>
			<path d="M327.9,751.2v2.2h-16.7v-1.7l9.9-9.7c1.2-1.2,2.1-2.3,2.5-3.2s0.7-1.8,0.7-2.7c0-1.4-0.5-2.5-1.4-3.3
				c-1-0.8-2.3-1.2-4.1-1.2c-2.8,0-5,0.9-6.5,2.7l-1.7-1.5c0.9-1.1,2.1-1.9,3.6-2.5c1.4-0.6,3.1-0.9,4.9-0.9c2.4,0,4.3,0.6,5.8,1.7
				c1.4,1.1,2.1,2.7,2.1,4.7c0,1.2-0.3,2.4-0.8,3.5s-1.6,2.4-3.1,3.9l-8.1,8H327.9z"/>
			<path d="M337.6,729.6v23.8h-2.4v-21.6h-5.6v-2.2H337.6L337.6,729.6z"/>
			<path d="M360,729.6v1.7l-10,22.1h-2.7l9.8-21.6H345v4.5h-2.4v-6.6L360,729.6L360,729.6z"/>
		</g>
		<g>
			<path d="M568.7,637.8v2.2H552v-1.7l9.9-9.7c1.2-1.2,2.1-2.3,2.5-3.2s0.7-1.8,0.7-2.7c0-1.4-0.5-2.5-1.4-3.3
				c-1-0.8-2.3-1.2-4.1-1.2c-2.8,0-5,0.9-6.5,2.7l-1.7-1.5c0.9-1.1,2.1-1.9,3.6-2.5c1.4-0.6,3.1-0.9,4.9-0.9c2.4,0,4.3,0.6,5.8,1.7
				c1.4,1.1,2.1,2.7,2.1,4.7c0,1.2-0.3,2.4-0.8,3.5s-1.6,2.4-3.1,3.9l-8.1,8H568.7z"/>
			<path d="M578.4,616.2V640H576v-21.6h-5.6v-2.2H578.4L578.4,616.2z"/>
			<path d="M598.1,626.6c1.2,0.6,2.2,1.4,2.8,2.5c0.7,1.1,1,2.3,1,3.8s-0.4,2.7-1.1,3.8c-0.7,1.1-1.7,2-2.9,2.6s-2.6,0.9-4.2,0.9
				c-3.2,0-5.6-1-7.2-3.1c-1.7-2.1-2.5-5-2.5-8.8c0-2.7,0.5-4.9,1.4-6.7s2.2-3.2,3.8-4.2s3.5-1.4,5.7-1.4c2.4,0,4.2,0.4,5.6,1.3
				l-1,2c-1.1-0.7-2.7-1.1-4.6-1.1c-2.6,0-4.7,0.8-6.2,2.5s-2.2,4.1-2.2,7.3c0,0.6,0,1.2,0.1,1.9c0.6-1.3,1.5-2.3,2.8-3
				s2.8-1.1,4.5-1.1C595.5,625.7,596.9,626,598.1,626.6z M597.9,636.7c1.1-0.9,1.6-2.2,1.6-3.8s-0.5-2.8-1.6-3.7s-2.5-1.4-4.4-1.4
				c-1.2,0-2.3,0.2-3.2,0.7s-1.6,1.1-2.2,1.9c-0.5,0.8-0.8,1.7-0.8,2.7c0,0.9,0.2,1.7,0.7,2.5s1.2,1.4,2.2,1.9s2.1,0.7,3.4,0.7
				C595.5,638.1,596.9,637.6,597.9,636.7z"/>
		</g>
		<g>
			<path d="M327.9,893v2.2h-16.7v-1.7l9.9-9.7c1.2-1.2,2.1-2.3,2.5-3.2s0.7-1.8,0.7-2.7c0-1.4-0.5-2.5-1.4-3.3
				c-1-0.8-2.3-1.2-4.1-1.2c-2.8,0-5,0.9-6.5,2.7l-1.7-1.5c0.9-1.1,2.1-1.9,3.6-2.5c1.4-0.6,3.1-0.9,4.9-0.9c2.4,0,4.3,0.6,5.8,1.7
				c1.4,1.1,2.1,2.7,2.1,4.7c0,1.2-0.3,2.4-0.8,3.5s-1.6,2.4-3.1,3.9l-8.1,8H327.9z"/>
			<path d="M337.6,871.4v23.8h-2.4v-21.6h-5.6v-2.2H337.6z"/>
			<path d="M360.3,885c0.8,1,1.2,2.2,1.2,3.6c0,1.4-0.4,2.6-1.1,3.6s-1.8,1.8-3.2,2.4c-1.4,0.6-3,0.8-4.9,0.8
				c-2.9,0-5.1-0.6-6.7-1.8s-2.4-2.9-2.4-5c0-1.4,0.4-2.6,1.2-3.6c0.8-1,1.9-1.7,3.4-2.2c-1.2-0.5-2.2-1.2-2.8-2.1
				c-0.6-0.9-1-2-1-3.2c0-1.9,0.8-3.5,2.3-4.6s3.5-1.7,6.1-1.7c1.7,0,3.1,0.3,4.4,0.8s2.2,1.2,2.9,2.2c0.7,1,1.1,2.1,1.1,3.3
				s-0.3,2.3-1,3.2s-1.6,1.6-2.8,2.1C358.4,883.2,359.5,884,360.3,885z M357.2,892c1.2-0.9,1.8-2,1.8-3.5s-0.6-2.6-1.8-3.5
				c-1.2-0.9-2.8-1.3-4.9-1.3s-3.7,0.4-4.9,1.3s-1.8,2-1.8,3.5s0.6,2.7,1.8,3.5s2.8,1.3,4.9,1.3S356,892.9,357.2,892z M348,880.7
				c1,0.8,2.5,1.2,4.3,1.2s3.3-0.4,4.3-1.2c1.1-0.8,1.6-1.8,1.6-3.1s-0.5-2.4-1.6-3.2s-2.5-1.2-4.3-1.2s-3.2,0.4-4.3,1.2
				c-1.1,0.8-1.6,1.8-1.6,3.1C346.4,878.9,346.9,879.9,348,880.7z"/>
		</g>
		<g>
			<path d="M566.1,921.1v2.2h-16.7v-1.7l9.9-9.7c1.2-1.2,2.1-2.3,2.5-3.2s0.7-1.8,0.7-2.7c0-1.4-0.5-2.5-1.4-3.3
				c-1-0.8-2.3-1.2-4.1-1.2c-2.8,0-5,0.9-6.5,2.7l-1.7-1.5c0.9-1.1,2.1-1.9,3.6-2.5c1.4-0.6,3.1-0.9,4.9-0.9c2.4,0,4.3,0.6,5.8,1.7
				c1.4,1.1,2.1,2.7,2.1,4.7c0,1.2-0.3,2.4-0.8,3.5s-1.6,2.4-3.1,3.9l-8.1,8H566.1z"/>
			<path d="M575.8,899.5v23.8h-2.4v-21.6h-5.6v-2.2H575.8z"/>
			<path d="M595.2,911.1c1.6,1.2,2.4,3,2.4,5.2c0,1.4-0.3,2.6-1,3.7c-0.6,1.1-1.6,1.9-2.9,2.6c-1.3,0.6-2.9,0.9-4.8,0.9
				c-1.7,0-3.3-0.3-4.8-0.8c-1.5-0.6-2.8-1.3-3.7-2.2l1.2-1.9c0.8,0.8,1.8,1.5,3.1,2s2.7,0.8,4.2,0.8c2,0,3.5-0.4,4.6-1.3
				c1.1-0.9,1.6-2.1,1.6-3.5c0-1.6-0.6-2.9-1.8-3.7s-3.3-1.3-6.1-1.3h-5.1l1.2-11.9h13v2.2h-10.9l-0.8,7.6h3.1
				C591.1,909.2,593.7,909.9,595.2,911.1z"/>
		</g>
		<g>
			<path d="M328.5,1038.5v2.2h-16.7v-1.7l9.9-9.7c1.2-1.2,2.1-2.3,2.5-3.2s0.7-1.8,0.7-2.7c0-1.4-0.5-2.5-1.4-3.3
				c-1-0.8-2.3-1.2-4.1-1.2c-2.8,0-5,0.9-6.5,2.7l-1.7-1.5c0.9-1.1,2.1-1.9,3.6-2.5c1.4-0.6,3.1-0.9,4.9-0.9c2.4,0,4.3,0.6,5.8,1.7
				c1.4,1.1,2.1,2.7,2.1,4.7c0,1.2-0.3,2.4-0.8,3.5s-1.6,2.4-3.1,3.9l-8.1,8L328.5,1038.5L328.5,1038.5z"/>
			<path d="M338.2,1016.8v23.8h-2.4V1019h-5.6v-2.2H338.2z"/>
			<path d="M358.5,1019.7c1.7,2.1,2.5,5,2.5,8.8c0,2.7-0.5,4.9-1.4,6.7c-0.9,1.8-2.2,3.2-3.8,4.2c-1.6,0.9-3.5,1.4-5.7,1.4
				c-2.4,0-4.2-0.4-5.6-1.3l1-2c1.1,0.7,2.7,1.1,4.6,1.1c2.6,0,4.7-0.8,6.2-2.5s2.2-4.1,2.2-7.3c0-0.6,0-1.2-0.1-1.9
				c-0.6,1.3-1.5,2.3-2.8,3s-2.8,1.1-4.5,1.1c-1.6,0-3-0.3-4.2-0.9s-2.2-1.4-2.8-2.5c-0.7-1.1-1-2.3-1-3.8c0-1.5,0.4-2.7,1.1-3.8
				s1.7-2,2.9-2.6c1.2-0.6,2.6-0.9,4.2-0.9C354.4,1016.6,356.8,1017.7,358.5,1019.7z M354.7,1028.3c0.9-0.5,1.6-1.1,2.2-1.9
				c0.5-0.8,0.8-1.7,0.8-2.7c0-0.9-0.2-1.7-0.7-2.5s-1.2-1.4-2.2-1.9s-2.1-0.7-3.4-0.7c-1.7,0-3.1,0.5-4.2,1.4s-1.6,2.2-1.6,3.8
				c0,1.6,0.5,2.8,1.6,3.7s2.5,1.4,4.4,1.4C352.7,1029,353.8,1028.8,354.7,1028.3z"/>
		</g>
		<g>
			<path d="M566.1,1038.5v2.2h-16.7v-1.7l9.9-9.7c1.2-1.2,2.1-2.3,2.5-3.2s0.7-1.8,0.7-2.7c0-1.4-0.5-2.5-1.4-3.3
				c-1-0.8-2.3-1.2-4.1-1.2c-2.8,0-5,0.9-6.5,2.7l-1.7-1.5c0.9-1.1,2.1-1.9,3.6-2.5c1.4-0.6,3.1-0.9,4.9-0.9c2.4,0,4.3,0.6,5.8,1.7
				c1.4,1.1,2.1,2.7,2.1,4.7c0,1.2-0.3,2.4-0.8,3.5s-1.6,2.4-3.1,3.9l-8.1,8L566.1,1038.5L566.1,1038.5z"/>
			<path d="M575.8,1016.8v23.8h-2.4V1019h-5.6v-2.2H575.8z"/>
			<path d="M601.7,1034.4h-4.8v6.3h-2.4v-6.3H581v-1.8l12.6-15.8h2.7l-12.2,15.4h10.3v-5.5h2.4v5.5h4.8v2.2L601.7,1034.4
				L601.7,1034.4z"/>
		</g>
		<g>
			<path d="M566.7,1407.5v2.2H550v-1.7l9.9-9.7c1.2-1.2,2.1-2.3,2.5-3.2c0.4-0.9,0.7-1.8,0.7-2.7c0-1.4-0.5-2.5-1.4-3.3
				c-1-0.8-2.3-1.2-4.1-1.2c-2.8,0-5,0.9-6.5,2.7l-1.7-1.5c0.9-1.1,2.1-1.9,3.6-2.5c1.4-0.6,3.1-0.9,4.9-0.9c2.4,0,4.3,0.6,5.8,1.7
				c1.4,1.1,2.1,2.7,2.1,4.7c0,1.2-0.3,2.4-0.8,3.5s-1.6,2.4-3.1,3.9l-8.1,8H566.7z"/>
			<path d="M576.4,1385.9v23.8H574v-21.6h-5.6v-2.2L576.4,1385.9L576.4,1385.9z"/>
			<path d="M595.8,1398.1c1.3,1.2,2,2.8,2,4.7c0,1.4-0.3,2.6-1,3.6c-0.7,1.1-1.6,1.9-2.9,2.5c-1.3,0.6-2.9,0.9-4.7,0.9
				c-1.7,0-3.3-0.3-4.9-0.8c-1.5-0.6-2.8-1.3-3.7-2.2l1.2-1.9c0.8,0.8,1.8,1.5,3.2,2c1.3,0.5,2.7,0.8,4.2,0.8c1.9,0,3.5-0.4,4.5-1.3
				c1.1-0.9,1.6-2,1.6-3.5s-0.5-2.6-1.6-3.5c-1.1-0.8-2.7-1.3-4.8-1.3h-1.7v-1.8l6.6-8.3h-12.2v-2.2h15.3v1.7l-6.7,8.5
				C592.6,1396.2,594.5,1396.9,595.8,1398.1z"/>
		</g>
		<g>
			<path d="M329.1,1328.8v2.2h-16.7v-1.7l9.9-9.7c1.2-1.2,2.1-2.3,2.5-3.2s0.7-1.8,0.7-2.7c0-1.4-0.5-2.5-1.4-3.3
				c-1-0.8-2.3-1.2-4.1-1.2c-2.8,0-5,0.9-6.5,2.7l-1.7-1.5c0.9-1.1,2.1-1.9,3.6-2.5c1.4-0.6,3.1-0.9,4.9-0.9c2.4,0,4.3,0.6,5.8,1.7
				c1.4,1.1,2.1,2.7,2.1,4.7c0,1.2-0.3,2.4-0.8,3.5s-1.6,2.4-3.1,3.9l-8.1,8H329.1z"/>
			<path d="M348.4,1328.8v2.2h-16.7v-1.7l9.9-9.7c1.2-1.2,2.1-2.3,2.5-3.2s0.7-1.8,0.7-2.7c0-1.4-0.5-2.5-1.4-3.3
				c-1-0.8-2.3-1.2-4.1-1.2c-2.8,0-5,0.9-6.5,2.7l-1.7-1.5c0.9-1.1,2.1-1.9,3.6-2.5c1.4-0.6,3.1-0.9,4.9-0.9c2.4,0,4.3,0.6,5.8,1.7
				c1.4,1.1,2.1,2.7,2.1,4.7c0,1.2-0.3,2.4-0.8,3.5s-1.6,2.4-3.1,3.9l-8.1,8H348.4z"/>
			<path d="M355.9,1329.7c-1.4-1-2.6-2.4-3.4-4.2c-0.8-1.8-1.2-4-1.2-6.4c0-2.5,0.4-4.6,1.2-6.4c0.8-1.8,1.9-3.2,3.4-4.2
				c1.4-1,3.1-1.5,4.9-1.5s3.5,0.5,4.9,1.5s2.6,2.4,3.4,4.2c0.8,1.8,1.2,4,1.2,6.4c0,2.5-0.4,4.6-1.2,6.4c-0.8,1.8-1.9,3.2-3.4,4.2
				c-1.4,1-3.1,1.5-4.9,1.5S357.4,1330.7,355.9,1329.7z M364.5,1327.8c1.1-0.8,1.9-1.9,2.5-3.4s0.9-3.3,0.9-5.3s-0.3-3.9-0.9-5.3
				c-0.6-1.5-1.4-2.6-2.5-3.4s-2.3-1.2-3.7-1.2c-1.4,0-2.6,0.4-3.7,1.2c-1.1,0.8-1.9,1.9-2.5,3.4s-0.9,3.3-0.9,5.3s0.3,3.9,0.9,5.3
				c0.6,1.5,1.4,2.6,2.5,3.4s2.3,1.2,3.7,1.2S363.4,1328.6,364.5,1327.8z"/>
		</g>
		<g>
			<path d="M329.7,1569.7v2.2H313v-1.7l9.9-9.7c1.2-1.2,2.1-2.3,2.5-3.2s0.7-1.8,0.7-2.7c0-1.4-0.5-2.5-1.4-3.3
				c-1-0.8-2.3-1.2-4.1-1.2c-2.8,0-5,0.9-6.5,2.7l-1.7-1.5c0.9-1.1,2.1-1.9,3.6-2.5c1.4-0.6,3.1-0.9,4.9-0.9c2.4,0,4.3,0.6,5.8,1.7
				c1.4,1.1,2.1,2.7,2.1,4.7c0,1.2-0.3,2.4-0.8,3.5s-1.6,2.4-3.1,3.9l-8.1,8H329.7z"/>
			<path d="M349,1569.7v2.2h-16.7v-1.7l9.9-9.7c1.2-1.2,2.1-2.3,2.5-3.2s0.7-1.8,0.7-2.7c0-1.4-0.5-2.5-1.4-3.3
				c-1-0.8-2.3-1.2-4.1-1.2c-2.8,0-5,0.9-6.5,2.7l-1.7-1.5c0.9-1.1,2.1-1.9,3.6-2.5c1.4-0.6,3.1-0.9,4.9-0.9c2.4,0,4.3,0.6,5.8,1.7
				c1.4,1.1,2.1,2.7,2.1,4.7c0,1.2-0.3,2.4-0.8,3.5s-1.6,2.4-3.1,3.9l-8.1,8H349z"/>
			<path d="M358.7,1548.1v23.8h-2.4v-21.6h-5.6v-2.2L358.7,1548.1L358.7,1548.1z"/>
		</g>
		<g>
			<path d="M566.7,1644.7v2.2H550v-1.7l9.9-9.7c1.2-1.2,2.1-2.3,2.5-3.2s0.7-1.8,0.7-2.7c0-1.4-0.5-2.5-1.4-3.3
				c-1-0.8-2.3-1.2-4.1-1.2c-2.8,0-5,0.9-6.5,2.7l-1.7-1.5c0.9-1.1,2.1-1.9,3.6-2.5c1.4-0.6,3.1-0.9,4.9-0.9c2.4,0,4.3,0.6,5.8,1.7
				c1.4,1.1,2.1,2.7,2.1,4.7c0,1.2-0.3,2.4-0.8,3.5s-1.6,2.4-3.1,3.9l-8.1,8H566.7z"/>
			<path d="M576.4,1623.1v23.8H574v-21.6h-5.6v-2.2L576.4,1623.1L576.4,1623.1z"/>
			<path d="M598.3,1644.7v2.2h-16.7v-1.7l9.9-9.7c1.2-1.2,2.1-2.3,2.5-3.2s0.7-1.8,0.7-2.7c0-1.4-0.5-2.5-1.4-3.3
				c-1-0.8-2.3-1.2-4.1-1.2c-2.8,0-5,0.9-6.5,2.7l-1.7-1.5c0.9-1.1,2.1-1.9,3.6-2.5c1.4-0.6,3.1-0.9,4.9-0.9c2.4,0,4.3,0.6,5.8,1.7
				c1.4,1.1,2.1,2.7,2.1,4.7c0,1.2-0.3,2.4-0.8,3.5s-1.6,2.4-3.1,3.9l-8.1,8H598.3z"/>
		</g>
		<g>
			<path d="M330.3,1768.4v2.2h-16.7v-1.7l9.9-9.7c1.2-1.2,2.1-2.3,2.5-3.2s0.7-1.8,0.7-2.7c0-1.4-0.5-2.5-1.4-3.3
				c-1-0.8-2.3-1.2-4.1-1.2c-2.8,0-5,0.9-6.5,2.7l-1.7-1.5c0.9-1.1,2.1-1.9,3.6-2.5c1.4-0.6,3.1-0.9,4.9-0.9c2.4,0,4.3,0.6,5.8,1.7
				c1.4,1.1,2.1,2.7,2.1,4.7c0,1.2-0.3,2.4-0.8,3.5s-1.6,2.4-3.1,3.9l-8.1,8H330.3z"/>
			<path d="M349.7,1768.4v2.2H333v-1.7l9.9-9.7c1.2-1.2,2.1-2.3,2.5-3.2s0.7-1.8,0.7-2.7c0-1.4-0.5-2.5-1.4-3.3
				c-1-0.8-2.3-1.2-4.1-1.2c-2.8,0-5,0.9-6.5,2.7l-1.7-1.5c0.9-1.1,2.1-1.9,3.6-2.5c1.4-0.6,3.1-0.9,4.9-0.9c2.4,0,4.3,0.6,5.8,1.7
				c1.4,1.1,2.1,2.7,2.1,4.7c0,1.2-0.3,2.4-0.8,3.5s-1.6,2.4-3.1,3.9l-8.1,8H349.7z"/>
			<path d="M369,1768.4v2.2h-16.7v-1.7l9.9-9.7c1.2-1.2,2.1-2.3,2.5-3.2s0.7-1.8,0.7-2.7c0-1.4-0.5-2.5-1.4-3.3
				c-1-0.8-2.3-1.2-4.1-1.2c-2.8,0-5,0.9-6.5,2.7l-1.7-1.5c0.9-1.1,2.1-1.9,3.6-2.5c1.4-0.6,3.1-0.9,4.9-0.9c2.4,0,4.3,0.6,5.8,1.7
				c1.4,1.1,2.1,2.7,2.1,4.7c0,1.2-0.3,2.4-0.8,3.5s-1.6,2.4-3.1,3.9l-8.1,8H369z"/>
		</g>
		<g>
			<path d="M330.3,1992.7v2.2h-16.7v-1.7l9.9-9.7c1.2-1.2,2.1-2.3,2.5-3.2s0.7-1.8,0.7-2.7c0-1.4-0.5-2.5-1.4-3.3
				c-1-0.8-2.3-1.2-4.1-1.2c-2.8,0-5,0.9-6.5,2.7l-1.7-1.5c0.9-1.1,2.1-1.9,3.6-2.5c1.4-0.6,3.1-0.9,4.9-0.9c2.4,0,4.3,0.6,5.8,1.7
				c1.4,1.1,2.1,2.7,2.1,4.7c0,1.2-0.3,2.4-0.8,3.5s-1.6,2.4-3.1,3.9l-8.1,8H330.3z"/>
			<path d="M349.7,1992.7v2.2H333v-1.7l9.9-9.7c1.2-1.2,2.1-2.3,2.5-3.2s0.7-1.8,0.7-2.7c0-1.4-0.5-2.5-1.4-3.3
				c-1-0.8-2.3-1.2-4.1-1.2c-2.8,0-5,0.9-6.5,2.7l-1.7-1.5c0.9-1.1,2.1-1.9,3.6-2.5c1.4-0.6,3.1-0.9,4.9-0.9c2.4,0,4.3,0.6,5.8,1.7
				c1.4,1.1,2.1,2.7,2.1,4.7c0,1.2-0.3,2.4-0.8,3.5s-1.6,2.4-3.1,3.9l-8.1,8H349.7z"/>
			<path d="M366.5,1983.3c1.3,1.2,2,2.8,2,4.7c0,1.4-0.3,2.6-1,3.6c-0.7,1.1-1.6,1.9-2.9,2.5s-2.9,0.9-4.7,0.9
				c-1.7,0-3.3-0.3-4.9-0.8c-1.5-0.6-2.8-1.3-3.7-2.2l1.2-1.9c0.8,0.8,1.8,1.5,3.2,2c1.3,0.5,2.7,0.8,4.2,0.8c1.9,0,3.5-0.4,4.5-1.3
				c1.1-0.8,1.6-2,1.6-3.5s-0.5-2.6-1.6-3.5c-1.1-0.8-2.7-1.3-4.8-1.3h-1.7v-1.8l6.6-8.3h-12.2v-2.2h15.3v1.7l-6.7,8.5
				C363.3,1981.4,365.2,1982.1,366.5,1983.3z"/>
		</g>
		<g>
			<path d="M360.7,2253.3v2.2H344v-1.7l9.9-9.7c1.2-1.2,2.1-2.3,2.5-3.2s0.7-1.8,0.7-2.7c0-1.4-0.5-2.5-1.4-3.3
				c-1-0.8-2.3-1.2-4.1-1.2c-2.8,0-5,0.9-6.5,2.7l-1.7-1.5c0.9-1.1,2.1-1.9,3.6-2.5c1.4-0.6,3.1-0.9,4.9-0.9c2.4,0,4.3,0.6,5.8,1.7
				c1.4,1.1,2.1,2.7,2.1,4.7c0,1.2-0.3,2.4-0.8,3.5s-1.6,2.4-3.1,3.9l-8.1,8H360.7z"/>
			<path d="M380,2253.3v2.2h-16.7v-1.7l9.9-9.7c1.2-1.2,2.1-2.3,2.5-3.2s0.7-1.8,0.7-2.7c0-1.4-0.5-2.5-1.4-3.3
				c-1-0.8-2.3-1.2-4.1-1.2c-2.8,0-5,0.9-6.5,2.7l-1.7-1.5c0.9-1.1,2.1-1.9,3.6-2.5c1.4-0.6,3.1-0.9,4.9-0.9c2.4,0,4.3,0.6,5.8,1.7
				c1.4,1.1,2.1,2.7,2.1,4.7c0,1.2-0.3,2.4-0.8,3.5s-1.6,2.4-3.1,3.9l-8.1,8H380z"/>
			<path d="M402.5,2249.2h-4.8v6.3h-2.4v-6.3h-13.4v-1.8l12.6-15.8h2.7L385,2247h10.3v-5.5h2.4v5.5h4.8L402.5,2249.2L402.5,2249.2z"
				/>
		</g>
		<g>
			<path d="M566.1,2253.3v2.2h-16.7v-1.7l9.9-9.7c1.2-1.2,2.1-2.3,2.5-3.2s0.7-1.8,0.7-2.7c0-1.4-0.5-2.5-1.4-3.3
				c-1-0.8-2.3-1.2-4.1-1.2c-2.8,0-5,0.9-6.5,2.7l-1.7-1.5c0.9-1.1,2.1-1.9,3.6-2.5c1.4-0.6,3.1-0.9,4.9-0.9c2.4,0,4.3,0.6,5.8,1.7
				c1.4,1.1,2.1,2.7,2.1,4.7c0,1.2-0.3,2.4-0.8,3.5s-1.6,2.4-3.1,3.9l-8.1,8H566.1z"/>
			<path d="M585.4,2253.3v2.2h-16.7v-1.7l9.9-9.7c1.2-1.2,2.1-2.3,2.5-3.2s0.7-1.8,0.7-2.7c0-1.4-0.5-2.5-1.4-3.3
				c-1-0.8-2.3-1.2-4.1-1.2c-2.8,0-5,0.9-6.5,2.7l-1.7-1.5c0.9-1.1,2.1-1.9,3.6-2.5c1.4-0.6,3.1-0.9,4.9-0.9c2.4,0,4.3,0.6,5.8,1.7
				c1.4,1.1,2.1,2.7,2.1,4.7c0,1.2-0.3,2.4-0.8,3.5s-1.6,2.4-3.1,3.9l-8.1,8H585.4z"/>
			<path d="M602.3,2243.3c1.6,1.2,2.4,3,2.4,5.2c0,1.4-0.3,2.6-1,3.7c-0.7,1.1-1.6,1.9-2.9,2.6c-1.3,0.6-2.9,0.9-4.8,0.9
				c-1.7,0-3.3-0.3-4.8-0.8s-2.8-1.3-3.7-2.2l1.2-1.9c0.8,0.8,1.8,1.5,3.1,2s2.7,0.8,4.2,0.8c2,0,3.5-0.4,4.6-1.3
				c1.1-0.9,1.6-2.1,1.6-3.5c0-1.6-0.6-2.9-1.8-3.7s-3.3-1.3-6.1-1.3h-5.1l1.2-11.9h13v2.2h-10.9l-0.8,7.6h3.1
				C598.2,2241.4,600.7,2242.1,602.3,2243.3z"/>
		</g>
		<g>
			<path d="M769.7,2253.3v2.2H753v-1.7l9.9-9.7c1.2-1.2,2.1-2.3,2.5-3.2s0.7-1.8,0.7-2.7c0-1.4-0.5-2.5-1.4-3.3
				c-1-0.8-2.3-1.2-4.1-1.2c-2.8,0-5,0.9-6.5,2.7l-1.7-1.5c0.9-1.1,2.1-1.9,3.6-2.5c1.4-0.6,3.1-0.9,4.9-0.9c2.4,0,4.3,0.6,5.8,1.7
				c1.4,1.1,2.1,2.7,2.1,4.7c0,1.2-0.3,2.4-0.8,3.5s-1.6,2.4-3.1,3.9l-8.1,8H769.7z"/>
			<path d="M789,2253.3v2.2h-16.7v-1.7l9.9-9.7c1.2-1.2,2.1-2.3,2.5-3.2s0.7-1.8,0.7-2.7c0-1.4-0.5-2.5-1.4-3.3
				c-1-0.8-2.3-1.2-4.1-1.2c-2.8,0-5,0.9-6.5,2.7l-1.7-1.5c0.9-1.1,2.1-1.9,3.6-2.5c1.4-0.6,3.1-0.9,4.9-0.9c2.4,0,4.3,0.6,5.8,1.7
				c1.4,1.1,2.1,2.7,2.1,4.7c0,1.2-0.3,2.4-0.8,3.5s-1.6,2.4-3.1,3.9l-8.1,8H789z"/>
			<path d="M805.9,2242.1c1.2,0.6,2.2,1.4,2.8,2.5c0.7,1.1,1,2.3,1,3.8s-0.4,2.7-1.1,3.8c-0.7,1.1-1.7,2-2.9,2.6s-2.6,0.9-4.2,0.9
				c-3.2,0-5.6-1-7.2-3.1c-1.7-2.1-2.5-5-2.5-8.8c0-2.7,0.5-4.9,1.4-6.7s2.2-3.2,3.8-4.2s3.5-1.4,5.7-1.4c2.4,0,4.2,0.4,5.6,1.3
				l-1,2c-1.1-0.7-2.7-1.1-4.6-1.1c-2.6,0-4.7,0.8-6.2,2.5s-2.2,4.1-2.2,7.3c0,0.6,0,1.2,0.1,1.9c0.6-1.3,1.5-2.3,2.8-3
				s2.8-1.1,4.5-1.1C803.3,2241.2,804.7,2241.5,805.9,2242.1z M805.8,2252.2c1.1-0.9,1.6-2.2,1.6-3.8s-0.5-2.8-1.6-3.7
				s-2.5-1.4-4.4-1.4c-1.2,0-2.3,0.2-3.2,0.7s-1.6,1.1-2.2,1.9c-0.5,0.8-0.8,1.7-0.8,2.7c0,0.9,0.2,1.7,0.7,2.5s1.2,1.4,2.2,1.9
				s2.1,0.7,3.4,0.7C803.3,2253.6,804.7,2253.1,805.8,2252.2z"/>
		</g>
		<g>
			<path d="M957.2,2253.3v2.2h-16.7v-1.7l9.9-9.7c1.2-1.2,2.1-2.3,2.5-3.2s0.7-1.8,0.7-2.7c0-1.4-0.5-2.5-1.4-3.3
				c-1-0.8-2.3-1.2-4.1-1.2c-2.8,0-5,0.9-6.5,2.7l-1.7-1.5c0.9-1.1,2.1-1.9,3.6-2.5c1.4-0.6,3.1-0.9,4.9-0.9c2.4,0,4.3,0.6,5.8,1.7
				c1.4,1.1,2.1,2.7,2.1,4.7c0,1.2-0.3,2.4-0.8,3.5s-1.6,2.4-3.1,3.9l-8.1,8H957.2z"/>
			<path d="M976.6,2253.3v2.2h-16.7v-1.7l9.9-9.7c1.2-1.2,2.1-2.3,2.5-3.2s0.7-1.8,0.7-2.7c0-1.4-0.5-2.5-1.4-3.3
				c-1-0.8-2.3-1.2-4.1-1.2c-2.8,0-5,0.9-6.5,2.7l-1.7-1.5c0.9-1.1,2.1-1.9,3.6-2.5c1.4-0.6,3.1-0.9,4.9-0.9c2.4,0,4.3,0.6,5.8,1.7
				c1.4,1.1,2.1,2.7,2.1,4.7c0,1.2-0.3,2.4-0.8,3.5s-1.6,2.4-3.1,3.9l-8.1,8H976.6z"/>
			<path d="M996.3,2231.7v1.7l-10,22.1h-2.7l9.8-21.6h-12.2v4.5h-2.4v-6.6L996.3,2231.7L996.3,2231.7z"/>
		</g>
		<g>
			<path d="M1076.3,2258.1h2.2v16.7h-1.7l-9.7-9.9c-1.2-1.2-2.3-2.1-3.2-2.5c-0.9-0.4-1.8-0.7-2.7-0.7c-1.4,0-2.5,0.5-3.3,1.4
				s-1.2,2.3-1.2,4.1c0,2.8,0.9,5,2.7,6.5l-1.5,1.7c-1.1-0.9-1.9-2.1-2.5-3.6c-0.6-1.4-0.9-3.1-0.9-4.9c0-2.4,0.6-4.3,1.7-5.8
				s2.7-2.1,4.7-2.1c1.2,0,2.4,0.3,3.5,0.8s2.4,1.6,3.9,3.1l8,8.1V2258.1z"/>
			<path d="M1076.3,2238.8h2.2v16.7h-1.7l-9.7-9.9c-1.2-1.2-2.3-2.1-3.2-2.5c-0.9-0.4-1.8-0.7-2.7-0.7c-1.4,0-2.5,0.5-3.3,1.4
				c-0.8,1-1.2,2.3-1.2,4.1c0,2.8,0.9,5,2.7,6.5l-1.5,1.7c-1.1-0.9-1.9-2.1-2.5-3.6c-0.6-1.4-0.9-3.1-0.9-4.9c0-2.4,0.6-4.3,1.7-5.8
				c1.1-1.4,2.7-2.1,4.7-2.1c1.2,0,2.4,0.3,3.5,0.8s2.4,1.6,3.9,3.1l8,8.1V2238.8z"/>
			<path d="M1068.3,2218.7c1-0.8,2.2-1.2,3.6-1.2s2.6,0.4,3.6,1.1s1.8,1.8,2.4,3.2s0.8,3,0.8,4.9c0,2.9-0.6,5.1-1.8,6.7
				c-1.2,1.6-2.9,2.4-5,2.4c-1.4,0-2.6-0.4-3.6-1.2s-1.7-1.9-2.2-3.4c-0.5,1.2-1.2,2.2-2.1,2.8s-2,1-3.2,1c-1.9,0-3.5-0.8-4.6-2.3
				s-1.7-3.5-1.7-6.1c0-1.7,0.3-3.1,0.8-4.4s1.2-2.2,2.2-2.9s2.1-1.1,3.3-1.1c1.2,0,2.3,0.3,3.2,1c0.9,0.7,1.6,1.6,2.1,2.8
				C1066.5,2220.6,1067.3,2219.5,1068.3,2218.7z M1064,2231c0.8-1,1.2-2.5,1.2-4.3s-0.4-3.3-1.2-4.3s-1.8-1.6-3.1-1.6
				c-1.3,0-2.4,0.5-3.2,1.6c-0.8,1.1-1.2,2.5-1.2,4.3s0.4,3.2,1.2,4.3c0.8,1.1,1.8,1.6,3.1,1.6
				C1062.2,2232.6,1063.2,2232.1,1064,2231z M1075.3,2221.8c-0.9-1.2-2-1.8-3.5-1.8s-2.6,0.6-3.5,1.8c-0.8,1.2-1.3,2.8-1.3,4.9
				c0,2.1,0.4,3.7,1.3,4.9s2,1.8,3.5,1.8s2.7-0.6,3.5-1.8s1.3-2.8,1.3-4.9C1076.6,2224.6,1076.2,2223,1075.3,2221.8z"/>
		</g>
		<g>
			<path d="M1170.6,2253.3v2.2h-16.7v-1.7l9.9-9.7c1.2-1.2,2.1-2.3,2.5-3.2s0.7-1.8,0.7-2.7c0-1.4-0.5-2.5-1.4-3.3
				c-1-0.8-2.3-1.2-4.1-1.2c-2.8,0-5,0.9-6.5,2.7l-1.7-1.5c0.9-1.1,2.1-1.9,3.6-2.5c1.4-0.6,3.1-0.9,4.9-0.9c2.4,0,4.3,0.6,5.8,1.7
				c1.4,1.1,2.1,2.7,2.1,4.7c0,1.2-0.3,2.4-0.8,3.5s-1.6,2.4-3.1,3.9l-8.1,8H1170.6z"/>
			<path d="M1189.9,2253.3v2.2h-16.7v-1.7l9.9-9.7c1.2-1.2,2.1-2.3,2.5-3.2s0.7-1.8,0.7-2.7c0-1.4-0.5-2.5-1.4-3.3
				c-1-0.8-2.3-1.2-4.1-1.2c-2.8,0-5,0.9-6.5,2.7l-1.7-1.5c0.9-1.1,2.1-1.9,3.6-2.5c1.4-0.6,3.1-0.9,4.9-0.9c2.4,0,4.3,0.6,5.8,1.7
				c1.4,1.1,2.1,2.7,2.1,4.7c0,1.2-0.3,2.4-0.8,3.5s-1.6,2.4-3.1,3.9l-8.1,8H1189.9z"/>
			<path d="M1207.6,2234.6c1.7,2.1,2.5,5,2.5,8.8c0,2.7-0.5,4.9-1.4,6.7s-2.2,3.2-3.8,4.2s-3.5,1.4-5.7,1.4c-2.4,0-4.2-0.4-5.6-1.3
				l1-2c1.1,0.7,2.7,1.1,4.6,1.1c2.6,0,4.7-0.8,6.2-2.5s2.2-4.1,2.2-7.3c0-0.6,0-1.2-0.1-1.9c-0.6,1.3-1.5,2.3-2.8,3
				s-2.8,1.1-4.5,1.1c-1.6,0-3-0.3-4.2-0.9c-1.2-0.6-2.2-1.4-2.8-2.5c-0.7-1.1-1-2.3-1-3.8s0.4-2.7,1.1-3.8s1.7-2,2.9-2.6
				c1.2-0.6,2.6-0.9,4.2-0.9C1203.5,2231.5,1205.9,2232.5,1207.6,2234.6z M1203.8,2243.2c0.9-0.5,1.6-1.1,2.2-1.9
				c0.5-0.8,0.8-1.7,0.8-2.7c0-0.9-0.2-1.7-0.7-2.5s-1.2-1.4-2.2-1.9s-2.1-0.7-3.4-0.7c-1.7,0-3.1,0.5-4.2,1.4s-1.6,2.2-1.6,3.8
				s0.5,2.8,1.6,3.7s2.5,1.4,4.4,1.4C1201.8,2243.9,1202.9,2243.6,1203.8,2243.2z"/>
		</g>
		<g>
			<path d="M1403.1,2251.1v2.2h-16.7v-1.7l9.9-9.7c1.2-1.2,2.1-2.3,2.5-3.2s0.7-1.8,0.7-2.7c0-1.4-0.5-2.5-1.4-3.3
				c-1-0.8-2.3-1.2-4.1-1.2c-2.8,0-5,0.9-6.5,2.7l-1.7-1.5c0.9-1.1,2.1-1.9,3.6-2.5c1.4-0.6,3.1-0.9,4.9-0.9c2.4,0,4.3,0.6,5.8,1.7
				c1.4,1.1,2.1,2.7,2.1,4.7c0,1.2-0.3,2.4-0.8,3.5s-1.6,2.4-3.1,3.9l-8.1,8H1403.1z"/>
			<path d="M1420,2241.7c1.3,1.2,2,2.8,2,4.7c0,1.4-0.3,2.6-1,3.6c-0.7,1.1-1.6,1.9-2.9,2.5s-2.9,0.9-4.7,0.9
				c-1.7,0-3.3-0.3-4.9-0.8c-1.5-0.6-2.8-1.3-3.7-2.2l1.2-1.9c0.8,0.8,1.8,1.5,3.2,2c1.3,0.5,2.7,0.8,4.2,0.8c1.9,0,3.5-0.4,4.5-1.3
				c1.1-0.8,1.6-2,1.6-3.5s-0.5-2.6-1.6-3.5c-1.1-0.8-2.7-1.3-4.8-1.3h-1.7v-1.8l6.6-8.3h-12.2v-2.2h15.3v1.7l-6.7,8.5
				C1416.8,2239.8,1418.7,2240.5,1420,2241.7z"/>
			<path d="M1429.9,2252c-1.4-1-2.6-2.4-3.4-4.2s-1.2-4-1.2-6.4c0-2.5,0.4-4.6,1.2-6.4c0.8-1.8,1.9-3.2,3.4-4.2s3.1-1.5,4.9-1.5
				s3.5,0.5,4.9,1.5s2.6,2.4,3.4,4.2s1.2,4,1.2,6.4c0,2.5-0.4,4.6-1.2,6.4c-0.8,1.8-1.9,3.2-3.4,4.2c-1.4,1-3.1,1.5-4.9,1.5
				S1431.4,2253,1429.9,2252z M1438.5,2250.1c1.1-0.8,1.9-1.9,2.5-3.4s0.9-3.3,0.9-5.3c0-2.1-0.3-3.9-0.9-5.3
				c-0.6-1.5-1.4-2.6-2.5-3.4s-2.3-1.2-3.7-1.2c-1.4,0-2.6,0.4-3.7,1.2s-1.9,1.9-2.5,3.4s-0.9,3.3-0.9,5.3c0,2.1,0.3,3.9,0.9,5.3
				c0.6,1.4,1.4,2.6,2.5,3.4s2.3,1.2,3.7,1.2C1436.2,2251.2,1437.4,2250.8,1438.5,2250.1z"/>
		</g>
		<g>
			<path d="M1680.8,2251.1v2.2h-16.7v-1.7l9.9-9.7c1.2-1.2,2.1-2.3,2.5-3.2s0.7-1.8,0.7-2.7c0-1.4-0.5-2.5-1.4-3.3s-2.3-1.2-4.1-1.2
				c-2.8,0-5,0.9-6.5,2.7l-1.7-1.5c0.9-1.1,2.1-1.9,3.6-2.5c1.4-0.6,3.1-0.9,4.9-0.9c2.4,0,4.3,0.6,5.8,1.7c1.4,1.1,2.1,2.7,2.1,4.7
				c0,1.2-0.3,2.4-0.8,3.5s-1.6,2.4-3.1,3.9l-8.1,8H1680.8z"/>
			<path d="M1697.7,2241.7c1.3,1.2,2,2.8,2,4.7c0,1.4-0.3,2.6-1,3.6c-0.7,1.1-1.6,1.9-2.9,2.5s-2.9,0.9-4.7,0.9
				c-1.7,0-3.3-0.3-4.9-0.8s-2.8-1.3-3.7-2.2l1.2-1.9c0.8,0.8,1.8,1.5,3.2,2c1.3,0.5,2.7,0.8,4.2,0.8c1.9,0,3.5-0.4,4.5-1.3
				c1.1-0.8,1.6-2,1.6-3.5s-0.5-2.6-1.6-3.5c-1.1-0.8-2.7-1.3-4.8-1.3h-1.7v-1.8l6.6-8.3h-12.2v-2.2h15.3v1.7l-6.7,8.5
				C1694.5,2239.8,1696.4,2240.5,1697.7,2241.7z"/>
			<path d="M1719.2,2251.1v2.2h-16.7v-1.7l9.9-9.7c1.2-1.2,2.1-2.3,2.5-3.2s0.7-1.8,0.7-2.7c0-1.4-0.5-2.5-1.4-3.3s-2.3-1.2-4.1-1.2
				c-2.8,0-5,0.9-6.5,2.7l-1.7-1.5c0.9-1.1,2.1-1.9,3.6-2.5c1.4-0.6,3.1-0.9,4.9-0.9c2.4,0,4.3,0.6,5.8,1.7c1.4,1.1,2.1,2.7,2.1,4.7
				c0,1.2-0.3,2.4-0.8,3.5s-1.6,2.4-3.1,3.9l-8.1,8H1719.2z"/>
		</g>
		<g>
			<path d="M1861,2251.3v2.2h-16.7v-1.7l9.9-9.7c1.2-1.2,2.1-2.3,2.5-3.2s0.7-1.8,0.7-2.7c0-1.4-0.5-2.5-1.4-3.3s-2.3-1.2-4.1-1.2
				c-2.8,0-5,0.9-6.5,2.7l-1.7-1.5c0.9-1.1,2.1-1.9,3.6-2.5c1.4-0.6,3.1-0.9,4.9-0.9c2.4,0,4.3,0.6,5.8,1.7c1.4,1.1,2.1,2.7,2.1,4.7
				c0,1.2-0.3,2.4-0.8,3.5s-1.6,2.4-3.1,3.9l-8.1,8H1861z"/>
			<path d="M1877.9,2241.9c1.3,1.2,2,2.8,2,4.7c0,1.4-0.3,2.6-1,3.6c-0.7,1.1-1.6,1.9-2.9,2.5s-2.9,0.9-4.7,0.9
				c-1.7,0-3.3-0.3-4.9-0.8s-2.8-1.3-3.7-2.2l1.2-1.9c0.8,0.8,1.8,1.5,3.2,2c1.3,0.5,2.7,0.8,4.2,0.8c1.9,0,3.5-0.4,4.5-1.3
				c1.1-0.8,1.6-2,1.6-3.5s-0.5-2.6-1.6-3.5c-1.1-0.8-2.7-1.3-4.8-1.3h-1.7v-1.8l6.6-8.3h-12.2v-2.2h15.3v1.7l-6.7,8.5
				C1874.7,2240,1876.6,2240.7,1877.9,2241.9z"/>
			<path d="M1896.9,2241.9c1.3,1.2,2,2.8,2,4.7c0,1.4-0.3,2.6-1,3.6c-0.7,1.1-1.6,1.9-2.9,2.5s-2.9,0.9-4.7,0.9
				c-1.7,0-3.3-0.3-4.9-0.8s-2.8-1.3-3.7-2.2l1.2-1.9c0.8,0.8,1.8,1.5,3.2,2c1.3,0.5,2.7,0.8,4.2,0.8c1.9,0,3.5-0.4,4.5-1.3
				c1.1-0.8,1.6-2,1.6-3.5s-0.5-2.6-1.6-3.5c-1.1-0.8-2.7-1.3-4.8-1.3h-1.7v-1.8l6.6-8.3h-12.2v-2.2h15.3v1.7l-6.7,8.5
				C1893.7,2240,1895.6,2240.7,1896.9,2241.9z"/>
		</g>
		<g>
			<path d="M2017.9,2264.9v2.2h-16.7v-1.7l9.9-9.7c1.2-1.2,2.1-2.3,2.5-3.2s0.7-1.8,0.7-2.7c0-1.4-0.5-2.5-1.4-3.3s-2.3-1.2-4.1-1.2
				c-2.8,0-5,0.9-6.5,2.7l-1.7-1.5c0.9-1.1,2.1-1.9,3.6-2.5c1.4-0.6,3.1-0.9,4.9-0.9c2.4,0,4.3,0.6,5.8,1.7c1.4,1.1,2.1,2.7,2.1,4.7
				c0,1.2-0.3,2.4-0.8,3.5s-1.6,2.4-3.1,3.9l-8.1,8H2017.9z"/>
			<path d="M2025.4,2265.8c-1.4-1-2.6-2.4-3.4-4.2s-1.2-4-1.2-6.4c0-2.5,0.4-4.6,1.2-6.4s1.9-3.2,3.4-4.2s3.1-1.5,4.9-1.5
				s3.5,0.5,4.9,1.5s2.6,2.4,3.4,4.2s1.2,4,1.2,6.4c0,2.5-0.4,4.6-1.2,6.4c-0.8,1.8-1.9,3.2-3.4,4.2s-3.1,1.5-4.9,1.5
				S2026.8,2266.8,2025.4,2265.8z M2033.9,2263.8c1.1-0.8,1.9-1.9,2.5-3.4s0.9-3.3,0.9-5.3c0-2.1-0.3-3.9-0.9-5.3
				c-0.6-1.5-1.4-2.6-2.5-3.4s-2.3-1.2-3.7-1.2s-2.6,0.4-3.7,1.2s-1.9,1.9-2.5,3.4s-0.9,3.3-0.9,5.3c0,2.1,0.3,3.9,0.9,5.3
				c0.6,1.4,1.4,2.6,2.5,3.4s2.3,1.2,3.7,1.2S2032.9,2264.6,2033.9,2263.8z"/>
			<path d="M2049.8,2243.2v23.8h-2.4v-21.6h-5.6v-2.2H2049.8L2049.8,2243.2z"/>
		</g>
		<g>
			<path d="M2173.7,2146.1v2.2H2157v-1.7l9.9-9.7c1.2-1.2,2.1-2.3,2.5-3.2s0.7-1.8,0.7-2.7c0-1.4-0.5-2.5-1.4-3.3s-2.3-1.2-4.1-1.2
				c-2.8,0-5,0.9-6.5,2.7l-1.7-1.5c0.9-1.1,2.1-1.9,3.6-2.5c1.4-0.6,3.1-0.9,4.9-0.9c2.4,0,4.3,0.6,5.8,1.7c1.4,1.1,2.1,2.7,2.1,4.7
				c0,1.2-0.3,2.4-0.8,3.5s-1.6,2.4-3.1,3.9l-8.1,8H2173.7z"/>
			<path d="M2181.2,2147.1c-1.4-1-2.6-2.4-3.4-4.2c-0.8-1.8-1.2-4-1.2-6.4c0-2.5,0.4-4.6,1.2-6.4s1.9-3.2,3.4-4.2s3.1-1.5,4.9-1.5
				s3.5,0.5,4.9,1.5s2.6,2.4,3.4,4.2c0.8,1.8,1.2,4,1.2,6.4c0,2.5-0.4,4.6-1.2,6.4s-1.9,3.2-3.4,4.2s-3.1,1.5-4.9,1.5
				S2182.6,2148,2181.2,2147.1z M2189.7,2145.1c1.1-0.8,1.9-1.9,2.5-3.4s0.9-3.3,0.9-5.3c0-2.1-0.3-3.9-0.9-5.3
				c-0.6-1.5-1.4-2.6-2.5-3.4s-2.3-1.2-3.7-1.2s-2.6,0.4-3.7,1.2c-1.1,0.8-1.9,1.9-2.5,3.4s-0.9,3.3-0.9,5.3c0,2.1,0.3,3.9,0.9,5.3
				c0.6,1.4,1.4,2.6,2.5,3.4s2.3,1.2,3.7,1.2S2188.7,2145.9,2189.7,2145.1z"/>
			<path d="M2215.2,2146.1v2.2h-16.7v-1.7l9.9-9.7c1.2-1.2,2.1-2.3,2.5-3.2s0.7-1.8,0.7-2.7c0-1.4-0.5-2.5-1.4-3.3s-2.3-1.2-4.1-1.2
				c-2.8,0-5,0.9-6.5,2.7l-1.7-1.5c0.9-1.1,2.1-1.9,3.6-2.5c1.4-0.6,3.1-0.9,4.9-0.9c2.4,0,4.3,0.6,5.8,1.7c1.4,1.1,2.1,2.7,2.1,4.7
				c0,1.2-0.3,2.4-0.8,3.5s-1.6,2.4-3.1,3.9l-8.1,8H2215.2z"/>
		</g>
		<g>
			<path d="M2017.2,2037.3v2.2h-16.7v-1.7l9.9-9.7c1.2-1.2,2.1-2.3,2.5-3.2s0.7-1.8,0.7-2.7c0-1.4-0.5-2.5-1.4-3.3s-2.3-1.2-4.1-1.2
				c-2.8,0-5,0.9-6.5,2.7l-1.7-1.5c0.9-1.1,2.1-1.9,3.6-2.5c1.4-0.6,3.1-0.9,4.9-0.9c2.4,0,4.3,0.6,5.8,1.7c1.4,1.1,2.1,2.7,2.1,4.7
				c0,1.2-0.3,2.4-0.8,3.5s-1.6,2.4-3.1,3.9l-8.1,8H2017.2z"/>
			<path d="M2024.7,2038.2c-1.4-1-2.6-2.4-3.4-4.2c-0.8-1.8-1.2-4-1.2-6.4c0-2.5,0.4-4.6,1.2-6.4s1.9-3.2,3.4-4.2s3.1-1.5,4.9-1.5
				s3.5,0.5,4.9,1.5s2.6,2.4,3.4,4.2c0.8,1.8,1.2,4,1.2,6.4c0,2.5-0.4,4.6-1.2,6.4c-0.8,1.8-1.9,3.2-3.4,4.2s-3.1,1.5-4.9,1.5
				S2026.2,2039.2,2024.7,2038.2z M2033.3,2036.3c1.1-0.8,1.9-1.9,2.5-3.4s0.9-3.3,0.9-5.3c0-2.1-0.3-3.9-0.9-5.3
				c-0.6-1.5-1.4-2.6-2.5-3.4s-2.3-1.2-3.7-1.2s-2.6,0.4-3.7,1.2c-1.1,0.8-1.9,1.9-2.5,3.4s-0.9,3.3-0.9,5.3c0,2.1,0.3,3.9,0.9,5.3
				s1.4,2.6,2.5,3.4s2.3,1.2,3.7,1.2S2032.3,2037.1,2033.3,2036.3z"/>
			<path d="M2056.1,2027.9c1.3,1.2,2,2.8,2,4.7c0,1.4-0.3,2.6-1,3.6c-0.7,1.1-1.6,1.9-2.9,2.5s-2.9,0.9-4.7,0.9
				c-1.7,0-3.3-0.3-4.9-0.8s-2.8-1.3-3.7-2.2l1.2-1.9c0.8,0.8,1.8,1.5,3.2,2c1.3,0.5,2.7,0.8,4.2,0.8c1.9,0,3.5-0.4,4.5-1.3
				c1.1-0.8,1.6-2,1.6-3.5s-0.5-2.6-1.6-3.5c-1.1-0.8-2.7-1.3-4.8-1.3h-1.7v-1.8l6.6-8.3h-12.2v-2.2h15.3v1.7l-6.7,8.5
				C2052.9,2026,2054.8,2026.7,2056.1,2027.9z"/>
		</g>
		<g>
			<path d="M1403.1,1996.8v2.2h-16.7v-1.7l9.9-9.7c1.2-1.2,2.1-2.3,2.5-3.2s0.7-1.8,0.7-2.7c0-1.4-0.5-2.5-1.4-3.3
				c-1-0.8-2.3-1.2-4.1-1.2c-2.8,0-5,0.9-6.5,2.7l-1.7-1.5c0.9-1.1,2.1-1.9,3.6-2.5c1.4-0.6,3.1-0.9,4.9-0.9c2.4,0,4.3,0.6,5.8,1.7
				c1.4,1.1,2.1,2.7,2.1,4.7c0,1.2-0.3,2.4-0.8,3.5s-1.6,2.4-3.1,3.9l-8.1,8H1403.1z"/>
			<path d="M1410.6,1997.7c-1.4-1-2.6-2.4-3.4-4.2c-0.8-1.8-1.2-4-1.2-6.4c0-2.5,0.4-4.6,1.2-6.4c0.8-1.8,1.9-3.2,3.4-4.2
				s3.1-1.5,4.9-1.5s3.5,0.5,4.9,1.5s2.6,2.4,3.4,4.2c0.8,1.8,1.2,4,1.2,6.4c0,2.5-0.4,4.6-1.2,6.4c-0.8,1.8-1.9,3.2-3.4,4.2
				c-1.4,1-3.1,1.5-4.9,1.5S1412,1998.7,1410.6,1997.7z M1419.2,1995.8c1.1-0.8,1.9-1.9,2.5-3.4s0.9-3.3,0.9-5.3
				c0-2.1-0.3-3.9-0.9-5.3c-0.6-1.5-1.4-2.6-2.5-3.4s-2.3-1.2-3.7-1.2c-1.4,0-2.6,0.4-3.7,1.2c-1.1,0.8-1.9,1.9-2.5,3.4
				s-0.9,3.3-0.9,5.3c0,2.1,0.3,3.9,0.9,5.3s1.4,2.6,2.5,3.4s2.3,1.2,3.7,1.2C1416.9,1996.9,1418.1,1996.5,1419.2,1995.8z"/>
			<path d="M1442.6,1985.6c1.2,0.6,2.2,1.4,2.8,2.5c0.7,1.1,1,2.3,1,3.8s-0.4,2.7-1.1,3.8c-0.7,1.1-1.7,2-2.9,2.6
				c-1.2,0.6-2.6,0.9-4.2,0.9c-3.2,0-5.6-1-7.2-3.1c-1.7-2.1-2.5-5-2.5-8.8c0-2.7,0.5-4.9,1.4-6.7c0.9-1.8,2.2-3.2,3.8-4.2
				s3.5-1.4,5.7-1.4c2.4,0,4.2,0.4,5.6,1.3l-1,2c-1.1-0.7-2.7-1.1-4.6-1.1c-2.6,0-4.7,0.8-6.2,2.5s-2.2,4.1-2.2,7.3
				c0,0.6,0,1.2,0.1,1.9c0.6-1.3,1.5-2.3,2.8-3s2.8-1.1,4.5-1.1C1440,1984.7,1441.4,1985,1442.6,1985.6z M1442.4,1995.7
				c1.1-0.9,1.6-2.2,1.6-3.8c0-1.6-0.5-2.8-1.6-3.7c-1.1-0.9-2.5-1.4-4.4-1.4c-1.2,0-2.3,0.2-3.2,0.7c-0.9,0.5-1.6,1.1-2.2,1.9
				c-0.5,0.8-0.8,1.7-0.8,2.7c0,0.9,0.2,1.7,0.7,2.5s1.2,1.4,2.2,1.9s2.1,0.7,3.4,0.7C1439.9,1997.1,1441.3,1996.6,1442.4,1995.7z"
				/>
		</g>
		<g>
			<path d="M1177.9,2027.4v2.2h-16.7v-1.7l9.9-9.7c1.2-1.2,2.1-2.3,2.5-3.2s0.7-1.8,0.7-2.7c0-1.4-0.5-2.5-1.4-3.3
				c-1-0.8-2.3-1.2-4.1-1.2c-2.8,0-5,0.9-6.5,2.7l-1.7-1.5c0.9-1.1,2.1-1.9,3.6-2.5c1.4-0.6,3.1-0.9,4.9-0.9c2.4,0,4.3,0.6,5.8,1.7
				c1.4,1.1,2.1,2.7,2.1,4.7c0,1.2-0.3,2.4-0.8,3.5s-1.6,2.4-3.1,3.9l-8.1,8H1177.9z"/>
			<path d="M1185.4,2028.3c-1.4-1-2.6-2.4-3.4-4.2c-0.8-1.8-1.2-4-1.2-6.4c0-2.5,0.4-4.6,1.2-6.4c0.8-1.8,1.9-3.2,3.4-4.2
				s3.1-1.5,4.9-1.5s3.5,0.5,4.9,1.5s2.6,2.4,3.4,4.2c0.8,1.8,1.2,4,1.2,6.4c0,2.5-0.4,4.6-1.2,6.4c-0.8,1.8-1.9,3.2-3.4,4.2
				c-1.4,1-3.1,1.5-4.9,1.5S1186.9,2029.3,1185.4,2028.3z M1194,2026.4c1.1-0.8,1.9-1.9,2.5-3.4s0.9-3.3,0.9-5.3
				c0-2.1-0.3-3.9-0.9-5.3c-0.6-1.5-1.4-2.6-2.5-3.4s-2.3-1.2-3.7-1.2c-1.4,0-2.6,0.4-3.7,1.2c-1.1,0.8-1.9,1.9-2.5,3.4
				s-0.9,3.3-0.9,5.3c0,2.1,0.3,3.9,0.9,5.3s1.4,2.6,2.5,3.4s2.3,1.2,3.7,1.2C1191.7,2027.5,1192.9,2027.1,1194,2026.4z"/>
			<path d="M1219.9,2005.8v1.7l-10,22.1h-2.7l9.8-21.6h-12.2v4.5h-2.4v-6.6L1219.9,2005.8L1219.9,2005.8z"/>
		</g>
		<g>
			<path d="M1014.3,1992.7v2.2h-16.7v-1.7l9.9-9.7c1.2-1.2,2.1-2.3,2.5-3.2s0.7-1.8,0.7-2.7c0-1.4-0.5-2.5-1.4-3.3
				c-1-0.8-2.3-1.2-4.1-1.2c-2.8,0-5,0.9-6.5,2.7l-1.7-1.5c0.9-1.1,2.1-1.9,3.6-2.5c1.4-0.6,3.1-0.9,4.9-0.9c2.4,0,4.3,0.6,5.8,1.7
				c1.4,1.1,2.1,2.7,2.1,4.7c0,1.2-0.3,2.4-0.8,3.5s-1.6,2.4-3.1,3.9l-8.1,8H1014.3z"/>
			<path d="M1021.8,1993.6c-1.4-1-2.6-2.4-3.4-4.2c-0.8-1.8-1.2-4-1.2-6.4c0-2.5,0.4-4.6,1.2-6.4s1.9-3.2,3.4-4.2s3.1-1.5,4.9-1.5
				s3.5,0.5,4.9,1.5s2.6,2.4,3.4,4.2c0.8,1.8,1.2,4,1.2,6.4c0,2.5-0.4,4.6-1.2,6.4c-0.8,1.8-1.9,3.2-3.4,4.2c-1.4,1-3.1,1.5-4.9,1.5
				S1023.2,1994.6,1021.8,1993.6z M1030.4,1991.6c1.1-0.8,1.9-1.9,2.5-3.4s0.9-3.3,0.9-5.3c0-2.1-0.3-3.9-0.9-5.3
				c-0.6-1.5-1.4-2.6-2.5-3.4s-2.3-1.2-3.7-1.2c-1.4,0-2.6,0.4-3.7,1.2c-1.1,0.8-1.9,1.9-2.5,3.4s-0.9,3.3-0.9,5.3
				c0,2.1,0.3,3.9,0.9,5.3s1.4,2.6,2.5,3.4c1.1,0.8,2.3,1.2,3.7,1.2C1028.1,1992.8,1029.3,1992.4,1030.4,1991.6z"/>
			<path d="M1056.8,1984.6c0.8,1,1.2,2.2,1.2,3.6s-0.4,2.6-1.1,3.6s-1.8,1.8-3.2,2.4s-3,0.8-4.9,0.8c-2.9,0-5.1-0.6-6.7-1.8
				c-1.6-1.2-2.4-2.9-2.4-5c0-1.4,0.4-2.6,1.2-3.6c0.8-1,1.9-1.7,3.4-2.2c-1.2-0.5-2.2-1.2-2.8-2.1c-0.6-0.9-1-2-1-3.2
				c0-1.9,0.8-3.5,2.3-4.6s3.5-1.7,6.1-1.7c1.7,0,3.1,0.3,4.4,0.8s2.2,1.2,2.9,2.2s1.1,2.1,1.1,3.3c0,1.2-0.3,2.3-1,3.2
				c-0.7,0.9-1.6,1.6-2.8,2.1C1054.9,1982.9,1056,1983.6,1056.8,1984.6z M1053.7,1991.7c1.2-0.9,1.8-2,1.8-3.5s-0.6-2.6-1.8-3.5
				c-1.2-0.8-2.8-1.3-4.9-1.3s-3.7,0.4-4.9,1.3c-1.2,0.9-1.8,2-1.8,3.5s0.6,2.7,1.8,3.5c1.2,0.8,2.8,1.3,4.9,1.3
				S1052.5,1992.5,1053.7,1991.7z M1044.5,1980.3c1,0.8,2.5,1.2,4.3,1.2s3.3-0.4,4.3-1.2s1.6-1.8,1.6-3.1c0-1.3-0.5-2.4-1.6-3.2
				c-1.1-0.8-2.5-1.2-4.3-1.2s-3.2,0.4-4.3,1.2c-1.1,0.8-1.6,1.8-1.6,3.1C1042.9,1978.5,1043.4,1979.6,1044.5,1980.3z"/>
		</g>
		<g>
			<path d="M920.1,1998.7h2.2v16.7h-1.7l-9.7-9.9c-1.2-1.2-2.3-2.1-3.2-2.5s-1.8-0.7-2.7-0.7c-1.4,0-2.5,0.5-3.3,1.4
				c-0.8,1-1.2,2.3-1.2,4.1c0,2.8,0.9,5,2.7,6.5l-1.5,1.7c-1.1-0.9-1.9-2.1-2.5-3.6c-0.6-1.4-0.9-3.1-0.9-4.9c0-2.4,0.6-4.3,1.7-5.8
				c1.1-1.4,2.7-2.1,4.7-2.1c1.2,0,2.4,0.3,3.5,0.8s2.4,1.6,3.9,3.1l8,8.1V1998.7z"/>
			<path d="M921.1,1991.2c-1,1.4-2.4,2.6-4.2,3.4s-4,1.2-6.4,1.2c-2.5,0-4.6-0.4-6.4-1.2c-1.8-0.8-3.2-1.9-4.2-3.4s-1.5-3.1-1.5-4.9
				s0.5-3.5,1.5-4.9s2.4-2.6,4.2-3.4s4-1.2,6.4-1.2c2.5,0,4.6,0.4,6.4,1.2c1.8,0.8,3.2,1.9,4.2,3.4c1,1.4,1.5,3.1,1.5,4.9
				S922,1989.8,921.1,1991.2z M919.1,1982.7c-0.8-1.1-1.9-1.9-3.4-2.5s-3.3-0.9-5.3-0.9c-2.1,0-3.9,0.3-5.3,0.9
				c-1.5,0.6-2.6,1.4-3.4,2.5c-0.8,1.1-1.2,2.3-1.2,3.7s0.4,2.6,1.2,3.7s1.9,1.9,3.4,2.5s3.3,0.9,5.3,0.9c2.1,0,3.9-0.3,5.3-0.9
				c1.5-0.6,2.6-1.4,3.4-2.5c0.8-1.1,1.2-2.3,1.2-3.7S919.9,1983.7,919.1,1982.7z"/>
			<path d="M901.4,1958.6c2.1-1.7,5-2.5,8.8-2.5c2.7,0,4.9,0.5,6.7,1.4s3.2,2.2,4.2,3.8s1.4,3.5,1.4,5.7c0,2.4-0.4,4.2-1.3,5.6l-2-1
				c0.7-1.1,1.1-2.7,1.1-4.6c0-2.6-0.8-4.7-2.5-6.2s-4.1-2.2-7.3-2.2c-0.6,0-1.2,0-1.9,0.1c1.3,0.6,2.3,1.5,3,2.8s1.1,2.8,1.1,4.5
				c0,1.6-0.3,3-0.9,4.2c-0.6,1.2-1.4,2.2-2.5,2.8c-1.1,0.7-2.3,1-3.8,1s-2.7-0.4-3.8-1.1s-2-1.7-2.6-2.9c-0.6-1.2-0.9-2.6-0.9-4.2
				C898.3,1962.7,899.4,1960.3,901.4,1958.6z M910,1962.4c-0.5-0.9-1.1-1.6-1.9-2.2c-0.8-0.5-1.7-0.8-2.7-0.8
				c-0.9,0-1.7,0.2-2.5,0.7s-1.4,1.2-1.9,2.2s-0.7,2.1-0.7,3.4c0,1.7,0.5,3.1,1.4,4.2s2.2,1.6,3.8,1.6s2.8-0.5,3.7-1.6
				s1.4-2.5,1.4-4.4C910.7,1964.4,910.5,1963.3,910,1962.4z"/>
		</g>
		<g>
			<path d="M746.5,1993.1v2.2h-16.7v-1.7l9.9-9.7c1.2-1.2,2.1-2.3,2.5-3.2s0.7-1.8,0.7-2.7c0-1.4-0.5-2.5-1.4-3.3
				c-1-0.8-2.3-1.2-4.1-1.2c-2.8,0-5,0.9-6.5,2.7l-1.7-1.5c0.9-1.1,2.1-1.9,3.6-2.5c1.4-0.6,3.1-0.9,4.9-0.9c2.4,0,4.3,0.6,5.8,1.7
				c1.4,1.1,2.1,2.7,2.1,4.7c0,1.2-0.3,2.4-0.8,3.5s-1.6,2.4-3.1,3.9l-8.1,8H746.5z"/>
			<path d="M756.2,1971.5v23.8h-2.4v-21.6h-5.6v-2.2L756.2,1971.5L756.2,1971.5z"/>
			<path d="M766.4,1994c-1.4-1-2.6-2.4-3.4-4.2c-0.8-1.8-1.2-4-1.2-6.4c0-2.5,0.4-4.6,1.2-6.4s1.9-3.2,3.4-4.2s3.1-1.5,4.9-1.5
				s3.5,0.5,4.9,1.5s2.6,2.4,3.4,4.2c0.8,1.8,1.2,4,1.2,6.4c0,2.5-0.4,4.6-1.2,6.4s-1.9,3.2-3.4,4.2c-1.4,1-3.1,1.5-4.9,1.5
				S767.9,1995,766.4,1994z M775,1992.1c1.1-0.8,1.9-1.9,2.5-3.4s0.9-3.3,0.9-5.3c0-2.1-0.3-3.9-0.9-5.3c-0.6-1.5-1.4-2.6-2.5-3.4
				s-2.3-1.2-3.7-1.2s-2.6,0.4-3.7,1.2c-1.1,0.8-1.9,1.9-2.5,3.4s-0.9,3.3-0.9,5.3c0,2.1,0.3,3.9,0.9,5.3s1.4,2.6,2.5,3.4
				s2.3,1.2,3.7,1.2C772.7,1993.2,774,1992.8,775,1992.1z"/>
		</g>
		<g>
			<path d="M566.1,1992.7v2.2h-16.7v-1.7l9.9-9.7c1.2-1.2,2.1-2.3,2.5-3.2s0.7-1.8,0.7-2.7c0-1.4-0.5-2.5-1.4-3.3
				c-1-0.8-2.3-1.2-4.1-1.2c-2.8,0-5,0.9-6.5,2.7l-1.7-1.5c0.9-1.1,2.1-1.9,3.6-2.5c1.4-0.6,3.1-0.9,4.9-0.9c2.4,0,4.3,0.6,5.8,1.7
				c1.4,1.1,2.1,2.7,2.1,4.7c0,1.2-0.3,2.4-0.8,3.5s-1.6,2.4-3.1,3.9l-8.1,8H566.1z"/>
			<path d="M575.8,1971v23.8h-2.4v-21.6h-5.6v-2.2L575.8,1971L575.8,1971z"/>
			<path d="M588,1971v23.8h-2.4v-21.6H580v-2.2L588,1971L588,1971z"/>
		</g>
		<g>
			<path d="M2260.3,2141.6H2247l-2.9,6.4h-2.6l10.9-23.8h2.5l10.9,23.8h-2.7L2260.3,2141.6z M2259.3,2139.6l-5.7-12.8l-5.7,12.8
				H2259.3z"/>
			<path d="M2276.2,2140h-4.1v8h-2.4v-17.9h2.4v7.9h4.1l6.3-7.9h2.6l-7,8.7l7.5,9.2h-2.9L2276.2,2140z"/>
			<path d="M2301.7,2132.2h-6.8v15.7h-2.4v-15.7h-6.8v-2.1h15.9v2.1H2301.7z"/>
			<path d="M2307.1,2147c-1.4-0.8-2.5-1.9-3.3-3.2c-0.8-1.4-1.2-2.9-1.2-4.7c0-1.7,0.4-3.3,1.2-4.7s1.9-2.5,3.3-3.2
				c1.4-0.8,2.9-1.2,4.7-1.2c1.7,0,3.3,0.4,4.7,1.2s2.5,1.8,3.2,3.2c0.8,1.4,1.2,2.9,1.2,4.7c0,1.7-0.4,3.3-1.2,4.7
				s-1.9,2.5-3.2,3.2c-1.4,0.8-2.9,1.2-4.7,1.2C2310,2148.1,2308.5,2147.7,2307.1,2147z M2315.2,2145.1c1-0.6,1.8-1.4,2.4-2.5
				c0.6-1.1,0.9-2.3,0.9-3.6c0-1.4-0.3-2.6-0.9-3.6s-1.4-1.9-2.4-2.5s-2.1-0.9-3.4-0.9c-1.3,0-2.4,0.3-3.4,0.9
				c-1,0.6-1.8,1.4-2.4,2.5c-0.6,1.1-0.9,2.3-0.9,3.6c0,1.4,0.3,2.6,0.9,3.6c0.6,1.1,1.4,1.9,2.4,2.5s2.1,0.9,3.4,0.9
				C2313,2146,2314.2,2145.7,2315.2,2145.1z"/>
			<path d="M2341,2143.1c0,1.6-0.6,2.8-1.7,3.6c-1.1,0.8-2.9,1.3-5.2,1.3h-8.1v-17.9h7.9c2,0,3.6,0.4,4.8,1.2s1.7,1.9,1.7,3.4
				c0,1-0.3,1.8-0.8,2.5s-1.3,1.2-2.2,1.5C2339.8,2139.3,2341,2140.8,2341,2143.1z M2328.4,2138h5.4c1.4,0,2.4-0.3,3.2-0.8
				c0.7-0.5,1.1-1.3,1.1-2.3s-0.4-1.7-1.1-2.2c-0.7-0.5-1.8-0.7-3.2-0.7h-5.4V2138z M2337.5,2145.3c0.8-0.5,1.2-1.3,1.2-2.3
				s-0.4-1.9-1.1-2.4c-0.7-0.5-1.8-0.8-3.3-0.8h-5.9v6.2h5.7C2335.6,2146.1,2336.7,2145.8,2337.5,2145.3z"/>
			<path d="M2358.2,2131.7c1.2,1.2,1.9,2.9,1.9,5.2v11.1h-2.3v-2.8c-0.5,0.9-1.3,1.7-2.4,2.2c-1.1,0.5-2.3,0.8-3.8,0.8
				c-2,0-3.6-0.5-4.8-1.4s-1.8-2.2-1.8-3.8c0-1.5,0.5-2.7,1.6-3.7c1.1-0.9,2.9-1.4,5.3-1.4h5.7v-1.1c0-1.5-0.4-2.7-1.3-3.5
				c-0.9-0.8-2.1-1.2-3.8-1.2c-1.1,0-2.2,0.2-3.3,0.6c-1,0.4-1.9,0.9-2.7,1.5l-1.1-1.8c0.9-0.8,2-1.4,3.3-1.8c1.3-0.4,2.6-0.6,4-0.6
				C2355.2,2130,2357,2130.5,2358.2,2131.7z M2355.5,2145.3c1-0.6,1.7-1.5,2.2-2.7v-2.9h-5.6c-3.1,0-4.6,1.1-4.6,3.2
				c0,1,0.4,1.9,1.2,2.5s1.9,0.9,3.3,0.9C2353.3,2146.2,2354.5,2145.9,2355.5,2145.3z"/>
			<path d="M2387.1,2140.2c0.7,0.7,1,1.6,1,2.7c0,1.1-0.4,2-1.1,2.8c-0.7,0.8-1.7,1.4-2.9,1.9s-2.6,0.7-4,0.7
				c-1.3,0-2.6-0.2-3.8-0.6c-1.2-0.4-2.3-0.9-3.3-1.6l0.8-1.8c0.8,0.6,1.8,1.1,2.9,1.4s2.2,0.5,3.3,0.5c1.7,0,3-0.3,4.1-0.9
				c1.1-0.6,1.6-1.5,1.6-2.5s-0.4-1.7-1.3-2.2c-0.9-0.5-2-0.8-3.5-0.8h-3.1v-1.8h2.9c1.3,0,2.4-0.3,3.2-0.8s1.2-1.2,1.2-2.1
				c0-1-0.5-1.7-1.4-2.2s-2.1-0.8-3.6-0.8c-1.9,0-3.8,0.5-5.7,1.5l-0.7-1.9c2.1-1.1,4.3-1.7,6.6-1.7c1.4,0,2.6,0.2,3.7,0.6
				c1.1,0.4,2,1,2.6,1.7s0.9,1.6,0.9,2.5s-0.3,1.7-0.9,2.4c-0.6,0.7-1.5,1.2-2.5,1.6C2385.4,2138.9,2386.4,2139.5,2387.1,2140.2z"/>
			<path d="M2405.1,2131.7c1.2,1.2,1.9,2.9,1.9,5.2v11.1h-2.3v-2.8c-0.5,0.9-1.3,1.7-2.4,2.2c-1.1,0.5-2.3,0.8-3.8,0.8
				c-2,0-3.6-0.5-4.8-1.4c-1.2-1-1.8-2.2-1.8-3.8c0-1.5,0.5-2.7,1.6-3.7c1.1-0.9,2.8-1.4,5.3-1.4h5.7v-1.1c0-1.5-0.4-2.7-1.3-3.5
				s-2.1-1.2-3.8-1.2c-1.1,0-2.2,0.2-3.3,0.6c-1.1,0.4-1.9,0.9-2.7,1.5l-1.1-1.8c0.9-0.8,2-1.4,3.3-1.8c1.3-0.4,2.6-0.6,4-0.6
				C2402.1,2130,2403.8,2130.5,2405.1,2131.7z M2402.4,2145.3c1-0.6,1.7-1.5,2.2-2.7v-2.9h-5.6c-3.1,0-4.6,1.1-4.6,3.2
				c0,1,0.4,1.9,1.2,2.5s1.9,0.9,3.3,0.9C2400.2,2146.2,2401.4,2145.9,2402.4,2145.3z"/>
			<path d="M2428,2130.1v17.9h-2.4v-15.7h-8.6l-0.2,4.4c-0.2,3.7-0.6,6.6-1.3,8.6s-1.9,3-3.6,3c-0.5,0-1.1-0.1-1.7-0.3l0.2-2.1
				c0.4,0.1,0.7,0.1,0.8,0.1c0.9,0,1.6-0.4,2.1-1.3c0.5-0.9,0.8-1.9,1-3.2s0.3-2.9,0.4-5l0.3-6.4H2428z"/>
			<path d="M2446.4,2131.7c1.2,1.2,1.9,2.9,1.9,5.2v11.1h-2.3v-2.8c-0.5,0.9-1.3,1.7-2.4,2.2c-1.1,0.5-2.3,0.8-3.8,0.8
				c-2,0-3.6-0.5-4.8-1.4s-1.8-2.2-1.8-3.8c0-1.5,0.5-2.7,1.6-3.7c1.1-0.9,2.9-1.4,5.3-1.4h5.7v-1.1c0-1.5-0.4-2.7-1.3-3.5
				c-0.9-0.8-2.1-1.2-3.8-1.2c-1.1,0-2.2,0.2-3.3,0.6c-1,0.4-1.9,0.9-2.7,1.5l-1.1-1.8c0.9-0.8,2-1.4,3.3-1.8c1.3-0.4,2.6-0.6,4-0.6
				C2443.4,2130,2445.2,2130.5,2446.4,2131.7z M2443.7,2145.3c1-0.6,1.7-1.5,2.2-2.7v-2.9h-5.6c-3.1,0-4.6,1.1-4.6,3.2
				c0,1,0.4,1.9,1.2,2.5s1.9,0.9,3.3,0.9C2441.5,2146.2,2442.7,2145.9,2443.7,2145.3z"/>
		</g>
	</g>
	<g id="stairs">
		<g>
			<g>
				<line class="st3" x1="293" y1="2085.8" x2="293" y2="2116.3"/>
				<line class="st3" x1="300.6" y1="2085.8" x2="300.6" y2="2116.3"/>
				<line class="st3" x1="308.2" y1="2085.8" x2="308.2" y2="2116.3"/>
				<line class="st3" x1="315.8" y1="2085.8" x2="315.8" y2="2116.3"/>
				<line class="st3" x1="323.4" y1="2085.8" x2="323.4" y2="2116.3"/>
				<line class="st3" x1="331" y1="2085.8" x2="331" y2="2116.3"/>
				<line class="st3" x1="338.7" y1="2085.8" x2="338.7" y2="2116.3"/>
				<line class="st3" x1="346.3" y1="2085.8" x2="346.3" y2="2116.3"/>
				<line class="st3" x1="353.9" y1="2085.8" x2="353.9" y2="2116.3"/>
				<line class="st3" x1="361.5" y1="2085.8" x2="361.5" y2="2116.3"/>
				<line class="st3" x1="369.1" y1="2085.8" x2="369.1" y2="2116.3"/>
				<line class="st3" x1="376.7" y1="2085.8" x2="376.7" y2="2116.3"/>
				<line class="st3" x1="384.3" y1="2085.8" x2="384.3" y2="2116.3"/>
				<line class="st3" x1="392" y1="2085.8" x2="392" y2="2116.3"/>
			</g>
			<g>
				<line class="st3" x1="293" y1="2120.6" x2="293" y2="2151.1"/>
				<line class="st3" x1="300.6" y1="2120.6" x2="300.6" y2="2151.1"/>
				<line class="st3" x1="308.2" y1="2120.6" x2="308.2" y2="2151.1"/>
				<line class="st3" x1="315.8" y1="2120.6" x2="315.8" y2="2151.1"/>
				<line class="st3" x1="323.4" y1="2120.6" x2="323.4" y2="2151.1"/>
				<line class="st3" x1="331" y1="2120.6" x2="331" y2="2151.1"/>
				<line class="st3" x1="338.7" y1="2120.6" x2="338.7" y2="2151.1"/>
				<line class="st3" x1="346.3" y1="2120.6" x2="346.3" y2="2151.1"/>
				<line class="st3" x1="353.9" y1="2120.6" x2="353.9" y2="2151.1"/>
				<line class="st3" x1="361.5" y1="2120.6" x2="361.5" y2="2151.1"/>
				<line class="st3" x1="369.1" y1="2120.6" x2="369.1" y2="2151.1"/>
				<line class="st3" x1="376.7" y1="2120.6" x2="376.7" y2="2151.1"/>
				<line class="st3" x1="384.3" y1="2120.6" x2="384.3" y2="2151.1"/>
				<line class="st3" x1="392" y1="2120.6" x2="392" y2="2151.1"/>
			</g>
		</g>
		<g>
			<g>
				<line class="st3" x1="554.1" y1="1111.6" x2="554.1" y2="1142.1"/>
				<line class="st3" x1="561.7" y1="1111.6" x2="561.7" y2="1142.1"/>
				<line class="st3" x1="569.3" y1="1111.6" x2="569.3" y2="1142.1"/>
				<line class="st3" x1="576.9" y1="1111.6" x2="576.9" y2="1142.1"/>
				<line class="st3" x1="584.5" y1="1111.6" x2="584.5" y2="1142.1"/>
				<line class="st3" x1="592.2" y1="1111.6" x2="592.2" y2="1142.1"/>
				<line class="st3" x1="599.8" y1="1111.6" x2="599.8" y2="1142.1"/>
				<line class="st3" x1="607.4" y1="1111.6" x2="607.4" y2="1142.1"/>
				<line class="st3" x1="615" y1="1111.6" x2="615" y2="1142.1"/>
				<line class="st3" x1="622.6" y1="1111.6" x2="622.6" y2="1142.1"/>
				<line class="st3" x1="630.2" y1="1111.6" x2="630.2" y2="1142.1"/>
				<line class="st3" x1="637.8" y1="1111.6" x2="637.8" y2="1142.1"/>
				<line class="st3" x1="645.5" y1="1111.6" x2="645.5" y2="1142.1"/>
				<line class="st3" x1="653.1" y1="1111.6" x2="653.1" y2="1142.1"/>
			</g>
			<g>
				<line class="st3" x1="554.1" y1="1146.4" x2="554.1" y2="1176.8"/>
				<line class="st3" x1="561.7" y1="1146.4" x2="561.7" y2="1176.8"/>
				<line class="st3" x1="569.3" y1="1146.4" x2="569.3" y2="1176.8"/>
				<line class="st3" x1="576.9" y1="1146.4" x2="576.9" y2="1176.8"/>
				<line class="st3" x1="584.5" y1="1146.4" x2="584.5" y2="1176.8"/>
				<line class="st3" x1="592.2" y1="1146.4" x2="592.2" y2="1176.8"/>
				<line class="st3" x1="599.8" y1="1146.4" x2="599.8" y2="1176.8"/>
				<line class="st3" x1="607.4" y1="1146.4" x2="607.4" y2="1176.8"/>
				<line class="st3" x1="615" y1="1146.4" x2="615" y2="1176.8"/>
				<line class="st3" x1="622.6" y1="1146.4" x2="622.6" y2="1176.8"/>
				<line class="st3" x1="630.2" y1="1146.4" x2="630.2" y2="1176.8"/>
				<line class="st3" x1="637.8" y1="1146.4" x2="637.8" y2="1176.8"/>
				<line class="st3" x1="645.5" y1="1146.4" x2="645.5" y2="1176.8"/>
				<line class="st3" x1="653.1" y1="1146.4" x2="653.1" y2="1176.8"/>
			</g>
		</g>
		<g>
			<g>
				<line class="st3" x1="1936.1" y1="1973.3" x2="1892.8" y2="1973.3"/>
				<line class="st3" x1="1936.1" y1="1981" x2="1892.8" y2="1981"/>
				<line class="st3" x1="1936.1" y1="1988.6" x2="1892.8" y2="1988.6"/>
				<line class="st3" x1="1936.1" y1="1996.2" x2="1892.8" y2="1996.2"/>
				<line class="st3" x1="1936.1" y1="2003.8" x2="1892.8" y2="2003.8"/>
				<line class="st3" x1="1936.1" y1="2011.4" x2="1892.8" y2="2011.4"/>
				<line class="st3" x1="1936.1" y1="2019" x2="1892.8" y2="2019"/>
				<line class="st3" x1="1936.1" y1="2026.7" x2="1892.8" y2="2026.7"/>
				<line class="st3" x1="1936.1" y1="2034.3" x2="1892.8" y2="2034.3"/>
				<line class="st3" x1="1936.1" y1="2041.9" x2="1892.8" y2="2041.9"/>
				<line class="st3" x1="1936.1" y1="2049.5" x2="1892.8" y2="2049.5"/>
				<line class="st3" x1="1936.1" y1="2057.1" x2="1892.8" y2="2057.1"/>
				<line class="st3" x1="1936.1" y1="2064.7" x2="1892.8" y2="2064.7"/>
				<line class="st3" x1="1936.1" y1="2072.3" x2="1892.8" y2="2072.3"/>
			</g>
			<g>
				<line class="st3" x1="1856.4" y1="1973.3" x2="1810.4" y2="1973.3"/>
				<line class="st3" x1="1856.4" y1="1981" x2="1810.4" y2="1981"/>
				<line class="st3" x1="1856.4" y1="1988.6" x2="1810.4" y2="1988.6"/>
				<line class="st3" x1="1856.4" y1="1996.2" x2="1810.4" y2="1996.2"/>
				<line class="st3" x1="1856.4" y1="2003.8" x2="1810.4" y2="2003.8"/>
				<line class="st3" x1="1856.4" y1="2011.4" x2="1810.4" y2="2011.4"/>
				<line class="st3" x1="1856.4" y1="2019" x2="1810.4" y2="2019"/>
				<line class="st3" x1="1856.4" y1="2026.7" x2="1810.4" y2="2026.7"/>
				<line class="st3" x1="1856.4" y1="2034.3" x2="1810.4" y2="2034.3"/>
				<line class="st3" x1="1856.4" y1="2041.9" x2="1810.4" y2="2041.9"/>
				<line class="st3" x1="1856.4" y1="2049.5" x2="1810.4" y2="2049.5"/>
				<line class="st3" x1="1856.4" y1="2057.1" x2="1810.4" y2="2057.1"/>
				<line class="st3" x1="1856.4" y1="2064.7" x2="1810.4" y2="2064.7"/>
				<line class="st3" x1="1856.4" y1="2072.3" x2="1810.4" y2="2072.3"/>
			</g>
		</g>
		<g>
			<g>
				<line class="st3" x1="498.5" y1="685.2" x2="498.5" y2="729.2"/>
				<line class="st3" x1="506.1" y1="685.2" x2="506.1" y2="729.2"/>
				<line class="st3" x1="513.7" y1="685.2" x2="513.7" y2="729.2"/>
				<line class="st3" x1="521.3" y1="685.2" x2="521.3" y2="729.2"/>
				<line class="st3" x1="528.9" y1="685.2" x2="528.9" y2="729.2"/>
				<line class="st3" x1="536.5" y1="685.2" x2="536.5" y2="729.2"/>
				<line class="st3" x1="544.2" y1="685.2" x2="544.2" y2="729.2"/>
				<line class="st3" x1="551.8" y1="685.2" x2="551.8" y2="729.2"/>
				<line class="st3" x1="559.4" y1="685.2" x2="559.4" y2="729.2"/>
				<line class="st3" x1="567" y1="685.2" x2="567" y2="729.2"/>
				<line class="st3" x1="574.6" y1="685.2" x2="574.6" y2="729.2"/>
				<line class="st3" x1="582.2" y1="685.2" x2="582.2" y2="729.2"/>
				<line class="st3" x1="589.8" y1="685.2" x2="589.8" y2="729.2"/>
				<line class="st3" x1="597.5" y1="685.2" x2="597.5" y2="729.2"/>
			</g>
			<g>
				<line class="st3" x1="498.5" y1="819.6" x2="498.5" y2="863.6"/>
				<line class="st3" x1="506.1" y1="819.6" x2="506.1" y2="863.6"/>
				<line class="st3" x1="513.7" y1="819.6" x2="513.7" y2="863.6"/>
				<line class="st3" x1="521.3" y1="819.6" x2="521.3" y2="863.6"/>
				<line class="st3" x1="528.9" y1="819.6" x2="528.9" y2="863.6"/>
				<line class="st3" x1="536.5" y1="819.6" x2="536.5" y2="863.6"/>
				<line class="st3" x1="544.2" y1="819.6" x2="544.2" y2="863.6"/>
				<line class="st3" x1="551.8" y1="819.6" x2="551.8" y2="863.6"/>
				<line class="st3" x1="559.4" y1="819.6" x2="559.4" y2="863.6"/>
				<line class="st3" x1="567" y1="819.6" x2="567" y2="863.6"/>
				<line class="st3" x1="574.6" y1="819.6" x2="574.6" y2="863.6"/>
				<line class="st3" x1="582.2" y1="819.6" x2="582.2" y2="863.6"/>
				<line class="st3" x1="589.8" y1="819.6" x2="589.8" y2="863.6"/>
				<line class="st3" x1="597.5" y1="819.6" x2="597.5" y2="863.6"/>
			</g>
			<g>
				<line class="st3" x1="498.5" y1="742.3" x2="498.5" y2="806.5"/>
				<line class="st3" x1="506.1" y1="742.3" x2="506.1" y2="806.5"/>
				<line class="st3" x1="513.7" y1="742.3" x2="513.7" y2="806.5"/>
				<line class="st3" x1="521.3" y1="742.3" x2="521.3" y2="806.5"/>
				<line class="st3" x1="528.9" y1="742.3" x2="528.9" y2="806.5"/>
				<line class="st3" x1="536.5" y1="742.3" x2="536.5" y2="806.5"/>
				<line class="st3" x1="544.2" y1="742.3" x2="544.2" y2="806.5"/>
				<line class="st3" x1="551.8" y1="742.3" x2="551.8" y2="806.5"/>
				<line class="st3" x1="559.4" y1="742.3" x2="559.4" y2="806.5"/>
				<line class="st3" x1="567" y1="742.3" x2="567" y2="806.5"/>
				<line class="st3" x1="574.6" y1="742.3" x2="574.6" y2="806.5"/>
				<line class="st3" x1="582.2" y1="742.3" x2="582.2" y2="806.5"/>
				<line class="st3" x1="589.8" y1="742.3" x2="589.8" y2="806.5"/>
				<line class="st3" x1="597.5" y1="742.3" x2="597.5" y2="806.5"/>
			</g>
		</g>
		<g>
			<g>
				<line class="st3" x1="88.5" y1="506.8" x2="88.5" y2="537.3"/>
				<line class="st3" x1="96.1" y1="506.8" x2="96.1" y2="537.3"/>
				<line class="st3" x1="103.7" y1="506.8" x2="103.7" y2="537.3"/>
				<line class="st3" x1="111.4" y1="506.8" x2="111.4" y2="537.3"/>
				<line class="st3" x1="119" y1="506.8" x2="119" y2="537.3"/>
				<line class="st3" x1="126.6" y1="506.8" x2="126.6" y2="537.3"/>
				<line class="st3" x1="134.2" y1="506.8" x2="134.2" y2="537.3"/>
				<line class="st3" x1="141.8" y1="506.8" x2="141.8" y2="537.3"/>
				<line class="st3" x1="149.4" y1="506.8" x2="149.4" y2="537.3"/>
				<line class="st3" x1="157.1" y1="506.8" x2="157.1" y2="537.3"/>
				<line class="st3" x1="164.7" y1="506.8" x2="164.7" y2="537.3"/>
				<line class="st3" x1="172.3" y1="506.8" x2="172.3" y2="537.3"/>
				<line class="st3" x1="179.9" y1="506.8" x2="179.9" y2="537.3"/>
				<line class="st3" x1="187.5" y1="506.8" x2="187.5" y2="537.3"/>
			</g>
			<g>
				<line class="st3" x1="88.5" y1="541.6" x2="88.5" y2="572.1"/>
				<line class="st3" x1="96.1" y1="541.6" x2="96.1" y2="572.1"/>
				<line class="st3" x1="103.7" y1="541.6" x2="103.7" y2="572.1"/>
				<line class="st3" x1="111.4" y1="541.6" x2="111.4" y2="572.1"/>
				<line class="st3" x1="119" y1="541.6" x2="119" y2="572.1"/>
				<line class="st3" x1="126.6" y1="541.6" x2="126.6" y2="572.1"/>
				<line class="st3" x1="134.2" y1="541.6" x2="134.2" y2="572.1"/>
				<line class="st3" x1="141.8" y1="541.6" x2="141.8" y2="572.1"/>
				<line class="st3" x1="149.4" y1="541.6" x2="149.4" y2="572.1"/>
				<line class="st3" x1="157.1" y1="541.6" x2="157.1" y2="572.1"/>
				<line class="st3" x1="164.7" y1="541.6" x2="164.7" y2="572.1"/>
				<line class="st3" x1="172.3" y1="541.6" x2="172.3" y2="572.1"/>
				<line class="st3" x1="179.9" y1="541.6" x2="179.9" y2="572.1"/>
				<line class="st3" x1="187.5" y1="541.6" x2="187.5" y2="572.1"/>
			</g>
		</g>
	</g>
	<g id="actovy">
		<rect x="2573" y="1970.7" class="st4" width="169" height="350"/>
		<g id="seats_4_">
			<g id="row_7_">
				<path class="st5" d="M2169.2,2016.1h-10c-2,0-3.5-1.6-3.5-3.5v-10c0-2,1.6-3.5,3.5-3.5h10c2,0,3.5,1.6,3.5,3.5v10
					C2172.7,2014.5,2171.1,2016.1,2169.2,2016.1z"/>
				<path class="st5" d="M2169.2,2036.1h-10c-2,0-3.5-1.6-3.5-3.5v-10c0-2,1.6-3.5,3.5-3.5h10c2,0,3.5,1.6,3.5,3.5v10
					C2172.7,2034.5,2171.1,2036.1,2169.2,2036.1z"/>
				<path class="st5" d="M2169.2,2056.2h-10c-2,0-3.5-1.6-3.5-3.5v-10c0-2,1.6-3.5,3.5-3.5h10c2,0,3.5,1.6,3.5,3.5v10
					C2172.7,2054.6,2171.1,2056.2,2169.2,2056.2z"/>
				<path class="st5" d="M2169.2,2078.3h-10c-2,0-3.5-1.6-3.5-3.5v-10c0-2,1.6-3.5,3.5-3.5h10c2,0,3.5,1.6,3.5,3.5v10
					C2172.7,2076.7,2171.1,2078.3,2169.2,2078.3z"/>
				<path class="st5" d="M2169.2,2100.4h-10c-2,0-3.5-1.6-3.5-3.5v-10c0-2,1.6-3.5,3.5-3.5h10c2,0,3.5,1.6,3.5,3.5v10
					C2172.7,2098.8,2171.1,2100.4,2169.2,2100.4z"/>
			</g>
			<g>
				<path class="st5" d="M2190.8,2016.1h-10c-2,0-3.5-1.6-3.5-3.5v-10c0-2,1.6-3.5,3.5-3.5h10c2,0,3.5,1.6,3.5,3.5v10
					C2194.3,2014.5,2192.7,2016.1,2190.8,2016.1z"/>
				<path class="st5" d="M2190.8,2036.1h-10c-2,0-3.5-1.6-3.5-3.5v-10c0-2,1.6-3.5,3.5-3.5h10c2,0,3.5,1.6,3.5,3.5v10
					C2194.3,2034.5,2192.7,2036.1,2190.8,2036.1z"/>
				<path class="st5" d="M2190.8,2056.2h-10c-2,0-3.5-1.6-3.5-3.5v-10c0-2,1.6-3.5,3.5-3.5h10c2,0,3.5,1.6,3.5,3.5v10
					C2194.3,2054.6,2192.7,2056.2,2190.8,2056.2z"/>
				<path class="st5" d="M2190.8,2078.3h-10c-2,0-3.5-1.6-3.5-3.5v-10c0-2,1.6-3.5,3.5-3.5h10c2,0,3.5,1.6,3.5,3.5v10
					C2194.3,2076.7,2192.7,2078.3,2190.8,2078.3z"/>
				<path class="st5" d="M2190.8,2100.4h-10c-2,0-3.5-1.6-3.5-3.5v-10c0-2,1.6-3.5,3.5-3.5h10c2,0,3.5,1.6,3.5,3.5v10
					C2194.3,2098.8,2192.7,2100.4,2190.8,2100.4z"/>
			</g>
			<g>
				<path class="st5" d="M2212.4,2016.1h-10c-2,0-3.5-1.6-3.5-3.5v-10c0-2,1.6-3.5,3.5-3.5h10c2,0,3.5,1.6,3.5,3.5v10
					C2215.9,2014.5,2214.3,2016.1,2212.4,2016.1z"/>
				<path class="st5" d="M2212.4,2036.1h-10c-2,0-3.5-1.6-3.5-3.5v-10c0-2,1.6-3.5,3.5-3.5h10c2,0,3.5,1.6,3.5,3.5v10
					C2215.9,2034.5,2214.3,2036.1,2212.4,2036.1z"/>
				<path class="st5" d="M2212.4,2056.2h-10c-2,0-3.5-1.6-3.5-3.5v-10c0-2,1.6-3.5,3.5-3.5h10c2,0,3.5,1.6,3.5,3.5v10
					C2215.9,2054.6,2214.3,2056.2,2212.4,2056.2z"/>
				<path class="st5" d="M2212.4,2078.3h-10c-2,0-3.5-1.6-3.5-3.5v-10c0-2,1.6-3.5,3.5-3.5h10c2,0,3.5,1.6,3.5,3.5v10
					C2215.9,2076.7,2214.3,2078.3,2212.4,2078.3z"/>
				<path class="st5" d="M2212.4,2100.4h-10c-2,0-3.5-1.6-3.5-3.5v-10c0-2,1.6-3.5,3.5-3.5h10c2,0,3.5,1.6,3.5,3.5v10
					C2215.9,2098.8,2214.3,2100.4,2212.4,2100.4z"/>
			</g>
			<g>
				<path class="st5" d="M2234,2016.1h-10c-2,0-3.5-1.6-3.5-3.5v-10c0-2,1.6-3.5,3.5-3.5h10c2,0,3.5,1.6,3.5,3.5v10
					C2237.5,2014.5,2235.9,2016.1,2234,2016.1z"/>
				<path class="st5" d="M2234,2036.1h-10c-2,0-3.5-1.6-3.5-3.5v-10c0-2,1.6-3.5,3.5-3.5h10c2,0,3.5,1.6,3.5,3.5v10
					C2237.5,2034.5,2235.9,2036.1,2234,2036.1z"/>
				<path class="st5" d="M2234,2056.2h-10c-2,0-3.5-1.6-3.5-3.5v-10c0-2,1.6-3.5,3.5-3.5h10c2,0,3.5,1.6,3.5,3.5v10
					C2237.5,2054.6,2235.9,2056.2,2234,2056.2z"/>
				<path class="st5" d="M2234,2078.3h-10c-2,0-3.5-1.6-3.5-3.5v-10c0-2,1.6-3.5,3.5-3.5h10c2,0,3.5,1.6,3.5,3.5v10
					C2237.5,2076.7,2235.9,2078.3,2234,2078.3z"/>
				<path class="st5" d="M2234,2100.4h-10c-2,0-3.5-1.6-3.5-3.5v-10c0-2,1.6-3.5,3.5-3.5h10c2,0,3.5,1.6,3.5,3.5v10
					C2237.5,2098.8,2235.9,2100.4,2234,2100.4z"/>
			</g>
			<g>
				<path class="st5" d="M2255.6,2016.1h-10c-2,0-3.5-1.6-3.5-3.5v-10c0-2,1.6-3.5,3.5-3.5h10c2,0,3.5,1.6,3.5,3.5v10
					C2259.1,2014.5,2257.5,2016.1,2255.6,2016.1z"/>
				<path class="st5" d="M2255.6,2036.1h-10c-2,0-3.5-1.6-3.5-3.5v-10c0-2,1.6-3.5,3.5-3.5h10c2,0,3.5,1.6,3.5,3.5v10
					C2259.1,2034.5,2257.5,2036.1,2255.6,2036.1z"/>
				<path class="st5" d="M2255.6,2056.2h-10c-2,0-3.5-1.6-3.5-3.5v-10c0-2,1.6-3.5,3.5-3.5h10c2,0,3.5,1.6,3.5,3.5v10
					C2259.1,2054.6,2257.5,2056.2,2255.6,2056.2z"/>
				<path class="st5" d="M2255.6,2078.3h-10c-2,0-3.5-1.6-3.5-3.5v-10c0-2,1.6-3.5,3.5-3.5h10c2,0,3.5,1.6,3.5,3.5v10
					C2259.1,2076.7,2257.5,2078.3,2255.6,2078.3z"/>
				<path class="st5" d="M2255.6,2100.4h-10c-2,0-3.5-1.6-3.5-3.5v-10c0-2,1.6-3.5,3.5-3.5h10c2,0,3.5,1.6,3.5,3.5v10
					C2259.1,2098.8,2257.5,2100.4,2255.6,2100.4z"/>
			</g>
			<g>
				<path class="st5" d="M2277.2,2016.1h-10c-2,0-3.5-1.6-3.5-3.5v-10c0-2,1.6-3.5,3.5-3.5h10c2,0,3.5,1.6,3.5,3.5v10
					C2280.7,2014.5,2279.1,2016.1,2277.2,2016.1z"/>
				<path class="st5" d="M2277.2,2036.1h-10c-2,0-3.5-1.6-3.5-3.5v-10c0-2,1.6-3.5,3.5-3.5h10c2,0,3.5,1.6,3.5,3.5v10
					C2280.7,2034.5,2279.1,2036.1,2277.2,2036.1z"/>
				<path class="st5" d="M2277.2,2056.2h-10c-2,0-3.5-1.6-3.5-3.5v-10c0-2,1.6-3.5,3.5-3.5h10c2,0,3.5,1.6,3.5,3.5v10
					C2280.7,2054.6,2279.1,2056.2,2277.2,2056.2z"/>
				<path class="st5" d="M2277.2,2078.3h-10c-2,0-3.5-1.6-3.5-3.5v-10c0-2,1.6-3.5,3.5-3.5h10c2,0,3.5,1.6,3.5,3.5v10
					C2280.7,2076.7,2279.1,2078.3,2277.2,2078.3z"/>
				<path class="st5" d="M2277.2,2100.4h-10c-2,0-3.5-1.6-3.5-3.5v-10c0-2,1.6-3.5,3.5-3.5h10c2,0,3.5,1.6,3.5,3.5v10
					C2280.7,2098.8,2279.1,2100.4,2277.2,2100.4z"/>
			</g>
			<g>
				<path class="st5" d="M2298.8,2016.1h-10c-2,0-3.5-1.6-3.5-3.5v-10c0-2,1.6-3.5,3.5-3.5h10c2,0,3.5,1.6,3.5,3.5v10
					C2302.3,2014.5,2300.7,2016.1,2298.8,2016.1z"/>
				<path class="st5" d="M2298.8,2036.1h-10c-2,0-3.5-1.6-3.5-3.5v-10c0-2,1.6-3.5,3.5-3.5h10c2,0,3.5,1.6,3.5,3.5v10
					C2302.3,2034.5,2300.7,2036.1,2298.8,2036.1z"/>
				<path class="st5" d="M2298.8,2056.2h-10c-2,0-3.5-1.6-3.5-3.5v-10c0-2,1.6-3.5,3.5-3.5h10c2,0,3.5,1.6,3.5,3.5v10
					C2302.3,2054.6,2300.7,2056.2,2298.8,2056.2z"/>
				<path class="st5" d="M2298.8,2078.3h-10c-2,0-3.5-1.6-3.5-3.5v-10c0-2,1.6-3.5,3.5-3.5h10c2,0,3.5,1.6,3.5,3.5v10
					C2302.3,2076.7,2300.7,2078.3,2298.8,2078.3z"/>
				<path class="st5" d="M2298.8,2100.4h-10c-2,0-3.5-1.6-3.5-3.5v-10c0-2,1.6-3.5,3.5-3.5h10c2,0,3.5,1.6,3.5,3.5v10
					C2302.3,2098.8,2300.7,2100.4,2298.8,2100.4z"/>
			</g>
			<g>
				<path class="st5" d="M2320.4,2016.1h-10c-2,0-3.5-1.6-3.5-3.5v-10c0-2,1.6-3.5,3.5-3.5h10c2,0,3.5,1.6,3.5,3.5v10
					C2323.9,2014.5,2322.3,2016.1,2320.4,2016.1z"/>
				<path class="st5" d="M2320.4,2036.1h-10c-2,0-3.5-1.6-3.5-3.5v-10c0-2,1.6-3.5,3.5-3.5h10c2,0,3.5,1.6,3.5,3.5v10
					C2323.9,2034.5,2322.3,2036.1,2320.4,2036.1z"/>
				<path class="st5" d="M2320.4,2056.2h-10c-2,0-3.5-1.6-3.5-3.5v-10c0-2,1.6-3.5,3.5-3.5h10c2,0,3.5,1.6,3.5,3.5v10
					C2323.9,2054.6,2322.3,2056.2,2320.4,2056.2z"/>
				<path class="st5" d="M2320.4,2078.3h-10c-2,0-3.5-1.6-3.5-3.5v-10c0-2,1.6-3.5,3.5-3.5h10c2,0,3.5,1.6,3.5,3.5v10
					C2323.9,2076.7,2322.3,2078.3,2320.4,2078.3z"/>
				<path class="st5" d="M2320.4,2100.4h-10c-2,0-3.5-1.6-3.5-3.5v-10c0-2,1.6-3.5,3.5-3.5h10c2,0,3.5,1.6,3.5,3.5v10
					C2323.9,2098.8,2322.3,2100.4,2320.4,2100.4z"/>
			</g>
			<g>
				<path class="st5" d="M2342,2016.1h-10c-2,0-3.5-1.6-3.5-3.5v-10c0-2,1.6-3.5,3.5-3.5h10c2,0,3.5,1.6,3.5,3.5v10
					C2345.5,2014.5,2343.9,2016.1,2342,2016.1z"/>
				<path class="st5" d="M2342,2036.1h-10c-2,0-3.5-1.6-3.5-3.5v-10c0-2,1.6-3.5,3.5-3.5h10c2,0,3.5,1.6,3.5,3.5v10
					C2345.5,2034.5,2343.9,2036.1,2342,2036.1z"/>
				<path class="st5" d="M2342,2056.2h-10c-2,0-3.5-1.6-3.5-3.5v-10c0-2,1.6-3.5,3.5-3.5h10c2,0,3.5,1.6,3.5,3.5v10
					C2345.5,2054.6,2343.9,2056.2,2342,2056.2z"/>
				<path class="st5" d="M2342,2078.3h-10c-2,0-3.5-1.6-3.5-3.5v-10c0-2,1.6-3.5,3.5-3.5h10c2,0,3.5,1.6,3.5,3.5v10
					C2345.5,2076.7,2343.9,2078.3,2342,2078.3z"/>
				<path class="st5" d="M2342,2100.4h-10c-2,0-3.5-1.6-3.5-3.5v-10c0-2,1.6-3.5,3.5-3.5h10c2,0,3.5,1.6,3.5,3.5v10
					C2345.5,2098.8,2343.9,2100.4,2342,2100.4z"/>
			</g>
			<g>
				<path class="st5" d="M2363.6,2016.1h-10c-2,0-3.5-1.6-3.5-3.5v-10c0-2,1.6-3.5,3.5-3.5h10c2,0,3.5,1.6,3.5,3.5v10
					C2367.1,2014.5,2365.5,2016.1,2363.6,2016.1z"/>
				<path class="st5" d="M2363.6,2036.1h-10c-2,0-3.5-1.6-3.5-3.5v-10c0-2,1.6-3.5,3.5-3.5h10c2,0,3.5,1.6,3.5,3.5v10
					C2367.1,2034.5,2365.5,2036.1,2363.6,2036.1z"/>
				<path class="st5" d="M2363.6,2056.2h-10c-2,0-3.5-1.6-3.5-3.5v-10c0-2,1.6-3.5,3.5-3.5h10c2,0,3.5,1.6,3.5,3.5v10
					C2367.1,2054.6,2365.5,2056.2,2363.6,2056.2z"/>
				<path class="st5" d="M2363.6,2078.3h-10c-2,0-3.5-1.6-3.5-3.5v-10c0-2,1.6-3.5,3.5-3.5h10c2,0,3.5,1.6,3.5,3.5v10
					C2367.1,2076.7,2365.5,2078.3,2363.6,2078.3z"/>
				<path class="st5" d="M2363.6,2100.4h-10c-2,0-3.5-1.6-3.5-3.5v-10c0-2,1.6-3.5,3.5-3.5h10c2,0,3.5,1.6,3.5,3.5v10
					C2367.1,2098.8,2365.5,2100.4,2363.6,2100.4z"/>
			</g>
			<g>
				<path class="st5" d="M2385.2,2016.1h-10c-2,0-3.5-1.6-3.5-3.5v-10c0-2,1.6-3.5,3.5-3.5h10c2,0,3.5,1.6,3.5,3.5v10
					C2388.7,2014.5,2387.1,2016.1,2385.2,2016.1z"/>
				<path class="st5" d="M2385.2,2036.1h-10c-2,0-3.5-1.6-3.5-3.5v-10c0-2,1.6-3.5,3.5-3.5h10c2,0,3.5,1.6,3.5,3.5v10
					C2388.7,2034.5,2387.1,2036.1,2385.2,2036.1z"/>
				<path class="st5" d="M2385.2,2056.2h-10c-2,0-3.5-1.6-3.5-3.5v-10c0-2,1.6-3.5,3.5-3.5h10c2,0,3.5,1.6,3.5,3.5v10
					C2388.7,2054.6,2387.1,2056.2,2385.2,2056.2z"/>
				<path class="st5" d="M2385.2,2078.3h-10c-2,0-3.5-1.6-3.5-3.5v-10c0-2,1.6-3.5,3.5-3.5h10c2,0,3.5,1.6,3.5,3.5v10
					C2388.7,2076.7,2387.1,2078.3,2385.2,2078.3z"/>
				<path class="st5" d="M2385.2,2100.4h-10c-2,0-3.5-1.6-3.5-3.5v-10c0-2,1.6-3.5,3.5-3.5h10c2,0,3.5,1.6,3.5,3.5v10
					C2388.7,2098.8,2387.1,2100.4,2385.2,2100.4z"/>
			</g>
			<g>
				<path class="st5" d="M2406.8,2016.1h-10c-2,0-3.5-1.6-3.5-3.5v-10c0-2,1.6-3.5,3.5-3.5h10c2,0,3.5,1.6,3.5,3.5v10
					C2410.3,2014.5,2408.7,2016.1,2406.8,2016.1z"/>
				<path class="st5" d="M2406.8,2036.1h-10c-2,0-3.5-1.6-3.5-3.5v-10c0-2,1.6-3.5,3.5-3.5h10c2,0,3.5,1.6,3.5,3.5v10
					C2410.3,2034.5,2408.7,2036.1,2406.8,2036.1z"/>
				<path class="st5" d="M2406.8,2056.2h-10c-2,0-3.5-1.6-3.5-3.5v-10c0-2,1.6-3.5,3.5-3.5h10c2,0,3.5,1.6,3.5,3.5v10
					C2410.3,2054.6,2408.7,2056.2,2406.8,2056.2z"/>
				<path class="st5" d="M2406.8,2078.3h-10c-2,0-3.5-1.6-3.5-3.5v-10c0-2,1.6-3.5,3.5-3.5h10c2,0,3.5,1.6,3.5,3.5v10
					C2410.3,2076.7,2408.7,2078.3,2406.8,2078.3z"/>
				<path class="st5" d="M2406.8,2100.4h-10c-2,0-3.5-1.6-3.5-3.5v-10c0-2,1.6-3.5,3.5-3.5h10c2,0,3.5,1.6,3.5,3.5v10
					C2410.3,2098.8,2408.7,2100.4,2406.8,2100.4z"/>
			</g>
			<g>
				<path class="st5" d="M2428.4,2016.1h-10c-2,0-3.5-1.6-3.5-3.5v-10c0-2,1.6-3.5,3.5-3.5h10c2,0,3.5,1.6,3.5,3.5v10
					C2431.9,2014.5,2430.3,2016.1,2428.4,2016.1z"/>
				<path class="st5" d="M2428.4,2036.1h-10c-2,0-3.5-1.6-3.5-3.5v-10c0-2,1.6-3.5,3.5-3.5h10c2,0,3.5,1.6,3.5,3.5v10
					C2431.9,2034.5,2430.3,2036.1,2428.4,2036.1z"/>
				<path class="st5" d="M2428.4,2056.2h-10c-2,0-3.5-1.6-3.5-3.5v-10c0-2,1.6-3.5,3.5-3.5h10c2,0,3.5,1.6,3.5,3.5v10
					C2431.9,2054.6,2430.3,2056.2,2428.4,2056.2z"/>
				<path class="st5" d="M2428.4,2078.3h-10c-2,0-3.5-1.6-3.5-3.5v-10c0-2,1.6-3.5,3.5-3.5h10c2,0,3.5,1.6,3.5,3.5v10
					C2431.9,2076.7,2430.3,2078.3,2428.4,2078.3z"/>
				<path class="st5" d="M2428.4,2100.4h-10c-2,0-3.5-1.6-3.5-3.5v-10c0-2,1.6-3.5,3.5-3.5h10c2,0,3.5,1.6,3.5,3.5v10
					C2431.9,2098.8,2430.3,2100.4,2428.4,2100.4z"/>
			</g>
			<g>
				<path class="st5" d="M2450,2016.1h-10c-2,0-3.5-1.6-3.5-3.5v-10c0-2,1.6-3.5,3.5-3.5h10c2,0,3.5,1.6,3.5,3.5v10
					C2453.5,2014.5,2451.9,2016.1,2450,2016.1z"/>
				<path class="st5" d="M2450,2036.1h-10c-2,0-3.5-1.6-3.5-3.5v-10c0-2,1.6-3.5,3.5-3.5h10c2,0,3.5,1.6,3.5,3.5v10
					C2453.5,2034.5,2451.9,2036.1,2450,2036.1z"/>
				<path class="st5" d="M2450,2056.2h-10c-2,0-3.5-1.6-3.5-3.5v-10c0-2,1.6-3.5,3.5-3.5h10c2,0,3.5,1.6,3.5,3.5v10
					C2453.5,2054.6,2451.9,2056.2,2450,2056.2z"/>
				<path class="st5" d="M2450,2078.3h-10c-2,0-3.5-1.6-3.5-3.5v-10c0-2,1.6-3.5,3.5-3.5h10c2,0,3.5,1.6,3.5,3.5v10
					C2453.5,2076.7,2451.9,2078.3,2450,2078.3z"/>
				<path class="st5" d="M2450,2100.4h-10c-2,0-3.5-1.6-3.5-3.5v-10c0-2,1.6-3.5,3.5-3.5h10c2,0,3.5,1.6,3.5,3.5v10
					C2453.5,2098.8,2451.9,2100.4,2450,2100.4z"/>
			</g>
			<g>
				<path class="st5" d="M2471.6,2016.1h-10c-2,0-3.5-1.6-3.5-3.5v-10c0-2,1.6-3.5,3.5-3.5h10c2,0,3.5,1.6,3.5,3.5v10
					C2475.1,2014.5,2473.5,2016.1,2471.6,2016.1z"/>
				<path class="st5" d="M2471.6,2036.1h-10c-2,0-3.5-1.6-3.5-3.5v-10c0-2,1.6-3.5,3.5-3.5h10c2,0,3.5,1.6,3.5,3.5v10
					C2475.1,2034.5,2473.5,2036.1,2471.6,2036.1z"/>
				<path class="st5" d="M2471.6,2056.2h-10c-2,0-3.5-1.6-3.5-3.5v-10c0-2,1.6-3.5,3.5-3.5h10c2,0,3.5,1.6,3.5,3.5v10
					C2475.1,2054.6,2473.5,2056.2,2471.6,2056.2z"/>
				<path class="st5" d="M2471.6,2078.3h-10c-2,0-3.5-1.6-3.5-3.5v-10c0-2,1.6-3.5,3.5-3.5h10c2,0,3.5,1.6,3.5,3.5v10
					C2475.1,2076.7,2473.5,2078.3,2471.6,2078.3z"/>
				<path class="st5" d="M2471.6,2100.4h-10c-2,0-3.5-1.6-3.5-3.5v-10c0-2,1.6-3.5,3.5-3.5h10c2,0,3.5,1.6,3.5,3.5v10
					C2475.1,2098.8,2473.5,2100.4,2471.6,2100.4z"/>
			</g>
			<g id="row_6_">
				<path class="st5" d="M2493.2,2016.1h-10c-2,0-3.5-1.6-3.5-3.5v-10c0-2,1.6-3.5,3.5-3.5h10c2,0,3.5,1.6,3.5,3.5v10
					C2496.7,2014.5,2495.1,2016.1,2493.2,2016.1z"/>
				<path class="st5" d="M2493.2,2036.1h-10c-2,0-3.5-1.6-3.5-3.5v-10c0-2,1.6-3.5,3.5-3.5h10c2,0,3.5,1.6,3.5,3.5v10
					C2496.7,2034.5,2495.1,2036.1,2493.2,2036.1z"/>
				<path class="st5" d="M2493.2,2056.2h-10c-2,0-3.5-1.6-3.5-3.5v-10c0-2,1.6-3.5,3.5-3.5h10c2,0,3.5,1.6,3.5,3.5v10
					C2496.7,2054.6,2495.1,2056.2,2493.2,2056.2z"/>
				<path class="st5" d="M2493.2,2078.3h-10c-2,0-3.5-1.6-3.5-3.5v-10c0-2,1.6-3.5,3.5-3.5h10c2,0,3.5,1.6,3.5,3.5v10
					C2496.7,2076.7,2495.1,2078.3,2493.2,2078.3z"/>
				<path class="st5" d="M2493.2,2100.4h-10c-2,0-3.5-1.6-3.5-3.5v-10c0-2,1.6-3.5,3.5-3.5h10c2,0,3.5,1.6,3.5,3.5v10
					C2496.7,2098.8,2495.1,2100.4,2493.2,2100.4z"/>
			</g>
		</g>
		<g id="seats_1_">
			<g id="row_3_">
				<path class="st5" d="M2169.2,2191h-10c-2,0-3.5-1.6-3.5-3.5v-10c0-2,1.6-3.5,3.5-3.5h10c2,0,3.5,1.6,3.5,3.5v10
					C2172.7,2189.4,2171.1,2191,2169.2,2191z"/>
				<path class="st5" d="M2169.2,2211.1h-10c-2,0-3.5-1.6-3.5-3.5v-10c0-2,1.6-3.5,3.5-3.5h10c2,0,3.5,1.6,3.5,3.5v10
					C2172.7,2209.5,2171.1,2211.1,2169.2,2211.1z"/>
				<path class="st5" d="M2169.2,2231.2h-10c-2,0-3.5-1.6-3.5-3.5v-10c0-2,1.6-3.5,3.5-3.5h10c2,0,3.5,1.6,3.5,3.5v10
					C2172.7,2229.6,2171.1,2231.2,2169.2,2231.2z"/>
				<path class="st5" d="M2169.2,2253.3h-10c-2,0-3.5-1.6-3.5-3.5v-10c0-2,1.6-3.5,3.5-3.5h10c2,0,3.5,1.6,3.5,3.5v10
					C2172.7,2251.7,2171.1,2253.3,2169.2,2253.3z"/>
				<path class="st5" d="M2169.2,2275.4h-10c-2,0-3.5-1.6-3.5-3.5v-10c0-2,1.6-3.5,3.5-3.5h10c2,0,3.5,1.6,3.5,3.5v10
					C2172.7,2273.8,2171.1,2275.4,2169.2,2275.4z"/>
			</g>
			<g>
				<path class="st5" d="M2190.8,2191h-10c-2,0-3.5-1.6-3.5-3.5v-10c0-2,1.6-3.5,3.5-3.5h10c2,0,3.5,1.6,3.5,3.5v10
					C2194.3,2189.4,2192.7,2191,2190.8,2191z"/>
				<path class="st5" d="M2190.8,2211.1h-10c-2,0-3.5-1.6-3.5-3.5v-10c0-2,1.6-3.5,3.5-3.5h10c2,0,3.5,1.6,3.5,3.5v10
					C2194.3,2209.5,2192.7,2211.1,2190.8,2211.1z"/>
				<path class="st5" d="M2190.8,2231.2h-10c-2,0-3.5-1.6-3.5-3.5v-10c0-2,1.6-3.5,3.5-3.5h10c2,0,3.5,1.6,3.5,3.5v10
					C2194.3,2229.6,2192.7,2231.2,2190.8,2231.2z"/>
				<path class="st5" d="M2190.8,2253.3h-10c-2,0-3.5-1.6-3.5-3.5v-10c0-2,1.6-3.5,3.5-3.5h10c2,0,3.5,1.6,3.5,3.5v10
					C2194.3,2251.7,2192.7,2253.3,2190.8,2253.3z"/>
				<path class="st5" d="M2190.8,2275.4h-10c-2,0-3.5-1.6-3.5-3.5v-10c0-2,1.6-3.5,3.5-3.5h10c2,0,3.5,1.6,3.5,3.5v10
					C2194.3,2273.8,2192.7,2275.4,2190.8,2275.4z"/>
			</g>
			<g>
				<path class="st5" d="M2212.4,2191h-10c-2,0-3.5-1.6-3.5-3.5v-10c0-2,1.6-3.5,3.5-3.5h10c2,0,3.5,1.6,3.5,3.5v10
					C2215.9,2189.4,2214.3,2191,2212.4,2191z"/>
				<path class="st5" d="M2212.4,2211.1h-10c-2,0-3.5-1.6-3.5-3.5v-10c0-2,1.6-3.5,3.5-3.5h10c2,0,3.5,1.6,3.5,3.5v10
					C2215.9,2209.5,2214.3,2211.1,2212.4,2211.1z"/>
				<path class="st5" d="M2212.4,2231.2h-10c-2,0-3.5-1.6-3.5-3.5v-10c0-2,1.6-3.5,3.5-3.5h10c2,0,3.5,1.6,3.5,3.5v10
					C2215.9,2229.6,2214.3,2231.2,2212.4,2231.2z"/>
				<path class="st5" d="M2212.4,2253.3h-10c-2,0-3.5-1.6-3.5-3.5v-10c0-2,1.6-3.5,3.5-3.5h10c2,0,3.5,1.6,3.5,3.5v10
					C2215.9,2251.7,2214.3,2253.3,2212.4,2253.3z"/>
				<path class="st5" d="M2212.4,2275.4h-10c-2,0-3.5-1.6-3.5-3.5v-10c0-2,1.6-3.5,3.5-3.5h10c2,0,3.5,1.6,3.5,3.5v10
					C2215.9,2273.8,2214.3,2275.4,2212.4,2275.4z"/>
			</g>
			<g>
				<path class="st5" d="M2234,2191h-10c-2,0-3.5-1.6-3.5-3.5v-10c0-2,1.6-3.5,3.5-3.5h10c2,0,3.5,1.6,3.5,3.5v10
					C2237.5,2189.4,2235.9,2191,2234,2191z"/>
				<path class="st5" d="M2234,2211.1h-10c-2,0-3.5-1.6-3.5-3.5v-10c0-2,1.6-3.5,3.5-3.5h10c2,0,3.5,1.6,3.5,3.5v10
					C2237.5,2209.5,2235.9,2211.1,2234,2211.1z"/>
				<path class="st5" d="M2234,2231.2h-10c-2,0-3.5-1.6-3.5-3.5v-10c0-2,1.6-3.5,3.5-3.5h10c2,0,3.5,1.6,3.5,3.5v10
					C2237.5,2229.6,2235.9,2231.2,2234,2231.2z"/>
				<path class="st5" d="M2234,2253.3h-10c-2,0-3.5-1.6-3.5-3.5v-10c0-2,1.6-3.5,3.5-3.5h10c2,0,3.5,1.6,3.5,3.5v10
					C2237.5,2251.7,2235.9,2253.3,2234,2253.3z"/>
				<path class="st5" d="M2234,2275.4h-10c-2,0-3.5-1.6-3.5-3.5v-10c0-2,1.6-3.5,3.5-3.5h10c2,0,3.5,1.6,3.5,3.5v10
					C2237.5,2273.8,2235.9,2275.4,2234,2275.4z"/>
			</g>
			<g>
				<path class="st5" d="M2255.6,2191h-10c-2,0-3.5-1.6-3.5-3.5v-10c0-2,1.6-3.5,3.5-3.5h10c2,0,3.5,1.6,3.5,3.5v10
					C2259.1,2189.4,2257.5,2191,2255.6,2191z"/>
				<path class="st5" d="M2255.6,2211.1h-10c-2,0-3.5-1.6-3.5-3.5v-10c0-2,1.6-3.5,3.5-3.5h10c2,0,3.5,1.6,3.5,3.5v10
					C2259.1,2209.5,2257.5,2211.1,2255.6,2211.1z"/>
				<path class="st5" d="M2255.6,2231.2h-10c-2,0-3.5-1.6-3.5-3.5v-10c0-2,1.6-3.5,3.5-3.5h10c2,0,3.5,1.6,3.5,3.5v10
					C2259.1,2229.6,2257.5,2231.2,2255.6,2231.2z"/>
				<path class="st5" d="M2255.6,2253.3h-10c-2,0-3.5-1.6-3.5-3.5v-10c0-2,1.6-3.5,3.5-3.5h10c2,0,3.5,1.6,3.5,3.5v10
					C2259.1,2251.7,2257.5,2253.3,2255.6,2253.3z"/>
				<path class="st5" d="M2255.6,2275.4h-10c-2,0-3.5-1.6-3.5-3.5v-10c0-2,1.6-3.5,3.5-3.5h10c2,0,3.5,1.6,3.5,3.5v10
					C2259.1,2273.8,2257.5,2275.4,2255.6,2275.4z"/>
			</g>
			<g>
				<path class="st5" d="M2277.2,2191h-10c-2,0-3.5-1.6-3.5-3.5v-10c0-2,1.6-3.5,3.5-3.5h10c2,0,3.5,1.6,3.5,3.5v10
					C2280.7,2189.4,2279.1,2191,2277.2,2191z"/>
				<path class="st5" d="M2277.2,2211.1h-10c-2,0-3.5-1.6-3.5-3.5v-10c0-2,1.6-3.5,3.5-3.5h10c2,0,3.5,1.6,3.5,3.5v10
					C2280.7,2209.5,2279.1,2211.1,2277.2,2211.1z"/>
				<path class="st5" d="M2277.2,2231.2h-10c-2,0-3.5-1.6-3.5-3.5v-10c0-2,1.6-3.5,3.5-3.5h10c2,0,3.5,1.6,3.5,3.5v10
					C2280.7,2229.6,2279.1,2231.2,2277.2,2231.2z"/>
				<path class="st5" d="M2277.2,2253.3h-10c-2,0-3.5-1.6-3.5-3.5v-10c0-2,1.6-3.5,3.5-3.5h10c2,0,3.5,1.6,3.5,3.5v10
					C2280.7,2251.7,2279.1,2253.3,2277.2,2253.3z"/>
				<path class="st5" d="M2277.2,2275.4h-10c-2,0-3.5-1.6-3.5-3.5v-10c0-2,1.6-3.5,3.5-3.5h10c2,0,3.5,1.6,3.5,3.5v10
					C2280.7,2273.8,2279.1,2275.4,2277.2,2275.4z"/>
			</g>
			<g>
				<path class="st5" d="M2298.8,2191h-10c-2,0-3.5-1.6-3.5-3.5v-10c0-2,1.6-3.5,3.5-3.5h10c2,0,3.5,1.6,3.5,3.5v10
					C2302.3,2189.4,2300.7,2191,2298.8,2191z"/>
				<path class="st5" d="M2298.8,2211.1h-10c-2,0-3.5-1.6-3.5-3.5v-10c0-2,1.6-3.5,3.5-3.5h10c2,0,3.5,1.6,3.5,3.5v10
					C2302.3,2209.5,2300.7,2211.1,2298.8,2211.1z"/>
				<path class="st5" d="M2298.8,2231.2h-10c-2,0-3.5-1.6-3.5-3.5v-10c0-2,1.6-3.5,3.5-3.5h10c2,0,3.5,1.6,3.5,3.5v10
					C2302.3,2229.6,2300.7,2231.2,2298.8,2231.2z"/>
				<path class="st5" d="M2298.8,2253.3h-10c-2,0-3.5-1.6-3.5-3.5v-10c0-2,1.6-3.5,3.5-3.5h10c2,0,3.5,1.6,3.5,3.5v10
					C2302.3,2251.7,2300.7,2253.3,2298.8,2253.3z"/>
				<path class="st5" d="M2298.8,2275.4h-10c-2,0-3.5-1.6-3.5-3.5v-10c0-2,1.6-3.5,3.5-3.5h10c2,0,3.5,1.6,3.5,3.5v10
					C2302.3,2273.8,2300.7,2275.4,2298.8,2275.4z"/>
			</g>
			<g>
				<path class="st5" d="M2320.4,2191h-10c-2,0-3.5-1.6-3.5-3.5v-10c0-2,1.6-3.5,3.5-3.5h10c2,0,3.5,1.6,3.5,3.5v10
					C2323.9,2189.4,2322.3,2191,2320.4,2191z"/>
				<path class="st5" d="M2320.4,2211.1h-10c-2,0-3.5-1.6-3.5-3.5v-10c0-2,1.6-3.5,3.5-3.5h10c2,0,3.5,1.6,3.5,3.5v10
					C2323.9,2209.5,2322.3,2211.1,2320.4,2211.1z"/>
				<path class="st5" d="M2320.4,2231.2h-10c-2,0-3.5-1.6-3.5-3.5v-10c0-2,1.6-3.5,3.5-3.5h10c2,0,3.5,1.6,3.5,3.5v10
					C2323.9,2229.6,2322.3,2231.2,2320.4,2231.2z"/>
				<path class="st5" d="M2320.4,2253.3h-10c-2,0-3.5-1.6-3.5-3.5v-10c0-2,1.6-3.5,3.5-3.5h10c2,0,3.5,1.6,3.5,3.5v10
					C2323.9,2251.7,2322.3,2253.3,2320.4,2253.3z"/>
				<path class="st5" d="M2320.4,2275.4h-10c-2,0-3.5-1.6-3.5-3.5v-10c0-2,1.6-3.5,3.5-3.5h10c2,0,3.5,1.6,3.5,3.5v10
					C2323.9,2273.8,2322.3,2275.4,2320.4,2275.4z"/>
			</g>
			<g>
				<path class="st5" d="M2342,2191h-10c-2,0-3.5-1.6-3.5-3.5v-10c0-2,1.6-3.5,3.5-3.5h10c2,0,3.5,1.6,3.5,3.5v10
					C2345.5,2189.4,2343.9,2191,2342,2191z"/>
				<path class="st5" d="M2342,2211.1h-10c-2,0-3.5-1.6-3.5-3.5v-10c0-2,1.6-3.5,3.5-3.5h10c2,0,3.5,1.6,3.5,3.5v10
					C2345.5,2209.5,2343.9,2211.1,2342,2211.1z"/>
				<path class="st5" d="M2342,2231.2h-10c-2,0-3.5-1.6-3.5-3.5v-10c0-2,1.6-3.5,3.5-3.5h10c2,0,3.5,1.6,3.5,3.5v10
					C2345.5,2229.6,2343.9,2231.2,2342,2231.2z"/>
				<path class="st5" d="M2342,2253.3h-10c-2,0-3.5-1.6-3.5-3.5v-10c0-2,1.6-3.5,3.5-3.5h10c2,0,3.5,1.6,3.5,3.5v10
					C2345.5,2251.7,2343.9,2253.3,2342,2253.3z"/>
				<path class="st5" d="M2342,2275.4h-10c-2,0-3.5-1.6-3.5-3.5v-10c0-2,1.6-3.5,3.5-3.5h10c2,0,3.5,1.6,3.5,3.5v10
					C2345.5,2273.8,2343.9,2275.4,2342,2275.4z"/>
			</g>
			<g>
				<path class="st5" d="M2363.6,2191h-10c-2,0-3.5-1.6-3.5-3.5v-10c0-2,1.6-3.5,3.5-3.5h10c2,0,3.5,1.6,3.5,3.5v10
					C2367.1,2189.4,2365.5,2191,2363.6,2191z"/>
				<path class="st5" d="M2363.6,2211.1h-10c-2,0-3.5-1.6-3.5-3.5v-10c0-2,1.6-3.5,3.5-3.5h10c2,0,3.5,1.6,3.5,3.5v10
					C2367.1,2209.5,2365.5,2211.1,2363.6,2211.1z"/>
				<path class="st5" d="M2363.6,2231.2h-10c-2,0-3.5-1.6-3.5-3.5v-10c0-2,1.6-3.5,3.5-3.5h10c2,0,3.5,1.6,3.5,3.5v10
					C2367.1,2229.6,2365.5,2231.2,2363.6,2231.2z"/>
				<path class="st5" d="M2363.6,2253.3h-10c-2,0-3.5-1.6-3.5-3.5v-10c0-2,1.6-3.5,3.5-3.5h10c2,0,3.5,1.6,3.5,3.5v10
					C2367.1,2251.7,2365.5,2253.3,2363.6,2253.3z"/>
				<path class="st5" d="M2363.6,2275.4h-10c-2,0-3.5-1.6-3.5-3.5v-10c0-2,1.6-3.5,3.5-3.5h10c2,0,3.5,1.6,3.5,3.5v10
					C2367.1,2273.8,2365.5,2275.4,2363.6,2275.4z"/>
			</g>
			<g>
				<path class="st5" d="M2385.2,2191h-10c-2,0-3.5-1.6-3.5-3.5v-10c0-2,1.6-3.5,3.5-3.5h10c2,0,3.5,1.6,3.5,3.5v10
					C2388.7,2189.4,2387.1,2191,2385.2,2191z"/>
				<path class="st5" d="M2385.2,2211.1h-10c-2,0-3.5-1.6-3.5-3.5v-10c0-2,1.6-3.5,3.5-3.5h10c2,0,3.5,1.6,3.5,3.5v10
					C2388.7,2209.5,2387.1,2211.1,2385.2,2211.1z"/>
				<path class="st5" d="M2385.2,2231.2h-10c-2,0-3.5-1.6-3.5-3.5v-10c0-2,1.6-3.5,3.5-3.5h10c2,0,3.5,1.6,3.5,3.5v10
					C2388.7,2229.6,2387.1,2231.2,2385.2,2231.2z"/>
				<path class="st5" d="M2385.2,2253.3h-10c-2,0-3.5-1.6-3.5-3.5v-10c0-2,1.6-3.5,3.5-3.5h10c2,0,3.5,1.6,3.5,3.5v10
					C2388.7,2251.7,2387.1,2253.3,2385.2,2253.3z"/>
				<path class="st5" d="M2385.2,2275.4h-10c-2,0-3.5-1.6-3.5-3.5v-10c0-2,1.6-3.5,3.5-3.5h10c2,0,3.5,1.6,3.5,3.5v10
					C2388.7,2273.8,2387.1,2275.4,2385.2,2275.4z"/>
			</g>
			<g>
				<path class="st5" d="M2406.8,2191h-10c-2,0-3.5-1.6-3.5-3.5v-10c0-2,1.6-3.5,3.5-3.5h10c2,0,3.5,1.6,3.5,3.5v10
					C2410.3,2189.4,2408.7,2191,2406.8,2191z"/>
				<path class="st5" d="M2406.8,2211.1h-10c-2,0-3.5-1.6-3.5-3.5v-10c0-2,1.6-3.5,3.5-3.5h10c2,0,3.5,1.6,3.5,3.5v10
					C2410.3,2209.5,2408.7,2211.1,2406.8,2211.1z"/>
				<path class="st5" d="M2406.8,2231.2h-10c-2,0-3.5-1.6-3.5-3.5v-10c0-2,1.6-3.5,3.5-3.5h10c2,0,3.5,1.6,3.5,3.5v10
					C2410.3,2229.6,2408.7,2231.2,2406.8,2231.2z"/>
				<path class="st5" d="M2406.8,2253.3h-10c-2,0-3.5-1.6-3.5-3.5v-10c0-2,1.6-3.5,3.5-3.5h10c2,0,3.5,1.6,3.5,3.5v10
					C2410.3,2251.7,2408.7,2253.3,2406.8,2253.3z"/>
				<path class="st5" d="M2406.8,2275.4h-10c-2,0-3.5-1.6-3.5-3.5v-10c0-2,1.6-3.5,3.5-3.5h10c2,0,3.5,1.6,3.5,3.5v10
					C2410.3,2273.8,2408.7,2275.4,2406.8,2275.4z"/>
			</g>
			<g>
				<path class="st5" d="M2428.4,2191h-10c-2,0-3.5-1.6-3.5-3.5v-10c0-2,1.6-3.5,3.5-3.5h10c2,0,3.5,1.6,3.5,3.5v10
					C2431.9,2189.4,2430.3,2191,2428.4,2191z"/>
				<path class="st5" d="M2428.4,2211.1h-10c-2,0-3.5-1.6-3.5-3.5v-10c0-2,1.6-3.5,3.5-3.5h10c2,0,3.5,1.6,3.5,3.5v10
					C2431.9,2209.5,2430.3,2211.1,2428.4,2211.1z"/>
				<path class="st5" d="M2428.4,2231.2h-10c-2,0-3.5-1.6-3.5-3.5v-10c0-2,1.6-3.5,3.5-3.5h10c2,0,3.5,1.6,3.5,3.5v10
					C2431.9,2229.6,2430.3,2231.2,2428.4,2231.2z"/>
				<path class="st5" d="M2428.4,2253.3h-10c-2,0-3.5-1.6-3.5-3.5v-10c0-2,1.6-3.5,3.5-3.5h10c2,0,3.5,1.6,3.5,3.5v10
					C2431.9,2251.7,2430.3,2253.3,2428.4,2253.3z"/>
				<path class="st5" d="M2428.4,2275.4h-10c-2,0-3.5-1.6-3.5-3.5v-10c0-2,1.6-3.5,3.5-3.5h10c2,0,3.5,1.6,3.5,3.5v10
					C2431.9,2273.8,2430.3,2275.4,2428.4,2275.4z"/>
			</g>
			<g>
				<path class="st5" d="M2450,2191h-10c-2,0-3.5-1.6-3.5-3.5v-10c0-2,1.6-3.5,3.5-3.5h10c2,0,3.5,1.6,3.5,3.5v10
					C2453.5,2189.4,2451.9,2191,2450,2191z"/>
				<path class="st5" d="M2450,2211.1h-10c-2,0-3.5-1.6-3.5-3.5v-10c0-2,1.6-3.5,3.5-3.5h10c2,0,3.5,1.6,3.5,3.5v10
					C2453.5,2209.5,2451.9,2211.1,2450,2211.1z"/>
				<path class="st5" d="M2450,2231.2h-10c-2,0-3.5-1.6-3.5-3.5v-10c0-2,1.6-3.5,3.5-3.5h10c2,0,3.5,1.6,3.5,3.5v10
					C2453.5,2229.6,2451.9,2231.2,2450,2231.2z"/>
				<path class="st5" d="M2450,2253.3h-10c-2,0-3.5-1.6-3.5-3.5v-10c0-2,1.6-3.5,3.5-3.5h10c2,0,3.5,1.6,3.5,3.5v10
					C2453.5,2251.7,2451.9,2253.3,2450,2253.3z"/>
				<path class="st5" d="M2450,2275.4h-10c-2,0-3.5-1.6-3.5-3.5v-10c0-2,1.6-3.5,3.5-3.5h10c2,0,3.5,1.6,3.5,3.5v10
					C2453.5,2273.8,2451.9,2275.4,2450,2275.4z"/>
			</g>
			<g>
				<path class="st5" d="M2471.6,2191h-10c-2,0-3.5-1.6-3.5-3.5v-10c0-2,1.6-3.5,3.5-3.5h10c2,0,3.5,1.6,3.5,3.5v10
					C2475.1,2189.4,2473.5,2191,2471.6,2191z"/>
				<path class="st5" d="M2471.6,2211.1h-10c-2,0-3.5-1.6-3.5-3.5v-10c0-2,1.6-3.5,3.5-3.5h10c2,0,3.5,1.6,3.5,3.5v10
					C2475.1,2209.5,2473.5,2211.1,2471.6,2211.1z"/>
				<path class="st5" d="M2471.6,2231.2h-10c-2,0-3.5-1.6-3.5-3.5v-10c0-2,1.6-3.5,3.5-3.5h10c2,0,3.5,1.6,3.5,3.5v10
					C2475.1,2229.6,2473.5,2231.2,2471.6,2231.2z"/>
				<path class="st5" d="M2471.6,2253.3h-10c-2,0-3.5-1.6-3.5-3.5v-10c0-2,1.6-3.5,3.5-3.5h10c2,0,3.5,1.6,3.5,3.5v10
					C2475.1,2251.7,2473.5,2253.3,2471.6,2253.3z"/>
				<path class="st5" d="M2471.6,2275.4h-10c-2,0-3.5-1.6-3.5-3.5v-10c0-2,1.6-3.5,3.5-3.5h10c2,0,3.5,1.6,3.5,3.5v10
					C2475.1,2273.8,2473.5,2275.4,2471.6,2275.4z"/>
			</g>
			<g id="row_2_">
				<path class="st5" d="M2493.2,2191h-10c-2,0-3.5-1.6-3.5-3.5v-10c0-2,1.6-3.5,3.5-3.5h10c2,0,3.5,1.6,3.5,3.5v10
					C2496.7,2189.4,2495.1,2191,2493.2,2191z"/>
				<path class="st5" d="M2493.2,2211.1h-10c-2,0-3.5-1.6-3.5-3.5v-10c0-2,1.6-3.5,3.5-3.5h10c2,0,3.5,1.6,3.5,3.5v10
					C2496.7,2209.5,2495.1,2211.1,2493.2,2211.1z"/>
				<path class="st5" d="M2493.2,2231.2h-10c-2,0-3.5-1.6-3.5-3.5v-10c0-2,1.6-3.5,3.5-3.5h10c2,0,3.5,1.6,3.5,3.5v10
					C2496.7,2229.6,2495.1,2231.2,2493.2,2231.2z"/>
				<path class="st5" d="M2493.2,2253.3h-10c-2,0-3.5-1.6-3.5-3.5v-10c0-2,1.6-3.5,3.5-3.5h10c2,0,3.5,1.6,3.5,3.5v10
					C2496.7,2251.7,2495.1,2253.3,2493.2,2253.3z"/>
				<path class="st5" d="M2493.2,2275.4h-10c-2,0-3.5-1.6-3.5-3.5v-10c0-2,1.6-3.5,3.5-3.5h10c2,0,3.5,1.6,3.5,3.5v10
					C2496.7,2273.8,2495.1,2275.4,2493.2,2275.4z"/>
			</g>
		</g>
	</g>
	<g id="schema">
		<path class="st6" d="M253,589.7"/>
		<polyline class="st7" points="422.2,589.7 253,589.7 253,2325.7 2747,2325.7 2747,1965.7 1948,1965.7 1948,1854.7 1898,1854.7 		
			"/>
		<path class="st6" d="M434,589.7"/>
		<polyline class="st7" points="1843,1855.7 1796.6,1855.7 1796.6,1905.6 1265,1905.6 1265,1959.7 1104,1959.7 1104,1907.7 
			491,1907.7 491,1752.7 652,1752.7 652,1191.7 693.3,1191.7 693.3,1096.7 653.7,1096.7 653.7,589.7 476.8,589.7 		"/>
		<path class="st6" d="M468,586.7"/>
		<line class="st7" x1="2109.5" y1="1965.7" x2="2109.5" y2="2325.7"/>
		<polyline class="st7" points="1948,1965.7 1948,2088.2 2109.5,2088.2 		"/>
		<polyline class="st7" points="2109.5,2190.1 1948.5,2190.1 1948.5,2325.7 		"/>
		<polyline class="st7" points="1796.6,1905.6 1796.6,2073.2 491.5,2074.2 491,1907.7 		"/>
		<polyline class="st7" points="1948.5,2190.1 1948.5,2165 253,2165 		"/>
		<polyline class="st7" points="253,1905.6 413.5,1905.6 413.5,589.7 		"/>
		<path class="st7" d="M652,1191.7"/>
		<line class="st7" x1="491" y1="681" x2="491" y2="589.7"/>
		<line class="st7" x1="491" y1="1101.2" x2="491" y2="866"/>
		<line class="st7" x1="491" y1="1752.7" x2="491" y2="1187.2"/>
		<line class="st7" x1="1796.6" y1="2325.7" x2="1796.6" y2="2165"/>
		<line class="st7" x1="1672.5" y1="1905.6" x2="1672.5" y2="2073.3"/>
		<line class="st7" x1="1573.1" y1="1905.6" x2="1573.1" y2="2073.3"/>
		<line class="st7" x1="1573.1" y1="2165" x2="1573.1" y2="2325.7"/>
		<line class="st7" x1="1265" y1="1959.7" x2="1265" y2="2073.3"/>
		<line class="st7" x1="1265" y1="2165" x2="1265" y2="2325.7"/>
		<line class="st7" x1="1104" y1="1959.7" x2="1104" y2="2073.8"/>
		<line class="st7" x1="1104" y1="2165" x2="1104" y2="2325.7"/>
		<line class="st7" x1="1032.6" y1="2165" x2="1032.6" y2="2325.7"/>
		<line class="st7" x1="949.6" y1="1907.7" x2="949.6" y2="2073.9"/>
		<line class="st7" x1="871.8" y1="1907.7" x2="871.8" y2="2074.2"/>
		<line class="st7" x1="892" y1="2165" x2="892" y2="2325.7"/>
		<line class="st7" x1="657.3" y1="2165" x2="657.3" y2="2325.7"/>
		<line class="st7" x1="642.4" y1="1907.7" x2="642.4" y2="2074.2"/>
		<line class="st7" x1="491" y1="2165" x2="491" y2="2325.7"/>
		<polyline class="st7" points="418,2074.2 390.7,2074.2 253,2074.2 		"/>
		<line class="st7" x1="413.5" y1="1905.6" x2="413.5" y2="2074.2"/>
		<line class="st7" x1="253" y1="1605.8" x2="413.5" y2="1605.8"/>
		<line class="st7" x1="253" y1="1521.8" x2="413.5" y2="1521.8"/>
		<line class="st7" x1="491" y1="1521.8" x2="652" y2="1521.8"/>
		<line class="st7" x1="491" y1="1272.2" x2="652" y2="1272.2"/>
		<line class="st7" x1="652" y1="1191.7" x2="491" y2="1191.7"/>
		<line class="st7" x1="653.7" y1="1096.7" x2="491" y2="1096.7"/>
		<line class="st7" x1="413.5" y1="1096.7" x2="253" y2="1096.7"/>
		<polyline class="st7" points="653.7,960.7 491,960.7 470.6,960.7 		"/>
		<line class="st7" x1="435.5" y1="960.7" x2="253" y2="960.7"/>
		<line class="st7" x1="491" y1="870.5" x2="653.7" y2="870.5"/>
		<line class="st7" x1="413.5" y1="810.5" x2="253" y2="810.5"/>
		<line class="st7" x1="653.7" y1="676.6" x2="468" y2="676.6"/>
		<line class="st7" x1="436" y1="676.6" x2="253" y2="676.6"/>
		<line class="st7" x1="253.4" y1="570.4" x2="253.4" y2="589.2"/>
		<polyline class="st7" points="31.1,490.4 253.4,490.4 253.4,504.2 		"/>
		<polyline class="st7" points="653.1,589.7 712.7,589.7 712.7,21.1 26.6,21.1 26.6,489.8 26.6,589.7 294.8,589.7 350.6,589.7 		"/>
	</g>
</g>
<g id="Слой_2">
	<circle class="st8" cx="367.8" cy="271" r="121"/>
	<g>
		<circle class="st9" cx="367" cy="271" r="55"/>
	</g>
	<g>
		<circle class="st10" cx="367" cy="271" r="47"/>
	</g>
	<g>
		
			<ellipse transform="matrix(0.9239 -0.3827 0.3827 0.9239 -75.771 161.0735)" class="st11" cx="367" cy="271" rx="37.2" ry="37.2"/>
	</g>
	<g>
		<circle class="st12" cx="367" cy="271" r="28.3"/>
	</g>
	<g>
		<circle class="st13" cx="367" cy="271" r="18.6"/>
	</g>
	<g>
		<circle class="st14" cx="367" cy="271" r="8.7"/>
		<circle class="st15" cx="367" cy="271" r="8.7"/>
	</g>
</g>
</svg>
