<?xml version="1.0" encoding="utf-8"?>
<!-- Generator: Adobe Illustrator 25.0.1, SVG Export Plug-In . SVG Version: 6.00 Build 0)  -->
<svg version="1.1" id="floor_3" xmlns="http://www.w3.org/2000/svg" xmlns:xlink="http://www.w3.org/1999/xlink" x="0px" y="0px"
	 viewBox="0 0 2975 2350" style="enable-background:new 0 0 2975 2350;" xml:space="preserve">
<style type="text/css">
	.st0{fill:none;stroke:#4D4D4D;stroke-width:8;stroke-miterlimit:10;}
	.st1{fill:none;stroke:#4D4D4D;stroke-width:9;stroke-miterlimit:10;}
	.st2{opacity:0.5;fill:#C1272D;enable-background:new    ;}
	.st3{fill:#C1272D;}
	.st4{fill:none;stroke:#0071BC;stroke-width:3;stroke-miterlimit:10;}
</style>
<g id="schema_2_">
	<path class="st0" d="M253,589.7"/>
	<polyline class="st1" points="1898,1854.7 1948,1854.7 1948,1965.7 2747,1965.7 2747,2325.7 253,2325.7 253,589.7 439.8,589.7 	"/>
	<path class="st0" d="M434,589.7"/>
	<polyline class="st1" points="1843,1855.7 1796.6,1855.7 1796.6,1905.6 1265,1905.6 1265,1959.7 1104,1959.7 1104,1907.7 
		491,1907.7 491,1752.7 652,1752.7 652,1191.7 693.3,1191.7 693.3,1096.7 653.7,1096.7 653.7,589.7 476.8,589.7 	"/>
	<path class="st0" d="M468,586.7"/>
	<line class="st1" x1="2109.5" y1="1965.7" x2="2109.5" y2="2325.7"/>
	<line class="st1" x1="2091.4" y1="2088.2" x2="2109.5" y2="2088.2"/>
	<polyline class="st1" points="1948,1965.7 1948,2088.2 2068,2088.2 	"/>
	<polyline class="st1" points="2109.5,2190.1 1948.5,2190.1 1948.5,2325.7 	"/>
	<polyline class="st1" points="1796.6,1905.6 1796.6,2073.2 491.5,2074.2 491,1907.7 	"/>
	<polyline class="st1" points="1948.5,2190.1 1948.5,2165 253,2165 	"/>
	<polyline class="st1" points="253,1905.6 413.5,1905.6 413.5,589.7 	"/>
	<path class="st1" d="M652,1191.7"/>
	<line class="st1" x1="491" y1="1101.2" x2="491" y2="589.7"/>
	<line class="st1" x1="491" y1="1752.7" x2="491" y2="1187.2"/>
	<line class="st1" x1="2024" y1="2190.1" x2="2024" y2="2088.2"/>
	<line class="st1" x1="1643.2" y1="1905.6" x2="1643.2" y2="2073.3"/>
	<line class="st1" x1="1573.1" y1="1905.6" x2="1573.1" y2="2073.3"/>
	<line class="st1" x1="1573.1" y1="2165" x2="1573.1" y2="2325.7"/>
	<line class="st1" x1="1265" y1="1959.7" x2="1265" y2="2073.3"/>
	<line class="st1" x1="1265" y1="2165" x2="1265" y2="2325.7"/>
	<line class="st1" x1="1335.5" y1="2167.4" x2="1335.5" y2="2328.1"/>
	<line class="st1" x1="1414.7" y1="2165" x2="1414.7" y2="2325.7"/>
	<line class="st1" x1="1104" y1="1959.7" x2="1104" y2="2073.8"/>
	<line class="st1" x1="1104" y1="2165" x2="1104" y2="2325.7"/>
	<line class="st1" x1="1032.6" y1="2165" x2="1032.6" y2="2325.7"/>
	<line class="st1" x1="960.3" y1="1908.6" x2="960.3" y2="2074.8"/>
	<line class="st1" x1="816.6" y1="1907.7" x2="816.6" y2="2074.2"/>
	<line class="st1" x1="816.6" y1="2165" x2="816.6" y2="2325.7"/>
	<line class="st1" x1="657.3" y1="2165" x2="657.3" y2="2325.7"/>
	<line class="st1" x1="725.9" y1="2165" x2="725.9" y2="2325.7"/>
	<line class="st1" x1="642.4" y1="1907.7" x2="642.4" y2="2074.2"/>
	<line class="st1" x1="491" y1="2165" x2="491" y2="2325.7"/>
	<polyline class="st1" points="418,2074.2 390.7,2074.2 253,2074.2 	"/>
	<line class="st1" x1="413.5" y1="1905.6" x2="413.5" y2="2074.2"/>
	<line class="st1" x1="253" y1="1605.8" x2="413.5" y2="1605.8"/>
	<line class="st1" x1="253" y1="1521.8" x2="413.5" y2="1521.8"/>
	<line class="st1" x1="491" y1="1521.8" x2="652" y2="1521.8"/>
	<line class="st1" x1="491" y1="1440.4" x2="652" y2="1440.4"/>
	<line class="st1" x1="491" y1="1351.8" x2="652" y2="1351.8"/>
	<line class="st1" x1="491" y1="1272.2" x2="652" y2="1272.2"/>
	<line class="st1" x1="652" y1="1191.7" x2="491" y2="1191.7"/>
	<line class="st1" x1="653.7" y1="1096.7" x2="491" y2="1096.7"/>
	<line class="st1" x1="413.5" y1="1096.7" x2="253" y2="1096.7"/>
	<line class="st1" x1="413.5" y1="1272.2" x2="253" y2="1272.2"/>
	<line class="st1" x1="413.5" y1="1351.8" x2="253" y2="1351.8"/>
	<polyline class="st1" points="653.7,960.7 491,960.7 470.6,960.7 	"/>
	<polyline class="st1" points="653.7,733.4 509.2,733.4 491,733.4 	"/>
	<line class="st1" x1="435.5" y1="960.7" x2="253" y2="960.7"/>
	<line class="st1" x1="410.6" y1="865.8" x2="250.1" y2="865.8"/>
	<line class="st1" x1="491" y1="676.6" x2="413.5" y2="676.6"/>
	<line class="st1" x1="418.1" y1="733.4" x2="252.8" y2="733.4"/>
	<line class="st1" x1="413.5" y1="665" x2="252.8" y2="665"/>
	<line class="st1" x1="253" y1="1996" x2="413.5" y2="1996"/>
	<line class="st1" x1="741.2" y1="1908.4" x2="741.2" y2="2074.9"/>
	<line class="st1" x1="1412.8" y1="1905.6" x2="1412.8" y2="2073.3"/>
	<line class="st1" x1="1338.9" y1="1905.6" x2="1338.9" y2="2073.3"/>
	<line class="st1" x1="1482.8" y1="1906.5" x2="1482.8" y2="2074.2"/>
	<line class="st1" x1="1948" y1="2161.7" x2="1948" y2="2092.7"/>
</g>
<g id="rooms_2_">
	<g>
		<path d="M2015.4,2257.6c1.3,1.2,2,2.8,2,4.7c0,1.4-0.3,2.6-1,3.6s-1.6,1.9-2.9,2.5c-1.3,0.6-2.9,0.9-4.7,0.9
			c-1.7,0-3.3-0.3-4.9-0.8c-1.5-0.6-2.8-1.3-3.7-2.2l1.2-1.9c0.8,0.8,1.8,1.5,3.2,2c1.3,0.5,2.7,0.8,4.2,0.8c1.9,0,3.5-0.4,4.5-1.3
			c1.1-0.8,1.6-2,1.6-3.5s-0.5-2.6-1.6-3.5c-1.1-0.9-2.7-1.3-4.8-1.3h-1.7v-1.8l6.6-8.3h-12.2v-2.2h15.3v1.7l-6.7,8.5
			C2012.2,2255.7,2014.1,2256.4,2015.4,2257.6z"/>
		<path d="M2025.3,2267.9c-1.4-1-2.6-2.4-3.4-4.2c-0.8-1.8-1.2-4-1.2-6.4c0-2.5,0.4-4.6,1.2-6.4s1.9-3.2,3.4-4.2s3.1-1.5,4.9-1.5
			s3.5,0.5,4.9,1.5s2.6,2.4,3.4,4.2c0.8,1.8,1.2,4,1.2,6.4c0,2.5-0.4,4.6-1.2,6.4c-0.8,1.8-1.9,3.2-3.4,4.2c-1.4,1-3.1,1.5-4.9,1.5
			S2026.8,2268.9,2025.3,2267.9z M2033.9,2266c1.1-0.8,1.9-1.9,2.5-3.4s0.9-3.3,0.9-5.3c0-2.1-0.3-3.9-0.9-5.3
			c-0.6-1.5-1.4-2.6-2.5-3.4s-2.3-1.2-3.7-1.2c-1.4,0-2.6,0.4-3.7,1.2c-1.1,0.8-1.9,1.9-2.5,3.4s-0.9,3.3-0.9,5.3
			c0,2.1,0.3,3.9,0.9,5.3c0.6,1.5,1.4,2.6,2.5,3.4s2.3,1.2,3.7,1.2C2031.6,2267.1,2032.8,2266.8,2033.9,2266z"/>
		<path d="M2049.8,2245.4v23.8h-2.4v-21.6h-5.6v-2.2H2049.8L2049.8,2245.4z"/>
	</g>
	<g>
		<path d="M2299.3,2155.3H2286l-2.9,6.4h-2.6l10.9-23.8h2.5l10.9,23.8h-2.7L2299.3,2155.3z M2298.3,2153.3l-5.7-12.8l-5.7,12.8
			H2298.3z"/>
		<path d="M2315.2,2153.7h-4.1v8h-2.4v-17.9h2.4v7.9h4.1l6.3-7.9h2.6l-7,8.7l7.5,9.2h-2.9L2315.2,2153.7z"/>
		<path d="M2340.7,2145.9h-6.8v15.7h-2.4v-15.7h-6.8v-2.1h15.9v2.1H2340.7z"/>
		<path d="M2346.1,2160.7c-1.4-0.8-2.5-1.9-3.3-3.2c-0.8-1.4-1.2-2.9-1.2-4.7c0-1.7,0.4-3.3,1.2-4.7s1.9-2.5,3.3-3.2
			c1.4-0.8,2.9-1.2,4.7-1.2c1.7,0,3.3,0.4,4.7,1.2c1.4,0.8,2.5,1.8,3.2,3.2c0.8,1.4,1.2,2.9,1.2,4.7c0,1.7-0.4,3.3-1.2,4.7
			c-0.8,1.4-1.9,2.5-3.2,3.2c-1.4,0.8-2.9,1.2-4.7,1.2C2349,2161.8,2347.5,2161.4,2346.1,2160.7z M2354.2,2158.8
			c1-0.6,1.8-1.4,2.4-2.5c0.6-1.1,0.9-2.3,0.9-3.6c0-1.4-0.3-2.6-0.9-3.6s-1.4-1.9-2.4-2.5c-1-0.6-2.1-0.9-3.4-0.9
			c-1.3,0-2.4,0.3-3.4,0.9c-1,0.6-1.8,1.4-2.4,2.5c-0.6,1.1-0.9,2.3-0.9,3.6c0,1.4,0.3,2.6,0.9,3.6c0.6,1.1,1.4,1.9,2.4,2.5
			c1,0.6,2.1,0.9,3.4,0.9C2352,2159.7,2353.2,2159.4,2354.2,2158.8z"/>
		<path d="M2380,2156.8c0,1.6-0.6,2.8-1.7,3.6c-1.1,0.8-2.9,1.3-5.2,1.3h-8.1v-17.9h7.9c2,0,3.6,0.4,4.8,1.2
			c1.2,0.8,1.7,1.9,1.7,3.4c0,1-0.3,1.8-0.8,2.5s-1.3,1.2-2.2,1.5C2378.8,2153,2380,2154.5,2380,2156.8z M2367.4,2151.7h5.4
			c1.4,0,2.4-0.3,3.2-0.8c0.7-0.5,1.1-1.3,1.1-2.3s-0.4-1.7-1.1-2.2c-0.7-0.5-1.8-0.7-3.2-0.7h-5.4V2151.7z M2376.5,2159
			c0.8-0.5,1.2-1.3,1.2-2.3s-0.4-1.9-1.1-2.4c-0.7-0.5-1.8-0.8-3.3-0.8h-5.9v6.2h5.7C2374.6,2159.8,2375.7,2159.5,2376.5,2159z"/>
		<path d="M2397.2,2145.4c1.2,1.2,1.9,2.9,1.9,5.2v11.1h-2.3v-2.8c-0.5,0.9-1.3,1.7-2.4,2.2c-1.1,0.5-2.3,0.8-3.8,0.8
			c-2,0-3.6-0.5-4.8-1.4c-1.2-0.9-1.8-2.2-1.8-3.8c0-1.5,0.5-2.7,1.6-3.7c1.1-0.9,2.9-1.4,5.3-1.4h5.7v-1.1c0-1.5-0.4-2.7-1.3-3.5
			c-0.9-0.8-2.1-1.2-3.8-1.2c-1.1,0-2.2,0.2-3.3,0.6c-1,0.4-1.9,0.9-2.7,1.5l-1.1-1.8c0.9-0.8,2-1.4,3.3-1.8c1.3-0.4,2.6-0.6,4-0.6
			C2394.2,2143.7,2396,2144.2,2397.2,2145.4z M2394.5,2159c1-0.6,1.7-1.5,2.2-2.7v-2.9h-5.6c-3.1,0-4.6,1.1-4.6,3.2
			c0,1,0.4,1.9,1.2,2.5c0.8,0.6,1.9,0.9,3.3,0.9C2392.3,2159.9,2393.5,2159.6,2394.5,2159z"/>
		<path d="M2426.1,2153.9c0.7,0.7,1,1.6,1,2.7c0,1.1-0.4,2-1.1,2.8c-0.7,0.8-1.7,1.4-2.9,1.9s-2.6,0.7-4,0.7c-1.3,0-2.6-0.2-3.8-0.6
			c-1.2-0.4-2.3-0.9-3.3-1.6l0.8-1.8c0.8,0.6,1.8,1.1,2.9,1.4s2.2,0.5,3.3,0.5c1.7,0,3-0.3,4.1-0.9c1.1-0.6,1.6-1.5,1.6-2.5
			s-0.4-1.7-1.3-2.2c-0.9-0.5-2-0.8-3.5-0.8h-3.1v-1.8h2.9c1.3,0,2.4-0.3,3.2-0.8s1.2-1.2,1.2-2.1c0-1-0.5-1.7-1.4-2.2
			s-2.1-0.8-3.6-0.8c-1.9,0-3.8,0.5-5.7,1.5l-0.7-1.9c2.1-1.1,4.3-1.7,6.6-1.7c1.4,0,2.6,0.2,3.7,0.6c1.1,0.4,2,1,2.6,1.7
			s0.9,1.6,0.9,2.5c0,0.9-0.3,1.7-0.9,2.4c-0.6,0.7-1.5,1.2-2.5,1.6C2424.4,2152.6,2425.4,2153.2,2426.1,2153.9z"/>
		<path d="M2444.1,2145.4c1.2,1.2,1.9,2.9,1.9,5.2v11.1h-2.3v-2.8c-0.5,0.9-1.3,1.7-2.4,2.2c-1.1,0.5-2.3,0.8-3.8,0.8
			c-2,0-3.6-0.5-4.8-1.4c-1.2-1-1.8-2.2-1.8-3.8c0-1.5,0.5-2.7,1.6-3.7c1.1-0.9,2.8-1.4,5.3-1.4h5.7v-1.1c0-1.5-0.4-2.7-1.3-3.5
			s-2.1-1.2-3.8-1.2c-1.1,0-2.2,0.2-3.3,0.6c-1.1,0.4-1.9,0.9-2.7,1.5l-1.1-1.8c0.9-0.8,2-1.4,3.3-1.8c1.3-0.4,2.6-0.6,4-0.6
			C2441.1,2143.7,2442.8,2144.2,2444.1,2145.4z M2441.4,2159c1-0.6,1.7-1.5,2.2-2.7v-2.9h-5.6c-3.1,0-4.6,1.1-4.6,3.2
			c0,1,0.4,1.9,1.2,2.5c0.8,0.6,1.9,0.9,3.3,0.9C2439.2,2159.9,2440.4,2159.6,2441.4,2159z"/>
		<path d="M2467,2143.8v17.9h-2.4V2146h-8.6l-0.2,4.4c-0.2,3.7-0.6,6.6-1.3,8.6s-1.9,3-3.6,3c-0.5,0-1.1-0.1-1.7-0.3l0.2-2.1
			c0.4,0.1,0.7,0.1,0.8,0.1c0.9,0,1.6-0.4,2.1-1.3c0.5-0.9,0.8-1.9,1-3.2s0.3-2.9,0.4-5l0.3-6.4H2467L2467,2143.8z"/>
		<path d="M2485.4,2145.4c1.2,1.2,1.9,2.9,1.9,5.2v11.1h-2.3v-2.8c-0.5,0.9-1.3,1.7-2.4,2.2c-1.1,0.5-2.3,0.8-3.8,0.8
			c-2,0-3.6-0.5-4.8-1.4c-1.2-0.9-1.8-2.2-1.8-3.8c0-1.5,0.5-2.7,1.6-3.7c1.1-0.9,2.9-1.4,5.3-1.4h5.7v-1.1c0-1.5-0.4-2.7-1.3-3.5
			c-0.9-0.8-2.1-1.2-3.8-1.2c-1.1,0-2.2,0.2-3.3,0.6c-1,0.4-1.9,0.9-2.7,1.5l-1.1-1.8c0.9-0.8,2-1.4,3.3-1.8c1.3-0.4,2.6-0.6,4-0.6
			C2482.4,2143.7,2484.2,2144.2,2485.4,2145.4z M2482.7,2159c1-0.6,1.7-1.5,2.2-2.7v-2.9h-5.6c-3.1,0-4.6,1.1-4.6,3.2
			c0,1,0.4,1.9,1.2,2.5c0.8,0.6,1.9,0.9,3.3,0.9C2480.5,2159.9,2481.7,2159.6,2482.7,2159z"/>
	</g>
	<g>
		<path d="M1988.2,2047.5c1.2-1.3,2.8-2,4.7-2c1.4,0,2.6,0.3,3.6,1s1.9,1.6,2.5,2.9s0.9,2.9,0.9,4.7c0,1.7-0.3,3.3-0.8,4.9
			c-0.6,1.5-1.3,2.8-2.2,3.7l-1.9-1.2c0.8-0.8,1.5-1.8,2-3.2c0.5-1.3,0.8-2.7,0.8-4.2c0-1.9-0.4-3.5-1.3-4.5c-0.8-1.1-2-1.6-3.5-1.6
			s-2.6,0.5-3.5,1.6c-0.8,1.1-1.3,2.7-1.3,4.8v1.7h-1.8l-8.3-6.6v12.2h-2.2v-15.3h1.7l8.5,6.7
			C1986.3,2050.7,1987,2048.8,1988.2,2047.5z"/>
		<path d="M1998.5,2037.5c-1,1.4-2.4,2.6-4.2,3.4c-1.8,0.8-4,1.2-6.4,1.2c-2.5,0-4.6-0.4-6.4-1.2c-1.8-0.8-3.2-1.9-4.2-3.4
			s-1.5-3.1-1.5-4.9s0.5-3.5,1.5-4.9s2.4-2.6,4.2-3.4s4-1.2,6.4-1.2c2.5,0,4.6,0.4,6.4,1.2c1.8,0.8,3.2,1.9,4.2,3.4
			c1,1.4,1.5,3.1,1.5,4.9S1999.5,2036.1,1998.5,2037.5z M1996.6,2028.9c-0.8-1.1-1.9-1.9-3.4-2.5s-3.3-0.9-5.3-0.9
			c-2.1,0-3.9,0.3-5.3,0.9c-1.5,0.6-2.6,1.4-3.4,2.5s-1.2,2.3-1.2,3.7s0.4,2.6,1.2,3.7c0.8,1.1,1.9,1.9,3.4,2.5s3.3,0.9,5.3,0.9
			c2.1,0,3.9-0.3,5.3-0.9c1.5-0.6,2.6-1.4,3.4-2.5s1.2-2.3,1.2-3.7S1997.4,2030,1996.6,2028.9z"/>
		<path d="M1976,2013.1h23.8v2.4h-21.6v5.6h-2.2L1976,2013.1L1976,2013.1z"/>
		<path d="M1993.4,1990.3v13.3l6.4,2.9v2.6l-23.8-10.9v-2.5l23.8-10.9v2.7L1993.4,1990.3z M1991.4,1991.3l-12.8,5.7l12.8,5.7V1991.3
			z"/>
	</g>
	<g>
		<path d="M1608.3,1980.8c1.2-1.3,2.8-2,4.7-2c1.4,0,2.6,0.3,3.6,1s1.9,1.6,2.5,2.9s0.9,2.9,0.9,4.7c0,1.7-0.3,3.3-0.8,4.9
			c-0.6,1.5-1.3,2.8-2.2,3.7l-1.9-1.2c0.8-0.8,1.5-1.8,2-3.2c0.5-1.3,0.8-2.7,0.8-4.2c0-1.9-0.4-3.5-1.3-4.5c-0.8-1.1-2-1.6-3.5-1.6
			s-2.6,0.5-3.5,1.6c-0.8,1.1-1.3,2.7-1.3,4.8v1.7h-1.8l-8.3-6.6v12.2h-2.2v-15.3h1.7l8.5,6.7
			C1606.4,1984,1607.1,1982.1,1608.3,1980.8z"/>
		<path d="M1618.6,1970.8c-1,1.4-2.4,2.6-4.2,3.4c-1.8,0.8-4,1.2-6.4,1.2c-2.5,0-4.6-0.4-6.4-1.2c-1.8-0.8-3.2-1.9-4.2-3.4
			s-1.5-3.1-1.5-4.9s0.5-3.5,1.5-4.9s2.4-2.6,4.2-3.4s4-1.2,6.4-1.2c2.5,0,4.6,0.4,6.4,1.2c1.8,0.8,3.2,1.9,4.2,3.4
			c1,1.4,1.5,3.1,1.5,4.9S1619.6,1969.4,1618.6,1970.8z M1616.7,1962.2c-0.8-1.1-1.9-1.9-3.4-2.5s-3.3-0.9-5.3-0.9
			c-2.1,0-3.9,0.3-5.3,0.9c-1.5,0.6-2.6,1.4-3.4,2.5s-1.2,2.3-1.2,3.7s0.4,2.6,1.2,3.7c0.8,1.1,1.9,1.9,3.4,2.5s3.3,0.9,5.3,0.9
			c2.1,0,3.9-0.3,5.3-0.9c1.5-0.6,2.6-1.4,3.4-2.5s1.2-2.3,1.2-3.7S1617.5,1963.3,1616.7,1962.2z"/>
		<path d="M1608.3,1939.4c1.2-1.3,2.8-2,4.7-2c1.4,0,2.6,0.3,3.6,1s1.9,1.6,2.5,2.9s0.9,2.9,0.9,4.7c0,1.7-0.3,3.3-0.8,4.9
			c-0.6,1.5-1.3,2.8-2.2,3.7l-1.9-1.2c0.8-0.8,1.5-1.8,2-3.2c0.5-1.3,0.8-2.7,0.8-4.2c0-1.9-0.4-3.5-1.3-4.5c-0.8-1.1-2-1.6-3.5-1.6
			s-2.6,0.5-3.5,1.6c-0.8,1.1-1.3,2.7-1.3,4.8v1.7h-1.8l-8.3-6.6v12.2h-2.2v-15.3h1.7l8.5,6.7
			C1606.4,1942.6,1607.1,1940.7,1608.3,1939.4z"/>
	</g>
	<g>
		<path d="M1447.6,1980.8c1.2-1.3,2.8-2,4.7-2c1.4,0,2.6,0.3,3.6,1s1.9,1.6,2.5,2.9s0.9,2.9,0.9,4.7c0,1.7-0.3,3.3-0.8,4.9
			c-0.6,1.5-1.3,2.8-2.2,3.7l-1.9-1.2c0.8-0.8,1.5-1.8,2-3.2c0.5-1.3,0.8-2.7,0.8-4.2c0-1.9-0.4-3.5-1.3-4.5c-0.8-1.1-2-1.6-3.5-1.6
			s-2.6,0.5-3.5,1.6c-0.8,1.1-1.3,2.7-1.3,4.8v1.7h-1.8l-8.3-6.6v12.2h-2.2v-15.3h1.7l8.5,6.7
			C1445.7,1984,1446.4,1982.1,1447.6,1980.8z"/>
		<path d="M1457.9,1970.8c-1,1.4-2.4,2.6-4.2,3.4c-1.8,0.8-4,1.2-6.4,1.2c-2.5,0-4.6-0.4-6.4-1.2c-1.8-0.8-3.2-1.9-4.2-3.4
			s-1.5-3.1-1.5-4.9s0.5-3.5,1.5-4.9s2.4-2.6,4.2-3.4s4-1.2,6.4-1.2c2.5,0,4.6,0.4,6.4,1.2c1.8,0.8,3.2,1.9,4.2,3.4
			c1,1.4,1.5,3.1,1.5,4.9S1458.9,1969.4,1457.9,1970.8z M1456,1962.2c-0.8-1.1-1.9-1.9-3.4-2.5s-3.3-0.9-5.3-0.9
			c-2.1,0-3.9,0.3-5.3,0.9c-1.5,0.6-2.6,1.4-3.4,2.5s-1.2,2.3-1.2,3.7s0.4,2.6,1.2,3.7c0.8,1.1,1.9,1.9,3.4,2.5s3.3,0.9,5.3,0.9
			c2.1,0,3.9-0.3,5.3-0.9c1.5-0.6,2.6-1.4,3.4-2.5s1.2-2.3,1.2-3.7S1456.7,1963.3,1456,1962.2z"/>
		<path d="M1452.9,1932.6v4.8h6.3v2.4h-6.3v13.4h-1.8l-15.8-12.6v-2.7l15.4,12.2v-10.3h-5.5v-2.4h5.5v-4.8H1452.9z"/>
	</g>
	<g>
		<path d="M1525.3,1980.8c1.2-1.3,2.8-2,4.7-2c1.4,0,2.6,0.3,3.6,1s1.9,1.6,2.5,2.9s0.9,2.9,0.9,4.7c0,1.7-0.3,3.3-0.8,4.9
			c-0.6,1.5-1.3,2.8-2.2,3.7l-1.9-1.2c0.8-0.8,1.5-1.8,2-3.2c0.5-1.3,0.8-2.7,0.8-4.2c0-1.9-0.4-3.5-1.3-4.5c-0.8-1.1-2-1.6-3.5-1.6
			s-2.6,0.5-3.5,1.6c-0.8,1.1-1.3,2.7-1.3,4.8v1.7h-1.8l-8.3-6.6v12.2h-2.2v-15.3h1.7l8.5,6.7
			C1523.5,1984,1524.1,1982.1,1525.3,1980.8z"/>
		<path d="M1535.7,1970.8c-1,1.4-2.4,2.6-4.2,3.4c-1.8,0.8-4,1.2-6.4,1.2c-2.5,0-4.6-0.4-6.4-1.2c-1.8-0.8-3.2-1.9-4.2-3.4
			s-1.5-3.1-1.5-4.9s0.5-3.5,1.5-4.9s2.4-2.6,4.2-3.4s4-1.2,6.4-1.2c2.5,0,4.6,0.4,6.4,1.2c1.8,0.8,3.2,1.9,4.2,3.4
			c1,1.4,1.5,3.1,1.5,4.9S1536.6,1969.4,1535.7,1970.8z M1533.7,1962.2c-0.8-1.1-1.9-1.9-3.4-2.5s-3.3-0.9-5.3-0.9
			c-2.1,0-3.9,0.3-5.3,0.9c-1.5,0.6-2.6,1.4-3.4,2.5s-1.2,2.3-1.2,3.7s0.4,2.6,1.2,3.7c0.8,1.1,1.9,1.9,3.4,2.5s3.3,0.9,5.3,0.9
			c2.1,0,3.9-0.3,5.3-0.9c1.5-0.6,2.6-1.4,3.4-2.5s1.2-2.3,1.2-3.7S1534.5,1963.3,1533.7,1962.2z"/>
		<path d="M1530.7,1932.6v4.8h6.3v2.4h-6.3v13.4h-1.8l-15.8-12.6v-2.7l15.4,12.2v-10.3h-5.5v-2.4h5.5v-4.8H1530.7z"/>
	</g>
	<g>
		<path d="M1375.7,1980.8c1.2-1.3,2.8-2,4.7-2c1.4,0,2.6,0.3,3.6,1s1.9,1.6,2.5,2.9s0.9,2.9,0.9,4.7c0,1.7-0.3,3.3-0.8,4.9
			c-0.6,1.5-1.3,2.8-2.2,3.7l-1.9-1.2c0.8-0.8,1.5-1.8,2-3.2c0.5-1.3,0.8-2.7,0.8-4.2c0-1.9-0.4-3.5-1.3-4.5c-0.8-1.1-2-1.6-3.5-1.6
			s-2.6,0.5-3.5,1.6c-0.8,1.1-1.3,2.7-1.3,4.8v1.7h-1.8l-8.3-6.6v12.2h-2.2v-15.3h1.7l8.5,6.7
			C1373.8,1984,1374.5,1982.1,1375.7,1980.8z"/>
		<path d="M1386,1970.8c-1,1.4-2.4,2.6-4.2,3.4c-1.8,0.8-4,1.2-6.4,1.2c-2.5,0-4.6-0.4-6.4-1.2c-1.8-0.8-3.2-1.9-4.2-3.4
			s-1.5-3.1-1.5-4.9s0.5-3.5,1.5-4.9s2.4-2.6,4.2-3.4s4-1.2,6.4-1.2c2.5,0,4.6,0.4,6.4,1.2c1.8,0.8,3.2,1.9,4.2,3.4
			c1,1.4,1.5,3.1,1.5,4.9S1387,1969.4,1386,1970.8z M1384.1,1962.2c-0.8-1.1-1.9-1.9-3.4-2.5s-3.3-0.9-5.3-0.9
			c-2.1,0-3.9,0.3-5.3,0.9c-1.5,0.6-2.6,1.4-3.4,2.5s-1.2,2.3-1.2,3.7s0.4,2.6,1.2,3.7c0.8,1.1,1.9,1.9,3.4,2.5s3.3,0.9,5.3,0.9
			c2.1,0,3.9-0.3,5.3-0.9c1.5-0.6,2.6-1.4,3.4-2.5s1.2-2.3,1.2-3.7S1384.9,1963.3,1384.1,1962.2z"/>
		<path d="M1375.1,1939.1c1.2-1.6,3-2.4,5.2-2.4c1.4,0,2.6,0.3,3.7,1c1.1,0.6,1.9,1.6,2.6,2.9c0.6,1.3,0.9,2.9,0.9,4.8
			c0,1.7-0.3,3.3-0.8,4.8s-1.3,2.8-2.2,3.7l-1.9-1.2c0.8-0.8,1.5-1.8,2-3.1c0.5-1.3,0.8-2.7,0.8-4.2c0-2-0.4-3.5-1.3-4.6
			s-2.1-1.6-3.5-1.6c-1.6,0-2.9,0.6-3.7,1.8c-0.8,1.2-1.3,3.3-1.3,6.1v5.1l-11.9-1.2v-13h2.2v10.9l7.6,0.8v-3.1
			C1373.2,1943.2,1373.9,1940.6,1375.1,1939.1z"/>
	</g>
	<g>
		<path d="M1300.5,1980.8c1.2-1.3,2.8-2,4.7-2c1.4,0,2.6,0.3,3.6,1s1.9,1.6,2.5,2.9s0.9,2.9,0.9,4.7c0,1.7-0.3,3.3-0.8,4.9
			c-0.6,1.5-1.3,2.8-2.2,3.7l-1.9-1.2c0.8-0.8,1.5-1.8,2-3.2c0.5-1.3,0.8-2.7,0.8-4.2c0-1.9-0.4-3.5-1.3-4.5c-0.8-1.1-2-1.6-3.5-1.6
			s-2.6,0.5-3.5,1.6c-0.8,1.1-1.3,2.7-1.3,4.8v1.7h-1.8l-8.3-6.6v12.2h-2.2v-15.3h1.7l8.5,6.7
			C1298.6,1984,1299.2,1982.1,1300.5,1980.8z"/>
		<path d="M1310.8,1970.8c-1,1.4-2.4,2.6-4.2,3.4c-1.8,0.8-4,1.2-6.4,1.2c-2.5,0-4.6-0.4-6.4-1.2c-1.8-0.8-3.2-1.9-4.2-3.4
			s-1.5-3.1-1.5-4.9s0.5-3.5,1.5-4.9s2.4-2.6,4.2-3.4s4-1.2,6.4-1.2c2.5,0,4.6,0.4,6.4,1.2c1.8,0.8,3.2,1.9,4.2,3.4
			c1,1.4,1.5,3.1,1.5,4.9S1311.7,1969.4,1310.8,1970.8z M1308.8,1962.2c-0.8-1.1-1.9-1.9-3.4-2.5s-3.3-0.9-5.3-0.9
			c-2.1,0-3.9,0.3-5.3,0.9c-1.5,0.6-2.6,1.4-3.4,2.5s-1.2,2.3-1.2,3.7s0.4,2.6,1.2,3.7c0.8,1.1,1.9,1.9,3.4,2.5s3.3,0.9,5.3,0.9
			c2.1,0,3.9-0.3,5.3-0.9c1.5-0.6,2.6-1.4,3.4-2.5s1.2-2.3,1.2-3.7S1309.6,1963.3,1308.8,1962.2z"/>
		<path d="M1298.7,1938.8c0.6-1.2,1.4-2.2,2.5-2.8c1.1-0.7,2.3-1,3.8-1s2.7,0.4,3.8,1.1c1.1,0.7,2,1.7,2.6,2.9
			c0.6,1.2,0.9,2.6,0.9,4.2c0,3.2-1,5.6-3.1,7.2c-2.1,1.7-5,2.5-8.8,2.5c-2.7,0-4.9-0.5-6.7-1.4c-1.8-0.9-3.2-2.2-4.2-3.8
			s-1.4-3.5-1.4-5.7c0-2.4,0.4-4.2,1.3-5.6l2,1c-0.7,1.1-1.1,2.7-1.1,4.6c0,2.6,0.8,4.7,2.5,6.2s4.1,2.2,7.3,2.2
			c0.6,0,1.2,0,1.9-0.1c-1.3-0.6-2.3-1.5-3-2.8s-1.1-2.8-1.1-4.5C1297.8,1941.4,1298.1,1940,1298.7,1938.8z M1308.7,1939
			c-0.9-1.1-2.2-1.6-3.8-1.6c-1.6,0-2.8,0.5-3.7,1.6c-0.9,1.1-1.4,2.5-1.4,4.4c0,1.2,0.2,2.3,0.7,3.2c0.5,0.9,1.1,1.6,1.9,2.2
			c0.8,0.5,1.7,0.8,2.7,0.8c0.9,0,1.7-0.2,2.5-0.7s1.4-1.2,1.9-2.2s0.7-2.1,0.7-3.4C1310.2,1941.5,1309.7,1940.1,1308.7,1939z"/>
	</g>
	<g>
		<path d="M1168.9,2022.1c1.3,1.2,2,2.8,2,4.7c0,1.4-0.3,2.6-1,3.6c-0.7,1.1-1.6,1.9-2.9,2.5s-2.9,0.9-4.7,0.9
			c-1.7,0-3.3-0.3-4.9-0.8c-1.5-0.6-2.8-1.3-3.7-2.2l1.2-1.9c0.8,0.8,1.8,1.5,3.2,2c1.3,0.5,2.7,0.8,4.2,0.8c1.9,0,3.5-0.4,4.5-1.3
			c1.1-0.8,1.6-2,1.6-3.5s-0.5-2.6-1.6-3.5c-1.1-0.8-2.7-1.3-4.8-1.3h-1.7v-1.8l6.6-8.3h-12.2v-2.2h15.3v1.7l-6.7,8.5
			C1165.7,2020.2,1167.6,2020.9,1168.9,2022.1z"/>
		<path d="M1178.9,2032.4c-1.4-1-2.6-2.4-3.4-4.2c-0.8-1.8-1.2-4-1.2-6.4c0-2.5,0.4-4.6,1.2-6.4c0.8-1.8,1.9-3.2,3.4-4.2
			s3.1-1.5,4.9-1.5s3.5,0.5,4.9,1.5s2.6,2.4,3.4,4.2c0.8,1.8,1.2,4,1.2,6.4c0,2.5-0.4,4.6-1.2,6.4c-0.8,1.8-1.9,3.2-3.4,4.2
			c-1.4,1-3.1,1.5-4.9,1.5S1180.3,2033.4,1178.9,2032.4z M1187.5,2030.4c1.1-0.8,1.9-1.9,2.5-3.4s0.9-3.3,0.9-5.3
			c0-2.1-0.3-3.9-0.9-5.3c-0.6-1.5-1.4-2.6-2.5-3.4s-2.3-1.2-3.7-1.2c-1.4,0-2.6,0.4-3.7,1.2c-1.1,0.8-1.9,1.9-2.5,3.4
			s-0.9,3.3-0.9,5.3c0,2.1,0.3,3.9,0.9,5.3s1.4,2.6,2.5,3.4s2.3,1.2,3.7,1.2S1186.4,2031.2,1187.5,2030.4z"/>
		<path d="M1213.4,2009.8v1.7l-10,22.1h-2.7l9.8-21.6h-12.2v4.5h-2.4v-6.6L1213.4,2009.8L1213.4,2009.8z"/>
	</g>
	<g>
		<path d="M1007.8,2022.3c1.3,1.2,2,2.8,2,4.7c0,1.4-0.3,2.6-1,3.6c-0.7,1.1-1.6,1.9-2.9,2.5s-2.9,0.9-4.7,0.9
			c-1.7,0-3.3-0.3-4.9-0.8c-1.5-0.6-2.8-1.3-3.7-2.2l1.2-1.9c0.8,0.8,1.8,1.5,3.2,2c1.3,0.5,2.7,0.8,4.2,0.8c1.9,0,3.5-0.4,4.5-1.3
			c1.1-0.8,1.6-2,1.6-3.5s-0.5-2.6-1.6-3.5c-1.1-0.8-2.7-1.3-4.8-1.3h-1.7v-1.8l6.6-8.3h-12.2v-2.2h15.3v1.7l-6.7,8.5
			C1004.6,2020.4,1006.5,2021.1,1007.8,2022.3z"/>
		<path d="M1017.8,2032.6c-1.4-1-2.6-2.4-3.4-4.2c-0.8-1.8-1.2-4-1.2-6.4c0-2.5,0.4-4.6,1.2-6.4s1.9-3.2,3.4-4.2s3.1-1.5,4.9-1.5
			c1.8,0,3.5,0.5,4.9,1.5s2.6,2.4,3.4,4.2c0.8,1.8,1.2,4,1.2,6.4c0,2.5-0.4,4.6-1.2,6.4c-0.8,1.8-1.9,3.2-3.4,4.2
			c-1.4,1-3.1,1.5-4.9,1.5S1019.2,2033.6,1017.8,2032.6z M1026.4,2030.7c1.1-0.8,1.9-1.9,2.5-3.4s0.9-3.3,0.9-5.3
			c0-2.1-0.3-3.9-0.9-5.3c-0.6-1.5-1.4-2.6-2.5-3.4s-2.3-1.2-3.7-1.2c-1.4,0-2.6,0.4-3.7,1.2c-1.1,0.8-1.9,1.9-2.5,3.4
			s-0.9,3.3-0.9,5.3c0,2.1,0.3,3.9,0.9,5.3s1.4,2.6,2.5,3.4s2.3,1.2,3.7,1.2C1024.1,2031.8,1025.3,2031.4,1026.4,2030.7z"/>
		<path d="M1050.4,2013c1.7,2.1,2.5,5,2.5,8.8c0,2.7-0.5,4.9-1.4,6.7c-0.9,1.8-2.2,3.2-3.8,4.2s-3.5,1.4-5.7,1.4
			c-2.4,0-4.2-0.4-5.6-1.3l1-2c1.1,0.7,2.7,1.1,4.6,1.1c2.6,0,4.7-0.8,6.2-2.5s2.2-4.1,2.2-7.3c0-0.6,0-1.2-0.1-1.9
			c-0.6,1.3-1.5,2.3-2.8,3s-2.8,1.1-4.5,1.1c-1.6,0-3-0.3-4.2-0.9s-2.2-1.4-2.8-2.5c-0.7-1.1-1-2.3-1-3.8s0.4-2.7,1.1-3.8
			c0.7-1.1,1.7-2,2.9-2.6c1.2-0.6,2.6-0.9,4.2-0.9C1046.3,2009.8,1048.7,2010.9,1050.4,2013z M1046.6,2021.5
			c0.9-0.5,1.6-1.1,2.2-1.9c0.5-0.8,0.8-1.7,0.8-2.7c0-0.9-0.2-1.7-0.7-2.5s-1.2-1.4-2.2-1.9s-2.1-0.7-3.4-0.7
			c-1.7,0-3.1,0.5-4.2,1.4s-1.6,2.2-1.6,3.8c0,1.6,0.5,2.8,1.6,3.7c1.1,0.9,2.5,1.4,4.4,1.4
			C1044.6,2022.2,1045.7,2022,1046.6,2021.5z"/>
		<path d="M1073.7,2027.5h-13.3l-2.9,6.4h-2.6l10.9-23.8h2.5l10.9,23.8h-2.7L1073.7,2027.5z M1072.8,2025.5l-5.7-12.8l-5.7,12.8
			H1072.8z"/>
	</g>
	<g>
		<path d="M868.2,2022.3c1.3,1.2,2,2.8,2,4.7c0,1.4-0.3,2.6-1,3.6c-0.7,1.1-1.6,1.9-2.9,2.5s-2.9,0.9-4.7,0.9
			c-1.7,0-3.3-0.3-4.9-0.8c-1.5-0.6-2.8-1.3-3.7-2.2l1.2-1.9c0.8,0.8,1.8,1.5,3.2,2c1.3,0.5,2.7,0.8,4.2,0.8c1.9,0,3.5-0.4,4.5-1.3
			c1.1-0.8,1.6-2,1.6-3.5s-0.5-2.6-1.6-3.5c-1.1-0.8-2.7-1.3-4.8-1.3h-1.7v-1.8l6.6-8.3H854v-2.2h15.3v1.7l-6.7,8.5
			C865,2020.4,866.9,2021.1,868.2,2022.3z"/>
		<path d="M878.1,2032.6c-1.4-1-2.6-2.4-3.4-4.2c-0.8-1.8-1.2-4-1.2-6.4c0-2.5,0.4-4.6,1.2-6.4s1.9-3.2,3.4-4.2s3.1-1.5,4.9-1.5
			s3.5,0.5,4.9,1.5s2.6,2.4,3.4,4.2c0.8,1.8,1.2,4,1.2,6.4c0,2.5-0.4,4.6-1.2,6.4s-1.9,3.2-3.4,4.2c-1.4,1-3.1,1.5-4.9,1.5
			S879.6,2033.6,878.1,2032.6z M886.7,2030.7c1.1-0.8,1.9-1.9,2.5-3.4s0.9-3.3,0.9-5.3c0-2.1-0.3-3.9-0.9-5.3
			c-0.6-1.5-1.4-2.6-2.5-3.4s-2.3-1.2-3.7-1.2s-2.6,0.4-3.7,1.2c-1.1,0.8-1.9,1.9-2.5,3.4s-0.9,3.3-0.9,5.3c0,2.1,0.3,3.9,0.9,5.3
			s1.4,2.6,2.5,3.4s2.3,1.2,3.7,1.2C884.4,2031.8,885.6,2031.4,886.7,2030.7z"/>
		<path d="M910.7,2013c1.7,2.1,2.5,5,2.5,8.8c0,2.7-0.5,4.9-1.4,6.7c-0.9,1.8-2.2,3.2-3.8,4.2s-3.5,1.4-5.7,1.4
			c-2.4,0-4.2-0.4-5.6-1.3l1-2c1.1,0.7,2.7,1.1,4.6,1.1c2.6,0,4.7-0.8,6.2-2.5s2.2-4.1,2.2-7.3c0-0.6,0-1.2-0.1-1.9
			c-0.6,1.3-1.5,2.3-2.8,3s-2.8,1.1-4.5,1.1c-1.6,0-3-0.3-4.2-0.9s-2.2-1.4-2.8-2.5c-0.7-1.1-1-2.3-1-3.8s0.4-2.7,1.1-3.8
			c0.7-1.1,1.7-2,2.9-2.6s2.6-0.9,4.2-0.9C906.6,2009.8,909,2010.9,910.7,2013z M906.9,2021.5c0.9-0.5,1.6-1.1,2.2-1.9
			c0.5-0.8,0.8-1.7,0.8-2.7c0-0.9-0.2-1.7-0.7-2.5s-1.2-1.4-2.2-1.9s-2.1-0.7-3.4-0.7c-1.7,0-3.1,0.5-4.2,1.4
			c-1.1,0.9-1.6,2.2-1.6,3.8c0,1.6,0.5,2.8,1.6,3.7c1.1,0.9,2.5,1.4,4.4,1.4C904.9,2022.2,906,2022,906.9,2021.5z"/>
	</g>
	<g>
		<path d="M778,2006.1c1.2-1.3,2.8-2,4.7-2c1.4,0,2.6,0.3,3.6,1c1.1,0.7,1.9,1.6,2.5,2.9s0.9,2.9,0.9,4.7c0,1.7-0.3,3.3-0.8,4.9
			c-0.6,1.5-1.3,2.8-2.2,3.7l-1.9-1.2c0.8-0.8,1.5-1.8,2-3.2c0.5-1.3,0.8-2.7,0.8-4.2c0-1.9-0.4-3.5-1.3-4.5c-0.8-1.1-2-1.6-3.5-1.6
			s-2.6,0.5-3.5,1.6s-1.3,2.7-1.3,4.8v1.7h-1.8l-8.3-6.6v12.2h-2.2V2005h1.7l8.5,6.7C776.1,2009.3,776.8,2007.4,778,2006.1z"/>
		<path d="M765.8,1994.1h23.8v2.4H768v5.6h-2.2V1994.1z"/>
		<path d="M788.3,1983.9c-1,1.4-2.4,2.6-4.2,3.4s-4,1.2-6.4,1.2c-2.5,0-4.6-0.4-6.4-1.2s-3.2-1.9-4.2-3.4s-1.5-3.1-1.5-4.9
			s0.5-3.5,1.5-4.9s2.4-2.6,4.2-3.4s4-1.2,6.4-1.2c2.5,0,4.6,0.4,6.4,1.2c1.8,0.8,3.2,1.9,4.2,3.4s1.5,3.1,1.5,4.9
			S789.3,1982.4,788.3,1983.9z M786.4,1975.3c-0.8-1.1-1.9-1.9-3.4-2.5s-3.3-0.9-5.3-0.9c-2.1,0-3.9,0.3-5.3,0.9
			c-1.5,0.6-2.6,1.4-3.4,2.5c-0.8,1.1-1.2,2.3-1.2,3.7c0,1.4,0.4,2.6,1.2,3.7s1.9,1.9,3.4,2.5s3.3,0.9,5.3,0.9
			c2.1,0,3.9-0.3,5.3-0.9c1.5-0.6,2.6-1.4,3.4-2.5c0.8-1.1,1.2-2.3,1.2-3.7C787.5,1977.6,787.1,1976.3,786.4,1975.3z"/>
	</g>
	<g>
		<path d="M695.7,2006.1c1.2-1.3,2.8-2,4.7-2c1.4,0,2.6,0.3,3.6,1c1.1,0.7,1.9,1.6,2.5,2.9s0.9,2.9,0.9,4.7c0,1.7-0.3,3.3-0.8,4.9
			c-0.6,1.5-1.3,2.8-2.2,3.7l-1.9-1.2c0.8-0.8,1.5-1.8,2-3.2c0.5-1.3,0.8-2.7,0.8-4.2c0-1.9-0.4-3.5-1.3-4.5c-0.8-1.1-2-1.6-3.5-1.6
			s-2.6,0.5-3.5,1.6s-1.3,2.7-1.3,4.8v1.7h-1.8l-8.3-6.6v12.2h-2.2V2005h1.7l8.5,6.7C693.8,2009.3,694.5,2007.4,695.7,2006.1z"/>
		<path d="M683.5,1994.1h23.8v2.4h-21.6v5.6h-2.2V1994.1z"/>
		<path d="M683.5,1981.8h23.8v2.4h-21.6v5.6h-2.2V1981.8z"/>
	</g>
	<g>
		<path d="M558.6,1988.9c1.3,1.2,2,2.8,2,4.7c0,1.4-0.3,2.6-1,3.6c-0.7,1.1-1.6,1.9-2.9,2.5s-2.9,0.9-4.7,0.9
			c-1.7,0-3.3-0.3-4.9-0.8c-1.5-0.6-2.8-1.3-3.7-2.2l1.2-1.9c0.8,0.8,1.8,1.5,3.2,2c1.3,0.5,2.7,0.8,4.2,0.8c1.9,0,3.5-0.4,4.5-1.3
			c1.1-0.8,1.6-2,1.6-3.5s-0.5-2.6-1.6-3.5c-1.1-0.8-2.7-1.3-4.8-1.3H550v-1.8l6.6-8.3h-12.2v-2.2h15.3v1.7l-6.7,8.5
			C555.4,1987,557.3,1987.7,558.6,1988.9z"/>
		<path d="M570.6,1976.7v23.8h-2.4v-21.6h-5.6v-2.2L570.6,1976.7L570.6,1976.7z"/>
		<path d="M592.5,1998.3v2.2h-16.7v-1.7l9.9-9.7c1.2-1.2,2.1-2.3,2.5-3.2s0.7-1.8,0.7-2.7c0-1.4-0.5-2.5-1.4-3.3
			c-1-0.8-2.3-1.2-4.1-1.2c-2.8,0-5,0.9-6.5,2.7l-1.7-1.5c0.9-1.1,2.1-1.9,3.6-2.5c1.4-0.6,3.1-0.9,4.9-0.9c2.4,0,4.3,0.6,5.8,1.7
			c1.4,1.1,2.1,2.7,2.1,4.7c0,1.2-0.3,2.4-0.8,3.5s-1.6,2.4-3.1,3.9l-8.1,8H592.5z"/>
	</g>
	<g>
		<path d="M558.6,1661.6c1.3,1.2,2,2.8,2,4.7c0,1.4-0.3,2.6-1,3.6c-0.7,1.1-1.6,1.9-2.9,2.5s-2.9,0.9-4.7,0.9
			c-1.7,0-3.3-0.3-4.9-0.8c-1.5-0.6-2.8-1.3-3.7-2.2l1.2-1.9c0.8,0.8,1.8,1.5,3.2,2c1.3,0.5,2.7,0.8,4.2,0.8c1.9,0,3.5-0.4,4.5-1.3
			c1.1-0.8,1.6-2,1.6-3.5s-0.5-2.6-1.6-3.5c-1.1-0.8-2.7-1.3-4.8-1.3H550v-1.8l6.6-8.3h-12.2v-2.2h15.3v1.7l-6.7,8.5
			C555.4,1659.7,557.3,1660.4,558.6,1661.6z"/>
		<path d="M570.6,1649.4v23.8h-2.4v-21.6h-5.6v-2.2L570.6,1649.4L570.6,1649.4z"/>
		<path d="M590.1,1661.6c1.3,1.2,2,2.8,2,4.7c0,1.4-0.3,2.6-1,3.6c-0.7,1.1-1.6,1.9-2.9,2.5s-2.9,0.9-4.7,0.9
			c-1.7,0-3.3-0.3-4.9-0.8c-1.5-0.6-2.8-1.3-3.7-2.2l1.2-1.9c0.8,0.8,1.8,1.5,3.2,2c1.3,0.5,2.7,0.8,4.2,0.8c1.9,0,3.5-0.4,4.5-1.3
			c1.1-0.8,1.6-2,1.6-3.5s-0.5-2.6-1.6-3.5c-1.1-0.8-2.7-1.3-4.8-1.3h-1.7v-1.8l6.6-8.3h-12.2v-2.2h15.3v1.7l-6.7,8.5
			C586.9,1659.7,588.8,1660.4,590.1,1661.6z"/>
	</g>
	<g>
		<path d="M558.6,1484.3c1.3,1.2,2,2.8,2,4.7c0,1.4-0.3,2.6-1,3.6c-0.7,1.1-1.6,1.9-2.9,2.5s-2.9,0.9-4.7,0.9
			c-1.7,0-3.3-0.3-4.9-0.8c-1.5-0.6-2.8-1.3-3.7-2.2l1.2-1.9c0.8,0.8,1.8,1.5,3.2,2c1.3,0.5,2.7,0.8,4.2,0.8c1.9,0,3.5-0.4,4.5-1.3
			c1.1-0.8,1.6-2,1.6-3.5s-0.5-2.6-1.6-3.5c-1.1-0.8-2.7-1.3-4.8-1.3H550v-1.8l6.6-8.3h-12.2v-2.2h15.3v1.7l-6.7,8.5
			C555.4,1482.4,557.3,1483.1,558.6,1484.3z"/>
		<path d="M570.6,1472.1v23.8h-2.4v-21.6h-5.6v-2.2L570.6,1472.1L570.6,1472.1z"/>
		<path d="M596.5,1489.6h-4.8v6.3h-2.4v-6.3h-13.4v-1.8l12.6-15.8h2.7l-12.2,15.4h10.3v-5.5h2.4v5.5h4.8L596.5,1489.6L596.5,1489.6z
			"/>
	</g>
	<g>
		<path d="M558.6,1394.3c1.3,1.2,2,2.8,2,4.7c0,1.4-0.3,2.6-1,3.6c-0.7,1.1-1.6,1.9-2.9,2.5s-2.9,0.9-4.7,0.9
			c-1.7,0-3.3-0.3-4.9-0.8c-1.5-0.6-2.8-1.3-3.7-2.2l1.2-1.9c0.8,0.8,1.8,1.5,3.2,2c1.3,0.5,2.7,0.8,4.2,0.8c1.9,0,3.5-0.4,4.5-1.3
			c1.1-0.8,1.6-2,1.6-3.5s-0.5-2.6-1.6-3.5c-1.1-0.8-2.7-1.3-4.8-1.3H550v-1.8l6.6-8.3h-12.2v-2.2h15.3v1.7l-6.7,8.5
			C555.4,1392.4,557.3,1393.1,558.6,1394.3z"/>
		<path d="M570.6,1382.1v23.8h-2.4v-21.6h-5.6v-2.2L570.6,1382.1L570.6,1382.1z"/>
		<path d="M590.1,1393.7c1.6,1.2,2.4,3,2.4,5.2c0,1.4-0.3,2.6-1,3.7s-1.6,1.9-2.9,2.6c-1.3,0.6-2.9,0.9-4.8,0.9
			c-1.7,0-3.3-0.3-4.8-0.8s-2.8-1.3-3.7-2.2l1.2-1.9c0.8,0.8,1.8,1.5,3.1,2s2.7,0.8,4.2,0.8c2,0,3.5-0.4,4.6-1.3s1.6-2.1,1.6-3.5
			c0-1.6-0.6-2.9-1.8-3.7c-1.2-0.8-3.3-1.3-6.1-1.3H577l1.2-11.9h13v2.2h-10.9l-0.8,7.6h3.1C586,1391.8,588.5,1392.5,590.1,1393.7z"
			/>
	</g>
	<g>
		<path d="M558.6,1031.4c1.3,1.2,2,2.8,2,4.7c0,1.4-0.3,2.6-1,3.6c-0.7,1.1-1.6,1.9-2.9,2.5s-2.9,0.9-4.7,0.9
			c-1.7,0-3.3-0.3-4.9-0.8c-1.5-0.6-2.8-1.3-3.7-2.2l1.2-1.9c0.8,0.8,1.8,1.5,3.2,2c1.3,0.5,2.7,0.8,4.2,0.8c1.9,0,3.5-0.4,4.5-1.3
			c1.1-0.8,1.6-2,1.6-3.5s-0.5-2.6-1.6-3.5c-1.1-0.8-2.7-1.3-4.8-1.3H550v-1.8l6.6-8.3h-12.2v-2.2h15.3v1.7l-6.7,8.5
			C555.4,1029.5,557.3,1030.2,558.6,1031.4z"/>
		<path d="M570.6,1019.2v23.8h-2.4v-21.6h-5.6v-2.2H570.6z"/>
		<path d="M590.3,1029.6c1.2,0.6,2.2,1.4,2.8,2.5c0.7,1.1,1,2.3,1,3.8s-0.4,2.7-1.1,3.8c-0.7,1.1-1.7,2-2.9,2.6s-2.6,0.9-4.2,0.9
			c-3.2,0-5.6-1-7.2-3.1c-1.7-2.1-2.5-5-2.5-8.8c0-2.7,0.5-4.9,1.4-6.7c0.9-1.8,2.2-3.2,3.8-4.2s3.5-1.4,5.7-1.4
			c2.4,0,4.2,0.4,5.6,1.3l-1,2c-1.1-0.7-2.7-1.1-4.6-1.1c-2.6,0-4.7,0.8-6.2,2.5c-1.5,1.7-2.2,4.1-2.2,7.3c0,0.6,0,1.2,0.1,1.9
			c0.6-1.3,1.5-2.3,2.8-3c1.3-0.7,2.8-1.1,4.5-1.1C587.7,1028.8,589.1,1029,590.3,1029.6z M590.1,1039.7c1.1-0.9,1.6-2.2,1.6-3.8
			s-0.5-2.8-1.6-3.7s-2.5-1.4-4.4-1.4c-1.2,0-2.3,0.2-3.2,0.7s-1.6,1.1-2.2,1.9c-0.5,0.8-0.8,1.7-0.8,2.7c0,0.9,0.2,1.7,0.7,2.5
			c0.5,0.8,1.2,1.4,2.2,1.9s2.1,0.7,3.4,0.7C587.7,1041.1,589.1,1040.7,590.1,1039.7z"/>
	</g>
	<g>
		<path d="M302.7,702.3c1.3,1.2,2,2.8,2,4.7c0,1.4-0.3,2.6-1,3.6c-0.7,1.1-1.6,1.9-2.9,2.5c-1.3,0.6-2.9,0.9-4.7,0.9
			c-1.7,0-3.3-0.3-4.9-0.8c-1.5-0.6-2.8-1.3-3.7-2.2l1.2-1.9c0.8,0.8,1.8,1.5,3.2,2c1.3,0.5,2.7,0.8,4.2,0.8c1.9,0,3.5-0.4,4.5-1.3
			c1.1-0.8,1.6-2,1.6-3.5s-0.5-2.6-1.6-3.5c-1.1-0.8-2.7-1.3-4.8-1.3H294v-1.8l6.6-8.3h-12.2V690h15.3v1.7l-6.7,8.5
			C299.5,700.4,301.4,701.1,302.7,702.3z"/>
		<path d="M314.6,690.1v23.8h-2.4v-21.6h-5.6v-2.2L314.6,690.1L314.6,690.1z"/>
		<path d="M337.1,690.1v1.7l-10,22.1h-2.7l9.8-21.6H322v4.5h-2.4v-6.6L337.1,690.1L337.1,690.1z"/>
	</g>
	<g>
		<path d="M302.7,812.5c1.3,1.2,2,2.8,2,4.7c0,1.4-0.3,2.6-1,3.6c-0.7,1.1-1.6,1.9-2.9,2.5c-1.3,0.6-2.9,0.9-4.7,0.9
			c-1.7,0-3.3-0.3-4.9-0.8c-1.5-0.6-2.8-1.3-3.7-2.2l1.2-1.9c0.8,0.8,1.8,1.5,3.2,2c1.3,0.5,2.7,0.8,4.2,0.8c1.9,0,3.5-0.4,4.5-1.3
			c1.1-0.8,1.6-2,1.6-3.5s-0.5-2.6-1.6-3.5c-1.1-0.8-2.7-1.3-4.8-1.3H294v-1.8l6.6-8.3h-12.2v-2.2h15.3v1.7l-6.7,8.5
			C299.5,810.6,301.4,811.2,302.7,812.5z"/>
		<path d="M314.6,800.2V824h-2.4v-21.6h-5.6v-2.2H314.6L314.6,800.2z"/>
		<path d="M337.4,813.8c0.8,1,1.2,2.2,1.2,3.6c0,1.4-0.4,2.6-1.1,3.6s-1.8,1.8-3.2,2.4c-1.4,0.6-3,0.8-4.9,0.8
			c-2.9,0-5.1-0.6-6.7-1.8c-1.6-1.2-2.4-2.9-2.4-5c0-1.4,0.4-2.6,1.2-3.6c0.8-1,1.9-1.7,3.4-2.2c-1.2-0.5-2.2-1.2-2.8-2.1
			c-0.6-0.9-1-2-1-3.2c0-1.9,0.8-3.5,2.3-4.6c1.5-1.1,3.5-1.7,6.1-1.7c1.7,0,3.1,0.3,4.4,0.8s2.2,1.2,2.9,2.2s1.1,2.1,1.1,3.3
			c0,1.2-0.3,2.3-1,3.2s-1.6,1.6-2.8,2.1C335.4,812.1,336.6,812.8,337.4,813.8z M334.3,820.9c1.2-0.9,1.8-2,1.8-3.5
			s-0.6-2.6-1.8-3.5c-1.2-0.8-2.8-1.3-4.9-1.3s-3.7,0.4-4.9,1.3c-1.2,0.9-1.8,2-1.8,3.5s0.6,2.7,1.8,3.5c1.2,0.8,2.8,1.3,4.9,1.3
			S333.1,821.7,334.3,820.9z M325,809.5c1,0.8,2.5,1.2,4.3,1.2s3.3-0.4,4.3-1.2c1-0.8,1.6-1.8,1.6-3.1s-0.5-2.4-1.6-3.2
			s-2.5-1.2-4.3-1.2s-3.2,0.4-4.3,1.2c-1.1,0.8-1.6,1.8-1.6,3.1C323.5,807.7,324,808.8,325,809.5z"/>
	</g>
	<g>
		<path d="M302.7,906.6c1.3,1.2,2,2.8,2,4.7c0,1.4-0.3,2.6-1,3.6c-0.7,1.1-1.6,1.9-2.9,2.5s-2.9,0.9-4.7,0.9c-1.7,0-3.3-0.3-4.9-0.8
			c-1.5-0.6-2.8-1.3-3.7-2.2l1.2-1.9c0.8,0.8,1.8,1.5,3.2,2c1.3,0.5,2.7,0.8,4.2,0.8c1.9,0,3.5-0.4,4.5-1.3c1.1-0.8,1.6-2,1.6-3.5
			s-0.5-2.6-1.6-3.5c-1.1-0.8-2.7-1.3-4.8-1.3H294v-1.8l6.6-8.3h-12.2v-2.2h15.3v1.7l-6.7,8.5C299.5,904.7,301.4,905.4,302.7,906.6z
			"/>
		<path d="M314.6,894.4v23.8h-2.4v-21.6h-5.6v-2.2H314.6z"/>
		<path d="M335,897.3c1.7,2.1,2.5,5,2.5,8.8c0,2.7-0.5,4.9-1.4,6.7s-2.2,3.2-3.8,4.2s-3.5,1.4-5.7,1.4c-2.4,0-4.2-0.4-5.6-1.3l1-2
			c1.1,0.7,2.7,1.1,4.6,1.1c2.6,0,4.7-0.8,6.2-2.5s2.2-4.1,2.2-7.3c0-0.6,0-1.2-0.1-1.9c-0.6,1.3-1.5,2.3-2.8,3s-2.8,1.1-4.5,1.1
			c-1.6,0-3-0.3-4.2-0.9c-1.2-0.6-2.2-1.4-2.8-2.5c-0.7-1.1-1-2.3-1-3.8s0.4-2.7,1.1-3.8s1.7-2,2.9-2.6c1.2-0.6,2.6-0.9,4.2-0.9
			C330.9,894.2,333.3,895.2,335,897.3z M331.2,905.9c0.9-0.5,1.6-1.1,2.2-1.9c0.5-0.8,0.8-1.7,0.8-2.7c0-0.9-0.2-1.7-0.7-2.5
			s-1.2-1.4-2.2-1.9s-2.1-0.7-3.4-0.7c-1.7,0-3.1,0.5-4.2,1.4s-1.6,2.2-1.6,3.8s0.5,2.8,1.6,3.7s2.5,1.4,4.4,1.4
			C329.2,906.5,330.3,906.3,331.2,905.9z"/>
	</g>
	<g>
		<path d="M302.7,1012.2c1.3,1.2,2,2.8,2,4.7c0,1.4-0.3,2.6-1,3.6c-0.7,1.1-1.6,1.9-2.9,2.5s-2.9,0.9-4.7,0.9
			c-1.7,0-3.3-0.3-4.9-0.8c-1.5-0.6-2.8-1.3-3.7-2.2l1.2-1.9c0.8,0.8,1.8,1.5,3.2,2c1.3,0.5,2.7,0.8,4.2,0.8c1.9,0,3.5-0.4,4.5-1.3
			c1.1-0.8,1.6-2,1.6-3.5s-0.5-2.6-1.6-3.5c-1.1-0.8-2.7-1.3-4.8-1.3H294v-1.8l6.6-8.3h-12.2v-2.1h15.3v1.7l-6.7,8.5
			C299.5,1010.3,301.4,1011,302.7,1012.2z"/>
		<path d="M324.1,1021.6v2.2h-16.7v-1.8l9.9-9.7c1.2-1.2,2.1-2.3,2.5-3.2s0.7-1.8,0.7-2.7c0-1.4-0.5-2.5-1.4-3.3
			c-1-0.8-2.3-1.2-4.1-1.2c-2.8,0-5,0.9-6.5,2.7l-1.7-1.5c0.9-1.1,2.1-1.9,3.6-2.5c1.4-0.6,3.1-0.9,4.9-0.9c2.4,0,4.3,0.6,5.8,1.7
			c1.4,1.1,2.1,2.7,2.1,4.7c0,1.2-0.3,2.4-0.8,3.5s-1.6,2.4-3.1,3.9l-8.1,8L324.1,1021.6L324.1,1021.6z"/>
		<path d="M331.6,1022.5c-1.4-1-2.6-2.4-3.4-4.2s-1.2-4-1.2-6.4c0-2.5,0.4-4.6,1.2-6.4c0.8-1.8,1.9-3.2,3.4-4.2s3.1-1.5,4.9-1.5
			s3.5,0.5,4.9,1.5s2.6,2.4,3.4,4.2s1.2,4,1.2,6.4c0,2.5-0.4,4.6-1.2,6.4c-0.8,1.8-1.9,3.2-3.4,4.2c-1.4,1-3.1,1.5-4.9,1.5
			S333.1,1023.5,331.6,1022.5z M340.2,1020.6c1.1-0.8,1.9-1.9,2.5-3.4s0.9-3.3,0.9-5.3c0-2.1-0.3-3.9-0.9-5.3
			c-0.6-1.5-1.4-2.6-2.5-3.4c-1.1-0.8-2.3-1.2-3.7-1.2c-1.4,0-2.6,0.4-3.7,1.2s-1.9,1.9-2.5,3.4s-0.9,3.3-0.9,5.3
			c0,2.1,0.3,3.9,0.9,5.3s1.4,2.6,2.5,3.4c1.1,0.8,2.3,1.2,3.7,1.2C337.9,1021.7,339.1,1021.3,340.2,1020.6z"/>
	</g>
	<g>
		<path d="M302.7,1180.1c1.3,1.2,2,2.8,2,4.7c0,1.4-0.3,2.6-1,3.6c-0.7,1.1-1.6,1.9-2.9,2.5s-2.9,0.9-4.7,0.9
			c-1.7,0-3.3-0.3-4.9-0.8c-1.5-0.6-2.8-1.3-3.7-2.2l1.2-1.9c0.8,0.8,1.8,1.5,3.2,2c1.3,0.5,2.7,0.8,4.2,0.8c1.9,0,3.5-0.4,4.5-1.3
			c1.1-0.8,1.6-2,1.6-3.5s-0.5-2.6-1.6-3.5c-1.1-0.8-2.7-1.3-4.8-1.3H294v-1.8l6.6-8.3h-12.2v-2.2h15.3v1.7l-6.7,8.5
			C299.5,1178.3,301.4,1178.9,302.7,1180.1z"/>
		<path d="M324.1,1189.5v2.2h-16.7v-1.7l9.9-9.7c1.2-1.2,2.1-2.3,2.5-3.2s0.7-1.8,0.7-2.7c0-1.4-0.5-2.5-1.4-3.3
			c-1-0.8-2.3-1.2-4.1-1.2c-2.8,0-5,0.9-6.5,2.7l-1.7-1.5c0.9-1.1,2.1-1.9,3.6-2.5c1.4-0.6,3.1-0.9,4.9-0.9c2.4,0,4.3,0.6,5.8,1.7
			c1.4,1.1,2.1,2.7,2.1,4.7c0,1.2-0.3,2.4-0.8,3.5s-1.6,2.4-3.1,3.9l-8.1,8H324.1z"/>
		<path d="M343.4,1189.5v2.2h-16.7v-1.7l9.9-9.7c1.2-1.2,2.1-2.3,2.5-3.2s0.7-1.8,0.7-2.7c0-1.4-0.5-2.5-1.4-3.3
			c-1-0.8-2.3-1.2-4.1-1.2c-2.8,0-5,0.9-6.5,2.7l-1.7-1.5c0.9-1.1,2.1-1.9,3.6-2.5c1.4-0.6,3.1-0.9,4.9-0.9c2.4,0,4.3,0.6,5.8,1.7
			c1.4,1.1,2.1,2.7,2.1,4.7c0,1.2-0.3,2.4-0.8,3.5s-1.6,2.4-3.1,3.9l-8.1,8H343.4z"/>
	</g>
	<g>
		<path d="M302.7,1311.5c1.3,1.2,2,2.8,2,4.7c0,1.4-0.3,2.6-1,3.6c-0.7,1.1-1.6,1.9-2.9,2.5s-2.9,0.9-4.7,0.9
			c-1.7,0-3.3-0.3-4.9-0.8c-1.5-0.6-2.8-1.3-3.7-2.2l1.2-1.9c0.8,0.8,1.8,1.5,3.2,2c1.3,0.5,2.7,0.8,4.2,0.8c1.9,0,3.5-0.4,4.5-1.3
			c1.1-0.8,1.6-2,1.6-3.5s-0.5-2.6-1.6-3.5c-1.1-0.8-2.7-1.3-4.8-1.3H294v-1.8l6.6-8.3h-12.2v-2.2h15.3v1.7l-6.7,8.5
			C299.5,1309.7,301.4,1310.3,302.7,1311.5z"/>
		<path d="M324.1,1320.9v2.2h-16.7v-1.7l9.9-9.7c1.2-1.2,2.1-2.3,2.5-3.2s0.7-1.8,0.7-2.7c0-1.4-0.5-2.5-1.4-3.3
			c-1-0.8-2.3-1.2-4.1-1.2c-2.8,0-5,0.9-6.5,2.7l-1.7-1.5c0.9-1.1,2.1-1.9,3.6-2.5c1.4-0.6,3.1-0.9,4.9-0.9c2.4,0,4.3,0.6,5.8,1.7
			c1.4,1.1,2.1,2.7,2.1,4.7c0,1.2-0.3,2.4-0.8,3.5s-1.6,2.4-3.1,3.9l-8.1,8H324.1z"/>
		<path d="M341,1311.5c1.3,1.2,2,2.8,2,4.7c0,1.4-0.3,2.6-1,3.6c-0.7,1.1-1.6,1.9-2.9,2.5s-2.9,0.9-4.7,0.9c-1.7,0-3.3-0.3-4.9-0.8
			c-1.5-0.6-2.8-1.3-3.7-2.2l1.2-1.9c0.8,0.8,1.8,1.5,3.2,2c1.3,0.5,2.7,0.8,4.2,0.8c1.9,0,3.5-0.4,4.5-1.3c1.1-0.8,1.6-2,1.6-3.5
			s-0.5-2.6-1.6-3.5c-1.1-0.8-2.7-1.3-4.8-1.3h-1.7v-1.8l6.6-8.3h-12.2v-2.2H342v1.7l-6.7,8.5C337.8,1309.7,339.7,1310.3,341,1311.5
			z"/>
	</g>
	<g>
		<path d="M320.3,1450.1c1.3,1.2,2,2.8,2,4.7c0,1.4-0.3,2.6-1,3.6c-0.7,1.1-1.6,1.9-2.9,2.5s-2.9,0.9-4.7,0.9
			c-1.7,0-3.3-0.3-4.9-0.8c-1.5-0.6-2.8-1.3-3.7-2.2l1.2-1.9c0.8,0.8,1.8,1.5,3.2,2c1.3,0.5,2.7,0.8,4.2,0.8c1.9,0,3.5-0.4,4.5-1.3
			c1.1-0.8,1.6-2,1.6-3.5s-0.5-2.6-1.6-3.5c-1.1-0.8-2.7-1.3-4.8-1.3h-1.7v-1.8l6.6-8.3h-12.2v-2.2h15.3v1.7l-6.7,8.5
			C317.1,1448.2,319,1448.9,320.3,1450.1z"/>
		<path d="M341.8,1459.5v2.2h-16.7v-1.7l9.9-9.7c1.2-1.2,2.1-2.3,2.5-3.2s0.7-1.8,0.7-2.7c0-1.4-0.5-2.5-1.4-3.3
			c-1-0.8-2.3-1.2-4.1-1.2c-2.8,0-5,0.9-6.5,2.7l-1.7-1.5c0.9-1.1,2.1-1.9,3.6-2.5c1.4-0.6,3.1-0.9,4.9-0.9c2.4,0,4.3,0.6,5.8,1.7
			c1.4,1.1,2.1,2.7,2.1,4.7c0,1.2-0.3,2.4-0.8,3.5s-1.6,2.4-3.1,3.9l-8.1,8H341.8z"/>
		<path d="M364.3,1455.4h-4.8v6.3h-2.4v-6.3h-13.4v-1.8l12.6-15.8h2.7l-12.2,15.4h10.3v-5.5h2.4v5.5h4.8V1455.4z"/>
	</g>
	<g>
		<path d="M302.7,1563.4c1.3,1.2,2,2.8,2,4.7c0,1.4-0.3,2.6-1,3.6c-0.7,1.1-1.6,1.9-2.9,2.5s-2.9,0.9-4.7,0.9
			c-1.7,0-3.3-0.3-4.9-0.8c-1.5-0.6-2.8-1.3-3.7-2.2l1.2-1.9c0.8,0.8,1.8,1.5,3.2,2c1.3,0.5,2.7,0.8,4.2,0.8c1.9,0,3.5-0.4,4.5-1.3
			c1.1-0.8,1.6-2,1.6-3.5s-0.5-2.6-1.6-3.5c-1.1-0.8-2.7-1.3-4.8-1.3H294v-1.8l6.6-8.3h-12.2v-2.2h15.3v1.7l-6.7,8.5
			C299.5,1561.6,301.4,1562.2,302.7,1563.4z"/>
		<path d="M324.1,1572.8v2.2h-16.7v-1.7l9.9-9.7c1.2-1.2,2.1-2.3,2.5-3.2s0.7-1.8,0.7-2.7c0-1.4-0.5-2.5-1.4-3.3
			c-1-0.8-2.3-1.2-4.1-1.2c-2.8,0-5,0.9-6.5,2.7l-1.7-1.5c0.9-1.1,2.1-1.9,3.6-2.5c1.4-0.6,3.1-0.9,4.9-0.9c2.4,0,4.3,0.6,5.8,1.7
			c1.4,1.1,2.1,2.7,2.1,4.7c0,1.2-0.3,2.4-0.8,3.5s-1.6,2.4-3.1,3.9l-8.1,8H324.1z"/>
		<path d="M346.6,1568.8h-4.8v6.3h-2.4v-6.3H326v-1.8l12.6-15.8h2.7l-12.2,15.4h10.3v-5.5h2.4v5.5h4.8L346.6,1568.8L346.6,1568.8z"
			/>
		<path d="M366.4,1568.7h-13.3l-2.9,6.4h-2.6l10.9-23.8h2.5l10.9,23.8h-2.7L366.4,1568.7z M365.4,1566.6l-5.7-12.8l-5.7,12.8H365.4z
			"/>
	</g>
	<g>
		<path d="M320,1752.8c1.3,1.2,2,2.8,2,4.7c0,1.4-0.3,2.6-1,3.6c-0.7,1.1-1.6,1.9-2.9,2.5s-2.9,0.9-4.7,0.9c-1.7,0-3.3-0.3-4.9-0.8
			c-1.5-0.6-2.8-1.3-3.7-2.2l1.2-1.9c0.8,0.8,1.8,1.5,3.2,2c1.3,0.5,2.7,0.8,4.2,0.8c1.9,0,3.5-0.4,4.5-1.3c1.1-0.8,1.6-2,1.6-3.5
			s-0.5-2.6-1.6-3.5c-1.1-0.8-2.7-1.3-4.8-1.3h-1.7v-1.8l6.6-8.3h-12.2v-2.2h15.3v1.7l-6.7,8.5
			C316.8,1750.9,318.7,1751.6,320,1752.8z"/>
		<path d="M341.5,1762.2v2.2h-16.7v-1.7l9.9-9.7c1.2-1.2,2.1-2.3,2.5-3.2s0.7-1.8,0.7-2.7c0-1.4-0.5-2.5-1.4-3.3
			c-1-0.8-2.3-1.2-4.1-1.2c-2.8,0-5,0.9-6.5,2.7l-1.7-1.5c0.9-1.1,2.1-1.9,3.6-2.5c1.4-0.6,3.1-0.9,4.9-0.9c2.4,0,4.3,0.6,5.8,1.7
			c1.4,1.1,2.1,2.7,2.1,4.7c0,1.2-0.3,2.4-0.8,3.5s-1.6,2.4-3.1,3.9l-8.1,8H341.5z"/>
		<path d="M358.3,1752.2c1.6,1.2,2.4,3,2.4,5.2c0,1.4-0.3,2.6-1,3.7s-1.6,1.9-2.9,2.6c-1.3,0.6-2.9,0.9-4.8,0.9
			c-1.7,0-3.3-0.3-4.8-0.8s-2.8-1.3-3.7-2.2l1.2-1.9c0.8,0.8,1.8,1.5,3.1,2c1.3,0.5,2.7,0.8,4.2,0.8c2,0,3.5-0.4,4.6-1.3
			s1.6-2.1,1.6-3.5c0-1.6-0.6-2.9-1.8-3.7c-1.2-0.8-3.3-1.3-6.1-1.3h-5.1l1.2-11.9h13v2.2h-10.9l-0.8,7.6h3.1
			C354.3,1750.3,356.8,1750.9,358.3,1752.2z"/>
	</g>
	<g>
		<path d="M302.7,1953.9c1.3,1.2,2,2.8,2,4.7c0,1.4-0.3,2.6-1,3.6c-0.7,1.1-1.6,1.9-2.9,2.5s-2.9,0.9-4.7,0.9
			c-1.7,0-3.3-0.3-4.9-0.8c-1.5-0.6-2.8-1.3-3.7-2.2l1.2-1.9c0.8,0.8,1.8,1.5,3.2,2c1.3,0.5,2.7,0.8,4.2,0.8c1.9,0,3.5-0.4,4.5-1.3
			c1.1-0.8,1.6-2,1.6-3.5s-0.5-2.6-1.6-3.5c-1.1-0.8-2.7-1.3-4.8-1.3H294v-1.8l6.6-8.3h-12.2v-2.2h15.3v1.7l-6.7,8.5
			C299.5,1952,301.4,1952.7,302.7,1953.9z"/>
		<path d="M324.1,1963.3v2.2h-16.7v-1.7l9.9-9.7c1.2-1.2,2.1-2.3,2.5-3.2s0.7-1.8,0.7-2.7c0-1.4-0.5-2.5-1.4-3.3
			c-1-0.8-2.3-1.2-4.1-1.2c-2.8,0-5,0.9-6.5,2.7l-1.7-1.5c0.9-1.1,2.1-1.9,3.6-2.5c1.4-0.6,3.1-0.9,4.9-0.9c2.4,0,4.3,0.6,5.8,1.7
			c1.4,1.1,2.1,2.7,2.1,4.7c0,1.2-0.3,2.4-0.8,3.5s-1.6,2.4-3.1,3.9l-8.1,8H324.1z"/>
		<path d="M341.1,1952.1c1.2,0.6,2.2,1.4,2.8,2.5c0.7,1.1,1,2.3,1,3.8s-0.4,2.7-1.1,3.8c-0.7,1.1-1.7,2-2.9,2.6
			c-1.2,0.6-2.6,0.9-4.2,0.9c-3.2,0-5.6-1-7.2-3.1c-1.7-2.1-2.5-5-2.5-8.8c0-2.7,0.5-4.9,1.4-6.7c0.9-1.8,2.2-3.2,3.8-4.2
			s3.5-1.4,5.7-1.4c2.4,0,4.2,0.4,5.6,1.3l-1,2c-1.1-0.7-2.7-1.1-4.6-1.1c-2.6,0-4.7,0.8-6.2,2.5s-2.2,4.1-2.2,7.3
			c0,0.6,0,1.2,0.1,1.9c0.6-1.3,1.5-2.3,2.8-3s2.8-1.1,4.5-1.1C338.5,1951.2,339.9,1951.5,341.1,1952.1z M340.9,1962.2
			c1.1-0.9,1.6-2.2,1.6-3.8c0-1.6-0.5-2.8-1.6-3.7c-1.1-0.9-2.5-1.4-4.4-1.4c-1.2,0-2.3,0.2-3.2,0.7c-0.9,0.5-1.6,1.1-2.2,1.9
			c-0.5,0.8-0.8,1.7-0.8,2.7c0,0.9,0.2,1.7,0.7,2.5s1.2,1.4,2.2,1.9s2.1,0.7,3.4,0.7C338.4,1963.6,339.8,1963.1,340.9,1962.2z"/>
	</g>
	<g>
		<path d="M302.7,2037.4c1.3,1.2,2,2.8,2,4.7c0,1.4-0.3,2.6-1,3.6c-0.7,1.1-1.6,1.9-2.9,2.5c-1.3,0.6-2.9,0.9-4.7,0.9
			c-1.7,0-3.3-0.3-4.9-0.8c-1.5-0.6-2.8-1.3-3.7-2.2l1.2-1.9c0.8,0.8,1.8,1.5,3.2,2c1.3,0.5,2.7,0.8,4.2,0.8c1.9,0,3.5-0.4,4.5-1.3
			c1.1-0.8,1.6-2,1.6-3.5s-0.5-2.6-1.6-3.5c-1.1-0.8-2.7-1.3-4.8-1.3H294v-1.8l6.6-8.3h-12.2v-2.2h15.3v1.7l-6.7,8.5
			C299.5,2035.5,301.4,2036.2,302.7,2037.4z"/>
		<path d="M324.1,2046.8v2.2h-16.7v-1.7l9.9-9.7c1.2-1.2,2.1-2.3,2.5-3.2s0.7-1.8,0.7-2.7c0-1.4-0.5-2.5-1.4-3.3
			c-1-0.8-2.3-1.2-4.1-1.2c-2.8,0-5,0.9-6.5,2.7l-1.7-1.5c0.9-1.1,2.1-1.9,3.6-2.5c1.4-0.6,3.1-0.9,4.9-0.9c2.4,0,4.3,0.6,5.8,1.7
			c1.4,1.1,2.1,2.7,2.1,4.7c0,1.2-0.3,2.4-0.8,3.5s-1.6,2.4-3.1,3.9l-8.1,8H324.1z"/>
		<path d="M343.8,2025.2v1.7l-10,22.1h-2.7l9.8-21.6h-12.2v4.5h-2.4v-6.6L343.8,2025.2L343.8,2025.2z"/>
	</g>
	<g>
		<path d="M353.5,2249c1.3,1.2,2,2.8,2,4.7c0,1.4-0.3,2.6-1,3.6c-0.7,1.1-1.6,1.9-2.9,2.5c-1.3,0.6-2.9,0.9-4.7,0.9
			c-1.7,0-3.3-0.3-4.9-0.8c-1.5-0.6-2.8-1.3-3.7-2.2l1.2-1.9c0.8,0.8,1.8,1.5,3.2,2c1.3,0.5,2.7,0.8,4.2,0.8c1.9,0,3.5-0.4,4.5-1.3
			c1.1-0.8,1.6-2,1.6-3.5s-0.5-2.6-1.6-3.5c-1.1-0.8-2.7-1.3-4.8-1.3h-1.7v-1.8l6.6-8.3h-12.2v-2.2h15.3v1.7l-6.7,8.5
			C350.3,2247.1,352.2,2247.8,353.5,2249z"/>
		<path d="M375,2258.4v2.2h-16.7v-1.7l9.9-9.7c1.2-1.2,2.1-2.3,2.5-3.2s0.7-1.8,0.7-2.7c0-1.4-0.5-2.5-1.4-3.3
			c-1-0.8-2.3-1.2-4.1-1.2c-2.8,0-5,0.9-6.5,2.7l-1.7-1.5c0.9-1.1,2.1-1.9,3.6-2.5c1.4-0.6,3.1-0.9,4.9-0.9c2.4,0,4.3,0.6,5.8,1.7
			c1.4,1.1,2.1,2.7,2.1,4.7c0,1.2-0.3,2.4-0.8,3.5c-0.5,1.1-1.6,2.4-3.1,3.9l-8.1,8H375z"/>
		<path d="M395.2,2250.4c0.8,1,1.2,2.2,1.2,3.6c0,1.4-0.4,2.6-1.1,3.6s-1.8,1.8-3.2,2.4c-1.4,0.6-3,0.8-4.9,0.8
			c-2.9,0-5.1-0.6-6.7-1.8c-1.6-1.2-2.4-2.9-2.4-5c0-1.4,0.4-2.6,1.2-3.6c0.8-1,1.9-1.7,3.4-2.2c-1.2-0.5-2.2-1.2-2.8-2.1
			c-0.6-0.9-1-2-1-3.2c0-1.9,0.8-3.5,2.3-4.6c1.5-1.1,3.5-1.7,6.1-1.7c1.7,0,3.1,0.3,4.4,0.8s2.2,1.2,2.9,2.2s1.1,2.1,1.1,3.3
			c0,1.2-0.3,2.3-1,3.2s-1.6,1.6-2.8,2.1C393.2,2248.6,394.3,2249.4,395.2,2250.4z M392.1,2257.4c1.2-0.9,1.8-2,1.8-3.5
			s-0.6-2.6-1.8-3.5c-1.2-0.8-2.8-1.3-4.9-1.3s-3.7,0.4-4.9,1.3c-1.2,0.9-1.8,2-1.8,3.5s0.6,2.7,1.8,3.5c1.2,0.8,2.8,1.3,4.9,1.3
			S390.9,2258.3,392.1,2257.4z M382.8,2246.1c1,0.8,2.5,1.2,4.3,1.2s3.3-0.4,4.3-1.2c1-0.8,1.6-1.8,1.6-3.1s-0.5-2.4-1.6-3.2
			s-2.5-1.2-4.3-1.2s-3.2,0.4-4.3,1.2c-1.1,0.8-1.6,1.8-1.6,3.1C381.2,2244.3,381.8,2245.3,382.8,2246.1z"/>
	</g>
	<g>
		<path d="M558.9,2249c1.3,1.2,2,2.8,2,4.7c0,1.4-0.3,2.6-1,3.6c-0.7,1.1-1.6,1.9-2.9,2.5c-1.3,0.6-2.9,0.9-4.7,0.9
			c-1.7,0-3.3-0.3-4.9-0.8c-1.5-0.6-2.8-1.3-3.7-2.2l1.2-1.9c0.8,0.8,1.8,1.5,3.2,2c1.3,0.5,2.7,0.8,4.2,0.8c1.9,0,3.5-0.4,4.5-1.3
			c1.1-0.8,1.6-2,1.6-3.5s-0.5-2.6-1.6-3.5c-1.1-0.8-2.7-1.3-4.8-1.3h-1.7v-1.8l6.6-8.3h-12.2v-2.2H560v1.7l-6.7,8.5
			C555.7,2247.1,557.6,2247.8,558.9,2249z"/>
		<path d="M580.4,2258.4v2.2h-16.7v-1.7l9.9-9.7c1.2-1.2,2.1-2.3,2.5-3.2s0.7-1.8,0.7-2.7c0-1.4-0.5-2.5-1.4-3.3
			c-1-0.8-2.3-1.2-4.1-1.2c-2.8,0-5,0.9-6.5,2.7l-1.7-1.5c0.9-1.1,2.1-1.9,3.6-2.5c1.4-0.6,3.1-0.9,4.9-0.9c2.4,0,4.3,0.6,5.8,1.7
			c1.4,1.1,2.1,2.7,2.1,4.7c0,1.2-0.3,2.4-0.8,3.5c-0.5,1.1-1.6,2.4-3.1,3.9l-8.1,8H580.4z"/>
		<path d="M598.1,2239.7c1.7,2.1,2.5,5,2.5,8.8c0,2.7-0.5,4.9-1.4,6.7c-0.9,1.8-2.2,3.2-3.8,4.2s-3.5,1.4-5.7,1.4
			c-2.4,0-4.2-0.4-5.6-1.3l1-2c1.1,0.7,2.7,1.1,4.6,1.1c2.6,0,4.7-0.8,6.2-2.5s2.2-4.1,2.2-7.3c0-0.6,0-1.2-0.1-1.9
			c-0.6,1.3-1.5,2.3-2.8,3s-2.8,1.1-4.5,1.1c-1.6,0-3-0.3-4.2-0.9c-1.2-0.6-2.2-1.4-2.8-2.5c-0.7-1.1-1-2.3-1-3.8s0.4-2.7,1.1-3.8
			c0.7-1.1,1.7-2,2.9-2.6c1.2-0.6,2.6-0.9,4.2-0.9C594,2236.6,596.4,2237.6,598.1,2239.7z M594.3,2248.3c0.9-0.5,1.6-1.1,2.2-1.9
			c0.5-0.8,0.8-1.7,0.8-2.7c0-0.9-0.2-1.7-0.7-2.5s-1.2-1.4-2.2-1.9s-2.1-0.7-3.4-0.7c-1.7,0-3.1,0.5-4.2,1.4
			c-1.1,0.9-1.6,2.2-1.6,3.8c0,1.6,0.5,2.8,1.6,3.7s2.5,1.4,4.4,1.4C592.3,2249,593.4,2248.7,594.3,2248.3z"/>
	</g>
	<g>
		<path d="M913.9,2249c1.3,1.2,2,2.8,2,4.7c0,1.4-0.3,2.6-1,3.6c-0.7,1.1-1.6,1.9-2.9,2.5c-1.3,0.6-2.9,0.9-4.7,0.9
			c-1.7,0-3.3-0.3-4.9-0.8c-1.5-0.6-2.8-1.3-3.7-2.2l1.2-1.9c0.8,0.8,1.8,1.5,3.2,2c1.3,0.5,2.7,0.8,4.2,0.8c1.9,0,3.5-0.4,4.5-1.3
			c1.1-0.8,1.6-2,1.6-3.5s-0.5-2.6-1.6-3.5c-1.1-0.8-2.7-1.3-4.8-1.3h-1.7v-1.8l6.6-8.3h-12.2v-2.2H915v1.7l-6.7,8.5
			C910.7,2247.1,912.6,2247.8,913.9,2249z"/>
		<path d="M932.9,2249c1.3,1.2,2,2.8,2,4.7c0,1.4-0.3,2.6-1,3.6c-0.7,1.1-1.6,1.9-2.9,2.5c-1.3,0.6-2.9,0.9-4.7,0.9
			c-1.7,0-3.3-0.3-4.9-0.8c-1.5-0.6-2.8-1.3-3.7-2.2l1.2-1.9c0.8,0.8,1.8,1.5,3.2,2c1.3,0.5,2.7,0.8,4.2,0.8c1.9,0,3.5-0.4,4.5-1.3
			c1.1-0.8,1.6-2,1.6-3.5s-0.5-2.6-1.6-3.5c-1.1-0.8-2.7-1.3-4.8-1.3h-1.7v-1.8l6.6-8.3h-12.2v-2.2H934v1.7l-6.7,8.5
			C929.7,2247.1,931.6,2247.8,932.9,2249z"/>
		<path d="M954.4,2258.4v2.2h-16.7v-1.7l9.9-9.7c1.2-1.2,2.1-2.3,2.5-3.2s0.7-1.8,0.7-2.7c0-1.4-0.5-2.5-1.4-3.3
			c-1-0.8-2.3-1.2-4.1-1.2c-2.8,0-5,0.9-6.5,2.7l-1.7-1.5c0.9-1.1,2.1-1.9,3.6-2.5c1.4-0.6,3.1-0.9,4.9-0.9c2.4,0,4.3,0.6,5.8,1.7
			c1.4,1.1,2.1,2.7,2.1,4.7c0,1.2-0.3,2.4-0.8,3.5c-0.5,1.1-1.6,2.4-3.1,3.9l-8.1,8H954.4z"/>
	</g>
	<g>
		<path d="M1174.8,2249c1.3,1.2,2,2.8,2,4.7c0,1.4-0.3,2.6-1,3.6c-0.7,1.1-1.6,1.9-2.9,2.5c-1.3,0.6-2.9,0.9-4.7,0.9
			c-1.7,0-3.3-0.3-4.9-0.8c-1.5-0.6-2.8-1.3-3.7-2.2l1.2-1.9c0.8,0.8,1.8,1.5,3.2,2c1.3,0.5,2.7,0.8,4.2,0.8c1.9,0,3.5-0.4,4.5-1.3
			c1.1-0.8,1.6-2,1.6-3.5s-0.5-2.6-1.6-3.5c-1.1-0.8-2.7-1.3-4.8-1.3h-1.7v-1.8l6.6-8.3h-12.2v-2.2h15.3v1.7l-6.7,8.5
			C1171.6,2247.1,1173.5,2247.8,1174.8,2249z"/>
		<path d="M1193.8,2249c1.3,1.2,2,2.8,2,4.7c0,1.4-0.3,2.6-1,3.6c-0.7,1.1-1.6,1.9-2.9,2.5c-1.3,0.6-2.9,0.9-4.7,0.9
			c-1.7,0-3.3-0.3-4.9-0.8c-1.5-0.6-2.8-1.3-3.7-2.2l1.2-1.9c0.8,0.8,1.8,1.5,3.2,2c1.3,0.5,2.7,0.8,4.2,0.8c1.9,0,3.5-0.4,4.5-1.3
			c1.1-0.8,1.6-2,1.6-3.5s-0.5-2.6-1.6-3.5c-1.1-0.8-2.7-1.3-4.8-1.3h-1.7v-1.8l6.6-8.3h-12.2v-2.2h15.3v1.7l-6.7,8.5
			C1190.6,2247.1,1192.5,2247.8,1193.8,2249z"/>
		<path d="M1219.4,2254.3h-4.8v6.3h-2.4v-6.3h-13.4v-1.8l12.6-15.8h2.7l-12.2,15.4h10.3v-5.5h2.4v5.5h4.8V2254.3z"/>
	</g>
	<g>
		<path d="M1479,2249c1.3,1.2,2,2.8,2,4.7c0,1.4-0.3,2.6-1,3.6c-0.7,1.1-1.6,1.9-2.9,2.5c-1.3,0.6-2.9,0.9-4.7,0.9
			c-1.7,0-3.3-0.3-4.9-0.8c-1.5-0.6-2.8-1.3-3.7-2.2l1.2-1.9c0.8,0.8,1.8,1.5,3.2,2c1.3,0.5,2.7,0.8,4.2,0.8c1.9,0,3.5-0.4,4.5-1.3
			c1.1-0.8,1.6-2,1.6-3.5s-0.5-2.6-1.6-3.5c-1.1-0.8-2.7-1.3-4.8-1.3h-1.7v-1.8l6.6-8.3h-12.2v-2.2h15.3v1.7l-6.7,8.5
			C1475.7,2247.1,1477.6,2247.8,1479,2249z"/>
		<path d="M1498,2249c1.3,1.2,2,2.8,2,4.7c0,1.4-0.3,2.6-1,3.6c-0.7,1.1-1.6,1.9-2.9,2.5c-1.3,0.6-2.9,0.9-4.7,0.9
			c-1.7,0-3.3-0.3-4.9-0.8c-1.5-0.6-2.8-1.3-3.7-2.2l1.2-1.9c0.8,0.8,1.8,1.5,3.2,2c1.3,0.5,2.7,0.8,4.2,0.8c1.9,0,3.5-0.4,4.5-1.3
			c1.1-0.8,1.6-2,1.6-3.5s-0.5-2.6-1.6-3.5c-1.1-0.8-2.7-1.3-4.8-1.3h-1.7v-1.8l6.6-8.3h-12.2v-2.2h15.3v1.7l-6.7,8.5
			C1494.8,2247.1,1496.7,2247.8,1498,2249z"/>
		<path d="M1517.4,2247.2c1.2,0.6,2.2,1.4,2.8,2.5c0.7,1.1,1,2.3,1,3.8s-0.4,2.7-1.1,3.8s-1.7,2-2.9,2.6c-1.2,0.6-2.6,0.9-4.2,0.9
			c-3.2,0-5.6-1-7.2-3.1c-1.7-2.1-2.5-5-2.5-8.8c0-2.7,0.5-4.9,1.4-6.7c0.9-1.8,2.2-3.2,3.8-4.2s3.5-1.4,5.7-1.4
			c2.4,0,4.2,0.4,5.6,1.3l-1,2c-1.1-0.7-2.7-1.1-4.6-1.1c-2.6,0-4.7,0.8-6.2,2.5s-2.2,4.1-2.2,7.3c0,0.6,0,1.2,0.1,1.9
			c0.6-1.3,1.5-2.3,2.8-3s2.8-1.1,4.5-1.1C1514.8,2246.4,1516.2,2246.6,1517.4,2247.2z M1517.2,2257.3c1.1-0.9,1.6-2.2,1.6-3.8
			c0-1.6-0.5-2.8-1.6-3.7s-2.5-1.4-4.4-1.4c-1.2,0-2.3,0.2-3.2,0.7c-0.9,0.5-1.6,1.1-2.2,1.9c-0.5,0.8-0.8,1.7-0.8,2.7
			c0,0.9,0.2,1.7,0.7,2.5s1.2,1.4,2.2,1.9s2.1,0.7,3.4,0.7C1514.7,2258.7,1516.1,2258.3,1517.2,2257.3z"/>
	</g>
	<g>
		<path d="M1681.7,2249c1.3,1.2,2,2.8,2,4.7c0,1.4-0.3,2.6-1,3.6c-0.7,1.1-1.6,1.9-2.9,2.5c-1.3,0.6-2.9,0.9-4.7,0.9
			c-1.7,0-3.3-0.3-4.9-0.8c-1.5-0.6-2.8-1.3-3.7-2.2l1.2-1.9c0.8,0.8,1.8,1.5,3.2,2c1.3,0.5,2.7,0.8,4.2,0.8c1.9,0,3.5-0.4,4.5-1.3
			c1.1-0.8,1.6-2,1.6-3.5s-0.5-2.6-1.6-3.5c-1.1-0.8-2.7-1.3-4.8-1.3h-1.7v-1.8l6.6-8.3h-12.2v-2.2h15.3v1.7l-6.7,8.5
			C1678.5,2247.1,1680.4,2247.8,1681.7,2249z"/>
		<path d="M1700.7,2249c1.3,1.2,2,2.8,2,4.7c0,1.4-0.3,2.6-1,3.6c-0.7,1.1-1.6,1.9-2.9,2.5c-1.3,0.6-2.9,0.9-4.7,0.9
			c-1.7,0-3.3-0.3-4.9-0.8c-1.5-0.6-2.8-1.3-3.7-2.2l1.2-1.9c0.8,0.8,1.8,1.5,3.2,2c1.3,0.5,2.7,0.8,4.2,0.8c1.9,0,3.5-0.4,4.5-1.3
			c1.1-0.8,1.6-2,1.6-3.5s-0.5-2.6-1.6-3.5c-1.1-0.8-2.7-1.3-4.8-1.3h-1.7v-1.8l6.6-8.3h-12.2v-2.2h15.3v1.7l-6.7,8.5
			C1697.5,2247.1,1699.4,2247.8,1700.7,2249z"/>
		<path d="M1722.4,2236.8v1.7l-10,22.1h-2.7l9.8-21.6h-12.2v4.5h-2.4v-6.6L1722.4,2236.8L1722.4,2236.8z"/>
	</g>
	<g>
		<path d="M1859.7,2249c1.3,1.2,2,2.8,2,4.7c0,1.4-0.3,2.6-1,3.6c-0.7,1.1-1.6,1.9-2.9,2.5c-1.3,0.6-2.9,0.9-4.7,0.9
			c-1.7,0-3.3-0.3-4.9-0.8s-2.8-1.3-3.7-2.2l1.2-1.9c0.8,0.8,1.8,1.5,3.2,2c1.3,0.5,2.7,0.8,4.2,0.8c1.9,0,3.5-0.4,4.5-1.3
			c1.1-0.8,1.6-2,1.6-3.5s-0.5-2.6-1.6-3.5c-1.1-0.8-2.7-1.3-4.8-1.3h-1.7v-1.8l6.6-8.3h-12.2v-2.2h15.3v1.7l-6.7,8.5
			C1856.5,2247.1,1858.4,2247.8,1859.7,2249z"/>
		<path d="M1878.8,2249c1.3,1.2,2,2.8,2,4.7c0,1.4-0.3,2.6-1,3.6s-1.6,1.9-2.9,2.5c-1.3,0.6-2.9,0.9-4.7,0.9c-1.7,0-3.3-0.3-4.9-0.8
			c-1.5-0.6-2.8-1.3-3.7-2.2l1.2-1.9c0.8,0.8,1.8,1.5,3.2,2c1.3,0.5,2.7,0.8,4.2,0.8c1.9,0,3.5-0.4,4.5-1.3c1.1-0.8,1.6-2,1.6-3.5
			s-0.5-2.6-1.6-3.5c-1.1-0.9-2.7-1.3-4.8-1.3h-1.7v-1.8l6.6-8.3h-12.2v-2.2h15.3v1.7l-6.7,8.5
			C1875.6,2247.1,1877.4,2247.8,1878.8,2249z"/>
		<path d="M1901.2,2250.4c0.8,1,1.2,2.2,1.2,3.6c0,1.4-0.4,2.6-1.1,3.6s-1.8,1.8-3.2,2.4c-1.4,0.6-3,0.8-4.9,0.8
			c-2.9,0-5.1-0.6-6.7-1.8c-1.6-1.2-2.4-2.9-2.4-5c0-1.4,0.4-2.6,1.2-3.6s1.9-1.7,3.4-2.2c-1.2-0.5-2.2-1.2-2.8-2.1
			c-0.6-0.9-1-2-1-3.2c0-1.9,0.8-3.5,2.3-4.6c1.5-1.1,3.5-1.7,6.1-1.7c1.7,0,3.1,0.3,4.4,0.8s2.2,1.2,2.9,2.2c0.7,1,1.1,2.1,1.1,3.3
			c0,1.2-0.3,2.3-1,3.2s-1.6,1.6-2.8,2.1C1899.3,2248.6,1900.4,2249.4,1901.2,2250.4z M1898.1,2257.4c1.2-0.9,1.8-2,1.8-3.5
			s-0.6-2.6-1.8-3.5c-1.2-0.8-2.8-1.3-4.9-1.3s-3.7,0.4-4.9,1.3c-1.2,0.9-1.8,2-1.8,3.5s0.6,2.7,1.8,3.5c1.2,0.8,2.8,1.3,4.9,1.3
			C1895.3,2258.7,1896.9,2258.3,1898.1,2257.4z M1888.9,2246.1c1,0.8,2.5,1.2,4.3,1.2s3.3-0.4,4.3-1.2c1.1-0.8,1.6-1.8,1.6-3.1
			s-0.5-2.4-1.6-3.2s-2.5-1.2-4.3-1.2s-3.2,0.4-4.3,1.2c-1.1,0.8-1.6,1.8-1.6,3.1C1887.3,2244.3,1887.8,2245.3,1888.9,2246.1z"/>
	</g>
	<g>
		<path d="M689.9,2264.6c1.2-1.3,2.8-2,4.7-2c1.4,0,2.6,0.3,3.6,1c1.1,0.7,1.9,1.6,2.5,2.9s0.9,2.9,0.9,4.7c0,1.7-0.3,3.3-0.8,4.9
			c-0.5,1.6-1.3,2.8-2.2,3.7l-1.9-1.2c0.8-0.8,1.5-1.8,2-3.2c0.5-1.3,0.8-2.7,0.8-4.2c0-1.9-0.4-3.5-1.3-4.5c-0.8-1.1-2-1.6-3.5-1.6
			s-2.6,0.5-3.5,1.6c-0.8,1.1-1.3,2.7-1.3,4.8v1.7h-1.8l-8.3-6.6v12.2h-2.2v-15.3h1.7l8.5,6.7C688,2267.8,688.7,2265.9,689.9,2264.6
			z"/>
		<path d="M689.9,2245.6c1.2-1.3,2.8-2,4.7-2c1.4,0,2.6,0.3,3.6,1s1.9,1.6,2.5,2.9s0.9,2.9,0.9,4.7c0,1.7-0.3,3.3-0.8,4.9
			c-0.6,1.5-1.3,2.8-2.2,3.7l-1.9-1.2c0.8-0.8,1.5-1.8,2-3.2c0.5-1.3,0.8-2.7,0.8-4.2c0-1.9-0.4-3.5-1.3-4.5c-0.8-1.1-2-1.6-3.5-1.6
			s-2.6,0.5-3.5,1.6c-0.8,1.1-1.3,2.7-1.3,4.8v1.7h-1.8l-8.3-6.6v12.2h-2.2v-15.3h1.7l8.5,6.7C688,2248.8,688.7,2246.9,689.9,2245.6
			z"/>
		<path d="M700.2,2235.6c-1,1.4-2.4,2.6-4.2,3.4s-4,1.2-6.4,1.2c-2.5,0-4.6-0.4-6.4-1.2c-1.8-0.8-3.2-1.9-4.2-3.4s-1.5-3.1-1.5-4.9
			s0.5-3.5,1.5-4.9c1-1.4,2.4-2.6,4.2-3.4s4-1.2,6.4-1.2c2.5,0,4.6,0.4,6.4,1.2c1.8,0.8,3.2,1.9,4.2,3.4c1,1.4,1.5,3.1,1.5,4.9
			S701.2,2234.2,700.2,2235.6z M698.3,2227c-0.8-1.1-1.9-1.9-3.4-2.5c-1.5-0.6-3.3-0.9-5.3-0.9c-2.1,0-3.9,0.3-5.3,0.9
			c-1.5,0.6-2.6,1.4-3.4,2.5c-0.8,1.1-1.2,2.3-1.2,3.7s0.4,2.6,1.2,3.7c0.8,1.1,1.9,1.9,3.4,2.5c1.5,0.6,3.3,0.9,5.3,0.9
			c2.1,0,3.9-0.3,5.3-0.9c1.5-0.6,2.6-1.4,3.4-2.5c0.8-1.1,1.2-2.3,1.2-3.7S699,2228.1,698.3,2227z"/>
	</g>
	<g>
		<path d="M769.7,2264.6c1.2-1.3,2.8-2,4.7-2c1.4,0,2.6,0.3,3.6,1c1.1,0.7,1.9,1.6,2.5,2.9s0.9,2.9,0.9,4.7c0,1.7-0.3,3.3-0.8,4.9
			c-0.5,1.6-1.3,2.8-2.2,3.7l-1.9-1.2c0.8-0.8,1.5-1.8,2-3.2c0.5-1.3,0.8-2.7,0.8-4.2c0-1.9-0.4-3.5-1.3-4.5c-0.8-1.1-2-1.6-3.5-1.6
			s-2.6,0.5-3.5,1.6c-0.8,1.1-1.3,2.7-1.3,4.8v1.7h-1.8l-8.3-6.6v12.2h-2.2v-15.3h1.7l8.5,6.7
			C767.8,2267.8,768.5,2265.9,769.7,2264.6z"/>
		<path d="M769.7,2245.6c1.2-1.3,2.8-2,4.7-2c1.4,0,2.6,0.3,3.6,1s1.9,1.6,2.5,2.9s0.9,2.9,0.9,4.7c0,1.7-0.3,3.3-0.8,4.9
			c-0.6,1.5-1.3,2.8-2.2,3.7l-1.9-1.2c0.8-0.8,1.5-1.8,2-3.2c0.5-1.3,0.8-2.7,0.8-4.2c0-1.9-0.4-3.5-1.3-4.5c-0.8-1.1-2-1.6-3.5-1.6
			s-2.6,0.5-3.5,1.6c-0.8,1.1-1.3,2.7-1.3,4.8v1.7h-1.8l-8.3-6.6v12.2h-2.2v-15.3h1.7l8.5,6.7
			C767.8,2248.8,768.5,2246.9,769.7,2245.6z"/>
		<path d="M757.4,2233.6h23.8v2.4h-21.6v5.6h-2.2V2233.6z"/>
	</g>
	<g>
		<path d="M1067.6,2264.6c1.2-1.3,2.8-2,4.7-2c1.4,0,2.6,0.3,3.6,1c1.1,0.7,1.9,1.6,2.5,2.9s0.9,2.9,0.9,4.7c0,1.7-0.3,3.3-0.8,4.9
			c-0.5,1.6-1.3,2.8-2.2,3.7l-1.9-1.2c0.8-0.8,1.5-1.8,2-3.2c0.5-1.3,0.8-2.7,0.8-4.2c0-1.9-0.4-3.5-1.3-4.5c-0.8-1.1-2-1.6-3.5-1.6
			s-2.6,0.5-3.5,1.6c-0.8,1.1-1.3,2.7-1.3,4.8v1.7h-1.8l-8.3-6.6v12.2h-2.2v-15.3h1.7l8.5,6.7
			C1065.7,2267.8,1066.4,2265.9,1067.6,2264.6z"/>
		<path d="M1067.6,2245.6c1.2-1.3,2.8-2,4.7-2c1.4,0,2.6,0.3,3.6,1s1.9,1.6,2.5,2.9s0.9,2.9,0.9,4.7c0,1.7-0.3,3.3-0.8,4.9
			c-0.6,1.5-1.3,2.8-2.2,3.7l-1.9-1.2c0.8-0.8,1.5-1.8,2-3.2c0.5-1.3,0.8-2.7,0.8-4.2c0-1.9-0.4-3.5-1.3-4.5c-0.8-1.1-2-1.6-3.5-1.6
			s-2.6,0.5-3.5,1.6c-0.8,1.1-1.3,2.7-1.3,4.8v1.7h-1.8l-8.3-6.6v12.2h-2.2v-15.3h1.7l8.5,6.7
			C1065.7,2248.8,1066.4,2246.9,1067.6,2245.6z"/>
		<path d="M1067.6,2226.5c1.2-1.3,2.8-2,4.7-2c1.4,0,2.6,0.3,3.6,1s1.9,1.6,2.5,2.9s0.9,2.9,0.9,4.7c0,1.7-0.3,3.3-0.8,4.9
			c-0.6,1.5-1.3,2.8-2.2,3.7l-1.9-1.2c0.8-0.8,1.5-1.8,2-3.2c0.5-1.3,0.8-2.7,0.8-4.2c0-1.9-0.4-3.5-1.3-4.5c-0.8-1.1-2-1.6-3.5-1.6
			s-2.6,0.5-3.5,1.6c-0.8,1.1-1.3,2.7-1.3,4.8v1.7h-1.8l-8.3-6.6v12.2h-2.2v-15.3h1.7l8.5,6.7
			C1065.7,2229.7,1066.4,2227.8,1067.6,2226.5z"/>
	</g>
	<g>
		<path d="M1310.2,2264.6c1.2-1.3,2.8-2,4.7-2c1.4,0,2.6,0.3,3.6,1c1.1,0.7,1.9,1.6,2.5,2.9s0.9,2.9,0.9,4.7c0,1.7-0.3,3.3-0.8,4.9
			c-0.5,1.6-1.3,2.8-2.2,3.7l-1.9-1.2c0.8-0.8,1.5-1.8,2-3.2c0.5-1.3,0.8-2.7,0.8-4.2c0-1.9-0.4-3.5-1.3-4.5c-0.8-1.1-2-1.6-3.5-1.6
			s-2.6,0.5-3.5,1.6c-0.8,1.1-1.3,2.7-1.3,4.8v1.7h-1.8l-8.3-6.6v12.2h-2.2v-15.3h1.7l8.5,6.7
			C1308.3,2267.8,1309,2265.9,1310.2,2264.6z"/>
		<path d="M1310.2,2245.6c1.2-1.3,2.8-2,4.7-2c1.4,0,2.6,0.3,3.6,1s1.9,1.6,2.5,2.9s0.9,2.9,0.9,4.7c0,1.7-0.3,3.3-0.8,4.9
			c-0.6,1.5-1.3,2.8-2.2,3.7l-1.9-1.2c0.8-0.8,1.5-1.8,2-3.2c0.5-1.3,0.8-2.7,0.8-4.2c0-1.9-0.4-3.5-1.3-4.5c-0.8-1.1-2-1.6-3.5-1.6
			s-2.6,0.5-3.5,1.6c-0.8,1.1-1.3,2.7-1.3,4.8v1.7h-1.8l-8.3-6.6v12.2h-2.2v-15.3h1.7l8.5,6.7
			C1308.3,2248.8,1309,2246.9,1310.2,2245.6z"/>
		<path d="M1315.5,2219.9v4.8h6.3v2.4h-6.3v13.4h-1.8L1298,2228v-2.7l15.4,12.2v-10.3h-5.5v-2.4h5.5v-4.8L1315.5,2219.9
			L1315.5,2219.9z"/>
		<path d="M1315.4,2200.2v13.3l6.4,2.9v2.6l-23.8-10.9v-2.5l23.8-10.9v2.7L1315.4,2200.2z M1313.4,2201.1l-12.8,5.7l12.8,5.7V2201.1
			z"/>
	</g>
	<g>
		<path d="M1375.7,2264.6c1.2-1.3,2.8-2,4.7-2c1.4,0,2.6,0.3,3.6,1c1.1,0.7,1.9,1.6,2.5,2.9s0.9,2.9,0.9,4.7c0,1.7-0.3,3.3-0.8,4.9
			c-0.5,1.6-1.3,2.8-2.2,3.7l-1.9-1.2c0.8-0.8,1.5-1.8,2-3.2c0.5-1.3,0.8-2.7,0.8-4.2c0-1.9-0.4-3.5-1.3-4.5c-0.8-1.1-2-1.6-3.5-1.6
			s-2.6,0.5-3.5,1.6c-0.8,1.1-1.3,2.7-1.3,4.8v1.7h-1.8l-8.3-6.6v12.2h-2.2v-15.3h1.7l8.5,6.7
			C1373.8,2267.8,1374.5,2265.9,1375.7,2264.6z"/>
		<path d="M1375.7,2245.6c1.2-1.3,2.8-2,4.7-2c1.4,0,2.6,0.3,3.6,1s1.9,1.6,2.5,2.9s0.9,2.9,0.9,4.7c0,1.7-0.3,3.3-0.8,4.9
			c-0.6,1.5-1.3,2.8-2.2,3.7l-1.9-1.2c0.8-0.8,1.5-1.8,2-3.2c0.5-1.3,0.8-2.7,0.8-4.2c0-1.9-0.4-3.5-1.3-4.5c-0.8-1.1-2-1.6-3.5-1.6
			s-2.6,0.5-3.5,1.6c-0.8,1.1-1.3,2.7-1.3,4.8v1.7h-1.8l-8.3-6.6v12.2h-2.2v-15.3h1.7l8.5,6.7
			C1373.8,2248.8,1374.5,2246.9,1375.7,2245.6z"/>
		<path d="M1375.1,2226.7c1.2-1.6,3-2.4,5.2-2.4c1.4,0,2.6,0.3,3.7,1c1.1,0.6,1.9,1.6,2.6,2.9c0.6,1.3,0.9,2.9,0.9,4.8
			c0,1.7-0.3,3.3-0.8,4.8s-1.3,2.8-2.2,3.7l-1.9-1.2c0.8-0.8,1.5-1.8,2-3.1c0.5-1.3,0.8-2.7,0.8-4.2c0-2-0.4-3.5-1.3-4.6
			c-0.9-1.1-2.1-1.6-3.5-1.6c-1.6,0-2.9,0.6-3.7,1.8c-0.8,1.2-1.3,3.3-1.3,6.1v5.1l-11.9-1.2v-13h2.2v10.9l7.6,0.8v-3.1
			C1373.2,2230.8,1373.9,2228.3,1375.1,2226.7z"/>
	</g>
	<g>
		<path d="M529.7,841.7c1.7,1.5,2.6,3.4,2.6,6c0,2.5-0.9,4.5-2.6,6c-1.7,1.4-4.1,2.2-7.1,2.2h-6.4v7.5h-2.5v-23.8h8.9
			C525.6,839.5,528,840.2,529.7,841.7z M527.9,852c1.2-1,1.9-2.5,1.9-4.4c0-1.9-0.6-3.4-1.9-4.4c-1.2-1-3-1.5-5.4-1.5h-6.3v11.9h6.3
			C524.9,853.6,526.7,853.1,527.9,852z"/>
		<path d="M552.5,855.1h-15c0.1,1.9,0.9,3.4,2.1,4.5c1.3,1.1,2.9,1.7,4.9,1.7c1.1,0,2.1-0.2,3.1-0.6c0.9-0.4,1.7-1,2.4-1.8l1.4,1.6
			c-0.8,1-1.8,1.7-3,2.2s-2.5,0.7-3.9,0.7c-1.8,0-3.5-0.4-4.9-1.2s-2.5-1.9-3.3-3.2c-0.8-1.4-1.2-2.9-1.2-4.7c0-1.7,0.4-3.3,1.1-4.7
			c0.8-1.4,1.8-2.5,3.1-3.2c1.3-0.8,2.8-1.2,4.5-1.2s3.1,0.4,4.5,1.2c1.3,0.8,2.3,1.8,3.1,3.2c0.7,1.4,1.1,2.9,1.1,4.7L552.5,855.1z
			 M539.5,849c-1.2,1.1-1.8,2.5-2,4.3h12.7c-0.2-1.8-0.8-3.2-2-4.3s-2.6-1.6-4.4-1.6C542.1,847.4,540.7,847.9,539.5,849z"/>
		<path d="M564.3,855.3h-4.1v8h-2.4v-17.9h2.4v7.9h4.1l6.3-7.9h2.6l-7,8.7l7.5,9.2h-2.9L564.3,855.3z"/>
		<path d="M589.8,847.6H583v15.7h-2.4v-15.7h-6.8v-2.1h15.9L589.8,847.6L589.8,847.6z"/>
		<path d="M595.2,862.3c-1.4-0.8-2.5-1.9-3.3-3.2c-0.8-1.4-1.2-2.9-1.2-4.7c0-1.7,0.4-3.3,1.2-4.7c0.8-1.4,1.9-2.5,3.3-3.2
			c1.4-0.8,2.9-1.2,4.7-1.2c1.7,0,3.3,0.4,4.7,1.2s2.5,1.8,3.2,3.2c0.8,1.4,1.2,2.9,1.2,4.7c0,1.7-0.4,3.3-1.2,4.7s-1.9,2.5-3.2,3.2
			c-1.4,0.8-2.9,1.2-4.7,1.2C598.1,863.5,596.6,863.1,595.2,862.3z M603.3,860.5c1-0.6,1.8-1.4,2.4-2.5c0.6-1.1,0.9-2.3,0.9-3.6
			c0-1.4-0.3-2.6-0.9-3.6s-1.4-1.9-2.4-2.5c-1-0.6-2.1-0.9-3.4-0.9c-1.3,0-2.4,0.3-3.4,0.9c-1,0.6-1.8,1.4-2.4,2.5
			c-0.6,1.1-0.9,2.3-0.9,3.6c0,1.4,0.3,2.6,0.9,3.6c0.6,1.1,1.4,1.9,2.4,2.5c1,0.6,2.1,0.9,3.4,0.9
			C601.1,861.3,602.3,861,603.3,860.5z"/>
		<path d="M627.9,846.4c1.4,0.8,2.4,1.8,3.2,3.2s1.2,3,1.2,4.7c0,1.8-0.4,3.4-1.2,4.8c-0.8,1.4-1.8,2.5-3.2,3.2
			c-1.3,0.8-2.9,1.1-4.6,1.1c-1.5,0-2.8-0.3-3.9-0.9c-1.2-0.6-2.1-1.5-2.9-2.6v10h-2.4v-24.5h2.3v3.5c0.7-1.2,1.7-2.1,2.9-2.7
			c1.2-0.6,2.5-1,4-1C625,845.3,626.5,845.7,627.9,846.4z M626.5,860.5c1-0.6,1.8-1.4,2.4-2.5c0.6-1.1,0.9-2.3,0.9-3.6
			c0-1.4-0.3-2.6-0.9-3.6c-0.6-1.1-1.4-1.9-2.4-2.5c-1-0.6-2.2-0.9-3.4-0.9c-1.3,0-2.4,0.3-3.4,0.9c-1,0.6-1.8,1.4-2.4,2.5
			c-0.6,1.1-0.9,2.3-0.9,3.6c0,1.4,0.3,2.6,0.9,3.6c0.6,1.1,1.4,1.9,2.4,2.5c1,0.6,2.1,0.9,3.4,0.9
			C624.4,861.3,625.5,861,626.5,860.5z"/>
	</g>
	<g>
		<path d="M513.5,622H510v7.1h-1.6v-15.4h1.6v6.9h3.5l5.2-6.9h1.8l-5.7,7.5l6,7.9h-1.9L513.5,622z"/>
		<path d="M523.2,614.6c-0.2-0.2-0.3-0.5-0.3-0.8s0.1-0.6,0.3-0.8c0.2-0.2,0.5-0.3,0.8-0.3s0.6,0.1,0.8,0.3s0.3,0.5,0.3,0.8
			s-0.1,0.6-0.3,0.8s-0.5,0.3-0.8,0.3S523.4,614.8,523.2,614.6z M523.2,617.5h1.6V629h-1.6V617.5z"/>
		<path d="M542.1,617.5V629h-1.4v-9.2l-4.7,7.7h-0.7l-4.7-7.8v9.2h-1.4v-11.6h1.6l4.9,8.3l5-8.3h1.4L542.1,617.5L542.1,617.5z"/>
		<path d="M546.6,617.5h1.6v5.1h7.3v-5.1h1.6V629h-1.6v-5.1h-7.3v5.1h-1.6V617.5z"/>
		<path d="M560.7,628.8c-0.2-0.2-0.3-0.5-0.3-0.9c0-0.3,0.1-0.6,0.3-0.8c0.2-0.2,0.5-0.3,0.8-0.3s0.6,0.1,0.8,0.3s0.4,0.5,0.4,0.8
			s-0.1,0.6-0.4,0.9c-0.2,0.2-0.5,0.4-0.8,0.4S561,629,560.7,628.8z"/>
		<path d="M519.9,648.8c0.6,0.6,0.8,1.5,0.8,2.5c0,1.3-0.5,2.4-1.4,3.1s-2.3,1.1-4.2,1.1h-6.8V640h6.4c1.6,0,2.9,0.3,3.9,1
			c0.9,0.7,1.4,1.6,1.4,2.9c0,0.9-0.2,1.6-0.7,2.2c-0.4,0.6-1.1,1-1.8,1.3C518.6,647.7,519.4,648.2,519.9,648.8z M510,647h4.7
			c1.2,0,2.1-0.2,2.7-0.7c0.6-0.5,1-1.2,1-2.1c0-0.9-0.3-1.6-1-2.1c-0.6-0.5-1.6-0.7-2.7-0.7H510V647z M519.2,651.2
			c0-1.9-1.3-2.9-4-2.9H510v5.9h5.2C517.8,654.1,519.2,653.2,519.2,651.2z"/>
		<path d="M524.4,641c-0.2-0.2-0.3-0.5-0.3-0.8s0.1-0.6,0.3-0.8s0.5-0.3,0.8-0.3s0.6,0.1,0.8,0.3c0.2,0.2,0.3,0.5,0.3,0.8
			s-0.1,0.6-0.3,0.8c-0.2,0.2-0.5,0.3-0.8,0.3S524.7,641.2,524.4,641z M524.5,643.9h1.6v11.6h-1.6V643.9z"/>
		<path d="M541.7,654.1v4.2h-1.5v-2.8h-10.4v2.8h-1.5v-4.2h0.7c0.8,0,1.3-0.6,1.6-1.7c0.3-1.1,0.5-2.6,0.6-4.6l0.2-3.9h8.5v10.2
			H541.7z M532.3,651.9c-0.2,1.1-0.6,1.8-1.1,2.2h7.2v-8.8h-5.6l-0.1,2.6C532.6,649.5,532.5,650.8,532.3,651.9z"/>
		<path d="M555.2,643.9v11.6h-1.6v-10.2h-7.3v10.2h-1.6v-11.6H555.2z"/>
		<path d="M561.4,654.8c-0.9-0.5-1.6-1.2-2.1-2.1c-0.5-0.9-0.8-1.9-0.8-3c0-1.1,0.3-2.1,0.8-3c0.5-0.9,1.2-1.6,2.1-2.1
			c0.9-0.5,1.9-0.7,3-0.7s2.1,0.2,3,0.7s1.6,1.2,2.1,2.1c0.5,0.9,0.8,1.9,0.8,3c0,1.1-0.3,2.1-0.8,3c-0.5,0.9-1.2,1.6-2.1,2.1
			c-0.9,0.5-1.9,0.8-3,0.8C563.3,655.6,562.3,655.3,561.4,654.8z M566.6,653.6c0.7-0.4,1.2-0.9,1.5-1.6s0.6-1.5,0.6-2.4
			c0-0.9-0.2-1.7-0.6-2.4c-0.4-0.7-0.9-1.2-1.5-1.6c-0.7-0.4-1.4-0.6-2.2-0.6s-1.6,0.2-2.2,0.6c-0.7,0.4-1.2,0.9-1.5,1.6
			s-0.6,1.5-0.6,2.4c0,0.9,0.2,1.7,0.6,2.4c0.4,0.7,0.9,1.2,1.5,1.6c0.7,0.4,1.4,0.6,2.2,0.6C565.2,654.2,565.9,654,566.6,653.6z"/>
		<path d="M582.3,643.9v11.6h-1.6v-4.8c-1.3,0.6-2.6,0.9-3.9,0.9c-1.4,0-2.5-0.3-3.3-1c-0.8-0.6-1.2-1.6-1.2-2.9v-3.8h1.6v3.7
			c0,0.9,0.3,1.5,0.8,2c0.6,0.4,1.3,0.7,2.3,0.7c1.1,0,2.3-0.3,3.7-0.9v-5.5L582.3,643.9L582.3,643.9z"/>
		<path d="M586.8,643.9h1.6v9.2l7.7-9.2h1.4v11.6h-1.6v-9.2l-7.7,9.2h-1.4V643.9z"/>
		<path d="M601.9,643.9h1.6v5.1h7.3v-5.1h1.6v11.6h-1.6v-5.1h-7.3v5.1h-1.6V643.9z"/>
		<path d="M621,650.3h-2.6v5.1h-1.6v-11.6h1.6v5.1h2.7l4.1-5.1h1.7l-4.6,5.6l4.9,6h-1.8L621,650.3z"/>
		<path d="M638.7,643.9l-5.8,13c-0.5,1.1-1,1.9-1.6,2.3c-0.6,0.5-1.4,0.7-2.2,0.7c-0.6,0-1.1-0.1-1.6-0.3c-0.5-0.2-0.9-0.4-1.3-0.8
			l0.7-1.2c0.6,0.6,1.3,0.9,2.1,0.9c0.5,0,1-0.1,1.4-0.4s0.7-0.8,1-1.5l0.5-1.1l-5.2-11.5h1.6l4.4,9.8l4.4-9.8L638.7,643.9
			L638.7,643.9L638.7,643.9z"/>
	</g>
	<g>
		<path d="M2058.8,2047.5c1.2-1.3,2.8-2,4.7-2c1.4,0,2.6,0.3,3.6,1s1.9,1.6,2.5,2.9s0.9,2.9,0.9,4.7c0,1.7-0.3,3.3-0.8,4.9
			c-0.6,1.5-1.3,2.8-2.2,3.7l-1.9-1.2c0.8-0.8,1.5-1.8,2-3.2c0.5-1.3,0.8-2.7,0.8-4.2c0-1.9-0.4-3.5-1.3-4.5c-0.8-1.1-2-1.6-3.5-1.6
			s-2.6,0.5-3.5,1.6c-0.8,1.1-1.3,2.7-1.3,4.8v1.7h-1.8l-8.3-6.6v12.2h-2.2v-15.3h1.7l8.5,6.7
			C2056.9,2050.7,2057.6,2048.8,2058.8,2047.5z"/>
		<path d="M2069.1,2037.5c-1,1.4-2.4,2.6-4.2,3.4s-4,1.2-6.4,1.2c-2.5,0-4.6-0.4-6.4-1.2c-1.8-0.8-3.2-1.9-4.2-3.4s-1.5-3.1-1.5-4.9
			s0.5-3.5,1.5-4.9s2.4-2.6,4.2-3.4s4-1.2,6.4-1.2c2.5,0,4.6,0.4,6.4,1.2c1.8,0.8,3.2,1.9,4.2,3.4c1,1.4,1.5,3.1,1.5,4.9
			S2070.1,2036.1,2069.1,2037.5z M2067.2,2028.9c-0.8-1.1-1.9-1.9-3.4-2.5s-3.3-0.9-5.3-0.9c-2.1,0-3.9,0.3-5.3,0.9
			c-1.5,0.6-2.6,1.4-3.4,2.5c-0.8,1.1-1.2,2.3-1.2,3.7s0.4,2.6,1.2,3.7s1.9,1.9,3.4,2.5s3.3,0.9,5.3,0.9c2.1,0,3.9-0.3,5.3-0.9
			c1.5-0.6,2.6-1.4,3.4-2.5c0.8-1.1,1.2-2.3,1.2-3.7S2067.9,2030,2067.2,2028.9z"/>
		<path d="M2046.6,2013.1h23.8v2.4h-21.6v5.6h-2.2L2046.6,2013.1L2046.6,2013.1z"/>
		<path d="M2064,1990.3v13.3l6.4,2.9v2.6l-23.8-10.9v-2.5l23.8-10.9v2.7L2064,1990.3z M2062,1991.3l-12.8,5.7l12.8,5.7V1991.3z"/>
	</g>
</g>
<g id="doors_2_">
	<g>
		<path class="st2" d="M418,1619.3c6.3,9.5,14.9,29.9,14.9,29.9s-5.9,4.9-14.9,4.5"/>
		<path class="st3" d="M431.4,1650.8l-15.7-31.7c-0.4-0.8-0.1-1.8,0.7-2.2l0,0c0.8-0.4,1.8-0.1,2.2,0.7l15.7,31.7
			c0.4,0.8,0.1,1.8-0.7,2.2l0,0C432.8,1651.9,431.8,1651.6,431.4,1650.8z"/>
	</g>
	<g>
		<path class="st2" d="M418,1931.1c6.3,9.5,14.9,29.9,14.9,29.9s-5.9,4.9-14.9,4.5"/>
		<path class="st3" d="M431.4,1962.6l-15.7-31.7c-0.4-0.8-0.1-1.8,0.7-2.2l0,0c0.8-0.4,1.8-0.1,2.2,0.7l15.7,31.7
			c0.4,0.8,0.1,1.8-0.7,2.2l0,0C432.8,1963.7,431.8,1963.4,431.4,1962.6z"/>
	</g>
	<g>
		<path class="st2" d="M418,2014.6c6.3,9.5,14.9,29.9,14.9,29.9s-5.9,4.9-14.9,4.5"/>
		<path class="st3" d="M431.4,2046.1l-15.7-31.7c-0.4-0.8-0.1-1.8,0.7-2.2l0,0c0.8-0.4,1.8-0.1,2.2,0.7l15.7,31.7
			c0.4,0.8,0.1,1.8-0.7,2.2l0,0C432.8,2047.2,431.8,2046.9,431.4,2046.1z"/>
	</g>
	<g>
		<path class="st2" d="M430.8,2161.1c9.5-6.3,29.9-14.9,29.9-14.9s4.9,5.9,4.5,14.9"/>
		<path class="st3" d="M462.3,2147.6l-31.7,15.7c-0.8,0.4-1.8,0.1-2.2-0.7l0,0c-0.4-0.8-0.1-1.8,0.7-2.2l31.7-15.7
			c0.8-0.4,1.8-0.1,2.2,0.7l0,0C463.4,2146.3,463.1,2147.2,462.3,2147.6z"/>
	</g>
	<g>
		<path class="st2" d="M602.7,2161.1c9.5-6.3,29.9-14.9,29.9-14.9s4.9,5.9,4.5,14.9"/>
		<path class="st3" d="M634.2,2147.6l-31.7,15.7c-0.8,0.4-1.8,0.1-2.2-0.7l0,0c-0.4-0.8-0.1-1.8,0.7-2.2l31.7-15.7
			c0.8-0.4,1.8-0.1,2.2,0.7l0,0C635.3,2146.3,635,2147.2,634.2,2147.6z"/>
	</g>
	<g>
		<path class="st2" d="M743.8,2161.1c9.5-6.3,29.9-14.9,29.9-14.9s4.9,5.9,4.5,14.9"/>
		<path class="st3" d="M775.3,2147.6l-31.7,15.7c-0.8,0.4-1.8,0.1-2.2-0.7l0,0c-0.4-0.8-0.1-1.8,0.7-2.2l31.7-15.7
			c0.8-0.4,1.8-0.1,2.2,0.7l0,0C776.4,2146.3,776.1,2147.2,775.3,2147.6z"/>
	</g>
	<g>
		<path class="st2" d="M668.9,2161.1c9.5-6.3,29.9-14.9,29.9-14.9s4.9,5.9,4.5,14.9"/>
		<path class="st3" d="M700.4,2147.6l-31.7,15.7c-0.8,0.4-1.8,0.1-2.2-0.7l0,0c-0.4-0.8-0.1-1.8,0.7-2.2l31.7-15.7
			c0.8-0.4,1.8-0.1,2.2,0.7l0,0C701.5,2146.3,701.2,2147.2,700.4,2147.6z"/>
	</g>
	<g>
		<path class="st2" d="M946.3,2161.1c9.5-6.3,29.9-14.9,29.9-14.9s4.9,5.9,4.5,14.9"/>
		<path class="st3" d="M977.8,2147.6l-31.7,15.7c-0.8,0.4-1.8,0.1-2.2-0.7l0,0c-0.4-0.8-0.1-1.8,0.7-2.2l31.7-15.7
			c0.8-0.4,1.8-0.1,2.2,0.7l0,0C978.9,2146.3,978.6,2147.2,977.8,2147.6z"/>
	</g>
	<g>
		<path class="st2" d="M1044.4,2161.1c9.5-6.3,29.9-14.9,29.9-14.9s4.9,5.9,4.5,14.9"/>
		<path class="st3" d="M1075.8,2147.6l-31.7,15.7c-0.8,0.4-1.8,0.1-2.2-0.7l0,0c-0.4-0.8-0.1-1.8,0.7-2.2l31.7-15.7
			c0.8-0.4,1.8-0.1,2.2,0.7l0,0C1077,2146.3,1076.6,2147.2,1075.8,2147.6z"/>
	</g>
	<g>
		<path class="st2" d="M1127.9,2161.1c9.5-6.3,29.9-14.9,29.9-14.9s4.9,5.9,4.5,14.9"/>
		<path class="st3" d="M1159.3,2147.6l-31.7,15.7c-0.8,0.4-1.8,0.1-2.2-0.7l0,0c-0.4-0.8-0.1-1.8,0.7-2.2l31.7-15.7
			c0.8-0.4,1.8-0.1,2.2,0.7l0,0C1160.5,2146.3,1160.1,2147.2,1159.3,2147.6z"/>
	</g>
	<g>
		<path class="st2" d="M1287.4,2161.1c9.5-6.3,29.9-14.9,29.9-14.9s4.9,5.9,4.5,14.9"/>
		<path class="st3" d="M1318.8,2147.6l-31.7,15.7c-0.8,0.4-1.8,0.1-2.2-0.7l0,0c-0.4-0.8-0.1-1.8,0.7-2.2l31.7-15.7
			c0.8-0.4,1.8-0.1,2.2,0.7l0,0C1320,2146.3,1319.6,2147.2,1318.8,2147.6z"/>
	</g>
	<g>
		<path class="st2" d="M1352.9,2161.1c9.5-6.3,29.9-14.9,29.9-14.9s4.9,5.9,4.5,14.9"/>
		<path class="st3" d="M1384.4,2147.6l-31.7,15.7c-0.8,0.4-1.8,0.1-2.2-0.7l0,0c-0.4-0.8-0.1-1.8,0.7-2.2l31.7-15.7
			c0.8-0.4,1.8-0.1,2.2,0.7l0,0C1385.5,2146.3,1385.2,2147.2,1384.4,2147.6z"/>
	</g>
	<g>
		<path class="st2" d="M1434.7,2161.1c9.5-6.3,29.9-14.9,29.9-14.9s4.9,5.9,4.5,14.9"/>
		<path class="st3" d="M1466.2,2147.6l-31.7,15.7c-0.8,0.4-1.8,0.1-2.2-0.7l0,0c-0.4-0.8-0.1-1.8,0.7-2.2l31.7-15.7
			c0.8-0.4,1.8-0.1,2.2,0.7l0,0C1467.3,2146.3,1467,2147.2,1466.2,2147.6z"/>
	</g>
	<g>
		<path class="st2" d="M1419.2,2209.7c6.3-9.5,14.9-29.9,14.9-29.9s-5.9-4.9-14.9-4.5"/>
		<path class="st3" d="M1432.6,2178.2l-15.7,31.7c-0.4,0.8-0.1,1.8,0.7,2.2l0,0c0.8,0.4,1.8,0.1,2.2-0.7l15.7-31.7
			c0.4-0.8,0.1-1.8-0.7-2.2l0,0C1434,2177.1,1433,2177.4,1432.6,2178.2z"/>
	</g>
	<g>
		<path class="st2" d="M1625.4,2161.1c9.5-6.3,29.9-14.9,29.9-14.9s4.9,5.9,4.5,14.9"/>
		<path class="st3" d="M1656.9,2147.6l-31.7,15.7c-0.8,0.4-1.8,0.1-2.2-0.7l0,0c-0.4-0.8-0.1-1.8,0.7-2.2l31.7-15.7
			c0.8-0.4,1.8-0.1,2.2,0.7l0,0C1658,2146.3,1657.7,2147.2,1656.9,2147.6z"/>
	</g>
	<g>
		<path class="st2" d="M1973.5,2194.6c9.5,6.3,29.9,14.9,29.9,14.9s4.9-5.9,4.5-14.9"/>
		<path class="st3" d="M2005,2208.1l-31.7-15.7c-0.8-0.4-1.8-0.1-2.2,0.7l0,0c-0.4,0.8-0.1,1.8,0.7,2.2l31.7,15.7
			c0.8,0.4,1.8,0.1,2.2-0.7l0,0C2006.1,2209.4,2005.8,2208.5,2005,2208.1z"/>
	</g>
	<g>
		<path class="st2" d="M1856.5,2161c9.5-6.3,29.9-14.9,29.9-14.9s4.9,5.9,4.5,14.9"/>
		<path class="st3" d="M1887.9,2147.6l-31.7,15.7c-0.8,0.4-1.8,0.1-2.2-0.7l0,0c-0.4-0.8-0.1-1.8,0.7-2.2l31.7-15.7
			c0.8-0.4,1.8-0.1,2.2,0.7l0,0C1889.1,2146.2,1888.7,2147.2,1887.9,2147.6z"/>
	</g>
	<g>
		<path class="st2" d="M1957.6,2092.7c9.5,6.3,29.9,14.9,29.9,14.9s4.9-5.9,4.5-14.9"/>
		<path class="st3" d="M1989.1,2106.1l-31.7-15.7c-0.8-0.4-1.8-0.1-2.2,0.7l0,0c-0.4,0.8-0.1,1.8,0.7,2.2l31.7,15.7
			c0.8,0.4,1.8,0.1,2.2-0.7l0,0C1990.2,2107.5,1989.9,2106.5,1989.1,2106.1z"/>
	</g>
	<g>
		<path class="st2" d="M1626.1,2077.8c-9.5,6.3-29.9,14.9-29.9,14.9s-4.9-5.9-4.5-14.9"/>
		<path class="st3" d="M1594.6,2091.3l31.7-15.7c0.8-0.4,1.8-0.1,2.2,0.7l0,0c0.4,0.8,0.1,1.8-0.7,2.2l-31.7,15.7
			c-0.8,0.4-1.8,0.1-2.2-0.7l0,0C1593.5,2092.6,1593.8,2091.6,1594.6,2091.3z"/>
	</g>
	<g>
		<path class="st2" d="M1700.5,2077.8c-9.5,6.3-29.9,14.9-29.9,14.9s-4.9-5.9-4.5-14.9"/>
		<path class="st3" d="M1669,2091.2l31.7-15.7c0.8-0.4,1.8-0.1,2.2,0.7l0,0c0.4,0.8,0.1,1.8-0.7,2.2l-31.7,15.7
			c-0.8,0.4-1.8,0.1-2.2-0.7l0,0C1667.9,2092.6,1668.2,2091.6,1669,2091.2z"/>
	</g>
	<g>
		<path class="st2" d="M1390.7,2078.1c-9.5,6.3-29.9,14.9-29.9,14.9s-4.9-5.9-4.5-14.9"/>
		<path class="st3" d="M1359.2,2091.5l31.7-15.7c0.8-0.4,1.8-0.1,2.2,0.7l0,0c0.4,0.8,0.1,1.8-0.7,2.2l-31.7,15.7
			c-0.8,0.4-1.8,0.1-2.2-0.7l0,0C1358.1,2092.9,1358.4,2091.9,1359.2,2091.5z"/>
	</g>
	<g>
		<path class="st2" d="M1465.6,2078.1c-9.5,6.3-29.9,14.9-29.9,14.9s-4.9-5.9-4.5-14.9"/>
		<path class="st3" d="M1434.1,2091.5l31.7-15.7c0.8-0.4,1.8-0.1,2.2,0.7l0,0c0.4,0.8,0.1,1.8-0.7,2.2l-31.7,15.7
			c-0.8,0.4-1.8,0.1-2.2-0.7l0,0C1432.9,2092.9,1433.3,2091.9,1434.1,2091.5z"/>
	</g>
	<g>
		<path class="st2" d="M1478.3,2057.3c-6.3-9.5-14.9-29.9-14.9-29.9s5.9-4.9,14.9-4.5"/>
		<path class="st3" d="M1464.9,2025.9l15.7,31.7c0.4,0.8,0.1,1.8-0.7,2.2l0,0c-0.8,0.4-1.8,0.1-2.2-0.7l-15.7-31.7
			c-0.4-0.8-0.1-1.8,0.7-2.2l0,0C1463.5,2024.7,1464.5,2025.1,1464.9,2025.9z"/>
	</g>
	<g>
		<path class="st2" d="M1327,2078.1c-9.5,6.3-29.9,14.9-29.9,14.9s-4.9-5.9-4.5-14.9"/>
		<path class="st3" d="M1295.5,2091.5l31.7-15.7c0.8-0.4,1.8-0.1,2.2,0.7l0,0c0.4,0.8,0.1,1.8-0.7,2.2l-31.7,15.7
			c-0.8,0.4-1.8,0.1-2.2-0.7l0,0C1294.3,2092.9,1294.7,2091.9,1295.5,2091.5z"/>
	</g>
	<g>
		<path class="st2" d="M1193.6,2078.1c-9.5,6.3-29.9,14.9-29.9,14.9s-4.9-5.9-4.5-14.9"/>
		<path class="st3" d="M1162.2,2091.5l31.7-15.7c0.8-0.4,1.8-0.1,2.2,0.7l0,0c0.4,0.8,0.1,1.8-0.7,2.2l-31.7,15.7
			c-0.8,0.4-1.8,0.1-2.2-0.7l0,0C1161,2092.9,1161.4,2091.9,1162.2,2091.5z"/>
	</g>
	<g>
		<path class="st2" d="M955.8,2017.6c-6.3-9.5-14.9-29.9-14.9-29.9s5.9-4.9,14.9-4.5"/>
		<path class="st3" d="M942.4,1986.1l15.7,31.7c0.4,0.8,0.1,1.8-0.7,2.2l0,0c-0.8,0.4-1.8,0.1-2.2-0.7l-15.7-31.7
			c-0.4-0.8-0.1-1.8,0.7-2.2l0,0C941,1984.9,942,1985.3,942.4,1986.1z"/>
	</g>
	<g>
		<path class="st2" d="M932.8,2078.1c-9.5,6.3-29.9,14.9-29.9,14.9s-4.9-5.9-4.5-14.9"/>
		<path class="st3" d="M901.3,2091.5l31.7-15.7c0.8-0.4,1.8-0.1,2.2,0.7l0,0c0.4,0.8,0.1,1.8-0.7,2.2l-31.7,15.7
			c-0.8,0.4-1.8,0.1-2.2-0.7l0,0C900.2,2092.9,900.5,2091.9,901.3,2091.5z"/>
	</g>
	<g>
		<path class="st2" d="M707.3,2078.1c-9.5,6.3-29.9,14.9-29.9,14.9s-4.9-5.9-4.5-14.9"/>
		<path class="st3" d="M675.8,2091.5l31.7-15.7c0.8-0.4,1.8-0.1,2.2,0.7l0,0c0.4,0.8,0.1,1.8-0.7,2.2l-31.7,15.7
			c-0.8,0.4-1.8,0.1-2.2-0.7l0,0C674.7,2092.9,675,2091.9,675.8,2091.5z"/>
	</g>
	<g>
		<path class="st2" d="M736.7,2056.1c-6.3-9.5-14.9-29.9-14.9-29.9s5.9-4.9,14.9-4.5"/>
		<path class="st3" d="M723.3,2024.6l15.7,31.7c0.4,0.8,0.1,1.8-0.7,2.2l0,0c-0.8,0.4-1.8,0.1-2.2-0.7l-15.7-31.7
			c-0.4-0.8-0.1-1.8,0.7-2.2l0,0C721.9,2023.4,722.9,2023.8,723.3,2024.6z"/>
	</g>
	<g>
		<path class="st2" d="M618.6,2078.1c-9.5,6.3-29.9,14.9-29.9,14.9s-4.9-5.9-4.5-14.9"/>
		<path class="st3" d="M587.2,2091.5l31.7-15.7c0.8-0.4,1.8-0.1,2.2,0.7l0,0c0.4,0.8,0.1,1.8-0.7,2.2l-31.7,15.7
			c-0.8,0.4-1.8,0.1-2.2-0.7l0,0C586,2092.9,586.4,2091.9,587.2,2091.5z"/>
	</g>
	<g>
		<path class="st2" d="M418.1,1544.9c6.3,9.5,14.9,29.9,14.9,29.9s-5.9,4.9-14.9,4.5"/>
		<path class="st3" d="M431.5,1576.4l-15.7-31.7c-0.4-0.8-0.1-1.8,0.7-2.2l0,0c0.8-0.4,1.8-0.1,2.2,0.7l15.7,31.7
			c0.4,0.8,0.1,1.8-0.7,2.2l0,0C432.9,1577.6,431.9,1577.2,431.5,1576.4z"/>
	</g>
	<g>
		<path class="st2" d="M418.1,1385.7c6.3,9.5,14.9,29.9,14.9,29.9s-5.9,4.9-14.9,4.5"/>
		<path class="st3" d="M431.5,1417.2l-15.7-31.7c-0.4-0.8-0.1-1.8,0.7-2.2l0,0c0.8-0.4,1.8-0.1,2.2,0.7l15.7,31.7
			c0.4,0.8,0.1,1.8-0.7,2.2l0,0C432.9,1418.3,431.9,1418,431.5,1417.2z"/>
	</g>
	<g>
		<path class="st2" d="M418.1,1288.7c6.3,9.5,14.9,29.9,14.9,29.9s-5.9,4.9-14.9,4.5"/>
		<path class="st3" d="M431.5,1320.2l-15.7-31.7c-0.4-0.8-0.1-1.8,0.7-2.2l0,0c0.8-0.4,1.8-0.1,2.2,0.7l15.7,31.7
			c0.4,0.8,0.1,1.8-0.7,2.2l0,0C432.9,1321.3,431.9,1321,431.5,1320.2z"/>
	</g>
	<g>
		<path class="st2" d="M418.1,1126.6c6.3,9.5,14.9,29.9,14.9,29.9s-5.9,4.9-14.9,4.5"/>
		<path class="st3" d="M431.5,1158.1l-15.7-31.7c-0.4-0.8-0.1-1.8,0.7-2.2l0,0c0.8-0.4,1.8-0.1,2.2,0.7l15.7,31.7
			c0.4,0.8,0.1,1.8-0.7,2.2l0,0C432.9,1159.2,431.9,1158.9,431.5,1158.1z"/>
	</g>
	<g>
		<path class="st2" d="M418.1,1051.9c6.3,9.5,14.9,29.9,14.9,29.9s-5.9,4.9-14.9,4.5"/>
		<path class="st3" d="M431.5,1083.4l-15.7-31.7c-0.4-0.8-0.1-1.8,0.7-2.2l0,0c0.8-0.4,1.8-0.1,2.2,0.7l15.7,31.7
			c0.4,0.8,0.1,1.8-0.7,2.2l0,0C432.9,1084.5,431.9,1084.2,431.5,1083.4z"/>
	</g>
	<g>
		<path class="st2" d="M418.1,883.8c6.3,9.5,14.9,29.9,14.9,29.9s-5.9,4.9-14.9,4.5"/>
		<path class="st3" d="M431.5,915.3l-15.7-31.7c-0.4-0.8-0.1-1.8,0.7-2.2l0,0c0.8-0.4,1.8-0.1,2.2,0.7l15.7,31.7
			c0.4,0.8,0.1,1.8-0.7,2.2l0,0C432.9,916.4,431.9,916.1,431.5,915.3z"/>
	</g>
	<g>
		<path class="st2" d="M418.1,720.4c6.3-9.5,14.9-29.9,14.9-29.9s-5.9-4.9-14.9-4.5"/>
		<path class="st3" d="M431.5,688.9l-15.7,31.7c-0.4,0.8-0.1,1.8,0.7,2.2l0,0c0.8,0.4,1.8,0.1,2.2-0.7l15.7-31.7
			c0.4-0.8,0.1-1.8-0.7-2.2l0,0C432.9,687.8,431.9,688.1,431.5,688.9z"/>
	</g>
	<g>
		<path class="st2" d="M486.7,719.1c-6.3-9.5-14.9-29.9-14.9-29.9s5.9-4.9,14.9-4.5"/>
		<path class="st3" d="M473.3,687.6l15.7,31.7c0.4,0.8,0.1,1.8-0.7,2.2l0,0c-0.8,0.4-1.8,0.1-2.2-0.7l-15.7-31.7
			c-0.4-0.8-0.1-1.8,0.7-2.2l0,0C471.9,686.5,472.9,686.8,473.3,687.6z"/>
	</g>
	<g>
		<path class="st2" d="M509.7,728.9c9.5-6.3,29.9-14.9,29.9-14.9s4.9,5.9,4.5,14.9"/>
		<path class="st3" d="M541.2,715.4l-31.7,15.7c-0.8,0.4-1.8,0.1-2.2-0.7l0,0c-0.4-0.8-0.1-1.8,0.7-2.2l31.7-15.7
			c0.8-0.4,1.8-0.1,2.2,0.7l0,0C542.3,714.1,542,715,541.2,715.4z"/>
	</g>
	<g>
		<path class="st2" d="M639.2,965.2c-9.5,6.3-29.9,14.9-29.9,14.9s-4.9-5.9-4.5-14.9"/>
		<path class="st3" d="M607.7,978.7l31.7-15.7c0.8-0.4,1.8-0.1,2.2,0.7l0,0c0.4,0.8,0.1,1.8-0.7,2.2l-31.7,15.7
			c-0.8,0.4-1.8,0.1-2.2-0.7l0,0C606.6,980,606.9,979.1,607.7,978.7z"/>
	</g>
	<g>
		<path class="st2" d="M486.7,1085.1c-6.3-9.5-14.9-29.9-14.9-29.9s5.9-4.9,14.9-4.5"/>
		<path class="st3" d="M473.3,1053.6l15.7,31.7c0.4,0.8,0.1,1.8-0.7,2.2l0,0c-0.8,0.4-1.8,0.1-2.2-0.7l-15.7-31.8
			c-0.4-0.8-0.1-1.8,0.7-2.2l0,0C471.9,1052.4,472.9,1052.8,473.3,1053.6z"/>
	</g>
	<g>
		<path class="st2" d="M486.7,1264c-6.3-9.5-14.9-29.9-14.9-29.9s5.9-4.9,14.9-4.5"/>
		<path class="st3" d="M473.3,1232.5l15.7,31.7c0.4,0.8,0.1,1.8-0.7,2.2l0,0c-0.8,0.4-1.8,0.1-2.2-0.7l-15.7-31.7
			c-0.4-0.8-0.1-1.8,0.7-2.2l0,0C471.9,1231.4,472.9,1231.7,473.3,1232.5z"/>
	</g>
	<g>
		<path class="st2" d="M486.7,1495.9c-6.3-9.5-14.9-29.9-14.9-29.9s5.9-4.9,14.9-4.5"/>
		<path class="st3" d="M473.3,1464.4l15.7,31.7c0.4,0.8,0.1,1.8-0.7,2.2l0,0c-0.8,0.4-1.8,0.1-2.2-0.7l-15.7-31.7
			c-0.4-0.8-0.1-1.8,0.7-2.2l0,0C471.9,1463.2,472.9,1463.6,473.3,1464.4z"/>
	</g>
	<g>
		<path class="st2" d="M486.7,1410.2c-6.3-9.5-14.9-29.9-14.9-29.9s5.9-4.9,14.9-4.5"/>
		<path class="st3" d="M473.3,1378.7l15.7,31.7c0.4,0.8,0.1,1.8-0.7,2.2l0,0c-0.8,0.4-1.8,0.1-2.2-0.7l-15.7-31.7
			c-0.4-0.8-0.1-1.8,0.7-2.2l0,0C471.9,1377.6,472.9,1377.9,473.3,1378.7z"/>
	</g>
	<g>
		<path class="st2" d="M554.5,1356.3c-9.5,6.3-29.9,14.9-29.9,14.9s-4.9-5.9-4.5-14.9"/>
		<path class="st3" d="M523,1369.8l31.7-15.7c0.8-0.4,1.8-0.1,2.2,0.7l0,0c0.4,0.8,0.1,1.8-0.7,2.2l-31.7,15.7
			c-0.8,0.4-1.8,0.1-2.2-0.7l0,0C521.9,1371.1,522.2,1370.2,523,1369.8z"/>
	</g>
	<g>
		<path class="st2" d="M554.5,1435.9c-9.5-6.3-29.9-14.9-29.9-14.9s-4.9,5.9-4.5,14.9"/>
		<path class="st3" d="M523,1422.5l31.7,15.7c0.8,0.4,1.8,0.1,2.2-0.7l0,0c0.4-0.8,0.1-1.8-0.7-2.2l-31.7-15.7
			c-0.8-0.4-1.8-0.1-2.2,0.7l0,0C521.9,1421.1,522.2,1422.1,523,1422.5z"/>
	</g>
	<g>
		<path class="st2" d="M486.7,1583.7c-6.3-9.5-14.9-29.9-14.9-29.9s5.9-4.9,14.9-4.5"/>
		<path class="st3" d="M473.3,1552.2l15.7,31.7c0.4,0.8,0.1,1.8-0.7,2.2l0,0c-0.8,0.4-1.8,0.1-2.2-0.7l-15.7-31.7
			c-0.4-0.8-0.1-1.8,0.7-2.2l0,0C471.9,1551.1,472.9,1551.4,473.3,1552.2z"/>
	</g>
	<g>
		<path class="st2" d="M2019.6,2142.6c-6.3-9.5-14.9-29.9-14.9-29.9s5.9-4.9,14.9-4.5"/>
		<path class="st3" d="M2006.1,2111.1l15.7,31.7c0.4,0.8,0.1,1.8-0.7,2.2l0,0c-0.8,0.4-1.8,0.1-2.2-0.7l-15.7-31.7
			c-0.4-0.8-0.1-1.8,0.7-2.2l0,0C2004.7,2110,2005.7,2110.3,2006.1,2111.1z"/>
	</g>
	<g>
		<path class="st2" d="M409,629c-6.3-9.5-14.9-29.9-14.9-29.9s5.9-4.9,14.9-4.5"/>
		<path class="st3" d="M395.6,597.6l15.7,31.7c0.4,0.8,0.1,1.8-0.7,2.2l0,0c-0.8,0.4-1.8,0.1-2.2-0.7L392.6,599
			c-0.4-0.8-0.1-1.8,0.7-2.2l0,0C394.2,596.4,395.2,596.8,395.6,597.6z"/>
	</g>
	<g>
		<path class="st2" d="M402,660.5c-9.5-6.3-29.9-14.9-29.9-14.9s-4.9,5.9-4.5,14.9"/>
		<path class="st3" d="M370.6,647l31.7,15.7c0.8,0.4,1.8,0.1,2.2-0.7l0,0c0.4-0.8,0.1-1.8-0.7-2.2L372,644.1
			c-0.8-0.4-1.8-0.1-2.2,0.7l0,0C369.4,645.6,369.8,646.6,370.6,647z"/>
	</g>
	<g>
		<path class="st2" d="M403.2,728.8c-9.5-6.3-29.9-14.9-29.9-14.9s-4.9,5.9-4.5,14.9"/>
		<path class="st3" d="M371.7,715.4l31.7,15.7c0.8,0.4,1.8,0.1,2.2-0.7l0,0c0.4-0.8,0.1-1.8-0.7-2.2l-31.7-15.7
			c-0.8-0.4-1.8-0.1-2.2,0.7l0,0C370.6,714,370.9,715,371.7,715.4z"/>
	</g>
</g>
<g id="stairs_2_">
	<g>
		<g>
			<line class="st4" x1="292.1" y1="2086.5" x2="292.1" y2="2117"/>
			<line class="st4" x1="299.7" y1="2086.5" x2="299.7" y2="2117"/>
			<line class="st4" x1="307.3" y1="2086.5" x2="307.3" y2="2117"/>
			<line class="st4" x1="314.9" y1="2086.5" x2="314.9" y2="2117"/>
			<line class="st4" x1="322.5" y1="2086.5" x2="322.5" y2="2117"/>
			<line class="st4" x1="330.1" y1="2086.5" x2="330.1" y2="2117"/>
			<line class="st4" x1="337.7" y1="2086.5" x2="337.7" y2="2117"/>
			<line class="st4" x1="345.4" y1="2086.5" x2="345.4" y2="2117"/>
			<line class="st4" x1="353" y1="2086.5" x2="353" y2="2117"/>
			<line class="st4" x1="360.6" y1="2086.5" x2="360.6" y2="2117"/>
			<line class="st4" x1="368.2" y1="2086.5" x2="368.2" y2="2117"/>
			<line class="st4" x1="375.8" y1="2086.5" x2="375.8" y2="2117"/>
			<line class="st4" x1="383.4" y1="2086.5" x2="383.4" y2="2117"/>
			<line class="st4" x1="391.1" y1="2086.5" x2="391.1" y2="2117"/>
		</g>
		<g>
			<line class="st4" x1="292.1" y1="2121.3" x2="292.1" y2="2151.7"/>
			<line class="st4" x1="299.7" y1="2121.3" x2="299.7" y2="2151.7"/>
			<line class="st4" x1="307.3" y1="2121.3" x2="307.3" y2="2151.7"/>
			<line class="st4" x1="314.9" y1="2121.3" x2="314.9" y2="2151.7"/>
			<line class="st4" x1="322.5" y1="2121.3" x2="322.5" y2="2151.7"/>
			<line class="st4" x1="330.1" y1="2121.3" x2="330.1" y2="2151.7"/>
			<line class="st4" x1="337.7" y1="2121.3" x2="337.7" y2="2151.7"/>
			<line class="st4" x1="345.4" y1="2121.3" x2="345.4" y2="2151.7"/>
			<line class="st4" x1="353" y1="2121.3" x2="353" y2="2151.7"/>
			<line class="st4" x1="360.6" y1="2121.3" x2="360.6" y2="2151.7"/>
			<line class="st4" x1="368.2" y1="2121.3" x2="368.2" y2="2151.7"/>
			<line class="st4" x1="375.8" y1="2121.3" x2="375.8" y2="2151.7"/>
			<line class="st4" x1="383.4" y1="2121.3" x2="383.4" y2="2151.7"/>
			<line class="st4" x1="391.1" y1="2121.3" x2="391.1" y2="2151.7"/>
		</g>
	</g>
	<g>
		<g>
			<line class="st4" x1="553.2" y1="1112.3" x2="553.2" y2="1142.7"/>
			<line class="st4" x1="560.8" y1="1112.3" x2="560.8" y2="1142.7"/>
			<line class="st4" x1="568.4" y1="1112.3" x2="568.4" y2="1142.7"/>
			<line class="st4" x1="576" y1="1112.3" x2="576" y2="1142.7"/>
			<line class="st4" x1="583.6" y1="1112.3" x2="583.6" y2="1142.7"/>
			<line class="st4" x1="591.3" y1="1112.3" x2="591.3" y2="1142.7"/>
			<line class="st4" x1="598.9" y1="1112.3" x2="598.9" y2="1142.7"/>
			<line class="st4" x1="606.5" y1="1112.3" x2="606.5" y2="1142.7"/>
			<line class="st4" x1="614.1" y1="1112.3" x2="614.1" y2="1142.7"/>
			<line class="st4" x1="621.7" y1="1112.3" x2="621.7" y2="1142.7"/>
			<line class="st4" x1="629.3" y1="1112.3" x2="629.3" y2="1142.7"/>
			<line class="st4" x1="636.9" y1="1112.3" x2="636.9" y2="1142.7"/>
			<line class="st4" x1="644.6" y1="1112.3" x2="644.6" y2="1142.7"/>
			<line class="st4" x1="652.2" y1="1112.3" x2="652.2" y2="1142.7"/>
		</g>
		<g>
			<line class="st4" x1="553.2" y1="1147" x2="553.2" y2="1177.5"/>
			<line class="st4" x1="560.8" y1="1147" x2="560.8" y2="1177.5"/>
			<line class="st4" x1="568.4" y1="1147" x2="568.4" y2="1177.5"/>
			<line class="st4" x1="576" y1="1147" x2="576" y2="1177.5"/>
			<line class="st4" x1="583.6" y1="1147" x2="583.6" y2="1177.5"/>
			<line class="st4" x1="591.3" y1="1147" x2="591.3" y2="1177.5"/>
			<line class="st4" x1="598.9" y1="1147" x2="598.9" y2="1177.5"/>
			<line class="st4" x1="606.5" y1="1147" x2="606.5" y2="1177.5"/>
			<line class="st4" x1="614.1" y1="1147" x2="614.1" y2="1177.5"/>
			<line class="st4" x1="621.7" y1="1147" x2="621.7" y2="1177.5"/>
			<line class="st4" x1="629.3" y1="1147" x2="629.3" y2="1177.5"/>
			<line class="st4" x1="636.9" y1="1147" x2="636.9" y2="1177.5"/>
			<line class="st4" x1="644.6" y1="1147" x2="644.6" y2="1177.5"/>
			<line class="st4" x1="652.2" y1="1147" x2="652.2" y2="1177.5"/>
		</g>
	</g>
	<g>
		<g>
			<line class="st4" x1="1936.1" y1="1972.5" x2="1892.8" y2="1972.5"/>
			<line class="st4" x1="1936.1" y1="1980.1" x2="1892.8" y2="1980.1"/>
			<line class="st4" x1="1936.1" y1="1987.7" x2="1892.8" y2="1987.7"/>
			<line class="st4" x1="1936.1" y1="1995.4" x2="1892.8" y2="1995.4"/>
			<line class="st4" x1="1936.1" y1="2003" x2="1892.8" y2="2003"/>
			<line class="st4" x1="1936.1" y1="2010.6" x2="1892.8" y2="2010.6"/>
			<line class="st4" x1="1936.1" y1="2018.2" x2="1892.8" y2="2018.2"/>
			<line class="st4" x1="1936.1" y1="2025.8" x2="1892.8" y2="2025.8"/>
			<line class="st4" x1="1936.1" y1="2033.4" x2="1892.8" y2="2033.4"/>
			<line class="st4" x1="1936.1" y1="2041" x2="1892.8" y2="2041"/>
			<line class="st4" x1="1936.1" y1="2048.7" x2="1892.8" y2="2048.7"/>
			<line class="st4" x1="1936.1" y1="2056.3" x2="1892.8" y2="2056.3"/>
			<line class="st4" x1="1936.1" y1="2063.9" x2="1892.8" y2="2063.9"/>
			<line class="st4" x1="1936.1" y1="2071.5" x2="1892.8" y2="2071.5"/>
		</g>
		<g>
			<line class="st4" x1="1856.4" y1="1972.5" x2="1810.4" y2="1972.5"/>
			<line class="st4" x1="1856.4" y1="1980.1" x2="1810.4" y2="1980.1"/>
			<line class="st4" x1="1856.4" y1="1987.7" x2="1810.4" y2="1987.7"/>
			<line class="st4" x1="1856.4" y1="1995.4" x2="1810.4" y2="1995.4"/>
			<line class="st4" x1="1856.4" y1="2003" x2="1810.4" y2="2003"/>
			<line class="st4" x1="1856.4" y1="2010.6" x2="1810.4" y2="2010.6"/>
			<line class="st4" x1="1856.4" y1="2018.2" x2="1810.4" y2="2018.2"/>
			<line class="st4" x1="1856.4" y1="2025.8" x2="1810.4" y2="2025.8"/>
			<line class="st4" x1="1856.4" y1="2033.4" x2="1810.4" y2="2033.4"/>
			<line class="st4" x1="1856.4" y1="2041" x2="1810.4" y2="2041"/>
			<line class="st4" x1="1856.4" y1="2048.7" x2="1810.4" y2="2048.7"/>
			<line class="st4" x1="1856.4" y1="2056.3" x2="1810.4" y2="2056.3"/>
			<line class="st4" x1="1856.4" y1="2063.9" x2="1810.4" y2="2063.9"/>
			<line class="st4" x1="1856.4" y1="2071.5" x2="1810.4" y2="2071.5"/>
		</g>
	</g>
</g>
</svg>
