<?xml version="1.0" encoding="utf-8"?>
<!-- Generator: Adobe Illustrator 25.0.1, SVG Export Plug-In . SVG Version: 6.00 Build 0)  -->
<svg version="1.1" id="floor_3" xmlns="http://www.w3.org/2000/svg" xmlns:xlink="http://www.w3.org/1999/xlink" x="0px" y="0px"
	 viewBox="0 0 3500 2550" style="enable-background:new 0 0 3500 2550;" xml:space="preserve">
<style type="text/css">
	.st0{fill:none;stroke:#4D4D4D;stroke-width:8;stroke-miterlimit:10;}
	.st1{fill:none;stroke:#4D4D4D;stroke-width:9;stroke-miterlimit:10;}
	.st2{opacity:0.5;fill:#C1272D;enable-background:new    ;}
	.st3{fill:#C1272D;}
	.st4{fill:none;stroke:#0071BC;stroke-width:3;stroke-miterlimit:10;}
</style>
<g id="schema_2_">
	<path class="st0" d="M253,239.7"/>
	<polyline class="st1" points="1898,1504.7 1948,1504.7 1948,1615.7 2747,1615.7 2747,1975.7 253,1975.7 253,239.7 439.8,239.7 	"/>
	<path class="st0" d="M434,239.7"/>
	<polyline class="st1" points="1843,1505.7 1796.6,1505.7 1796.6,1555.6 1265,1555.6 1265,1609.7 1104,1609.7 1104,1557.7 
		491,1557.7 491,1402.7 652,1402.7 652,841.7 693.3,841.7 693.3,746.7 653.7,746.7 653.7,239.7 476.8,239.7 	"/>
	<path class="st0" d="M468,236.7"/>
	<line class="st1" x1="2109.5" y1="1615.7" x2="2109.5" y2="1975.7"/>
	<line class="st1" x1="2091.4" y1="1738.2" x2="2109.5" y2="1738.2"/>
	<polyline class="st1" points="1948,1615.7 1948,1738.2 2068,1738.2 	"/>
	<polyline class="st1" points="2109.5,1840.1 1948.5,1840.1 1948.5,1975.7 	"/>
	<polyline class="st1" points="1796.6,1555.6 1796.6,1723.2 491.5,1724.2 491,1557.7 	"/>
	<polyline class="st1" points="1948.5,1840.1 1948.5,1815 253,1815 	"/>
	<polyline class="st1" points="253,1555.6 413.5,1555.6 413.5,239.7 	"/>
	<path class="st1" d="M652,841.7"/>
	<line class="st1" x1="491" y1="751.2" x2="491" y2="239.7"/>
	<line class="st1" x1="491" y1="1402.7" x2="491" y2="837.2"/>
	<line class="st1" x1="2024" y1="1840.1" x2="2024" y2="1738.2"/>
	<line class="st1" x1="1643.2" y1="1555.6" x2="1643.2" y2="1723.3"/>
	<line class="st1" x1="1573.1" y1="1555.6" x2="1573.1" y2="1723.3"/>
	<line class="st1" x1="1573.1" y1="1815" x2="1573.1" y2="1975.7"/>
	<line class="st1" x1="1265" y1="1609.7" x2="1265" y2="1723.3"/>
	<line class="st1" x1="1265" y1="1815" x2="1265" y2="1975.7"/>
	<line class="st1" x1="1335.5" y1="1817.4" x2="1335.5" y2="1978.1"/>
	<line class="st1" x1="1414.7" y1="1815" x2="1414.7" y2="1975.7"/>
	<line class="st1" x1="1104" y1="1609.7" x2="1104" y2="1723.8"/>
	<line class="st1" x1="1104" y1="1815" x2="1104" y2="1975.7"/>
	<line class="st1" x1="1032.6" y1="1815" x2="1032.6" y2="1975.7"/>
	<line class="st1" x1="960.3" y1="1558.6" x2="960.3" y2="1724.8"/>
	<line class="st1" x1="816.6" y1="1557.7" x2="816.6" y2="1724.2"/>
	<line class="st1" x1="816.6" y1="1815" x2="816.6" y2="1975.7"/>
	<line class="st1" x1="657.3" y1="1815" x2="657.3" y2="1975.7"/>
	<line class="st1" x1="725.9" y1="1815" x2="725.9" y2="1975.7"/>
	<line class="st1" x1="642.4" y1="1557.7" x2="642.4" y2="1724.2"/>
	<line class="st1" x1="491" y1="1815" x2="491" y2="1975.7"/>
	<polyline class="st1" points="418,1724.2 390.7,1724.2 253,1724.2 	"/>
	<line class="st1" x1="413.5" y1="1555.6" x2="413.5" y2="1724.2"/>
	<line class="st1" x1="253" y1="1255.8" x2="413.5" y2="1255.8"/>
	<line class="st1" x1="253" y1="1171.8" x2="413.5" y2="1171.8"/>
	<line class="st1" x1="491" y1="1171.8" x2="652" y2="1171.8"/>
	<line class="st1" x1="491" y1="1090.4" x2="652" y2="1090.4"/>
	<line class="st1" x1="491" y1="1001.8" x2="652" y2="1001.8"/>
	<line class="st1" x1="491" y1="922.2" x2="652" y2="922.2"/>
	<line class="st1" x1="652" y1="841.7" x2="491" y2="841.7"/>
	<line class="st1" x1="653.7" y1="746.7" x2="491" y2="746.7"/>
	<line class="st1" x1="413.5" y1="746.7" x2="253" y2="746.7"/>
	<line class="st1" x1="413.5" y1="922.2" x2="253" y2="922.2"/>
	<line class="st1" x1="413.5" y1="1001.8" x2="253" y2="1001.8"/>
	<polyline class="st1" points="653.7,610.7 491,610.7 470.6,610.7 	"/>
	<polyline class="st1" points="653.7,383.4 509.2,383.4 491,383.4 	"/>
	<line class="st1" x1="435.5" y1="610.7" x2="253" y2="610.7"/>
	<line class="st1" x1="410.6" y1="515.8" x2="250.1" y2="515.8"/>
	<line class="st1" x1="491" y1="326.6" x2="413.5" y2="326.6"/>
	<line class="st1" x1="418.1" y1="383.4" x2="252.8" y2="383.4"/>
	<line class="st1" x1="413.5" y1="315" x2="252.8" y2="315"/>
	<line class="st1" x1="253" y1="1646" x2="413.5" y2="1646"/>
	<line class="st1" x1="741.2" y1="1558.4" x2="741.2" y2="1724.9"/>
	<line class="st1" x1="1412.8" y1="1555.6" x2="1412.8" y2="1723.3"/>
	<line class="st1" x1="1338.9" y1="1555.6" x2="1338.9" y2="1723.3"/>
	<line class="st1" x1="1482.8" y1="1556.5" x2="1482.8" y2="1724.2"/>
	<line class="st1" x1="1948" y1="1811.7" x2="1948" y2="1742.7"/>
</g>
<g id="rooms_2_">
	<g>
		<path d="M2015.4,1907.6c1.3,1.2,2,2.8,2,4.7c0,1.4-0.3,2.6-1,3.6s-1.6,1.9-2.9,2.5s-2.9,0.9-4.7,0.9c-1.7,0-3.3-0.3-4.9-0.8
			c-1.5-0.6-2.8-1.3-3.7-2.2l1.2-1.9c0.8,0.8,1.8,1.5,3.2,2c1.3,0.5,2.7,0.8,4.2,0.8c1.9,0,3.5-0.4,4.5-1.3c1.1-0.8,1.6-2,1.6-3.5
			s-0.5-2.6-1.6-3.5s-2.7-1.3-4.8-1.3h-1.7v-1.8l6.6-8.3h-12.2v-2.2h15.3v1.7l-6.7,8.5C2012.2,1905.7,2014.1,1906.4,2015.4,1907.6z"
			/>
		<path d="M2025.3,1917.9c-1.4-1-2.6-2.4-3.4-4.2c-0.8-1.8-1.2-4-1.2-6.4c0-2.5,0.4-4.6,1.2-6.4s1.9-3.2,3.4-4.2s3.1-1.5,4.9-1.5
			s3.5,0.5,4.9,1.5s2.6,2.4,3.4,4.2s1.2,4,1.2,6.4c0,2.5-0.4,4.6-1.2,6.4c-0.8,1.8-1.9,3.2-3.4,4.2c-1.4,1-3.1,1.5-4.9,1.5
			S2026.8,1918.9,2025.3,1917.9z M2033.9,1916c1.1-0.8,1.9-1.9,2.5-3.4s0.9-3.3,0.9-5.3c0-2.1-0.3-3.9-0.9-5.3
			c-0.6-1.5-1.4-2.6-2.5-3.4s-2.3-1.2-3.7-1.2c-1.4,0-2.6,0.4-3.7,1.2s-1.9,1.9-2.5,3.4s-0.9,3.3-0.9,5.3c0,2.1,0.3,3.9,0.9,5.3
			c0.6,1.5,1.4,2.6,2.5,3.4s2.3,1.2,3.7,1.2C2031.6,1917.1,2032.8,1916.8,2033.9,1916z"/>
		<path d="M2049.8,1895.4v23.8h-2.4v-21.6h-5.6v-2.2L2049.8,1895.4L2049.8,1895.4z"/>
	</g>
	<g>
		<path d="M2299.3,1805.3H2286l-2.9,6.4h-2.6l10.9-23.8h2.5l10.9,23.8h-2.7L2299.3,1805.3z M2298.3,1803.3l-5.7-12.8l-5.7,12.8
			H2298.3z"/>
		<path d="M2315.2,1803.7h-4.1v8h-2.4v-17.9h2.4v7.9h4.1l6.3-7.9h2.6l-7,8.7l7.5,9.2h-2.9L2315.2,1803.7z"/>
		<path d="M2340.7,1795.9h-6.8v15.7h-2.4v-15.7h-6.8v-2.1h15.9v2.1H2340.7z"/>
		<path d="M2346.1,1810.7c-1.4-0.8-2.5-1.9-3.3-3.2c-0.8-1.4-1.2-2.9-1.2-4.7c0-1.7,0.4-3.3,1.2-4.7c0.8-1.4,1.9-2.5,3.3-3.2
			c1.4-0.8,2.9-1.2,4.7-1.2c1.7,0,3.3,0.4,4.7,1.2c1.4,0.8,2.5,1.8,3.2,3.2c0.8,1.4,1.2,2.9,1.2,4.7c0,1.7-0.4,3.3-1.2,4.7
			c-0.8,1.4-1.9,2.5-3.2,3.2c-1.4,0.8-2.9,1.2-4.7,1.2C2349,1811.8,2347.5,1811.4,2346.1,1810.7z M2354.2,1808.8
			c1-0.6,1.8-1.4,2.4-2.5s0.9-2.3,0.9-3.6c0-1.4-0.3-2.6-0.9-3.6s-1.4-1.9-2.4-2.5s-2.1-0.9-3.4-0.9c-1.3,0-2.4,0.3-3.4,0.9
			s-1.8,1.4-2.4,2.5c-0.6,1.1-0.9,2.3-0.9,3.6c0,1.4,0.3,2.6,0.9,3.6c0.6,1.1,1.4,1.9,2.4,2.5s2.1,0.9,3.4,0.9
			C2352,1809.7,2353.2,1809.4,2354.2,1808.8z"/>
		<path d="M2380,1806.8c0,1.6-0.6,2.8-1.7,3.6s-2.9,1.3-5.2,1.3h-8.1v-17.9h7.9c2,0,3.6,0.4,4.8,1.2c1.2,0.8,1.7,1.9,1.7,3.4
			c0,1-0.3,1.8-0.8,2.5s-1.3,1.2-2.2,1.5C2378.8,1803,2380,1804.5,2380,1806.8z M2367.4,1801.7h5.4c1.4,0,2.4-0.3,3.2-0.8
			c0.7-0.5,1.1-1.3,1.1-2.3s-0.4-1.7-1.1-2.2c-0.7-0.5-1.8-0.7-3.2-0.7h-5.4V1801.7z M2376.5,1809c0.8-0.5,1.2-1.3,1.2-2.3
			s-0.4-1.9-1.1-2.4c-0.7-0.5-1.8-0.8-3.3-0.8h-5.9v6.2h5.7C2374.6,1809.8,2375.7,1809.5,2376.5,1809z"/>
		<path d="M2397.2,1795.4c1.2,1.2,1.9,2.9,1.9,5.2v11.1h-2.3v-2.8c-0.5,0.9-1.3,1.7-2.4,2.2c-1.1,0.5-2.3,0.8-3.8,0.8
			c-2,0-3.6-0.5-4.8-1.4s-1.8-2.2-1.8-3.8c0-1.5,0.5-2.7,1.6-3.7c1.1-0.9,2.9-1.4,5.3-1.4h5.7v-1.1c0-1.5-0.4-2.7-1.3-3.5
			c-0.9-0.8-2.1-1.2-3.8-1.2c-1.1,0-2.2,0.2-3.3,0.6c-1,0.4-1.9,0.9-2.7,1.5l-1.1-1.8c0.9-0.8,2-1.4,3.3-1.8s2.6-0.6,4-0.6
			C2394.2,1793.7,2396,1794.2,2397.2,1795.4z M2394.5,1809c1-0.6,1.7-1.5,2.2-2.7v-2.9h-5.6c-3.1,0-4.6,1.1-4.6,3.2
			c0,1,0.4,1.9,1.2,2.5s1.9,0.9,3.3,0.9C2392.3,1809.9,2393.5,1809.6,2394.5,1809z"/>
		<path d="M2426.1,1803.9c0.7,0.7,1,1.6,1,2.7s-0.4,2-1.1,2.8c-0.7,0.8-1.7,1.4-2.9,1.9s-2.6,0.7-4,0.7c-1.3,0-2.6-0.2-3.8-0.6
			s-2.3-0.9-3.3-1.6l0.8-1.8c0.8,0.6,1.8,1.1,2.9,1.4s2.2,0.5,3.3,0.5c1.7,0,3-0.3,4.1-0.9s1.6-1.5,1.6-2.5s-0.4-1.7-1.3-2.2
			c-0.9-0.5-2-0.8-3.5-0.8h-3.1v-1.8h2.9c1.3,0,2.4-0.3,3.2-0.8s1.2-1.2,1.2-2.1c0-1-0.5-1.7-1.4-2.2s-2.1-0.8-3.6-0.8
			c-1.9,0-3.8,0.5-5.7,1.5l-0.7-1.9c2.1-1.1,4.3-1.7,6.6-1.7c1.4,0,2.6,0.2,3.7,0.6c1.1,0.4,2,1,2.6,1.7s0.9,1.6,0.9,2.5
			s-0.3,1.7-0.9,2.4c-0.6,0.7-1.5,1.2-2.5,1.6C2424.4,1802.6,2425.4,1803.2,2426.1,1803.9z"/>
		<path d="M2444.1,1795.4c1.2,1.2,1.9,2.9,1.9,5.2v11.1h-2.3v-2.8c-0.5,0.9-1.3,1.7-2.4,2.2c-1.1,0.5-2.3,0.8-3.8,0.8
			c-2,0-3.6-0.5-4.8-1.4c-1.2-1-1.8-2.2-1.8-3.8c0-1.5,0.5-2.7,1.6-3.7c1.1-0.9,2.8-1.4,5.3-1.4h5.7v-1.1c0-1.5-0.4-2.7-1.3-3.5
			s-2.1-1.2-3.8-1.2c-1.1,0-2.2,0.2-3.3,0.6s-1.9,0.9-2.7,1.5l-1.1-1.8c0.9-0.8,2-1.4,3.3-1.8s2.6-0.6,4-0.6
			C2441.1,1793.7,2442.8,1794.2,2444.1,1795.4z M2441.4,1809c1-0.6,1.7-1.5,2.2-2.7v-2.9h-5.6c-3.1,0-4.6,1.1-4.6,3.2
			c0,1,0.4,1.9,1.2,2.5s1.9,0.9,3.3,0.9C2439.2,1809.9,2440.4,1809.6,2441.4,1809z"/>
		<path d="M2467,1793.8v17.9h-2.4V1796h-8.6l-0.2,4.4c-0.2,3.7-0.6,6.6-1.3,8.6s-1.9,3-3.6,3c-0.5,0-1.1-0.1-1.7-0.3l0.2-2.1
			c0.4,0.1,0.7,0.1,0.8,0.1c0.9,0,1.6-0.4,2.1-1.3s0.8-1.9,1-3.2c0.2-1.3,0.3-2.9,0.4-5l0.3-6.4H2467z"/>
		<path d="M2485.4,1795.4c1.2,1.2,1.9,2.9,1.9,5.2v11.1h-2.3v-2.8c-0.5,0.9-1.3,1.7-2.4,2.2c-1.1,0.5-2.3,0.8-3.8,0.8
			c-2,0-3.6-0.5-4.8-1.4s-1.8-2.2-1.8-3.8c0-1.5,0.5-2.7,1.6-3.7c1.1-0.9,2.9-1.4,5.3-1.4h5.7v-1.1c0-1.5-0.4-2.7-1.3-3.5
			c-0.9-0.8-2.1-1.2-3.8-1.2c-1.1,0-2.2,0.2-3.3,0.6c-1,0.4-1.9,0.9-2.7,1.5l-1.1-1.8c0.9-0.8,2-1.4,3.3-1.8s2.6-0.6,4-0.6
			C2482.4,1793.7,2484.2,1794.2,2485.4,1795.4z M2482.7,1809c1-0.6,1.7-1.5,2.2-2.7v-2.9h-5.6c-3.1,0-4.6,1.1-4.6,3.2
			c0,1,0.4,1.9,1.2,2.5s1.9,0.9,3.3,0.9C2480.5,1809.9,2481.7,1809.6,2482.7,1809z"/>
	</g>
	<g>
		<path d="M1988.2,1697.5c1.2-1.3,2.8-2,4.7-2c1.4,0,2.6,0.3,3.6,1s1.9,1.6,2.5,2.9s0.9,2.9,0.9,4.7c0,1.7-0.3,3.3-0.8,4.9
			c-0.6,1.5-1.3,2.8-2.2,3.7l-1.9-1.2c0.8-0.8,1.5-1.8,2-3.2c0.5-1.3,0.8-2.7,0.8-4.2c0-1.9-0.4-3.5-1.3-4.5c-0.8-1.1-2-1.6-3.5-1.6
			s-2.6,0.5-3.5,1.6c-0.8,1.1-1.3,2.7-1.3,4.8v1.7h-1.8l-8.3-6.6v12.2h-2.2v-15.3h1.7l8.5,6.7
			C1986.3,1700.7,1987,1698.8,1988.2,1697.5z"/>
		<path d="M1998.5,1687.5c-1,1.4-2.4,2.6-4.2,3.4c-1.8,0.8-4,1.2-6.4,1.2c-2.5,0-4.6-0.4-6.4-1.2c-1.8-0.8-3.2-1.9-4.2-3.4
			s-1.5-3.1-1.5-4.9s0.5-3.5,1.5-4.9s2.4-2.6,4.2-3.4s4-1.2,6.4-1.2c2.5,0,4.6,0.4,6.4,1.2c1.8,0.8,3.2,1.9,4.2,3.4
			c1,1.4,1.5,3.1,1.5,4.9S1999.5,1686.1,1998.5,1687.5z M1996.6,1678.9c-0.8-1.1-1.9-1.9-3.4-2.5s-3.3-0.9-5.3-0.9
			c-2.1,0-3.9,0.3-5.3,0.9c-1.5,0.6-2.6,1.4-3.4,2.5s-1.2,2.3-1.2,3.7s0.4,2.6,1.2,3.7c0.8,1.1,1.9,1.9,3.4,2.5s3.3,0.9,5.3,0.9
			c2.1,0,3.9-0.3,5.3-0.9c1.5-0.6,2.6-1.4,3.4-2.5s1.2-2.3,1.2-3.7S1997.4,1680,1996.6,1678.9z"/>
		<path d="M1976,1663.1h23.8v2.4h-21.6v5.6h-2.2L1976,1663.1L1976,1663.1z"/>
		<path d="M1993.4,1640.3v13.3l6.4,2.9v2.6l-23.8-10.9v-2.5l23.8-10.9v2.7L1993.4,1640.3z M1991.4,1641.3l-12.8,5.7l12.8,5.7V1641.3
			z"/>
	</g>
	<g>
		<path d="M1608.3,1630.8c1.2-1.3,2.8-2,4.7-2c1.4,0,2.6,0.3,3.6,1s1.9,1.6,2.5,2.9s0.9,2.9,0.9,4.7c0,1.7-0.3,3.3-0.8,4.9
			c-0.6,1.5-1.3,2.8-2.2,3.7l-1.9-1.2c0.8-0.8,1.5-1.8,2-3.2c0.5-1.3,0.8-2.7,0.8-4.2c0-1.9-0.4-3.5-1.3-4.5c-0.8-1.1-2-1.6-3.5-1.6
			s-2.6,0.5-3.5,1.6c-0.8,1.1-1.3,2.7-1.3,4.8v1.7h-1.8l-8.3-6.6v12.2h-2.2v-15.3h1.7l8.5,6.7
			C1606.4,1634,1607.1,1632.1,1608.3,1630.8z"/>
		<path d="M1618.6,1620.8c-1,1.4-2.4,2.6-4.2,3.4c-1.8,0.8-4,1.2-6.4,1.2c-2.5,0-4.6-0.4-6.4-1.2c-1.8-0.8-3.2-1.9-4.2-3.4
			s-1.5-3.1-1.5-4.9s0.5-3.5,1.5-4.9s2.4-2.6,4.2-3.4s4-1.2,6.4-1.2c2.5,0,4.6,0.4,6.4,1.2c1.8,0.8,3.2,1.9,4.2,3.4
			c1,1.4,1.5,3.1,1.5,4.9S1619.6,1619.4,1618.6,1620.8z M1616.7,1612.2c-0.8-1.1-1.9-1.9-3.4-2.5s-3.3-0.9-5.3-0.9
			c-2.1,0-3.9,0.3-5.3,0.9c-1.5,0.6-2.6,1.4-3.4,2.5s-1.2,2.3-1.2,3.7s0.4,2.6,1.2,3.7c0.8,1.1,1.9,1.9,3.4,2.5s3.3,0.9,5.3,0.9
			c2.1,0,3.9-0.3,5.3-0.9c1.5-0.6,2.6-1.4,3.4-2.5s1.2-2.3,1.2-3.7S1617.5,1613.3,1616.7,1612.2z"/>
		<path d="M1608.3,1589.4c1.2-1.3,2.8-2,4.7-2c1.4,0,2.6,0.3,3.6,1s1.9,1.6,2.5,2.9s0.9,2.9,0.9,4.7c0,1.7-0.3,3.3-0.8,4.9
			c-0.6,1.5-1.3,2.8-2.2,3.7l-1.9-1.2c0.8-0.8,1.5-1.8,2-3.2c0.5-1.3,0.8-2.7,0.8-4.2c0-1.9-0.4-3.5-1.3-4.5c-0.8-1.1-2-1.6-3.5-1.6
			s-2.6,0.5-3.5,1.6c-0.8,1.1-1.3,2.7-1.3,4.8v1.7h-1.8l-8.3-6.6v12.2h-2.2v-15.3h1.7l8.5,6.7
			C1606.4,1592.6,1607.1,1590.7,1608.3,1589.4z"/>
	</g>
	<g>
		<path d="M1447.6,1630.8c1.2-1.3,2.8-2,4.7-2c1.4,0,2.6,0.3,3.6,1s1.9,1.6,2.5,2.9s0.9,2.9,0.9,4.7c0,1.7-0.3,3.3-0.8,4.9
			c-0.6,1.5-1.3,2.8-2.2,3.7l-1.9-1.2c0.8-0.8,1.5-1.8,2-3.2c0.5-1.3,0.8-2.7,0.8-4.2c0-1.9-0.4-3.5-1.3-4.5c-0.8-1.1-2-1.6-3.5-1.6
			s-2.6,0.5-3.5,1.6c-0.8,1.1-1.3,2.7-1.3,4.8v1.7h-1.8l-8.3-6.6v12.2h-2.2v-15.3h1.7l8.5,6.7
			C1445.7,1634,1446.4,1632.1,1447.6,1630.8z"/>
		<path d="M1457.9,1620.8c-1,1.4-2.4,2.6-4.2,3.4c-1.8,0.8-4,1.2-6.4,1.2c-2.5,0-4.6-0.4-6.4-1.2c-1.8-0.8-3.2-1.9-4.2-3.4
			s-1.5-3.1-1.5-4.9s0.5-3.5,1.5-4.9s2.4-2.6,4.2-3.4s4-1.2,6.4-1.2c2.5,0,4.6,0.4,6.4,1.2c1.8,0.8,3.2,1.9,4.2,3.4
			c1,1.4,1.5,3.1,1.5,4.9S1458.9,1619.4,1457.9,1620.8z M1456,1612.2c-0.8-1.1-1.9-1.9-3.4-2.5s-3.3-0.9-5.3-0.9
			c-2.1,0-3.9,0.3-5.3,0.9c-1.5,0.6-2.6,1.4-3.4,2.5s-1.2,2.3-1.2,3.7s0.4,2.6,1.2,3.7c0.8,1.1,1.9,1.9,3.4,2.5s3.3,0.9,5.3,0.9
			c2.1,0,3.9-0.3,5.3-0.9c1.5-0.6,2.6-1.4,3.4-2.5s1.2-2.3,1.2-3.7S1456.7,1613.3,1456,1612.2z"/>
		<path d="M1452.9,1582.6v4.8h6.3v2.4h-6.3v13.4h-1.8l-15.8-12.6v-2.7l15.4,12.2v-10.3h-5.5v-2.4h5.5v-4.8H1452.9z"/>
	</g>
	<g>
		<path d="M1525.3,1630.8c1.2-1.3,2.8-2,4.7-2c1.4,0,2.6,0.3,3.6,1s1.9,1.6,2.5,2.9s0.9,2.9,0.9,4.7c0,1.7-0.3,3.3-0.8,4.9
			c-0.6,1.5-1.3,2.8-2.2,3.7l-1.9-1.2c0.8-0.8,1.5-1.8,2-3.2c0.5-1.3,0.8-2.7,0.8-4.2c0-1.9-0.4-3.5-1.3-4.5c-0.8-1.1-2-1.6-3.5-1.6
			s-2.6,0.5-3.5,1.6c-0.8,1.1-1.3,2.7-1.3,4.8v1.7h-1.8l-8.3-6.6v12.2h-2.2v-15.3h1.7l8.5,6.7
			C1523.5,1634,1524.1,1632.1,1525.3,1630.8z"/>
		<path d="M1535.7,1620.8c-1,1.4-2.4,2.6-4.2,3.4c-1.8,0.8-4,1.2-6.4,1.2c-2.5,0-4.6-0.4-6.4-1.2c-1.8-0.8-3.2-1.9-4.2-3.4
			s-1.5-3.1-1.5-4.9s0.5-3.5,1.5-4.9s2.4-2.6,4.2-3.4s4-1.2,6.4-1.2c2.5,0,4.6,0.4,6.4,1.2c1.8,0.8,3.2,1.9,4.2,3.4
			c1,1.4,1.5,3.1,1.5,4.9S1536.6,1619.4,1535.7,1620.8z M1533.7,1612.2c-0.8-1.1-1.9-1.9-3.4-2.5s-3.3-0.9-5.3-0.9
			c-2.1,0-3.9,0.3-5.3,0.9c-1.5,0.6-2.6,1.4-3.4,2.5s-1.2,2.3-1.2,3.7s0.4,2.6,1.2,3.7c0.8,1.1,1.9,1.9,3.4,2.5s3.3,0.9,5.3,0.9
			c2.1,0,3.9-0.3,5.3-0.9c1.5-0.6,2.6-1.4,3.4-2.5s1.2-2.3,1.2-3.7S1534.5,1613.3,1533.7,1612.2z"/>
		<path d="M1530.7,1582.6v4.8h6.3v2.4h-6.3v13.4h-1.8l-15.8-12.6v-2.7l15.4,12.2v-10.3h-5.5v-2.4h5.5v-4.8H1530.7z"/>
	</g>
	<g>
		<path d="M1375.7,1630.8c1.2-1.3,2.8-2,4.7-2c1.4,0,2.6,0.3,3.6,1s1.9,1.6,2.5,2.9s0.9,2.9,0.9,4.7c0,1.7-0.3,3.3-0.8,4.9
			c-0.6,1.5-1.3,2.8-2.2,3.7l-1.9-1.2c0.8-0.8,1.5-1.8,2-3.2c0.5-1.3,0.8-2.7,0.8-4.2c0-1.9-0.4-3.5-1.3-4.5c-0.8-1.1-2-1.6-3.5-1.6
			s-2.6,0.5-3.5,1.6c-0.8,1.1-1.3,2.7-1.3,4.8v1.7h-1.8l-8.3-6.6v12.2h-2.2v-15.3h1.7l8.5,6.7
			C1373.8,1634,1374.5,1632.1,1375.7,1630.8z"/>
		<path d="M1386,1620.8c-1,1.4-2.4,2.6-4.2,3.4c-1.8,0.8-4,1.2-6.4,1.2c-2.5,0-4.6-0.4-6.4-1.2c-1.8-0.8-3.2-1.9-4.2-3.4
			s-1.5-3.1-1.5-4.9s0.5-3.5,1.5-4.9s2.4-2.6,4.2-3.4s4-1.2,6.4-1.2c2.5,0,4.6,0.4,6.4,1.2c1.8,0.8,3.2,1.9,4.2,3.4
			c1,1.4,1.5,3.1,1.5,4.9S1387,1619.4,1386,1620.8z M1384.1,1612.2c-0.8-1.1-1.9-1.9-3.4-2.5s-3.3-0.9-5.3-0.9
			c-2.1,0-3.9,0.3-5.3,0.9c-1.5,0.6-2.6,1.4-3.4,2.5s-1.2,2.3-1.2,3.7s0.4,2.6,1.2,3.7c0.8,1.1,1.9,1.9,3.4,2.5s3.3,0.9,5.3,0.9
			c2.1,0,3.9-0.3,5.3-0.9c1.5-0.6,2.6-1.4,3.4-2.5s1.2-2.3,1.2-3.7S1384.9,1613.3,1384.1,1612.2z"/>
		<path d="M1375.1,1589.1c1.2-1.6,3-2.4,5.2-2.4c1.4,0,2.6,0.3,3.7,1c1.1,0.6,1.9,1.6,2.6,2.9c0.6,1.3,0.9,2.9,0.9,4.8
			c0,1.7-0.3,3.3-0.8,4.8s-1.3,2.8-2.2,3.7l-1.9-1.2c0.8-0.8,1.5-1.8,2-3.1c0.5-1.3,0.8-2.7,0.8-4.2c0-2-0.4-3.5-1.3-4.6
			s-2.1-1.6-3.5-1.6c-1.6,0-2.9,0.6-3.7,1.8c-0.8,1.2-1.3,3.3-1.3,6.1v5.1l-11.9-1.2v-13h2.2v10.9l7.6,0.8v-3.1
			C1373.2,1593.2,1373.9,1590.6,1375.1,1589.1z"/>
	</g>
	<g>
		<path d="M1300.5,1630.8c1.2-1.3,2.8-2,4.7-2c1.4,0,2.6,0.3,3.6,1s1.9,1.6,2.5,2.9s0.9,2.9,0.9,4.7c0,1.7-0.3,3.3-0.8,4.9
			c-0.6,1.5-1.3,2.8-2.2,3.7l-1.9-1.2c0.8-0.8,1.5-1.8,2-3.2c0.5-1.3,0.8-2.7,0.8-4.2c0-1.9-0.4-3.5-1.3-4.5c-0.8-1.1-2-1.6-3.5-1.6
			s-2.6,0.5-3.5,1.6c-0.8,1.1-1.3,2.7-1.3,4.8v1.7h-1.8l-8.3-6.6v12.2h-2.2v-15.3h1.7l8.5,6.7
			C1298.6,1634,1299.2,1632.1,1300.5,1630.8z"/>
		<path d="M1310.8,1620.8c-1,1.4-2.4,2.6-4.2,3.4c-1.8,0.8-4,1.2-6.4,1.2c-2.5,0-4.6-0.4-6.4-1.2c-1.8-0.8-3.2-1.9-4.2-3.4
			s-1.5-3.1-1.5-4.9s0.5-3.5,1.5-4.9s2.4-2.6,4.2-3.4s4-1.2,6.4-1.2c2.5,0,4.6,0.4,6.4,1.2c1.8,0.8,3.2,1.9,4.2,3.4
			c1,1.4,1.5,3.1,1.5,4.9S1311.7,1619.4,1310.8,1620.8z M1308.8,1612.2c-0.8-1.1-1.9-1.9-3.4-2.5s-3.3-0.9-5.3-0.9
			c-2.1,0-3.9,0.3-5.3,0.9c-1.5,0.6-2.6,1.4-3.4,2.5s-1.2,2.3-1.2,3.7s0.4,2.6,1.2,3.7c0.8,1.1,1.9,1.9,3.4,2.5s3.3,0.9,5.3,0.9
			c2.1,0,3.9-0.3,5.3-0.9c1.5-0.6,2.6-1.4,3.4-2.5s1.2-2.3,1.2-3.7S1309.6,1613.3,1308.8,1612.2z"/>
		<path d="M1298.7,1588.8c0.6-1.2,1.4-2.2,2.5-2.8c1.1-0.7,2.3-1,3.8-1s2.7,0.4,3.8,1.1c1.1,0.7,2,1.7,2.6,2.9
			c0.6,1.2,0.9,2.6,0.9,4.2c0,3.2-1,5.6-3.1,7.2c-2.1,1.7-5,2.5-8.8,2.5c-2.7,0-4.9-0.5-6.7-1.4c-1.8-0.9-3.2-2.2-4.2-3.8
			s-1.4-3.5-1.4-5.7c0-2.4,0.4-4.2,1.3-5.6l2,1c-0.7,1.1-1.1,2.7-1.1,4.6c0,2.6,0.8,4.7,2.5,6.2s4.1,2.2,7.3,2.2
			c0.6,0,1.2,0,1.9-0.1c-1.3-0.6-2.3-1.5-3-2.8s-1.1-2.8-1.1-4.5C1297.8,1591.4,1298.1,1590,1298.7,1588.8z M1308.7,1589
			c-0.9-1.1-2.2-1.6-3.8-1.6c-1.6,0-2.8,0.5-3.7,1.6c-0.9,1.1-1.4,2.5-1.4,4.4c0,1.2,0.2,2.3,0.7,3.2c0.5,0.9,1.1,1.6,1.9,2.2
			c0.8,0.5,1.7,0.8,2.7,0.8c0.9,0,1.7-0.2,2.5-0.7s1.4-1.2,1.9-2.2s0.7-2.1,0.7-3.4C1310.2,1591.5,1309.7,1590.1,1308.7,1589z"/>
	</g>
	<g>
		<path d="M1168.9,1672.1c1.3,1.2,2,2.8,2,4.7c0,1.4-0.3,2.6-1,3.6c-0.7,1.1-1.6,1.9-2.9,2.5s-2.9,0.9-4.7,0.9
			c-1.7,0-3.3-0.3-4.9-0.8c-1.5-0.6-2.8-1.3-3.7-2.2l1.2-1.9c0.8,0.8,1.8,1.5,3.2,2c1.3,0.5,2.7,0.8,4.2,0.8c1.9,0,3.5-0.4,4.5-1.3
			c1.1-0.8,1.6-2,1.6-3.5s-0.5-2.6-1.6-3.5c-1.1-0.8-2.7-1.3-4.8-1.3h-1.7v-1.8l6.6-8.3h-12.2v-2.2h15.3v1.7l-6.7,8.5
			C1165.7,1670.2,1167.6,1670.9,1168.9,1672.1z"/>
		<path d="M1178.9,1682.4c-1.4-1-2.6-2.4-3.4-4.2c-0.8-1.8-1.2-4-1.2-6.4c0-2.5,0.4-4.6,1.2-6.4c0.8-1.8,1.9-3.2,3.4-4.2
			s3.1-1.5,4.9-1.5s3.5,0.5,4.9,1.5s2.6,2.4,3.4,4.2c0.8,1.8,1.2,4,1.2,6.4c0,2.5-0.4,4.6-1.2,6.4c-0.8,1.8-1.9,3.2-3.4,4.2
			c-1.4,1-3.1,1.5-4.9,1.5S1180.3,1683.4,1178.9,1682.4z M1187.5,1680.4c1.1-0.8,1.9-1.9,2.5-3.4s0.9-3.3,0.9-5.3
			c0-2.1-0.3-3.9-0.9-5.3c-0.6-1.5-1.4-2.6-2.5-3.4s-2.3-1.2-3.7-1.2c-1.4,0-2.6,0.4-3.7,1.2c-1.1,0.8-1.9,1.9-2.5,3.4
			s-0.9,3.3-0.9,5.3c0,2.1,0.3,3.9,0.9,5.3s1.4,2.6,2.5,3.4s2.3,1.2,3.7,1.2S1186.4,1681.2,1187.5,1680.4z"/>
		<path d="M1213.4,1659.8v1.7l-10,22.1h-2.7l9.8-21.6h-12.2v4.5h-2.4v-6.6L1213.4,1659.8L1213.4,1659.8z"/>
	</g>
	<g>
		<path d="M1007.8,1672.3c1.3,1.2,2,2.8,2,4.7c0,1.4-0.3,2.6-1,3.6c-0.7,1.1-1.6,1.9-2.9,2.5s-2.9,0.9-4.7,0.9
			c-1.7,0-3.3-0.3-4.9-0.8c-1.5-0.6-2.8-1.3-3.7-2.2l1.2-1.9c0.8,0.8,1.8,1.5,3.2,2c1.3,0.5,2.7,0.8,4.2,0.8c1.9,0,3.5-0.4,4.5-1.3
			c1.1-0.8,1.6-2,1.6-3.5s-0.5-2.6-1.6-3.5c-1.1-0.8-2.7-1.3-4.8-1.3h-1.7v-1.8l6.6-8.3h-12.2v-2.2h15.3v1.7l-6.7,8.5
			C1004.6,1670.4,1006.5,1671.1,1007.8,1672.3z"/>
		<path d="M1017.8,1682.6c-1.4-1-2.6-2.4-3.4-4.2c-0.8-1.8-1.2-4-1.2-6.4c0-2.5,0.4-4.6,1.2-6.4s1.9-3.2,3.4-4.2s3.1-1.5,4.9-1.5
			c1.8,0,3.5,0.5,4.9,1.5s2.6,2.4,3.4,4.2c0.8,1.8,1.2,4,1.2,6.4c0,2.5-0.4,4.6-1.2,6.4c-0.8,1.8-1.9,3.2-3.4,4.2
			c-1.4,1-3.1,1.5-4.9,1.5S1019.2,1683.6,1017.8,1682.6z M1026.4,1680.7c1.1-0.8,1.9-1.9,2.5-3.4s0.9-3.3,0.9-5.3
			c0-2.1-0.3-3.9-0.9-5.3c-0.6-1.5-1.4-2.6-2.5-3.4s-2.3-1.2-3.7-1.2c-1.4,0-2.6,0.4-3.7,1.2c-1.1,0.8-1.9,1.9-2.5,3.4
			s-0.9,3.3-0.9,5.3c0,2.1,0.3,3.9,0.9,5.3s1.4,2.6,2.5,3.4s2.3,1.2,3.7,1.2C1024.1,1681.8,1025.3,1681.4,1026.4,1680.7z"/>
		<path d="M1050.4,1663c1.7,2.1,2.5,5,2.5,8.8c0,2.7-0.5,4.9-1.4,6.7c-0.9,1.8-2.2,3.2-3.8,4.2s-3.5,1.4-5.7,1.4
			c-2.4,0-4.2-0.4-5.6-1.3l1-2c1.1,0.7,2.7,1.1,4.6,1.1c2.6,0,4.7-0.8,6.2-2.5s2.2-4.1,2.2-7.3c0-0.6,0-1.2-0.1-1.9
			c-0.6,1.3-1.5,2.3-2.8,3s-2.8,1.1-4.5,1.1c-1.6,0-3-0.3-4.2-0.9s-2.2-1.4-2.8-2.5c-0.7-1.1-1-2.3-1-3.8s0.4-2.7,1.1-3.8
			c0.7-1.1,1.7-2,2.9-2.6c1.2-0.6,2.6-0.9,4.2-0.9C1046.3,1659.8,1048.7,1660.9,1050.4,1663z M1046.6,1671.5
			c0.9-0.5,1.6-1.1,2.2-1.9c0.5-0.8,0.8-1.7,0.8-2.7c0-0.9-0.2-1.7-0.7-2.5s-1.2-1.4-2.2-1.9s-2.1-0.7-3.4-0.7
			c-1.7,0-3.1,0.5-4.2,1.4s-1.6,2.2-1.6,3.8c0,1.6,0.5,2.8,1.6,3.7c1.1,0.9,2.5,1.4,4.4,1.4
			C1044.6,1672.2,1045.7,1672,1046.6,1671.5z"/>
		<path d="M1073.7,1677.5h-13.3l-2.9,6.4h-2.6l10.9-23.8h2.5l10.9,23.8h-2.7L1073.7,1677.5z M1072.8,1675.5l-5.7-12.8l-5.7,12.8
			H1072.8z"/>
	</g>
	<g>
		<path d="M868.2,1672.3c1.3,1.2,2,2.8,2,4.7c0,1.4-0.3,2.6-1,3.6c-0.7,1.1-1.6,1.9-2.9,2.5s-2.9,0.9-4.7,0.9
			c-1.7,0-3.3-0.3-4.9-0.8c-1.5-0.6-2.8-1.3-3.7-2.2l1.2-1.9c0.8,0.8,1.8,1.5,3.2,2c1.3,0.5,2.7,0.8,4.2,0.8c1.9,0,3.5-0.4,4.5-1.3
			c1.1-0.8,1.6-2,1.6-3.5s-0.5-2.6-1.6-3.5c-1.1-0.8-2.7-1.3-4.8-1.3h-1.7v-1.8l6.6-8.3H854v-2.2h15.3v1.7l-6.7,8.5
			C865,1670.4,866.9,1671.1,868.2,1672.3z"/>
		<path d="M878.1,1682.6c-1.4-1-2.6-2.4-3.4-4.2c-0.8-1.8-1.2-4-1.2-6.4c0-2.5,0.4-4.6,1.2-6.4s1.9-3.2,3.4-4.2s3.1-1.5,4.9-1.5
			s3.5,0.5,4.9,1.5s2.6,2.4,3.4,4.2c0.8,1.8,1.2,4,1.2,6.4c0,2.5-0.4,4.6-1.2,6.4s-1.9,3.2-3.4,4.2c-1.4,1-3.1,1.5-4.9,1.5
			S879.6,1683.6,878.1,1682.6z M886.7,1680.7c1.1-0.8,1.9-1.9,2.5-3.4s0.9-3.3,0.9-5.3c0-2.1-0.3-3.9-0.9-5.3
			c-0.6-1.5-1.4-2.6-2.5-3.4s-2.3-1.2-3.7-1.2s-2.6,0.4-3.7,1.2c-1.1,0.8-1.9,1.9-2.5,3.4s-0.9,3.3-0.9,5.3c0,2.1,0.3,3.9,0.9,5.3
			s1.4,2.6,2.5,3.4s2.3,1.2,3.7,1.2C884.4,1681.8,885.6,1681.4,886.7,1680.7z"/>
		<path d="M910.7,1663c1.7,2.1,2.5,5,2.5,8.8c0,2.7-0.5,4.9-1.4,6.7c-0.9,1.8-2.2,3.2-3.8,4.2s-3.5,1.4-5.7,1.4
			c-2.4,0-4.2-0.4-5.6-1.3l1-2c1.1,0.7,2.7,1.1,4.6,1.1c2.6,0,4.7-0.8,6.2-2.5s2.2-4.1,2.2-7.3c0-0.6,0-1.2-0.1-1.9
			c-0.6,1.3-1.5,2.3-2.8,3s-2.8,1.1-4.5,1.1c-1.6,0-3-0.3-4.2-0.9s-2.2-1.4-2.8-2.5c-0.7-1.1-1-2.3-1-3.8s0.4-2.7,1.1-3.8
			c0.7-1.1,1.7-2,2.9-2.6s2.6-0.9,4.2-0.9C906.6,1659.8,909,1660.9,910.7,1663z M906.9,1671.5c0.9-0.5,1.6-1.1,2.2-1.9
			c0.5-0.8,0.8-1.7,0.8-2.7c0-0.9-0.2-1.7-0.7-2.5s-1.2-1.4-2.2-1.9s-2.1-0.7-3.4-0.7c-1.7,0-3.1,0.5-4.2,1.4
			c-1.1,0.9-1.6,2.2-1.6,3.8c0,1.6,0.5,2.8,1.6,3.7c1.1,0.9,2.5,1.4,4.4,1.4C904.9,1672.2,906,1672,906.9,1671.5z"/>
	</g>
	<g>
		<path d="M778,1656.1c1.2-1.3,2.8-2,4.7-2c1.4,0,2.6,0.3,3.6,1c1.1,0.7,1.9,1.6,2.5,2.9s0.9,2.9,0.9,4.7c0,1.7-0.3,3.3-0.8,4.9
			c-0.6,1.5-1.3,2.8-2.2,3.7l-1.9-1.2c0.8-0.8,1.5-1.8,2-3.2c0.5-1.3,0.8-2.7,0.8-4.2c0-1.9-0.4-3.5-1.3-4.5c-0.8-1.1-2-1.6-3.5-1.6
			s-2.6,0.5-3.5,1.6s-1.3,2.7-1.3,4.8v1.7h-1.8l-8.3-6.6v12.2h-2.2V1655h1.7l8.5,6.7C776.1,1659.3,776.8,1657.4,778,1656.1z"/>
		<path d="M765.8,1644.1h23.8v2.4H768v5.6h-2.2V1644.1z"/>
		<path d="M788.3,1633.9c-1,1.4-2.4,2.6-4.2,3.4s-4,1.2-6.4,1.2c-2.5,0-4.6-0.4-6.4-1.2s-3.2-1.9-4.2-3.4s-1.5-3.1-1.5-4.9
			s0.5-3.5,1.5-4.9s2.4-2.6,4.2-3.4s4-1.2,6.4-1.2c2.5,0,4.6,0.4,6.4,1.2c1.8,0.8,3.2,1.9,4.2,3.4s1.5,3.1,1.5,4.9
			S789.3,1632.4,788.3,1633.9z M786.4,1625.3c-0.8-1.1-1.9-1.9-3.4-2.5s-3.3-0.9-5.3-0.9c-2.1,0-3.9,0.3-5.3,0.9
			c-1.5,0.6-2.6,1.4-3.4,2.5c-0.8,1.1-1.2,2.3-1.2,3.7c0,1.4,0.4,2.6,1.2,3.7s1.9,1.9,3.4,2.5s3.3,0.9,5.3,0.9
			c2.1,0,3.9-0.3,5.3-0.9c1.5-0.6,2.6-1.4,3.4-2.5c0.8-1.1,1.2-2.3,1.2-3.7C787.5,1627.6,787.1,1626.3,786.4,1625.3z"/>
	</g>
	<g>
		<path d="M695.7,1656.1c1.2-1.3,2.8-2,4.7-2c1.4,0,2.6,0.3,3.6,1c1.1,0.7,1.9,1.6,2.5,2.9s0.9,2.9,0.9,4.7c0,1.7-0.3,3.3-0.8,4.9
			c-0.6,1.5-1.3,2.8-2.2,3.7l-1.9-1.2c0.8-0.8,1.5-1.8,2-3.2c0.5-1.3,0.8-2.7,0.8-4.2c0-1.9-0.4-3.5-1.3-4.5c-0.8-1.1-2-1.6-3.5-1.6
			s-2.6,0.5-3.5,1.6s-1.3,2.7-1.3,4.8v1.7h-1.8l-8.3-6.6v12.2h-2.2V1655h1.7l8.5,6.7C693.8,1659.3,694.5,1657.4,695.7,1656.1z"/>
		<path d="M683.5,1644.1h23.8v2.4h-21.6v5.6h-2.2V1644.1z"/>
		<path d="M683.5,1631.8h23.8v2.4h-21.6v5.6h-2.2V1631.8z"/>
	</g>
	<g>
		<path d="M558.6,1638.9c1.3,1.2,2,2.8,2,4.7c0,1.4-0.3,2.6-1,3.6c-0.7,1.1-1.6,1.9-2.9,2.5s-2.9,0.9-4.7,0.9
			c-1.7,0-3.3-0.3-4.9-0.8c-1.5-0.6-2.8-1.3-3.7-2.2l1.2-1.9c0.8,0.8,1.8,1.5,3.2,2c1.3,0.5,2.7,0.8,4.2,0.8c1.9,0,3.5-0.4,4.5-1.3
			c1.1-0.8,1.6-2,1.6-3.5s-0.5-2.6-1.6-3.5c-1.1-0.8-2.7-1.3-4.8-1.3H550v-1.8l6.6-8.3h-12.2v-2.2h15.3v1.7l-6.7,8.5
			C555.4,1637,557.3,1637.7,558.6,1638.9z"/>
		<path d="M570.6,1626.7v23.8h-2.4v-21.6h-5.6v-2.2L570.6,1626.7L570.6,1626.7z"/>
		<path d="M592.5,1648.3v2.2h-16.7v-1.7l9.9-9.7c1.2-1.2,2.1-2.3,2.5-3.2s0.7-1.8,0.7-2.7c0-1.4-0.5-2.5-1.4-3.3
			c-1-0.8-2.3-1.2-4.1-1.2c-2.8,0-5,0.9-6.5,2.7l-1.7-1.5c0.9-1.1,2.1-1.9,3.6-2.5c1.4-0.6,3.1-0.9,4.9-0.9c2.4,0,4.3,0.6,5.8,1.7
			c1.4,1.1,2.1,2.7,2.1,4.7c0,1.2-0.3,2.4-0.8,3.5s-1.6,2.4-3.1,3.9l-8.1,8H592.5z"/>
	</g>
	<g>
		<path d="M558.6,1311.6c1.3,1.2,2,2.8,2,4.7c0,1.4-0.3,2.6-1,3.6c-0.7,1.1-1.6,1.9-2.9,2.5s-2.9,0.9-4.7,0.9
			c-1.7,0-3.3-0.3-4.9-0.8c-1.5-0.6-2.8-1.3-3.7-2.2l1.2-1.9c0.8,0.8,1.8,1.5,3.2,2c1.3,0.5,2.7,0.8,4.2,0.8c1.9,0,3.5-0.4,4.5-1.3
			c1.1-0.8,1.6-2,1.6-3.5s-0.5-2.6-1.6-3.5c-1.1-0.8-2.7-1.3-4.8-1.3H550v-1.8l6.6-8.3h-12.2v-2.2h15.3v1.7l-6.7,8.5
			C555.4,1309.7,557.3,1310.4,558.6,1311.6z"/>
		<path d="M570.6,1299.4v23.8h-2.4v-21.6h-5.6v-2.2L570.6,1299.4L570.6,1299.4z"/>
		<path d="M590.1,1311.6c1.3,1.2,2,2.8,2,4.7c0,1.4-0.3,2.6-1,3.6c-0.7,1.1-1.6,1.9-2.9,2.5s-2.9,0.9-4.7,0.9
			c-1.7,0-3.3-0.3-4.9-0.8c-1.5-0.6-2.8-1.3-3.7-2.2l1.2-1.9c0.8,0.8,1.8,1.5,3.2,2c1.3,0.5,2.7,0.8,4.2,0.8c1.9,0,3.5-0.4,4.5-1.3
			c1.1-0.8,1.6-2,1.6-3.5s-0.5-2.6-1.6-3.5c-1.1-0.8-2.7-1.3-4.8-1.3h-1.7v-1.8l6.6-8.3h-12.2v-2.2h15.3v1.7l-6.7,8.5
			C586.9,1309.7,588.8,1310.4,590.1,1311.6z"/>
	</g>
	<g>
		<path d="M558.6,1134.3c1.3,1.2,2,2.8,2,4.7c0,1.4-0.3,2.6-1,3.6c-0.7,1.1-1.6,1.9-2.9,2.5s-2.9,0.9-4.7,0.9
			c-1.7,0-3.3-0.3-4.9-0.8c-1.5-0.6-2.8-1.3-3.7-2.2l1.2-1.9c0.8,0.8,1.8,1.5,3.2,2c1.3,0.5,2.7,0.8,4.2,0.8c1.9,0,3.5-0.4,4.5-1.3
			c1.1-0.8,1.6-2,1.6-3.5s-0.5-2.6-1.6-3.5c-1.1-0.8-2.7-1.3-4.8-1.3H550v-1.8l6.6-8.3h-12.2v-2.2h15.3v1.7l-6.7,8.5
			C555.4,1132.4,557.3,1133.1,558.6,1134.3z"/>
		<path d="M570.6,1122.1v23.8h-2.4v-21.6h-5.6v-2.2L570.6,1122.1L570.6,1122.1z"/>
		<path d="M596.5,1139.6h-4.8v6.3h-2.4v-6.3h-13.4v-1.8l12.6-15.8h2.7l-12.2,15.4h10.3v-5.5h2.4v5.5h4.8L596.5,1139.6L596.5,1139.6z
			"/>
	</g>
	<g>
		<path d="M558.6,1044.3c1.3,1.2,2,2.8,2,4.7c0,1.4-0.3,2.6-1,3.6c-0.7,1.1-1.6,1.9-2.9,2.5s-2.9,0.9-4.7,0.9
			c-1.7,0-3.3-0.3-4.9-0.8c-1.5-0.6-2.8-1.3-3.7-2.2l1.2-1.9c0.8,0.8,1.8,1.5,3.2,2c1.3,0.5,2.7,0.8,4.2,0.8c1.9,0,3.5-0.4,4.5-1.3
			c1.1-0.8,1.6-2,1.6-3.5s-0.5-2.6-1.6-3.5c-1.1-0.8-2.7-1.3-4.8-1.3H550v-1.8l6.6-8.3h-12.2v-2.2h15.3v1.7l-6.7,8.5
			C555.4,1042.4,557.3,1043.1,558.6,1044.3z"/>
		<path d="M570.6,1032.1v23.8h-2.4v-21.6h-5.6v-2.2L570.6,1032.1L570.6,1032.1z"/>
		<path d="M590.1,1043.7c1.6,1.2,2.4,3,2.4,5.2c0,1.4-0.3,2.6-1,3.7s-1.6,1.9-2.9,2.6c-1.3,0.6-2.9,0.9-4.8,0.9
			c-1.7,0-3.3-0.3-4.8-0.8s-2.8-1.3-3.7-2.2l1.2-1.9c0.8,0.8,1.8,1.5,3.1,2s2.7,0.8,4.2,0.8c2,0,3.5-0.4,4.6-1.3s1.6-2.1,1.6-3.5
			c0-1.6-0.6-2.9-1.8-3.7c-1.2-0.8-3.3-1.3-6.1-1.3H577l1.2-11.9h13v2.2h-10.9l-0.8,7.6h3.1C586,1041.8,588.5,1042.5,590.1,1043.7z"
			/>
	</g>
	<g>
		<path d="M558.6,681.4c1.3,1.2,2,2.8,2,4.7c0,1.4-0.3,2.6-1,3.6c-0.7,1.1-1.6,1.9-2.9,2.5s-2.9,0.9-4.7,0.9c-1.7,0-3.3-0.3-4.9-0.8
			c-1.5-0.6-2.8-1.3-3.7-2.2l1.2-1.9c0.8,0.8,1.8,1.5,3.2,2c1.3,0.5,2.7,0.8,4.2,0.8c1.9,0,3.5-0.4,4.5-1.3c1.1-0.8,1.6-2,1.6-3.5
			s-0.5-2.6-1.6-3.5c-1.1-0.8-2.7-1.3-4.8-1.3H550v-1.8l6.6-8.3h-12.2v-2.2h15.3v1.7l-6.7,8.5C555.4,679.5,557.3,680.2,558.6,681.4z
			"/>
		<path d="M570.6,669.2V693h-2.4v-21.6h-5.6v-2.2H570.6z"/>
		<path d="M590.3,679.6c1.2,0.6,2.2,1.4,2.8,2.5c0.7,1.1,1,2.3,1,3.8s-0.4,2.7-1.1,3.8c-0.7,1.1-1.7,2-2.9,2.6s-2.6,0.9-4.2,0.9
			c-3.2,0-5.6-1-7.2-3.1c-1.7-2.1-2.5-5-2.5-8.8c0-2.7,0.5-4.9,1.4-6.7s2.2-3.2,3.8-4.2s3.5-1.4,5.7-1.4c2.4,0,4.2,0.4,5.6,1.3l-1,2
			c-1.1-0.7-2.7-1.1-4.6-1.1c-2.6,0-4.7,0.8-6.2,2.5s-2.2,4.1-2.2,7.3c0,0.6,0,1.2,0.1,1.9c0.6-1.3,1.5-2.3,2.8-3s2.8-1.1,4.5-1.1
			C587.7,678.8,589.1,679,590.3,679.6z M590.1,689.7c1.1-0.9,1.6-2.2,1.6-3.8s-0.5-2.8-1.6-3.7s-2.5-1.4-4.4-1.4
			c-1.2,0-2.3,0.2-3.2,0.7s-1.6,1.1-2.2,1.9c-0.5,0.8-0.8,1.7-0.8,2.7c0,0.9,0.2,1.7,0.7,2.5s1.2,1.4,2.2,1.9s2.1,0.7,3.4,0.7
			C587.7,691.1,589.1,690.7,590.1,689.7z"/>
	</g>
	<g>
		<path d="M302.7,352.3c1.3,1.2,2,2.8,2,4.7c0,1.4-0.3,2.6-1,3.6c-0.7,1.1-1.6,1.9-2.9,2.5s-2.9,0.9-4.7,0.9c-1.7,0-3.3-0.3-4.9-0.8
			c-1.5-0.6-2.8-1.3-3.7-2.2l1.2-1.9c0.8,0.8,1.8,1.5,3.2,2c1.3,0.5,2.7,0.8,4.2,0.8c1.9,0,3.5-0.4,4.5-1.3c1.1-0.8,1.6-2,1.6-3.5
			s-0.5-2.6-1.6-3.5c-1.1-0.8-2.7-1.3-4.8-1.3H294v-1.8l6.6-8.3h-12.2V340h15.3v1.7l-6.7,8.5C299.5,350.4,301.4,351.1,302.7,352.3z"
			/>
		<path d="M314.6,340.1v23.8h-2.4v-21.6h-5.6v-2.2L314.6,340.1L314.6,340.1z"/>
		<path d="M337.1,340.1v1.7l-10,22.1h-2.7l9.8-21.6H322v4.5h-2.4v-6.6h17.5V340.1z"/>
	</g>
	<g>
		<path d="M302.7,462.5c1.3,1.2,2,2.8,2,4.7c0,1.4-0.3,2.6-1,3.6c-0.7,1.1-1.6,1.9-2.9,2.5s-2.9,0.9-4.7,0.9c-1.7,0-3.3-0.3-4.9-0.8
			c-1.5-0.6-2.8-1.3-3.7-2.2l1.2-1.9c0.8,0.8,1.8,1.5,3.2,2c1.3,0.5,2.7,0.8,4.2,0.8c1.9,0,3.5-0.4,4.5-1.3c1.1-0.8,1.6-2,1.6-3.5
			s-0.5-2.6-1.6-3.5c-1.1-0.8-2.7-1.3-4.8-1.3H294v-1.8l6.6-8.3h-12.2v-2.2h15.3v1.7l-6.7,8.5C299.5,460.6,301.4,461.2,302.7,462.5z
			"/>
		<path d="M314.6,450.2V474h-2.4v-21.6h-5.6v-2.2L314.6,450.2L314.6,450.2z"/>
		<path d="M337.4,463.8c0.8,1,1.2,2.2,1.2,3.6s-0.4,2.6-1.1,3.6s-1.8,1.8-3.2,2.4s-3,0.8-4.9,0.8c-2.9,0-5.1-0.6-6.7-1.8
			c-1.6-1.2-2.4-2.9-2.4-5c0-1.4,0.4-2.6,1.2-3.6c0.8-1,1.9-1.7,3.4-2.2c-1.2-0.5-2.2-1.2-2.8-2.1c-0.6-0.9-1-2-1-3.2
			c0-1.9,0.8-3.5,2.3-4.6s3.5-1.7,6.1-1.7c1.7,0,3.1,0.3,4.4,0.8s2.2,1.2,2.9,2.2s1.1,2.1,1.1,3.3c0,1.2-0.3,2.3-1,3.2
			c-0.7,0.9-1.6,1.6-2.8,2.1C335.4,462.1,336.6,462.8,337.4,463.8z M334.3,470.9c1.2-0.9,1.8-2,1.8-3.5s-0.6-2.6-1.8-3.5
			c-1.2-0.8-2.8-1.3-4.9-1.3s-3.7,0.4-4.9,1.3c-1.2,0.9-1.8,2-1.8,3.5s0.6,2.7,1.8,3.5c1.2,0.8,2.8,1.3,4.9,1.3
			S333.1,471.7,334.3,470.9z M325,459.5c1,0.8,2.5,1.2,4.3,1.2s3.3-0.4,4.3-1.2s1.6-1.8,1.6-3.1c0-1.3-0.5-2.4-1.6-3.2
			c-1.1-0.8-2.5-1.2-4.3-1.2s-3.2,0.4-4.3,1.2c-1.1,0.8-1.6,1.8-1.6,3.1C323.5,457.7,324,458.8,325,459.5z"/>
	</g>
	<g>
		<path d="M302.7,556.6c1.3,1.2,2,2.8,2,4.7c0,1.4-0.3,2.6-1,3.6c-0.7,1.1-1.6,1.9-2.9,2.5s-2.9,0.9-4.7,0.9c-1.7,0-3.3-0.3-4.9-0.8
			c-1.5-0.6-2.8-1.3-3.7-2.2l1.2-1.9c0.8,0.8,1.8,1.5,3.2,2c1.3,0.5,2.7,0.8,4.2,0.8c1.9,0,3.5-0.4,4.5-1.3c1.1-0.8,1.6-2,1.6-3.5
			s-0.5-2.6-1.6-3.5c-1.1-0.8-2.7-1.3-4.8-1.3H294v-1.8l6.6-8.3h-12.2v-2.2h15.3v1.7l-6.7,8.5C299.5,554.7,301.4,555.4,302.7,556.6z
			"/>
		<path d="M314.6,544.4v23.8h-2.4v-21.6h-5.6v-2.2H314.6z"/>
		<path d="M335,547.3c1.7,2.1,2.5,5,2.5,8.8c0,2.7-0.5,4.9-1.4,6.7s-2.2,3.2-3.8,4.2s-3.5,1.4-5.7,1.4c-2.4,0-4.2-0.4-5.6-1.3l1-2
			c1.1,0.7,2.7,1.1,4.6,1.1c2.6,0,4.7-0.8,6.2-2.5s2.2-4.1,2.2-7.3c0-0.6,0-1.2-0.1-1.9c-0.6,1.3-1.5,2.3-2.8,3s-2.8,1.1-4.5,1.1
			c-1.6,0-3-0.3-4.2-0.9c-1.2-0.6-2.2-1.4-2.8-2.5c-0.7-1.1-1-2.3-1-3.8s0.4-2.7,1.1-3.8s1.7-2,2.9-2.6c1.2-0.6,2.6-0.9,4.2-0.9
			C330.9,544.2,333.3,545.2,335,547.3z M331.2,555.9c0.9-0.5,1.6-1.1,2.2-1.9c0.5-0.8,0.8-1.7,0.8-2.7c0-0.9-0.2-1.7-0.7-2.5
			s-1.2-1.4-2.2-1.9s-2.1-0.7-3.4-0.7c-1.7,0-3.1,0.5-4.2,1.4s-1.6,2.2-1.6,3.8s0.5,2.8,1.6,3.7s2.5,1.4,4.4,1.4
			C329.2,556.5,330.3,556.3,331.2,555.9z"/>
	</g>
	<g>
		<path d="M302.7,662.2c1.3,1.2,2,2.8,2,4.7c0,1.4-0.3,2.6-1,3.6c-0.7,1.1-1.6,1.9-2.9,2.5s-2.9,0.9-4.7,0.9c-1.7,0-3.3-0.3-4.9-0.8
			c-1.5-0.6-2.8-1.3-3.7-2.2l1.2-1.9c0.8,0.8,1.8,1.5,3.2,2c1.3,0.5,2.7,0.8,4.2,0.8c1.9,0,3.5-0.4,4.5-1.3c1.1-0.8,1.6-2,1.6-3.5
			s-0.5-2.6-1.6-3.5c-1.1-0.8-2.7-1.3-4.8-1.3H294v-1.8l6.6-8.3h-12.2V650h15.3v1.7l-6.7,8.5C299.5,660.3,301.4,661,302.7,662.2z"/>
		<path d="M324.1,671.6v2.2h-16.7V672l9.9-9.7c1.2-1.2,2.1-2.3,2.5-3.2s0.7-1.8,0.7-2.7c0-1.4-0.5-2.5-1.4-3.3
			c-1-0.8-2.3-1.2-4.1-1.2c-2.8,0-5,0.9-6.5,2.7l-1.7-1.5c0.9-1.1,2.1-1.9,3.6-2.5c1.4-0.6,3.1-0.9,4.9-0.9c2.4,0,4.3,0.6,5.8,1.7
			c1.4,1.1,2.1,2.7,2.1,4.7c0,1.2-0.3,2.4-0.8,3.5s-1.6,2.4-3.1,3.9l-8.1,8L324.1,671.6L324.1,671.6z"/>
		<path d="M331.6,672.5c-1.4-1-2.6-2.4-3.4-4.2s-1.2-4-1.2-6.4c0-2.5,0.4-4.6,1.2-6.4c0.8-1.8,1.9-3.2,3.4-4.2s3.1-1.5,4.9-1.5
			s3.5,0.5,4.9,1.5s2.6,2.4,3.4,4.2s1.2,4,1.2,6.4c0,2.5-0.4,4.6-1.2,6.4c-0.8,1.8-1.9,3.2-3.4,4.2c-1.4,1-3.1,1.5-4.9,1.5
			S333.1,673.5,331.6,672.5z M340.2,670.6c1.1-0.8,1.9-1.9,2.5-3.4s0.9-3.3,0.9-5.3c0-2.1-0.3-3.9-0.9-5.3c-0.6-1.5-1.4-2.6-2.5-3.4
			c-1.1-0.8-2.3-1.2-3.7-1.2c-1.4,0-2.6,0.4-3.7,1.2s-1.9,1.9-2.5,3.4s-0.9,3.3-0.9,5.3c0,2.1,0.3,3.9,0.9,5.3s1.4,2.6,2.5,3.4
			c1.1,0.8,2.3,1.2,3.7,1.2C337.9,671.7,339.1,671.3,340.2,670.6z"/>
	</g>
	<g>
		<path d="M302.7,830.1c1.3,1.2,2,2.8,2,4.7c0,1.4-0.3,2.6-1,3.6c-0.7,1.1-1.6,1.9-2.9,2.5s-2.9,0.9-4.7,0.9c-1.7,0-3.3-0.3-4.9-0.8
			c-1.5-0.6-2.8-1.3-3.7-2.2l1.2-1.9c0.8,0.8,1.8,1.5,3.2,2c1.3,0.5,2.7,0.8,4.2,0.8c1.9,0,3.5-0.4,4.5-1.3c1.1-0.8,1.6-2,1.6-3.5
			s-0.5-2.6-1.6-3.5c-1.1-0.8-2.7-1.3-4.8-1.3H294v-1.8l6.6-8.3h-12.2v-2.2h15.3v1.7L297,828C299.5,828.3,301.4,828.9,302.7,830.1z"
			/>
		<path d="M324.1,839.5v2.2h-16.7V840l9.9-9.7c1.2-1.2,2.1-2.3,2.5-3.2s0.7-1.8,0.7-2.7c0-1.4-0.5-2.5-1.4-3.3
			c-1-0.8-2.3-1.2-4.1-1.2c-2.8,0-5,0.9-6.5,2.7l-1.7-1.5c0.9-1.1,2.1-1.9,3.6-2.5c1.4-0.6,3.1-0.9,4.9-0.9c2.4,0,4.3,0.6,5.8,1.7
			c1.4,1.1,2.1,2.7,2.1,4.7c0,1.2-0.3,2.4-0.8,3.5s-1.6,2.4-3.1,3.9l-8.1,8H324.1z"/>
		<path d="M343.4,839.5v2.2h-16.7V840l9.9-9.7c1.2-1.2,2.1-2.3,2.5-3.2s0.7-1.8,0.7-2.7c0-1.4-0.5-2.5-1.4-3.3
			c-1-0.8-2.3-1.2-4.1-1.2c-2.8,0-5,0.9-6.5,2.7l-1.7-1.5c0.9-1.1,2.1-1.9,3.6-2.5c1.4-0.6,3.1-0.9,4.9-0.9c2.4,0,4.3,0.6,5.8,1.7
			c1.4,1.1,2.1,2.7,2.1,4.7c0,1.2-0.3,2.4-0.8,3.5s-1.6,2.4-3.1,3.9l-8.1,8H343.4z"/>
	</g>
	<g>
		<path d="M302.7,961.5c1.3,1.2,2,2.8,2,4.7c0,1.4-0.3,2.6-1,3.6c-0.7,1.1-1.6,1.9-2.9,2.5s-2.9,0.9-4.7,0.9c-1.7,0-3.3-0.3-4.9-0.8
			c-1.5-0.6-2.8-1.3-3.7-2.2l1.2-1.9c0.8,0.8,1.8,1.5,3.2,2c1.3,0.5,2.7,0.8,4.2,0.8c1.9,0,3.5-0.4,4.5-1.3c1.1-0.8,1.6-2,1.6-3.5
			s-0.5-2.6-1.6-3.5c-1.1-0.8-2.7-1.3-4.8-1.3H294v-1.8l6.6-8.3h-12.2v-2.2h15.3v1.7l-6.7,8.5C299.5,959.7,301.4,960.3,302.7,961.5z
			"/>
		<path d="M324.1,970.9v2.2h-16.7v-1.7l9.9-9.7c1.2-1.2,2.1-2.3,2.5-3.2s0.7-1.8,0.7-2.7c0-1.4-0.5-2.5-1.4-3.3
			c-1-0.8-2.3-1.2-4.1-1.2c-2.8,0-5,0.9-6.5,2.7l-1.7-1.5c0.9-1.1,2.1-1.9,3.6-2.5c1.4-0.6,3.1-0.9,4.9-0.9c2.4,0,4.3,0.6,5.8,1.7
			c1.4,1.1,2.1,2.7,2.1,4.7c0,1.2-0.3,2.4-0.8,3.5s-1.6,2.4-3.1,3.9l-8.1,8H324.1z"/>
		<path d="M341,961.5c1.3,1.2,2,2.8,2,4.7c0,1.4-0.3,2.6-1,3.6c-0.7,1.1-1.6,1.9-2.9,2.5s-2.9,0.9-4.7,0.9c-1.7,0-3.3-0.3-4.9-0.8
			c-1.5-0.6-2.8-1.3-3.7-2.2l1.2-1.9c0.8,0.8,1.8,1.5,3.2,2c1.3,0.5,2.7,0.8,4.2,0.8c1.9,0,3.5-0.4,4.5-1.3c1.1-0.8,1.6-2,1.6-3.5
			s-0.5-2.6-1.6-3.5c-1.1-0.8-2.7-1.3-4.8-1.3h-1.7v-1.8l6.6-8.3h-12.2v-2.2H342v1.7l-6.7,8.5C337.8,959.7,339.7,960.3,341,961.5z"
			/>
	</g>
	<g>
		<path d="M320.3,1100.1c1.3,1.2,2,2.8,2,4.7c0,1.4-0.3,2.6-1,3.6c-0.7,1.1-1.6,1.9-2.9,2.5s-2.9,0.9-4.7,0.9
			c-1.7,0-3.3-0.3-4.9-0.8c-1.5-0.6-2.8-1.3-3.7-2.2l1.2-1.9c0.8,0.8,1.8,1.5,3.2,2c1.3,0.5,2.7,0.8,4.2,0.8c1.9,0,3.5-0.4,4.5-1.3
			c1.1-0.8,1.6-2,1.6-3.5s-0.5-2.6-1.6-3.5c-1.1-0.8-2.7-1.3-4.8-1.3h-1.7v-1.8l6.6-8.3h-12.2v-2.2h15.3v1.7l-6.7,8.5
			C317.1,1098.2,319,1098.9,320.3,1100.1z"/>
		<path d="M341.8,1109.5v2.2h-16.7v-1.7l9.9-9.7c1.2-1.2,2.1-2.3,2.5-3.2s0.7-1.8,0.7-2.7c0-1.4-0.5-2.5-1.4-3.3
			c-1-0.8-2.3-1.2-4.1-1.2c-2.8,0-5,0.9-6.5,2.7l-1.7-1.5c0.9-1.1,2.1-1.9,3.6-2.5c1.4-0.6,3.1-0.9,4.9-0.9c2.4,0,4.3,0.6,5.8,1.7
			c1.4,1.1,2.1,2.7,2.1,4.7c0,1.2-0.3,2.4-0.8,3.5s-1.6,2.4-3.1,3.9l-8.1,8H341.8z"/>
		<path d="M364.3,1105.4h-4.8v6.3h-2.4v-6.3h-13.4v-1.8l12.6-15.8h2.7l-12.2,15.4h10.3v-5.5h2.4v5.5h4.8V1105.4z"/>
	</g>
	<g>
		<path d="M302.7,1213.4c1.3,1.2,2,2.8,2,4.7c0,1.4-0.3,2.6-1,3.6c-0.7,1.1-1.6,1.9-2.9,2.5s-2.9,0.9-4.7,0.9
			c-1.7,0-3.3-0.3-4.9-0.8c-1.5-0.6-2.8-1.3-3.7-2.2l1.2-1.9c0.8,0.8,1.8,1.5,3.2,2c1.3,0.5,2.7,0.8,4.2,0.8c1.9,0,3.5-0.4,4.5-1.3
			c1.1-0.8,1.6-2,1.6-3.5s-0.5-2.6-1.6-3.5c-1.1-0.8-2.7-1.3-4.8-1.3H294v-1.8l6.6-8.3h-12.2v-2.2h15.3v1.7l-6.7,8.5
			C299.5,1211.6,301.4,1212.2,302.7,1213.4z"/>
		<path d="M324.1,1222.8v2.2h-16.7v-1.7l9.9-9.7c1.2-1.2,2.1-2.3,2.5-3.2s0.7-1.8,0.7-2.7c0-1.4-0.5-2.5-1.4-3.3
			c-1-0.8-2.3-1.2-4.1-1.2c-2.8,0-5,0.9-6.5,2.7l-1.7-1.5c0.9-1.1,2.1-1.9,3.6-2.5c1.4-0.6,3.1-0.9,4.9-0.9c2.4,0,4.3,0.6,5.8,1.7
			c1.4,1.1,2.1,2.7,2.1,4.7c0,1.2-0.3,2.4-0.8,3.5s-1.6,2.4-3.1,3.9l-8.1,8H324.1z"/>
		<path d="M346.6,1218.8h-4.8v6.3h-2.4v-6.3H326v-1.8l12.6-15.8h2.7l-12.2,15.4h10.3v-5.5h2.4v5.5h4.8L346.6,1218.8L346.6,1218.8z"
			/>
		<path d="M366.4,1218.7h-13.3l-2.9,6.4h-2.6l10.9-23.8h2.5l10.9,23.8h-2.7L366.4,1218.7z M365.4,1216.6l-5.7-12.8l-5.7,12.8H365.4z
			"/>
	</g>
	<g>
		<path d="M320,1402.8c1.3,1.2,2,2.8,2,4.7c0,1.4-0.3,2.6-1,3.6c-0.7,1.1-1.6,1.9-2.9,2.5s-2.9,0.9-4.7,0.9c-1.7,0-3.3-0.3-4.9-0.8
			c-1.5-0.6-2.8-1.3-3.7-2.2l1.2-1.9c0.8,0.8,1.8,1.5,3.2,2c1.3,0.5,2.7,0.8,4.2,0.8c1.9,0,3.5-0.4,4.5-1.3c1.1-0.8,1.6-2,1.6-3.5
			s-0.5-2.6-1.6-3.5c-1.1-0.8-2.7-1.3-4.8-1.3h-1.7v-1.8l6.6-8.3h-12.2v-2.2h15.3v1.7l-6.7,8.5
			C316.8,1400.9,318.7,1401.6,320,1402.8z"/>
		<path d="M341.5,1412.2v2.2h-16.7v-1.7l9.9-9.7c1.2-1.2,2.1-2.3,2.5-3.2s0.7-1.8,0.7-2.7c0-1.4-0.5-2.5-1.4-3.3
			c-1-0.8-2.3-1.2-4.1-1.2c-2.8,0-5,0.9-6.5,2.7l-1.7-1.5c0.9-1.1,2.1-1.9,3.6-2.5c1.4-0.6,3.1-0.9,4.9-0.9c2.4,0,4.3,0.6,5.8,1.7
			c1.4,1.1,2.1,2.7,2.1,4.7c0,1.2-0.3,2.4-0.8,3.5s-1.6,2.4-3.1,3.9l-8.1,8H341.5z"/>
		<path d="M358.3,1402.2c1.6,1.2,2.4,3,2.4,5.2c0,1.4-0.3,2.6-1,3.7s-1.6,1.9-2.9,2.6c-1.3,0.6-2.9,0.9-4.8,0.9
			c-1.7,0-3.3-0.3-4.8-0.8s-2.8-1.3-3.7-2.2l1.2-1.9c0.8,0.8,1.8,1.5,3.1,2c1.3,0.5,2.7,0.8,4.2,0.8c2,0,3.5-0.4,4.6-1.3
			s1.6-2.1,1.6-3.5c0-1.6-0.6-2.9-1.8-3.7c-1.2-0.8-3.3-1.3-6.1-1.3h-5.1l1.2-11.9h13v2.2h-10.9l-0.8,7.6h3.1
			C354.3,1400.3,356.8,1400.9,358.3,1402.2z"/>
	</g>
	<g>
		<path d="M302.7,1603.9c1.3,1.2,2,2.8,2,4.7c0,1.4-0.3,2.6-1,3.6c-0.7,1.1-1.6,1.9-2.9,2.5s-2.9,0.9-4.7,0.9
			c-1.7,0-3.3-0.3-4.9-0.8c-1.5-0.6-2.8-1.3-3.7-2.2l1.2-1.9c0.8,0.8,1.8,1.5,3.2,2c1.3,0.5,2.7,0.8,4.2,0.8c1.9,0,3.5-0.4,4.5-1.3
			c1.1-0.8,1.6-2,1.6-3.5s-0.5-2.6-1.6-3.5c-1.1-0.8-2.7-1.3-4.8-1.3H294v-1.8l6.6-8.3h-12.2v-2.2h15.3v1.7l-6.7,8.5
			C299.5,1602,301.4,1602.7,302.7,1603.9z"/>
		<path d="M324.1,1613.3v2.2h-16.7v-1.7l9.9-9.7c1.2-1.2,2.1-2.3,2.5-3.2s0.7-1.8,0.7-2.7c0-1.4-0.5-2.5-1.4-3.3
			c-1-0.8-2.3-1.2-4.1-1.2c-2.8,0-5,0.9-6.5,2.7l-1.7-1.5c0.9-1.1,2.1-1.9,3.6-2.5c1.4-0.6,3.1-0.9,4.9-0.9c2.4,0,4.3,0.6,5.8,1.7
			c1.4,1.1,2.1,2.7,2.1,4.7c0,1.2-0.3,2.4-0.8,3.5s-1.6,2.4-3.1,3.9l-8.1,8H324.1z"/>
		<path d="M341.1,1602.1c1.2,0.6,2.2,1.4,2.8,2.5c0.7,1.1,1,2.3,1,3.8s-0.4,2.7-1.1,3.8c-0.7,1.1-1.7,2-2.9,2.6
			c-1.2,0.6-2.6,0.9-4.2,0.9c-3.2,0-5.6-1-7.2-3.1c-1.7-2.1-2.5-5-2.5-8.8c0-2.7,0.5-4.9,1.4-6.7c0.9-1.8,2.2-3.2,3.8-4.2
			s3.5-1.4,5.7-1.4c2.4,0,4.2,0.4,5.6,1.3l-1,2c-1.1-0.7-2.7-1.1-4.6-1.1c-2.6,0-4.7,0.8-6.2,2.5s-2.2,4.1-2.2,7.3
			c0,0.6,0,1.2,0.1,1.9c0.6-1.3,1.5-2.3,2.8-3s2.8-1.1,4.5-1.1C338.5,1601.2,339.9,1601.5,341.1,1602.1z M340.9,1612.2
			c1.1-0.9,1.6-2.2,1.6-3.8c0-1.6-0.5-2.8-1.6-3.7c-1.1-0.9-2.5-1.4-4.4-1.4c-1.2,0-2.3,0.2-3.2,0.7c-0.9,0.5-1.6,1.1-2.2,1.9
			c-0.5,0.8-0.8,1.7-0.8,2.7c0,0.9,0.2,1.7,0.7,2.5s1.2,1.4,2.2,1.9s2.1,0.7,3.4,0.7C338.4,1613.6,339.8,1613.1,340.9,1612.2z"/>
	</g>
	<g>
		<path d="M302.7,1687.4c1.3,1.2,2,2.8,2,4.7c0,1.4-0.3,2.6-1,3.6c-0.7,1.1-1.6,1.9-2.9,2.5s-2.9,0.9-4.7,0.9
			c-1.7,0-3.3-0.3-4.9-0.8c-1.5-0.6-2.8-1.3-3.7-2.2l1.2-1.9c0.8,0.8,1.8,1.5,3.2,2c1.3,0.5,2.7,0.8,4.2,0.8c1.9,0,3.5-0.4,4.5-1.3
			c1.1-0.8,1.6-2,1.6-3.5s-0.5-2.6-1.6-3.5c-1.1-0.8-2.7-1.3-4.8-1.3H294v-1.8l6.6-8.3h-12.2v-2.2h15.3v1.7l-6.7,8.5
			C299.5,1685.5,301.4,1686.2,302.7,1687.4z"/>
		<path d="M324.1,1696.8v2.2h-16.7v-1.7l9.9-9.7c1.2-1.2,2.1-2.3,2.5-3.2s0.7-1.8,0.7-2.7c0-1.4-0.5-2.5-1.4-3.3
			c-1-0.8-2.3-1.2-4.1-1.2c-2.8,0-5,0.9-6.5,2.7l-1.7-1.5c0.9-1.1,2.1-1.9,3.6-2.5c1.4-0.6,3.1-0.9,4.9-0.9c2.4,0,4.3,0.6,5.8,1.7
			c1.4,1.1,2.1,2.7,2.1,4.7c0,1.2-0.3,2.4-0.8,3.5s-1.6,2.4-3.1,3.9l-8.1,8H324.1z"/>
		<path d="M343.8,1675.2v1.7l-10,22.1h-2.7l9.8-21.6h-12.2v4.5h-2.4v-6.6L343.8,1675.2L343.8,1675.2z"/>
	</g>
	<g>
		<path d="M353.5,1899c1.3,1.2,2,2.8,2,4.7c0,1.4-0.3,2.6-1,3.6c-0.7,1.1-1.6,1.9-2.9,2.5s-2.9,0.9-4.7,0.9c-1.7,0-3.3-0.3-4.9-0.8
			c-1.5-0.6-2.8-1.3-3.7-2.2l1.2-1.9c0.8,0.8,1.8,1.5,3.2,2c1.3,0.5,2.7,0.8,4.2,0.8c1.9,0,3.5-0.4,4.5-1.3c1.1-0.8,1.6-2,1.6-3.5
			s-0.5-2.6-1.6-3.5c-1.1-0.8-2.7-1.3-4.8-1.3h-1.7v-1.8l6.6-8.3h-12.2v-2.2h15.3v1.7l-6.7,8.5
			C350.3,1897.1,352.2,1897.8,353.5,1899z"/>
		<path d="M375,1908.4v2.2h-16.7v-1.7l9.9-9.7c1.2-1.2,2.1-2.3,2.5-3.2s0.7-1.8,0.7-2.7c0-1.4-0.5-2.5-1.4-3.3
			c-1-0.8-2.3-1.2-4.1-1.2c-2.8,0-5,0.9-6.5,2.7l-1.7-1.5c0.9-1.1,2.1-1.9,3.6-2.5c1.4-0.6,3.1-0.9,4.9-0.9c2.4,0,4.3,0.6,5.8,1.7
			c1.4,1.1,2.1,2.7,2.1,4.7c0,1.2-0.3,2.4-0.8,3.5s-1.6,2.4-3.1,3.9l-8.1,8H375z"/>
		<path d="M395.2,1900.4c0.8,1,1.2,2.2,1.2,3.6s-0.4,2.6-1.1,3.6s-1.8,1.8-3.2,2.4s-3,0.8-4.9,0.8c-2.9,0-5.1-0.6-6.7-1.8
			c-1.6-1.2-2.4-2.9-2.4-5c0-1.4,0.4-2.6,1.2-3.6c0.8-1,1.9-1.7,3.4-2.2c-1.2-0.5-2.2-1.2-2.8-2.1c-0.6-0.9-1-2-1-3.2
			c0-1.9,0.8-3.5,2.3-4.6s3.5-1.7,6.1-1.7c1.7,0,3.1,0.3,4.4,0.8s2.2,1.2,2.9,2.2s1.1,2.1,1.1,3.3c0,1.2-0.3,2.3-1,3.2
			c-0.7,0.9-1.6,1.6-2.8,2.1C393.2,1898.6,394.3,1899.4,395.2,1900.4z M392.1,1907.4c1.2-0.9,1.8-2,1.8-3.5s-0.6-2.6-1.8-3.5
			c-1.2-0.8-2.8-1.3-4.9-1.3s-3.7,0.4-4.9,1.3c-1.2,0.9-1.8,2-1.8,3.5s0.6,2.7,1.8,3.5c1.2,0.8,2.8,1.3,4.9,1.3
			S390.9,1908.3,392.1,1907.4z M382.8,1896.1c1,0.8,2.5,1.2,4.3,1.2s3.3-0.4,4.3-1.2s1.6-1.8,1.6-3.1c0-1.3-0.5-2.4-1.6-3.2
			c-1.1-0.8-2.5-1.2-4.3-1.2s-3.2,0.4-4.3,1.2c-1.1,0.8-1.6,1.8-1.6,3.1C381.2,1894.3,381.8,1895.3,382.8,1896.1z"/>
	</g>
	<g>
		<path d="M558.9,1899c1.3,1.2,2,2.8,2,4.7c0,1.4-0.3,2.6-1,3.6c-0.7,1.1-1.6,1.9-2.9,2.5s-2.9,0.9-4.7,0.9c-1.7,0-3.3-0.3-4.9-0.8
			c-1.5-0.6-2.8-1.3-3.7-2.2l1.2-1.9c0.8,0.8,1.8,1.5,3.2,2c1.3,0.5,2.7,0.8,4.2,0.8c1.9,0,3.5-0.4,4.5-1.3c1.1-0.8,1.6-2,1.6-3.5
			s-0.5-2.6-1.6-3.5c-1.1-0.8-2.7-1.3-4.8-1.3h-1.7v-1.8l6.6-8.3h-12.2v-2.2H560v1.7l-6.7,8.5C555.7,1897.1,557.6,1897.8,558.9,1899
			z"/>
		<path d="M580.4,1908.4v2.2h-16.7v-1.7l9.9-9.7c1.2-1.2,2.1-2.3,2.5-3.2s0.7-1.8,0.7-2.7c0-1.4-0.5-2.5-1.4-3.3
			c-1-0.8-2.3-1.2-4.1-1.2c-2.8,0-5,0.9-6.5,2.7l-1.7-1.5c0.9-1.1,2.1-1.9,3.6-2.5c1.4-0.6,3.1-0.9,4.9-0.9c2.4,0,4.3,0.6,5.8,1.7
			c1.4,1.1,2.1,2.7,2.1,4.7c0,1.2-0.3,2.4-0.8,3.5s-1.6,2.4-3.1,3.9l-8.1,8H580.4z"/>
		<path d="M598.1,1889.7c1.7,2.1,2.5,5,2.5,8.8c0,2.7-0.5,4.9-1.4,6.7c-0.9,1.8-2.2,3.2-3.8,4.2s-3.5,1.4-5.7,1.4
			c-2.4,0-4.2-0.4-5.6-1.3l1-2c1.1,0.7,2.7,1.1,4.6,1.1c2.6,0,4.7-0.8,6.2-2.5s2.2-4.1,2.2-7.3c0-0.6,0-1.2-0.1-1.9
			c-0.6,1.3-1.5,2.3-2.8,3s-2.8,1.1-4.5,1.1c-1.6,0-3-0.3-4.2-0.9s-2.2-1.4-2.8-2.5c-0.7-1.1-1-2.3-1-3.8s0.4-2.7,1.1-3.8
			c0.7-1.1,1.7-2,2.9-2.6s2.6-0.9,4.2-0.9C594,1886.6,596.4,1887.6,598.1,1889.7z M594.3,1898.3c0.9-0.5,1.6-1.1,2.2-1.9
			c0.5-0.8,0.8-1.7,0.8-2.7c0-0.9-0.2-1.7-0.7-2.5s-1.2-1.4-2.2-1.9s-2.1-0.7-3.4-0.7c-1.7,0-3.1,0.5-4.2,1.4
			c-1.1,0.9-1.6,2.2-1.6,3.8c0,1.6,0.5,2.8,1.6,3.7c1.1,0.9,2.5,1.4,4.4,1.4C592.3,1899,593.4,1898.7,594.3,1898.3z"/>
	</g>
	<g>
		<path d="M913.9,1899c1.3,1.2,2,2.8,2,4.7c0,1.4-0.3,2.6-1,3.6c-0.7,1.1-1.6,1.9-2.9,2.5s-2.9,0.9-4.7,0.9c-1.7,0-3.3-0.3-4.9-0.8
			c-1.5-0.6-2.8-1.3-3.7-2.2l1.2-1.9c0.8,0.8,1.8,1.5,3.2,2c1.3,0.5,2.7,0.8,4.2,0.8c1.9,0,3.5-0.4,4.5-1.3c1.1-0.8,1.6-2,1.6-3.5
			s-0.5-2.6-1.6-3.5c-1.1-0.8-2.7-1.3-4.8-1.3h-1.7v-1.8l6.6-8.3h-12.2v-2.2H915v1.7l-6.7,8.5C910.7,1897.1,912.6,1897.8,913.9,1899
			z"/>
		<path d="M932.9,1899c1.3,1.2,2,2.8,2,4.7c0,1.4-0.3,2.6-1,3.6c-0.7,1.1-1.6,1.9-2.9,2.5s-2.9,0.9-4.7,0.9c-1.7,0-3.3-0.3-4.9-0.8
			c-1.5-0.6-2.8-1.3-3.7-2.2l1.2-1.9c0.8,0.8,1.8,1.5,3.2,2c1.3,0.5,2.7,0.8,4.2,0.8c1.9,0,3.5-0.4,4.5-1.3c1.1-0.8,1.6-2,1.6-3.5
			s-0.5-2.6-1.6-3.5c-1.1-0.8-2.7-1.3-4.8-1.3h-1.7v-1.8l6.6-8.3h-12.2v-2.2H934v1.7l-6.7,8.5C929.7,1897.1,931.6,1897.8,932.9,1899
			z"/>
		<path d="M954.4,1908.4v2.2h-16.7v-1.7l9.9-9.7c1.2-1.2,2.1-2.3,2.5-3.2s0.7-1.8,0.7-2.7c0-1.4-0.5-2.5-1.4-3.3
			c-1-0.8-2.3-1.2-4.1-1.2c-2.8,0-5,0.9-6.5,2.7l-1.7-1.5c0.9-1.1,2.1-1.9,3.6-2.5c1.4-0.6,3.1-0.9,4.9-0.9c2.4,0,4.3,0.6,5.8,1.7
			c1.4,1.1,2.1,2.7,2.1,4.7c0,1.2-0.3,2.4-0.8,3.5s-1.6,2.4-3.1,3.9l-8.1,8H954.4z"/>
	</g>
	<g>
		<path d="M1174.8,1899c1.3,1.2,2,2.8,2,4.7c0,1.4-0.3,2.6-1,3.6c-0.7,1.1-1.6,1.9-2.9,2.5s-2.9,0.9-4.7,0.9c-1.7,0-3.3-0.3-4.9-0.8
			c-1.5-0.6-2.8-1.3-3.7-2.2l1.2-1.9c0.8,0.8,1.8,1.5,3.2,2c1.3,0.5,2.7,0.8,4.2,0.8c1.9,0,3.5-0.4,4.5-1.3c1.1-0.8,1.6-2,1.6-3.5
			s-0.5-2.6-1.6-3.5c-1.1-0.8-2.7-1.3-4.8-1.3h-1.7v-1.8l6.6-8.3h-12.2v-2.2h15.3v1.7l-6.7,8.5
			C1171.6,1897.1,1173.5,1897.8,1174.8,1899z"/>
		<path d="M1193.8,1899c1.3,1.2,2,2.8,2,4.7c0,1.4-0.3,2.6-1,3.6c-0.7,1.1-1.6,1.9-2.9,2.5s-2.9,0.9-4.7,0.9c-1.7,0-3.3-0.3-4.9-0.8
			c-1.5-0.6-2.8-1.3-3.7-2.2l1.2-1.9c0.8,0.8,1.8,1.5,3.2,2c1.3,0.5,2.7,0.8,4.2,0.8c1.9,0,3.5-0.4,4.5-1.3c1.1-0.8,1.6-2,1.6-3.5
			s-0.5-2.6-1.6-3.5c-1.1-0.8-2.7-1.3-4.8-1.3h-1.7v-1.8l6.6-8.3h-12.2v-2.2h15.3v1.7l-6.7,8.5
			C1190.6,1897.1,1192.5,1897.8,1193.8,1899z"/>
		<path d="M1219.4,1904.3h-4.8v6.3h-2.4v-6.3h-13.4v-1.8l12.6-15.8h2.7l-12.2,15.4h10.3v-5.5h2.4v5.5h4.8V1904.3z"/>
	</g>
	<g>
		<path d="M1479,1899c1.3,1.2,2,2.8,2,4.7c0,1.4-0.3,2.6-1,3.6c-0.7,1.1-1.6,1.9-2.9,2.5s-2.9,0.9-4.7,0.9c-1.7,0-3.3-0.3-4.9-0.8
			c-1.5-0.6-2.8-1.3-3.7-2.2l1.2-1.9c0.8,0.8,1.8,1.5,3.2,2c1.3,0.5,2.7,0.8,4.2,0.8c1.9,0,3.5-0.4,4.5-1.3c1.1-0.8,1.6-2,1.6-3.5
			s-0.5-2.6-1.6-3.5c-1.1-0.8-2.7-1.3-4.8-1.3h-1.7v-1.8l6.6-8.3h-12.2v-2.2h15.3v1.7l-6.7,8.5
			C1475.7,1897.1,1477.6,1897.8,1479,1899z"/>
		<path d="M1498,1899c1.3,1.2,2,2.8,2,4.7c0,1.4-0.3,2.6-1,3.6c-0.7,1.1-1.6,1.9-2.9,2.5s-2.9,0.9-4.7,0.9c-1.7,0-3.3-0.3-4.9-0.8
			c-1.5-0.6-2.8-1.3-3.7-2.2l1.2-1.9c0.8,0.8,1.8,1.5,3.2,2c1.3,0.5,2.7,0.8,4.2,0.8c1.9,0,3.5-0.4,4.5-1.3c1.1-0.8,1.6-2,1.6-3.5
			s-0.5-2.6-1.6-3.5c-1.1-0.8-2.7-1.3-4.8-1.3h-1.7v-1.8l6.6-8.3h-12.2v-2.2h15.3v1.7l-6.7,8.5
			C1494.8,1897.1,1496.7,1897.8,1498,1899z"/>
		<path d="M1517.4,1897.2c1.2,0.6,2.2,1.4,2.8,2.5c0.7,1.1,1,2.3,1,3.8s-0.4,2.7-1.1,3.8c-0.7,1.1-1.7,2-2.9,2.6
			c-1.2,0.6-2.6,0.9-4.2,0.9c-3.2,0-5.6-1-7.2-3.1c-1.7-2.1-2.5-5-2.5-8.8c0-2.7,0.5-4.9,1.4-6.7c0.9-1.8,2.2-3.2,3.8-4.2
			s3.5-1.4,5.7-1.4c2.4,0,4.2,0.4,5.6,1.3l-1,2c-1.1-0.7-2.7-1.1-4.6-1.1c-2.6,0-4.7,0.8-6.2,2.5s-2.2,4.1-2.2,7.3
			c0,0.6,0,1.2,0.1,1.9c0.6-1.3,1.5-2.3,2.8-3s2.8-1.1,4.5-1.1C1514.8,1896.4,1516.2,1896.6,1517.4,1897.2z M1517.2,1907.3
			c1.1-0.9,1.6-2.2,1.6-3.8c0-1.6-0.5-2.8-1.6-3.7c-1.1-0.9-2.5-1.4-4.4-1.4c-1.2,0-2.3,0.2-3.2,0.7c-0.9,0.5-1.6,1.1-2.2,1.9
			c-0.5,0.8-0.8,1.7-0.8,2.7c0,0.9,0.2,1.7,0.7,2.5s1.2,1.4,2.2,1.9s2.1,0.7,3.4,0.7C1514.7,1908.7,1516.1,1908.3,1517.2,1907.3z"/>
	</g>
	<g>
		<path d="M1681.7,1899c1.3,1.2,2,2.8,2,4.7c0,1.4-0.3,2.6-1,3.6c-0.7,1.1-1.6,1.9-2.9,2.5s-2.9,0.9-4.7,0.9c-1.7,0-3.3-0.3-4.9-0.8
			c-1.5-0.6-2.8-1.3-3.7-2.2l1.2-1.9c0.8,0.8,1.8,1.5,3.2,2c1.3,0.5,2.7,0.8,4.2,0.8c1.9,0,3.5-0.4,4.5-1.3c1.1-0.8,1.6-2,1.6-3.5
			s-0.5-2.6-1.6-3.5c-1.1-0.8-2.7-1.3-4.8-1.3h-1.7v-1.8l6.6-8.3h-12.2v-2.2h15.3v1.7l-6.7,8.5
			C1678.5,1897.1,1680.4,1897.8,1681.7,1899z"/>
		<path d="M1700.7,1899c1.3,1.2,2,2.8,2,4.7c0,1.4-0.3,2.6-1,3.6c-0.7,1.1-1.6,1.9-2.9,2.5s-2.9,0.9-4.7,0.9c-1.7,0-3.3-0.3-4.9-0.8
			c-1.5-0.6-2.8-1.3-3.7-2.2l1.2-1.9c0.8,0.8,1.8,1.5,3.2,2c1.3,0.5,2.7,0.8,4.2,0.8c1.9,0,3.5-0.4,4.5-1.3c1.1-0.8,1.6-2,1.6-3.5
			s-0.5-2.6-1.6-3.5c-1.1-0.8-2.7-1.3-4.8-1.3h-1.7v-1.8l6.6-8.3h-12.2v-2.2h15.3v1.7l-6.7,8.5
			C1697.5,1897.1,1699.4,1897.8,1700.7,1899z"/>
		<path d="M1722.4,1886.8v1.7l-10,22.1h-2.7l9.8-21.6h-12.2v4.5h-2.4v-6.6L1722.4,1886.8L1722.4,1886.8z"/>
	</g>
	<g>
		<path d="M1859.7,1899c1.3,1.2,2,2.8,2,4.7c0,1.4-0.3,2.6-1,3.6c-0.7,1.1-1.6,1.9-2.9,2.5s-2.9,0.9-4.7,0.9c-1.7,0-3.3-0.3-4.9-0.8
			s-2.8-1.3-3.7-2.2l1.2-1.9c0.8,0.8,1.8,1.5,3.2,2c1.3,0.5,2.7,0.8,4.2,0.8c1.9,0,3.5-0.4,4.5-1.3c1.1-0.8,1.6-2,1.6-3.5
			s-0.5-2.6-1.6-3.5c-1.1-0.8-2.7-1.3-4.8-1.3h-1.7v-1.8l6.6-8.3h-12.2v-2.2h15.3v1.7l-6.7,8.5
			C1856.5,1897.1,1858.4,1897.8,1859.7,1899z"/>
		<path d="M1878.8,1899c1.3,1.2,2,2.8,2,4.7c0,1.4-0.3,2.6-1,3.6s-1.6,1.9-2.9,2.5s-2.9,0.9-4.7,0.9c-1.7,0-3.3-0.3-4.9-0.8
			c-1.5-0.6-2.8-1.3-3.7-2.2l1.2-1.9c0.8,0.8,1.8,1.5,3.2,2c1.3,0.5,2.7,0.8,4.2,0.8c1.9,0,3.5-0.4,4.5-1.3c1.1-0.8,1.6-2,1.6-3.5
			s-0.5-2.6-1.6-3.5s-2.7-1.3-4.8-1.3h-1.7v-1.8l6.6-8.3h-12.2v-2.2h15.3v1.7l-6.7,8.5C1875.6,1897.1,1877.4,1897.8,1878.8,1899z"/>
		<path d="M1901.2,1900.4c0.8,1,1.2,2.2,1.2,3.6s-0.4,2.6-1.1,3.6s-1.8,1.8-3.2,2.4c-1.4,0.6-3,0.8-4.9,0.8c-2.9,0-5.1-0.6-6.7-1.8
			c-1.6-1.2-2.4-2.9-2.4-5c0-1.4,0.4-2.6,1.2-3.6s1.9-1.7,3.4-2.2c-1.2-0.5-2.2-1.2-2.8-2.1c-0.6-0.9-1-2-1-3.2
			c0-1.9,0.8-3.5,2.3-4.6s3.5-1.7,6.1-1.7c1.7,0,3.1,0.3,4.4,0.8s2.2,1.2,2.9,2.2c0.7,1,1.1,2.1,1.1,3.3c0,1.2-0.3,2.3-1,3.2
			c-0.7,0.9-1.6,1.6-2.8,2.1C1899.3,1898.6,1900.4,1899.4,1901.2,1900.4z M1898.1,1907.4c1.2-0.9,1.8-2,1.8-3.5s-0.6-2.6-1.8-3.5
			c-1.2-0.8-2.8-1.3-4.9-1.3s-3.7,0.4-4.9,1.3c-1.2,0.9-1.8,2-1.8,3.5s0.6,2.7,1.8,3.5c1.2,0.8,2.8,1.3,4.9,1.3
			C1895.3,1908.7,1896.9,1908.3,1898.1,1907.4z M1888.9,1896.1c1,0.8,2.5,1.2,4.3,1.2s3.3-0.4,4.3-1.2c1.1-0.8,1.6-1.8,1.6-3.1
			c0-1.3-0.5-2.4-1.6-3.2c-1.1-0.8-2.5-1.2-4.3-1.2s-3.2,0.4-4.3,1.2c-1.1,0.8-1.6,1.8-1.6,3.1
			C1887.3,1894.3,1887.8,1895.3,1888.9,1896.1z"/>
	</g>
	<g>
		<path d="M689.9,1914.6c1.2-1.3,2.8-2,4.7-2c1.4,0,2.6,0.3,3.6,1c1.1,0.7,1.9,1.6,2.5,2.9s0.9,2.9,0.9,4.7c0,1.7-0.3,3.3-0.8,4.9
			s-1.3,2.8-2.2,3.7l-1.9-1.2c0.8-0.8,1.5-1.8,2-3.2c0.5-1.3,0.8-2.7,0.8-4.2c0-1.9-0.4-3.5-1.3-4.5c-0.8-1.1-2-1.6-3.5-1.6
			s-2.6,0.5-3.5,1.6c-0.8,1.1-1.3,2.7-1.3,4.8v1.7h-1.8l-8.3-6.6v12.2h-2.2v-15.3h1.7l8.5,6.7C688,1917.8,688.7,1915.9,689.9,1914.6
			z"/>
		<path d="M689.9,1895.6c1.2-1.3,2.8-2,4.7-2c1.4,0,2.6,0.3,3.6,1s1.9,1.6,2.5,2.9s0.9,2.9,0.9,4.7c0,1.7-0.3,3.3-0.8,4.9
			c-0.6,1.5-1.3,2.8-2.2,3.7l-1.9-1.2c0.8-0.8,1.5-1.8,2-3.2c0.5-1.3,0.8-2.7,0.8-4.2c0-1.9-0.4-3.5-1.3-4.5c-0.8-1.1-2-1.6-3.5-1.6
			s-2.6,0.5-3.5,1.6c-0.8,1.1-1.3,2.7-1.3,4.8v1.7h-1.8l-8.3-6.6v12.2h-2.2v-15.3h1.7l8.5,6.7C688,1898.8,688.7,1896.9,689.9,1895.6
			z"/>
		<path d="M700.2,1885.6c-1,1.4-2.4,2.6-4.2,3.4s-4,1.2-6.4,1.2c-2.5,0-4.6-0.4-6.4-1.2c-1.8-0.8-3.2-1.9-4.2-3.4s-1.5-3.1-1.5-4.9
			s0.5-3.5,1.5-4.9s2.4-2.6,4.2-3.4s4-1.2,6.4-1.2c2.5,0,4.6,0.4,6.4,1.2c1.8,0.8,3.2,1.9,4.2,3.4c1,1.4,1.5,3.1,1.5,4.9
			S701.2,1884.2,700.2,1885.6z M698.3,1877c-0.8-1.1-1.9-1.9-3.4-2.5s-3.3-0.9-5.3-0.9c-2.1,0-3.9,0.3-5.3,0.9
			c-1.5,0.6-2.6,1.4-3.4,2.5c-0.8,1.1-1.2,2.3-1.2,3.7s0.4,2.6,1.2,3.7s1.9,1.9,3.4,2.5s3.3,0.9,5.3,0.9c2.1,0,3.9-0.3,5.3-0.9
			c1.5-0.6,2.6-1.4,3.4-2.5c0.8-1.1,1.2-2.3,1.2-3.7S699,1878.1,698.3,1877z"/>
	</g>
	<g>
		<path d="M769.7,1914.6c1.2-1.3,2.8-2,4.7-2c1.4,0,2.6,0.3,3.6,1c1.1,0.7,1.9,1.6,2.5,2.9s0.9,2.9,0.9,4.7c0,1.7-0.3,3.3-0.8,4.9
			s-1.3,2.8-2.2,3.7l-1.9-1.2c0.8-0.8,1.5-1.8,2-3.2c0.5-1.3,0.8-2.7,0.8-4.2c0-1.9-0.4-3.5-1.3-4.5c-0.8-1.1-2-1.6-3.5-1.6
			s-2.6,0.5-3.5,1.6c-0.8,1.1-1.3,2.7-1.3,4.8v1.7h-1.8l-8.3-6.6v12.2h-2.2v-15.3h1.7l8.5,6.7
			C767.8,1917.8,768.5,1915.9,769.7,1914.6z"/>
		<path d="M769.7,1895.6c1.2-1.3,2.8-2,4.7-2c1.4,0,2.6,0.3,3.6,1s1.9,1.6,2.5,2.9s0.9,2.9,0.9,4.7c0,1.7-0.3,3.3-0.8,4.9
			c-0.6,1.5-1.3,2.8-2.2,3.7l-1.9-1.2c0.8-0.8,1.5-1.8,2-3.2c0.5-1.3,0.8-2.7,0.8-4.2c0-1.9-0.4-3.5-1.3-4.5c-0.8-1.1-2-1.6-3.5-1.6
			s-2.6,0.5-3.5,1.6c-0.8,1.1-1.3,2.7-1.3,4.8v1.7h-1.8l-8.3-6.6v12.2h-2.2v-15.3h1.7l8.5,6.7
			C767.8,1898.8,768.5,1896.9,769.7,1895.6z"/>
		<path d="M757.4,1883.6h23.8v2.4h-21.6v5.6h-2.2V1883.6z"/>
	</g>
	<g>
		<path d="M1067.6,1914.6c1.2-1.3,2.8-2,4.7-2c1.4,0,2.6,0.3,3.6,1c1.1,0.7,1.9,1.6,2.5,2.9s0.9,2.9,0.9,4.7c0,1.7-0.3,3.3-0.8,4.9
			s-1.3,2.8-2.2,3.7l-1.9-1.2c0.8-0.8,1.5-1.8,2-3.2c0.5-1.3,0.8-2.7,0.8-4.2c0-1.9-0.4-3.5-1.3-4.5c-0.8-1.1-2-1.6-3.5-1.6
			s-2.6,0.5-3.5,1.6c-0.8,1.1-1.3,2.7-1.3,4.8v1.7h-1.8l-8.3-6.6v12.2h-2.2v-15.3h1.7l8.5,6.7
			C1065.7,1917.8,1066.4,1915.9,1067.6,1914.6z"/>
		<path d="M1067.6,1895.6c1.2-1.3,2.8-2,4.7-2c1.4,0,2.6,0.3,3.6,1s1.9,1.6,2.5,2.9s0.9,2.9,0.9,4.7c0,1.7-0.3,3.3-0.8,4.9
			c-0.6,1.5-1.3,2.8-2.2,3.7l-1.9-1.2c0.8-0.8,1.5-1.8,2-3.2c0.5-1.3,0.8-2.7,0.8-4.2c0-1.9-0.4-3.5-1.3-4.5c-0.8-1.1-2-1.6-3.5-1.6
			s-2.6,0.5-3.5,1.6c-0.8,1.1-1.3,2.7-1.3,4.8v1.7h-1.8l-8.3-6.6v12.2h-2.2v-15.3h1.7l8.5,6.7
			C1065.7,1898.8,1066.4,1896.9,1067.6,1895.6z"/>
		<path d="M1067.6,1876.5c1.2-1.3,2.8-2,4.7-2c1.4,0,2.6,0.3,3.6,1s1.9,1.6,2.5,2.9s0.9,2.9,0.9,4.7c0,1.7-0.3,3.3-0.8,4.9
			c-0.6,1.5-1.3,2.8-2.2,3.7l-1.9-1.2c0.8-0.8,1.5-1.8,2-3.2c0.5-1.3,0.8-2.7,0.8-4.2c0-1.9-0.4-3.5-1.3-4.5c-0.8-1.1-2-1.6-3.5-1.6
			s-2.6,0.5-3.5,1.6c-0.8,1.1-1.3,2.7-1.3,4.8v1.7h-1.8l-8.3-6.6v12.2h-2.2v-15.3h1.7l8.5,6.7
			C1065.7,1879.7,1066.4,1877.8,1067.6,1876.5z"/>
	</g>
	<g>
		<path d="M1310.2,1914.6c1.2-1.3,2.8-2,4.7-2c1.4,0,2.6,0.3,3.6,1c1.1,0.7,1.9,1.6,2.5,2.9s0.9,2.9,0.9,4.7c0,1.7-0.3,3.3-0.8,4.9
			s-1.3,2.8-2.2,3.7l-1.9-1.2c0.8-0.8,1.5-1.8,2-3.2c0.5-1.3,0.8-2.7,0.8-4.2c0-1.9-0.4-3.5-1.3-4.5c-0.8-1.1-2-1.6-3.5-1.6
			s-2.6,0.5-3.5,1.6c-0.8,1.1-1.3,2.7-1.3,4.8v1.7h-1.8l-8.3-6.6v12.2h-2.2v-15.3h1.7l8.5,6.7
			C1308.3,1917.8,1309,1915.9,1310.2,1914.6z"/>
		<path d="M1310.2,1895.6c1.2-1.3,2.8-2,4.7-2c1.4,0,2.6,0.3,3.6,1s1.9,1.6,2.5,2.9s0.9,2.9,0.9,4.7c0,1.7-0.3,3.3-0.8,4.9
			c-0.6,1.5-1.3,2.8-2.2,3.7l-1.9-1.2c0.8-0.8,1.5-1.8,2-3.2c0.5-1.3,0.8-2.7,0.8-4.2c0-1.9-0.4-3.5-1.3-4.5c-0.8-1.1-2-1.6-3.5-1.6
			s-2.6,0.5-3.5,1.6c-0.8,1.1-1.3,2.7-1.3,4.8v1.7h-1.8l-8.3-6.6v12.2h-2.2v-15.3h1.7l8.5,6.7
			C1308.3,1898.8,1309,1896.9,1310.2,1895.6z"/>
		<path d="M1315.5,1869.9v4.8h6.3v2.4h-6.3v13.4h-1.8L1298,1878v-2.7l15.4,12.2v-10.3h-5.5v-2.4h5.5v-4.8L1315.5,1869.9
			L1315.5,1869.9z"/>
		<path d="M1315.4,1850.2v13.3l6.4,2.9v2.6l-23.8-10.9v-2.5l23.8-10.9v2.7L1315.4,1850.2z M1313.4,1851.1l-12.8,5.7l12.8,5.7V1851.1
			z"/>
	</g>
	<g>
		<path d="M1375.7,1914.6c1.2-1.3,2.8-2,4.7-2c1.4,0,2.6,0.3,3.6,1c1.1,0.7,1.9,1.6,2.5,2.9s0.9,2.9,0.9,4.7c0,1.7-0.3,3.3-0.8,4.9
			s-1.3,2.8-2.2,3.7l-1.9-1.2c0.8-0.8,1.5-1.8,2-3.2c0.5-1.3,0.8-2.7,0.8-4.2c0-1.9-0.4-3.5-1.3-4.5c-0.8-1.1-2-1.6-3.5-1.6
			s-2.6,0.5-3.5,1.6c-0.8,1.1-1.3,2.7-1.3,4.8v1.7h-1.8l-8.3-6.6v12.2h-2.2v-15.3h1.7l8.5,6.7
			C1373.8,1917.8,1374.5,1915.9,1375.7,1914.6z"/>
		<path d="M1375.7,1895.6c1.2-1.3,2.8-2,4.7-2c1.4,0,2.6,0.3,3.6,1s1.9,1.6,2.5,2.9s0.9,2.9,0.9,4.7c0,1.7-0.3,3.3-0.8,4.9
			c-0.6,1.5-1.3,2.8-2.2,3.7l-1.9-1.2c0.8-0.8,1.5-1.8,2-3.2c0.5-1.3,0.8-2.7,0.8-4.2c0-1.9-0.4-3.5-1.3-4.5c-0.8-1.1-2-1.6-3.5-1.6
			s-2.6,0.5-3.5,1.6c-0.8,1.1-1.3,2.7-1.3,4.8v1.7h-1.8l-8.3-6.6v12.2h-2.2v-15.3h1.7l8.5,6.7
			C1373.8,1898.8,1374.5,1896.9,1375.7,1895.6z"/>
		<path d="M1375.1,1876.7c1.2-1.6,3-2.4,5.2-2.4c1.4,0,2.6,0.3,3.7,1c1.1,0.6,1.9,1.6,2.6,2.9c0.6,1.3,0.9,2.9,0.9,4.8
			c0,1.7-0.3,3.3-0.8,4.8s-1.3,2.8-2.2,3.7l-1.9-1.2c0.8-0.8,1.5-1.8,2-3.1c0.5-1.3,0.8-2.7,0.8-4.2c0-2-0.4-3.5-1.3-4.6
			s-2.1-1.6-3.5-1.6c-1.6,0-2.9,0.6-3.7,1.8c-0.8,1.2-1.3,3.3-1.3,6.1v5.1l-11.9-1.2v-13h2.2v10.9l7.6,0.8v-3.1
			C1373.2,1880.8,1373.9,1878.3,1375.1,1876.7z"/>
	</g>
	<g>
		<path d="M529.7,491.7c1.7,1.5,2.6,3.4,2.6,6c0,2.5-0.9,4.5-2.6,6c-1.7,1.4-4.1,2.2-7.1,2.2h-6.4v7.5h-2.5v-23.8h8.9
			C525.6,489.5,528,490.2,529.7,491.7z M527.9,502c1.2-1,1.9-2.5,1.9-4.4s-0.6-3.4-1.9-4.4c-1.2-1-3-1.5-5.4-1.5h-6.3v11.9h6.3
			C524.9,503.6,526.7,503.1,527.9,502z"/>
		<path d="M552.5,505.1h-15c0.1,1.9,0.9,3.4,2.1,4.5c1.3,1.1,2.9,1.7,4.9,1.7c1.1,0,2.1-0.2,3.1-0.6c0.9-0.4,1.7-1,2.4-1.8l1.4,1.6
			c-0.8,1-1.8,1.7-3,2.2s-2.5,0.7-3.9,0.7c-1.8,0-3.5-0.4-4.9-1.2s-2.5-1.9-3.3-3.2c-0.8-1.4-1.2-2.9-1.2-4.7c0-1.7,0.4-3.3,1.1-4.7
			c0.8-1.4,1.8-2.5,3.1-3.2c1.3-0.8,2.8-1.2,4.5-1.2s3.1,0.4,4.5,1.2c1.3,0.8,2.3,1.8,3.1,3.2c0.7,1.4,1.1,2.9,1.1,4.7L552.5,505.1z
			 M539.5,499c-1.2,1.1-1.8,2.5-2,4.3h12.7c-0.2-1.8-0.8-3.2-2-4.3c-1.2-1.1-2.6-1.6-4.4-1.6C542.1,497.4,540.7,497.9,539.5,499z"/>
		<path d="M564.3,505.3h-4.1v8h-2.4v-17.9h2.4v7.9h4.1l6.3-7.9h2.6l-7,8.7l7.5,9.2h-2.9L564.3,505.3z"/>
		<path d="M589.8,497.6H583v15.7h-2.4v-15.7h-6.8v-2.1h15.9L589.8,497.6L589.8,497.6z"/>
		<path d="M595.2,512.3c-1.4-0.8-2.5-1.9-3.3-3.2c-0.8-1.4-1.2-2.9-1.2-4.7c0-1.7,0.4-3.3,1.2-4.7c0.8-1.4,1.9-2.5,3.3-3.2
			c1.4-0.8,2.9-1.2,4.7-1.2c1.7,0,3.3,0.4,4.7,1.2c1.4,0.8,2.5,1.8,3.2,3.2c0.8,1.4,1.2,2.9,1.2,4.7c0,1.7-0.4,3.3-1.2,4.7
			c-0.8,1.4-1.9,2.5-3.2,3.2c-1.4,0.8-2.9,1.2-4.7,1.2C598.1,513.5,596.6,513.1,595.2,512.3z M603.3,510.5c1-0.6,1.8-1.4,2.4-2.5
			s0.9-2.3,0.9-3.6c0-1.4-0.3-2.6-0.9-3.6s-1.4-1.9-2.4-2.5s-2.1-0.9-3.4-0.9c-1.3,0-2.4,0.3-3.4,0.9s-1.8,1.4-2.4,2.5
			c-0.6,1.1-0.9,2.3-0.9,3.6c0,1.4,0.3,2.6,0.9,3.6c0.6,1.1,1.4,1.9,2.4,2.5s2.1,0.9,3.4,0.9C601.1,511.3,602.3,511,603.3,510.5z"/>
		<path d="M627.9,496.4c1.4,0.8,2.4,1.8,3.2,3.2s1.2,3,1.2,4.7c0,1.8-0.4,3.4-1.2,4.8s-1.8,2.5-3.2,3.2c-1.3,0.8-2.9,1.1-4.6,1.1
			c-1.5,0-2.8-0.3-3.9-0.9c-1.2-0.6-2.1-1.5-2.9-2.6v10h-2.4v-24.5h2.3v3.5c0.7-1.2,1.7-2.1,2.9-2.7s2.5-1,4-1
			C625,495.3,626.5,495.7,627.9,496.4z M626.5,510.5c1-0.6,1.8-1.4,2.4-2.5s0.9-2.3,0.9-3.6c0-1.4-0.3-2.6-0.9-3.6
			c-0.6-1.1-1.4-1.9-2.4-2.5s-2.2-0.9-3.4-0.9c-1.3,0-2.4,0.3-3.4,0.9s-1.8,1.4-2.4,2.5c-0.6,1.1-0.9,2.3-0.9,3.6
			c0,1.4,0.3,2.6,0.9,3.6c0.6,1.1,1.4,1.9,2.4,2.5s2.1,0.9,3.4,0.9C624.4,511.3,625.5,511,626.5,510.5z"/>
	</g>
	<g>
		<path d="M513.5,272H510v7.1h-1.6v-15.4h1.6v6.9h3.5l5.2-6.9h1.8l-5.7,7.5l6,7.9h-1.9L513.5,272z"/>
		<path d="M523.2,264.6c-0.2-0.2-0.3-0.5-0.3-0.8s0.1-0.6,0.3-0.8c0.2-0.2,0.5-0.3,0.8-0.3s0.6,0.1,0.8,0.3c0.2,0.2,0.3,0.5,0.3,0.8
			s-0.1,0.6-0.3,0.8c-0.2,0.2-0.5,0.3-0.8,0.3S523.4,264.8,523.2,264.6z M523.2,267.5h1.6V279h-1.6V267.5z"/>
		<path d="M542.1,267.5V279h-1.4v-9.2l-4.7,7.7h-0.7l-4.7-7.8v9.2h-1.4v-11.6h1.6l4.9,8.3l5-8.3h1.4V267.5z"/>
		<path d="M546.6,267.5h1.6v5.1h7.3v-5.1h1.6V279h-1.6v-5.1h-7.3v5.1h-1.6V267.5z"/>
		<path d="M560.7,278.8c-0.2-0.2-0.3-0.5-0.3-0.9c0-0.3,0.1-0.6,0.3-0.8c0.2-0.2,0.5-0.3,0.8-0.3s0.6,0.1,0.8,0.3
			c0.2,0.2,0.4,0.5,0.4,0.8s-0.1,0.6-0.4,0.9c-0.2,0.2-0.5,0.4-0.8,0.4C561.2,279.2,561,279,560.7,278.8z"/>
		<path d="M519.9,298.8c0.6,0.6,0.8,1.5,0.8,2.5c0,1.3-0.5,2.4-1.4,3.1s-2.3,1.1-4.2,1.1h-6.8V290h6.4c1.6,0,2.9,0.3,3.9,1
			c0.9,0.7,1.4,1.6,1.4,2.9c0,0.9-0.2,1.6-0.7,2.2c-0.4,0.6-1.1,1-1.8,1.3C518.6,297.7,519.4,298.2,519.9,298.8z M510,297h4.7
			c1.2,0,2.1-0.2,2.7-0.7c0.6-0.5,1-1.2,1-2.1s-0.3-1.6-1-2.1c-0.6-0.5-1.6-0.7-2.7-0.7H510V297z M519.2,301.2c0-1.9-1.3-2.9-4-2.9
			H510v5.9h5.2C517.8,304.1,519.2,303.2,519.2,301.2z"/>
		<path d="M524.4,291c-0.2-0.2-0.3-0.5-0.3-0.8s0.1-0.6,0.3-0.8c0.2-0.2,0.5-0.3,0.8-0.3s0.6,0.1,0.8,0.3c0.2,0.2,0.3,0.5,0.3,0.8
			s-0.1,0.6-0.3,0.8c-0.2,0.2-0.5,0.3-0.8,0.3S524.7,291.2,524.4,291z M524.5,293.9h1.6v11.6h-1.6V293.9z"/>
		<path d="M541.7,304.1v4.2h-1.5v-2.8h-10.4v2.8h-1.5v-4.2h0.7c0.8,0,1.3-0.6,1.6-1.7s0.5-2.6,0.6-4.6l0.2-3.9h8.5v10.2H541.7z
			 M532.3,301.9c-0.2,1.1-0.6,1.8-1.1,2.2h7.2v-8.8h-5.6l-0.1,2.6C532.6,299.5,532.5,300.8,532.3,301.9z"/>
		<path d="M555.2,293.9v11.6h-1.6v-10.2h-7.3v10.2h-1.6v-11.6H555.2z"/>
		<path d="M561.4,304.8c-0.9-0.5-1.6-1.2-2.1-2.1s-0.8-1.9-0.8-3s0.3-2.1,0.8-3s1.2-1.6,2.1-2.1c0.9-0.5,1.9-0.7,3-0.7
			s2.1,0.2,3,0.7s1.6,1.2,2.1,2.1s0.8,1.9,0.8,3s-0.3,2.1-0.8,3s-1.2,1.6-2.1,2.1c-0.9,0.5-1.9,0.8-3,0.8
			C563.3,305.6,562.3,305.3,561.4,304.8z M566.6,303.6c0.7-0.4,1.2-0.9,1.5-1.6s0.6-1.5,0.6-2.4s-0.2-1.7-0.6-2.4s-0.9-1.2-1.5-1.6
			c-0.7-0.4-1.4-0.6-2.2-0.6s-1.6,0.2-2.2,0.6c-0.7,0.4-1.2,0.9-1.5,1.6s-0.6,1.5-0.6,2.4s0.2,1.7,0.6,2.4s0.9,1.2,1.5,1.6
			c0.7,0.4,1.4,0.6,2.2,0.6C565.2,304.2,565.9,304,566.6,303.6z"/>
		<path d="M582.3,293.9v11.6h-1.6v-4.8c-1.3,0.6-2.6,0.9-3.9,0.9c-1.4,0-2.5-0.3-3.3-1c-0.8-0.6-1.2-1.6-1.2-2.9v-3.8h1.6v3.7
			c0,0.9,0.3,1.5,0.8,2c0.6,0.4,1.3,0.7,2.3,0.7c1.1,0,2.3-0.3,3.7-0.9v-5.5L582.3,293.9L582.3,293.9z"/>
		<path d="M586.8,293.9h1.6v9.2l7.7-9.2h1.4v11.6h-1.6v-9.2l-7.7,9.2h-1.4V293.9z"/>
		<path d="M601.9,293.9h1.6v5.1h7.3v-5.1h1.6v11.6h-1.6v-5.1h-7.3v5.1h-1.6V293.9z"/>
		<path d="M621,300.3h-2.6v5.1h-1.6v-11.6h1.6v5.1h2.7l4.1-5.1h1.7l-4.6,5.6l4.9,6h-1.8L621,300.3z"/>
		<path d="M638.7,293.9l-5.8,13c-0.5,1.1-1,1.9-1.6,2.3c-0.6,0.5-1.4,0.7-2.2,0.7c-0.6,0-1.1-0.1-1.6-0.3s-0.9-0.4-1.3-0.8l0.7-1.2
			c0.6,0.6,1.3,0.9,2.1,0.9c0.5,0,1-0.1,1.4-0.4s0.7-0.8,1-1.5l0.5-1.1l-5.2-11.5h1.6l4.4,9.8l4.4-9.8h1.6V293.9z"/>
	</g>
	<g>
		<path d="M2058.8,1697.5c1.2-1.3,2.8-2,4.7-2c1.4,0,2.6,0.3,3.6,1s1.9,1.6,2.5,2.9s0.9,2.9,0.9,4.7c0,1.7-0.3,3.3-0.8,4.9
			c-0.6,1.5-1.3,2.8-2.2,3.7l-1.9-1.2c0.8-0.8,1.5-1.8,2-3.2c0.5-1.3,0.8-2.7,0.8-4.2c0-1.9-0.4-3.5-1.3-4.5c-0.8-1.1-2-1.6-3.5-1.6
			s-2.6,0.5-3.5,1.6c-0.8,1.1-1.3,2.7-1.3,4.8v1.7h-1.8l-8.3-6.6v12.2h-2.2v-15.3h1.7l8.5,6.7
			C2056.9,1700.7,2057.6,1698.8,2058.8,1697.5z"/>
		<path d="M2069.1,1687.5c-1,1.4-2.4,2.6-4.2,3.4s-4,1.2-6.4,1.2c-2.5,0-4.6-0.4-6.4-1.2c-1.8-0.8-3.2-1.9-4.2-3.4s-1.5-3.1-1.5-4.9
			s0.5-3.5,1.5-4.9s2.4-2.6,4.2-3.4s4-1.2,6.4-1.2c2.5,0,4.6,0.4,6.4,1.2c1.8,0.8,3.2,1.9,4.2,3.4c1,1.4,1.5,3.1,1.5,4.9
			S2070.1,1686.1,2069.1,1687.5z M2067.2,1678.9c-0.8-1.1-1.9-1.9-3.4-2.5s-3.3-0.9-5.3-0.9c-2.1,0-3.9,0.3-5.3,0.9
			c-1.5,0.6-2.6,1.4-3.4,2.5c-0.8,1.1-1.2,2.3-1.2,3.7s0.4,2.6,1.2,3.7s1.9,1.9,3.4,2.5s3.3,0.9,5.3,0.9c2.1,0,3.9-0.3,5.3-0.9
			c1.5-0.6,2.6-1.4,3.4-2.5c0.8-1.1,1.2-2.3,1.2-3.7S2067.9,1680,2067.2,1678.9z"/>
		<path d="M2046.6,1663.1h23.8v2.4h-21.6v5.6h-2.2L2046.6,1663.1L2046.6,1663.1z"/>
		<path d="M2064,1640.3v13.3l6.4,2.9v2.6l-23.8-10.9v-2.5l23.8-10.9v2.7L2064,1640.3z M2062,1641.3l-12.8,5.7l12.8,5.7V1641.3z"/>
	</g>
</g>
<g id="doors_2_">
	<g>
		<path class="st2" d="M418,1269.3c6.3,9.5,14.9,29.9,14.9,29.9s-5.9,4.9-14.9,4.5"/>
		<path class="st3" d="M431.4,1300.8l-15.7-31.7c-0.4-0.8-0.1-1.8,0.7-2.2l0,0c0.8-0.4,1.8-0.1,2.2,0.7l15.7,31.7
			c0.4,0.8,0.1,1.8-0.7,2.2l0,0C432.8,1301.9,431.8,1301.6,431.4,1300.8z"/>
	</g>
	<g>
		<path class="st2" d="M418,1581.1c6.3,9.5,14.9,29.9,14.9,29.9s-5.9,4.9-14.9,4.5"/>
		<path class="st3" d="M431.4,1612.6l-15.7-31.7c-0.4-0.8-0.1-1.8,0.7-2.2l0,0c0.8-0.4,1.8-0.1,2.2,0.7l15.7,31.7
			c0.4,0.8,0.1,1.8-0.7,2.2l0,0C432.8,1613.7,431.8,1613.4,431.4,1612.6z"/>
	</g>
	<g>
		<path class="st2" d="M418,1664.6c6.3,9.5,14.9,29.9,14.9,29.9s-5.9,4.9-14.9,4.5"/>
		<path class="st3" d="M431.4,1696.1l-15.7-31.7c-0.4-0.8-0.1-1.8,0.7-2.2l0,0c0.8-0.4,1.8-0.1,2.2,0.7l15.7,31.7
			c0.4,0.8,0.1,1.8-0.7,2.2l0,0C432.8,1697.2,431.8,1696.9,431.4,1696.1z"/>
	</g>
	<g>
		<path class="st2" d="M430.8,1811.1c9.5-6.3,29.9-14.9,29.9-14.9s4.9,5.9,4.5,14.9"/>
		<path class="st3" d="M462.3,1797.6l-31.7,15.7c-0.8,0.4-1.8,0.1-2.2-0.7l0,0c-0.4-0.8-0.1-1.8,0.7-2.2l31.7-15.7
			c0.8-0.4,1.8-0.1,2.2,0.7l0,0C463.4,1796.3,463.1,1797.2,462.3,1797.6z"/>
	</g>
	<g>
		<path class="st2" d="M602.7,1811.1c9.5-6.3,29.9-14.9,29.9-14.9s4.9,5.9,4.5,14.9"/>
		<path class="st3" d="M634.2,1797.6l-31.7,15.7c-0.8,0.4-1.8,0.1-2.2-0.7l0,0c-0.4-0.8-0.1-1.8,0.7-2.2l31.7-15.7
			c0.8-0.4,1.8-0.1,2.2,0.7l0,0C635.3,1796.3,635,1797.2,634.2,1797.6z"/>
	</g>
	<g>
		<path class="st2" d="M743.8,1811.1c9.5-6.3,29.9-14.9,29.9-14.9s4.9,5.9,4.5,14.9"/>
		<path class="st3" d="M775.3,1797.6l-31.7,15.7c-0.8,0.4-1.8,0.1-2.2-0.7l0,0c-0.4-0.8-0.1-1.8,0.7-2.2l31.7-15.7
			c0.8-0.4,1.8-0.1,2.2,0.7l0,0C776.4,1796.3,776.1,1797.2,775.3,1797.6z"/>
	</g>
	<g>
		<path class="st2" d="M668.9,1811.1c9.5-6.3,29.9-14.9,29.9-14.9s4.9,5.9,4.5,14.9"/>
		<path class="st3" d="M700.4,1797.6l-31.7,15.7c-0.8,0.4-1.8,0.1-2.2-0.7l0,0c-0.4-0.8-0.1-1.8,0.7-2.2l31.7-15.7
			c0.8-0.4,1.8-0.1,2.2,0.7l0,0C701.5,1796.3,701.2,1797.2,700.4,1797.6z"/>
	</g>
	<g>
		<path class="st2" d="M946.3,1811.1c9.5-6.3,29.9-14.9,29.9-14.9s4.9,5.9,4.5,14.9"/>
		<path class="st3" d="M977.8,1797.6l-31.7,15.7c-0.8,0.4-1.8,0.1-2.2-0.7l0,0c-0.4-0.8-0.1-1.8,0.7-2.2l31.7-15.7
			c0.8-0.4,1.8-0.1,2.2,0.7l0,0C978.9,1796.3,978.6,1797.2,977.8,1797.6z"/>
	</g>
	<g>
		<path class="st2" d="M1044.4,1811.1c9.5-6.3,29.9-14.9,29.9-14.9s4.9,5.9,4.5,14.9"/>
		<path class="st3" d="M1075.8,1797.6l-31.7,15.7c-0.8,0.4-1.8,0.1-2.2-0.7l0,0c-0.4-0.8-0.1-1.8,0.7-2.2l31.7-15.7
			c0.8-0.4,1.8-0.1,2.2,0.7l0,0C1077,1796.3,1076.6,1797.2,1075.8,1797.6z"/>
	</g>
	<g>
		<path class="st2" d="M1127.9,1811.1c9.5-6.3,29.9-14.9,29.9-14.9s4.9,5.9,4.5,14.9"/>
		<path class="st3" d="M1159.3,1797.6l-31.7,15.7c-0.8,0.4-1.8,0.1-2.2-0.7l0,0c-0.4-0.8-0.1-1.8,0.7-2.2l31.7-15.7
			c0.8-0.4,1.8-0.1,2.2,0.7l0,0C1160.5,1796.3,1160.1,1797.2,1159.3,1797.6z"/>
	</g>
	<g>
		<path class="st2" d="M1287.4,1811.1c9.5-6.3,29.9-14.9,29.9-14.9s4.9,5.9,4.5,14.9"/>
		<path class="st3" d="M1318.8,1797.6l-31.7,15.7c-0.8,0.4-1.8,0.1-2.2-0.7l0,0c-0.4-0.8-0.1-1.8,0.7-2.2l31.7-15.7
			c0.8-0.4,1.8-0.1,2.2,0.7l0,0C1320,1796.3,1319.6,1797.2,1318.8,1797.6z"/>
	</g>
	<g>
		<path class="st2" d="M1352.9,1811.1c9.5-6.3,29.9-14.9,29.9-14.9s4.9,5.9,4.5,14.9"/>
		<path class="st3" d="M1384.4,1797.6l-31.7,15.7c-0.8,0.4-1.8,0.1-2.2-0.7l0,0c-0.4-0.8-0.1-1.8,0.7-2.2l31.7-15.7
			c0.8-0.4,1.8-0.1,2.2,0.7l0,0C1385.5,1796.3,1385.2,1797.2,1384.4,1797.6z"/>
	</g>
	<g>
		<path class="st2" d="M1434.7,1811.1c9.5-6.3,29.9-14.9,29.9-14.9s4.9,5.9,4.5,14.9"/>
		<path class="st3" d="M1466.2,1797.6l-31.7,15.7c-0.8,0.4-1.8,0.1-2.2-0.7l0,0c-0.4-0.8-0.1-1.8,0.7-2.2l31.7-15.7
			c0.8-0.4,1.8-0.1,2.2,0.7l0,0C1467.3,1796.3,1467,1797.2,1466.2,1797.6z"/>
	</g>
	<g>
		<path class="st2" d="M1419.2,1859.7c6.3-9.5,14.9-29.9,14.9-29.9s-5.9-4.9-14.9-4.5"/>
		<path class="st3" d="M1432.6,1828.2l-15.7,31.7c-0.4,0.8-0.1,1.8,0.7,2.2l0,0c0.8,0.4,1.8,0.1,2.2-0.7l15.7-31.7
			c0.4-0.8,0.1-1.8-0.7-2.2l0,0C1434,1827.1,1433,1827.4,1432.6,1828.2z"/>
	</g>
	<g>
		<path class="st2" d="M1625.4,1811.1c9.5-6.3,29.9-14.9,29.9-14.9s4.9,5.9,4.5,14.9"/>
		<path class="st3" d="M1656.9,1797.6l-31.7,15.7c-0.8,0.4-1.8,0.1-2.2-0.7l0,0c-0.4-0.8-0.1-1.8,0.7-2.2l31.7-15.7
			c0.8-0.4,1.8-0.1,2.2,0.7l0,0C1658,1796.3,1657.7,1797.2,1656.9,1797.6z"/>
	</g>
	<g>
		<path class="st2" d="M1973.5,1844.6c9.5,6.3,29.9,14.9,29.9,14.9s4.9-5.9,4.5-14.9"/>
		<path class="st3" d="M2005,1858.1l-31.7-15.7c-0.8-0.4-1.8-0.1-2.2,0.7l0,0c-0.4,0.8-0.1,1.8,0.7,2.2l31.7,15.7
			c0.8,0.4,1.8,0.1,2.2-0.7l0,0C2006.1,1859.4,2005.8,1858.5,2005,1858.1z"/>
	</g>
	<g>
		<path class="st2" d="M1856.5,1811c9.5-6.3,29.9-14.9,29.9-14.9s4.9,5.9,4.5,14.9"/>
		<path class="st3" d="M1887.9,1797.6l-31.7,15.7c-0.8,0.4-1.8,0.1-2.2-0.7l0,0c-0.4-0.8-0.1-1.8,0.7-2.2l31.7-15.7
			c0.8-0.4,1.8-0.1,2.2,0.7l0,0C1889.1,1796.2,1888.7,1797.2,1887.9,1797.6z"/>
	</g>
	<g>
		<path class="st2" d="M1957.6,1742.7c9.5,6.3,29.9,14.9,29.9,14.9s4.9-5.9,4.5-14.9"/>
		<path class="st3" d="M1989.1,1756.1l-31.7-15.7c-0.8-0.4-1.8-0.1-2.2,0.7l0,0c-0.4,0.8-0.1,1.8,0.7,2.2l31.7,15.7
			c0.8,0.4,1.8,0.1,2.2-0.7l0,0C1990.2,1757.5,1989.9,1756.5,1989.1,1756.1z"/>
	</g>
	<g>
		<path class="st2" d="M1626.1,1727.8c-9.5,6.3-29.9,14.9-29.9,14.9s-4.9-5.9-4.5-14.9"/>
		<path class="st3" d="M1594.6,1741.3l31.7-15.7c0.8-0.4,1.8-0.1,2.2,0.7l0,0c0.4,0.8,0.1,1.8-0.7,2.2l-31.7,15.7
			c-0.8,0.4-1.8,0.1-2.2-0.7l0,0C1593.5,1742.6,1593.8,1741.6,1594.6,1741.3z"/>
	</g>
	<g>
		<path class="st2" d="M1700.5,1727.8c-9.5,6.3-29.9,14.9-29.9,14.9s-4.9-5.9-4.5-14.9"/>
		<path class="st3" d="M1669,1741.2l31.7-15.7c0.8-0.4,1.8-0.1,2.2,0.7l0,0c0.4,0.8,0.1,1.8-0.7,2.2l-31.7,15.7
			c-0.8,0.4-1.8,0.1-2.2-0.7l0,0C1667.9,1742.6,1668.2,1741.6,1669,1741.2z"/>
	</g>
	<g>
		<path class="st2" d="M1390.7,1728.1c-9.5,6.3-29.9,14.9-29.9,14.9s-4.9-5.9-4.5-14.9"/>
		<path class="st3" d="M1359.2,1741.5l31.7-15.7c0.8-0.4,1.8-0.1,2.2,0.7l0,0c0.4,0.8,0.1,1.8-0.7,2.2l-31.7,15.7
			c-0.8,0.4-1.8,0.1-2.2-0.7l0,0C1358.1,1742.9,1358.4,1741.9,1359.2,1741.5z"/>
	</g>
	<g>
		<path class="st2" d="M1465.6,1728.1c-9.5,6.3-29.9,14.9-29.9,14.9s-4.9-5.9-4.5-14.9"/>
		<path class="st3" d="M1434.1,1741.5l31.7-15.7c0.8-0.4,1.8-0.1,2.2,0.7l0,0c0.4,0.8,0.1,1.8-0.7,2.2l-31.7,15.7
			c-0.8,0.4-1.8,0.1-2.2-0.7l0,0C1432.9,1742.9,1433.3,1741.9,1434.1,1741.5z"/>
	</g>
	<g>
		<path class="st2" d="M1478.3,1707.3c-6.3-9.5-14.9-29.9-14.9-29.9s5.9-4.9,14.9-4.5"/>
		<path class="st3" d="M1464.9,1675.9l15.7,31.7c0.4,0.8,0.1,1.8-0.7,2.2l0,0c-0.8,0.4-1.8,0.1-2.2-0.7l-15.7-31.7
			c-0.4-0.8-0.1-1.8,0.7-2.2l0,0C1463.5,1674.7,1464.5,1675.1,1464.9,1675.9z"/>
	</g>
	<g>
		<path class="st2" d="M1327,1728.1c-9.5,6.3-29.9,14.9-29.9,14.9s-4.9-5.9-4.5-14.9"/>
		<path class="st3" d="M1295.5,1741.5l31.7-15.7c0.8-0.4,1.8-0.1,2.2,0.7l0,0c0.4,0.8,0.1,1.8-0.7,2.2l-31.7,15.7
			c-0.8,0.4-1.8,0.1-2.2-0.7l0,0C1294.3,1742.9,1294.7,1741.9,1295.5,1741.5z"/>
	</g>
	<g>
		<path class="st2" d="M1193.6,1728.1c-9.5,6.3-29.9,14.9-29.9,14.9s-4.9-5.9-4.5-14.9"/>
		<path class="st3" d="M1162.2,1741.5l31.7-15.7c0.8-0.4,1.8-0.1,2.2,0.7l0,0c0.4,0.8,0.1,1.8-0.7,2.2l-31.7,15.7
			c-0.8,0.4-1.8,0.1-2.2-0.7l0,0C1161,1742.9,1161.4,1741.9,1162.2,1741.5z"/>
	</g>
	<g>
		<path class="st2" d="M955.8,1667.6c-6.3-9.5-14.9-29.9-14.9-29.9s5.9-4.9,14.9-4.5"/>
		<path class="st3" d="M942.4,1636.1l15.7,31.7c0.4,0.8,0.1,1.8-0.7,2.2l0,0c-0.8,0.4-1.8,0.1-2.2-0.7l-15.7-31.7
			c-0.4-0.8-0.1-1.8,0.7-2.2l0,0C941,1634.9,942,1635.3,942.4,1636.1z"/>
	</g>
	<g>
		<path class="st2" d="M932.8,1728.1c-9.5,6.3-29.9,14.9-29.9,14.9s-4.9-5.9-4.5-14.9"/>
		<path class="st3" d="M901.3,1741.5l31.7-15.7c0.8-0.4,1.8-0.1,2.2,0.7l0,0c0.4,0.8,0.1,1.8-0.7,2.2l-31.7,15.7
			c-0.8,0.4-1.8,0.1-2.2-0.7l0,0C900.2,1742.9,900.5,1741.9,901.3,1741.5z"/>
	</g>
	<g>
		<path class="st2" d="M707.3,1728.1c-9.5,6.3-29.9,14.9-29.9,14.9s-4.9-5.9-4.5-14.9"/>
		<path class="st3" d="M675.8,1741.5l31.7-15.7c0.8-0.4,1.8-0.1,2.2,0.7l0,0c0.4,0.8,0.1,1.8-0.7,2.2l-31.7,15.7
			c-0.8,0.4-1.8,0.1-2.2-0.7l0,0C674.7,1742.9,675,1741.9,675.8,1741.5z"/>
	</g>
	<g>
		<path class="st2" d="M736.7,1706.1c-6.3-9.5-14.9-29.9-14.9-29.9s5.9-4.9,14.9-4.5"/>
		<path class="st3" d="M723.3,1674.6l15.7,31.7c0.4,0.8,0.1,1.8-0.7,2.2l0,0c-0.8,0.4-1.8,0.1-2.2-0.7l-15.7-31.7
			c-0.4-0.8-0.1-1.8,0.7-2.2l0,0C721.9,1673.4,722.9,1673.8,723.3,1674.6z"/>
	</g>
	<g>
		<path class="st2" d="M618.6,1728.1c-9.5,6.3-29.9,14.9-29.9,14.9s-4.9-5.9-4.5-14.9"/>
		<path class="st3" d="M587.2,1741.5l31.7-15.7c0.8-0.4,1.8-0.1,2.2,0.7l0,0c0.4,0.8,0.1,1.8-0.7,2.2l-31.7,15.7
			c-0.8,0.4-1.8,0.1-2.2-0.7l0,0C586,1742.9,586.4,1741.9,587.2,1741.5z"/>
	</g>
	<g>
		<path class="st2" d="M418.1,1194.9c6.3,9.5,14.9,29.9,14.9,29.9s-5.9,4.9-14.9,4.5"/>
		<path class="st3" d="M431.5,1226.4l-15.7-31.7c-0.4-0.8-0.1-1.8,0.7-2.2l0,0c0.8-0.4,1.8-0.1,2.2,0.7l15.7,31.7
			c0.4,0.8,0.1,1.8-0.7,2.2l0,0C432.9,1227.6,431.9,1227.2,431.5,1226.4z"/>
	</g>
	<g>
		<path class="st2" d="M418.1,1035.7c6.3,9.5,14.9,29.9,14.9,29.9s-5.9,4.9-14.9,4.5"/>
		<path class="st3" d="M431.5,1067.2l-15.7-31.7c-0.4-0.8-0.1-1.8,0.7-2.2l0,0c0.8-0.4,1.8-0.1,2.2,0.7l15.7,31.7
			c0.4,0.8,0.1,1.8-0.7,2.2l0,0C432.9,1068.3,431.9,1068,431.5,1067.2z"/>
	</g>
	<g>
		<path class="st2" d="M418.1,938.7c6.3,9.5,14.9,29.9,14.9,29.9s-5.9,4.9-14.9,4.5"/>
		<path class="st3" d="M431.5,970.2l-15.7-31.7c-0.4-0.8-0.1-1.8,0.7-2.2l0,0c0.8-0.4,1.8-0.1,2.2,0.7l15.7,31.7
			c0.4,0.8,0.1,1.8-0.7,2.2l0,0C432.9,971.3,431.9,971,431.5,970.2z"/>
	</g>
	<g>
		<path class="st2" d="M418.1,776.6c6.3,9.5,14.9,29.9,14.9,29.9s-5.9,4.9-14.9,4.5"/>
		<path class="st3" d="M431.5,808.1l-15.7-31.7c-0.4-0.8-0.1-1.8,0.7-2.2l0,0c0.8-0.4,1.8-0.1,2.2,0.7l15.7,31.7
			c0.4,0.8,0.1,1.8-0.7,2.2l0,0C432.9,809.2,431.9,808.9,431.5,808.1z"/>
	</g>
	<g>
		<path class="st2" d="M418.1,701.9c6.3,9.5,14.9,29.9,14.9,29.9s-5.9,4.9-14.9,4.5"/>
		<path class="st3" d="M431.5,733.4l-15.7-31.7c-0.4-0.8-0.1-1.8,0.7-2.2l0,0c0.8-0.4,1.8-0.1,2.2,0.7l15.7,31.7
			c0.4,0.8,0.1,1.8-0.7,2.2l0,0C432.9,734.5,431.9,734.2,431.5,733.4z"/>
	</g>
	<g>
		<path class="st2" d="M418.1,533.8c6.3,9.5,14.9,29.9,14.9,29.9s-5.9,4.9-14.9,4.5"/>
		<path class="st3" d="M431.5,565.3l-15.7-31.7c-0.4-0.8-0.1-1.8,0.7-2.2l0,0c0.8-0.4,1.8-0.1,2.2,0.7l15.7,31.7
			c0.4,0.8,0.1,1.8-0.7,2.2l0,0C432.9,566.4,431.9,566.1,431.5,565.3z"/>
	</g>
	<g>
		<path class="st2" d="M418.1,370.4c6.3-9.5,14.9-29.9,14.9-29.9s-5.9-4.9-14.9-4.5"/>
		<path class="st3" d="M431.5,338.9l-15.7,31.7c-0.4,0.8-0.1,1.8,0.7,2.2l0,0c0.8,0.4,1.8,0.1,2.2-0.7l15.7-31.7
			c0.4-0.8,0.1-1.8-0.7-2.2l0,0C432.9,337.8,431.9,338.1,431.5,338.9z"/>
	</g>
	<g>
		<path class="st2" d="M486.7,369.1c-6.3-9.5-14.9-29.9-14.9-29.9s5.9-4.9,14.9-4.5"/>
		<path class="st3" d="M473.3,337.6l15.7,31.7c0.4,0.8,0.1,1.8-0.7,2.2l0,0c-0.8,0.4-1.8,0.1-2.2-0.7l-15.7-31.7
			c-0.4-0.8-0.1-1.8,0.7-2.2l0,0C471.9,336.5,472.9,336.8,473.3,337.6z"/>
	</g>
	<g>
		<path class="st2" d="M509.7,378.9c9.5-6.3,29.9-14.9,29.9-14.9s4.9,5.9,4.5,14.9"/>
		<path class="st3" d="M541.2,365.4l-31.7,15.7c-0.8,0.4-1.8,0.1-2.2-0.7l0,0c-0.4-0.8-0.1-1.8,0.7-2.2l31.7-15.7
			c0.8-0.4,1.8-0.1,2.2,0.7l0,0C542.3,364.1,542,365,541.2,365.4z"/>
	</g>
	<g>
		<path class="st2" d="M639.2,615.2c-9.5,6.3-29.9,14.9-29.9,14.9s-4.9-5.9-4.5-14.9"/>
		<path class="st3" d="M607.7,628.7l31.7-15.7c0.8-0.4,1.8-0.1,2.2,0.7l0,0c0.4,0.8,0.1,1.8-0.7,2.2l-31.7,15.7
			c-0.8,0.4-1.8,0.1-2.2-0.7l0,0C606.6,630,606.9,629.1,607.7,628.7z"/>
	</g>
	<g>
		<path class="st2" d="M486.7,735.1c-6.3-9.5-14.9-29.9-14.9-29.9s5.9-4.9,14.9-4.5"/>
		<path class="st3" d="M473.3,703.6l15.7,31.7c0.4,0.8,0.1,1.8-0.7,2.2l0,0c-0.8,0.4-1.8,0.1-2.2-0.7L470.4,705
			c-0.4-0.8-0.1-1.8,0.7-2.2l0,0C471.9,702.4,472.9,702.8,473.3,703.6z"/>
	</g>
	<g>
		<path class="st2" d="M486.7,914c-6.3-9.5-14.9-29.9-14.9-29.9s5.9-4.9,14.9-4.5"/>
		<path class="st3" d="M473.3,882.5l15.7,31.7c0.4,0.8,0.1,1.8-0.7,2.2l0,0c-0.8,0.4-1.8,0.1-2.2-0.7L470.4,884
			c-0.4-0.8-0.1-1.8,0.7-2.2l0,0C471.9,881.4,472.9,881.7,473.3,882.5z"/>
	</g>
	<g>
		<path class="st2" d="M486.7,1145.9c-6.3-9.5-14.9-29.9-14.9-29.9s5.9-4.9,14.9-4.5"/>
		<path class="st3" d="M473.3,1114.4l15.7,31.7c0.4,0.8,0.1,1.8-0.7,2.2l0,0c-0.8,0.4-1.8,0.1-2.2-0.7l-15.7-31.7
			c-0.4-0.8-0.1-1.8,0.7-2.2l0,0C471.9,1113.2,472.9,1113.6,473.3,1114.4z"/>
	</g>
	<g>
		<path class="st2" d="M486.7,1060.2c-6.3-9.5-14.9-29.9-14.9-29.9s5.9-4.9,14.9-4.5"/>
		<path class="st3" d="M473.3,1028.7l15.7,31.7c0.4,0.8,0.1,1.8-0.7,2.2l0,0c-0.8,0.4-1.8,0.1-2.2-0.7l-15.7-31.7
			c-0.4-0.8-0.1-1.8,0.7-2.2l0,0C471.9,1027.6,472.9,1027.9,473.3,1028.7z"/>
	</g>
	<g>
		<path class="st2" d="M554.5,1006.3c-9.5,6.3-29.9,14.9-29.9,14.9s-4.9-5.9-4.5-14.9"/>
		<path class="st3" d="M523,1019.8l31.7-15.7c0.8-0.4,1.8-0.1,2.2,0.7l0,0c0.4,0.8,0.1,1.8-0.7,2.2l-31.7,15.7
			c-0.8,0.4-1.8,0.1-2.2-0.7l0,0C521.9,1021.1,522.2,1020.2,523,1019.8z"/>
	</g>
	<g>
		<path class="st2" d="M554.5,1085.9c-9.5-6.3-29.9-14.9-29.9-14.9s-4.9,5.9-4.5,14.9"/>
		<path class="st3" d="M523,1072.5l31.7,15.7c0.8,0.4,1.8,0.1,2.2-0.7l0,0c0.4-0.8,0.1-1.8-0.7-2.2l-31.7-15.7
			c-0.8-0.4-1.8-0.1-2.2,0.7l0,0C521.9,1071.1,522.2,1072.1,523,1072.5z"/>
	</g>
	<g>
		<path class="st2" d="M486.7,1233.7c-6.3-9.5-14.9-29.9-14.9-29.9s5.9-4.9,14.9-4.5"/>
		<path class="st3" d="M473.3,1202.2l15.7,31.7c0.4,0.8,0.1,1.8-0.7,2.2l0,0c-0.8,0.4-1.8,0.1-2.2-0.7l-15.7-31.7
			c-0.4-0.8-0.1-1.8,0.7-2.2l0,0C471.9,1201.1,472.9,1201.4,473.3,1202.2z"/>
	</g>
	<g>
		<path class="st2" d="M2019.6,1792.6c-6.3-9.5-14.9-29.9-14.9-29.9s5.9-4.9,14.9-4.5"/>
		<path class="st3" d="M2006.1,1761.1l15.7,31.7c0.4,0.8,0.1,1.8-0.7,2.2l0,0c-0.8,0.4-1.8,0.1-2.2-0.7l-15.7-31.7
			c-0.4-0.8-0.1-1.8,0.7-2.2l0,0C2004.7,1760,2005.7,1760.3,2006.1,1761.1z"/>
	</g>
	<g>
		<path class="st2" d="M409,279c-6.3-9.5-14.9-29.9-14.9-29.9s5.9-4.9,14.9-4.5"/>
		<path class="st3" d="M395.6,247.6l15.7,31.7c0.4,0.8,0.1,1.8-0.7,2.2l0,0c-0.8,0.4-1.8,0.1-2.2-0.7L392.6,249
			c-0.4-0.8-0.1-1.8,0.7-2.2l0,0C394.2,246.4,395.2,246.8,395.6,247.6z"/>
	</g>
	<g>
		<path class="st2" d="M402,310.5c-9.5-6.3-29.9-14.9-29.9-14.9s-4.9,5.9-4.5,14.9"/>
		<path class="st3" d="M370.6,297l31.7,15.7c0.8,0.4,1.8,0.1,2.2-0.7l0,0c0.4-0.8,0.1-1.8-0.7-2.2L372,294.1
			c-0.8-0.4-1.8-0.1-2.2,0.7l0,0C369.4,295.6,369.8,296.6,370.6,297z"/>
	</g>
	<g>
		<path class="st2" d="M403.2,378.8c-9.5-6.3-29.9-14.9-29.9-14.9s-4.9,5.9-4.5,14.9"/>
		<path class="st3" d="M371.7,365.4l31.7,15.7c0.8,0.4,1.8,0.1,2.2-0.7l0,0c0.4-0.8,0.1-1.8-0.7-2.2l-31.7-15.7
			c-0.8-0.4-1.8-0.1-2.2,0.7l0,0C370.6,364,370.9,365,371.7,365.4z"/>
	</g>
</g>
<g id="stairs_2_">
	<g>
		<g>
			<line class="st4" x1="292.1" y1="1736.5" x2="292.1" y2="1767"/>
			<line class="st4" x1="299.7" y1="1736.5" x2="299.7" y2="1767"/>
			<line class="st4" x1="307.3" y1="1736.5" x2="307.3" y2="1767"/>
			<line class="st4" x1="314.9" y1="1736.5" x2="314.9" y2="1767"/>
			<line class="st4" x1="322.5" y1="1736.5" x2="322.5" y2="1767"/>
			<line class="st4" x1="330.1" y1="1736.5" x2="330.1" y2="1767"/>
			<line class="st4" x1="337.7" y1="1736.5" x2="337.7" y2="1767"/>
			<line class="st4" x1="345.4" y1="1736.5" x2="345.4" y2="1767"/>
			<line class="st4" x1="353" y1="1736.5" x2="353" y2="1767"/>
			<line class="st4" x1="360.6" y1="1736.5" x2="360.6" y2="1767"/>
			<line class="st4" x1="368.2" y1="1736.5" x2="368.2" y2="1767"/>
			<line class="st4" x1="375.8" y1="1736.5" x2="375.8" y2="1767"/>
			<line class="st4" x1="383.4" y1="1736.5" x2="383.4" y2="1767"/>
			<line class="st4" x1="391.1" y1="1736.5" x2="391.1" y2="1767"/>
		</g>
		<g>
			<line class="st4" x1="292.1" y1="1771.3" x2="292.1" y2="1801.7"/>
			<line class="st4" x1="299.7" y1="1771.3" x2="299.7" y2="1801.7"/>
			<line class="st4" x1="307.3" y1="1771.3" x2="307.3" y2="1801.7"/>
			<line class="st4" x1="314.9" y1="1771.3" x2="314.9" y2="1801.7"/>
			<line class="st4" x1="322.5" y1="1771.3" x2="322.5" y2="1801.7"/>
			<line class="st4" x1="330.1" y1="1771.3" x2="330.1" y2="1801.7"/>
			<line class="st4" x1="337.7" y1="1771.3" x2="337.7" y2="1801.7"/>
			<line class="st4" x1="345.4" y1="1771.3" x2="345.4" y2="1801.7"/>
			<line class="st4" x1="353" y1="1771.3" x2="353" y2="1801.7"/>
			<line class="st4" x1="360.6" y1="1771.3" x2="360.6" y2="1801.7"/>
			<line class="st4" x1="368.2" y1="1771.3" x2="368.2" y2="1801.7"/>
			<line class="st4" x1="375.8" y1="1771.3" x2="375.8" y2="1801.7"/>
			<line class="st4" x1="383.4" y1="1771.3" x2="383.4" y2="1801.7"/>
			<line class="st4" x1="391.1" y1="1771.3" x2="391.1" y2="1801.7"/>
		</g>
	</g>
	<g>
		<g>
			<line class="st4" x1="553.2" y1="762.3" x2="553.2" y2="792.7"/>
			<line class="st4" x1="560.8" y1="762.3" x2="560.8" y2="792.7"/>
			<line class="st4" x1="568.4" y1="762.3" x2="568.4" y2="792.7"/>
			<line class="st4" x1="576" y1="762.3" x2="576" y2="792.7"/>
			<line class="st4" x1="583.6" y1="762.3" x2="583.6" y2="792.7"/>
			<line class="st4" x1="591.3" y1="762.3" x2="591.3" y2="792.7"/>
			<line class="st4" x1="598.9" y1="762.3" x2="598.9" y2="792.7"/>
			<line class="st4" x1="606.5" y1="762.3" x2="606.5" y2="792.7"/>
			<line class="st4" x1="614.1" y1="762.3" x2="614.1" y2="792.7"/>
			<line class="st4" x1="621.7" y1="762.3" x2="621.7" y2="792.7"/>
			<line class="st4" x1="629.3" y1="762.3" x2="629.3" y2="792.7"/>
			<line class="st4" x1="636.9" y1="762.3" x2="636.9" y2="792.7"/>
			<line class="st4" x1="644.6" y1="762.3" x2="644.6" y2="792.7"/>
			<line class="st4" x1="652.2" y1="762.3" x2="652.2" y2="792.7"/>
		</g>
		<g>
			<line class="st4" x1="553.2" y1="797" x2="553.2" y2="827.5"/>
			<line class="st4" x1="560.8" y1="797" x2="560.8" y2="827.5"/>
			<line class="st4" x1="568.4" y1="797" x2="568.4" y2="827.5"/>
			<line class="st4" x1="576" y1="797" x2="576" y2="827.5"/>
			<line class="st4" x1="583.6" y1="797" x2="583.6" y2="827.5"/>
			<line class="st4" x1="591.3" y1="797" x2="591.3" y2="827.5"/>
			<line class="st4" x1="598.9" y1="797" x2="598.9" y2="827.5"/>
			<line class="st4" x1="606.5" y1="797" x2="606.5" y2="827.5"/>
			<line class="st4" x1="614.1" y1="797" x2="614.1" y2="827.5"/>
			<line class="st4" x1="621.7" y1="797" x2="621.7" y2="827.5"/>
			<line class="st4" x1="629.3" y1="797" x2="629.3" y2="827.5"/>
			<line class="st4" x1="636.9" y1="797" x2="636.9" y2="827.5"/>
			<line class="st4" x1="644.6" y1="797" x2="644.6" y2="827.5"/>
			<line class="st4" x1="652.2" y1="797" x2="652.2" y2="827.5"/>
		</g>
	</g>
	<g>
		<g>
			<line class="st4" x1="1936.1" y1="1622.5" x2="1892.8" y2="1622.5"/>
			<line class="st4" x1="1936.1" y1="1630.1" x2="1892.8" y2="1630.1"/>
			<line class="st4" x1="1936.1" y1="1637.7" x2="1892.8" y2="1637.7"/>
			<line class="st4" x1="1936.1" y1="1645.4" x2="1892.8" y2="1645.4"/>
			<line class="st4" x1="1936.1" y1="1653" x2="1892.8" y2="1653"/>
			<line class="st4" x1="1936.1" y1="1660.6" x2="1892.8" y2="1660.6"/>
			<line class="st4" x1="1936.1" y1="1668.2" x2="1892.8" y2="1668.2"/>
			<line class="st4" x1="1936.1" y1="1675.8" x2="1892.8" y2="1675.8"/>
			<line class="st4" x1="1936.1" y1="1683.4" x2="1892.8" y2="1683.4"/>
			<line class="st4" x1="1936.1" y1="1691" x2="1892.8" y2="1691"/>
			<line class="st4" x1="1936.1" y1="1698.7" x2="1892.8" y2="1698.7"/>
			<line class="st4" x1="1936.1" y1="1706.3" x2="1892.8" y2="1706.3"/>
			<line class="st4" x1="1936.1" y1="1713.9" x2="1892.8" y2="1713.9"/>
			<line class="st4" x1="1936.1" y1="1721.5" x2="1892.8" y2="1721.5"/>
		</g>
		<g>
			<line class="st4" x1="1856.4" y1="1622.5" x2="1810.4" y2="1622.5"/>
			<line class="st4" x1="1856.4" y1="1630.1" x2="1810.4" y2="1630.1"/>
			<line class="st4" x1="1856.4" y1="1637.7" x2="1810.4" y2="1637.7"/>
			<line class="st4" x1="1856.4" y1="1645.4" x2="1810.4" y2="1645.4"/>
			<line class="st4" x1="1856.4" y1="1653" x2="1810.4" y2="1653"/>
			<line class="st4" x1="1856.4" y1="1660.6" x2="1810.4" y2="1660.6"/>
			<line class="st4" x1="1856.4" y1="1668.2" x2="1810.4" y2="1668.2"/>
			<line class="st4" x1="1856.4" y1="1675.8" x2="1810.4" y2="1675.8"/>
			<line class="st4" x1="1856.4" y1="1683.4" x2="1810.4" y2="1683.4"/>
			<line class="st4" x1="1856.4" y1="1691" x2="1810.4" y2="1691"/>
			<line class="st4" x1="1856.4" y1="1698.7" x2="1810.4" y2="1698.7"/>
			<line class="st4" x1="1856.4" y1="1706.3" x2="1810.4" y2="1706.3"/>
			<line class="st4" x1="1856.4" y1="1713.9" x2="1810.4" y2="1713.9"/>
			<line class="st4" x1="1856.4" y1="1721.5" x2="1810.4" y2="1721.5"/>
		</g>
	</g>
</g>
</svg>
