<?xml version="1.0" encoding="utf-8"?>
<!-- Generator: Adobe Illustrator 25.0.1, SVG Export Plug-In . SVG Version: 6.00 Build 0)  -->
<svg version="1.1" id="Слой_1" xmlns="http://www.w3.org/2000/svg" xmlns:xlink="http://www.w3.org/1999/xlink" x="0px" y="0px"
	 viewBox="0 0 2975 2350" style="enable-background:new 0 0 2975 2350;" xml:space="preserve">
<style type="text/css">
	.st0{fill:none;stroke:#0071BC;stroke-width:3;stroke-miterlimit:10;}
	.st1{fill:none;stroke:#4D4D4D;stroke-width:8;stroke-miterlimit:10;}
	.st2{fill:none;stroke:#4D4D4D;stroke-width:9;stroke-miterlimit:10;}
	.st3{opacity:0.5;fill:#C1272D;enable-background:new    ;}
	.st4{fill:#C1272D;}
	.st5{enable-background:new    ;}
</style>
<g id="f2">
	<g id="stairs">
		<g>
			<g>
				<line class="st0" x1="293" y1="2085.8" x2="293" y2="2116.3"/>
				<line class="st0" x1="300.6" y1="2085.8" x2="300.6" y2="2116.3"/>
				<line class="st0" x1="308.2" y1="2085.8" x2="308.2" y2="2116.3"/>
				<line class="st0" x1="315.8" y1="2085.8" x2="315.8" y2="2116.3"/>
				<line class="st0" x1="323.4" y1="2085.8" x2="323.4" y2="2116.3"/>
				<line class="st0" x1="331" y1="2085.8" x2="331" y2="2116.3"/>
				<line class="st0" x1="338.7" y1="2085.8" x2="338.7" y2="2116.3"/>
				<line class="st0" x1="346.3" y1="2085.8" x2="346.3" y2="2116.3"/>
				<line class="st0" x1="353.9" y1="2085.8" x2="353.9" y2="2116.3"/>
				<line class="st0" x1="361.5" y1="2085.8" x2="361.5" y2="2116.3"/>
				<line class="st0" x1="369.1" y1="2085.8" x2="369.1" y2="2116.3"/>
				<line class="st0" x1="376.7" y1="2085.8" x2="376.7" y2="2116.3"/>
				<line class="st0" x1="384.3" y1="2085.8" x2="384.3" y2="2116.3"/>
				<line class="st0" x1="392" y1="2085.8" x2="392" y2="2116.3"/>
			</g>
			<g>
				<line class="st0" x1="293" y1="2120.6" x2="293" y2="2151.1"/>
				<line class="st0" x1="300.6" y1="2120.6" x2="300.6" y2="2151.1"/>
				<line class="st0" x1="308.2" y1="2120.6" x2="308.2" y2="2151.1"/>
				<line class="st0" x1="315.8" y1="2120.6" x2="315.8" y2="2151.1"/>
				<line class="st0" x1="323.4" y1="2120.6" x2="323.4" y2="2151.1"/>
				<line class="st0" x1="331" y1="2120.6" x2="331" y2="2151.1"/>
				<line class="st0" x1="338.7" y1="2120.6" x2="338.7" y2="2151.1"/>
				<line class="st0" x1="346.3" y1="2120.6" x2="346.3" y2="2151.1"/>
				<line class="st0" x1="353.9" y1="2120.6" x2="353.9" y2="2151.1"/>
				<line class="st0" x1="361.5" y1="2120.6" x2="361.5" y2="2151.1"/>
				<line class="st0" x1="369.1" y1="2120.6" x2="369.1" y2="2151.1"/>
				<line class="st0" x1="376.7" y1="2120.6" x2="376.7" y2="2151.1"/>
				<line class="st0" x1="384.3" y1="2120.6" x2="384.3" y2="2151.1"/>
				<line class="st0" x1="392" y1="2120.6" x2="392" y2="2151.1"/>
			</g>
		</g>
		<g>
			<g>
				<line class="st0" x1="554.1" y1="1111.6" x2="554.1" y2="1142.1"/>
				<line class="st0" x1="561.7" y1="1111.6" x2="561.7" y2="1142.1"/>
				<line class="st0" x1="569.3" y1="1111.6" x2="569.3" y2="1142.1"/>
				<line class="st0" x1="576.9" y1="1111.6" x2="576.9" y2="1142.1"/>
				<line class="st0" x1="584.5" y1="1111.6" x2="584.5" y2="1142.1"/>
				<line class="st0" x1="592.2" y1="1111.6" x2="592.2" y2="1142.1"/>
				<line class="st0" x1="599.8" y1="1111.6" x2="599.8" y2="1142.1"/>
				<line class="st0" x1="607.4" y1="1111.6" x2="607.4" y2="1142.1"/>
				<line class="st0" x1="615" y1="1111.6" x2="615" y2="1142.1"/>
				<line class="st0" x1="622.6" y1="1111.6" x2="622.6" y2="1142.1"/>
				<line class="st0" x1="630.2" y1="1111.6" x2="630.2" y2="1142.1"/>
				<line class="st0" x1="637.8" y1="1111.6" x2="637.8" y2="1142.1"/>
				<line class="st0" x1="645.5" y1="1111.6" x2="645.5" y2="1142.1"/>
				<line class="st0" x1="653.1" y1="1111.6" x2="653.1" y2="1142.1"/>
			</g>
			<g>
				<line class="st0" x1="554.1" y1="1146.4" x2="554.1" y2="1176.8"/>
				<line class="st0" x1="561.7" y1="1146.4" x2="561.7" y2="1176.8"/>
				<line class="st0" x1="569.3" y1="1146.4" x2="569.3" y2="1176.8"/>
				<line class="st0" x1="576.9" y1="1146.4" x2="576.9" y2="1176.8"/>
				<line class="st0" x1="584.5" y1="1146.4" x2="584.5" y2="1176.8"/>
				<line class="st0" x1="592.2" y1="1146.4" x2="592.2" y2="1176.8"/>
				<line class="st0" x1="599.8" y1="1146.4" x2="599.8" y2="1176.8"/>
				<line class="st0" x1="607.4" y1="1146.4" x2="607.4" y2="1176.8"/>
				<line class="st0" x1="615" y1="1146.4" x2="615" y2="1176.8"/>
				<line class="st0" x1="622.6" y1="1146.4" x2="622.6" y2="1176.8"/>
				<line class="st0" x1="630.2" y1="1146.4" x2="630.2" y2="1176.8"/>
				<line class="st0" x1="637.8" y1="1146.4" x2="637.8" y2="1176.8"/>
				<line class="st0" x1="645.5" y1="1146.4" x2="645.5" y2="1176.8"/>
				<line class="st0" x1="653.1" y1="1146.4" x2="653.1" y2="1176.8"/>
			</g>
		</g>
		<g>
			<g>
				<line class="st0" x1="1936.1" y1="1972.5" x2="1892.8" y2="1972.5"/>
				<line class="st0" x1="1936.1" y1="1980.2" x2="1892.8" y2="1980.2"/>
				<line class="st0" x1="1936.1" y1="1987.8" x2="1892.8" y2="1987.8"/>
				<line class="st0" x1="1936.1" y1="1995.4" x2="1892.8" y2="1995.4"/>
				<line class="st0" x1="1936.1" y1="2003" x2="1892.8" y2="2003"/>
				<line class="st0" x1="1936.1" y1="2010.6" x2="1892.8" y2="2010.6"/>
				<line class="st0" x1="1936.1" y1="2018.2" x2="1892.8" y2="2018.2"/>
				<line class="st0" x1="1936.1" y1="2025.9" x2="1892.8" y2="2025.9"/>
				<line class="st0" x1="1936.1" y1="2033.5" x2="1892.8" y2="2033.5"/>
				<line class="st0" x1="1936.1" y1="2041.1" x2="1892.8" y2="2041.1"/>
				<line class="st0" x1="1936.1" y1="2048.7" x2="1892.8" y2="2048.7"/>
				<line class="st0" x1="1936.1" y1="2056.3" x2="1892.8" y2="2056.3"/>
				<line class="st0" x1="1936.1" y1="2063.9" x2="1892.8" y2="2063.9"/>
				<line class="st0" x1="1936.1" y1="2071.5" x2="1892.8" y2="2071.5"/>
			</g>
			<g>
				<line class="st0" x1="1856.4" y1="1972.5" x2="1810.4" y2="1972.5"/>
				<line class="st0" x1="1856.4" y1="1980.2" x2="1810.4" y2="1980.2"/>
				<line class="st0" x1="1856.4" y1="1987.8" x2="1810.4" y2="1987.8"/>
				<line class="st0" x1="1856.4" y1="1995.4" x2="1810.4" y2="1995.4"/>
				<line class="st0" x1="1856.4" y1="2003" x2="1810.4" y2="2003"/>
				<line class="st0" x1="1856.4" y1="2010.6" x2="1810.4" y2="2010.6"/>
				<line class="st0" x1="1856.4" y1="2018.2" x2="1810.4" y2="2018.2"/>
				<line class="st0" x1="1856.4" y1="2025.9" x2="1810.4" y2="2025.9"/>
				<line class="st0" x1="1856.4" y1="2033.5" x2="1810.4" y2="2033.5"/>
				<line class="st0" x1="1856.4" y1="2041.1" x2="1810.4" y2="2041.1"/>
				<line class="st0" x1="1856.4" y1="2048.7" x2="1810.4" y2="2048.7"/>
				<line class="st0" x1="1856.4" y1="2056.3" x2="1810.4" y2="2056.3"/>
				<line class="st0" x1="1856.4" y1="2063.9" x2="1810.4" y2="2063.9"/>
				<line class="st0" x1="1856.4" y1="2071.5" x2="1810.4" y2="2071.5"/>
			</g>
		</g>
	</g>
	<g id="schema">
		<path class="st1" d="M253,589.7"/>
		<polyline class="st2" points="439.8,589.7 253,589.7 253,2325.7 2109.5,2325.7 2109.5,1965.7 1948,1965.7 1948,1854.7 
			1898,1854.7 		"/>
		<path class="st1" d="M434,589.7"/>
		<polyline class="st2" points="1843,1855.7 1796.6,1855.7 1796.6,1905.6 1265,1905.6 1265,1959.7 1104,1959.7 1104,1907.7 
			491,1907.7 491,1752.7 652,1752.7 652,1191.7 693.3,1191.7 693.3,1096.7 653.7,1096.7 653.7,589.7 476.8,589.7 		"/>
		<path class="st1" d="M468,586.7"/>
		<path class="st2" d="M2109.5,2325.7"/>
		<path class="st2" d="M2109.5,1965.7"/>
		<path class="st2" d="M2109.5,2088.2"/>
		<line class="st2" x1="1948" y1="1965.7" x2="1948" y2="2088.2"/>
		<polyline class="st2" points="2109.5,2190.1 1948.5,2190.1 1948.5,2325.7 		"/>
		<polyline class="st2" points="1796.6,1905.6 1796.6,2073.2 491.5,2074.2 491,1907.7 		"/>
		<polyline class="st2" points="1948.5,2190.1 1948.5,2165 253,2165 		"/>
		<polyline class="st2" points="253,1905.6 413.5,1905.6 413.5,589.7 		"/>
		<path class="st2" d="M652,1191.7"/>
		<line class="st2" x1="491" y1="1101.2" x2="491" y2="589.7"/>
		<line class="st2" x1="491" y1="1276.7" x2="491" y2="1187.2"/>
		<path class="st2" d="M491,1276.7"/>
		<path class="st2" d="M491,1748.2"/>
		<line class="st2" x1="491" y1="1752.7" x2="491" y2="1748.2"/>
		<line class="st2" x1="1796.6" y1="2325.7" x2="1796.6" y2="2165"/>
		<line class="st2" x1="1948" y1="2245.3" x2="1948" y2="2084.7"/>
		<path class="st2" d="M1672.5,2073.3"/>
		<path class="st2" d="M1672.5,1905.6"/>
		<line class="st2" x1="1573.1" y1="1905.6" x2="1573.1" y2="2073.3"/>
		<line class="st2" x1="1573.1" y1="2165" x2="1573.1" y2="2325.7"/>
		<line class="st2" x1="1265" y1="1959.7" x2="1265" y2="2073.3"/>
		<line class="st2" x1="1188.6" y1="1959.7" x2="1188.6" y2="2073.3"/>
		<path class="st2" d="M1265,2325.7"/>
		<path class="st2" d="M1265,2165"/>
		<line class="st2" x1="1104" y1="1959.7" x2="1104" y2="2073.8"/>
		<line class="st2" x1="1104" y1="2165" x2="1104" y2="2325.7"/>
		<line class="st2" x1="1032.6" y1="2165" x2="1032.6" y2="2325.7"/>
		<line class="st2" x1="1028" y1="1907" x2="1028" y2="2073.2"/>
		<line class="st2" x1="871.8" y1="1907.7" x2="871.8" y2="2074.2"/>
		<path class="st2" d="M892,2325.7"/>
		<path class="st2" d="M892,2165"/>
		<line class="st2" x1="1419.3" y1="2165" x2="1419.3" y2="2325.7"/>
		<path class="st2" d="M1207.3,2325.7"/>
		<path class="st2" d="M1207.3,2165"/>
		<line class="st2" x1="657.3" y1="2165" x2="657.3" y2="2325.7"/>
		<line class="st2" x1="732.8" y1="2165" x2="732.8" y2="2325.7"/>
		<line class="st2" x1="642.4" y1="1907.7" x2="642.4" y2="2074.2"/>
		<line class="st2" x1="491" y1="2165" x2="491" y2="2325.7"/>
		<path class="st2" d="M482.6,2074.2"/>
		<path class="st2" d="M491.5,2074.2"/>
		<polyline class="st2" points="491.5,2074.2 414.6,2074.2 253,2074.2 		"/>
		<line class="st2" x1="413.5" y1="1905.6" x2="413.5" y2="2074.2"/>
		<line class="st2" x1="253" y1="1605.8" x2="413.5" y2="1605.8"/>
		<line class="st2" x1="330.5" y1="1905.6" x2="491" y2="1905.6"/>
		<line class="st2" x1="253" y1="1989.9" x2="413.5" y2="1989.9"/>
		<line class="st2" x1="253" y1="1521.8" x2="413.5" y2="1521.8"/>
		<path class="st2" d="M652,1521.8"/>
		<path class="st2" d="M491,1521.8"/>
		<line class="st2" x1="491" y1="1272.2" x2="652" y2="1272.2"/>
		<line class="st2" x1="652" y1="1191.7" x2="491" y2="1191.7"/>
		<line class="st2" x1="653.7" y1="1096.7" x2="491" y2="1096.7"/>
		<line class="st2" x1="413.5" y1="1096.7" x2="253" y2="1096.7"/>
		<line class="st2" x1="413.5" y1="1281.4" x2="253" y2="1281.4"/>
		<line class="st2" x1="574" y1="1272.2" x2="413.5" y2="1272.2"/>
		<polyline class="st2" points="653.7,960.7 491,960.7 470.6,960.7 		"/>
		<line class="st2" x1="435.5" y1="960.7" x2="253" y2="960.7"/>
		<line class="st2" x1="493.1" y1="819.6" x2="655.8" y2="819.6"/>
		<line class="st2" x1="413.5" y1="810.5" x2="253" y2="810.5"/>
		<path class="st2" d="M468,676.6"/>
		<path class="st2" d="M653.7,676.6"/>
		<path class="st2" d="M253,676.6"/>
		<path class="st2" d="M436,676.6"/>
	</g>
</g>
<g id="Слой_3">
	<g>
		<path class="st3" d="M418,1930.7c6.3,9.5,14.9,29.9,14.9,29.9s-5.9,4.9-14.9,4.5"/>
		<path class="st4" d="M431.4,1962.2l-15.7-31.7c-0.4-0.8-0.1-1.8,0.7-2.2l0,0c0.8-0.4,1.8-0.1,2.2,0.7l15.7,31.7
			c0.4,0.8,0.1,1.8-0.7,2.2l0,0C432.8,1963.3,431.8,1963,431.4,1962.2z"/>
	</g>
	<g>
		<path class="st3" d="M418,1819.8c6.3,9.5,14.9,29.9,14.9,29.9s-5.9,4.9-14.9,4.5"/>
		<path class="st4" d="M431.4,1851.3l-15.7-31.7c-0.4-0.8-0.1-1.8,0.7-2.2l0,0c0.8-0.4,1.8-0.1,2.2,0.7l15.7,31.7
			c0.4,0.8,0.1,1.8-0.7,2.2l0,0C432.8,1852.4,431.8,1852.1,431.4,1851.3z"/>
	</g>
	<g>
		<path class="st3" d="M418,2014.2c6.3,9.5,14.9,29.9,14.9,29.9s-5.9,4.9-14.9,4.5"/>
		<path class="st4" d="M431.4,2045.7l-15.7-31.7c-0.4-0.8-0.1-1.8,0.7-2.2l0,0c0.8-0.4,1.8-0.1,2.2,0.7l15.7,31.7
			c0.4,0.8,0.1,1.8-0.7,2.2l0,0C432.8,2046.8,431.8,2046.5,431.4,2045.7z"/>
	</g>
	<g>
		<path class="st3" d="M430.8,2160.7c9.5-6.3,29.9-14.9,29.9-14.9s4.9,5.9,4.5,14.9"/>
		<path class="st4" d="M462.3,2147.2l-31.7,15.7c-0.8,0.4-1.8,0.1-2.2-0.7l0,0c-0.4-0.8-0.1-1.8,0.7-2.2l31.7-15.7
			c0.8-0.4,1.8-0.1,2.2,0.7l0,0C463.4,2145.9,463.1,2146.8,462.3,2147.2z"/>
	</g>
	<g>
		<path class="st3" d="M600.1,2160.7c-0.4-9,4.5-14.9,4.5-14.9s20.4,8.6,29.9,14.9"/>
		<path class="st4" d="M602.3,2145L602.3,2145c0.4-0.8,1.4-1.1,2.2-0.7l31.7,15.7c0.8,0.4,1.1,1.4,0.7,2.2l0,0
			c-0.4,0.8-1.4,1.1-2.2,0.7l-31.7-15.7C602.2,2146.8,601.9,2145.9,602.3,2145z"/>
	</g>
	<g>
		<path class="st3" d="M741.2,2160.7c-0.4-9,4.5-14.9,4.5-14.9s20.4,8.6,29.9,14.9"/>
		<path class="st4" d="M743.4,2145L743.4,2145c0.4-0.8,1.4-1.1,2.2-0.7l31.7,15.7c0.8,0.4,1.1,1.4,0.7,2.2l0,0
			c-0.4,0.8-1.4,1.1-2.2,0.7l-31.7-15.7C743.3,2146.8,743,2145.9,743.4,2145z"/>
	</g>
	<g>
		<path class="st3" d="M652.7,2248c-6.3-9.5-14.9-29.9-14.9-29.9s5.9-4.9,14.9-4.5"/>
		<path class="st4" d="M639.2,2216.5l15.7,31.7c0.4,0.8,0.1,1.8-0.7,2.2l0,0c-0.8,0.4-1.8,0.1-2.2-0.7l-15.7-31.7
			c-0.4-0.8-0.1-1.8,0.7-2.2l0,0C637.9,2215.4,638.8,2215.7,639.2,2216.5z"/>
	</g>
	<g>
		<path class="st3" d="M943.7,2160.7c-0.4-9,4.5-14.9,4.5-14.9s20.4,8.6,29.9,14.9"/>
		<path class="st4" d="M945.9,2145L945.9,2145c0.4-0.8,1.4-1.1,2.2-0.7l31.7,15.7c0.8,0.4,1.1,1.4,0.7,2.2l0,0
			c-0.4,0.8-1.4,1.1-2.2,0.7l-31.7-15.7C945.8,2146.8,945.5,2145.9,945.9,2145z"/>
	</g>
	<g>
		<path class="st3" d="M1041.7,2160.7c-0.4-9,4.5-14.9,4.5-14.9s20.4,8.6,29.9,14.9"/>
		<path class="st4" d="M1044,2145L1044,2145c0.4-0.8,1.4-1.1,2.2-0.7l31.7,15.7c0.8,0.4,1.1,1.4,0.7,2.2l0,0
			c-0.4,0.8-1.4,1.1-2.2,0.7l-31.7-15.7C1043.9,2146.8,1043.5,2145.9,1044,2145z"/>
	</g>
	<g>
		<path class="st3" d="M1125.2,2160.7c-0.4-9,4.5-14.9,4.5-14.9s20.4,8.6,29.9,14.9"/>
		<path class="st4" d="M1127.5,2145L1127.5,2145c0.4-0.8,1.4-1.1,2.2-0.7l31.7,15.7c0.8,0.4,1.1,1.4,0.7,2.2l0,0
			c-0.4,0.8-1.4,1.1-2.2,0.7l-31.7-15.7C1127.4,2146.8,1127,2145.9,1127.5,2145z"/>
	</g>
	<g>
		<path class="st3" d="M1352.9,2160.7c9.5-6.3,29.9-14.9,29.9-14.9s4.9,5.9,4.5,14.9"/>
		<path class="st4" d="M1384.4,2147.2l-31.7,15.7c-0.8,0.4-1.8,0.1-2.2-0.7l0,0c-0.4-0.8-0.1-1.8,0.7-2.2l31.7-15.7
			c0.8-0.4,1.8-0.1,2.2,0.7l0,0C1385.5,2145.9,1385.2,2146.8,1384.4,2147.2z"/>
	</g>
	<g>
		<path class="st3" d="M1434.7,2160.7c9.5-6.3,29.9-14.9,29.9-14.9s4.9,5.9,4.5,14.9"/>
		<path class="st4" d="M1466.2,2147.2l-31.7,15.7c-0.8,0.4-1.8,0.1-2.2-0.7l0,0c-0.4-0.8-0.1-1.8,0.7-2.2l31.7-15.7
			c0.8-0.4,1.8-0.1,2.2,0.7l0,0C1467.3,2145.9,1467,2146.8,1466.2,2147.2z"/>
	</g>
	<g>
		<path class="st3" d="M1625.4,2160.7c9.5-6.3,29.9-14.9,29.9-14.9s4.9,5.9,4.5,14.9"/>
		<path class="st4" d="M1656.9,2147.2l-31.7,15.7c-0.8,0.4-1.8,0.1-2.2-0.7l0,0c-0.4-0.8-0.1-1.8,0.7-2.2l31.7-15.7
			c0.8-0.4,1.8-0.1,2.2,0.7l0,0C1658,2145.9,1657.7,2146.8,1656.9,2147.2z"/>
	</g>
	<g>
		<path class="st3" d="M1997.8,2185.7c0.4-9-4.5-14.9-4.5-14.9s-20.4,8.6-29.9,14.9"/>
		<path class="st4" d="M1995.6,2170L1995.6,2170c-0.4-0.8-1.4-1.1-2.2-0.7l-31.7,15.7c-0.8,0.4-1.1,1.4-0.7,2.2l0,0
			c0.4,0.8,1.4,1.1,2.2,0.7l31.7-15.7C1995.7,2171.8,1996,2170.9,1995.6,2170z"/>
	</g>
	<g>
		<path class="st3" d="M1856.5,2160.6c9.5-6.3,29.9-14.9,29.9-14.9s4.9,5.9,4.5,14.9"/>
		<path class="st4" d="M1887.9,2147.2l-31.7,15.7c-0.8,0.4-1.8,0.1-2.2-0.7l0,0c-0.4-0.8-0.1-1.8,0.7-2.2l31.7-15.7
			c0.8-0.4,1.8-0.1,2.2,0.7l0,0C1889.1,2145.8,1888.7,2146.8,1887.9,2147.2z"/>
	</g>
	<g>
		<path class="st3" d="M1943.6,2095.5c-9-0.4-14.9,4.5-14.9,4.5s8.6,20.4,14.9,29.9"/>
		<path class="st4" d="M1928,2097.7L1928,2097.7c-0.8,0.4-1.1,1.4-0.7,2.2l15.7,31.7c0.4,0.8,1.4,1.1,2.2,0.7l0,0
			c0.8-0.4,1.1-1.4,0.7-2.2l-15.7-31.7C1929.8,2097.6,1928.8,2097.3,1928,2097.7z"/>
	</g>
	<g>
		<path class="st3" d="M1628.6,2077.4c0.4,9-4.5,14.9-4.5,14.9s-20.4-8.6-29.9-14.9"/>
		<path class="st4" d="M1626.4,2093.1L1626.4,2093.1c-0.4,0.8-1.4,1.1-2.2,0.7l-31.7-15.7c-0.8-0.4-1.1-1.4-0.7-2.2l0,0
			c0.4-0.8,1.4-1.1,2.2-0.7l31.7,15.7C1626.5,2091.2,1626.8,2092.2,1626.4,2093.1z"/>
	</g>
	<g>
		<path class="st3" d="M1393.2,2077.7c0.4,9-4.5,14.9-4.5,14.9s-20.4-8.6-29.9-14.9"/>
		<path class="st4" d="M1391,2093.3L1391,2093.3c-0.4,0.8-1.4,1.1-2.2,0.7l-31.7-15.7c-0.8-0.4-1.1-1.4-0.7-2.2l0,0
			c0.4-0.8,1.4-1.1,2.2-0.7l31.7,15.7C1391.1,2091.5,1391.4,2092.5,1391,2093.3z"/>
	</g>
	<g>
		<path class="st3" d="M1240.6,2078.2c0.4,9-4.5,14.9-4.5,14.9s-20.4-8.6-29.9-14.9"/>
		<path class="st4" d="M1238.3,2093.8L1238.3,2093.8c-0.4,0.8-1.4,1.1-2.2,0.7l-31.7-15.7c-0.8-0.4-1.1-1.4-0.7-2.2l0,0
			c0.4-0.8,1.4-1.1,2.2-0.7l31.7,15.7C1238.4,2092,1238.8,2093,1238.3,2093.8z"/>
	</g>
	<g>
		<path class="st3" d="M1163.4,2078.2c0.4,9-4.5,14.9-4.5,14.9s-20.4-8.6-29.9-14.9"/>
		<path class="st4" d="M1161.1,2093.8L1161.1,2093.8c-0.4,0.8-1.4,1.1-2.2,0.7l-31.7-15.7c-0.8-0.4-1.1-1.4-0.7-2.2l0,0
			c0.4-0.8,1.4-1.1,2.2-0.7l31.7,15.7C1161.2,2092,1161.6,2093,1161.1,2093.8z"/>
	</g>
	<g>
		<path class="st3" d="M1083.8,2078.2c0.4,9-4.5,14.9-4.5,14.9s-20.4-8.6-29.9-14.9"/>
		<path class="st4" d="M1081.5,2093.8L1081.5,2093.8c-0.4,0.8-1.4,1.1-2.2,0.7l-31.7-15.7c-0.8-0.4-1.1-1.4-0.7-2.2l0,0
			c0.4-0.8,1.4-1.1,2.2-0.7l31.7,15.7C1081.6,2092,1082,2093,1081.5,2093.8z"/>
	</g>
	<g>
		<path class="st3" d="M996.7,2078.2c0.4,9-4.5,14.9-4.5,14.9s-20.4-8.6-29.9-14.9"/>
		<path class="st4" d="M994.4,2093.8L994.4,2093.8c-0.4,0.8-1.4,1.1-2.2,0.7l-31.7-15.7c-0.8-0.4-1.1-1.4-0.7-2.2l0,0
			c0.4-0.8,1.4-1.1,2.2-0.7l31.7,15.7C994.5,2092,994.9,2093,994.4,2093.8z"/>
	</g>
	<g>
		<path class="st3" d="M707.3,2077.7c-9.5,6.3-29.9,14.9-29.9,14.9s-4.9-5.9-4.5-14.9"/>
		<path class="st4" d="M675.8,2091.1l31.7-15.7c0.8-0.4,1.8-0.1,2.2,0.7l0,0c0.4,0.8,0.1,1.8-0.7,2.2l-31.7,15.7
			c-0.8,0.4-1.8,0.1-2.2-0.7l0,0C674.7,2092.5,675,2091.5,675.8,2091.1z"/>
	</g>
	<g>
		<path class="st3" d="M618.6,2077.7c-9.5,6.3-29.9,14.9-29.9,14.9s-4.9-5.9-4.5-14.9"/>
		<path class="st4" d="M587.2,2091.1l31.7-15.7c0.8-0.4,1.8-0.1,2.2,0.7l0,0c0.4,0.8,0.1,1.8-0.7,2.2l-31.7,15.7
			c-0.8,0.4-1.8,0.1-2.2-0.7l0,0C586,2092.5,586.4,2091.5,587.2,2091.1z"/>
	</g>
	<g>
		<path class="st3" d="M474.1,1910.2c-9.5,6.3-29.9,14.9-29.9,14.9s-4.9-5.9-4.5-14.9"/>
		<path class="st4" d="M442.7,1923.6l31.7-15.7c0.8-0.4,1.8-0.1,2.2,0.7l0,0c0.4,0.8,0.1,1.8-0.7,2.2l-31.7,15.7
			c-0.8,0.4-1.8,0.1-2.2-0.7l0,0C441.5,1925,441.9,1924,442.7,1923.6z"/>
	</g>
	<g>
		<path class="st3" d="M476.8,2078.6c0.4,9-4.5,14.9-4.5,14.9s-20.4-8.6-29.9-14.9"/>
		<path class="st4" d="M474.5,2094.2L474.5,2094.2c-0.4,0.8-1.4,1.1-2.2,0.7l-31.7-15.7c-0.8-0.4-1.1-1.4-0.7-2.2l0,0
			c0.4-0.8,1.4-1.1,2.2-0.7l31.7,15.7C474.6,2092.4,475,2093.4,474.5,2094.2z"/>
	</g>
	<g>
		<path class="st3" d="M418.1,1544.5c6.3,9.5,14.9,29.9,14.9,29.9s-5.9,4.9-14.9,4.5"/>
		<path class="st4" d="M431.5,1576l-15.7-31.7c-0.4-0.8-0.1-1.8,0.7-2.2l0,0c0.8-0.4,1.8-0.1,2.2,0.7l15.7,31.7
			c0.4,0.8,0.1,1.8-0.7,2.2l0,0C432.9,1577.2,431.9,1576.8,431.5,1576z"/>
	</g>
	<g>
		<path class="st3" d="M418.1,1385.3c6.3,9.5,14.9,29.9,14.9,29.9s-5.9,4.9-14.9,4.5"/>
		<path class="st4" d="M431.5,1416.8l-15.7-31.7c-0.4-0.8-0.1-1.8,0.7-2.2l0,0c0.8-0.4,1.8-0.1,2.2,0.7l15.7,31.7
			c0.4,0.8,0.1,1.8-0.7,2.2l0,0C432.9,1417.9,431.9,1417.6,431.5,1416.8z"/>
	</g>
	<g>
		<path class="st3" d="M437.1,1268c9.5-6.3,29.9-14.9,29.9-14.9s4.9,5.9,4.5,14.9"/>
		<path class="st4" d="M468.6,1254.6l-31.7,15.7c-0.8,0.4-1.8,0.1-2.2-0.7l0,0c-0.4-0.8-0.1-1.8,0.7-2.2l31.7-15.7
			c0.8-0.4,1.8-0.1,2.2,0.7l0,0C469.7,1253.2,469.4,1254.2,468.6,1254.6z"/>
	</g>
	<g>
		<path class="st3" d="M418.1,1123.6c9-0.4,14.9,4.5,14.9,4.5s-8.6,20.4-14.9,29.9"/>
		<path class="st4" d="M433.7,1125.8L433.7,1125.8c0.8,0.4,1.1,1.4,0.7,2.2l-15.7,31.7c-0.4,0.8-1.4,1.1-2.2,0.7l0,0
			c-0.8-0.4-1.1-1.4-0.7-2.2l15.7-31.7C431.9,1125.7,432.9,1125.4,433.7,1125.8z"/>
	</g>
	<g>
		<path class="st3" d="M418.1,1051.5c6.3,9.5,14.9,29.9,14.9,29.9s-5.9,4.9-14.9,4.5"/>
		<path class="st4" d="M431.5,1083l-15.7-31.7c-0.4-0.8-0.1-1.8,0.7-2.2l0,0c0.8-0.4,1.8-0.1,2.2,0.7l15.7,31.7
			c0.4,0.8,0.1,1.8-0.7,2.2l0,0C432.9,1084.1,431.9,1083.8,431.5,1083z"/>
	</g>
	<g>
		<path class="st3" d="M418.1,883.4c6.3,9.5,14.9,29.9,14.9,29.9s-5.9,4.9-14.9,4.5"/>
		<path class="st4" d="M431.5,914.9l-15.7-31.7c-0.4-0.8-0.1-1.8,0.7-2.2l0,0c0.8-0.4,1.8-0.1,2.2,0.7l15.7,31.7
			c0.4,0.8,0.1,1.8-0.7,2.2l0,0C432.9,916,431.9,915.7,431.5,914.9z"/>
	</g>
	<g>
		<path class="st3" d="M418.1,764.8c6.3,9.5,14.9,29.9,14.9,29.9s-5.9,4.9-14.9,4.5"/>
		<path class="st4" d="M431.5,796.3l-15.7-31.7c-0.4-0.8-0.1-1.8,0.7-2.2l0,0c0.8-0.4,1.8-0.1,2.2,0.7l15.7,31.7
			c0.4,0.8,0.1,1.8-0.7,2.2l0,0C432.9,797.4,431.9,797.1,431.5,796.3z"/>
	</g>
	<g>
		<path class="st3" d="M486.7,752.9c-9,0.4-14.9-4.5-14.9-4.5s8.6-20.4,14.9-29.9"/>
		<path class="st4" d="M471.1,750.7L471.1,750.7c-0.8-0.4-1.1-1.4-0.7-2.2l15.7-31.7c0.4-0.8,1.4-1.1,2.2-0.7l0,0
			c0.8,0.4,1.1,1.4,0.7,2.2L473.3,750C472.9,750.8,471.9,751.1,471.1,750.7z"/>
	</g>
	<g>
		<path class="st3" d="M486.7,1087.3c-9,0.4-14.9-4.5-14.9-4.5s8.6-20.4,14.9-29.9"/>
		<path class="st4" d="M471.1,1085.2L471.1,1085.2c-0.8-0.4-1.1-1.4-0.7-2.2l15.7-31.8c0.4-0.8,1.4-1.1,2.2-0.7l0,0
			c0.8,0.4,1.1,1.4,0.7,2.2l-15.7,31.7C472.9,1085.2,471.9,1085.6,471.1,1085.2z"/>
	</g>
	<g>
		<path class="st3" d="M486.7,941.8c-9,0.4-14.9-4.5-14.9-4.5s8.6-20.4,14.9-29.9"/>
		<path class="st4" d="M471.1,939.7L471.1,939.7c-0.8-0.4-1.1-1.4-0.7-2.2l15.7-31.8c0.4-0.8,1.4-1.1,2.2-0.7l0,0
			c0.8,0.4,1.1,1.4,0.7,2.2l-15.7,31.7C472.9,939.7,471.9,940.1,471.1,939.7z"/>
	</g>
	<g>
		<path class="st3" d="M486.7,1245.1c-6.3-9.5-14.9-29.9-14.9-29.9s5.9-4.9,14.9-4.5"/>
		<path class="st4" d="M473.3,1213.6l15.7,31.7c0.4,0.8,0.1,1.8-0.7,2.2l0,0c-0.8,0.4-1.8,0.1-2.2-0.7l-15.7-31.7
			c-0.4-0.8-0.1-1.8,0.7-2.2l0,0C471.9,1212.5,472.9,1212.8,473.3,1213.6z"/>
	</g>
</g>
<g id="Слой_4">
	<g class="st5">
		<path d="M331.4,744.3h-5v6.6h-2.6v-6.6h-14.2v-1.9l13.4-16.7h2.9l-13,16.3h10.9v-5.8h2.5v5.8h5v2.3H331.4L331.4,744.3z"/>
		<path d="M350.8,748.6v2.3h-17.7v-1.8l10.5-10.3c1.3-1.3,2.2-2.4,2.7-3.4s0.7-1.9,0.7-2.9c0-1.5-0.5-2.6-1.5-3.5
			c-1-0.9-2.5-1.2-4.4-1.2c-3,0-5.2,0.9-6.9,2.8l-1.8-1.6c1-1.2,2.2-2,3.8-2.7c1.5-0.6,3.2-0.9,5.2-0.9c2.6,0,4.6,0.6,6.1,1.8
			s2.2,2.9,2.2,5c0,1.3-0.3,2.5-0.9,3.7s-1.7,2.6-3.3,4.1l-8.6,8.4h13.9L350.8,748.6L350.8,748.6z"/>
		<path d="M374.7,744.3h-5v6.6H367v-6.6h-14.2v-1.9l13.4-16.7h2.9l-13,16.3H367v-5.8h2.5v5.8h5v2.3H374.7L374.7,744.3z"/>
	</g>
	<g class="st5">
		<path d="M566.3,746.3h-5v6.6h-2.6v-6.6h-14.2v-1.9l13.4-16.7h2.9l-13,16.3h10.9v-5.8h2.5v5.8h5L566.3,746.3L566.3,746.3z"/>
		<path d="M585.7,750.7v2.3H568v-1.8l10.5-10.3c1.3-1.3,2.2-2.4,2.7-3.4s0.7-1.9,0.7-2.9c0-1.5-0.5-2.6-1.5-3.5
			c-1-0.9-2.5-1.2-4.4-1.2c-3,0-5.2,0.9-6.9,2.8l-1.8-1.6c1-1.2,2.2-2,3.8-2.7c1.5-0.6,3.2-0.9,5.2-0.9c2.6,0,4.6,0.6,6.1,1.8
			c1.5,1.2,2.2,2.9,2.2,5c0,1.3-0.3,2.5-0.9,3.7c-0.6,1.2-1.7,2.6-3.3,4.1l-8.6,8.4h13.9V750.7z"/>
		<path d="M603.6,740.7c1.4,1.3,2.1,3,2.1,5c0,1.4-0.3,2.7-1,3.8c-0.7,1.1-1.7,2-3.1,2.6c-1.4,0.6-3,1-5,1c-1.8,0-3.5-0.3-5.2-0.9
			c-1.6-0.6-2.9-1.4-3.9-2.4l1.3-2.1c0.8,0.9,2,1.6,3.3,2.1c1.4,0.5,2.9,0.8,4.5,0.8c2.1,0,3.7-0.5,4.8-1.3c1.1-0.9,1.7-2.1,1.7-3.7
			c0-1.6-0.6-2.8-1.7-3.7c-1.1-0.9-2.8-1.3-5.1-1.3h-1.8v-1.9l7-8.7h-12.9v-2.3h16.2v1.8l-7.1,9
			C600.2,738.7,602.2,739.4,603.6,740.7z"/>
	</g>
	<g class="st5">
		<path d="M332,876.8h-5v6.6h-2.6v-6.6h-14.2v-1.9l13.4-16.7h2.9l-12.9,16.3h10.9v-5.8h2.5v5.8h5L332,876.8L332,876.8z"/>
		<path d="M351.4,881.1v2.3h-17.7v-1.8l10.5-10.3c1.3-1.3,2.2-2.4,2.7-3.4s0.7-1.9,0.7-2.9c0-1.5-0.5-2.6-1.5-3.5s-2.5-1.2-4.4-1.2
			c-3,0-5.2,0.9-6.9,2.8l-1.8-1.6c1-1.2,2.2-2,3.8-2.7c1.5-0.6,3.2-0.9,5.2-0.9c2.6,0,4.6,0.6,6.1,1.8c1.5,1.2,2.2,2.9,2.2,5
			c0,1.3-0.3,2.5-0.9,3.7s-1.7,2.6-3.3,4.1l-8.6,8.4h13.9L351.4,881.1L351.4,881.1z"/>
		<path d="M369.2,870.5c1.7,1.3,2.5,3.1,2.5,5.5c0,1.5-0.3,2.8-1,3.9c-0.7,1.2-1.7,2.1-3.1,2.7c-1.4,0.7-3,1-5,1
			c-1.8,0-3.5-0.3-5.1-0.9c-1.6-0.6-2.9-1.4-3.9-2.4l1.3-2.1c0.8,0.9,1.9,1.6,3.3,2.1s2.8,0.8,4.4,0.8c2.1,0,3.7-0.5,4.8-1.4
			c1.1-0.9,1.7-2.2,1.7-3.7c0-1.7-0.6-3-1.9-3.9s-3.5-1.3-6.5-1.3h-5.4l1.3-12.6h13.8v2.3h-11.5l-0.9,8h3.2
			C364.9,868.5,367.6,869.2,369.2,870.5z"/>
	</g>
	<g class="st5">
		<path d="M566.9,877.2h-5v6.6h-2.6v-6.6H545v-1.9l13.4-16.7h2.9l-12.9,16.3h10.9v-5.8h2.5v5.8h5L566.9,877.2L566.9,877.2z"/>
		<path d="M586.3,881.5v2.3h-17.7V882l10.5-10.3c1.3-1.3,2.2-2.4,2.7-3.4s0.7-1.9,0.7-2.9c0-1.5-0.5-2.6-1.5-3.5s-2.5-1.2-4.4-1.2
			c-3,0-5.2,0.9-6.9,2.8l-1.8-1.6c1-1.2,2.2-2,3.8-2.7c1.5-0.6,3.2-0.9,5.2-0.9c2.6,0,4.6,0.6,6.1,1.8c1.5,1.2,2.2,2.9,2.2,5
			c0,1.3-0.3,2.5-0.9,3.7c-0.6,1.2-1.7,2.6-3.3,4.1l-8.6,8.4h13.9V881.5z"/>
		<path d="M606.7,881.5v2.3H589V882l10.5-10.3c1.3-1.3,2.2-2.4,2.7-3.4s0.7-1.9,0.7-2.9c0-1.5-0.5-2.6-1.5-3.5s-2.5-1.2-4.4-1.2
			c-3,0-5.2,0.9-6.9,2.8l-1.8-1.6c1-1.2,2.2-2,3.8-2.7c1.5-0.6,3.2-0.9,5.2-0.9c2.6,0,4.6,0.6,6.1,1.8c1.5,1.2,2.2,2.9,2.2,5
			c0,1.3-0.3,2.5-0.9,3.7c-0.6,1.2-1.7,2.6-3.3,4.1l-8.6,8.4h13.9V881.5z"/>
	</g>
	<g class="st5">
		<path d="M331.4,1038.6h-5v6.6h-2.6v-6.6h-14.2v-1.9L323,1020h2.9l-12.9,16.3h10.9v-5.8h2.5v5.8h5V1038.6L331.4,1038.6z"/>
		<path d="M350.8,1042.9v2.3h-17.7v-1.8l10.5-10.3c1.3-1.3,2.2-2.4,2.7-3.4s0.7-1.9,0.7-2.9c0-1.5-0.5-2.6-1.5-3.5
			c-1-0.9-2.5-1.2-4.4-1.2c-3,0-5.2,0.9-6.9,2.8l-1.8-1.6c1-1.2,2.2-2,3.8-2.7c1.5-0.6,3.2-0.9,5.2-0.9c2.6,0,4.6,0.6,6.1,1.8
			s2.2,2.9,2.2,5c0,1.3-0.3,2.5-0.9,3.7c-0.6,1.2-1.7,2.6-3.3,4.1l-8.6,8.4h13.9L350.8,1042.9L350.8,1042.9z"/>
		<path d="M368.8,1031c1.3,0.6,2.3,1.5,3,2.6s1.1,2.5,1.1,4s-0.4,2.9-1.1,4.1c-0.7,1.2-1.8,2.1-3.1,2.7c-1.3,0.6-2.8,1-4.4,1
			c-3.3,0-5.9-1.1-7.7-3.3c-1.8-2.2-2.7-5.3-2.7-9.3c0-2.8,0.5-5.2,1.4-7.1c1-1.9,2.3-3.4,4-4.4s3.7-1.5,6-1.5c2.5,0,4.5,0.5,6,1.4
			l-1,2.1c-1.2-0.8-2.8-1.2-4.9-1.2c-2.8,0-5,0.9-6.6,2.6s-2.4,4.3-2.4,7.7c0,0.6,0,1.3,0.1,2.1c0.6-1.4,1.6-2.4,3-3.2
			c1.4-0.8,2.9-1.1,4.7-1.1C366,1030.1,367.5,1030.4,368.8,1031z M368.6,1041.7c1.1-1,1.7-2.3,1.7-4c0-1.7-0.6-3-1.7-4
			s-2.7-1.5-4.6-1.5c-1.3,0-2.4,0.2-3.4,0.7s-1.7,1.1-2.3,2c-0.6,0.8-0.8,1.8-0.8,2.8s0.3,1.8,0.8,2.7c0.5,0.8,1.3,1.5,2.3,2
			s2.2,0.8,3.6,0.8C366,1043.2,367.4,1042.7,368.6,1041.7z"/>
	</g>
	<g class="st5">
		<path d="M565.7,1034.9h-5v6.6h-2.6v-6.6h-14.2v-1.9l13.4-16.7h2.9l-12.9,16.3h10.9v-5.8h2.5v5.8h5L565.7,1034.9L565.7,1034.9z"/>
		<path d="M585.2,1039.2v2.3h-17.7v-1.8l10.5-10.3c1.3-1.3,2.2-2.4,2.7-3.4s0.7-1.9,0.7-2.9c0-1.5-0.5-2.6-1.5-3.5s-2.5-1.2-4.4-1.2
			c-3,0-5.2,0.9-6.9,2.8l-1.8-1.6c1-1.2,2.2-2,3.8-2.7c1.5-0.6,3.2-0.9,5.2-0.9c2.6,0,4.6,0.6,6.1,1.8s2.2,2.9,2.2,5
			c0,1.3-0.3,2.5-0.9,3.7c-0.6,1.2-1.7,2.6-3.3,4.1l-8.6,8.4h13.9V1039.2z"/>
		<path d="M595.4,1016.3v25.2h-2.6v-22.9h-5.9v-2.3H595.4z"/>
	</g>
	<g class="st5">
		<path d="M332,1167.1h-5v6.6h-2.6v-6.6h-14.2v-1.9l13.4-16.7h2.9l-12.9,16.3h10.9v-5.8h2.5v5.8h5L332,1167.1L332,1167.1z"/>
		<path d="M351.4,1171.4v2.3h-17.7v-1.8l10.5-10.3c1.3-1.3,2.2-2.4,2.7-3.4s0.7-1.9,0.7-2.9c0-1.5-0.5-2.6-1.5-3.5s-2.5-1.2-4.4-1.2
			c-3,0-5.2,0.9-6.9,2.8l-1.8-1.6c1-1.2,2.2-2,3.8-2.7c1.5-0.6,3.2-0.9,5.2-0.9c2.6,0,4.6,0.6,6.1,1.8c1.5,1.2,2.2,2.9,2.2,5
			c0,1.3-0.3,2.5-0.9,3.7c-0.6,1.2-1.7,2.6-3.3,4.1l-8.6,8.4h13.9L351.4,1171.4L351.4,1171.4z"/>
		<path d="M372.3,1148.5v1.8l-10.5,23.4H359l10.4-22.9h-13v4.7h-2.6v-7H372.3z"/>
	</g>
	<g class="st5">
		<path d="M566.3,1996.1h-5v6.6h-2.6v-6.6h-14.2v-1.9l13.4-16.7h2.9l-12.9,16.3h10.9v-5.8h2.5v5.8h5L566.3,1996.1L566.3,1996.1z"/>
		<path d="M573.5,2001.4c-1.5-1-2.7-2.5-3.6-4.4c-0.9-1.9-1.3-4.2-1.3-6.8s0.4-4.9,1.3-6.8c0.9-1.9,2-3.4,3.6-4.4
			c1.5-1,3.3-1.5,5.2-1.5s3.7,0.5,5.2,1.5s2.7,2.5,3.6,4.4c0.9,1.9,1.3,4.2,1.3,6.8s-0.4,4.9-1.3,6.8c-0.9,1.9-2.1,3.4-3.6,4.4
			s-3.3,1.5-5.2,1.5S575,2002.4,573.5,2001.4z M582.6,1999.3c1.1-0.8,2-2,2.6-3.6s0.9-3.4,0.9-5.7s-0.3-4.1-0.9-5.7
			c-0.6-1.6-1.5-2.7-2.6-3.6c-1.1-0.8-2.4-1.2-3.9-1.2s-2.8,0.4-3.9,1.2c-1.1,0.8-2,2-2.6,3.6s-0.9,3.4-0.9,5.7s0.3,4.1,0.9,5.7
			c0.6,1.6,1.5,2.7,2.6,3.6c1.1,0.8,2.4,1.2,3.9,1.2C580.2,2000.5,581.5,2000.1,582.6,1999.3z"/>
		<path d="M610,1977.5v1.8l-10.5,23.4h-2.8l10.4-22.9h-13v4.7h-2.6v-7H610z"/>
	</g>
	<g class="st5">
		<path d="M756.1,1996.1h-5v6.6h-2.6v-6.6h-14.2v-1.9l13.4-16.7h2.9l-12.9,16.3h10.9v-5.8h2.5v5.8h5L756.1,1996.1L756.1,1996.1z"/>
		<path d="M763.3,2001.4c-1.5-1-2.7-2.5-3.6-4.4c-0.9-1.9-1.3-4.2-1.3-6.8s0.4-4.9,1.3-6.8c0.9-1.9,2-3.4,3.6-4.4
			c1.5-1,3.3-1.5,5.2-1.5s3.7,0.5,5.2,1.5s2.7,2.5,3.6,4.4c0.9,1.9,1.3,4.2,1.3,6.8s-0.4,4.9-1.3,6.8c-0.9,1.9-2.1,3.4-3.6,4.4
			s-3.3,1.5-5.2,1.5S764.8,2002.4,763.3,2001.4z M772.4,1999.3c1.1-0.8,2-2,2.6-3.6s0.9-3.4,0.9-5.7s-0.3-4.1-0.9-5.7
			c-0.6-1.6-1.5-2.7-2.6-3.6c-1.1-0.8-2.4-1.2-3.9-1.2s-2.8,0.4-3.9,1.2c-1.1,0.8-2,2-2.6,3.6s-0.9,3.4-0.9,5.7s0.3,4.1,0.9,5.7
			c0.6,1.6,1.5,2.7,2.6,3.6c1.1,0.8,2.4,1.2,3.9,1.2S771.3,2000.1,772.4,1999.3z"/>
		<path d="M797.1,1988.5c1.3,0.6,2.3,1.5,3,2.6s1.1,2.5,1.1,4s-0.4,2.9-1.1,4.1c-0.7,1.2-1.8,2.1-3.1,2.7s-2.8,1-4.4,1
			c-3.3,0-5.9-1.1-7.7-3.3c-1.8-2.2-2.7-5.3-2.7-9.3c0-2.8,0.5-5.2,1.4-7.1c1-1.9,2.3-3.4,4-4.4s3.7-1.5,6-1.5c2.5,0,4.5,0.5,6,1.4
			l-1,2.1c-1.2-0.8-2.8-1.2-4.9-1.2c-2.8,0-5,0.9-6.6,2.6s-2.4,4.3-2.4,7.7c0,0.6,0,1.3,0.1,2.1c0.6-1.4,1.6-2.4,3-3.2
			c1.4-0.8,2.9-1.1,4.7-1.1C794.4,1987.6,795.9,1987.9,797.1,1988.5z M797,1999.2c1.1-1,1.7-2.3,1.7-4s-0.6-3-1.7-4
			c-1.1-1-2.7-1.5-4.6-1.5c-1.3,0-2.4,0.2-3.4,0.7s-1.7,1.1-2.3,2c-0.6,0.8-0.8,1.8-0.8,2.8s0.3,1.8,0.8,2.7c0.5,0.8,1.3,1.5,2.3,2
			s2.2,0.8,3.6,0.8C794.3,2000.7,795.8,2000.2,797,1999.2z"/>
	</g>
	<g class="st5">
		<path d="M946.7,1996.1h-5v6.6h-2.6v-6.6h-14.2v-1.9l13.4-16.7h2.9l-12.9,16.3h10.9v-5.8h2.5v5.8h5L946.7,1996.1L946.7,1996.1z"/>
		<path d="M954,2001.4c-1.5-1-2.7-2.5-3.6-4.4c-0.9-1.9-1.3-4.2-1.3-6.8s0.4-4.9,1.3-6.8c0.9-1.9,2-3.4,3.6-4.4
			c1.5-1,3.3-1.5,5.2-1.5s3.7,0.5,5.2,1.5s2.7,2.5,3.6,4.4c0.9,1.9,1.3,4.2,1.3,6.8s-0.4,4.9-1.3,6.8c-0.9,1.9-2.1,3.4-3.6,4.4
			s-3.3,1.5-5.2,1.5S955.5,2002.4,954,2001.4z M963,1999.3c1.1-0.8,2-2,2.6-3.6s0.9-3.4,0.9-5.7s-0.3-4.1-0.9-5.7
			c-0.6-1.6-1.5-2.7-2.6-3.6c-1.1-0.8-2.4-1.2-3.9-1.2s-2.8,0.4-3.9,1.2c-1.1,0.8-2,2-2.6,3.6s-0.9,3.4-0.9,5.7s0.3,4.1,0.9,5.7
			c0.6,1.6,1.5,2.7,2.6,3.6c1.1,0.8,2.4,1.2,3.9,1.2S961.9,2000.1,963,1999.3z"/>
		<path d="M987.5,1989.8c1.7,1.3,2.5,3.1,2.5,5.5c0,1.5-0.3,2.8-1,3.9c-0.7,1.2-1.7,2.1-3.1,2.7c-1.4,0.7-3,1-5,1
			c-1.8,0-3.5-0.3-5.1-0.9s-2.9-1.4-3.9-2.4l1.3-2.1c0.8,0.9,1.9,1.6,3.3,2.1c1.4,0.5,2.8,0.8,4.4,0.8c2.1,0,3.7-0.5,4.8-1.4
			s1.7-2.2,1.7-3.7c0-1.7-0.6-3-1.9-3.9c-1.3-0.9-3.5-1.3-6.5-1.3h-5.4l1.3-12.6h13.8v2.3h-11.5l-0.9,8h3.2
			C983.2,1987.8,985.9,1988.5,987.5,1989.8z"/>
	</g>
	<g class="st5">
		<path d="M1071,2004.5v5h6.6v2.6h-6.6v14.2h-1.9l-16.7-13.4v-2.9l16.3,12.9V2012h-5.8v-2.5h5.8v-5H1071L1071,2004.5z"/>
		<path d="M1076.2,1997.3c-1,1.5-2.5,2.7-4.4,3.6s-4.2,1.3-6.8,1.3s-4.9-0.4-6.8-1.3s-3.4-2-4.4-3.6c-1-1.5-1.5-3.3-1.5-5.2
			s0.5-3.7,1.5-5.2s2.5-2.7,4.4-3.6s4.2-1.3,6.8-1.3s4.9,0.4,6.8,1.3s3.4,2.1,4.4,3.6s1.5,3.3,1.5,5.2S1077.3,1995.8,1076.2,1997.3z
			 M1074.2,1988.2c-0.8-1.1-2-2-3.6-2.6s-3.4-0.9-5.7-0.9s-4.1,0.3-5.7,0.9s-2.7,1.5-3.6,2.6c-0.8,1.1-1.2,2.4-1.2,3.9
			s0.4,2.8,1.2,3.9c0.8,1.1,2,2,3.6,2.6s3.4,0.9,5.7,0.9s4.1-0.3,5.7-0.9s2.7-1.5,3.6-2.6c0.8-1.1,1.2-2.4,1.2-3.9
			C1075.4,1990.6,1075,1989.3,1074.2,1988.2z"/>
		<path d="M1071,1956.9v5h6.6v2.6h-6.6v14.2h-1.9l-16.7-13.4v-2.9l16.3,12.9v-10.9h-5.8v-2.5h5.8v-5L1071,1956.9L1071,1956.9z"/>
	</g>
	<g class="st5">
		<path d="M1153,2020.8v5h6.6v2.6h-6.6v14.2h-1.9l-16.7-13.4v-2.9l16.3,12.9v-10.9h-5.8v-2.5h5.8v-5L1153,2020.8L1153,2020.8z"/>
		<path d="M1158.3,2013.5c-1,1.5-2.5,2.7-4.4,3.6s-4.2,1.3-6.8,1.3s-4.9-0.4-6.8-1.3s-3.4-2-4.4-3.6c-1-1.5-1.5-3.3-1.5-5.2
			s0.5-3.7,1.5-5.2s2.5-2.7,4.4-3.6s4.2-1.3,6.8-1.3s4.9,0.4,6.8,1.3s3.4,2.1,4.4,3.6s1.5,3.3,1.5,5.2S1159.3,2012,1158.3,2013.5z
			 M1156.3,2004.5c-0.8-1.1-2-2-3.6-2.6s-3.4-0.9-5.7-0.9s-4.1,0.3-5.7,0.9s-2.7,1.5-3.6,2.6c-0.8,1.1-1.2,2.4-1.2,3.9
			s0.4,2.8,1.2,3.9c0.8,1.1,2,2,3.6,2.6s3.4,0.9,5.7,0.9s4.1-0.3,5.7-0.9s2.7-1.5,3.6-2.6c0.8-1.1,1.2-2.4,1.2-3.9
			S1157.1,2005.6,1156.3,2004.5z"/>
		<path d="M1147.4,1980.3c1.3-1.4,3-2.1,5-2.1c1.4,0,2.7,0.3,3.8,1c1.1,0.7,2,1.7,2.6,3.1s1,3,1,5c0,1.8-0.3,3.5-0.9,5.2
			c-0.6,1.6-1.4,2.9-2.4,3.9l-2.1-1.3c0.9-0.8,1.6-2,2.1-3.3c0.5-1.4,0.8-2.9,0.8-4.5c0-2.1-0.5-3.7-1.3-4.8
			c-0.9-1.1-2.1-1.7-3.7-1.7s-2.8,0.6-3.7,1.7c-0.9,1.1-1.3,2.8-1.3,5.1v1.8h-1.9l-8.7-7v12.9h-2.3v-16.2h1.8l9,7.1
			C1145.4,1983.7,1146.1,1981.7,1147.4,1980.3z"/>
	</g>
	<g class="st5">
		<path d="M1231.7,2020.2v5h6.6v2.6h-6.6v14.2h-1.9l-16.7-13.4v-2.9l16.3,12.9v-10.9h-5.8v-2.5h5.8v-5L1231.7,2020.2L1231.7,2020.2z
			"/>
		<path d="M1237,2013c-1,1.5-2.5,2.7-4.4,3.6s-4.2,1.3-6.8,1.3s-4.9-0.4-6.8-1.3s-3.4-2-4.4-3.6c-1-1.5-1.5-3.3-1.5-5.2
			s0.5-3.7,1.5-5.2s2.5-2.7,4.4-3.6s4.2-1.3,6.8-1.3s4.9,0.4,6.8,1.3s3.4,2.1,4.4,3.6s1.5,3.3,1.5,5.2S1238,2011.4,1237,2013z
			 M1234.9,2003.9c-0.8-1.1-2-2-3.6-2.6s-3.4-0.9-5.7-0.9s-4.1,0.3-5.7,0.9s-2.7,1.5-3.6,2.6c-0.8,1.1-1.2,2.4-1.2,3.9
			s0.4,2.8,1.2,3.9c0.8,1.1,2,2,3.6,2.6s3.4,0.9,5.7,0.9s4.1-0.3,5.7-0.9s2.7-1.5,3.6-2.6c0.8-1.1,1.2-2.4,1.2-3.9
			S1235.7,2005,1234.9,2003.9z"/>
		<path d="M1236,1976.8h2.3v17.7h-1.8l-10.3-10.5c-1.3-1.3-2.4-2.2-3.4-2.7c-0.9-0.5-1.9-0.7-2.9-0.7c-1.5,0-2.6,0.5-3.5,1.5
			c-0.8,1-1.2,2.5-1.2,4.4c0,3,0.9,5.2,2.8,6.9l-1.6,1.8c-1.2-1-2-2.2-2.7-3.8c-0.6-1.5-0.9-3.2-0.9-5.2c0-2.6,0.6-4.6,1.8-6.1
			c1.2-1.5,2.9-2.2,5-2.2c1.3,0,2.5,0.3,3.7,0.9s2.6,1.7,4.1,3.3l8.4,8.6v-13.9L1236,1976.8L1236,1976.8z"/>
	</g>
	<g class="st5">
		<path d="M1413.5,2002.7h-5v6.6h-2.6v-6.6h-14.2v-1.9l13.4-16.7h2.9l-12.9,16.3h10.9v-5.8h2.5v5.8h5L1413.5,2002.7L1413.5,2002.7z"
			/>
		<path d="M1420.7,2007.9c-1.5-1-2.7-2.5-3.6-4.4s-1.3-4.2-1.3-6.8s0.4-4.9,1.3-6.8s2-3.4,3.6-4.4c1.5-1,3.3-1.5,5.2-1.5
			s3.7,0.5,5.2,1.5s2.7,2.5,3.6,4.4s1.3,4.2,1.3,6.8s-0.4,4.9-1.3,6.8s-2.1,3.4-3.6,4.4s-3.3,1.5-5.2,1.5S1422.2,2009,1420.7,2007.9
			z M1429.7,2005.9c1.1-0.8,2-2,2.6-3.6s0.9-3.4,0.9-5.7s-0.3-4.1-0.9-5.7s-1.5-2.7-2.6-3.6c-1.1-0.8-2.4-1.2-3.9-1.2
			s-2.8,0.4-3.9,1.2c-1.1,0.8-2,2-2.6,3.6s-0.9,3.4-0.9,5.7s0.3,4.1,0.9,5.7s1.5,2.7,2.6,3.6c1.1,0.8,2.4,1.2,3.9,1.2
			C1427.3,2007.1,1428.6,2006.7,1429.7,2005.9z"/>
		<path d="M1446.6,1984.1v25.2h-2.6v-22.9h-5.9v-2.3L1446.6,1984.1L1446.6,1984.1z"/>
	</g>
	<g class="st5">
		<path d="M1681.6,2003.1h-5v6.6h-2.6v-6.6h-14.2v-1.9l13.4-16.7h2.9l-12.9,16.3h10.9v-5.8h2.5v5.8h5L1681.6,2003.1L1681.6,2003.1z"
			/>
		<path d="M1688.9,2008.4c-1.5-1-2.7-2.5-3.6-4.4s-1.3-4.2-1.3-6.8s0.4-4.9,1.3-6.8s2-3.4,3.6-4.4c1.5-1,3.3-1.5,5.2-1.5
			s3.7,0.5,5.2,1.5s2.7,2.5,3.6,4.4s1.3,4.2,1.3,6.8s-0.4,4.9-1.3,6.8s-2.1,3.4-3.6,4.4s-3.3,1.5-5.2,1.5
			S1690.4,2009.4,1688.9,2008.4z M1697.9,2006.3c1.1-0.8,2-2,2.6-3.6s0.9-3.4,0.9-5.7s-0.3-4.1-0.9-5.7s-1.5-2.7-2.6-3.6
			c-1.1-0.8-2.4-1.2-3.9-1.2s-2.8,0.4-3.9,1.2c-1.1,0.8-2,2-2.6,3.6s-0.9,3.4-0.9,5.7s0.3,4.1,0.9,5.7s1.5,2.7,2.6,3.6
			c1.1,0.8,2.4,1.2,3.9,1.2S1696.8,2007.1,1697.9,2006.3z"/>
		<path d="M1712.7,2008.4c-1.5-1-2.7-2.5-3.6-4.4s-1.3-4.2-1.3-6.8s0.4-4.9,1.3-6.8s2-3.4,3.6-4.4c1.5-1,3.3-1.5,5.2-1.5
			s3.7,0.5,5.2,1.5s2.7,2.5,3.6,4.4s1.3,4.2,1.3,6.8s-0.4,4.9-1.3,6.8s-2.1,3.4-3.6,4.4s-3.3,1.5-5.2,1.5
			S1714.2,2009.4,1712.7,2008.4z M1721.8,2006.3c1.1-0.8,2-2,2.6-3.6s0.9-3.4,0.9-5.7s-0.3-4.1-0.9-5.7s-1.5-2.7-2.6-3.6
			c-1.1-0.8-2.4-1.2-3.9-1.2s-2.8,0.4-3.9,1.2c-1.1,0.8-2,2-2.6,3.6s-0.9,3.4-0.9,5.7s0.3,4.1,0.9,5.7s1.5,2.7,2.6,3.6
			c1.1,0.8,2.4,1.2,3.9,1.2C1719.3,2007.5,1720.6,2007.1,1721.8,2006.3z"/>
	</g>
	<g class="st5">
		<path d="M2021.2,2078.5h-5v6.6h-2.6v-6.6h-14.2v-1.9l13.4-16.7h2.9l-12.9,16.3h10.9v-5.8h2.5v5.8h5L2021.2,2078.5L2021.2,2078.5z"
			/>
		<path d="M2040.6,2082.8v2.3h-17.7v-1.8l10.5-10.3c1.3-1.3,2.2-2.4,2.7-3.4s0.7-1.9,0.7-2.9c0-1.5-0.5-2.6-1.5-3.5
			c-1-0.8-2.5-1.2-4.4-1.2c-3,0-5.2,0.9-6.9,2.8l-1.8-1.6c1-1.2,2.2-2,3.8-2.7c1.5-0.6,3.2-0.9,5.2-0.9c2.6,0,4.6,0.6,6.1,1.8
			c1.5,1.2,2.2,2.9,2.2,5c0,1.3-0.3,2.5-0.9,3.7s-1.7,2.6-3.3,4.1l-8.6,8.4h13.9L2040.6,2082.8L2040.6,2082.8z"/>
		<path d="M2048.5,2083.8c-1.5-1-2.7-2.5-3.6-4.4c-0.9-1.9-1.3-4.2-1.3-6.8s0.4-4.9,1.3-6.8c0.9-1.9,2-3.4,3.6-4.4
			c1.5-1,3.3-1.5,5.2-1.5s3.7,0.5,5.2,1.5s2.7,2.5,3.6,4.4c0.9,1.9,1.3,4.2,1.3,6.8s-0.4,4.9-1.3,6.8c-0.9,1.9-2.1,3.4-3.6,4.4
			s-3.3,1.5-5.2,1.5C2051.8,2085.4,2050.1,2084.9,2048.5,2083.8z M2057.6,2081.8c1.1-0.8,2-2,2.6-3.6c0.6-1.6,0.9-3.4,0.9-5.7
			c0-2.3-0.3-4.1-0.9-5.7c-0.6-1.6-1.5-2.7-2.6-3.6c-1.1-0.8-2.4-1.2-3.9-1.2s-2.8,0.4-3.9,1.2c-1.1,0.8-2,2-2.6,3.6
			c-0.6,1.6-0.9,3.4-0.9,5.7c0,2.3,0.3,4.1,0.9,5.7c0.6,1.6,1.5,2.7,2.6,3.6c1.1,0.8,2.4,1.2,3.9,1.2
			C2055.2,2083,2056.5,2082.6,2057.6,2081.8z"/>
	</g>
	<g class="st5">
		<path d="M1867.6,2238.7h-5v6.6h-2.6v-6.6h-14.2v-1.9l13.4-16.7h2.9l-12.9,16.3h10.9v-5.8h2.5v5.8h5L1867.6,2238.7L1867.6,2238.7z"
			/>
		<path d="M1876.1,2220.1v25.2h-2.6v-22.9h-5.9v-2.3L1876.1,2220.1L1876.1,2220.1z"/>
		<path d="M1897.6,2223.2c1.8,2.2,2.7,5.3,2.7,9.3c0,2.8-0.5,5.2-1.4,7.1c-1,1.9-2.3,3.4-4,4.4s-3.7,1.5-6,1.5c-2.5,0-4.5-0.5-6-1.4
			l1-2.1c1.2,0.8,2.8,1.2,4.9,1.2c2.8,0,5-0.9,6.6-2.6c1.6-1.8,2.4-4.3,2.4-7.7c0-0.6,0-1.3-0.1-2.1c-0.6,1.4-1.6,2.4-3,3.2
			c-1.4,0.8-2.9,1.1-4.7,1.1c-1.7,0-3.1-0.3-4.4-0.9c-1.3-0.6-2.3-1.5-3-2.6c-0.7-1.1-1.1-2.5-1.1-4s0.4-2.9,1.1-4.1
			s1.8-2.1,3.1-2.7c1.3-0.6,2.8-1,4.4-1C1893.3,2219.9,1895.8,2221,1897.6,2223.2z M1893.6,2232.3c1-0.5,1.7-1.1,2.3-2
			c0.6-0.8,0.8-1.8,0.8-2.8s-0.3-1.8-0.8-2.7c-0.5-0.8-1.3-1.5-2.3-2s-2.2-0.8-3.6-0.8c-1.8,0-3.3,0.5-4.4,1.5s-1.7,2.3-1.7,4
			s0.6,3,1.7,4s2.7,1.5,4.6,1.5C1891.5,2233,1892.6,2232.8,1893.6,2232.3z"/>
	</g>
	<g class="st5">
		<path d="M1681.1,2238.7h-5v6.6h-2.6v-6.6h-14.2v-1.9l13.4-16.7h2.9l-12.9,16.3h10.9v-5.8h2.5v5.8h5L1681.1,2238.7L1681.1,2238.7z"
			/>
		<path d="M1689.5,2220.1v25.2h-2.6v-22.9h-5.9v-2.3L1689.5,2220.1L1689.5,2220.1z"/>
		<path d="M1713.6,2234.5c0.9,1.1,1.3,2.3,1.3,3.8s-0.4,2.7-1.2,3.8c-0.8,1.1-1.9,1.9-3.4,2.5c-1.5,0.6-3.2,0.9-5.2,0.9
			c-3,0-5.4-0.6-7.1-1.9s-2.6-3.1-2.6-5.3c0-1.5,0.4-2.8,1.2-3.8c0.8-1,2-1.8,3.6-2.4c-1.3-0.5-2.3-1.2-3-2.2c-0.7-0.9-1-2.1-1-3.4
			c0-2,0.8-3.7,2.4-4.9s3.7-1.8,6.4-1.8c1.8,0,3.3,0.3,4.7,0.8s2.4,1.3,3.1,2.3s1.1,2.2,1.1,3.5s-0.3,2.4-1,3.4
			c-0.7,0.9-1.7,1.7-3,2.2C1711.6,2232.7,1712.8,2233.5,1713.6,2234.5z M1710.3,2242c1.3-0.9,1.9-2.1,1.9-3.7c0-1.6-0.6-2.8-1.9-3.7
			s-3-1.3-5.2-1.3s-3.9,0.4-5.2,1.3c-1.3,0.9-1.9,2.1-1.9,3.7c0,1.6,0.6,2.8,1.9,3.7c1.2,0.9,3,1.3,5.2,1.3
			C1707.3,2243.4,1709.1,2242.9,1710.3,2242z M1700.5,2230c1.1,0.8,2.6,1.2,4.6,1.2c1.9,0,3.5-0.4,4.6-1.2s1.7-1.9,1.7-3.3
			c0-1.4-0.6-2.5-1.7-3.3s-2.7-1.2-4.6-1.2s-3.4,0.4-4.6,1.2c-1.1,0.8-1.7,1.9-1.7,3.3C1698.8,2228.1,1699.4,2229.2,1700.5,2230z"/>
	</g>
	<g class="st5">
		<path d="M2006.6,2265v8h-2.5v-5.7h-22v5.7h-2.5v-8h1.3c1.7-0.1,2.8-1.4,3.5-3.9c0.6-2.5,1-6.1,1.2-10.8l0.3-8.2h17v22.9H2006.6z
			 M1987,2260c-0.5,2.5-1.3,4.1-2.4,5h15.5v-20.6H1988l-0.2,6.1C1987.8,2254.3,1987.5,2257.5,1987,2260z"/>
		<path d="M2027.4,2258.6h-15.8c0.1,2,0.9,3.6,2.3,4.8c1.4,1.2,3.1,1.8,5.2,1.8c1.2,0,2.3-0.2,3.2-0.6c0.9-0.4,1.8-1,2.6-1.9
			l1.4,1.7c-0.8,1-1.9,1.8-3.2,2.3c-1.3,0.5-2.6,0.8-4.2,0.8c-1.9,0-3.7-0.4-5.2-1.2c-1.5-0.8-2.7-2-3.5-3.4c-0.8-1.5-1.3-3.1-1.3-5
			c0-1.8,0.4-3.5,1.2-5c0.8-1.5,1.9-2.6,3.3-3.4s3-1.2,4.7-1.2s3.3,0.4,4.7,1.2c1.4,0.8,2.5,2,3.3,3.4c0.8,1.5,1.2,3.1,1.2,5
			L2027.4,2258.6z M2013.7,2252.1c-1.2,1.2-1.9,2.7-2.1,4.6h13.4c-0.2-1.9-0.9-3.4-2.1-4.6s-2.8-1.7-4.6-1.7
			C2016.4,2250.4,2014.9,2251,2013.7,2252.1z"/>
		<path d="M2040,2258.8h-4.3v8.4h-2.6v-18.9h2.6v8.3h4.4l6.7-8.3h2.8l-7.5,9.2l8,9.8h-3L2040,2258.8z"/>
		<path d="M2065.9,2250c1.3,1.2,2,3.1,2,5.5v11.7h-2.4v-3c-0.6,1-1.4,1.8-2.5,2.3s-2.4,0.8-4,0.8c-2.1,0-3.8-0.5-5-1.5
			s-1.9-2.3-1.9-4c0-1.6,0.6-2.9,1.7-3.9s3-1.5,5.6-1.5h6v-1.2c0-1.6-0.5-2.9-1.4-3.7c-0.9-0.9-2.2-1.3-4-1.3
			c-1.2,0-2.4,0.2-3.5,0.6c-1.1,0.4-2.1,0.9-2.8,1.6l-1.2-1.9c1-0.8,2.1-1.4,3.5-1.9c1.3-0.4,2.8-0.7,4.2-0.7
			C2062.6,2248.2,2064.5,2248.8,2065.9,2250z M2063,2264.4c1-0.7,1.8-1.6,2.3-2.9v-3.1h-5.9c-3.2,0-4.9,1.1-4.9,3.4
			c0,1.1,0.4,2,1.3,2.6c0.8,0.6,2,1,3.5,1C2060.7,2265.4,2062,2265.1,2063,2264.4z"/>
		<path d="M2074.6,2248.3h2.6v8.4h11.9v-8.4h2.6v18.9h-2.6v-8.4h-11.9v8.4h-2.6V2248.3z"/>
	</g>
	<g class="st5">
		<path d="M1490.4,2239.1h-5v6.6h-2.6v-6.6h-14.2v-1.9l13.4-16.7h2.9l-12.9,16.3h10.9v-5.8h2.5v5.8h5L1490.4,2239.1L1490.4,2239.1z"
			/>
		<path d="M1498.8,2220.6v25.2h-2.6v-22.9h-5.9v-2.3L1498.8,2220.6L1498.8,2220.6z"/>
		<path d="M1522.6,2220.6v1.8l-10.5,23.4h-2.8l10.4-22.9h-13v4.7h-2.6v-7H1522.6z"/>
	</g>
	<g class="st5">
		<path d="M1261.9,2238.7h-5v6.6h-2.6v-6.6H1240v-1.9l13.4-16.7h2.9l-12.9,16.3h10.9v-5.8h2.5v5.8h5L1261.9,2238.7L1261.9,2238.7z"
			/>
		<path d="M1270.3,2220.1v25.2h-2.6v-22.9h-5.9v-2.3L1270.3,2220.1L1270.3,2220.1z"/>
		<path d="M1290.9,2232.4c1.7,1.3,2.5,3.1,2.5,5.5c0,1.5-0.3,2.8-1,3.9c-0.7,1.2-1.7,2.1-3.1,2.7c-1.4,0.7-3,1-5,1
			c-1.8,0-3.5-0.3-5.1-0.9c-1.6-0.6-2.9-1.4-3.9-2.4l1.3-2.1c0.8,0.9,1.9,1.6,3.3,2.1s2.8,0.8,4.4,0.8c2.1,0,3.7-0.5,4.8-1.4
			c1.1-0.9,1.7-2.2,1.7-3.7c0-1.7-0.6-3-1.9-3.9c-1.3-0.9-3.5-1.3-6.5-1.3h-5.4l1.3-12.6h13.8v2.3h-11.5l-0.9,8h3.2
			C1286.6,2230.5,1289.3,2231.1,1290.9,2232.4z"/>
	</g>
	<g class="st5">
		<path d="M1075.1,2251.1v5h6.6v2.6h-6.6v14.2h-1.9l-16.7-13.4v-2.9l16.3,12.9v-10.9h-5.8v-2.5h5.8v-5L1075.1,2251.1L1075.1,2251.1z
			"/>
		<path d="M1056.5,2242.7h25.2v2.6h-22.9v5.9h-2.3L1056.5,2242.7L1056.5,2242.7z"/>
		<path d="M1075.1,2215.2v5h6.6v2.6h-6.6v14.2h-1.9l-16.7-13.4v-2.9l16.3,12.9v-10.9h-5.8v-2.5h5.8v-5H1075.1L1075.1,2215.2z"/>
	</g>
	<g class="st5">
		<path d="M868,2243.9h-5v6.6h-2.6v-6.6h-14.2v-1.9l13.4-16.7h2.9l-12.9,16.3h10.9v-5.8h2.5v5.8h5L868,2243.9L868,2243.9z"/>
		<path d="M876.5,2225.4v25.2h-2.6v-22.9H868v-2.3L876.5,2225.4L876.5,2225.4z"/>
		<path d="M897.1,2238.3c1.4,1.3,2.1,3,2.1,5c0,1.4-0.3,2.7-1,3.8s-1.7,2-3.1,2.6c-1.4,0.6-3,1-5,1c-1.8,0-3.5-0.3-5.2-0.9
			c-1.6-0.6-2.9-1.4-3.9-2.4l1.3-2.1c0.8,0.9,2,1.6,3.3,2.1c1.4,0.5,2.9,0.8,4.5,0.8c2.1,0,3.7-0.5,4.8-1.3c1.1-0.9,1.7-2.1,1.7-3.7
			c0-1.6-0.6-2.8-1.7-3.7c-1.1-0.9-2.8-1.3-5.1-1.3H888v-1.9l7-8.7h-13v-2.3h16.2v1.8l-7.1,9C893.7,2236.3,895.7,2237,897.1,2238.3z
			"/>
	</g>
	<g class="st5">
		<path d="M565.7,2243.9h-5v6.6h-2.6v-6.6h-14.2v-1.9l13.4-16.7h2.9l-12.9,16.3h10.9v-5.8h2.5v5.8h5L565.7,2243.9L565.7,2243.9z"/>
		<path d="M574.2,2225.4v25.2h-2.6v-22.9h-5.9v-2.3L574.2,2225.4L574.2,2225.4z"/>
		<path d="M597.4,2248.3v2.3h-17.7v-1.8l10.5-10.3c1.3-1.3,2.2-2.4,2.7-3.4s0.7-1.9,0.7-2.9c0-1.5-0.5-2.6-1.5-3.5
			c-1-0.9-2.5-1.2-4.4-1.2c-3,0-5.2,0.9-6.9,2.8l-1.8-1.6c1-1.2,2.2-2,3.8-2.7c1.5-0.6,3.2-0.9,5.2-0.9c2.6,0,4.6,0.6,6.1,1.8
			s2.2,2.9,2.2,5c0,1.3-0.3,2.5-0.9,3.7c-0.6,1.2-1.7,2.6-3.3,4.1l-8.6,8.4h13.9V2248.3z"/>
	</g>
	<g class="st5">
		<path d="M369.6,2243.9h-5v6.6H362v-6.6h-14.2v-1.9l13.4-16.7h2.9l-12.9,16.3H362v-5.8h2.5v5.8h5v2.3H369.6L369.6,2243.9z"/>
		<path d="M378.1,2225.4v25.2h-2.6v-22.9h-5.9v-2.3L378.1,2225.4L378.1,2225.4z"/>
		<path d="M391,2225.4v25.2h-2.6v-22.9h-5.9v-2.3L391,2225.4L391,2225.4z"/>
	</g>
</g>
</svg>
