<?xml version="1.0" encoding="utf-8"?>
<!-- Generator: Adobe Illustrator 25.0.1, SVG Export Plug-In . SVG Version: 6.00 Build 0)  -->
<svg version="1.1" id="Слой_1" xmlns="http://www.w3.org/2000/svg" xmlns:xlink="http://www.w3.org/1999/xlink" x="0px" y="0px"
	 viewBox="0 0 2975 2220" style="enable-background:new 0 0 2975 2220;" xml:space="preserve">
<style type="text/css">
	.st0{fill:none;stroke:#0071BC;stroke-width:3;stroke-miterlimit:10;}
	.st1{fill:none;stroke:#4D4D4D;stroke-width:8;stroke-miterlimit:10;}
	.st2{fill:none;stroke:#4D4D4D;stroke-width:9;stroke-miterlimit:10;}
	.st3{opacity:0.5;fill:#C1272D;enable-background:new    ;}
	.st4{fill:#C1272D;}
	.st5{enable-background:new    ;}
</style>
<g id="f2">
	<g id="stairs">
		<g>
			<g>
				<line class="st0" x1="293" y1="1735.8" x2="293" y2="1766.3"/>
				<line class="st0" x1="300.6" y1="1735.8" x2="300.6" y2="1766.3"/>
				<line class="st0" x1="308.2" y1="1735.8" x2="308.2" y2="1766.3"/>
				<line class="st0" x1="315.8" y1="1735.8" x2="315.8" y2="1766.3"/>
				<line class="st0" x1="323.4" y1="1735.8" x2="323.4" y2="1766.3"/>
				<line class="st0" x1="331" y1="1735.8" x2="331" y2="1766.3"/>
				<line class="st0" x1="338.7" y1="1735.8" x2="338.7" y2="1766.3"/>
				<line class="st0" x1="346.3" y1="1735.8" x2="346.3" y2="1766.3"/>
				<line class="st0" x1="353.9" y1="1735.8" x2="353.9" y2="1766.3"/>
				<line class="st0" x1="361.5" y1="1735.8" x2="361.5" y2="1766.3"/>
				<line class="st0" x1="369.1" y1="1735.8" x2="369.1" y2="1766.3"/>
				<line class="st0" x1="376.7" y1="1735.8" x2="376.7" y2="1766.3"/>
				<line class="st0" x1="384.3" y1="1735.8" x2="384.3" y2="1766.3"/>
				<line class="st0" x1="392" y1="1735.8" x2="392" y2="1766.3"/>
			</g>
			<g>
				<line class="st0" x1="293" y1="1770.6" x2="293" y2="1801.1"/>
				<line class="st0" x1="300.6" y1="1770.6" x2="300.6" y2="1801.1"/>
				<line class="st0" x1="308.2" y1="1770.6" x2="308.2" y2="1801.1"/>
				<line class="st0" x1="315.8" y1="1770.6" x2="315.8" y2="1801.1"/>
				<line class="st0" x1="323.4" y1="1770.6" x2="323.4" y2="1801.1"/>
				<line class="st0" x1="331" y1="1770.6" x2="331" y2="1801.1"/>
				<line class="st0" x1="338.7" y1="1770.6" x2="338.7" y2="1801.1"/>
				<line class="st0" x1="346.3" y1="1770.6" x2="346.3" y2="1801.1"/>
				<line class="st0" x1="353.9" y1="1770.6" x2="353.9" y2="1801.1"/>
				<line class="st0" x1="361.5" y1="1770.6" x2="361.5" y2="1801.1"/>
				<line class="st0" x1="369.1" y1="1770.6" x2="369.1" y2="1801.1"/>
				<line class="st0" x1="376.7" y1="1770.6" x2="376.7" y2="1801.1"/>
				<line class="st0" x1="384.3" y1="1770.6" x2="384.3" y2="1801.1"/>
				<line class="st0" x1="392" y1="1770.6" x2="392" y2="1801.1"/>
			</g>
		</g>
		<g>
			<g>
				<line class="st0" x1="554.1" y1="761.6" x2="554.1" y2="792.1"/>
				<line class="st0" x1="561.7" y1="761.6" x2="561.7" y2="792.1"/>
				<line class="st0" x1="569.3" y1="761.6" x2="569.3" y2="792.1"/>
				<line class="st0" x1="576.9" y1="761.6" x2="576.9" y2="792.1"/>
				<line class="st0" x1="584.5" y1="761.6" x2="584.5" y2="792.1"/>
				<line class="st0" x1="592.2" y1="761.6" x2="592.2" y2="792.1"/>
				<line class="st0" x1="599.8" y1="761.6" x2="599.8" y2="792.1"/>
				<line class="st0" x1="607.4" y1="761.6" x2="607.4" y2="792.1"/>
				<line class="st0" x1="615" y1="761.6" x2="615" y2="792.1"/>
				<line class="st0" x1="622.6" y1="761.6" x2="622.6" y2="792.1"/>
				<line class="st0" x1="630.2" y1="761.6" x2="630.2" y2="792.1"/>
				<line class="st0" x1="637.8" y1="761.6" x2="637.8" y2="792.1"/>
				<line class="st0" x1="645.5" y1="761.6" x2="645.5" y2="792.1"/>
				<line class="st0" x1="653.1" y1="761.6" x2="653.1" y2="792.1"/>
			</g>
			<g>
				<line class="st0" x1="554.1" y1="796.4" x2="554.1" y2="826.8"/>
				<line class="st0" x1="561.7" y1="796.4" x2="561.7" y2="826.8"/>
				<line class="st0" x1="569.3" y1="796.4" x2="569.3" y2="826.8"/>
				<line class="st0" x1="576.9" y1="796.4" x2="576.9" y2="826.8"/>
				<line class="st0" x1="584.5" y1="796.4" x2="584.5" y2="826.8"/>
				<line class="st0" x1="592.2" y1="796.4" x2="592.2" y2="826.8"/>
				<line class="st0" x1="599.8" y1="796.4" x2="599.8" y2="826.8"/>
				<line class="st0" x1="607.4" y1="796.4" x2="607.4" y2="826.8"/>
				<line class="st0" x1="615" y1="796.4" x2="615" y2="826.8"/>
				<line class="st0" x1="622.6" y1="796.4" x2="622.6" y2="826.8"/>
				<line class="st0" x1="630.2" y1="796.4" x2="630.2" y2="826.8"/>
				<line class="st0" x1="637.8" y1="796.4" x2="637.8" y2="826.8"/>
				<line class="st0" x1="645.5" y1="796.4" x2="645.5" y2="826.8"/>
				<line class="st0" x1="653.1" y1="796.4" x2="653.1" y2="826.8"/>
			</g>
		</g>
		<g>
			<g>
				<line class="st0" x1="1936.1" y1="1622.5" x2="1892.8" y2="1622.5"/>
				<line class="st0" x1="1936.1" y1="1630.2" x2="1892.8" y2="1630.2"/>
				<line class="st0" x1="1936.1" y1="1637.8" x2="1892.8" y2="1637.8"/>
				<line class="st0" x1="1936.1" y1="1645.4" x2="1892.8" y2="1645.4"/>
				<line class="st0" x1="1936.1" y1="1653" x2="1892.8" y2="1653"/>
				<line class="st0" x1="1936.1" y1="1660.6" x2="1892.8" y2="1660.6"/>
				<line class="st0" x1="1936.1" y1="1668.2" x2="1892.8" y2="1668.2"/>
				<line class="st0" x1="1936.1" y1="1675.9" x2="1892.8" y2="1675.9"/>
				<line class="st0" x1="1936.1" y1="1683.5" x2="1892.8" y2="1683.5"/>
				<line class="st0" x1="1936.1" y1="1691.1" x2="1892.8" y2="1691.1"/>
				<line class="st0" x1="1936.1" y1="1698.7" x2="1892.8" y2="1698.7"/>
				<line class="st0" x1="1936.1" y1="1706.3" x2="1892.8" y2="1706.3"/>
				<line class="st0" x1="1936.1" y1="1713.9" x2="1892.8" y2="1713.9"/>
				<line class="st0" x1="1936.1" y1="1721.5" x2="1892.8" y2="1721.5"/>
			</g>
			<g>
				<line class="st0" x1="1856.4" y1="1622.5" x2="1810.4" y2="1622.5"/>
				<line class="st0" x1="1856.4" y1="1630.2" x2="1810.4" y2="1630.2"/>
				<line class="st0" x1="1856.4" y1="1637.8" x2="1810.4" y2="1637.8"/>
				<line class="st0" x1="1856.4" y1="1645.4" x2="1810.4" y2="1645.4"/>
				<line class="st0" x1="1856.4" y1="1653" x2="1810.4" y2="1653"/>
				<line class="st0" x1="1856.4" y1="1660.6" x2="1810.4" y2="1660.6"/>
				<line class="st0" x1="1856.4" y1="1668.2" x2="1810.4" y2="1668.2"/>
				<line class="st0" x1="1856.4" y1="1675.9" x2="1810.4" y2="1675.9"/>
				<line class="st0" x1="1856.4" y1="1683.5" x2="1810.4" y2="1683.5"/>
				<line class="st0" x1="1856.4" y1="1691.1" x2="1810.4" y2="1691.1"/>
				<line class="st0" x1="1856.4" y1="1698.7" x2="1810.4" y2="1698.7"/>
				<line class="st0" x1="1856.4" y1="1706.3" x2="1810.4" y2="1706.3"/>
				<line class="st0" x1="1856.4" y1="1713.9" x2="1810.4" y2="1713.9"/>
				<line class="st0" x1="1856.4" y1="1721.5" x2="1810.4" y2="1721.5"/>
			</g>
		</g>
	</g>
	<g id="schema">
		<path class="st1" d="M253,239.7"/>
		<polyline class="st2" points="439.8,239.7 253,239.7 253,1975.7 2109.5,1975.7 2109.5,1615.7 1948,1615.7 1948,1504.7 
			1898,1504.7 		"/>
		<path class="st1" d="M434,239.7"/>
		<polyline class="st2" points="1843,1505.7 1796.6,1505.7 1796.6,1555.6 1265,1555.6 1265,1609.7 1104,1609.7 1104,1557.7 
			491,1557.7 491,1402.7 652,1402.7 652,841.7 693.3,841.7 693.3,746.7 653.7,746.7 653.7,239.7 476.8,239.7 		"/>
		<path class="st1" d="M468,236.7"/>
		<path class="st2" d="M2109.5,1975.7"/>
		<path class="st2" d="M2109.5,1615.7"/>
		<path class="st2" d="M2109.5,1738.2"/>
		<line class="st2" x1="1948" y1="1615.7" x2="1948" y2="1738.2"/>
		<polyline class="st2" points="2109.5,1840.1 1948.5,1840.1 1948.5,1975.7 		"/>
		<polyline class="st2" points="1796.6,1555.6 1796.6,1723.2 491.5,1724.2 491,1557.7 		"/>
		<polyline class="st2" points="1948.5,1840.1 1948.5,1815 253,1815 		"/>
		<polyline class="st2" points="253,1555.6 413.5,1555.6 413.5,239.7 		"/>
		<path class="st2" d="M652,841.7"/>
		<line class="st2" x1="491" y1="751.2" x2="491" y2="239.7"/>
		<line class="st2" x1="491" y1="926.7" x2="491" y2="837.2"/>
		<path class="st2" d="M491,926.7"/>
		<path class="st2" d="M491,1398.2"/>
		<line class="st2" x1="491" y1="1402.7" x2="491" y2="1398.2"/>
		<line class="st2" x1="1796.6" y1="1975.7" x2="1796.6" y2="1815"/>
		<line class="st2" x1="1948" y1="1895.3" x2="1948" y2="1734.7"/>
		<path class="st2" d="M1672.5,1723.3"/>
		<path class="st2" d="M1672.5,1555.6"/>
		<line class="st2" x1="1573.1" y1="1555.6" x2="1573.1" y2="1723.3"/>
		<line class="st2" x1="1573.1" y1="1815" x2="1573.1" y2="1975.7"/>
		<line class="st2" x1="1265" y1="1609.7" x2="1265" y2="1723.3"/>
		<line class="st2" x1="1188.6" y1="1609.7" x2="1188.6" y2="1723.3"/>
		<path class="st2" d="M1265,1975.7"/>
		<path class="st2" d="M1265,1815"/>
		<line class="st2" x1="1104" y1="1609.7" x2="1104" y2="1723.8"/>
		<line class="st2" x1="1104" y1="1815" x2="1104" y2="1975.7"/>
		<line class="st2" x1="1032.6" y1="1815" x2="1032.6" y2="1975.7"/>
		<line class="st2" x1="1028" y1="1557" x2="1028" y2="1723.2"/>
		<line class="st2" x1="871.8" y1="1557.7" x2="871.8" y2="1724.2"/>
		<path class="st2" d="M892,1975.7"/>
		<path class="st2" d="M892,1815"/>
		<line class="st2" x1="1419.3" y1="1815" x2="1419.3" y2="1975.7"/>
		<path class="st2" d="M1207.3,1975.7"/>
		<path class="st2" d="M1207.3,1815"/>
		<line class="st2" x1="657.3" y1="1815" x2="657.3" y2="1975.7"/>
		<line class="st2" x1="732.8" y1="1815" x2="732.8" y2="1975.7"/>
		<line class="st2" x1="642.4" y1="1557.7" x2="642.4" y2="1724.2"/>
		<line class="st2" x1="491" y1="1815" x2="491" y2="1975.7"/>
		<path class="st2" d="M482.6,1724.2"/>
		<path class="st2" d="M491.5,1724.2"/>
		<polyline class="st2" points="491.5,1724.2 414.6,1724.2 253,1724.2 		"/>
		<line class="st2" x1="413.5" y1="1555.6" x2="413.5" y2="1724.2"/>
		<line class="st2" x1="253" y1="1255.8" x2="413.5" y2="1255.8"/>
		<line class="st2" x1="330.5" y1="1555.6" x2="491" y2="1555.6"/>
		<line class="st2" x1="253" y1="1639.9" x2="413.5" y2="1639.9"/>
		<line class="st2" x1="253" y1="1171.8" x2="413.5" y2="1171.8"/>
		<path class="st2" d="M652,1171.8"/>
		<path class="st2" d="M491,1171.8"/>
		<line class="st2" x1="491" y1="922.2" x2="652" y2="922.2"/>
		<line class="st2" x1="652" y1="841.7" x2="491" y2="841.7"/>
		<line class="st2" x1="653.7" y1="746.7" x2="491" y2="746.7"/>
		<line class="st2" x1="413.5" y1="746.7" x2="253" y2="746.7"/>
		<line class="st2" x1="413.5" y1="931.4" x2="253" y2="931.4"/>
		<line class="st2" x1="574" y1="922.2" x2="413.5" y2="922.2"/>
		<polyline class="st2" points="653.7,610.7 491,610.7 470.6,610.7 		"/>
		<line class="st2" x1="435.5" y1="610.7" x2="253" y2="610.7"/>
		<line class="st2" x1="493.1" y1="469.6" x2="655.8" y2="469.6"/>
		<line class="st2" x1="413.5" y1="460.5" x2="253" y2="460.5"/>
		<path class="st2" d="M468,326.6"/>
		<path class="st2" d="M653.7,326.6"/>
		<path class="st2" d="M253,326.6"/>
		<path class="st2" d="M436,326.6"/>
	</g>
</g>
<g id="Слой_3">
	<g>
		<path class="st3" d="M418,1580.7c6.3,9.5,14.9,29.9,14.9,29.9s-5.9,4.9-14.9,4.5"/>
		<path class="st4" d="M431.4,1612.2l-15.7-31.7c-0.4-0.8-0.1-1.8,0.7-2.2l0,0c0.8-0.4,1.8-0.1,2.2,0.7l15.7,31.7
			c0.4,0.8,0.1,1.8-0.7,2.2l0,0C432.8,1613.3,431.8,1613,431.4,1612.2z"/>
	</g>
	<g>
		<path class="st3" d="M418,1469.8c6.3,9.5,14.9,29.9,14.9,29.9s-5.9,4.9-14.9,4.5"/>
		<path class="st4" d="M431.4,1501.3l-15.7-31.7c-0.4-0.8-0.1-1.8,0.7-2.2l0,0c0.8-0.4,1.8-0.1,2.2,0.7l15.7,31.7
			c0.4,0.8,0.1,1.8-0.7,2.2l0,0C432.8,1502.4,431.8,1502.1,431.4,1501.3z"/>
	</g>
	<g>
		<path class="st3" d="M418,1664.2c6.3,9.5,14.9,29.9,14.9,29.9s-5.9,4.9-14.9,4.5"/>
		<path class="st4" d="M431.4,1695.7l-15.7-31.7c-0.4-0.8-0.1-1.8,0.7-2.2l0,0c0.8-0.4,1.8-0.1,2.2,0.7l15.7,31.7
			c0.4,0.8,0.1,1.8-0.7,2.2l0,0C432.8,1696.8,431.8,1696.5,431.4,1695.7z"/>
	</g>
	<g>
		<path class="st3" d="M430.8,1810.7c9.5-6.3,29.9-14.9,29.9-14.9s4.9,5.9,4.5,14.9"/>
		<path class="st4" d="M462.3,1797.2l-31.7,15.7c-0.8,0.4-1.8,0.1-2.2-0.7l0,0c-0.4-0.8-0.1-1.8,0.7-2.2l31.7-15.7
			c0.8-0.4,1.8-0.1,2.2,0.7l0,0C463.4,1795.9,463.1,1796.8,462.3,1797.2z"/>
	</g>
	<g>
		<path class="st3" d="M600.1,1810.7c-0.4-9,4.5-14.9,4.5-14.9s20.4,8.6,29.9,14.9"/>
		<path class="st4" d="M602.3,1795L602.3,1795c0.4-0.8,1.4-1.1,2.2-0.7l31.7,15.7c0.8,0.4,1.1,1.4,0.7,2.2l0,0
			c-0.4,0.8-1.4,1.1-2.2,0.7l-31.7-15.7C602.2,1796.8,601.9,1795.9,602.3,1795z"/>
	</g>
	<g>
		<path class="st3" d="M741.2,1810.7c-0.4-9,4.5-14.9,4.5-14.9s20.4,8.6,29.9,14.9"/>
		<path class="st4" d="M743.4,1795L743.4,1795c0.4-0.8,1.4-1.1,2.2-0.7l31.7,15.7c0.8,0.4,1.1,1.4,0.7,2.2l0,0
			c-0.4,0.8-1.4,1.1-2.2,0.7l-31.7-15.7C743.3,1796.8,743,1795.9,743.4,1795z"/>
	</g>
	<g>
		<path class="st3" d="M652.7,1898c-6.3-9.5-14.9-29.9-14.9-29.9s5.9-4.9,14.9-4.5"/>
		<path class="st4" d="M639.2,1866.5l15.7,31.7c0.4,0.8,0.1,1.8-0.7,2.2l0,0c-0.8,0.4-1.8,0.1-2.2-0.7l-15.7-31.7
			c-0.4-0.8-0.1-1.8,0.7-2.2l0,0C637.9,1865.4,638.8,1865.7,639.2,1866.5z"/>
	</g>
	<g>
		<path class="st3" d="M943.7,1810.7c-0.4-9,4.5-14.9,4.5-14.9s20.4,8.6,29.9,14.9"/>
		<path class="st4" d="M945.9,1795L945.9,1795c0.4-0.8,1.4-1.1,2.2-0.7l31.7,15.7c0.8,0.4,1.1,1.4,0.7,2.2l0,0
			c-0.4,0.8-1.4,1.1-2.2,0.7l-31.7-15.7C945.8,1796.8,945.5,1795.9,945.9,1795z"/>
	</g>
	<g>
		<path class="st3" d="M1041.7,1810.7c-0.4-9,4.5-14.9,4.5-14.9s20.4,8.6,29.9,14.9"/>
		<path class="st4" d="M1044,1795L1044,1795c0.4-0.8,1.4-1.1,2.2-0.7l31.7,15.7c0.8,0.4,1.1,1.4,0.7,2.2l0,0
			c-0.4,0.8-1.4,1.1-2.2,0.7l-31.7-15.7C1043.9,1796.8,1043.5,1795.9,1044,1795z"/>
	</g>
	<g>
		<path class="st3" d="M1125.2,1810.7c-0.4-9,4.5-14.9,4.5-14.9s20.4,8.6,29.9,14.9"/>
		<path class="st4" d="M1127.5,1795L1127.5,1795c0.4-0.8,1.4-1.1,2.2-0.7l31.7,15.7c0.8,0.4,1.1,1.4,0.7,2.2l0,0
			c-0.4,0.8-1.4,1.1-2.2,0.7l-31.7-15.7C1127.4,1796.8,1127,1795.9,1127.5,1795z"/>
	</g>
	<g>
		<path class="st3" d="M1352.9,1810.7c9.5-6.3,29.9-14.9,29.9-14.9s4.9,5.9,4.5,14.9"/>
		<path class="st4" d="M1384.4,1797.2l-31.7,15.7c-0.8,0.4-1.8,0.1-2.2-0.7l0,0c-0.4-0.8-0.1-1.8,0.7-2.2l31.7-15.7
			c0.8-0.4,1.8-0.1,2.2,0.7l0,0C1385.5,1795.9,1385.2,1796.8,1384.4,1797.2z"/>
	</g>
	<g>
		<path class="st3" d="M1434.7,1810.7c9.5-6.3,29.9-14.9,29.9-14.9s4.9,5.9,4.5,14.9"/>
		<path class="st4" d="M1466.2,1797.2l-31.7,15.7c-0.8,0.4-1.8,0.1-2.2-0.7l0,0c-0.4-0.8-0.1-1.8,0.7-2.2l31.7-15.7
			c0.8-0.4,1.8-0.1,2.2,0.7l0,0C1467.3,1795.9,1467,1796.8,1466.2,1797.2z"/>
	</g>
	<g>
		<path class="st3" d="M1625.4,1810.7c9.5-6.3,29.9-14.9,29.9-14.9s4.9,5.9,4.5,14.9"/>
		<path class="st4" d="M1656.9,1797.2l-31.7,15.7c-0.8,0.4-1.8,0.1-2.2-0.7l0,0c-0.4-0.8-0.1-1.8,0.7-2.2l31.7-15.7
			c0.8-0.4,1.8-0.1,2.2,0.7l0,0C1658,1795.9,1657.7,1796.8,1656.9,1797.2z"/>
	</g>
	<g>
		<path class="st3" d="M1997.8,1835.7c0.4-9-4.5-14.9-4.5-14.9s-20.4,8.6-29.9,14.9"/>
		<path class="st4" d="M1995.6,1820L1995.6,1820c-0.4-0.8-1.4-1.1-2.2-0.7l-31.7,15.7c-0.8,0.4-1.1,1.4-0.7,2.2l0,0
			c0.4,0.8,1.4,1.1,2.2,0.7l31.7-15.7C1995.7,1821.8,1996,1820.9,1995.6,1820z"/>
	</g>
	<g>
		<path class="st3" d="M1856.5,1810.6c9.5-6.3,29.9-14.9,29.9-14.9s4.9,5.9,4.5,14.9"/>
		<path class="st4" d="M1887.9,1797.2l-31.7,15.7c-0.8,0.4-1.8,0.1-2.2-0.7l0,0c-0.4-0.8-0.1-1.8,0.7-2.2l31.7-15.7
			c0.8-0.4,1.8-0.1,2.2,0.7l0,0C1889.1,1795.8,1888.7,1796.8,1887.9,1797.2z"/>
	</g>
	<g>
		<path class="st3" d="M1943.6,1745.5c-9-0.4-14.9,4.5-14.9,4.5s8.6,20.4,14.9,29.9"/>
		<path class="st4" d="M1928,1747.7L1928,1747.7c-0.8,0.4-1.1,1.4-0.7,2.2l15.7,31.7c0.4,0.8,1.4,1.1,2.2,0.7l0,0
			c0.8-0.4,1.1-1.4,0.7-2.2l-15.7-31.7C1929.8,1747.6,1928.8,1747.3,1928,1747.7z"/>
	</g>
	<g>
		<path class="st3" d="M1628.6,1727.4c0.4,9-4.5,14.9-4.5,14.9s-20.4-8.6-29.9-14.9"/>
		<path class="st4" d="M1626.4,1743.1L1626.4,1743.1c-0.4,0.8-1.4,1.1-2.2,0.7l-31.7-15.7c-0.8-0.4-1.1-1.4-0.7-2.2l0,0
			c0.4-0.8,1.4-1.1,2.2-0.7l31.7,15.7C1626.5,1741.2,1626.8,1742.2,1626.4,1743.1z"/>
	</g>
	<g>
		<path class="st3" d="M1393.2,1727.7c0.4,9-4.5,14.9-4.5,14.9s-20.4-8.6-29.9-14.9"/>
		<path class="st4" d="M1391,1743.3L1391,1743.3c-0.4,0.8-1.4,1.1-2.2,0.7l-31.7-15.7c-0.8-0.4-1.1-1.4-0.7-2.2l0,0
			c0.4-0.8,1.4-1.1,2.2-0.7l31.7,15.7C1391.1,1741.5,1391.4,1742.5,1391,1743.3z"/>
	</g>
	<g>
		<path class="st3" d="M1240.6,1728.2c0.4,9-4.5,14.9-4.5,14.9s-20.4-8.6-29.9-14.9"/>
		<path class="st4" d="M1238.3,1743.8L1238.3,1743.8c-0.4,0.8-1.4,1.1-2.2,0.7l-31.7-15.7c-0.8-0.4-1.1-1.4-0.7-2.2l0,0
			c0.4-0.8,1.4-1.1,2.2-0.7l31.7,15.7C1238.4,1742,1238.8,1743,1238.3,1743.8z"/>
	</g>
	<g>
		<path class="st3" d="M1163.4,1728.2c0.4,9-4.5,14.9-4.5,14.9s-20.4-8.6-29.9-14.9"/>
		<path class="st4" d="M1161.1,1743.8L1161.1,1743.8c-0.4,0.8-1.4,1.1-2.2,0.7l-31.7-15.7c-0.8-0.4-1.1-1.4-0.7-2.2l0,0
			c0.4-0.8,1.4-1.1,2.2-0.7l31.7,15.7C1161.2,1742,1161.6,1743,1161.1,1743.8z"/>
	</g>
	<g>
		<path class="st3" d="M1083.8,1728.2c0.4,9-4.5,14.9-4.5,14.9s-20.4-8.6-29.9-14.9"/>
		<path class="st4" d="M1081.5,1743.8L1081.5,1743.8c-0.4,0.8-1.4,1.1-2.2,0.7l-31.7-15.7c-0.8-0.4-1.1-1.4-0.7-2.2l0,0
			c0.4-0.8,1.4-1.1,2.2-0.7l31.7,15.7C1081.6,1742,1082,1743,1081.5,1743.8z"/>
	</g>
	<g>
		<path class="st3" d="M996.7,1728.2c0.4,9-4.5,14.9-4.5,14.9s-20.4-8.6-29.9-14.9"/>
		<path class="st4" d="M994.4,1743.8L994.4,1743.8c-0.4,0.8-1.4,1.1-2.2,0.7l-31.7-15.7c-0.8-0.4-1.1-1.4-0.7-2.2l0,0
			c0.4-0.8,1.4-1.1,2.2-0.7l31.7,15.7C994.5,1742,994.9,1743,994.4,1743.8z"/>
	</g>
	<g>
		<path class="st3" d="M707.3,1727.7c-9.5,6.3-29.9,14.9-29.9,14.9s-4.9-5.9-4.5-14.9"/>
		<path class="st4" d="M675.8,1741.1l31.7-15.7c0.8-0.4,1.8-0.1,2.2,0.7l0,0c0.4,0.8,0.1,1.8-0.7,2.2l-31.7,15.7
			c-0.8,0.4-1.8,0.1-2.2-0.7l0,0C674.7,1742.5,675,1741.5,675.8,1741.1z"/>
	</g>
	<g>
		<path class="st3" d="M618.6,1727.7c-9.5,6.3-29.9,14.9-29.9,14.9s-4.9-5.9-4.5-14.9"/>
		<path class="st4" d="M587.2,1741.1l31.7-15.7c0.8-0.4,1.8-0.1,2.2,0.7l0,0c0.4,0.8,0.1,1.8-0.7,2.2l-31.7,15.7
			c-0.8,0.4-1.8,0.1-2.2-0.7l0,0C586,1742.5,586.4,1741.5,587.2,1741.1z"/>
	</g>
	<g>
		<path class="st3" d="M474.1,1560.2c-9.5,6.3-29.9,14.9-29.9,14.9s-4.9-5.9-4.5-14.9"/>
		<path class="st4" d="M442.7,1573.6l31.7-15.7c0.8-0.4,1.8-0.1,2.2,0.7l0,0c0.4,0.8,0.1,1.8-0.7,2.2l-31.7,15.7
			c-0.8,0.4-1.8,0.1-2.2-0.7l0,0C441.5,1575,441.9,1574,442.7,1573.6z"/>
	</g>
	<g>
		<path class="st3" d="M476.8,1728.6c0.4,9-4.5,14.9-4.5,14.9s-20.4-8.6-29.9-14.9"/>
		<path class="st4" d="M474.5,1744.2L474.5,1744.2c-0.4,0.8-1.4,1.1-2.2,0.7l-31.7-15.7c-0.8-0.4-1.1-1.4-0.7-2.2l0,0
			c0.4-0.8,1.4-1.1,2.2-0.7l31.7,15.7C474.6,1742.4,475,1743.4,474.5,1744.2z"/>
	</g>
	<g>
		<path class="st3" d="M418.1,1194.5c6.3,9.5,14.9,29.9,14.9,29.9s-5.9,4.9-14.9,4.5"/>
		<path class="st4" d="M431.5,1226l-15.7-31.7c-0.4-0.8-0.1-1.8,0.7-2.2l0,0c0.8-0.4,1.8-0.1,2.2,0.7l15.7,31.7
			c0.4,0.8,0.1,1.8-0.7,2.2l0,0C432.9,1227.2,431.9,1226.8,431.5,1226z"/>
	</g>
	<g>
		<path class="st3" d="M418.1,1035.3c6.3,9.5,14.9,29.9,14.9,29.9s-5.9,4.9-14.9,4.5"/>
		<path class="st4" d="M431.5,1066.8l-15.7-31.7c-0.4-0.8-0.1-1.8,0.7-2.2l0,0c0.8-0.4,1.8-0.1,2.2,0.7l15.7,31.7
			c0.4,0.8,0.1,1.8-0.7,2.2l0,0C432.9,1067.9,431.9,1067.6,431.5,1066.8z"/>
	</g>
	<g>
		<path class="st3" d="M437.1,918c9.5-6.3,29.9-14.9,29.9-14.9s4.9,5.9,4.5,14.9"/>
		<path class="st4" d="M468.6,904.6l-31.7,15.7c-0.8,0.4-1.8,0.1-2.2-0.7l0,0c-0.4-0.8-0.1-1.8,0.7-2.2l31.7-15.7
			c0.8-0.4,1.8-0.1,2.2,0.7l0,0C469.7,903.2,469.4,904.2,468.6,904.6z"/>
	</g>
	<g>
		<path class="st3" d="M418.1,773.6c9-0.4,14.9,4.5,14.9,4.5s-8.6,20.4-14.9,29.9"/>
		<path class="st4" d="M433.7,775.8L433.7,775.8c0.8,0.4,1.1,1.4,0.7,2.2l-15.7,31.7c-0.4,0.8-1.4,1.1-2.2,0.7l0,0
			c-0.8-0.4-1.1-1.4-0.7-2.2l15.7-31.7C431.9,775.7,432.9,775.4,433.7,775.8z"/>
	</g>
	<g>
		<path class="st3" d="M418.1,701.5c6.3,9.5,14.9,29.9,14.9,29.9s-5.9,4.9-14.9,4.5"/>
		<path class="st4" d="M431.5,733l-15.7-31.7c-0.4-0.8-0.1-1.8,0.7-2.2l0,0c0.8-0.4,1.8-0.1,2.2,0.7l15.7,31.7
			c0.4,0.8,0.1,1.8-0.7,2.2l0,0C432.9,734.1,431.9,733.8,431.5,733z"/>
	</g>
	<g>
		<path class="st3" d="M418.1,533.4c6.3,9.5,14.9,29.9,14.9,29.9s-5.9,4.9-14.9,4.5"/>
		<path class="st4" d="M431.5,564.9l-15.7-31.7c-0.4-0.8-0.1-1.8,0.7-2.2l0,0c0.8-0.4,1.8-0.1,2.2,0.7l15.7,31.7
			c0.4,0.8,0.1,1.8-0.7,2.2l0,0C432.9,566,431.9,565.7,431.5,564.9z"/>
	</g>
	<g>
		<path class="st3" d="M418.1,414.8c6.3,9.5,14.9,29.9,14.9,29.9s-5.9,4.9-14.9,4.5"/>
		<path class="st4" d="M431.5,446.3l-15.7-31.7c-0.4-0.8-0.1-1.8,0.7-2.2l0,0c0.8-0.4,1.8-0.1,2.2,0.7l15.7,31.7
			c0.4,0.8,0.1,1.8-0.7,2.2l0,0C432.9,447.4,431.9,447.1,431.5,446.3z"/>
	</g>
	<g>
		<path class="st3" d="M486.7,402.9c-9,0.4-14.9-4.5-14.9-4.5s8.6-20.4,14.9-29.9"/>
		<path class="st4" d="M471.1,400.7L471.1,400.7c-0.8-0.4-1.1-1.4-0.7-2.2l15.7-31.7c0.4-0.8,1.4-1.1,2.2-0.7l0,0
			c0.8,0.4,1.1,1.4,0.7,2.2L473.3,400C472.9,400.8,471.9,401.1,471.1,400.7z"/>
	</g>
	<g>
		<path class="st3" d="M486.7,737.3c-9,0.4-14.9-4.5-14.9-4.5s8.6-20.4,14.9-29.9"/>
		<path class="st4" d="M471.1,735.2L471.1,735.2c-0.8-0.4-1.1-1.4-0.7-2.2l15.7-31.8c0.4-0.8,1.4-1.1,2.2-0.7l0,0
			c0.8,0.4,1.1,1.4,0.7,2.2l-15.7,31.7C472.9,735.2,471.9,735.6,471.1,735.2z"/>
	</g>
	<g>
		<path class="st3" d="M486.7,591.8c-9,0.4-14.9-4.5-14.9-4.5s8.6-20.4,14.9-29.9"/>
		<path class="st4" d="M471.1,589.7L471.1,589.7c-0.8-0.4-1.1-1.4-0.7-2.2l15.7-31.8c0.4-0.8,1.4-1.1,2.2-0.7l0,0
			c0.8,0.4,1.1,1.4,0.7,2.2l-15.7,31.7C472.9,589.7,471.9,590.1,471.1,589.7z"/>
	</g>
	<g>
		<path class="st3" d="M486.7,895.1c-6.3-9.5-14.9-29.9-14.9-29.9s5.9-4.9,14.9-4.5"/>
		<path class="st4" d="M473.3,863.6l15.7,31.7c0.4,0.8,0.1,1.8-0.7,2.2l0,0c-0.8,0.4-1.8,0.1-2.2-0.7l-15.7-31.7
			c-0.4-0.8-0.1-1.8,0.7-2.2l0,0C471.9,862.5,472.9,862.8,473.3,863.6z"/>
	</g>
</g>
<g id="Слой_4">
	<g class="st5">
		<path d="M331.4,394.3h-5v6.6h-2.6v-6.6h-14.2v-1.9l13.4-16.7h2.9l-13,16.3h10.9v-5.8h2.5v5.8h5v2.3L331.4,394.3L331.4,394.3z"/>
		<path d="M350.8,398.6v2.3h-17.7v-1.8l10.5-10.3c1.3-1.3,2.2-2.4,2.7-3.4s0.7-1.9,0.7-2.9c0-1.5-0.5-2.6-1.5-3.5s-2.5-1.2-4.4-1.2
			c-3,0-5.2,0.9-6.9,2.8l-1.8-1.6c1-1.2,2.2-2,3.8-2.7c1.5-0.6,3.2-0.9,5.2-0.9c2.6,0,4.6,0.6,6.1,1.8c1.5,1.2,2.2,2.9,2.2,5
			c0,1.3-0.3,2.5-0.9,3.7s-1.7,2.6-3.3,4.1l-8.6,8.4h13.9L350.8,398.6L350.8,398.6z"/>
		<path d="M374.7,394.3h-5v6.6H367v-6.6h-14.2v-1.9l13.4-16.7h2.9l-13,16.3H367v-5.8h2.5v5.8h5v2.3L374.7,394.3L374.7,394.3z"/>
	</g>
	<g class="st5">
		<path d="M566.3,396.3h-5v6.6h-2.6v-6.6h-14.2v-1.9l13.4-16.7h2.9l-13,16.3h10.9v-5.8h2.5v5.8h5L566.3,396.3L566.3,396.3z"/>
		<path d="M585.7,400.7v2.3H568v-1.8l10.5-10.3c1.3-1.3,2.2-2.4,2.7-3.4s0.7-1.9,0.7-2.9c0-1.5-0.5-2.6-1.5-3.5s-2.5-1.2-4.4-1.2
			c-3,0-5.2,0.9-6.9,2.8l-1.8-1.6c1-1.2,2.2-2,3.8-2.7c1.5-0.6,3.2-0.9,5.2-0.9c2.6,0,4.6,0.6,6.1,1.8c1.5,1.2,2.2,2.9,2.2,5
			c0,1.3-0.3,2.5-0.9,3.7c-0.6,1.2-1.7,2.6-3.3,4.1l-8.6,8.4h13.9V400.7z"/>
		<path d="M603.6,390.7c1.4,1.3,2.1,3,2.1,5c0,1.4-0.3,2.7-1,3.8c-0.7,1.1-1.7,2-3.1,2.6c-1.4,0.6-3,1-5,1c-1.8,0-3.5-0.3-5.2-0.9
			c-1.6-0.6-2.9-1.4-3.9-2.4l1.3-2.1c0.8,0.9,2,1.6,3.3,2.1c1.4,0.5,2.9,0.8,4.5,0.8c2.1,0,3.7-0.5,4.8-1.3c1.1-0.9,1.7-2.1,1.7-3.7
			s-0.6-2.8-1.7-3.7c-1.1-0.9-2.8-1.3-5.1-1.3h-1.8v-1.9l7-8.7h-12.9v-2.3h16.2v1.8l-7.1,9C600.2,388.7,602.2,389.4,603.6,390.7z"/>
	</g>
	<g class="st5">
		<path d="M332,526.8h-5v6.6h-2.6v-6.6h-14.2v-1.9l13.4-16.7h2.9l-12.9,16.3h10.9v-5.8h2.5v5.8h5L332,526.8L332,526.8z"/>
		<path d="M351.4,531.1v2.3h-17.7v-1.8l10.5-10.3c1.3-1.3,2.2-2.4,2.7-3.4s0.7-1.9,0.7-2.9c0-1.5-0.5-2.6-1.5-3.5s-2.5-1.2-4.4-1.2
			c-3,0-5.2,0.9-6.9,2.8l-1.8-1.6c1-1.2,2.2-2,3.8-2.7c1.5-0.6,3.2-0.9,5.2-0.9c2.6,0,4.6,0.6,6.1,1.8c1.5,1.2,2.2,2.9,2.2,5
			c0,1.3-0.3,2.5-0.9,3.7s-1.7,2.6-3.3,4.1l-8.6,8.4h13.9L351.4,531.1L351.4,531.1z"/>
		<path d="M369.2,520.5c1.7,1.3,2.5,3.1,2.5,5.5c0,1.5-0.3,2.8-1,3.9c-0.7,1.2-1.7,2.1-3.1,2.7c-1.4,0.7-3,1-5,1
			c-1.8,0-3.5-0.3-5.1-0.9c-1.6-0.6-2.9-1.4-3.9-2.4l1.3-2.1c0.8,0.9,1.9,1.6,3.3,2.1s2.8,0.8,4.4,0.8c2.1,0,3.7-0.5,4.8-1.4
			c1.1-0.9,1.7-2.2,1.7-3.7c0-1.7-0.6-3-1.9-3.9s-3.5-1.3-6.5-1.3h-5.4l1.3-12.6h13.8v2.3h-11.5l-0.9,8h3.2
			C364.9,518.5,367.6,519.2,369.2,520.5z"/>
	</g>
	<g class="st5">
		<path d="M566.9,527.2h-5v6.6h-2.6v-6.6H545v-1.9l13.4-16.7h2.9l-12.9,16.3h10.9v-5.8h2.5v5.8h5L566.9,527.2L566.9,527.2z"/>
		<path d="M586.3,531.5v2.3h-17.7V532l10.5-10.3c1.3-1.3,2.2-2.4,2.7-3.4s0.7-1.9,0.7-2.9c0-1.5-0.5-2.6-1.5-3.5s-2.5-1.2-4.4-1.2
			c-3,0-5.2,0.9-6.9,2.8l-1.8-1.6c1-1.2,2.2-2,3.8-2.7c1.5-0.6,3.2-0.9,5.2-0.9c2.6,0,4.6,0.6,6.1,1.8c1.5,1.2,2.2,2.9,2.2,5
			c0,1.3-0.3,2.5-0.9,3.7c-0.6,1.2-1.7,2.6-3.3,4.1l-8.6,8.4h13.9V531.5z"/>
		<path d="M606.7,531.5v2.3H589V532l10.5-10.3c1.3-1.3,2.2-2.4,2.7-3.4s0.7-1.9,0.7-2.9c0-1.5-0.5-2.6-1.5-3.5s-2.5-1.2-4.4-1.2
			c-3,0-5.2,0.9-6.9,2.8l-1.8-1.6c1-1.2,2.2-2,3.8-2.7c1.5-0.6,3.2-0.9,5.2-0.9c2.6,0,4.6,0.6,6.1,1.8c1.5,1.2,2.2,2.9,2.2,5
			c0,1.3-0.3,2.5-0.9,3.7c-0.6,1.2-1.7,2.6-3.3,4.1l-8.6,8.4h13.9V531.5z"/>
	</g>
	<g class="st5">
		<path d="M331.4,688.6h-5v6.6h-2.6v-6.6h-14.2v-1.9L323,670h2.9L313,686.3h10.9v-5.8h2.5v5.8h5V688.6L331.4,688.6z"/>
		<path d="M350.8,692.9v2.3h-17.7v-1.8l10.5-10.3c1.3-1.3,2.2-2.4,2.7-3.4s0.7-1.9,0.7-2.9c0-1.5-0.5-2.6-1.5-3.5s-2.5-1.2-4.4-1.2
			c-3,0-5.2,0.9-6.9,2.8l-1.8-1.6c1-1.2,2.2-2,3.8-2.7c1.5-0.6,3.2-0.9,5.2-0.9c2.6,0,4.6,0.6,6.1,1.8s2.2,2.9,2.2,5
			c0,1.3-0.3,2.5-0.9,3.7s-1.7,2.6-3.3,4.1l-8.6,8.4h13.9L350.8,692.9L350.8,692.9z"/>
		<path d="M368.8,681c1.3,0.6,2.3,1.5,3,2.6s1.1,2.5,1.1,4s-0.4,2.9-1.1,4.1c-0.7,1.2-1.8,2.1-3.1,2.7c-1.3,0.6-2.8,1-4.4,1
			c-3.3,0-5.9-1.1-7.7-3.3c-1.8-2.2-2.7-5.3-2.7-9.3c0-2.8,0.5-5.2,1.4-7.1c1-1.9,2.3-3.4,4-4.4s3.7-1.5,6-1.5c2.5,0,4.5,0.5,6,1.4
			l-1,2.1c-1.2-0.8-2.8-1.2-4.9-1.2c-2.8,0-5,0.9-6.6,2.6s-2.4,4.3-2.4,7.7c0,0.6,0,1.3,0.1,2.1c0.6-1.4,1.6-2.4,3-3.2
			s2.9-1.1,4.7-1.1C366,680.1,367.5,680.4,368.8,681z M368.6,691.7c1.1-1,1.7-2.3,1.7-4s-0.6-3-1.7-4s-2.7-1.5-4.6-1.5
			c-1.3,0-2.4,0.2-3.4,0.7s-1.7,1.1-2.3,2c-0.6,0.8-0.8,1.8-0.8,2.8s0.3,1.8,0.8,2.7c0.5,0.8,1.3,1.5,2.3,2s2.2,0.8,3.6,0.8
			C366,693.2,367.4,692.7,368.6,691.7z"/>
	</g>
	<g class="st5">
		<path d="M565.7,684.9h-5v6.6h-2.6v-6.6h-14.2V683l13.4-16.7h2.9l-12.9,16.3h10.9v-5.8h2.5v5.8h5L565.7,684.9L565.7,684.9z"/>
		<path d="M585.2,689.2v2.3h-17.7v-1.8l10.5-10.3c1.3-1.3,2.2-2.4,2.7-3.4s0.7-1.9,0.7-2.9c0-1.5-0.5-2.6-1.5-3.5s-2.5-1.2-4.4-1.2
			c-3,0-5.2,0.9-6.9,2.8l-1.8-1.6c1-1.2,2.2-2,3.8-2.7c1.5-0.6,3.2-0.9,5.2-0.9c2.6,0,4.6,0.6,6.1,1.8s2.2,2.9,2.2,5
			c0,1.3-0.3,2.5-0.9,3.7c-0.6,1.2-1.7,2.6-3.3,4.1l-8.6,8.4h13.9V689.2z"/>
		<path d="M595.4,666.3v25.2h-2.6v-22.9h-5.9v-2.3H595.4z"/>
	</g>
	<g class="st5">
		<path d="M332,817.1h-5v6.6h-2.6v-6.6h-14.2v-1.9l13.4-16.7h2.9l-12.9,16.3h10.9V809h2.5v5.8h5L332,817.1L332,817.1z"/>
		<path d="M351.4,821.4v2.3h-17.7v-1.8l10.5-10.3c1.3-1.3,2.2-2.4,2.7-3.4s0.7-1.9,0.7-2.9c0-1.5-0.5-2.6-1.5-3.5s-2.5-1.2-4.4-1.2
			c-3,0-5.2,0.9-6.9,2.8l-1.8-1.6c1-1.2,2.2-2,3.8-2.7c1.5-0.6,3.2-0.9,5.2-0.9c2.6,0,4.6,0.6,6.1,1.8s2.2,2.9,2.2,5
			c0,1.3-0.3,2.5-0.9,3.7s-1.7,2.6-3.3,4.1l-8.6,8.4h13.9L351.4,821.4L351.4,821.4z"/>
		<path d="M372.3,798.5v1.8l-10.5,23.4H359l10.4-22.9h-13v4.7h-2.6v-7H372.3z"/>
	</g>
	<g class="st5">
		<path d="M566.3,1646.1h-5v6.6h-2.6v-6.6h-14.2v-1.9l13.4-16.7h2.9l-12.9,16.3h10.9v-5.8h2.5v5.8h5L566.3,1646.1L566.3,1646.1z"/>
		<path d="M573.5,1651.4c-1.5-1-2.7-2.5-3.6-4.4c-0.9-1.9-1.3-4.2-1.3-6.8s0.4-4.9,1.3-6.8c0.9-1.9,2-3.4,3.6-4.4
			c1.5-1,3.3-1.5,5.2-1.5s3.7,0.5,5.2,1.5s2.7,2.5,3.6,4.4c0.9,1.9,1.3,4.2,1.3,6.8s-0.4,4.9-1.3,6.8c-0.9,1.9-2.1,3.4-3.6,4.4
			s-3.3,1.5-5.2,1.5S575,1652.4,573.5,1651.4z M582.6,1649.3c1.1-0.8,2-2,2.6-3.6s0.9-3.4,0.9-5.7s-0.3-4.1-0.9-5.7
			c-0.6-1.6-1.5-2.7-2.6-3.6c-1.1-0.8-2.4-1.2-3.9-1.2s-2.8,0.4-3.9,1.2c-1.1,0.8-2,2-2.6,3.6s-0.9,3.4-0.9,5.7s0.3,4.1,0.9,5.7
			c0.6,1.6,1.5,2.7,2.6,3.6c1.1,0.8,2.4,1.2,3.9,1.2C580.2,1650.5,581.5,1650.1,582.6,1649.3z"/>
		<path d="M610,1627.5v1.8l-10.5,23.4h-2.8l10.4-22.9h-13v4.7h-2.6v-7H610z"/>
	</g>
	<g class="st5">
		<path d="M756.1,1646.1h-5v6.6h-2.6v-6.6h-14.2v-1.9l13.4-16.7h2.9l-12.9,16.3h10.9v-5.8h2.5v5.8h5L756.1,1646.1L756.1,1646.1z"/>
		<path d="M763.3,1651.4c-1.5-1-2.7-2.5-3.6-4.4c-0.9-1.9-1.3-4.2-1.3-6.8s0.4-4.9,1.3-6.8c0.9-1.9,2-3.4,3.6-4.4
			c1.5-1,3.3-1.5,5.2-1.5s3.7,0.5,5.2,1.5s2.7,2.5,3.6,4.4c0.9,1.9,1.3,4.2,1.3,6.8s-0.4,4.9-1.3,6.8c-0.9,1.9-2.1,3.4-3.6,4.4
			s-3.3,1.5-5.2,1.5S764.8,1652.4,763.3,1651.4z M772.4,1649.3c1.1-0.8,2-2,2.6-3.6s0.9-3.4,0.9-5.7s-0.3-4.1-0.9-5.7
			c-0.6-1.6-1.5-2.7-2.6-3.6c-1.1-0.8-2.4-1.2-3.9-1.2s-2.8,0.4-3.9,1.2c-1.1,0.8-2,2-2.6,3.6s-0.9,3.4-0.9,5.7s0.3,4.1,0.9,5.7
			c0.6,1.6,1.5,2.7,2.6,3.6c1.1,0.8,2.4,1.2,3.9,1.2S771.3,1650.1,772.4,1649.3z"/>
		<path d="M797.1,1638.5c1.3,0.6,2.3,1.5,3,2.6s1.1,2.5,1.1,4s-0.4,2.9-1.1,4.1c-0.7,1.2-1.8,2.1-3.1,2.7s-2.8,1-4.4,1
			c-3.3,0-5.9-1.1-7.7-3.3c-1.8-2.2-2.7-5.3-2.7-9.3c0-2.8,0.5-5.2,1.4-7.1c1-1.9,2.3-3.4,4-4.4s3.7-1.5,6-1.5c2.5,0,4.5,0.5,6,1.4
			l-1,2.1c-1.2-0.8-2.8-1.2-4.9-1.2c-2.8,0-5,0.9-6.6,2.6s-2.4,4.3-2.4,7.7c0,0.6,0,1.3,0.1,2.1c0.6-1.4,1.6-2.4,3-3.2
			c1.4-0.8,2.9-1.1,4.7-1.1C794.4,1637.6,795.9,1637.9,797.1,1638.5z M797,1649.2c1.1-1,1.7-2.3,1.7-4s-0.6-3-1.7-4
			c-1.1-1-2.7-1.5-4.6-1.5c-1.3,0-2.4,0.2-3.4,0.7s-1.7,1.1-2.3,2c-0.6,0.8-0.8,1.8-0.8,2.8s0.3,1.8,0.8,2.7c0.5,0.8,1.3,1.5,2.3,2
			s2.2,0.8,3.6,0.8C794.3,1650.7,795.8,1650.2,797,1649.2z"/>
	</g>
	<g class="st5">
		<path d="M946.7,1646.1h-5v6.6h-2.6v-6.6h-14.2v-1.9l13.4-16.7h2.9l-12.9,16.3h10.9v-5.8h2.5v5.8h5L946.7,1646.1L946.7,1646.1z"/>
		<path d="M954,1651.4c-1.5-1-2.7-2.5-3.6-4.4c-0.9-1.9-1.3-4.2-1.3-6.8s0.4-4.9,1.3-6.8c0.9-1.9,2-3.4,3.6-4.4
			c1.5-1,3.3-1.5,5.2-1.5s3.7,0.5,5.2,1.5s2.7,2.5,3.6,4.4c0.9,1.9,1.3,4.2,1.3,6.8s-0.4,4.9-1.3,6.8c-0.9,1.9-2.1,3.4-3.6,4.4
			s-3.3,1.5-5.2,1.5S955.5,1652.4,954,1651.4z M963,1649.3c1.1-0.8,2-2,2.6-3.6s0.9-3.4,0.9-5.7s-0.3-4.1-0.9-5.7
			c-0.6-1.6-1.5-2.7-2.6-3.6c-1.1-0.8-2.4-1.2-3.9-1.2s-2.8,0.4-3.9,1.2c-1.1,0.8-2,2-2.6,3.6s-0.9,3.4-0.9,5.7s0.3,4.1,0.9,5.7
			c0.6,1.6,1.5,2.7,2.6,3.6c1.1,0.8,2.4,1.2,3.9,1.2S961.9,1650.1,963,1649.3z"/>
		<path d="M987.5,1639.8c1.7,1.3,2.5,3.1,2.5,5.5c0,1.5-0.3,2.8-1,3.9c-0.7,1.2-1.7,2.1-3.1,2.7c-1.4,0.7-3,1-5,1
			c-1.8,0-3.5-0.3-5.1-0.9s-2.9-1.4-3.9-2.4l1.3-2.1c0.8,0.9,1.9,1.6,3.3,2.1c1.4,0.5,2.8,0.8,4.4,0.8c2.1,0,3.7-0.5,4.8-1.4
			s1.7-2.2,1.7-3.7c0-1.7-0.6-3-1.9-3.9c-1.3-0.9-3.5-1.3-6.5-1.3h-5.4l1.3-12.6h13.8v2.3h-11.5l-0.9,8h3.2
			C983.2,1637.8,985.9,1638.5,987.5,1639.8z"/>
	</g>
	<g class="st5">
		<path d="M1071,1654.5v5h6.6v2.6h-6.6v14.2h-1.9l-16.7-13.4v-2.9l16.3,12.9V1662h-5.8v-2.5h5.8v-5H1071L1071,1654.5z"/>
		<path d="M1076.2,1647.3c-1,1.5-2.5,2.7-4.4,3.6s-4.2,1.3-6.8,1.3s-4.9-0.4-6.8-1.3s-3.4-2-4.4-3.6c-1-1.5-1.5-3.3-1.5-5.2
			s0.5-3.7,1.5-5.2s2.5-2.7,4.4-3.6s4.2-1.3,6.8-1.3s4.9,0.4,6.8,1.3s3.4,2.1,4.4,3.6s1.5,3.3,1.5,5.2S1077.3,1645.8,1076.2,1647.3z
			 M1074.2,1638.2c-0.8-1.1-2-2-3.6-2.6s-3.4-0.9-5.7-0.9s-4.1,0.3-5.7,0.9s-2.7,1.5-3.6,2.6c-0.8,1.1-1.2,2.4-1.2,3.9
			s0.4,2.8,1.2,3.9c0.8,1.1,2,2,3.6,2.6s3.4,0.9,5.7,0.9s4.1-0.3,5.7-0.9s2.7-1.5,3.6-2.6c0.8-1.1,1.2-2.4,1.2-3.9
			C1075.4,1640.6,1075,1639.3,1074.2,1638.2z"/>
		<path d="M1071,1606.9v5h6.6v2.6h-6.6v14.2h-1.9l-16.7-13.4v-2.9l16.3,12.9v-10.9h-5.8v-2.5h5.8v-5L1071,1606.9L1071,1606.9z"/>
	</g>
	<g class="st5">
		<path d="M1153,1670.8v5h6.6v2.6h-6.6v14.2h-1.9l-16.7-13.4v-2.9l16.3,12.9v-10.9h-5.8v-2.5h5.8v-5L1153,1670.8L1153,1670.8z"/>
		<path d="M1158.3,1663.5c-1,1.5-2.5,2.7-4.4,3.6s-4.2,1.3-6.8,1.3s-4.9-0.4-6.8-1.3s-3.4-2-4.4-3.6c-1-1.5-1.5-3.3-1.5-5.2
			s0.5-3.7,1.5-5.2s2.5-2.7,4.4-3.6s4.2-1.3,6.8-1.3s4.9,0.4,6.8,1.3s3.4,2.1,4.4,3.6s1.5,3.3,1.5,5.2S1159.3,1662,1158.3,1663.5z
			 M1156.3,1654.5c-0.8-1.1-2-2-3.6-2.6s-3.4-0.9-5.7-0.9s-4.1,0.3-5.7,0.9s-2.7,1.5-3.6,2.6c-0.8,1.1-1.2,2.4-1.2,3.9
			s0.4,2.8,1.2,3.9c0.8,1.1,2,2,3.6,2.6s3.4,0.9,5.7,0.9s4.1-0.3,5.7-0.9s2.7-1.5,3.6-2.6c0.8-1.1,1.2-2.4,1.2-3.9
			S1157.1,1655.6,1156.3,1654.5z"/>
		<path d="M1147.4,1630.3c1.3-1.4,3-2.1,5-2.1c1.4,0,2.7,0.3,3.8,1c1.1,0.7,2,1.7,2.6,3.1s1,3,1,5c0,1.8-0.3,3.5-0.9,5.2
			c-0.6,1.6-1.4,2.9-2.4,3.9l-2.1-1.3c0.9-0.8,1.6-2,2.1-3.3c0.5-1.4,0.8-2.9,0.8-4.5c0-2.1-0.5-3.7-1.3-4.8
			c-0.9-1.1-2.1-1.7-3.7-1.7s-2.8,0.6-3.7,1.7c-0.9,1.1-1.3,2.8-1.3,5.1v1.8h-1.9l-8.7-7v12.9h-2.3v-16.2h1.8l9,7.1
			C1145.4,1633.7,1146.1,1631.7,1147.4,1630.3z"/>
	</g>
	<g class="st5">
		<path d="M1231.7,1670.2v5h6.6v2.6h-6.6v14.2h-1.9l-16.7-13.4v-2.9l16.3,12.9v-10.9h-5.8v-2.5h5.8v-5L1231.7,1670.2L1231.7,1670.2z
			"/>
		<path d="M1237,1663c-1,1.5-2.5,2.7-4.4,3.6s-4.2,1.3-6.8,1.3s-4.9-0.4-6.8-1.3s-3.4-2-4.4-3.6c-1-1.5-1.5-3.3-1.5-5.2
			s0.5-3.7,1.5-5.2s2.5-2.7,4.4-3.6s4.2-1.3,6.8-1.3s4.9,0.4,6.8,1.3s3.4,2.1,4.4,3.6s1.5,3.3,1.5,5.2S1238,1661.4,1237,1663z
			 M1234.9,1653.9c-0.8-1.1-2-2-3.6-2.6s-3.4-0.9-5.7-0.9s-4.1,0.3-5.7,0.9s-2.7,1.5-3.6,2.6c-0.8,1.1-1.2,2.4-1.2,3.9
			s0.4,2.8,1.2,3.9c0.8,1.1,2,2,3.6,2.6s3.4,0.9,5.7,0.9s4.1-0.3,5.7-0.9s2.7-1.5,3.6-2.6c0.8-1.1,1.2-2.4,1.2-3.9
			S1235.7,1655,1234.9,1653.9z"/>
		<path d="M1236,1626.8h2.3v17.7h-1.8l-10.3-10.5c-1.3-1.3-2.4-2.2-3.4-2.7c-0.9-0.5-1.9-0.7-2.9-0.7c-1.5,0-2.6,0.5-3.5,1.5
			c-0.8,1-1.2,2.5-1.2,4.4c0,3,0.9,5.2,2.8,6.9l-1.6,1.8c-1.2-1-2-2.2-2.7-3.8c-0.6-1.5-0.9-3.2-0.9-5.2c0-2.6,0.6-4.6,1.8-6.1
			c1.2-1.5,2.9-2.2,5-2.2c1.3,0,2.5,0.3,3.7,0.9s2.6,1.7,4.1,3.3l8.4,8.6v-13.9L1236,1626.8L1236,1626.8z"/>
	</g>
	<g class="st5">
		<path d="M1413.5,1652.7h-5v6.6h-2.6v-6.6h-14.2v-1.9l13.4-16.7h2.9l-12.9,16.3h10.9v-5.8h2.5v5.8h5L1413.5,1652.7L1413.5,1652.7z"
			/>
		<path d="M1420.7,1657.9c-1.5-1-2.7-2.5-3.6-4.4s-1.3-4.2-1.3-6.8s0.4-4.9,1.3-6.8s2-3.4,3.6-4.4c1.5-1,3.3-1.5,5.2-1.5
			s3.7,0.5,5.2,1.5s2.7,2.5,3.6,4.4s1.3,4.2,1.3,6.8s-0.4,4.9-1.3,6.8s-2.1,3.4-3.6,4.4s-3.3,1.5-5.2,1.5S1422.2,1659,1420.7,1657.9
			z M1429.7,1655.9c1.1-0.8,2-2,2.6-3.6s0.9-3.4,0.9-5.7s-0.3-4.1-0.9-5.7s-1.5-2.7-2.6-3.6c-1.1-0.8-2.4-1.2-3.9-1.2
			s-2.8,0.4-3.9,1.2c-1.1,0.8-2,2-2.6,3.6s-0.9,3.4-0.9,5.7s0.3,4.1,0.9,5.7s1.5,2.7,2.6,3.6c1.1,0.8,2.4,1.2,3.9,1.2
			C1427.3,1657.1,1428.6,1656.7,1429.7,1655.9z"/>
		<path d="M1446.6,1634.1v25.2h-2.6v-22.9h-5.9v-2.3L1446.6,1634.1L1446.6,1634.1z"/>
	</g>
	<g class="st5">
		<path d="M1681.6,1653.1h-5v6.6h-2.6v-6.6h-14.2v-1.9l13.4-16.7h2.9l-12.9,16.3h10.9v-5.8h2.5v5.8h5L1681.6,1653.1L1681.6,1653.1z"
			/>
		<path d="M1688.9,1658.4c-1.5-1-2.7-2.5-3.6-4.4s-1.3-4.2-1.3-6.8s0.4-4.9,1.3-6.8s2-3.4,3.6-4.4c1.5-1,3.3-1.5,5.2-1.5
			s3.7,0.5,5.2,1.5s2.7,2.5,3.6,4.4s1.3,4.2,1.3,6.8s-0.4,4.9-1.3,6.8s-2.1,3.4-3.6,4.4s-3.3,1.5-5.2,1.5
			S1690.4,1659.4,1688.9,1658.4z M1697.9,1656.3c1.1-0.8,2-2,2.6-3.6s0.9-3.4,0.9-5.7s-0.3-4.1-0.9-5.7s-1.5-2.7-2.6-3.6
			c-1.1-0.8-2.4-1.2-3.9-1.2s-2.8,0.4-3.9,1.2c-1.1,0.8-2,2-2.6,3.6s-0.9,3.4-0.9,5.7s0.3,4.1,0.9,5.7s1.5,2.7,2.6,3.6
			c1.1,0.8,2.4,1.2,3.9,1.2S1696.8,1657.1,1697.9,1656.3z"/>
		<path d="M1712.7,1658.4c-1.5-1-2.7-2.5-3.6-4.4s-1.3-4.2-1.3-6.8s0.4-4.9,1.3-6.8s2-3.4,3.6-4.4c1.5-1,3.3-1.5,5.2-1.5
			s3.7,0.5,5.2,1.5s2.7,2.5,3.6,4.4s1.3,4.2,1.3,6.8s-0.4,4.9-1.3,6.8s-2.1,3.4-3.6,4.4s-3.3,1.5-5.2,1.5
			S1714.2,1659.4,1712.7,1658.4z M1721.8,1656.3c1.1-0.8,2-2,2.6-3.6s0.9-3.4,0.9-5.7s-0.3-4.1-0.9-5.7s-1.5-2.7-2.6-3.6
			c-1.1-0.8-2.4-1.2-3.9-1.2s-2.8,0.4-3.9,1.2c-1.1,0.8-2,2-2.6,3.6s-0.9,3.4-0.9,5.7s0.3,4.1,0.9,5.7s1.5,2.7,2.6,3.6
			c1.1,0.8,2.4,1.2,3.9,1.2C1719.3,1657.5,1720.6,1657.1,1721.8,1656.3z"/>
	</g>
	<g class="st5">
		<path d="M2021.2,1728.5h-5v6.6h-2.6v-6.6h-14.2v-1.9l13.4-16.7h2.9l-12.9,16.3h10.9v-5.8h2.5v5.8h5L2021.2,1728.5L2021.2,1728.5z"
			/>
		<path d="M2040.6,1732.8v2.3h-17.7v-1.8l10.5-10.3c1.3-1.3,2.2-2.4,2.7-3.4s0.7-1.9,0.7-2.9c0-1.5-0.5-2.6-1.5-3.5
			c-1-0.8-2.5-1.2-4.4-1.2c-3,0-5.2,0.9-6.9,2.8l-1.8-1.6c1-1.2,2.2-2,3.8-2.7c1.5-0.6,3.2-0.9,5.2-0.9c2.6,0,4.6,0.6,6.1,1.8
			s2.2,2.9,2.2,5c0,1.3-0.3,2.5-0.9,3.7s-1.7,2.6-3.3,4.1l-8.6,8.4h13.9L2040.6,1732.8L2040.6,1732.8z"/>
		<path d="M2048.5,1733.8c-1.5-1-2.7-2.5-3.6-4.4s-1.3-4.2-1.3-6.8s0.4-4.9,1.3-6.8s2-3.4,3.6-4.4c1.5-1,3.3-1.5,5.2-1.5
			s3.7,0.5,5.2,1.5s2.7,2.5,3.6,4.4c0.9,1.9,1.3,4.2,1.3,6.8s-0.4,4.9-1.3,6.8c-0.9,1.9-2.1,3.4-3.6,4.4s-3.3,1.5-5.2,1.5
			C2051.8,1735.4,2050.1,1734.9,2048.5,1733.8z M2057.6,1731.8c1.1-0.8,2-2,2.6-3.6s0.9-3.4,0.9-5.7s-0.3-4.1-0.9-5.7
			c-0.6-1.6-1.5-2.7-2.6-3.6c-1.1-0.8-2.4-1.2-3.9-1.2s-2.8,0.4-3.9,1.2c-1.1,0.8-2,2-2.6,3.6s-0.9,3.4-0.9,5.7s0.3,4.1,0.9,5.7
			s1.5,2.7,2.6,3.6c1.1,0.8,2.4,1.2,3.9,1.2C2055.2,1733,2056.5,1732.6,2057.6,1731.8z"/>
	</g>
	<g class="st5">
		<path d="M1867.6,1888.7h-5v6.6h-2.6v-6.6h-14.2v-1.9l13.4-16.7h2.9l-12.9,16.3h10.9v-5.8h2.5v5.8h5L1867.6,1888.7L1867.6,1888.7z"
			/>
		<path d="M1876.1,1870.1v25.2h-2.6v-22.9h-5.9v-2.3L1876.1,1870.1L1876.1,1870.1z"/>
		<path d="M1897.6,1873.2c1.8,2.2,2.7,5.3,2.7,9.3c0,2.8-0.5,5.2-1.4,7.1c-1,1.9-2.3,3.4-4,4.4s-3.7,1.5-6,1.5c-2.5,0-4.5-0.5-6-1.4
			l1-2.1c1.2,0.8,2.8,1.2,4.9,1.2c2.8,0,5-0.9,6.6-2.6c1.6-1.8,2.4-4.3,2.4-7.7c0-0.6,0-1.3-0.1-2.1c-0.6,1.4-1.6,2.4-3,3.2
			s-2.9,1.1-4.7,1.1c-1.7,0-3.1-0.3-4.4-0.9s-2.3-1.5-3-2.6s-1.1-2.5-1.1-4s0.4-2.9,1.1-4.1s1.8-2.1,3.1-2.7s2.8-1,4.4-1
			C1893.3,1869.9,1895.8,1871,1897.6,1873.2z M1893.6,1882.3c1-0.5,1.7-1.1,2.3-2c0.6-0.8,0.8-1.8,0.8-2.8s-0.3-1.8-0.8-2.7
			c-0.5-0.8-1.3-1.5-2.3-2s-2.2-0.8-3.6-0.8c-1.8,0-3.3,0.5-4.4,1.5s-1.7,2.3-1.7,4s0.6,3,1.7,4s2.7,1.5,4.6,1.5
			C1891.5,1883,1892.6,1882.8,1893.6,1882.3z"/>
	</g>
	<g class="st5">
		<path d="M1681.1,1888.7h-5v6.6h-2.6v-6.6h-14.2v-1.9l13.4-16.7h2.9l-12.9,16.3h10.9v-5.8h2.5v5.8h5L1681.1,1888.7L1681.1,1888.7z"
			/>
		<path d="M1689.5,1870.1v25.2h-2.6v-22.9h-5.9v-2.3L1689.5,1870.1L1689.5,1870.1z"/>
		<path d="M1713.6,1884.5c0.9,1.1,1.3,2.3,1.3,3.8s-0.4,2.7-1.2,3.8c-0.8,1.1-1.9,1.9-3.4,2.5s-3.2,0.9-5.2,0.9
			c-3,0-5.4-0.6-7.1-1.9s-2.6-3.1-2.6-5.3c0-1.5,0.4-2.8,1.2-3.8c0.8-1,2-1.8,3.6-2.4c-1.3-0.5-2.3-1.2-3-2.2c-0.7-0.9-1-2.1-1-3.4
			c0-2,0.8-3.7,2.4-4.9c1.6-1.2,3.7-1.8,6.4-1.8c1.8,0,3.3,0.3,4.7,0.8s2.4,1.3,3.1,2.3s1.1,2.2,1.1,3.5s-0.3,2.4-1,3.4
			c-0.7,0.9-1.7,1.7-3,2.2C1711.6,1882.7,1712.8,1883.5,1713.6,1884.5z M1710.3,1892c1.3-0.9,1.9-2.1,1.9-3.7s-0.6-2.8-1.9-3.7
			c-1.3-0.9-3-1.3-5.2-1.3s-3.9,0.4-5.2,1.3c-1.3,0.9-1.9,2.1-1.9,3.7s0.6,2.8,1.9,3.7c1.2,0.9,3,1.3,5.2,1.3
			C1707.3,1893.4,1709.1,1892.9,1710.3,1892z M1700.5,1880c1.1,0.8,2.6,1.2,4.6,1.2c1.9,0,3.5-0.4,4.6-1.2c1.1-0.8,1.7-1.9,1.7-3.3
			s-0.6-2.5-1.7-3.3s-2.7-1.2-4.6-1.2s-3.4,0.4-4.6,1.2c-1.1,0.8-1.7,1.9-1.7,3.3S1699.4,1879.2,1700.5,1880z"/>
	</g>
	<g class="st5">
		<path d="M2006.6,1915v8h-2.5v-5.7h-22v5.7h-2.5v-8h1.3c1.7-0.1,2.8-1.4,3.5-3.9c0.6-2.5,1-6.1,1.2-10.8l0.3-8.2h17v22.9H2006.6z
			 M1987,1910c-0.5,2.5-1.3,4.1-2.4,5h15.5v-20.6H1988l-0.2,6.1C1987.8,1904.3,1987.5,1907.5,1987,1910z"/>
		<path d="M2027.4,1908.6h-15.8c0.1,2,0.9,3.6,2.3,4.8c1.4,1.2,3.1,1.8,5.2,1.8c1.2,0,2.3-0.2,3.2-0.6s1.8-1,2.6-1.9l1.4,1.7
			c-0.8,1-1.9,1.8-3.2,2.3c-1.3,0.5-2.6,0.8-4.2,0.8c-1.9,0-3.7-0.4-5.2-1.2s-2.7-2-3.5-3.4c-0.8-1.5-1.3-3.1-1.3-5
			c0-1.8,0.4-3.5,1.2-5c0.8-1.5,1.9-2.6,3.3-3.4s3-1.2,4.7-1.2s3.3,0.4,4.7,1.2c1.4,0.8,2.5,2,3.3,3.4c0.8,1.5,1.2,3.1,1.2,5
			L2027.4,1908.6z M2013.7,1902.1c-1.2,1.2-1.9,2.7-2.1,4.6h13.4c-0.2-1.9-0.9-3.4-2.1-4.6s-2.8-1.7-4.6-1.7
			C2016.4,1900.4,2014.9,1901,2013.7,1902.1z"/>
		<path d="M2040,1908.8h-4.3v8.4h-2.6v-18.9h2.6v8.3h4.4l6.7-8.3h2.8l-7.5,9.2l8,9.8h-3L2040,1908.8z"/>
		<path d="M2065.9,1900c1.3,1.2,2,3.1,2,5.5v11.7h-2.4v-3c-0.6,1-1.4,1.8-2.5,2.3s-2.4,0.8-4,0.8c-2.1,0-3.8-0.5-5-1.5
			s-1.9-2.3-1.9-4c0-1.6,0.6-2.9,1.7-3.9s3-1.5,5.6-1.5h6v-1.2c0-1.6-0.5-2.9-1.4-3.7c-0.9-0.9-2.2-1.3-4-1.3
			c-1.2,0-2.4,0.2-3.5,0.6s-2.1,0.9-2.8,1.6l-1.2-1.9c1-0.8,2.1-1.4,3.5-1.9c1.3-0.4,2.8-0.7,4.2-0.7
			C2062.6,1898.2,2064.5,1898.8,2065.9,1900z M2063,1914.4c1-0.7,1.8-1.6,2.3-2.9v-3.1h-5.9c-3.2,0-4.9,1.1-4.9,3.4
			c0,1.1,0.4,2,1.3,2.6c0.8,0.6,2,1,3.5,1C2060.7,1915.4,2062,1915.1,2063,1914.4z"/>
		<path d="M2074.6,1898.3h2.6v8.4h11.9v-8.4h2.6v18.9h-2.6v-8.4h-11.9v8.4h-2.6V1898.3z"/>
	</g>
	<g class="st5">
		<path d="M1490.4,1889.1h-5v6.6h-2.6v-6.6h-14.2v-1.9l13.4-16.7h2.9l-12.9,16.3h10.9v-5.8h2.5v5.8h5L1490.4,1889.1L1490.4,1889.1z"
			/>
		<path d="M1498.8,1870.6v25.2h-2.6v-22.9h-5.9v-2.3L1498.8,1870.6L1498.8,1870.6z"/>
		<path d="M1522.6,1870.6v1.8l-10.5,23.4h-2.8l10.4-22.9h-13v4.7h-2.6v-7H1522.6z"/>
	</g>
	<g class="st5">
		<path d="M1261.9,1888.7h-5v6.6h-2.6v-6.6H1240v-1.9l13.4-16.7h2.9l-12.9,16.3h10.9v-5.8h2.5v5.8h5L1261.9,1888.7L1261.9,1888.7z"
			/>
		<path d="M1270.3,1870.1v25.2h-2.6v-22.9h-5.9v-2.3L1270.3,1870.1L1270.3,1870.1z"/>
		<path d="M1290.9,1882.4c1.7,1.3,2.5,3.1,2.5,5.5c0,1.5-0.3,2.8-1,3.9c-0.7,1.2-1.7,2.1-3.1,2.7c-1.4,0.7-3,1-5,1
			c-1.8,0-3.5-0.3-5.1-0.9s-2.9-1.4-3.9-2.4l1.3-2.1c0.8,0.9,1.9,1.6,3.3,2.1s2.8,0.8,4.4,0.8c2.1,0,3.7-0.5,4.8-1.4
			c1.1-0.9,1.7-2.2,1.7-3.7c0-1.7-0.6-3-1.9-3.9s-3.5-1.3-6.5-1.3h-5.4l1.3-12.6h13.8v2.3h-11.5l-0.9,8h3.2
			C1286.6,1880.5,1289.3,1881.1,1290.9,1882.4z"/>
	</g>
	<g class="st5">
		<path d="M1075.1,1901.1v5h6.6v2.6h-6.6v14.2h-1.9l-16.7-13.4v-2.9l16.3,12.9v-10.9h-5.8v-2.5h5.8v-5L1075.1,1901.1L1075.1,1901.1z
			"/>
		<path d="M1056.5,1892.7h25.2v2.6h-22.9v5.9h-2.3L1056.5,1892.7L1056.5,1892.7z"/>
		<path d="M1075.1,1865.2v5h6.6v2.6h-6.6v14.2h-1.9l-16.7-13.4v-2.9l16.3,12.9v-10.9h-5.8v-2.5h5.8v-5L1075.1,1865.2L1075.1,1865.2z
			"/>
	</g>
	<g class="st5">
		<path d="M868,1893.9h-5v6.6h-2.6v-6.6h-14.2v-1.9l13.4-16.7h2.9l-12.9,16.3h10.9v-5.8h2.5v5.8h5L868,1893.9L868,1893.9z"/>
		<path d="M876.5,1875.4v25.2h-2.6v-22.9H868v-2.3L876.5,1875.4L876.5,1875.4z"/>
		<path d="M897.1,1888.3c1.4,1.3,2.1,3,2.1,5c0,1.4-0.3,2.7-1,3.8c-0.7,1.1-1.7,2-3.1,2.6c-1.4,0.6-3,1-5,1c-1.8,0-3.5-0.3-5.2-0.9
			c-1.6-0.6-2.9-1.4-3.9-2.4l1.3-2.1c0.8,0.9,2,1.6,3.3,2.1c1.4,0.5,2.9,0.8,4.5,0.8c2.1,0,3.7-0.5,4.8-1.3c1.1-0.9,1.7-2.1,1.7-3.7
			s-0.6-2.8-1.7-3.7c-1.1-0.9-2.8-1.3-5.1-1.3H888v-1.9l7-8.7h-13v-2.3h16.2v1.8l-7.1,9C893.7,1886.3,895.7,1887,897.1,1888.3z"/>
	</g>
	<g class="st5">
		<path d="M565.7,1893.9h-5v6.6h-2.6v-6.6h-14.2v-1.9l13.4-16.7h2.9l-12.9,16.3h10.9v-5.8h2.5v5.8h5L565.7,1893.9L565.7,1893.9z"/>
		<path d="M574.2,1875.4v25.2h-2.6v-22.9h-5.9v-2.3L574.2,1875.4L574.2,1875.4z"/>
		<path d="M597.4,1898.3v2.3h-17.7v-1.8l10.5-10.3c1.3-1.3,2.2-2.4,2.7-3.4s0.7-1.9,0.7-2.9c0-1.5-0.5-2.6-1.5-3.5s-2.5-1.2-4.4-1.2
			c-3,0-5.2,0.9-6.9,2.8l-1.8-1.6c1-1.2,2.2-2,3.8-2.7c1.5-0.6,3.2-0.9,5.2-0.9c2.6,0,4.6,0.6,6.1,1.8c1.5,1.2,2.2,2.9,2.2,5
			c0,1.3-0.3,2.5-0.9,3.7c-0.6,1.2-1.7,2.6-3.3,4.1l-8.6,8.4h13.9V1898.3z"/>
	</g>
	<g class="st5">
		<path d="M369.6,1893.9h-5v6.6H362v-6.6h-14.2v-1.9l13.4-16.7h2.9l-12.9,16.3H362v-5.8h2.5v5.8h5v2.3L369.6,1893.9L369.6,1893.9z"
			/>
		<path d="M378.1,1875.4v25.2h-2.6v-22.9h-5.9v-2.3L378.1,1875.4L378.1,1875.4z"/>
		<path d="M391,1875.4v25.2h-2.6v-22.9h-5.9v-2.3L391,1875.4L391,1875.4z"/>
	</g>
</g>
</svg>
